G04 #@! TF.GenerationSoftware,KiCad,Pcbnew,(5.1.2)-1*
G04 #@! TF.CreationDate,2019-06-13T16:49:56+03:00*
G04 #@! TF.ProjectId,Home_Automation,486f6d65-5f41-4757-946f-6d6174696f6e,rev?*
G04 #@! TF.SameCoordinates,Original*
G04 #@! TF.FileFunction,Paste,Top*
G04 #@! TF.FilePolarity,Positive*
%FSLAX46Y46*%
G04 Gerber Fmt 4.6, Leading zero omitted, Abs format (unit mm)*
G04 Created by KiCad (PCBNEW (5.1.2)-1) date 2019-06-13 16:49:56*
%MOMM*%
%LPD*%
G04 APERTURE LIST*
%ADD10C,0.100000*%
%ADD11C,2.250000*%
G04 APERTURE END LIST*
D10*
G36*
X175230005Y-114280704D02*
G01*
X175254273Y-114284304D01*
X175278072Y-114290265D01*
X175301171Y-114298530D01*
X175323350Y-114309020D01*
X175344393Y-114321632D01*
X175364099Y-114336247D01*
X175382277Y-114352723D01*
X175398753Y-114370901D01*
X175413368Y-114390607D01*
X175425980Y-114411650D01*
X175436470Y-114433829D01*
X175444735Y-114456928D01*
X175450696Y-114480727D01*
X175454296Y-114504995D01*
X175455500Y-114529499D01*
X175455500Y-116279501D01*
X175454296Y-116304005D01*
X175450696Y-116328273D01*
X175444735Y-116352072D01*
X175436470Y-116375171D01*
X175425980Y-116397350D01*
X175413368Y-116418393D01*
X175398753Y-116438099D01*
X175382277Y-116456277D01*
X175364099Y-116472753D01*
X175344393Y-116487368D01*
X175323350Y-116499980D01*
X175301171Y-116510470D01*
X175278072Y-116518735D01*
X175254273Y-116524696D01*
X175230005Y-116528296D01*
X175205501Y-116529500D01*
X173155499Y-116529500D01*
X173130995Y-116528296D01*
X173106727Y-116524696D01*
X173082928Y-116518735D01*
X173059829Y-116510470D01*
X173037650Y-116499980D01*
X173016607Y-116487368D01*
X172996901Y-116472753D01*
X172978723Y-116456277D01*
X172962247Y-116438099D01*
X172947632Y-116418393D01*
X172935020Y-116397350D01*
X172924530Y-116375171D01*
X172916265Y-116352072D01*
X172910304Y-116328273D01*
X172906704Y-116304005D01*
X172905500Y-116279501D01*
X172905500Y-114529499D01*
X172906704Y-114504995D01*
X172910304Y-114480727D01*
X172916265Y-114456928D01*
X172924530Y-114433829D01*
X172935020Y-114411650D01*
X172947632Y-114390607D01*
X172962247Y-114370901D01*
X172978723Y-114352723D01*
X172996901Y-114336247D01*
X173016607Y-114321632D01*
X173037650Y-114309020D01*
X173059829Y-114298530D01*
X173082928Y-114290265D01*
X173106727Y-114284304D01*
X173130995Y-114280704D01*
X173155499Y-114279500D01*
X175205501Y-114279500D01*
X175230005Y-114280704D01*
X175230005Y-114280704D01*
G37*
D11*
X174180500Y-115404500D03*
D10*
G36*
X175230005Y-107880704D02*
G01*
X175254273Y-107884304D01*
X175278072Y-107890265D01*
X175301171Y-107898530D01*
X175323350Y-107909020D01*
X175344393Y-107921632D01*
X175364099Y-107936247D01*
X175382277Y-107952723D01*
X175398753Y-107970901D01*
X175413368Y-107990607D01*
X175425980Y-108011650D01*
X175436470Y-108033829D01*
X175444735Y-108056928D01*
X175450696Y-108080727D01*
X175454296Y-108104995D01*
X175455500Y-108129499D01*
X175455500Y-109879501D01*
X175454296Y-109904005D01*
X175450696Y-109928273D01*
X175444735Y-109952072D01*
X175436470Y-109975171D01*
X175425980Y-109997350D01*
X175413368Y-110018393D01*
X175398753Y-110038099D01*
X175382277Y-110056277D01*
X175364099Y-110072753D01*
X175344393Y-110087368D01*
X175323350Y-110099980D01*
X175301171Y-110110470D01*
X175278072Y-110118735D01*
X175254273Y-110124696D01*
X175230005Y-110128296D01*
X175205501Y-110129500D01*
X173155499Y-110129500D01*
X173130995Y-110128296D01*
X173106727Y-110124696D01*
X173082928Y-110118735D01*
X173059829Y-110110470D01*
X173037650Y-110099980D01*
X173016607Y-110087368D01*
X172996901Y-110072753D01*
X172978723Y-110056277D01*
X172962247Y-110038099D01*
X172947632Y-110018393D01*
X172935020Y-109997350D01*
X172924530Y-109975171D01*
X172916265Y-109952072D01*
X172910304Y-109928273D01*
X172906704Y-109904005D01*
X172905500Y-109879501D01*
X172905500Y-108129499D01*
X172906704Y-108104995D01*
X172910304Y-108080727D01*
X172916265Y-108056928D01*
X172924530Y-108033829D01*
X172935020Y-108011650D01*
X172947632Y-107990607D01*
X172962247Y-107970901D01*
X172978723Y-107952723D01*
X172996901Y-107936247D01*
X173016607Y-107921632D01*
X173037650Y-107909020D01*
X173059829Y-107898530D01*
X173082928Y-107890265D01*
X173106727Y-107884304D01*
X173130995Y-107880704D01*
X173155499Y-107879500D01*
X175205501Y-107879500D01*
X175230005Y-107880704D01*
X175230005Y-107880704D01*
G37*
D11*
X174180500Y-109004500D03*
M02*
