M48
; DRILL file {KiCad (5.1.2)-1} date 13/06/2019 16:49:59
; FORMAT={-:-/ absolute / inch / decimal}
; #@! TF.CreationDate,2019-06-13T16:49:59+03:00
; #@! TF.GenerationSoftware,Kicad,Pcbnew,(5.1.2)-1
; #@! TF.FileFunction,Plated,1,2,PTH
FMAT,2
INCH
T1C0.0130
T2C0.0236
T3C0.0295
T4C0.0315
T5C0.0354
T6C0.0394
T7C0.0394
T8C0.0433
T9C0.0472
T10C0.0512
T11C0.0551
T12C0.0630
T13C0.0866
T14C0.1378
%
G90
G05
T1
X5.855Y-4.0975
X6.12Y-3.79
X6.205Y-3.5325
X6.8075Y-4.0825
X6.8075Y-4.2239
X6.9125Y-3.88
T2
X7.505Y-4.535
X7.5837Y-4.535
T3
X5.68Y-3.0675
X5.73Y-3.0675
X5.78Y-3.0675
X6.3375Y-3.065
X6.3875Y-3.065
X6.4375Y-3.065
T4
X7.2525Y-3.93
X7.2525Y-4.03
X7.2525Y-4.13
X7.2525Y-4.23
X7.5525Y-3.93
X7.5525Y-4.03
X7.5525Y-4.13
X7.5525Y-4.23
X5.99Y-4.86
X5.99Y-5.26
X7.2525Y-3.4925
X7.2525Y-3.5925
X7.2525Y-3.6925
X7.2525Y-3.7925
X7.5525Y-3.4925
X7.5525Y-3.5925
X7.5525Y-3.6925
X7.5525Y-3.7925
X7.2525Y-3.245
X7.2525Y-3.345
X7.5525Y-3.245
X7.5525Y-3.345
X7.115Y-2.39
X7.515Y-2.39
X5.8775Y-3.655
X6.2775Y-3.655
X7.115Y-2.26
X7.515Y-2.26
X6.915Y-3.7425
X6.915Y-4.1425
X6.8Y-3.6416
X6.8Y-3.74
X5.8775Y-3.785
X6.2775Y-3.785
X7.07Y-4.345
X7.07Y-4.5371
X7.8975Y-4.625
X7.9959Y-4.625
X5.865Y-4.86
X5.865Y-5.26
X5.69Y-4.25
X6.09Y-4.25
X7.23Y-4.3675
X7.63Y-4.3675
X6.2725Y-3.935
X6.2725Y-4.0334
X6.915Y-3.2425
X6.915Y-3.6425
X5.81Y-3.2725
X6.21Y-3.2725
X7.06Y-3.7425
X7.06Y-4.1425
X5.6875Y-3.925
X5.6875Y-4.0037
X5.6875Y-4.0825
X5.7662Y-3.925
X5.7662Y-4.0037
X5.7662Y-4.0825
X5.81Y-3.4025
X6.21Y-3.4025
X6.385Y-3.33
X6.385Y-3.43
X6.385Y-3.53
X6.385Y-3.63
X6.385Y-3.73
X6.385Y-3.83
X6.385Y-3.93
X6.385Y-4.03
X6.385Y-4.13
X6.385Y-4.23
X6.385Y-4.33
X6.385Y-4.43
X6.385Y-4.53
X6.385Y-4.63
X6.685Y-3.33
X6.685Y-3.43
X6.685Y-3.53
X6.685Y-3.63
X6.685Y-3.73
X6.685Y-3.83
X6.685Y-3.93
X6.685Y-4.03
X6.685Y-4.13
X6.685Y-4.23
X6.685Y-4.33
X6.685Y-4.43
X6.685Y-4.53
X6.685Y-4.63
X7.55Y-4.6891
X7.55Y-4.7875
X7.53Y-4.96
X7.93Y-4.96
X7.06Y-3.2425
X7.06Y-3.6425
X6.8Y-3.8275
X6.8Y-3.9259
X5.6875Y-3.5525
X5.6875Y-3.6312
X5.6875Y-3.71
X5.6875Y-3.7887
X5.7662Y-3.5525
X5.7662Y-3.6312
X5.7662Y-3.71
X5.7662Y-3.7887
T5
X8.46Y-4.695
X8.46Y-4.795
T6
X6.3557Y-2.7857
X6.8282Y-2.7857
X5.7007Y-2.7857
X6.1732Y-2.7857
T7
X5.7175Y-4.8375
X5.7175Y-4.9875
X5.7175Y-5.1375
X5.7175Y-5.2875
T8
X7.815Y-2.7675
X7.815Y-2.8675
X7.815Y-2.9675
X8.16Y-2.77
X8.16Y-2.87
X8.16Y-2.97
X7.62Y-5.2575
X7.72Y-5.2575
X7.82Y-5.2575
X5.71Y-4.3841
X5.71Y-4.64
X5.8872Y-4.3841
X5.8872Y-4.64
T9
X7.075Y-2.62
X7.0789Y-3.0491
X7.5041Y-2.62
X7.5041Y-3.0491
T10
X5.6988Y-2.3034
X5.935Y-2.8625
X6.1732Y-2.3054
X8.0175Y-3.7638
X8.0175Y-3.9606
X8.0175Y-4.1575
X6.3538Y-2.3034
X6.59Y-2.8625
X6.8282Y-2.3054
T11
X6.62Y-3.05
X6.82Y-3.05
X5.965Y-3.05
X6.165Y-3.05
T12
X7.0697Y-1.9325
X7.2075Y-1.9325
X7.9922Y-1.9325
X8.13Y-1.9325
X6.5197Y-1.9325
X6.6575Y-1.9325
X7.5172Y-1.9325
X7.655Y-1.9325
X5.8722Y-1.93
X6.01Y-1.93
T13
X8.4Y-4.37
X5.5375Y-1.9125
X8.3925Y-1.9375
X5.53Y-5.23
T14
X7.9875Y-2.3425
X7.9875Y-3.3425
T6
G00X8.15Y-5.1694
M15
G01X8.15Y-5.0906
M16
G05
G00X8.3075Y-4.945
M15
G01X8.2287Y-4.945
M16
G05
G00X8.3862Y-5.1694
M15
G01X8.3862Y-5.0906
M16
G05
T0
M30
