%FSLAX45Y45*%
G04 Gerber Fmt 4.5, Leading zero omitted, Abs format (unit mm)*
G04 Created by KiCad (PCBNEW (5.1.2)-1) date 2019-06-13 16:50:11*
%MOMM*%
%LPD*%
G04 APERTURE LIST*
%ADD10C,0.050000*%
%ADD11C,0.200000*%
%ADD12C,0.300000*%
G04 APERTURE END LIST*
D10*
X21653500Y-4445000D02*
X21780500Y-4572000D01*
X20955000Y-5715000D02*
X21082000Y-5588000D01*
X21653500Y-9080500D02*
X21780500Y-9207500D01*
X21653500Y-13716000D02*
X21780500Y-13589000D01*
X20955000Y-8953500D02*
X21082000Y-9080500D01*
X21653500Y-5588000D02*
X21780500Y-5461000D01*
X21082000Y-5588000D02*
X21653500Y-5588000D01*
X21780500Y-4572000D02*
X21780500Y-5461000D01*
X13716000Y-4572000D02*
X13843000Y-4445000D01*
X13716000Y-13589000D02*
X13843000Y-13716000D01*
X14033500Y-12065000D02*
X14160500Y-11938000D01*
X13716000Y-5461000D02*
X13716000Y-4572000D01*
X13843000Y-5588000D02*
X13716000Y-5461000D01*
X14033500Y-5588000D02*
X13843000Y-5588000D01*
X14160500Y-5715000D02*
X14033500Y-5588000D01*
X14160500Y-11938000D02*
X14160500Y-5715000D01*
X13843000Y-12065000D02*
X14033500Y-12065000D01*
X13716000Y-12192000D02*
X13843000Y-12065000D01*
X13716000Y-12198350D02*
X13716000Y-12192000D01*
X13716000Y-13589000D02*
X13716000Y-12198350D01*
X21653500Y-13716000D02*
X13843000Y-13716000D01*
X21780500Y-9207500D02*
X21780500Y-13589000D01*
X21082000Y-9080500D02*
X21653500Y-9080500D01*
X20955000Y-5715000D02*
X20955000Y-8953500D01*
X13843000Y-4445000D02*
X21653500Y-4445000D01*
D11*
D12*
X13999928Y-14184214D02*
X13999928Y-13884214D01*
X14071357Y-13884214D01*
X14114214Y-13898500D01*
X14142786Y-13927071D01*
X14157071Y-13955643D01*
X14171357Y-14012786D01*
X14171357Y-14055643D01*
X14157071Y-14112786D01*
X14142786Y-14141357D01*
X14114214Y-14169929D01*
X14071357Y-14184214D01*
X13999928Y-14184214D01*
X14299928Y-14184214D02*
X14299928Y-13984214D01*
X14299928Y-14041357D02*
X14314214Y-14012786D01*
X14328500Y-13998500D01*
X14357071Y-13984214D01*
X14385643Y-13984214D01*
X14485643Y-14184214D02*
X14485643Y-13984214D01*
X14485643Y-13884214D02*
X14471357Y-13898500D01*
X14485643Y-13912786D01*
X14499928Y-13898500D01*
X14485643Y-13884214D01*
X14485643Y-13912786D01*
X14671357Y-14184214D02*
X14642786Y-14169929D01*
X14628500Y-14141357D01*
X14628500Y-13884214D01*
X14828500Y-14184214D02*
X14799928Y-14169929D01*
X14785643Y-14141357D01*
X14785643Y-13884214D01*
X15171357Y-14184214D02*
X15171357Y-13884214D01*
X15271357Y-14098500D01*
X15371357Y-13884214D01*
X15371357Y-14184214D01*
X15642786Y-14184214D02*
X15642786Y-14027071D01*
X15628500Y-13998500D01*
X15599928Y-13984214D01*
X15542786Y-13984214D01*
X15514214Y-13998500D01*
X15642786Y-14169929D02*
X15614214Y-14184214D01*
X15542786Y-14184214D01*
X15514214Y-14169929D01*
X15499928Y-14141357D01*
X15499928Y-14112786D01*
X15514214Y-14084214D01*
X15542786Y-14069929D01*
X15614214Y-14069929D01*
X15642786Y-14055643D01*
X15785643Y-13984214D02*
X15785643Y-14284214D01*
X15785643Y-13998500D02*
X15814214Y-13984214D01*
X15871357Y-13984214D01*
X15899928Y-13998500D01*
X15914214Y-14012786D01*
X15928500Y-14041357D01*
X15928500Y-14127071D01*
X15914214Y-14155643D01*
X15899928Y-14169929D01*
X15871357Y-14184214D01*
X15814214Y-14184214D01*
X15785643Y-14169929D01*
X16057071Y-14155643D02*
X16071357Y-14169929D01*
X16057071Y-14184214D01*
X16042786Y-14169929D01*
X16057071Y-14155643D01*
X16057071Y-14184214D01*
X16057071Y-13998500D02*
X16071357Y-14012786D01*
X16057071Y-14027071D01*
X16042786Y-14012786D01*
X16057071Y-13998500D01*
X16057071Y-14027071D01*
M02*
