G04 #@! TF.GenerationSoftware,KiCad,Pcbnew,(5.1.2)-1*
G04 #@! TF.CreationDate,2019-06-13T16:49:56+03:00*
G04 #@! TF.ProjectId,Home_Automation,486f6d65-5f41-4757-946f-6d6174696f6e,rev?*
G04 #@! TF.SameCoordinates,Original*
G04 #@! TF.FileFunction,Soldermask,Top*
G04 #@! TF.FilePolarity,Negative*
%FSLAX46Y46*%
G04 Gerber Fmt 4.6, Leading zero omitted, Abs format (unit mm)*
G04 Created by KiCad (PCBNEW (5.1.2)-1) date 2019-06-13 16:49:56*
%MOMM*%
%LPD*%
G04 APERTURE LIST*
%ADD10C,0.100000*%
G04 APERTURE END LIST*
D10*
G36*
X146525180Y-135603180D02*
G01*
X143923820Y-135603180D01*
X143923820Y-133001820D01*
X146525180Y-133001820D01*
X146525180Y-135603180D01*
X146525180Y-135603180D01*
G37*
G36*
X140737880Y-130601776D02*
G01*
X141118593Y-130677504D01*
X141528249Y-130847189D01*
X141896929Y-131093534D01*
X142210466Y-131407071D01*
X142456811Y-131775751D01*
X142626496Y-132185407D01*
X142713000Y-132620296D01*
X142713000Y-133063704D01*
X142626496Y-133498593D01*
X142456811Y-133908249D01*
X142210466Y-134276929D01*
X141896929Y-134590466D01*
X141528249Y-134836811D01*
X141118593Y-135006496D01*
X140737880Y-135082224D01*
X140683705Y-135093000D01*
X140240295Y-135093000D01*
X140186120Y-135082224D01*
X139805407Y-135006496D01*
X139395751Y-134836811D01*
X139027071Y-134590466D01*
X138713534Y-134276929D01*
X138467189Y-133908249D01*
X138297504Y-133498593D01*
X138211000Y-133063704D01*
X138211000Y-132620296D01*
X138297504Y-132185407D01*
X138467189Y-131775751D01*
X138713534Y-131407071D01*
X139027071Y-131093534D01*
X139395751Y-130847189D01*
X139805407Y-130677504D01*
X140186120Y-130601776D01*
X140240295Y-130591000D01*
X140683705Y-130591000D01*
X140737880Y-130601776D01*
X140737880Y-130601776D01*
G37*
G36*
X196284720Y-132504020D02*
G01*
X196473881Y-132561401D01*
X196648212Y-132654583D01*
X196801015Y-132779985D01*
X196926417Y-132932788D01*
X196931867Y-132942985D01*
X197019598Y-133107117D01*
X197019599Y-133107120D01*
X197076980Y-133296281D01*
X197091500Y-133443707D01*
X197091500Y-133637294D01*
X197076980Y-133784720D01*
X197019599Y-133973881D01*
X196926417Y-134148212D01*
X196801015Y-134301015D01*
X196648212Y-134426417D01*
X196566333Y-134470182D01*
X196473883Y-134519598D01*
X196473880Y-134519599D01*
X196284719Y-134576980D01*
X196088000Y-134596355D01*
X195891280Y-134576980D01*
X195702119Y-134519599D01*
X195527788Y-134426417D01*
X195374985Y-134301015D01*
X195249583Y-134148212D01*
X195174157Y-134007100D01*
X195156402Y-133973883D01*
X195136492Y-133908249D01*
X195099020Y-133784719D01*
X195084500Y-133637293D01*
X195084500Y-133443706D01*
X195099020Y-133296280D01*
X195156401Y-133107119D01*
X195249583Y-132932788D01*
X195374985Y-132779985D01*
X195527788Y-132654583D01*
X195702120Y-132561401D01*
X195891281Y-132504020D01*
X196088000Y-132484645D01*
X196284720Y-132504020D01*
X196284720Y-132504020D01*
G37*
G36*
X193744720Y-132504020D02*
G01*
X193933881Y-132561401D01*
X194108212Y-132654583D01*
X194261015Y-132779985D01*
X194386417Y-132932788D01*
X194391867Y-132942985D01*
X194479598Y-133107117D01*
X194479599Y-133107120D01*
X194536980Y-133296281D01*
X194551500Y-133443707D01*
X194551500Y-133637294D01*
X194536980Y-133784720D01*
X194479599Y-133973881D01*
X194386417Y-134148212D01*
X194261015Y-134301015D01*
X194108212Y-134426417D01*
X194026333Y-134470182D01*
X193933883Y-134519598D01*
X193933880Y-134519599D01*
X193744719Y-134576980D01*
X193548000Y-134596355D01*
X193351280Y-134576980D01*
X193162119Y-134519599D01*
X192987788Y-134426417D01*
X192834985Y-134301015D01*
X192709583Y-134148212D01*
X192634157Y-134007100D01*
X192616402Y-133973883D01*
X192596492Y-133908249D01*
X192559020Y-133784719D01*
X192544500Y-133637293D01*
X192544500Y-133443706D01*
X192559020Y-133296280D01*
X192616401Y-133107119D01*
X192709583Y-132932788D01*
X192834985Y-132779985D01*
X192987788Y-132654583D01*
X193162120Y-132561401D01*
X193351281Y-132504020D01*
X193548000Y-132484645D01*
X193744720Y-132504020D01*
X193744720Y-132504020D01*
G37*
G36*
X199631500Y-134591500D02*
G01*
X197624500Y-134591500D01*
X197624500Y-132489500D01*
X199631500Y-132489500D01*
X199631500Y-134591500D01*
X199631500Y-134591500D01*
G37*
G36*
X152394228Y-132785703D02*
G01*
X152549100Y-132849853D01*
X152688481Y-132942985D01*
X152807015Y-133061519D01*
X152900147Y-133200900D01*
X152964297Y-133355772D01*
X152997000Y-133520184D01*
X152997000Y-133687816D01*
X152964297Y-133852228D01*
X152900147Y-134007100D01*
X152807015Y-134146481D01*
X152688481Y-134265015D01*
X152549100Y-134358147D01*
X152394228Y-134422297D01*
X152229816Y-134455000D01*
X152062184Y-134455000D01*
X151897772Y-134422297D01*
X151742900Y-134358147D01*
X151603519Y-134265015D01*
X151484985Y-134146481D01*
X151391853Y-134007100D01*
X151327703Y-133852228D01*
X151295000Y-133687816D01*
X151295000Y-133520184D01*
X151327703Y-133355772D01*
X151391853Y-133200900D01*
X151484985Y-133061519D01*
X151603519Y-132942985D01*
X151742900Y-132849853D01*
X151897772Y-132785703D01*
X152062184Y-132753000D01*
X152229816Y-132753000D01*
X152394228Y-132785703D01*
X152394228Y-132785703D01*
G37*
G36*
X149137823Y-132765313D02*
G01*
X149298242Y-132813976D01*
X149365361Y-132849852D01*
X149446078Y-132892996D01*
X149575659Y-132999341D01*
X149682004Y-133128922D01*
X149682005Y-133128924D01*
X149761024Y-133276758D01*
X149809687Y-133437177D01*
X149826117Y-133604000D01*
X149809687Y-133770823D01*
X149761024Y-133931242D01*
X149720477Y-134007100D01*
X149682004Y-134079078D01*
X149575659Y-134208659D01*
X149446078Y-134315004D01*
X149446076Y-134315005D01*
X149298242Y-134394024D01*
X149137823Y-134442687D01*
X149012804Y-134455000D01*
X148929196Y-134455000D01*
X148804177Y-134442687D01*
X148643758Y-134394024D01*
X148495924Y-134315005D01*
X148495922Y-134315004D01*
X148366341Y-134208659D01*
X148259996Y-134079078D01*
X148221523Y-134007100D01*
X148180976Y-133931242D01*
X148132313Y-133770823D01*
X148115883Y-133604000D01*
X148132313Y-133437177D01*
X148180976Y-133276758D01*
X148259995Y-133128924D01*
X148259996Y-133128922D01*
X148366341Y-132999341D01*
X148495922Y-132892996D01*
X148576639Y-132849852D01*
X148643758Y-132813976D01*
X148804177Y-132765313D01*
X148929196Y-132753000D01*
X149012804Y-132753000D01*
X149137823Y-132765313D01*
X149137823Y-132765313D01*
G37*
G36*
X213986979Y-128515293D02*
G01*
X214120625Y-128555834D01*
X214243784Y-128621664D01*
X214351740Y-128710260D01*
X214440336Y-128818216D01*
X214506166Y-128941375D01*
X214546707Y-129075021D01*
X214561000Y-129220140D01*
X214561000Y-131383860D01*
X214546707Y-131528979D01*
X214506166Y-131662625D01*
X214440336Y-131785784D01*
X214351740Y-131893740D01*
X214243784Y-131982336D01*
X214120625Y-132048166D01*
X213986979Y-132088707D01*
X213841860Y-132103000D01*
X212178140Y-132103000D01*
X212033021Y-132088707D01*
X211899375Y-132048166D01*
X211776216Y-131982336D01*
X211668260Y-131893740D01*
X211579664Y-131785784D01*
X211513834Y-131662625D01*
X211473293Y-131528979D01*
X211459000Y-131383860D01*
X211459000Y-129220140D01*
X211473293Y-129075021D01*
X211513834Y-128941375D01*
X211579664Y-128818216D01*
X211668260Y-128710260D01*
X211776216Y-128621664D01*
X211899375Y-128555834D01*
X212033021Y-128515293D01*
X212178140Y-128501000D01*
X213841860Y-128501000D01*
X213986979Y-128515293D01*
X213986979Y-128515293D01*
G37*
G36*
X208811000Y-132103000D02*
G01*
X205209000Y-132103000D01*
X205209000Y-128501000D01*
X208811000Y-128501000D01*
X208811000Y-132103000D01*
X208811000Y-132103000D01*
G37*
G36*
X145603893Y-129241804D02*
G01*
X145840601Y-129339852D01*
X145840603Y-129339853D01*
X146053635Y-129482196D01*
X146234804Y-129663365D01*
X146377147Y-129876397D01*
X146377148Y-129876399D01*
X146475196Y-130113107D01*
X146525180Y-130364393D01*
X146525180Y-130620607D01*
X146475196Y-130871893D01*
X146383389Y-131093534D01*
X146377147Y-131108603D01*
X146234804Y-131321635D01*
X146053635Y-131502804D01*
X145840603Y-131645147D01*
X145840602Y-131645148D01*
X145840601Y-131645148D01*
X145603893Y-131743196D01*
X145352607Y-131793180D01*
X145096393Y-131793180D01*
X144845107Y-131743196D01*
X144608399Y-131645148D01*
X144608398Y-131645148D01*
X144608397Y-131645147D01*
X144395365Y-131502804D01*
X144214196Y-131321635D01*
X144071853Y-131108603D01*
X144065611Y-131093534D01*
X143973804Y-130871893D01*
X143923820Y-130620607D01*
X143923820Y-130364393D01*
X143973804Y-130113107D01*
X144071852Y-129876399D01*
X144071853Y-129876397D01*
X144214196Y-129663365D01*
X144395365Y-129482196D01*
X144608397Y-129339853D01*
X144608399Y-129339852D01*
X144845107Y-129241804D01*
X145096393Y-129191820D01*
X145352607Y-129191820D01*
X145603893Y-129241804D01*
X145603893Y-129241804D01*
G37*
G36*
X145603893Y-125431804D02*
G01*
X145840601Y-125529852D01*
X145840603Y-125529853D01*
X146053635Y-125672196D01*
X146234804Y-125853365D01*
X146322091Y-125984000D01*
X146377148Y-126066399D01*
X146475196Y-126303107D01*
X146525180Y-126554393D01*
X146525180Y-126810607D01*
X146475196Y-127061893D01*
X146435748Y-127157128D01*
X146377147Y-127298603D01*
X146234804Y-127511635D01*
X146053635Y-127692804D01*
X145840603Y-127835147D01*
X145840602Y-127835148D01*
X145840601Y-127835148D01*
X145603893Y-127933196D01*
X145352607Y-127983180D01*
X145096393Y-127983180D01*
X144845107Y-127933196D01*
X144608399Y-127835148D01*
X144608398Y-127835148D01*
X144608397Y-127835147D01*
X144395365Y-127692804D01*
X144214196Y-127511635D01*
X144071853Y-127298603D01*
X144013252Y-127157128D01*
X143973804Y-127061893D01*
X143923820Y-126810607D01*
X143923820Y-126554393D01*
X143973804Y-126303107D01*
X144071852Y-126066399D01*
X144126909Y-125984000D01*
X144214196Y-125853365D01*
X144395365Y-125672196D01*
X144608397Y-125529853D01*
X144608399Y-125529852D01*
X144845107Y-125431804D01*
X145096393Y-125381820D01*
X145352607Y-125381820D01*
X145603893Y-125431804D01*
X145603893Y-125431804D01*
G37*
G36*
X211136366Y-123817695D02*
G01*
X211293460Y-123865349D01*
X211438231Y-123942731D01*
X211565128Y-124046872D01*
X211669269Y-124173769D01*
X211746651Y-124318540D01*
X211794305Y-124475634D01*
X211811000Y-124645140D01*
X211811000Y-126558860D01*
X211794305Y-126728366D01*
X211746651Y-126885460D01*
X211669269Y-127030231D01*
X211565128Y-127157128D01*
X211438231Y-127261269D01*
X211293460Y-127338651D01*
X211136366Y-127386305D01*
X210966860Y-127403000D01*
X209053140Y-127403000D01*
X208883634Y-127386305D01*
X208726540Y-127338651D01*
X208581769Y-127261269D01*
X208454872Y-127157128D01*
X208350731Y-127030231D01*
X208273349Y-126885460D01*
X208225695Y-126728366D01*
X208209000Y-126558860D01*
X208209000Y-124645140D01*
X208225695Y-124475634D01*
X208273349Y-124318540D01*
X208350731Y-124173769D01*
X208454872Y-124046872D01*
X208581769Y-123942731D01*
X208726540Y-123865349D01*
X208883634Y-123817695D01*
X209053140Y-123801000D01*
X210966860Y-123801000D01*
X211136366Y-123817695D01*
X211136366Y-123817695D01*
G37*
G36*
X191510228Y-125165703D02*
G01*
X191665100Y-125229853D01*
X191804481Y-125322985D01*
X191923015Y-125441519D01*
X192016147Y-125580900D01*
X192080297Y-125735772D01*
X192113000Y-125900184D01*
X192113000Y-126067816D01*
X192080297Y-126232228D01*
X192016147Y-126387100D01*
X191923015Y-126526481D01*
X191804481Y-126645015D01*
X191665100Y-126738147D01*
X191510228Y-126802297D01*
X191345816Y-126835000D01*
X191178184Y-126835000D01*
X191013772Y-126802297D01*
X190858900Y-126738147D01*
X190719519Y-126645015D01*
X190600985Y-126526481D01*
X190507853Y-126387100D01*
X190443703Y-126232228D01*
X190411000Y-126067816D01*
X190411000Y-125900184D01*
X190443703Y-125735772D01*
X190507853Y-125580900D01*
X190600985Y-125441519D01*
X190719519Y-125322985D01*
X190858900Y-125229853D01*
X191013772Y-125165703D01*
X191178184Y-125133000D01*
X191345816Y-125133000D01*
X191510228Y-125165703D01*
X191510228Y-125165703D01*
G37*
G36*
X201588823Y-125145313D02*
G01*
X201749242Y-125193976D01*
X201816361Y-125229852D01*
X201897078Y-125272996D01*
X202026659Y-125379341D01*
X202133004Y-125508922D01*
X202133005Y-125508924D01*
X202212024Y-125656758D01*
X202260687Y-125817177D01*
X202277117Y-125984000D01*
X202260687Y-126150823D01*
X202212024Y-126311242D01*
X202171477Y-126387100D01*
X202133004Y-126459078D01*
X202026659Y-126588659D01*
X201897078Y-126695004D01*
X201897076Y-126695005D01*
X201749242Y-126774024D01*
X201588823Y-126822687D01*
X201463804Y-126835000D01*
X201380196Y-126835000D01*
X201255177Y-126822687D01*
X201094758Y-126774024D01*
X200946924Y-126695005D01*
X200946922Y-126695004D01*
X200817341Y-126588659D01*
X200710996Y-126459078D01*
X200672523Y-126387100D01*
X200631976Y-126311242D01*
X200583313Y-126150823D01*
X200566883Y-125984000D01*
X200583313Y-125817177D01*
X200631976Y-125656758D01*
X200710995Y-125508924D01*
X200710996Y-125508922D01*
X200817341Y-125379341D01*
X200946922Y-125272996D01*
X201027639Y-125229852D01*
X201094758Y-125193976D01*
X201255177Y-125145313D01*
X201380196Y-125133000D01*
X201463804Y-125133000D01*
X201588823Y-125145313D01*
X201588823Y-125145313D01*
G37*
G36*
X152312823Y-122605313D02*
G01*
X152473242Y-122653976D01*
X152540361Y-122689852D01*
X152621078Y-122732996D01*
X152750659Y-122839341D01*
X152857004Y-122968922D01*
X152857005Y-122968924D01*
X152936024Y-123116758D01*
X152984687Y-123277177D01*
X153001117Y-123444000D01*
X152984687Y-123610823D01*
X152936024Y-123771242D01*
X152895477Y-123847100D01*
X152857004Y-123919078D01*
X152750659Y-124048659D01*
X152621078Y-124155004D01*
X152621076Y-124155005D01*
X152473242Y-124234024D01*
X152312823Y-124282687D01*
X152187804Y-124295000D01*
X152104196Y-124295000D01*
X151979177Y-124282687D01*
X151818758Y-124234024D01*
X151670924Y-124155005D01*
X151670922Y-124155004D01*
X151541341Y-124048659D01*
X151434996Y-123919078D01*
X151396523Y-123847100D01*
X151355976Y-123771242D01*
X151307313Y-123610823D01*
X151290883Y-123444000D01*
X151307313Y-123277177D01*
X151355976Y-123116758D01*
X151434995Y-122968924D01*
X151434996Y-122968922D01*
X151541341Y-122839341D01*
X151670922Y-122732996D01*
X151751639Y-122689852D01*
X151818758Y-122653976D01*
X151979177Y-122605313D01*
X152104196Y-122593000D01*
X152187804Y-122593000D01*
X152312823Y-122605313D01*
X152312823Y-122605313D01*
G37*
G36*
X149219228Y-122625703D02*
G01*
X149374100Y-122689853D01*
X149513481Y-122782985D01*
X149632015Y-122901519D01*
X149725147Y-123040900D01*
X149789297Y-123195772D01*
X149822000Y-123360184D01*
X149822000Y-123527816D01*
X149789297Y-123692228D01*
X149725147Y-123847100D01*
X149632015Y-123986481D01*
X149513481Y-124105015D01*
X149374100Y-124198147D01*
X149219228Y-124262297D01*
X149054816Y-124295000D01*
X148887184Y-124295000D01*
X148722772Y-124262297D01*
X148567900Y-124198147D01*
X148428519Y-124105015D01*
X148309985Y-123986481D01*
X148216853Y-123847100D01*
X148152703Y-123692228D01*
X148120000Y-123527816D01*
X148120000Y-123360184D01*
X148152703Y-123195772D01*
X148216853Y-123040900D01*
X148309985Y-122901519D01*
X148428519Y-122782985D01*
X148567900Y-122689853D01*
X148722772Y-122625703D01*
X148887184Y-122593000D01*
X149054816Y-122593000D01*
X149219228Y-122625703D01*
X149219228Y-122625703D01*
G37*
G36*
X145603893Y-121621804D02*
G01*
X145840601Y-121719852D01*
X145840603Y-121719853D01*
X146053635Y-121862196D01*
X146234804Y-122043365D01*
X146368507Y-122243467D01*
X146377148Y-122256399D01*
X146475196Y-122493107D01*
X146525180Y-122744393D01*
X146525180Y-123000607D01*
X146475196Y-123251893D01*
X146395622Y-123444000D01*
X146377147Y-123488603D01*
X146234804Y-123701635D01*
X146053635Y-123882804D01*
X145840603Y-124025147D01*
X145840602Y-124025148D01*
X145840601Y-124025148D01*
X145603893Y-124123196D01*
X145352607Y-124173180D01*
X145096393Y-124173180D01*
X144845107Y-124123196D01*
X144608399Y-124025148D01*
X144608398Y-124025148D01*
X144608397Y-124025147D01*
X144395365Y-123882804D01*
X144214196Y-123701635D01*
X144071853Y-123488603D01*
X144053378Y-123444000D01*
X143973804Y-123251893D01*
X143923820Y-123000607D01*
X143923820Y-122744393D01*
X143973804Y-122493107D01*
X144071852Y-122256399D01*
X144080493Y-122243467D01*
X144214196Y-122043365D01*
X144395365Y-121862196D01*
X144608397Y-121719853D01*
X144608399Y-121719852D01*
X144845107Y-121621804D01*
X145096393Y-121571820D01*
X145352607Y-121571820D01*
X145603893Y-121621804D01*
X145603893Y-121621804D01*
G37*
G36*
X215161395Y-120878546D02*
G01*
X215334466Y-120950234D01*
X215334467Y-120950235D01*
X215490227Y-121054310D01*
X215622690Y-121186773D01*
X215622691Y-121186775D01*
X215726766Y-121342534D01*
X215798454Y-121515605D01*
X215835000Y-121699333D01*
X215835000Y-121886667D01*
X215798454Y-122070395D01*
X215726766Y-122243466D01*
X215718124Y-122256399D01*
X215622690Y-122399227D01*
X215490227Y-122531690D01*
X215411818Y-122584081D01*
X215334466Y-122635766D01*
X215161395Y-122707454D01*
X214977667Y-122744000D01*
X214790333Y-122744000D01*
X214606605Y-122707454D01*
X214433534Y-122635766D01*
X214356182Y-122584081D01*
X214277773Y-122531690D01*
X214145310Y-122399227D01*
X214049876Y-122256399D01*
X214041234Y-122243466D01*
X213969546Y-122070395D01*
X213933000Y-121886667D01*
X213933000Y-121699333D01*
X213969546Y-121515605D01*
X214041234Y-121342534D01*
X214145309Y-121186775D01*
X214145310Y-121186773D01*
X214277773Y-121054310D01*
X214433533Y-120950235D01*
X214433534Y-120950234D01*
X214606605Y-120878546D01*
X214790333Y-120842000D01*
X214977667Y-120842000D01*
X215161395Y-120878546D01*
X215161395Y-120878546D01*
G37*
G36*
X192621000Y-122453500D02*
G01*
X190919000Y-122453500D01*
X190919000Y-120751500D01*
X192621000Y-120751500D01*
X192621000Y-122453500D01*
X192621000Y-122453500D01*
G37*
G36*
X215835000Y-120204000D02*
G01*
X213933000Y-120204000D01*
X213933000Y-118302000D01*
X215835000Y-118302000D01*
X215835000Y-120204000D01*
X215835000Y-120204000D01*
G37*
G36*
X192018228Y-118284203D02*
G01*
X192173100Y-118348353D01*
X192312481Y-118441485D01*
X192431015Y-118560019D01*
X192524147Y-118699400D01*
X192588297Y-118854272D01*
X192621000Y-119018684D01*
X192621000Y-119186316D01*
X192588297Y-119350728D01*
X192524147Y-119505600D01*
X192431015Y-119644981D01*
X192312481Y-119763515D01*
X192173100Y-119856647D01*
X192018228Y-119920797D01*
X191853816Y-119953500D01*
X191686184Y-119953500D01*
X191521772Y-119920797D01*
X191366900Y-119856647D01*
X191227519Y-119763515D01*
X191108985Y-119644981D01*
X191015853Y-119505600D01*
X190951703Y-119350728D01*
X190919000Y-119186316D01*
X190919000Y-119018684D01*
X190951703Y-118854272D01*
X191015853Y-118699400D01*
X191108985Y-118560019D01*
X191227519Y-118441485D01*
X191366900Y-118348353D01*
X191521772Y-118284203D01*
X191686184Y-118251500D01*
X191853816Y-118251500D01*
X192018228Y-118284203D01*
X192018228Y-118284203D01*
G37*
G36*
X145340564Y-116845389D02*
G01*
X145531833Y-116924615D01*
X145531835Y-116924616D01*
X145703973Y-117039635D01*
X145850365Y-117186027D01*
X145965385Y-117358167D01*
X146044611Y-117549436D01*
X146085000Y-117752484D01*
X146085000Y-117959516D01*
X146044611Y-118162564D01*
X145986855Y-118302000D01*
X145965384Y-118353835D01*
X145850365Y-118525973D01*
X145703973Y-118672365D01*
X145531835Y-118787384D01*
X145531834Y-118787385D01*
X145531833Y-118787385D01*
X145340564Y-118866611D01*
X145137516Y-118907000D01*
X144930484Y-118907000D01*
X144727436Y-118866611D01*
X144536167Y-118787385D01*
X144536166Y-118787385D01*
X144536165Y-118787384D01*
X144364027Y-118672365D01*
X144217635Y-118525973D01*
X144102616Y-118353835D01*
X144081145Y-118302000D01*
X144023389Y-118162564D01*
X143983000Y-117959516D01*
X143983000Y-117752484D01*
X144023389Y-117549436D01*
X144102615Y-117358167D01*
X144217635Y-117186027D01*
X144364027Y-117039635D01*
X144536165Y-116924616D01*
X144536167Y-116924615D01*
X144727436Y-116845389D01*
X144930484Y-116805000D01*
X145137516Y-116805000D01*
X145340564Y-116845389D01*
X145340564Y-116845389D01*
G37*
G36*
X149840564Y-116845389D02*
G01*
X150031833Y-116924615D01*
X150031835Y-116924616D01*
X150203973Y-117039635D01*
X150350365Y-117186027D01*
X150465385Y-117358167D01*
X150544611Y-117549436D01*
X150585000Y-117752484D01*
X150585000Y-117959516D01*
X150544611Y-118162564D01*
X150486855Y-118302000D01*
X150465384Y-118353835D01*
X150350365Y-118525973D01*
X150203973Y-118672365D01*
X150031835Y-118787384D01*
X150031834Y-118787385D01*
X150031833Y-118787385D01*
X149840564Y-118866611D01*
X149637516Y-118907000D01*
X149430484Y-118907000D01*
X149227436Y-118866611D01*
X149036167Y-118787385D01*
X149036166Y-118787385D01*
X149036165Y-118787384D01*
X148864027Y-118672365D01*
X148717635Y-118525973D01*
X148602616Y-118353835D01*
X148581145Y-118302000D01*
X148523389Y-118162564D01*
X148483000Y-117959516D01*
X148483000Y-117752484D01*
X148523389Y-117549436D01*
X148602615Y-117358167D01*
X148717635Y-117186027D01*
X148864027Y-117039635D01*
X149036165Y-116924616D01*
X149036167Y-116924615D01*
X149227436Y-116845389D01*
X149430484Y-116805000D01*
X149637516Y-116805000D01*
X149840564Y-116845389D01*
X149840564Y-116845389D01*
G37*
G36*
X170650000Y-118453000D02*
G01*
X168948000Y-118453000D01*
X168948000Y-116751000D01*
X170650000Y-116751000D01*
X170650000Y-118453000D01*
X170650000Y-118453000D01*
G37*
G36*
X162345823Y-116763313D02*
G01*
X162506242Y-116811976D01*
X162568753Y-116845389D01*
X162654078Y-116890996D01*
X162783659Y-116997341D01*
X162890004Y-117126922D01*
X162890005Y-117126924D01*
X162969024Y-117274758D01*
X163017687Y-117435177D01*
X163034117Y-117602000D01*
X163017687Y-117768823D01*
X162969024Y-117929242D01*
X162952843Y-117959514D01*
X162890004Y-118077078D01*
X162783659Y-118206659D01*
X162654078Y-118313004D01*
X162654076Y-118313005D01*
X162506242Y-118392024D01*
X162345823Y-118440687D01*
X162220804Y-118453000D01*
X162137196Y-118453000D01*
X162012177Y-118440687D01*
X161851758Y-118392024D01*
X161703924Y-118313005D01*
X161703922Y-118313004D01*
X161574341Y-118206659D01*
X161467996Y-118077078D01*
X161405157Y-117959514D01*
X161388976Y-117929242D01*
X161340313Y-117768823D01*
X161323883Y-117602000D01*
X161340313Y-117435177D01*
X161388976Y-117274758D01*
X161467995Y-117126924D01*
X161467996Y-117126922D01*
X161574341Y-116997341D01*
X161703922Y-116890996D01*
X161789247Y-116845389D01*
X161851758Y-116811976D01*
X162012177Y-116763313D01*
X162137196Y-116751000D01*
X162220804Y-116751000D01*
X162345823Y-116763313D01*
X162345823Y-116763313D01*
G37*
G36*
X203344728Y-116656703D02*
G01*
X203499600Y-116720853D01*
X203638981Y-116813985D01*
X203757515Y-116932519D01*
X203850647Y-117071900D01*
X203914797Y-117226772D01*
X203947500Y-117391184D01*
X203947500Y-117558816D01*
X203914797Y-117723228D01*
X203850647Y-117878100D01*
X203757515Y-118017481D01*
X203638981Y-118136015D01*
X203499600Y-118229147D01*
X203344728Y-118293297D01*
X203180316Y-118326000D01*
X203012684Y-118326000D01*
X202848272Y-118293297D01*
X202693400Y-118229147D01*
X202554019Y-118136015D01*
X202435485Y-118017481D01*
X202342353Y-117878100D01*
X202278203Y-117723228D01*
X202245500Y-117558816D01*
X202245500Y-117391184D01*
X202278203Y-117226772D01*
X202342353Y-117071900D01*
X202435485Y-116932519D01*
X202554019Y-116813985D01*
X202693400Y-116720853D01*
X202848272Y-116656703D01*
X203012684Y-116624000D01*
X203180316Y-116624000D01*
X203344728Y-116656703D01*
X203344728Y-116656703D01*
G37*
G36*
X201447500Y-118326000D02*
G01*
X199745500Y-118326000D01*
X199745500Y-116624000D01*
X201447500Y-116624000D01*
X201447500Y-118326000D01*
X201447500Y-118326000D01*
G37*
G36*
X175374286Y-114232246D02*
G01*
X175404961Y-114241551D01*
X175433229Y-114256661D01*
X175458006Y-114276994D01*
X175478339Y-114301771D01*
X175493449Y-114330039D01*
X175502754Y-114360714D01*
X175506500Y-114398751D01*
X175506500Y-116410249D01*
X175502754Y-116448286D01*
X175493449Y-116478961D01*
X175478339Y-116507229D01*
X175458006Y-116532006D01*
X175433229Y-116552339D01*
X175404961Y-116567449D01*
X175374286Y-116576754D01*
X175336249Y-116580500D01*
X173024751Y-116580500D01*
X172986714Y-116576754D01*
X172956039Y-116567449D01*
X172927771Y-116552339D01*
X172902994Y-116532006D01*
X172882661Y-116507229D01*
X172867551Y-116478961D01*
X172858246Y-116448286D01*
X172854500Y-116410249D01*
X172854500Y-114398751D01*
X172858246Y-114360714D01*
X172867551Y-114330039D01*
X172882661Y-114301771D01*
X172902994Y-114276994D01*
X172927771Y-114256661D01*
X172956039Y-114241551D01*
X172986714Y-114232246D01*
X173024751Y-114228500D01*
X175336249Y-114228500D01*
X175374286Y-114232246D01*
X175374286Y-114232246D01*
G37*
G36*
X179811642Y-114472781D02*
G01*
X179957414Y-114533162D01*
X179957416Y-114533163D01*
X180088608Y-114620822D01*
X180200178Y-114732392D01*
X180227987Y-114774012D01*
X180287838Y-114863586D01*
X180348219Y-115009358D01*
X180379000Y-115164107D01*
X180379000Y-115321893D01*
X180348219Y-115476642D01*
X180323186Y-115537076D01*
X180287837Y-115622416D01*
X180200178Y-115753608D01*
X180088608Y-115865178D01*
X179957416Y-115952837D01*
X179957415Y-115952838D01*
X179957414Y-115952838D01*
X179811642Y-116013219D01*
X179656893Y-116044000D01*
X179499107Y-116044000D01*
X179344358Y-116013219D01*
X179198586Y-115952838D01*
X179198585Y-115952838D01*
X179198584Y-115952837D01*
X179067392Y-115865178D01*
X178955822Y-115753608D01*
X178868163Y-115622416D01*
X178832814Y-115537076D01*
X178807781Y-115476642D01*
X178777000Y-115321893D01*
X178777000Y-115164107D01*
X178807781Y-115009358D01*
X178868162Y-114863586D01*
X178928013Y-114774012D01*
X178955822Y-114732392D01*
X179067392Y-114620822D01*
X179198584Y-114533163D01*
X179198586Y-114533162D01*
X179344358Y-114472781D01*
X179499107Y-114442000D01*
X179656893Y-114442000D01*
X179811642Y-114472781D01*
X179811642Y-114472781D01*
G37*
G36*
X169965823Y-114223313D02*
G01*
X170126242Y-114271976D01*
X170234870Y-114330039D01*
X170274078Y-114350996D01*
X170403659Y-114457341D01*
X170510004Y-114586922D01*
X170510005Y-114586924D01*
X170589024Y-114734758D01*
X170637687Y-114895177D01*
X170654117Y-115062000D01*
X170637687Y-115228823D01*
X170589024Y-115389242D01*
X170518114Y-115521906D01*
X170510004Y-115537078D01*
X170403659Y-115666659D01*
X170274078Y-115773004D01*
X170274076Y-115773005D01*
X170126242Y-115852024D01*
X169965823Y-115900687D01*
X169840804Y-115913000D01*
X169757196Y-115913000D01*
X169632177Y-115900687D01*
X169471758Y-115852024D01*
X169323924Y-115773005D01*
X169323922Y-115773004D01*
X169194341Y-115666659D01*
X169087996Y-115537078D01*
X169079886Y-115521906D01*
X169008976Y-115389242D01*
X168960313Y-115228823D01*
X168943883Y-115062000D01*
X168960313Y-114895177D01*
X169008976Y-114734758D01*
X169087995Y-114586924D01*
X169087996Y-114586922D01*
X169194341Y-114457341D01*
X169323922Y-114350996D01*
X169363130Y-114330039D01*
X169471758Y-114271976D01*
X169632177Y-114223313D01*
X169757196Y-114211000D01*
X169840804Y-114211000D01*
X169965823Y-114223313D01*
X169965823Y-114223313D01*
G37*
G36*
X162345823Y-114223313D02*
G01*
X162506242Y-114271976D01*
X162614870Y-114330039D01*
X162654078Y-114350996D01*
X162783659Y-114457341D01*
X162890004Y-114586922D01*
X162890005Y-114586924D01*
X162969024Y-114734758D01*
X163017687Y-114895177D01*
X163034117Y-115062000D01*
X163017687Y-115228823D01*
X162969024Y-115389242D01*
X162898114Y-115521906D01*
X162890004Y-115537078D01*
X162783659Y-115666659D01*
X162654078Y-115773004D01*
X162654076Y-115773005D01*
X162506242Y-115852024D01*
X162345823Y-115900687D01*
X162220804Y-115913000D01*
X162137196Y-115913000D01*
X162012177Y-115900687D01*
X161851758Y-115852024D01*
X161703924Y-115773005D01*
X161703922Y-115773004D01*
X161574341Y-115666659D01*
X161467996Y-115537078D01*
X161459886Y-115521906D01*
X161388976Y-115389242D01*
X161340313Y-115228823D01*
X161323883Y-115062000D01*
X161340313Y-114895177D01*
X161388976Y-114734758D01*
X161467995Y-114586924D01*
X161467996Y-114586922D01*
X161574341Y-114457341D01*
X161703922Y-114350996D01*
X161743130Y-114330039D01*
X161851758Y-114271976D01*
X162012177Y-114223313D01*
X162137196Y-114211000D01*
X162220804Y-114211000D01*
X162345823Y-114223313D01*
X162345823Y-114223313D01*
G37*
G36*
X191278000Y-115840000D02*
G01*
X189976000Y-115840000D01*
X189976000Y-114538000D01*
X191278000Y-114538000D01*
X191278000Y-115840000D01*
X191278000Y-115840000D01*
G37*
G36*
X192816890Y-114563017D02*
G01*
X192935364Y-114612091D01*
X193041988Y-114683335D01*
X193132665Y-114774012D01*
X193192517Y-114863586D01*
X193203910Y-114880638D01*
X193252983Y-114999110D01*
X193278000Y-115124881D01*
X193278000Y-115253119D01*
X193252983Y-115378890D01*
X193212493Y-115476642D01*
X193203909Y-115497364D01*
X193132665Y-115603988D01*
X193041988Y-115694665D01*
X192935364Y-115765909D01*
X192935363Y-115765910D01*
X192935362Y-115765910D01*
X192816890Y-115814983D01*
X192691119Y-115840000D01*
X192562881Y-115840000D01*
X192437110Y-115814983D01*
X192318638Y-115765910D01*
X192318637Y-115765910D01*
X192318636Y-115765909D01*
X192212012Y-115694665D01*
X192121335Y-115603988D01*
X192050091Y-115497364D01*
X192041508Y-115476642D01*
X192001017Y-115378890D01*
X191976000Y-115253119D01*
X191976000Y-115124881D01*
X192001017Y-114999110D01*
X192050090Y-114880638D01*
X192061484Y-114863586D01*
X192121335Y-114774012D01*
X192212012Y-114683335D01*
X192318636Y-114612091D01*
X192437110Y-114563017D01*
X192562881Y-114538000D01*
X192691119Y-114538000D01*
X192816890Y-114563017D01*
X192816890Y-114563017D01*
G37*
G36*
X162345823Y-111683313D02*
G01*
X162506242Y-111731976D01*
X162545195Y-111752797D01*
X162654078Y-111810996D01*
X162783659Y-111917341D01*
X162890004Y-112046922D01*
X162890005Y-112046924D01*
X162969024Y-112194758D01*
X163017687Y-112355177D01*
X163034117Y-112522000D01*
X163017687Y-112688823D01*
X162969024Y-112849242D01*
X162898114Y-112981906D01*
X162890004Y-112997078D01*
X162783659Y-113126659D01*
X162654078Y-113233004D01*
X162654076Y-113233005D01*
X162506242Y-113312024D01*
X162345823Y-113360687D01*
X162220804Y-113373000D01*
X162137196Y-113373000D01*
X162012177Y-113360687D01*
X161851758Y-113312024D01*
X161703924Y-113233005D01*
X161703922Y-113233004D01*
X161574341Y-113126659D01*
X161467996Y-112997078D01*
X161459886Y-112981906D01*
X161388976Y-112849242D01*
X161340313Y-112688823D01*
X161323883Y-112522000D01*
X161340313Y-112355177D01*
X161388976Y-112194758D01*
X161467995Y-112046924D01*
X161467996Y-112046922D01*
X161574341Y-111917341D01*
X161703922Y-111810996D01*
X161812805Y-111752797D01*
X161851758Y-111731976D01*
X162012177Y-111683313D01*
X162137196Y-111671000D01*
X162220804Y-111671000D01*
X162345823Y-111683313D01*
X162345823Y-111683313D01*
G37*
G36*
X169965823Y-111683313D02*
G01*
X170126242Y-111731976D01*
X170165195Y-111752797D01*
X170274078Y-111810996D01*
X170403659Y-111917341D01*
X170510004Y-112046922D01*
X170510005Y-112046924D01*
X170589024Y-112194758D01*
X170637687Y-112355177D01*
X170654117Y-112522000D01*
X170637687Y-112688823D01*
X170589024Y-112849242D01*
X170518114Y-112981906D01*
X170510004Y-112997078D01*
X170403659Y-113126659D01*
X170274078Y-113233004D01*
X170274076Y-113233005D01*
X170126242Y-113312024D01*
X169965823Y-113360687D01*
X169840804Y-113373000D01*
X169757196Y-113373000D01*
X169632177Y-113360687D01*
X169471758Y-113312024D01*
X169323924Y-113233005D01*
X169323922Y-113233004D01*
X169194341Y-113126659D01*
X169087996Y-112997078D01*
X169079886Y-112981906D01*
X169008976Y-112849242D01*
X168960313Y-112688823D01*
X168943883Y-112522000D01*
X168960313Y-112355177D01*
X169008976Y-112194758D01*
X169087995Y-112046924D01*
X169087996Y-112046922D01*
X169194341Y-111917341D01*
X169323922Y-111810996D01*
X169432805Y-111752797D01*
X169471758Y-111731976D01*
X169632177Y-111683313D01*
X169757196Y-111671000D01*
X169840804Y-111671000D01*
X169965823Y-111683313D01*
X169965823Y-111683313D01*
G37*
G36*
X213635880Y-108757776D02*
G01*
X214016593Y-108833504D01*
X214426249Y-109003189D01*
X214794929Y-109249534D01*
X215108466Y-109563071D01*
X215354811Y-109931751D01*
X215524496Y-110341407D01*
X215600224Y-110722120D01*
X215610151Y-110772025D01*
X215611000Y-110776296D01*
X215611000Y-111219704D01*
X215524496Y-111654593D01*
X215354811Y-112064249D01*
X215108466Y-112432929D01*
X214794929Y-112746466D01*
X214426249Y-112992811D01*
X214016593Y-113162496D01*
X213662122Y-113233004D01*
X213581705Y-113249000D01*
X213138295Y-113249000D01*
X213057878Y-113233004D01*
X212703407Y-113162496D01*
X212293751Y-112992811D01*
X211925071Y-112746466D01*
X211611534Y-112432929D01*
X211365189Y-112064249D01*
X211195504Y-111654593D01*
X211109000Y-111219704D01*
X211109000Y-110776296D01*
X211109850Y-110772025D01*
X211119776Y-110722120D01*
X211195504Y-110341407D01*
X211365189Y-109931751D01*
X211611534Y-109563071D01*
X211925071Y-109249534D01*
X212293751Y-109003189D01*
X212703407Y-108833504D01*
X213084120Y-108757776D01*
X213138295Y-108747000D01*
X213581705Y-108747000D01*
X213635880Y-108757776D01*
X213635880Y-108757776D01*
G37*
G36*
X149840564Y-110345389D02*
G01*
X149953141Y-110392020D01*
X150031835Y-110424616D01*
X150191648Y-110531400D01*
X150203973Y-110539635D01*
X150350365Y-110686027D01*
X150465385Y-110858167D01*
X150544611Y-111049436D01*
X150585000Y-111252484D01*
X150585000Y-111459516D01*
X150544611Y-111662564D01*
X150465385Y-111853833D01*
X150465384Y-111853835D01*
X150350365Y-112025973D01*
X150203973Y-112172365D01*
X150031835Y-112287384D01*
X150031834Y-112287385D01*
X150031833Y-112287385D01*
X149840564Y-112366611D01*
X149637516Y-112407000D01*
X149430484Y-112407000D01*
X149227436Y-112366611D01*
X149036167Y-112287385D01*
X149036166Y-112287385D01*
X149036165Y-112287384D01*
X148864027Y-112172365D01*
X148717635Y-112025973D01*
X148602616Y-111853835D01*
X148602615Y-111853833D01*
X148523389Y-111662564D01*
X148483000Y-111459516D01*
X148483000Y-111252484D01*
X148523389Y-111049436D01*
X148602615Y-110858167D01*
X148717635Y-110686027D01*
X148864027Y-110539635D01*
X148876352Y-110531400D01*
X149036165Y-110424616D01*
X149114859Y-110392020D01*
X149227436Y-110345389D01*
X149430484Y-110305000D01*
X149637516Y-110305000D01*
X149840564Y-110345389D01*
X149840564Y-110345389D01*
G37*
G36*
X145340564Y-110345389D02*
G01*
X145453141Y-110392020D01*
X145531835Y-110424616D01*
X145691648Y-110531400D01*
X145703973Y-110539635D01*
X145850365Y-110686027D01*
X145965385Y-110858167D01*
X146044611Y-111049436D01*
X146085000Y-111252484D01*
X146085000Y-111459516D01*
X146044611Y-111662564D01*
X145965385Y-111853833D01*
X145965384Y-111853835D01*
X145850365Y-112025973D01*
X145703973Y-112172365D01*
X145531835Y-112287384D01*
X145531834Y-112287385D01*
X145531833Y-112287385D01*
X145340564Y-112366611D01*
X145137516Y-112407000D01*
X144930484Y-112407000D01*
X144727436Y-112366611D01*
X144536167Y-112287385D01*
X144536166Y-112287385D01*
X144536165Y-112287384D01*
X144364027Y-112172365D01*
X144217635Y-112025973D01*
X144102616Y-111853835D01*
X144102615Y-111853833D01*
X144023389Y-111662564D01*
X143983000Y-111459516D01*
X143983000Y-111252484D01*
X144023389Y-111049436D01*
X144102615Y-110858167D01*
X144217635Y-110686027D01*
X144364027Y-110539635D01*
X144376352Y-110531400D01*
X144536165Y-110424616D01*
X144614859Y-110392020D01*
X144727436Y-110345389D01*
X144930484Y-110305000D01*
X145137516Y-110305000D01*
X145340564Y-110345389D01*
X145340564Y-110345389D01*
G37*
G36*
X194050228Y-110116203D02*
G01*
X194205100Y-110180353D01*
X194344481Y-110273485D01*
X194463015Y-110392019D01*
X194556147Y-110531400D01*
X194620297Y-110686272D01*
X194653000Y-110850684D01*
X194653000Y-111018316D01*
X194620297Y-111182728D01*
X194556147Y-111337600D01*
X194463015Y-111476981D01*
X194344481Y-111595515D01*
X194205100Y-111688647D01*
X194050228Y-111752797D01*
X193885816Y-111785500D01*
X193718184Y-111785500D01*
X193553772Y-111752797D01*
X193398900Y-111688647D01*
X193259519Y-111595515D01*
X193140985Y-111476981D01*
X193047853Y-111337600D01*
X192983703Y-111182728D01*
X192951000Y-111018316D01*
X192951000Y-110850684D01*
X192983703Y-110686272D01*
X193047853Y-110531400D01*
X193140985Y-110392019D01*
X193259519Y-110273485D01*
X193398900Y-110180353D01*
X193553772Y-110116203D01*
X193718184Y-110083500D01*
X193885816Y-110083500D01*
X194050228Y-110116203D01*
X194050228Y-110116203D01*
G37*
G36*
X183808823Y-110095813D02*
G01*
X183969242Y-110144476D01*
X184036361Y-110180352D01*
X184117078Y-110223496D01*
X184246659Y-110329841D01*
X184353004Y-110459422D01*
X184353005Y-110459424D01*
X184432024Y-110607258D01*
X184480687Y-110767677D01*
X184497117Y-110934500D01*
X184480687Y-111101323D01*
X184432024Y-111261742D01*
X184391477Y-111337600D01*
X184353004Y-111409578D01*
X184246659Y-111539159D01*
X184117078Y-111645504D01*
X184117076Y-111645505D01*
X183969242Y-111724524D01*
X183808823Y-111773187D01*
X183683804Y-111785500D01*
X183600196Y-111785500D01*
X183475177Y-111773187D01*
X183314758Y-111724524D01*
X183166924Y-111645505D01*
X183166922Y-111645504D01*
X183037341Y-111539159D01*
X182930996Y-111409578D01*
X182892523Y-111337600D01*
X182851976Y-111261742D01*
X182803313Y-111101323D01*
X182786883Y-110934500D01*
X182803313Y-110767677D01*
X182851976Y-110607258D01*
X182930995Y-110459424D01*
X182930996Y-110459422D01*
X183037341Y-110329841D01*
X183166922Y-110223496D01*
X183247639Y-110180352D01*
X183314758Y-110144476D01*
X183475177Y-110095813D01*
X183600196Y-110083500D01*
X183683804Y-110083500D01*
X183808823Y-110095813D01*
X183808823Y-110095813D01*
G37*
G36*
X179811642Y-109592781D02*
G01*
X179957414Y-109653162D01*
X179957416Y-109653163D01*
X180088608Y-109740822D01*
X180200178Y-109852392D01*
X180287837Y-109983584D01*
X180287838Y-109983586D01*
X180348219Y-110129358D01*
X180379000Y-110284107D01*
X180379000Y-110441893D01*
X180348219Y-110596642D01*
X180343820Y-110607261D01*
X180287837Y-110742416D01*
X180200178Y-110873608D01*
X180088608Y-110985178D01*
X179957416Y-111072837D01*
X179957415Y-111072838D01*
X179957414Y-111072838D01*
X179811642Y-111133219D01*
X179656893Y-111164000D01*
X179499107Y-111164000D01*
X179344358Y-111133219D01*
X179198586Y-111072838D01*
X179198585Y-111072838D01*
X179198584Y-111072837D01*
X179067392Y-110985178D01*
X178955822Y-110873608D01*
X178868163Y-110742416D01*
X178812180Y-110607261D01*
X178807781Y-110596642D01*
X178777000Y-110441893D01*
X178777000Y-110284107D01*
X178807781Y-110129358D01*
X178868162Y-109983586D01*
X178868163Y-109983584D01*
X178955822Y-109852392D01*
X179067392Y-109740822D01*
X179198584Y-109653163D01*
X179198586Y-109653162D01*
X179344358Y-109592781D01*
X179499107Y-109562000D01*
X179656893Y-109562000D01*
X179811642Y-109592781D01*
X179811642Y-109592781D01*
G37*
G36*
X162345823Y-109143313D02*
G01*
X162506242Y-109191976D01*
X162613925Y-109249534D01*
X162654078Y-109270996D01*
X162783659Y-109377341D01*
X162890004Y-109506922D01*
X162890005Y-109506924D01*
X162969024Y-109654758D01*
X163017687Y-109815177D01*
X163034117Y-109982000D01*
X163017687Y-110148823D01*
X162969024Y-110309242D01*
X162924778Y-110392020D01*
X162890004Y-110457078D01*
X162783659Y-110586659D01*
X162654078Y-110693004D01*
X162654076Y-110693005D01*
X162506242Y-110772024D01*
X162345823Y-110820687D01*
X162220804Y-110833000D01*
X162137196Y-110833000D01*
X162012177Y-110820687D01*
X161851758Y-110772024D01*
X161703924Y-110693005D01*
X161703922Y-110693004D01*
X161574341Y-110586659D01*
X161467996Y-110457078D01*
X161433222Y-110392020D01*
X161388976Y-110309242D01*
X161340313Y-110148823D01*
X161323883Y-109982000D01*
X161340313Y-109815177D01*
X161388976Y-109654758D01*
X161467995Y-109506924D01*
X161467996Y-109506922D01*
X161574341Y-109377341D01*
X161703922Y-109270996D01*
X161744075Y-109249534D01*
X161851758Y-109191976D01*
X162012177Y-109143313D01*
X162137196Y-109131000D01*
X162220804Y-109131000D01*
X162345823Y-109143313D01*
X162345823Y-109143313D01*
G37*
G36*
X169965823Y-109143313D02*
G01*
X170126242Y-109191976D01*
X170233925Y-109249534D01*
X170274078Y-109270996D01*
X170403659Y-109377341D01*
X170510004Y-109506922D01*
X170510005Y-109506924D01*
X170589024Y-109654758D01*
X170637687Y-109815177D01*
X170654117Y-109982000D01*
X170637687Y-110148823D01*
X170589024Y-110309242D01*
X170544778Y-110392020D01*
X170510004Y-110457078D01*
X170403659Y-110586659D01*
X170274078Y-110693004D01*
X170274076Y-110693005D01*
X170126242Y-110772024D01*
X169965823Y-110820687D01*
X169840804Y-110833000D01*
X169757196Y-110833000D01*
X169632177Y-110820687D01*
X169471758Y-110772024D01*
X169323924Y-110693005D01*
X169323922Y-110693004D01*
X169194341Y-110586659D01*
X169087996Y-110457078D01*
X169053222Y-110392020D01*
X169008976Y-110309242D01*
X168960313Y-110148823D01*
X168943883Y-109982000D01*
X168960313Y-109815177D01*
X169008976Y-109654758D01*
X169087995Y-109506924D01*
X169087996Y-109506922D01*
X169194341Y-109377341D01*
X169323922Y-109270996D01*
X169364075Y-109249534D01*
X169471758Y-109191976D01*
X169632177Y-109143313D01*
X169757196Y-109131000D01*
X169840804Y-109131000D01*
X169965823Y-109143313D01*
X169965823Y-109143313D01*
G37*
G36*
X175374286Y-107832246D02*
G01*
X175404961Y-107841551D01*
X175433229Y-107856661D01*
X175458006Y-107876994D01*
X175478339Y-107901771D01*
X175493449Y-107930039D01*
X175502754Y-107960714D01*
X175506500Y-107998751D01*
X175506500Y-110010249D01*
X175502754Y-110048286D01*
X175493449Y-110078961D01*
X175478339Y-110107229D01*
X175458006Y-110132006D01*
X175433229Y-110152339D01*
X175404961Y-110167449D01*
X175374286Y-110176754D01*
X175336249Y-110180500D01*
X173024751Y-110180500D01*
X172986714Y-110176754D01*
X172956039Y-110167449D01*
X172927771Y-110152339D01*
X172902994Y-110132006D01*
X172882661Y-110107229D01*
X172867551Y-110078961D01*
X172858246Y-110048286D01*
X172854500Y-110010249D01*
X172854500Y-107998751D01*
X172858246Y-107960714D01*
X172867551Y-107930039D01*
X172882661Y-107901771D01*
X172902994Y-107876994D01*
X172927771Y-107856661D01*
X172956039Y-107841551D01*
X172986714Y-107832246D01*
X173024751Y-107828500D01*
X175336249Y-107828500D01*
X175374286Y-107832246D01*
X175374286Y-107832246D01*
G37*
G36*
X154852823Y-107111313D02*
G01*
X155013242Y-107159976D01*
X155080361Y-107195852D01*
X155161078Y-107238996D01*
X155290659Y-107345341D01*
X155397004Y-107474922D01*
X155397005Y-107474924D01*
X155476024Y-107622758D01*
X155524687Y-107783177D01*
X155541117Y-107950000D01*
X155524687Y-108116823D01*
X155476024Y-108277242D01*
X155435477Y-108353100D01*
X155397004Y-108425078D01*
X155290659Y-108554659D01*
X155161078Y-108661004D01*
X155161076Y-108661005D01*
X155013242Y-108740024D01*
X154852823Y-108788687D01*
X154727804Y-108801000D01*
X154644196Y-108801000D01*
X154519177Y-108788687D01*
X154358758Y-108740024D01*
X154210924Y-108661005D01*
X154210922Y-108661004D01*
X154081341Y-108554659D01*
X153974996Y-108425078D01*
X153936523Y-108353100D01*
X153895976Y-108277242D01*
X153847313Y-108116823D01*
X153830883Y-107950000D01*
X153847313Y-107783177D01*
X153895976Y-107622758D01*
X153974995Y-107474924D01*
X153974996Y-107474922D01*
X154081341Y-107345341D01*
X154210922Y-107238996D01*
X154291639Y-107195852D01*
X154358758Y-107159976D01*
X154519177Y-107111313D01*
X154644196Y-107099000D01*
X154727804Y-107099000D01*
X154852823Y-107111313D01*
X154852823Y-107111313D01*
G37*
G36*
X144774228Y-107131703D02*
G01*
X144929100Y-107195853D01*
X145068481Y-107288985D01*
X145187015Y-107407519D01*
X145280147Y-107546900D01*
X145344297Y-107701772D01*
X145377000Y-107866184D01*
X145377000Y-108033816D01*
X145344297Y-108198228D01*
X145280147Y-108353100D01*
X145187015Y-108492481D01*
X145068481Y-108611015D01*
X144929100Y-108704147D01*
X144774228Y-108768297D01*
X144609816Y-108801000D01*
X144442184Y-108801000D01*
X144277772Y-108768297D01*
X144122900Y-108704147D01*
X143983519Y-108611015D01*
X143864985Y-108492481D01*
X143771853Y-108353100D01*
X143707703Y-108198228D01*
X143675000Y-108033816D01*
X143675000Y-107866184D01*
X143707703Y-107701772D01*
X143771853Y-107546900D01*
X143864985Y-107407519D01*
X143983519Y-107288985D01*
X144122900Y-107195853D01*
X144277772Y-107131703D01*
X144442184Y-107099000D01*
X144609816Y-107099000D01*
X144774228Y-107131703D01*
X144774228Y-107131703D01*
G37*
G36*
X184380323Y-106603313D02*
G01*
X184540742Y-106651976D01*
X184673406Y-106722886D01*
X184688578Y-106730996D01*
X184818159Y-106837341D01*
X184924504Y-106966922D01*
X184924505Y-106966924D01*
X185003524Y-107114758D01*
X185052187Y-107275177D01*
X185068617Y-107442000D01*
X185052187Y-107608823D01*
X185003524Y-107769242D01*
X184951707Y-107866184D01*
X184924504Y-107917078D01*
X184818159Y-108046659D01*
X184688578Y-108153004D01*
X184688576Y-108153005D01*
X184540742Y-108232024D01*
X184380323Y-108280687D01*
X184255304Y-108293000D01*
X184171696Y-108293000D01*
X184046677Y-108280687D01*
X183886258Y-108232024D01*
X183738424Y-108153005D01*
X183738422Y-108153004D01*
X183608841Y-108046659D01*
X183502496Y-107917078D01*
X183475293Y-107866184D01*
X183423476Y-107769242D01*
X183374813Y-107608823D01*
X183358383Y-107442000D01*
X183374813Y-107275177D01*
X183423476Y-107114758D01*
X183502495Y-106966924D01*
X183502496Y-106966922D01*
X183608841Y-106837341D01*
X183738422Y-106730996D01*
X183753594Y-106722886D01*
X183886258Y-106651976D01*
X184046677Y-106603313D01*
X184171696Y-106591000D01*
X184255304Y-106591000D01*
X184380323Y-106603313D01*
X184380323Y-106603313D01*
G37*
G36*
X192684500Y-108293000D02*
G01*
X190982500Y-108293000D01*
X190982500Y-106591000D01*
X192684500Y-106591000D01*
X192684500Y-108293000D01*
X192684500Y-108293000D01*
G37*
G36*
X169965823Y-106603313D02*
G01*
X170126242Y-106651976D01*
X170258906Y-106722886D01*
X170274078Y-106730996D01*
X170403659Y-106837341D01*
X170510004Y-106966922D01*
X170510005Y-106966924D01*
X170589024Y-107114758D01*
X170637687Y-107275177D01*
X170654117Y-107442000D01*
X170637687Y-107608823D01*
X170589024Y-107769242D01*
X170537207Y-107866184D01*
X170510004Y-107917078D01*
X170403659Y-108046659D01*
X170274078Y-108153004D01*
X170274076Y-108153005D01*
X170126242Y-108232024D01*
X169965823Y-108280687D01*
X169840804Y-108293000D01*
X169757196Y-108293000D01*
X169632177Y-108280687D01*
X169471758Y-108232024D01*
X169323924Y-108153005D01*
X169323922Y-108153004D01*
X169194341Y-108046659D01*
X169087996Y-107917078D01*
X169060793Y-107866184D01*
X169008976Y-107769242D01*
X168960313Y-107608823D01*
X168943883Y-107442000D01*
X168960313Y-107275177D01*
X169008976Y-107114758D01*
X169087995Y-106966924D01*
X169087996Y-106966922D01*
X169194341Y-106837341D01*
X169323922Y-106730996D01*
X169339094Y-106722886D01*
X169471758Y-106651976D01*
X169632177Y-106603313D01*
X169757196Y-106591000D01*
X169840804Y-106591000D01*
X169965823Y-106603313D01*
X169965823Y-106603313D01*
G37*
G36*
X162345823Y-106603313D02*
G01*
X162506242Y-106651976D01*
X162638906Y-106722886D01*
X162654078Y-106730996D01*
X162783659Y-106837341D01*
X162890004Y-106966922D01*
X162890005Y-106966924D01*
X162969024Y-107114758D01*
X163017687Y-107275177D01*
X163034117Y-107442000D01*
X163017687Y-107608823D01*
X162969024Y-107769242D01*
X162917207Y-107866184D01*
X162890004Y-107917078D01*
X162783659Y-108046659D01*
X162654078Y-108153004D01*
X162654076Y-108153005D01*
X162506242Y-108232024D01*
X162345823Y-108280687D01*
X162220804Y-108293000D01*
X162137196Y-108293000D01*
X162012177Y-108280687D01*
X161851758Y-108232024D01*
X161703924Y-108153005D01*
X161703922Y-108153004D01*
X161574341Y-108046659D01*
X161467996Y-107917078D01*
X161440793Y-107866184D01*
X161388976Y-107769242D01*
X161340313Y-107608823D01*
X161323883Y-107442000D01*
X161340313Y-107275177D01*
X161388976Y-107114758D01*
X161467995Y-106966924D01*
X161467996Y-106966922D01*
X161574341Y-106837341D01*
X161703922Y-106730996D01*
X161719094Y-106722886D01*
X161851758Y-106651976D01*
X162012177Y-106603313D01*
X162137196Y-106591000D01*
X162220804Y-106591000D01*
X162345823Y-106603313D01*
X162345823Y-106603313D01*
G37*
G36*
X203882705Y-104402961D02*
G01*
X204000653Y-104426422D01*
X204092694Y-104464547D01*
X204222859Y-104518463D01*
X204422842Y-104652087D01*
X204592913Y-104822158D01*
X204726537Y-105022141D01*
X204818578Y-105244348D01*
X204865500Y-105480241D01*
X204865500Y-105720759D01*
X204818578Y-105956652D01*
X204726537Y-106178859D01*
X204592913Y-106378842D01*
X204422842Y-106548913D01*
X204222859Y-106682537D01*
X204105871Y-106730995D01*
X204000653Y-106774578D01*
X203764759Y-106821500D01*
X203524241Y-106821500D01*
X203288347Y-106774578D01*
X203183129Y-106730995D01*
X203066141Y-106682537D01*
X202866158Y-106548913D01*
X202696087Y-106378842D01*
X202562463Y-106178859D01*
X202470422Y-105956652D01*
X202423500Y-105720759D01*
X202423500Y-105480241D01*
X202470422Y-105244348D01*
X202562463Y-105022141D01*
X202696087Y-104822158D01*
X202866158Y-104652087D01*
X203066141Y-104518463D01*
X203196306Y-104464547D01*
X203288347Y-104426422D01*
X203524241Y-104379500D01*
X203764759Y-104379500D01*
X203882705Y-104402961D01*
X203882705Y-104402961D01*
G37*
G36*
X179490823Y-104380813D02*
G01*
X179621380Y-104420417D01*
X179641175Y-104426422D01*
X179651242Y-104429476D01*
X179783906Y-104500386D01*
X179799078Y-104508496D01*
X179928659Y-104614841D01*
X180035004Y-104744422D01*
X180035005Y-104744424D01*
X180114024Y-104892258D01*
X180162687Y-105052677D01*
X180179117Y-105219500D01*
X180162687Y-105386323D01*
X180114024Y-105546742D01*
X180043114Y-105679406D01*
X180035004Y-105694578D01*
X179928659Y-105824159D01*
X179799078Y-105930504D01*
X179799076Y-105930505D01*
X179651242Y-106009524D01*
X179490823Y-106058187D01*
X179365804Y-106070500D01*
X179282196Y-106070500D01*
X179157177Y-106058187D01*
X178996758Y-106009524D01*
X178848924Y-105930505D01*
X178848922Y-105930504D01*
X178719341Y-105824159D01*
X178612996Y-105694578D01*
X178604886Y-105679406D01*
X178533976Y-105546742D01*
X178485313Y-105386323D01*
X178468883Y-105219500D01*
X178485313Y-105052677D01*
X178533976Y-104892258D01*
X178612995Y-104744424D01*
X178612996Y-104744422D01*
X178719341Y-104614841D01*
X178848922Y-104508496D01*
X178864094Y-104500386D01*
X178996758Y-104429476D01*
X179006826Y-104426422D01*
X179026620Y-104420417D01*
X179157177Y-104380813D01*
X179282196Y-104368500D01*
X179365804Y-104368500D01*
X179490823Y-104380813D01*
X179490823Y-104380813D01*
G37*
G36*
X175807823Y-104380813D02*
G01*
X175938380Y-104420417D01*
X175958175Y-104426422D01*
X175968242Y-104429476D01*
X176100906Y-104500386D01*
X176116078Y-104508496D01*
X176245659Y-104614841D01*
X176352004Y-104744422D01*
X176352005Y-104744424D01*
X176431024Y-104892258D01*
X176479687Y-105052677D01*
X176496117Y-105219500D01*
X176479687Y-105386323D01*
X176431024Y-105546742D01*
X176360114Y-105679406D01*
X176352004Y-105694578D01*
X176245659Y-105824159D01*
X176116078Y-105930504D01*
X176116076Y-105930505D01*
X175968242Y-106009524D01*
X175807823Y-106058187D01*
X175682804Y-106070500D01*
X175599196Y-106070500D01*
X175474177Y-106058187D01*
X175313758Y-106009524D01*
X175165924Y-105930505D01*
X175165922Y-105930504D01*
X175036341Y-105824159D01*
X174929996Y-105694578D01*
X174921886Y-105679406D01*
X174850976Y-105546742D01*
X174802313Y-105386323D01*
X174785883Y-105219500D01*
X174802313Y-105052677D01*
X174850976Y-104892258D01*
X174929995Y-104744424D01*
X174929996Y-104744422D01*
X175036341Y-104614841D01*
X175165922Y-104508496D01*
X175181094Y-104500386D01*
X175313758Y-104429476D01*
X175323826Y-104426422D01*
X175343620Y-104420417D01*
X175474177Y-104380813D01*
X175599196Y-104368500D01*
X175682804Y-104368500D01*
X175807823Y-104380813D01*
X175807823Y-104380813D01*
G37*
G36*
X184380323Y-104063313D02*
G01*
X184540742Y-104111976D01*
X184673406Y-104182886D01*
X184688578Y-104190996D01*
X184818159Y-104297341D01*
X184924504Y-104426922D01*
X184924505Y-104426924D01*
X185003524Y-104574758D01*
X185052187Y-104735177D01*
X185068617Y-104902000D01*
X185052187Y-105068823D01*
X185003524Y-105229242D01*
X184932614Y-105361906D01*
X184924504Y-105377078D01*
X184818159Y-105506659D01*
X184688578Y-105613004D01*
X184688576Y-105613005D01*
X184540742Y-105692024D01*
X184380323Y-105740687D01*
X184255304Y-105753000D01*
X184171696Y-105753000D01*
X184046677Y-105740687D01*
X183886258Y-105692024D01*
X183738424Y-105613005D01*
X183738422Y-105613004D01*
X183608841Y-105506659D01*
X183502496Y-105377078D01*
X183494386Y-105361906D01*
X183423476Y-105229242D01*
X183374813Y-105068823D01*
X183358383Y-104902000D01*
X183374813Y-104735177D01*
X183423476Y-104574758D01*
X183502495Y-104426924D01*
X183502496Y-104426922D01*
X183608841Y-104297341D01*
X183738422Y-104190996D01*
X183753594Y-104182886D01*
X183886258Y-104111976D01*
X184046677Y-104063313D01*
X184171696Y-104051000D01*
X184255304Y-104051000D01*
X184380323Y-104063313D01*
X184380323Y-104063313D01*
G37*
G36*
X169965823Y-104063313D02*
G01*
X170126242Y-104111976D01*
X170258906Y-104182886D01*
X170274078Y-104190996D01*
X170403659Y-104297341D01*
X170510004Y-104426922D01*
X170510005Y-104426924D01*
X170589024Y-104574758D01*
X170637687Y-104735177D01*
X170654117Y-104902000D01*
X170637687Y-105068823D01*
X170589024Y-105229242D01*
X170518114Y-105361906D01*
X170510004Y-105377078D01*
X170403659Y-105506659D01*
X170274078Y-105613004D01*
X170274076Y-105613005D01*
X170126242Y-105692024D01*
X169965823Y-105740687D01*
X169840804Y-105753000D01*
X169757196Y-105753000D01*
X169632177Y-105740687D01*
X169471758Y-105692024D01*
X169323924Y-105613005D01*
X169323922Y-105613004D01*
X169194341Y-105506659D01*
X169087996Y-105377078D01*
X169079886Y-105361906D01*
X169008976Y-105229242D01*
X168960313Y-105068823D01*
X168943883Y-104902000D01*
X168960313Y-104735177D01*
X169008976Y-104574758D01*
X169087995Y-104426924D01*
X169087996Y-104426922D01*
X169194341Y-104297341D01*
X169323922Y-104190996D01*
X169339094Y-104182886D01*
X169471758Y-104111976D01*
X169632177Y-104063313D01*
X169757196Y-104051000D01*
X169840804Y-104051000D01*
X169965823Y-104063313D01*
X169965823Y-104063313D01*
G37*
G36*
X162345823Y-104063313D02*
G01*
X162506242Y-104111976D01*
X162638906Y-104182886D01*
X162654078Y-104190996D01*
X162783659Y-104297341D01*
X162890004Y-104426922D01*
X162890005Y-104426924D01*
X162969024Y-104574758D01*
X163017687Y-104735177D01*
X163034117Y-104902000D01*
X163017687Y-105068823D01*
X162969024Y-105229242D01*
X162898114Y-105361906D01*
X162890004Y-105377078D01*
X162783659Y-105506659D01*
X162654078Y-105613004D01*
X162654076Y-105613005D01*
X162506242Y-105692024D01*
X162345823Y-105740687D01*
X162220804Y-105753000D01*
X162137196Y-105753000D01*
X162012177Y-105740687D01*
X161851758Y-105692024D01*
X161703924Y-105613005D01*
X161703922Y-105613004D01*
X161574341Y-105506659D01*
X161467996Y-105377078D01*
X161459886Y-105361906D01*
X161388976Y-105229242D01*
X161340313Y-105068823D01*
X161323883Y-104902000D01*
X161340313Y-104735177D01*
X161388976Y-104574758D01*
X161467995Y-104426924D01*
X161467996Y-104426922D01*
X161574341Y-104297341D01*
X161703922Y-104190996D01*
X161719094Y-104182886D01*
X161851758Y-104111976D01*
X162012177Y-104063313D01*
X162137196Y-104051000D01*
X162220804Y-104051000D01*
X162345823Y-104063313D01*
X162345823Y-104063313D01*
G37*
G36*
X192000323Y-104063313D02*
G01*
X192160742Y-104111976D01*
X192293406Y-104182886D01*
X192308578Y-104190996D01*
X192438159Y-104297341D01*
X192544504Y-104426922D01*
X192544505Y-104426924D01*
X192623524Y-104574758D01*
X192672187Y-104735177D01*
X192688617Y-104902000D01*
X192672187Y-105068823D01*
X192623524Y-105229242D01*
X192552614Y-105361906D01*
X192544504Y-105377078D01*
X192438159Y-105506659D01*
X192308578Y-105613004D01*
X192308576Y-105613005D01*
X192160742Y-105692024D01*
X192000323Y-105740687D01*
X191875304Y-105753000D01*
X191791696Y-105753000D01*
X191666677Y-105740687D01*
X191506258Y-105692024D01*
X191358424Y-105613005D01*
X191358422Y-105613004D01*
X191228841Y-105506659D01*
X191122496Y-105377078D01*
X191114386Y-105361906D01*
X191043476Y-105229242D01*
X190994813Y-105068823D01*
X190978383Y-104902000D01*
X190994813Y-104735177D01*
X191043476Y-104574758D01*
X191122495Y-104426924D01*
X191122496Y-104426922D01*
X191228841Y-104297341D01*
X191358422Y-104190996D01*
X191373594Y-104182886D01*
X191506258Y-104111976D01*
X191666677Y-104063313D01*
X191791696Y-104051000D01*
X191875304Y-104051000D01*
X192000323Y-104063313D01*
X192000323Y-104063313D01*
G37*
G36*
X146533713Y-102972502D02*
G01*
X146604821Y-102979505D01*
X146741672Y-103021019D01*
X146741675Y-103021020D01*
X146867794Y-103088432D01*
X146978343Y-103179157D01*
X147069068Y-103289706D01*
X147136480Y-103415825D01*
X147136481Y-103415828D01*
X147177995Y-103552679D01*
X147192012Y-103695000D01*
X147177995Y-103837321D01*
X147136481Y-103974172D01*
X147136480Y-103974175D01*
X147069068Y-104100294D01*
X146978343Y-104210843D01*
X146867794Y-104301568D01*
X146741675Y-104368980D01*
X146741672Y-104368981D01*
X146604821Y-104410495D01*
X146533713Y-104417498D01*
X146498160Y-104421000D01*
X146426840Y-104421000D01*
X146391287Y-104417498D01*
X146320179Y-104410495D01*
X146183328Y-104368981D01*
X146183325Y-104368980D01*
X146057206Y-104301568D01*
X145946657Y-104210843D01*
X145855932Y-104100294D01*
X145788520Y-103974175D01*
X145788519Y-103974172D01*
X145747005Y-103837321D01*
X145732988Y-103695000D01*
X145747005Y-103552679D01*
X145788519Y-103415828D01*
X145788520Y-103415825D01*
X145855932Y-103289706D01*
X145946657Y-103179157D01*
X146057206Y-103088432D01*
X146183325Y-103021020D01*
X146183328Y-103021019D01*
X146320179Y-102979505D01*
X146391287Y-102972502D01*
X146426840Y-102969000D01*
X146498160Y-102969000D01*
X146533713Y-102972502D01*
X146533713Y-102972502D01*
G37*
G36*
X144533713Y-102972502D02*
G01*
X144604821Y-102979505D01*
X144741672Y-103021019D01*
X144741675Y-103021020D01*
X144867794Y-103088432D01*
X144978343Y-103179157D01*
X145069068Y-103289706D01*
X145136480Y-103415825D01*
X145136481Y-103415828D01*
X145177995Y-103552679D01*
X145192012Y-103695000D01*
X145177995Y-103837321D01*
X145136481Y-103974172D01*
X145136480Y-103974175D01*
X145069068Y-104100294D01*
X144978343Y-104210843D01*
X144867794Y-104301568D01*
X144741675Y-104368980D01*
X144741672Y-104368981D01*
X144604821Y-104410495D01*
X144533713Y-104417498D01*
X144498160Y-104421000D01*
X144426840Y-104421000D01*
X144391287Y-104417498D01*
X144320179Y-104410495D01*
X144183328Y-104368981D01*
X144183325Y-104368980D01*
X144057206Y-104301568D01*
X143946657Y-104210843D01*
X143855932Y-104100294D01*
X143788520Y-103974175D01*
X143788519Y-103974172D01*
X143747005Y-103837321D01*
X143732988Y-103695000D01*
X143747005Y-103552679D01*
X143788519Y-103415828D01*
X143788520Y-103415825D01*
X143855932Y-103289706D01*
X143946657Y-103179157D01*
X144057206Y-103088432D01*
X144183325Y-103021020D01*
X144183328Y-103021019D01*
X144320179Y-102979505D01*
X144391287Y-102972502D01*
X144426840Y-102969000D01*
X144498160Y-102969000D01*
X144533713Y-102972502D01*
X144533713Y-102972502D01*
G37*
G36*
X159569728Y-101630703D02*
G01*
X159724600Y-101694853D01*
X159863981Y-101787985D01*
X159982515Y-101906519D01*
X160075647Y-102045900D01*
X160139797Y-102200772D01*
X160172500Y-102365184D01*
X160172500Y-102532816D01*
X160139797Y-102697228D01*
X160075647Y-102852100D01*
X159982515Y-102991481D01*
X159863981Y-103110015D01*
X159724600Y-103203147D01*
X159569728Y-103267297D01*
X159405316Y-103300000D01*
X159237684Y-103300000D01*
X159073272Y-103267297D01*
X158918400Y-103203147D01*
X158779019Y-103110015D01*
X158660485Y-102991481D01*
X158567353Y-102852100D01*
X158503203Y-102697228D01*
X158470500Y-102532816D01*
X158470500Y-102365184D01*
X158503203Y-102200772D01*
X158567353Y-102045900D01*
X158660485Y-101906519D01*
X158779019Y-101787985D01*
X158918400Y-101694853D01*
X159073272Y-101630703D01*
X159237684Y-101598000D01*
X159405316Y-101598000D01*
X159569728Y-101630703D01*
X159569728Y-101630703D01*
G37*
G36*
X192000323Y-101523313D02*
G01*
X192160742Y-101571976D01*
X192209429Y-101598000D01*
X192308578Y-101650996D01*
X192438159Y-101757341D01*
X192544504Y-101886922D01*
X192544505Y-101886924D01*
X192623524Y-102034758D01*
X192672187Y-102195177D01*
X192688617Y-102362000D01*
X192672187Y-102528823D01*
X192623524Y-102689242D01*
X192552614Y-102821906D01*
X192544504Y-102837078D01*
X192438159Y-102966659D01*
X192308578Y-103073004D01*
X192308576Y-103073005D01*
X192160742Y-103152024D01*
X192000323Y-103200687D01*
X191875304Y-103213000D01*
X191791696Y-103213000D01*
X191666677Y-103200687D01*
X191506258Y-103152024D01*
X191358424Y-103073005D01*
X191358422Y-103073004D01*
X191228841Y-102966659D01*
X191122496Y-102837078D01*
X191114386Y-102821906D01*
X191043476Y-102689242D01*
X190994813Y-102528823D01*
X190978383Y-102362000D01*
X190994813Y-102195177D01*
X191043476Y-102034758D01*
X191122495Y-101886924D01*
X191122496Y-101886922D01*
X191228841Y-101757341D01*
X191358422Y-101650996D01*
X191457571Y-101598000D01*
X191506258Y-101571976D01*
X191666677Y-101523313D01*
X191791696Y-101511000D01*
X191875304Y-101511000D01*
X192000323Y-101523313D01*
X192000323Y-101523313D01*
G37*
G36*
X169965823Y-101523313D02*
G01*
X170126242Y-101571976D01*
X170174929Y-101598000D01*
X170274078Y-101650996D01*
X170403659Y-101757341D01*
X170510004Y-101886922D01*
X170510005Y-101886924D01*
X170589024Y-102034758D01*
X170637687Y-102195177D01*
X170654117Y-102362000D01*
X170637687Y-102528823D01*
X170589024Y-102689242D01*
X170518114Y-102821906D01*
X170510004Y-102837078D01*
X170403659Y-102966659D01*
X170274078Y-103073004D01*
X170274076Y-103073005D01*
X170126242Y-103152024D01*
X169965823Y-103200687D01*
X169840804Y-103213000D01*
X169757196Y-103213000D01*
X169632177Y-103200687D01*
X169471758Y-103152024D01*
X169323924Y-103073005D01*
X169323922Y-103073004D01*
X169194341Y-102966659D01*
X169087996Y-102837078D01*
X169079886Y-102821906D01*
X169008976Y-102689242D01*
X168960313Y-102528823D01*
X168943883Y-102362000D01*
X168960313Y-102195177D01*
X169008976Y-102034758D01*
X169087995Y-101886924D01*
X169087996Y-101886922D01*
X169194341Y-101757341D01*
X169323922Y-101650996D01*
X169423071Y-101598000D01*
X169471758Y-101571976D01*
X169632177Y-101523313D01*
X169757196Y-101511000D01*
X169840804Y-101511000D01*
X169965823Y-101523313D01*
X169965823Y-101523313D01*
G37*
G36*
X162345823Y-101523313D02*
G01*
X162506242Y-101571976D01*
X162554929Y-101598000D01*
X162654078Y-101650996D01*
X162783659Y-101757341D01*
X162890004Y-101886922D01*
X162890005Y-101886924D01*
X162969024Y-102034758D01*
X163017687Y-102195177D01*
X163034117Y-102362000D01*
X163017687Y-102528823D01*
X162969024Y-102689242D01*
X162898114Y-102821906D01*
X162890004Y-102837078D01*
X162783659Y-102966659D01*
X162654078Y-103073004D01*
X162654076Y-103073005D01*
X162506242Y-103152024D01*
X162345823Y-103200687D01*
X162220804Y-103213000D01*
X162137196Y-103213000D01*
X162012177Y-103200687D01*
X161851758Y-103152024D01*
X161703924Y-103073005D01*
X161703922Y-103073004D01*
X161574341Y-102966659D01*
X161467996Y-102837078D01*
X161459886Y-102821906D01*
X161388976Y-102689242D01*
X161340313Y-102528823D01*
X161323883Y-102362000D01*
X161340313Y-102195177D01*
X161388976Y-102034758D01*
X161467995Y-101886924D01*
X161467996Y-101886922D01*
X161574341Y-101757341D01*
X161703922Y-101650996D01*
X161803071Y-101598000D01*
X161851758Y-101571976D01*
X162012177Y-101523313D01*
X162137196Y-101511000D01*
X162220804Y-101511000D01*
X162345823Y-101523313D01*
X162345823Y-101523313D01*
G37*
G36*
X184380323Y-101523313D02*
G01*
X184540742Y-101571976D01*
X184589429Y-101598000D01*
X184688578Y-101650996D01*
X184818159Y-101757341D01*
X184924504Y-101886922D01*
X184924505Y-101886924D01*
X185003524Y-102034758D01*
X185052187Y-102195177D01*
X185068617Y-102362000D01*
X185052187Y-102528823D01*
X185003524Y-102689242D01*
X184932614Y-102821906D01*
X184924504Y-102837078D01*
X184818159Y-102966659D01*
X184688578Y-103073004D01*
X184688576Y-103073005D01*
X184540742Y-103152024D01*
X184380323Y-103200687D01*
X184255304Y-103213000D01*
X184171696Y-103213000D01*
X184046677Y-103200687D01*
X183886258Y-103152024D01*
X183738424Y-103073005D01*
X183738422Y-103073004D01*
X183608841Y-102966659D01*
X183502496Y-102837078D01*
X183494386Y-102821906D01*
X183423476Y-102689242D01*
X183374813Y-102528823D01*
X183358383Y-102362000D01*
X183374813Y-102195177D01*
X183423476Y-102034758D01*
X183502495Y-101886924D01*
X183502496Y-101886922D01*
X183608841Y-101757341D01*
X183738422Y-101650996D01*
X183837571Y-101598000D01*
X183886258Y-101571976D01*
X184046677Y-101523313D01*
X184171696Y-101511000D01*
X184255304Y-101511000D01*
X184380323Y-101523313D01*
X184380323Y-101523313D01*
G37*
G36*
X146533713Y-100972502D02*
G01*
X146604821Y-100979505D01*
X146741672Y-101021019D01*
X146741675Y-101021020D01*
X146867794Y-101088432D01*
X146978343Y-101179157D01*
X147069068Y-101289706D01*
X147136480Y-101415825D01*
X147136481Y-101415828D01*
X147177995Y-101552679D01*
X147192012Y-101695000D01*
X147177995Y-101837321D01*
X147157003Y-101906520D01*
X147136480Y-101974175D01*
X147069068Y-102100294D01*
X146978343Y-102210843D01*
X146867794Y-102301568D01*
X146741675Y-102368980D01*
X146741672Y-102368981D01*
X146604821Y-102410495D01*
X146533713Y-102417498D01*
X146498160Y-102421000D01*
X146426840Y-102421000D01*
X146391287Y-102417498D01*
X146320179Y-102410495D01*
X146183328Y-102368981D01*
X146183325Y-102368980D01*
X146057206Y-102301568D01*
X145946657Y-102210843D01*
X145855932Y-102100294D01*
X145788520Y-101974175D01*
X145767997Y-101906520D01*
X145747005Y-101837321D01*
X145732988Y-101695000D01*
X145747005Y-101552679D01*
X145788519Y-101415828D01*
X145788520Y-101415825D01*
X145855932Y-101289706D01*
X145946657Y-101179157D01*
X146057206Y-101088432D01*
X146183325Y-101021020D01*
X146183328Y-101021019D01*
X146320179Y-100979505D01*
X146391287Y-100972502D01*
X146426840Y-100969000D01*
X146498160Y-100969000D01*
X146533713Y-100972502D01*
X146533713Y-100972502D01*
G37*
G36*
X144533713Y-100972502D02*
G01*
X144604821Y-100979505D01*
X144741672Y-101021019D01*
X144741675Y-101021020D01*
X144867794Y-101088432D01*
X144978343Y-101179157D01*
X145069068Y-101289706D01*
X145136480Y-101415825D01*
X145136481Y-101415828D01*
X145177995Y-101552679D01*
X145192012Y-101695000D01*
X145177995Y-101837321D01*
X145157003Y-101906520D01*
X145136480Y-101974175D01*
X145069068Y-102100294D01*
X144978343Y-102210843D01*
X144867794Y-102301568D01*
X144741675Y-102368980D01*
X144741672Y-102368981D01*
X144604821Y-102410495D01*
X144533713Y-102417498D01*
X144498160Y-102421000D01*
X144426840Y-102421000D01*
X144391287Y-102417498D01*
X144320179Y-102410495D01*
X144183328Y-102368981D01*
X144183325Y-102368980D01*
X144057206Y-102301568D01*
X143946657Y-102210843D01*
X143855932Y-102100294D01*
X143788520Y-101974175D01*
X143767997Y-101906520D01*
X143747005Y-101837321D01*
X143732988Y-101695000D01*
X143747005Y-101552679D01*
X143788519Y-101415828D01*
X143788520Y-101415825D01*
X143855932Y-101289706D01*
X143946657Y-101179157D01*
X144057206Y-101088432D01*
X144183325Y-101021020D01*
X144183328Y-101021019D01*
X144320179Y-100979505D01*
X144391287Y-100972502D01*
X144426840Y-100969000D01*
X144498160Y-100969000D01*
X144533713Y-100972502D01*
X144533713Y-100972502D01*
G37*
G36*
X203882705Y-99402961D02*
G01*
X204000653Y-99426422D01*
X204092694Y-99464547D01*
X204222859Y-99518463D01*
X204422842Y-99652087D01*
X204592913Y-99822158D01*
X204726537Y-100022141D01*
X204818578Y-100244348D01*
X204863990Y-100472648D01*
X204865500Y-100480242D01*
X204865500Y-100720758D01*
X204818578Y-100956653D01*
X204809112Y-100979505D01*
X204726537Y-101178859D01*
X204592913Y-101378842D01*
X204422842Y-101548913D01*
X204222859Y-101682537D01*
X204092694Y-101736453D01*
X204000653Y-101774578D01*
X203764759Y-101821500D01*
X203524241Y-101821500D01*
X203288347Y-101774578D01*
X203196306Y-101736453D01*
X203066141Y-101682537D01*
X202866158Y-101548913D01*
X202696087Y-101378842D01*
X202562463Y-101178859D01*
X202479888Y-100979505D01*
X202470422Y-100956653D01*
X202423500Y-100720758D01*
X202423500Y-100480242D01*
X202425011Y-100472648D01*
X202470422Y-100244348D01*
X202562463Y-100022141D01*
X202696087Y-99822158D01*
X202866158Y-99652087D01*
X203066141Y-99518463D01*
X203196306Y-99464547D01*
X203288347Y-99426422D01*
X203406295Y-99402961D01*
X203524241Y-99379500D01*
X203764759Y-99379500D01*
X203882705Y-99402961D01*
X203882705Y-99402961D01*
G37*
G36*
X159569728Y-99130703D02*
G01*
X159724600Y-99194853D01*
X159863981Y-99287985D01*
X159982515Y-99406519D01*
X160075647Y-99545900D01*
X160139797Y-99700772D01*
X160172500Y-99865184D01*
X160172500Y-100032816D01*
X160139797Y-100197228D01*
X160075647Y-100352100D01*
X159982515Y-100491481D01*
X159863981Y-100610015D01*
X159724600Y-100703147D01*
X159569728Y-100767297D01*
X159405316Y-100800000D01*
X159237684Y-100800000D01*
X159073272Y-100767297D01*
X158918400Y-100703147D01*
X158779019Y-100610015D01*
X158660485Y-100491481D01*
X158567353Y-100352100D01*
X158503203Y-100197228D01*
X158470500Y-100032816D01*
X158470500Y-99865184D01*
X158503203Y-99700772D01*
X158567353Y-99545900D01*
X158660485Y-99406519D01*
X158779019Y-99287985D01*
X158918400Y-99194853D01*
X159073272Y-99130703D01*
X159237684Y-99098000D01*
X159405316Y-99098000D01*
X159569728Y-99130703D01*
X159569728Y-99130703D01*
G37*
G36*
X162345823Y-98983313D02*
G01*
X162506242Y-99031976D01*
X162629764Y-99098000D01*
X162654078Y-99110996D01*
X162783659Y-99217341D01*
X162890004Y-99346922D01*
X162890005Y-99346924D01*
X162969024Y-99494758D01*
X163017687Y-99655177D01*
X163034117Y-99822000D01*
X163017687Y-99988823D01*
X162969024Y-100149242D01*
X162918189Y-100244347D01*
X162890004Y-100297078D01*
X162783659Y-100426659D01*
X162654078Y-100533004D01*
X162654076Y-100533005D01*
X162506242Y-100612024D01*
X162345823Y-100660687D01*
X162220804Y-100673000D01*
X162137196Y-100673000D01*
X162012177Y-100660687D01*
X161851758Y-100612024D01*
X161703924Y-100533005D01*
X161703922Y-100533004D01*
X161574341Y-100426659D01*
X161467996Y-100297078D01*
X161439811Y-100244347D01*
X161388976Y-100149242D01*
X161340313Y-99988823D01*
X161323883Y-99822000D01*
X161340313Y-99655177D01*
X161388976Y-99494758D01*
X161467995Y-99346924D01*
X161467996Y-99346922D01*
X161574341Y-99217341D01*
X161703922Y-99110996D01*
X161728236Y-99098000D01*
X161851758Y-99031976D01*
X162012177Y-98983313D01*
X162137196Y-98971000D01*
X162220804Y-98971000D01*
X162345823Y-98983313D01*
X162345823Y-98983313D01*
G37*
G36*
X192000323Y-98983313D02*
G01*
X192160742Y-99031976D01*
X192284264Y-99098000D01*
X192308578Y-99110996D01*
X192438159Y-99217341D01*
X192544504Y-99346922D01*
X192544505Y-99346924D01*
X192623524Y-99494758D01*
X192672187Y-99655177D01*
X192688617Y-99822000D01*
X192672187Y-99988823D01*
X192623524Y-100149242D01*
X192572689Y-100244347D01*
X192544504Y-100297078D01*
X192438159Y-100426659D01*
X192308578Y-100533004D01*
X192308576Y-100533005D01*
X192160742Y-100612024D01*
X192000323Y-100660687D01*
X191875304Y-100673000D01*
X191791696Y-100673000D01*
X191666677Y-100660687D01*
X191506258Y-100612024D01*
X191358424Y-100533005D01*
X191358422Y-100533004D01*
X191228841Y-100426659D01*
X191122496Y-100297078D01*
X191094311Y-100244347D01*
X191043476Y-100149242D01*
X190994813Y-99988823D01*
X190978383Y-99822000D01*
X190994813Y-99655177D01*
X191043476Y-99494758D01*
X191122495Y-99346924D01*
X191122496Y-99346922D01*
X191228841Y-99217341D01*
X191358422Y-99110996D01*
X191382736Y-99098000D01*
X191506258Y-99031976D01*
X191666677Y-98983313D01*
X191791696Y-98971000D01*
X191875304Y-98971000D01*
X192000323Y-98983313D01*
X192000323Y-98983313D01*
G37*
G36*
X169965823Y-98983313D02*
G01*
X170126242Y-99031976D01*
X170249764Y-99098000D01*
X170274078Y-99110996D01*
X170403659Y-99217341D01*
X170510004Y-99346922D01*
X170510005Y-99346924D01*
X170589024Y-99494758D01*
X170637687Y-99655177D01*
X170654117Y-99822000D01*
X170637687Y-99988823D01*
X170589024Y-100149242D01*
X170538189Y-100244347D01*
X170510004Y-100297078D01*
X170403659Y-100426659D01*
X170274078Y-100533004D01*
X170274076Y-100533005D01*
X170126242Y-100612024D01*
X169965823Y-100660687D01*
X169840804Y-100673000D01*
X169757196Y-100673000D01*
X169632177Y-100660687D01*
X169471758Y-100612024D01*
X169323924Y-100533005D01*
X169323922Y-100533004D01*
X169194341Y-100426659D01*
X169087996Y-100297078D01*
X169059811Y-100244347D01*
X169008976Y-100149242D01*
X168960313Y-99988823D01*
X168943883Y-99822000D01*
X168960313Y-99655177D01*
X169008976Y-99494758D01*
X169087995Y-99346924D01*
X169087996Y-99346922D01*
X169194341Y-99217341D01*
X169323922Y-99110996D01*
X169348236Y-99098000D01*
X169471758Y-99031976D01*
X169632177Y-98983313D01*
X169757196Y-98971000D01*
X169840804Y-98971000D01*
X169965823Y-98983313D01*
X169965823Y-98983313D01*
G37*
G36*
X184380323Y-98983313D02*
G01*
X184540742Y-99031976D01*
X184664264Y-99098000D01*
X184688578Y-99110996D01*
X184818159Y-99217341D01*
X184924504Y-99346922D01*
X184924505Y-99346924D01*
X185003524Y-99494758D01*
X185052187Y-99655177D01*
X185068617Y-99822000D01*
X185052187Y-99988823D01*
X185003524Y-100149242D01*
X184952689Y-100244347D01*
X184924504Y-100297078D01*
X184818159Y-100426659D01*
X184688578Y-100533004D01*
X184688576Y-100533005D01*
X184540742Y-100612024D01*
X184380323Y-100660687D01*
X184255304Y-100673000D01*
X184171696Y-100673000D01*
X184046677Y-100660687D01*
X183886258Y-100612024D01*
X183738424Y-100533005D01*
X183738422Y-100533004D01*
X183608841Y-100426659D01*
X183502496Y-100297078D01*
X183474311Y-100244347D01*
X183423476Y-100149242D01*
X183374813Y-99988823D01*
X183358383Y-99822000D01*
X183374813Y-99655177D01*
X183423476Y-99494758D01*
X183502495Y-99346924D01*
X183502496Y-99346922D01*
X183608841Y-99217341D01*
X183738422Y-99110996D01*
X183762736Y-99098000D01*
X183886258Y-99031976D01*
X184046677Y-98983313D01*
X184171696Y-98971000D01*
X184255304Y-98971000D01*
X184380323Y-98983313D01*
X184380323Y-98983313D01*
G37*
G36*
X172968228Y-98900203D02*
G01*
X173123100Y-98964353D01*
X173262481Y-99057485D01*
X173381015Y-99176019D01*
X173474147Y-99315400D01*
X173538297Y-99470272D01*
X173571000Y-99634684D01*
X173571000Y-99802316D01*
X173538297Y-99966728D01*
X173474147Y-100121600D01*
X173381015Y-100260981D01*
X173262481Y-100379515D01*
X173123100Y-100472647D01*
X172968228Y-100536797D01*
X172803816Y-100569500D01*
X172636184Y-100569500D01*
X172471772Y-100536797D01*
X172316900Y-100472647D01*
X172177519Y-100379515D01*
X172058985Y-100260981D01*
X171965853Y-100121600D01*
X171901703Y-99966728D01*
X171869000Y-99802316D01*
X171869000Y-99634684D01*
X171901703Y-99470272D01*
X171965853Y-99315400D01*
X172058985Y-99176019D01*
X172177519Y-99057485D01*
X172316900Y-98964353D01*
X172471772Y-98900203D01*
X172636184Y-98867500D01*
X172803816Y-98867500D01*
X172968228Y-98900203D01*
X172968228Y-98900203D01*
G37*
G36*
X145188500Y-100421000D02*
G01*
X143736500Y-100421000D01*
X143736500Y-98969000D01*
X145188500Y-98969000D01*
X145188500Y-100421000D01*
X145188500Y-100421000D01*
G37*
G36*
X146518466Y-98971000D02*
G01*
X146604821Y-98979505D01*
X146741672Y-99021019D01*
X146741675Y-99021020D01*
X146867794Y-99088432D01*
X146978343Y-99179157D01*
X147069068Y-99289706D01*
X147136480Y-99415825D01*
X147136481Y-99415828D01*
X147177995Y-99552679D01*
X147192012Y-99695000D01*
X147177995Y-99837321D01*
X147169542Y-99865185D01*
X147136480Y-99974175D01*
X147069068Y-100100294D01*
X146978343Y-100210843D01*
X146867794Y-100301568D01*
X146741675Y-100368980D01*
X146741672Y-100368981D01*
X146604821Y-100410495D01*
X146533713Y-100417498D01*
X146498160Y-100421000D01*
X146426840Y-100421000D01*
X146391287Y-100417498D01*
X146320179Y-100410495D01*
X146183328Y-100368981D01*
X146183325Y-100368980D01*
X146057206Y-100301568D01*
X145946657Y-100210843D01*
X145855932Y-100100294D01*
X145788520Y-99974175D01*
X145755458Y-99865185D01*
X145747005Y-99837321D01*
X145732988Y-99695000D01*
X145747005Y-99552679D01*
X145788519Y-99415828D01*
X145788520Y-99415825D01*
X145855932Y-99289706D01*
X145946657Y-99179157D01*
X146057206Y-99088432D01*
X146183325Y-99021020D01*
X146183328Y-99021019D01*
X146320179Y-98979505D01*
X146406534Y-98971000D01*
X146426840Y-98969000D01*
X146498160Y-98969000D01*
X146518466Y-98971000D01*
X146518466Y-98971000D01*
G37*
G36*
X169965823Y-96443313D02*
G01*
X170126242Y-96491976D01*
X170248801Y-96557485D01*
X170274078Y-96570996D01*
X170403659Y-96677341D01*
X170510004Y-96806922D01*
X170510005Y-96806924D01*
X170589024Y-96954758D01*
X170589025Y-96954761D01*
X170598083Y-96984620D01*
X170637687Y-97115177D01*
X170654117Y-97282000D01*
X170637687Y-97448823D01*
X170589024Y-97609242D01*
X170518114Y-97741906D01*
X170510004Y-97757078D01*
X170403659Y-97886659D01*
X170274078Y-97993004D01*
X170274076Y-97993005D01*
X170126242Y-98072024D01*
X169965823Y-98120687D01*
X169840804Y-98133000D01*
X169757196Y-98133000D01*
X169632177Y-98120687D01*
X169471758Y-98072024D01*
X169323924Y-97993005D01*
X169323922Y-97993004D01*
X169194341Y-97886659D01*
X169087996Y-97757078D01*
X169079886Y-97741906D01*
X169008976Y-97609242D01*
X168960313Y-97448823D01*
X168943883Y-97282000D01*
X168960313Y-97115177D01*
X168999917Y-96984620D01*
X169008975Y-96954761D01*
X169008976Y-96954758D01*
X169087995Y-96806924D01*
X169087996Y-96806922D01*
X169194341Y-96677341D01*
X169323922Y-96570996D01*
X169349199Y-96557485D01*
X169471758Y-96491976D01*
X169632177Y-96443313D01*
X169757196Y-96431000D01*
X169840804Y-96431000D01*
X169965823Y-96443313D01*
X169965823Y-96443313D01*
G37*
G36*
X162345823Y-96443313D02*
G01*
X162506242Y-96491976D01*
X162628801Y-96557485D01*
X162654078Y-96570996D01*
X162783659Y-96677341D01*
X162890004Y-96806922D01*
X162890005Y-96806924D01*
X162969024Y-96954758D01*
X162969025Y-96954761D01*
X162978083Y-96984620D01*
X163017687Y-97115177D01*
X163034117Y-97282000D01*
X163017687Y-97448823D01*
X162969024Y-97609242D01*
X162898114Y-97741906D01*
X162890004Y-97757078D01*
X162783659Y-97886659D01*
X162654078Y-97993004D01*
X162654076Y-97993005D01*
X162506242Y-98072024D01*
X162345823Y-98120687D01*
X162220804Y-98133000D01*
X162137196Y-98133000D01*
X162012177Y-98120687D01*
X161851758Y-98072024D01*
X161703924Y-97993005D01*
X161703922Y-97993004D01*
X161574341Y-97886659D01*
X161467996Y-97757078D01*
X161459886Y-97741906D01*
X161388976Y-97609242D01*
X161340313Y-97448823D01*
X161323883Y-97282000D01*
X161340313Y-97115177D01*
X161379917Y-96984620D01*
X161388975Y-96954761D01*
X161388976Y-96954758D01*
X161467995Y-96806924D01*
X161467996Y-96806922D01*
X161574341Y-96677341D01*
X161703922Y-96570996D01*
X161729199Y-96557485D01*
X161851758Y-96491976D01*
X162012177Y-96443313D01*
X162137196Y-96431000D01*
X162220804Y-96431000D01*
X162345823Y-96443313D01*
X162345823Y-96443313D01*
G37*
G36*
X172968228Y-96400203D02*
G01*
X173123100Y-96464353D01*
X173262481Y-96557485D01*
X173381015Y-96676019D01*
X173474147Y-96815400D01*
X173538297Y-96970272D01*
X173571000Y-97134684D01*
X173571000Y-97302316D01*
X173538297Y-97466728D01*
X173474147Y-97621600D01*
X173381015Y-97760981D01*
X173262481Y-97879515D01*
X173123100Y-97972647D01*
X172968228Y-98036797D01*
X172803816Y-98069500D01*
X172636184Y-98069500D01*
X172471772Y-98036797D01*
X172316900Y-97972647D01*
X172177519Y-97879515D01*
X172058985Y-97760981D01*
X171965853Y-97621600D01*
X171901703Y-97466728D01*
X171869000Y-97302316D01*
X171869000Y-97134684D01*
X171901703Y-96970272D01*
X171965853Y-96815400D01*
X172058985Y-96676019D01*
X172177519Y-96557485D01*
X172316900Y-96464353D01*
X172471772Y-96400203D01*
X172636184Y-96367500D01*
X172803816Y-96367500D01*
X172968228Y-96400203D01*
X172968228Y-96400203D01*
G37*
G36*
X192684500Y-97180500D02*
G01*
X190982500Y-97180500D01*
X190982500Y-95478500D01*
X192684500Y-95478500D01*
X192684500Y-97180500D01*
X192684500Y-97180500D01*
G37*
G36*
X184380323Y-95490813D02*
G01*
X184540742Y-95539476D01*
X184673406Y-95610386D01*
X184688578Y-95618496D01*
X184818159Y-95724841D01*
X184924504Y-95854422D01*
X184924505Y-95854424D01*
X185003524Y-96002258D01*
X185052187Y-96162677D01*
X185068617Y-96329500D01*
X185052187Y-96496323D01*
X185003524Y-96656742D01*
X184989736Y-96682537D01*
X184924504Y-96804578D01*
X184818159Y-96934159D01*
X184688578Y-97040504D01*
X184688576Y-97040505D01*
X184540742Y-97119524D01*
X184380323Y-97168187D01*
X184255304Y-97180500D01*
X184171696Y-97180500D01*
X184046677Y-97168187D01*
X183886258Y-97119524D01*
X183738424Y-97040505D01*
X183738422Y-97040504D01*
X183608841Y-96934159D01*
X183502496Y-96804578D01*
X183437264Y-96682537D01*
X183423476Y-96656742D01*
X183374813Y-96496323D01*
X183358383Y-96329500D01*
X183374813Y-96162677D01*
X183423476Y-96002258D01*
X183502495Y-95854424D01*
X183502496Y-95854422D01*
X183608841Y-95724841D01*
X183738422Y-95618496D01*
X183753594Y-95610386D01*
X183886258Y-95539476D01*
X184046677Y-95490813D01*
X184171696Y-95478500D01*
X184255304Y-95478500D01*
X184380323Y-95490813D01*
X184380323Y-95490813D01*
G37*
G36*
X149536728Y-95320703D02*
G01*
X149691600Y-95384853D01*
X149830981Y-95477985D01*
X149949515Y-95596519D01*
X150042647Y-95735900D01*
X150106797Y-95890772D01*
X150139500Y-96055184D01*
X150139500Y-96222816D01*
X150106797Y-96387228D01*
X150042647Y-96542100D01*
X149949515Y-96681481D01*
X149830981Y-96800015D01*
X149691600Y-96893147D01*
X149536728Y-96957297D01*
X149372316Y-96990000D01*
X149204684Y-96990000D01*
X149040272Y-96957297D01*
X148885400Y-96893147D01*
X148746019Y-96800015D01*
X148627485Y-96681481D01*
X148534353Y-96542100D01*
X148470203Y-96387228D01*
X148437500Y-96222816D01*
X148437500Y-96055184D01*
X148470203Y-95890772D01*
X148534353Y-95735900D01*
X148627485Y-95596519D01*
X148746019Y-95477985D01*
X148885400Y-95384853D01*
X149040272Y-95320703D01*
X149204684Y-95288000D01*
X149372316Y-95288000D01*
X149536728Y-95320703D01*
X149536728Y-95320703D01*
G37*
G36*
X159615323Y-95300313D02*
G01*
X159775742Y-95348976D01*
X159869517Y-95399100D01*
X159923578Y-95427996D01*
X160053159Y-95534341D01*
X160159504Y-95663922D01*
X160159505Y-95663924D01*
X160238524Y-95811758D01*
X160238525Y-95811761D01*
X160247583Y-95841620D01*
X160287187Y-95972177D01*
X160303617Y-96139000D01*
X160287187Y-96305823D01*
X160258557Y-96400203D01*
X160245480Y-96443313D01*
X160238524Y-96466242D01*
X160182532Y-96570995D01*
X160159504Y-96614078D01*
X160053159Y-96743659D01*
X159923578Y-96850004D01*
X159923576Y-96850005D01*
X159775742Y-96929024D01*
X159615323Y-96977687D01*
X159490304Y-96990000D01*
X159406696Y-96990000D01*
X159281677Y-96977687D01*
X159121258Y-96929024D01*
X158973424Y-96850005D01*
X158973422Y-96850004D01*
X158843841Y-96743659D01*
X158737496Y-96614078D01*
X158714468Y-96570995D01*
X158658476Y-96466242D01*
X158651521Y-96443313D01*
X158638443Y-96400203D01*
X158609813Y-96305823D01*
X158593383Y-96139000D01*
X158609813Y-95972177D01*
X158649417Y-95841620D01*
X158658475Y-95811761D01*
X158658476Y-95811758D01*
X158737495Y-95663924D01*
X158737496Y-95663922D01*
X158843841Y-95534341D01*
X158973422Y-95427996D01*
X159027483Y-95399100D01*
X159121258Y-95348976D01*
X159281677Y-95300313D01*
X159406696Y-95288000D01*
X159490304Y-95288000D01*
X159615323Y-95300313D01*
X159615323Y-95300313D01*
G37*
G36*
X144533713Y-95511002D02*
G01*
X144604821Y-95518005D01*
X144741672Y-95559519D01*
X144741675Y-95559520D01*
X144867794Y-95626932D01*
X144978343Y-95717657D01*
X145069068Y-95828206D01*
X145136480Y-95954325D01*
X145136481Y-95954328D01*
X145177995Y-96091179D01*
X145192012Y-96233500D01*
X145177995Y-96375821D01*
X145142759Y-96491975D01*
X145136480Y-96512675D01*
X145069068Y-96638794D01*
X144978343Y-96749343D01*
X144867794Y-96840068D01*
X144741675Y-96907480D01*
X144741672Y-96907481D01*
X144604821Y-96948995D01*
X144546276Y-96954761D01*
X144498160Y-96959500D01*
X144426840Y-96959500D01*
X144378724Y-96954761D01*
X144320179Y-96948995D01*
X144183328Y-96907481D01*
X144183325Y-96907480D01*
X144057206Y-96840068D01*
X143946657Y-96749343D01*
X143855932Y-96638794D01*
X143788520Y-96512675D01*
X143782241Y-96491975D01*
X143747005Y-96375821D01*
X143732988Y-96233500D01*
X143747005Y-96091179D01*
X143788519Y-95954328D01*
X143788520Y-95954325D01*
X143855932Y-95828206D01*
X143946657Y-95717657D01*
X144057206Y-95626932D01*
X144183325Y-95559520D01*
X144183328Y-95559519D01*
X144320179Y-95518005D01*
X144391287Y-95511002D01*
X144426840Y-95507500D01*
X144498160Y-95507500D01*
X144533713Y-95511002D01*
X144533713Y-95511002D01*
G37*
G36*
X146533713Y-95511002D02*
G01*
X146604821Y-95518005D01*
X146741672Y-95559519D01*
X146741675Y-95559520D01*
X146867794Y-95626932D01*
X146978343Y-95717657D01*
X147069068Y-95828206D01*
X147136480Y-95954325D01*
X147136481Y-95954328D01*
X147177995Y-96091179D01*
X147192012Y-96233500D01*
X147177995Y-96375821D01*
X147142759Y-96491975D01*
X147136480Y-96512675D01*
X147069068Y-96638794D01*
X146978343Y-96749343D01*
X146867794Y-96840068D01*
X146741675Y-96907480D01*
X146741672Y-96907481D01*
X146604821Y-96948995D01*
X146546276Y-96954761D01*
X146498160Y-96959500D01*
X146426840Y-96959500D01*
X146378724Y-96954761D01*
X146320179Y-96948995D01*
X146183328Y-96907481D01*
X146183325Y-96907480D01*
X146057206Y-96840068D01*
X145946657Y-96749343D01*
X145855932Y-96638794D01*
X145788520Y-96512675D01*
X145782241Y-96491975D01*
X145747005Y-96375821D01*
X145732988Y-96233500D01*
X145747005Y-96091179D01*
X145788519Y-95954328D01*
X145788520Y-95954325D01*
X145855932Y-95828206D01*
X145946657Y-95717657D01*
X146057206Y-95626932D01*
X146183325Y-95559520D01*
X146183328Y-95559519D01*
X146320179Y-95518005D01*
X146391287Y-95511002D01*
X146426840Y-95507500D01*
X146498160Y-95507500D01*
X146533713Y-95511002D01*
X146533713Y-95511002D01*
G37*
G36*
X203860203Y-94398485D02*
G01*
X204000653Y-94426422D01*
X204092694Y-94464547D01*
X204222859Y-94518463D01*
X204422842Y-94652087D01*
X204592913Y-94822158D01*
X204726537Y-95022141D01*
X204776729Y-95143315D01*
X204818529Y-95244228D01*
X204818578Y-95244348D01*
X204865500Y-95480241D01*
X204865500Y-95720759D01*
X204859654Y-95750147D01*
X204818578Y-95956653D01*
X204799686Y-96002261D01*
X204726537Y-96178859D01*
X204592913Y-96378842D01*
X204422842Y-96548913D01*
X204222859Y-96682537D01*
X204092694Y-96736453D01*
X204000653Y-96774578D01*
X203882705Y-96798039D01*
X203764759Y-96821500D01*
X203524241Y-96821500D01*
X203406295Y-96798039D01*
X203288347Y-96774578D01*
X203196306Y-96736453D01*
X203066141Y-96682537D01*
X202866158Y-96548913D01*
X202696087Y-96378842D01*
X202562463Y-96178859D01*
X202489314Y-96002261D01*
X202470422Y-95956653D01*
X202429346Y-95750147D01*
X202423500Y-95720759D01*
X202423500Y-95480241D01*
X202470422Y-95244348D01*
X202470472Y-95244228D01*
X202512271Y-95143315D01*
X202562463Y-95022141D01*
X202696087Y-94822158D01*
X202866158Y-94652087D01*
X203066141Y-94518463D01*
X203196306Y-94464547D01*
X203288347Y-94426422D01*
X203428797Y-94398485D01*
X203524241Y-94379500D01*
X203764759Y-94379500D01*
X203860203Y-94398485D01*
X203860203Y-94398485D01*
G37*
G36*
X179572228Y-94241203D02*
G01*
X179727100Y-94305353D01*
X179866481Y-94398485D01*
X179985015Y-94517019D01*
X180078147Y-94656400D01*
X180142297Y-94811272D01*
X180175000Y-94975684D01*
X180175000Y-95143316D01*
X180142297Y-95307728D01*
X180078147Y-95462600D01*
X179985015Y-95601981D01*
X179866481Y-95720515D01*
X179727100Y-95813647D01*
X179572228Y-95877797D01*
X179407816Y-95910500D01*
X179240184Y-95910500D01*
X179075772Y-95877797D01*
X178920900Y-95813647D01*
X178781519Y-95720515D01*
X178662985Y-95601981D01*
X178569853Y-95462600D01*
X178505703Y-95307728D01*
X178473000Y-95143316D01*
X178473000Y-94975684D01*
X178505703Y-94811272D01*
X178569853Y-94656400D01*
X178662985Y-94517019D01*
X178781519Y-94398485D01*
X178920900Y-94305353D01*
X179075772Y-94241203D01*
X179240184Y-94208500D01*
X179407816Y-94208500D01*
X179572228Y-94241203D01*
X179572228Y-94241203D01*
G37*
G36*
X175889228Y-94241203D02*
G01*
X176044100Y-94305353D01*
X176183481Y-94398485D01*
X176302015Y-94517019D01*
X176395147Y-94656400D01*
X176459297Y-94811272D01*
X176492000Y-94975684D01*
X176492000Y-95143316D01*
X176459297Y-95307728D01*
X176395147Y-95462600D01*
X176302015Y-95601981D01*
X176183481Y-95720515D01*
X176044100Y-95813647D01*
X175889228Y-95877797D01*
X175724816Y-95910500D01*
X175557184Y-95910500D01*
X175392772Y-95877797D01*
X175237900Y-95813647D01*
X175098519Y-95720515D01*
X174979985Y-95601981D01*
X174886853Y-95462600D01*
X174822703Y-95307728D01*
X174790000Y-95143316D01*
X174790000Y-94975684D01*
X174822703Y-94811272D01*
X174886853Y-94656400D01*
X174979985Y-94517019D01*
X175098519Y-94398485D01*
X175237900Y-94305353D01*
X175392772Y-94241203D01*
X175557184Y-94208500D01*
X175724816Y-94208500D01*
X175889228Y-94241203D01*
X175889228Y-94241203D01*
G37*
G36*
X172968228Y-94177703D02*
G01*
X173123100Y-94241853D01*
X173262481Y-94334985D01*
X173381015Y-94453519D01*
X173474147Y-94592900D01*
X173538297Y-94747772D01*
X173571000Y-94912184D01*
X173571000Y-95079816D01*
X173538297Y-95244228D01*
X173474147Y-95399100D01*
X173381015Y-95538481D01*
X173262481Y-95657015D01*
X173123100Y-95750147D01*
X172968228Y-95814297D01*
X172803816Y-95847000D01*
X172636184Y-95847000D01*
X172471772Y-95814297D01*
X172316900Y-95750147D01*
X172177519Y-95657015D01*
X172058985Y-95538481D01*
X171965853Y-95399100D01*
X171901703Y-95244228D01*
X171869000Y-95079816D01*
X171869000Y-94912184D01*
X171901703Y-94747772D01*
X171965853Y-94592900D01*
X172058985Y-94453519D01*
X172177519Y-94334985D01*
X172316900Y-94241853D01*
X172471772Y-94177703D01*
X172636184Y-94145000D01*
X172803816Y-94145000D01*
X172968228Y-94177703D01*
X172968228Y-94177703D01*
G37*
G36*
X169965823Y-93903313D02*
G01*
X170126242Y-93951976D01*
X170258906Y-94022886D01*
X170274078Y-94030996D01*
X170403659Y-94137341D01*
X170510004Y-94266922D01*
X170510005Y-94266924D01*
X170589024Y-94414758D01*
X170637687Y-94575177D01*
X170654117Y-94742000D01*
X170637687Y-94908823D01*
X170589024Y-95069242D01*
X170518114Y-95201906D01*
X170510004Y-95217078D01*
X170403659Y-95346659D01*
X170274078Y-95453004D01*
X170274076Y-95453005D01*
X170126242Y-95532024D01*
X169965823Y-95580687D01*
X169840804Y-95593000D01*
X169757196Y-95593000D01*
X169632177Y-95580687D01*
X169471758Y-95532024D01*
X169323924Y-95453005D01*
X169323922Y-95453004D01*
X169194341Y-95346659D01*
X169087996Y-95217078D01*
X169079886Y-95201906D01*
X169008976Y-95069242D01*
X168960313Y-94908823D01*
X168943883Y-94742000D01*
X168960313Y-94575177D01*
X169008976Y-94414758D01*
X169087995Y-94266924D01*
X169087996Y-94266922D01*
X169194341Y-94137341D01*
X169323922Y-94030996D01*
X169339094Y-94022886D01*
X169471758Y-93951976D01*
X169632177Y-93903313D01*
X169757196Y-93891000D01*
X169840804Y-93891000D01*
X169965823Y-93903313D01*
X169965823Y-93903313D01*
G37*
G36*
X162345823Y-93903313D02*
G01*
X162506242Y-93951976D01*
X162638906Y-94022886D01*
X162654078Y-94030996D01*
X162783659Y-94137341D01*
X162890004Y-94266922D01*
X162890005Y-94266924D01*
X162969024Y-94414758D01*
X163017687Y-94575177D01*
X163034117Y-94742000D01*
X163017687Y-94908823D01*
X162969024Y-95069242D01*
X162898114Y-95201906D01*
X162890004Y-95217078D01*
X162783659Y-95346659D01*
X162654078Y-95453004D01*
X162654076Y-95453005D01*
X162506242Y-95532024D01*
X162345823Y-95580687D01*
X162220804Y-95593000D01*
X162137196Y-95593000D01*
X162012177Y-95580687D01*
X161851758Y-95532024D01*
X161703924Y-95453005D01*
X161703922Y-95453004D01*
X161574341Y-95346659D01*
X161467996Y-95217078D01*
X161459886Y-95201906D01*
X161388976Y-95069242D01*
X161340313Y-94908823D01*
X161323883Y-94742000D01*
X161340313Y-94575177D01*
X161388976Y-94414758D01*
X161467995Y-94266924D01*
X161467996Y-94266922D01*
X161574341Y-94137341D01*
X161703922Y-94030996D01*
X161719094Y-94022886D01*
X161851758Y-93951976D01*
X162012177Y-93903313D01*
X162137196Y-93891000D01*
X162220804Y-93891000D01*
X162345823Y-93903313D01*
X162345823Y-93903313D01*
G37*
G36*
X146533713Y-93511002D02*
G01*
X146604821Y-93518005D01*
X146741672Y-93559519D01*
X146741675Y-93559520D01*
X146867794Y-93626932D01*
X146978343Y-93717657D01*
X147069068Y-93828206D01*
X147136480Y-93954325D01*
X147136481Y-93954328D01*
X147177995Y-94091179D01*
X147192012Y-94233500D01*
X147177995Y-94375821D01*
X147166183Y-94414758D01*
X147136480Y-94512675D01*
X147069068Y-94638794D01*
X146978343Y-94749343D01*
X146867794Y-94840068D01*
X146741675Y-94907480D01*
X146741672Y-94907481D01*
X146604821Y-94948995D01*
X146533713Y-94955998D01*
X146498160Y-94959500D01*
X146426840Y-94959500D01*
X146391287Y-94955998D01*
X146320179Y-94948995D01*
X146183328Y-94907481D01*
X146183325Y-94907480D01*
X146057206Y-94840068D01*
X145946657Y-94749343D01*
X145855932Y-94638794D01*
X145788520Y-94512675D01*
X145758817Y-94414758D01*
X145747005Y-94375821D01*
X145732988Y-94233500D01*
X145747005Y-94091179D01*
X145788519Y-93954328D01*
X145788520Y-93954325D01*
X145855932Y-93828206D01*
X145946657Y-93717657D01*
X146057206Y-93626932D01*
X146183325Y-93559520D01*
X146183328Y-93559519D01*
X146320179Y-93518005D01*
X146391287Y-93511002D01*
X146426840Y-93507500D01*
X146498160Y-93507500D01*
X146533713Y-93511002D01*
X146533713Y-93511002D01*
G37*
G36*
X144533713Y-93511002D02*
G01*
X144604821Y-93518005D01*
X144741672Y-93559519D01*
X144741675Y-93559520D01*
X144867794Y-93626932D01*
X144978343Y-93717657D01*
X145069068Y-93828206D01*
X145136480Y-93954325D01*
X145136481Y-93954328D01*
X145177995Y-94091179D01*
X145192012Y-94233500D01*
X145177995Y-94375821D01*
X145166183Y-94414758D01*
X145136480Y-94512675D01*
X145069068Y-94638794D01*
X144978343Y-94749343D01*
X144867794Y-94840068D01*
X144741675Y-94907480D01*
X144741672Y-94907481D01*
X144604821Y-94948995D01*
X144533713Y-94955998D01*
X144498160Y-94959500D01*
X144426840Y-94959500D01*
X144391287Y-94955998D01*
X144320179Y-94948995D01*
X144183328Y-94907481D01*
X144183325Y-94907480D01*
X144057206Y-94840068D01*
X143946657Y-94749343D01*
X143855932Y-94638794D01*
X143788520Y-94512675D01*
X143758817Y-94414758D01*
X143747005Y-94375821D01*
X143732988Y-94233500D01*
X143747005Y-94091179D01*
X143788519Y-93954328D01*
X143788520Y-93954325D01*
X143855932Y-93828206D01*
X143946657Y-93717657D01*
X144057206Y-93626932D01*
X144183325Y-93559520D01*
X144183328Y-93559519D01*
X144320179Y-93518005D01*
X144391287Y-93511002D01*
X144426840Y-93507500D01*
X144498160Y-93507500D01*
X144533713Y-93511002D01*
X144533713Y-93511002D01*
G37*
G36*
X184380323Y-92950813D02*
G01*
X184540742Y-92999476D01*
X184673406Y-93070386D01*
X184688578Y-93078496D01*
X184818159Y-93184841D01*
X184924504Y-93314422D01*
X184924505Y-93314424D01*
X185003524Y-93462258D01*
X185052187Y-93622677D01*
X185068617Y-93789500D01*
X185052187Y-93956323D01*
X185003524Y-94116742D01*
X184954478Y-94208500D01*
X184924504Y-94264578D01*
X184818159Y-94394159D01*
X184688578Y-94500504D01*
X184688576Y-94500505D01*
X184540742Y-94579524D01*
X184380323Y-94628187D01*
X184255304Y-94640500D01*
X184171696Y-94640500D01*
X184046677Y-94628187D01*
X183886258Y-94579524D01*
X183738424Y-94500505D01*
X183738422Y-94500504D01*
X183608841Y-94394159D01*
X183502496Y-94264578D01*
X183472522Y-94208500D01*
X183423476Y-94116742D01*
X183374813Y-93956323D01*
X183358383Y-93789500D01*
X183374813Y-93622677D01*
X183423476Y-93462258D01*
X183502495Y-93314424D01*
X183502496Y-93314422D01*
X183608841Y-93184841D01*
X183738422Y-93078496D01*
X183753594Y-93070386D01*
X183886258Y-92999476D01*
X184046677Y-92950813D01*
X184171696Y-92938500D01*
X184255304Y-92938500D01*
X184380323Y-92950813D01*
X184380323Y-92950813D01*
G37*
G36*
X192000323Y-92950813D02*
G01*
X192160742Y-92999476D01*
X192293406Y-93070386D01*
X192308578Y-93078496D01*
X192438159Y-93184841D01*
X192544504Y-93314422D01*
X192544505Y-93314424D01*
X192623524Y-93462258D01*
X192672187Y-93622677D01*
X192688617Y-93789500D01*
X192672187Y-93956323D01*
X192623524Y-94116742D01*
X192574478Y-94208500D01*
X192544504Y-94264578D01*
X192438159Y-94394159D01*
X192308578Y-94500504D01*
X192308576Y-94500505D01*
X192160742Y-94579524D01*
X192000323Y-94628187D01*
X191875304Y-94640500D01*
X191791696Y-94640500D01*
X191666677Y-94628187D01*
X191506258Y-94579524D01*
X191358424Y-94500505D01*
X191358422Y-94500504D01*
X191228841Y-94394159D01*
X191122496Y-94264578D01*
X191092522Y-94208500D01*
X191043476Y-94116742D01*
X190994813Y-93956323D01*
X190978383Y-93789500D01*
X190994813Y-93622677D01*
X191043476Y-93462258D01*
X191122495Y-93314424D01*
X191122496Y-93314422D01*
X191228841Y-93184841D01*
X191358422Y-93078496D01*
X191373594Y-93070386D01*
X191506258Y-92999476D01*
X191666677Y-92950813D01*
X191791696Y-92938500D01*
X191875304Y-92938500D01*
X192000323Y-92950813D01*
X192000323Y-92950813D01*
G37*
G36*
X159615323Y-91998313D02*
G01*
X159775742Y-92046976D01*
X159861665Y-92092903D01*
X159923578Y-92125996D01*
X160053159Y-92232341D01*
X160159504Y-92361922D01*
X160159505Y-92361924D01*
X160238524Y-92509758D01*
X160287187Y-92670177D01*
X160303617Y-92837000D01*
X160287187Y-93003823D01*
X160238524Y-93164242D01*
X160197977Y-93240100D01*
X160159504Y-93312078D01*
X160053159Y-93441659D01*
X159923578Y-93548004D01*
X159923576Y-93548005D01*
X159775742Y-93627024D01*
X159615323Y-93675687D01*
X159490304Y-93688000D01*
X159406696Y-93688000D01*
X159281677Y-93675687D01*
X159121258Y-93627024D01*
X158973424Y-93548005D01*
X158973422Y-93548004D01*
X158843841Y-93441659D01*
X158737496Y-93312078D01*
X158699023Y-93240100D01*
X158658476Y-93164242D01*
X158609813Y-93003823D01*
X158593383Y-92837000D01*
X158609813Y-92670177D01*
X158658476Y-92509758D01*
X158737495Y-92361924D01*
X158737496Y-92361922D01*
X158843841Y-92232341D01*
X158973422Y-92125996D01*
X159035335Y-92092903D01*
X159121258Y-92046976D01*
X159281677Y-91998313D01*
X159406696Y-91986000D01*
X159490304Y-91986000D01*
X159615323Y-91998313D01*
X159615323Y-91998313D01*
G37*
G36*
X149536728Y-92018703D02*
G01*
X149691600Y-92082853D01*
X149830981Y-92175985D01*
X149949515Y-92294519D01*
X150042647Y-92433900D01*
X150106797Y-92588772D01*
X150139500Y-92753184D01*
X150139500Y-92920816D01*
X150106797Y-93085228D01*
X150042647Y-93240100D01*
X149949515Y-93379481D01*
X149830981Y-93498015D01*
X149691600Y-93591147D01*
X149536728Y-93655297D01*
X149372316Y-93688000D01*
X149204684Y-93688000D01*
X149040272Y-93655297D01*
X148885400Y-93591147D01*
X148746019Y-93498015D01*
X148627485Y-93379481D01*
X148534353Y-93240100D01*
X148470203Y-93085228D01*
X148437500Y-92920816D01*
X148437500Y-92753184D01*
X148470203Y-92588772D01*
X148534353Y-92433900D01*
X148627485Y-92294519D01*
X148746019Y-92175985D01*
X148885400Y-92082853D01*
X149040272Y-92018703D01*
X149204684Y-91986000D01*
X149372316Y-91986000D01*
X149536728Y-92018703D01*
X149536728Y-92018703D01*
G37*
G36*
X175889228Y-91701203D02*
G01*
X176044100Y-91765353D01*
X176183481Y-91858485D01*
X176302015Y-91977019D01*
X176395147Y-92116400D01*
X176459297Y-92271272D01*
X176492000Y-92435684D01*
X176492000Y-92603316D01*
X176459297Y-92767728D01*
X176395147Y-92922600D01*
X176302015Y-93061981D01*
X176183481Y-93180515D01*
X176044100Y-93273647D01*
X175889228Y-93337797D01*
X175724816Y-93370500D01*
X175557184Y-93370500D01*
X175392772Y-93337797D01*
X175237900Y-93273647D01*
X175098519Y-93180515D01*
X174979985Y-93061981D01*
X174886853Y-92922600D01*
X174822703Y-92767728D01*
X174790000Y-92603316D01*
X174790000Y-92435684D01*
X174822703Y-92271272D01*
X174886853Y-92116400D01*
X174979985Y-91977019D01*
X175098519Y-91858485D01*
X175237900Y-91765353D01*
X175392772Y-91701203D01*
X175557184Y-91668500D01*
X175724816Y-91668500D01*
X175889228Y-91701203D01*
X175889228Y-91701203D01*
G37*
G36*
X179490823Y-91680813D02*
G01*
X179651242Y-91729476D01*
X179718361Y-91765352D01*
X179799078Y-91808496D01*
X179928659Y-91914841D01*
X180035004Y-92044422D01*
X180035005Y-92044424D01*
X180114024Y-92192258D01*
X180162687Y-92352677D01*
X180179117Y-92519500D01*
X180162687Y-92686323D01*
X180114024Y-92846742D01*
X180043114Y-92979406D01*
X180035004Y-92994578D01*
X179928659Y-93124159D01*
X179799078Y-93230504D01*
X179799076Y-93230505D01*
X179651242Y-93309524D01*
X179490823Y-93358187D01*
X179365804Y-93370500D01*
X179282196Y-93370500D01*
X179157177Y-93358187D01*
X178996758Y-93309524D01*
X178848924Y-93230505D01*
X178848922Y-93230504D01*
X178719341Y-93124159D01*
X178612996Y-92994578D01*
X178604886Y-92979406D01*
X178533976Y-92846742D01*
X178485313Y-92686323D01*
X178468883Y-92519500D01*
X178485313Y-92352677D01*
X178533976Y-92192258D01*
X178612995Y-92044424D01*
X178612996Y-92044422D01*
X178719341Y-91914841D01*
X178848922Y-91808496D01*
X178929639Y-91765352D01*
X178996758Y-91729476D01*
X179157177Y-91680813D01*
X179282196Y-91668500D01*
X179365804Y-91668500D01*
X179490823Y-91680813D01*
X179490823Y-91680813D01*
G37*
G36*
X172968228Y-91677703D02*
G01*
X173123100Y-91741853D01*
X173262481Y-91834985D01*
X173381015Y-91953519D01*
X173474147Y-92092900D01*
X173538297Y-92247772D01*
X173571000Y-92412184D01*
X173571000Y-92579816D01*
X173538297Y-92744228D01*
X173474147Y-92899100D01*
X173381015Y-93038481D01*
X173262481Y-93157015D01*
X173123100Y-93250147D01*
X172968228Y-93314297D01*
X172803816Y-93347000D01*
X172636184Y-93347000D01*
X172471772Y-93314297D01*
X172316900Y-93250147D01*
X172177519Y-93157015D01*
X172058985Y-93038481D01*
X171965853Y-92899100D01*
X171901703Y-92744228D01*
X171869000Y-92579816D01*
X171869000Y-92412184D01*
X171901703Y-92247772D01*
X171965853Y-92092900D01*
X172058985Y-91953519D01*
X172177519Y-91834985D01*
X172316900Y-91741853D01*
X172471772Y-91677703D01*
X172636184Y-91645000D01*
X172803816Y-91645000D01*
X172968228Y-91677703D01*
X172968228Y-91677703D01*
G37*
G36*
X169965823Y-91363313D02*
G01*
X170126242Y-91411976D01*
X170258906Y-91482886D01*
X170274078Y-91490996D01*
X170403659Y-91597341D01*
X170510004Y-91726922D01*
X170510005Y-91726924D01*
X170589024Y-91874758D01*
X170637687Y-92035177D01*
X170654117Y-92202000D01*
X170637687Y-92368823D01*
X170635564Y-92375821D01*
X170594051Y-92512672D01*
X170589024Y-92529242D01*
X170530467Y-92638794D01*
X170510004Y-92677078D01*
X170403659Y-92806659D01*
X170274078Y-92913004D01*
X170274076Y-92913005D01*
X170126242Y-92992024D01*
X169965823Y-93040687D01*
X169840804Y-93053000D01*
X169757196Y-93053000D01*
X169632177Y-93040687D01*
X169471758Y-92992024D01*
X169323924Y-92913005D01*
X169323922Y-92913004D01*
X169194341Y-92806659D01*
X169087996Y-92677078D01*
X169067533Y-92638794D01*
X169008976Y-92529242D01*
X169003950Y-92512672D01*
X168962436Y-92375821D01*
X168960313Y-92368823D01*
X168943883Y-92202000D01*
X168960313Y-92035177D01*
X169008976Y-91874758D01*
X169087995Y-91726924D01*
X169087996Y-91726922D01*
X169194341Y-91597341D01*
X169323922Y-91490996D01*
X169339094Y-91482886D01*
X169471758Y-91411976D01*
X169632177Y-91363313D01*
X169757196Y-91351000D01*
X169840804Y-91351000D01*
X169965823Y-91363313D01*
X169965823Y-91363313D01*
G37*
G36*
X162345823Y-91363313D02*
G01*
X162506242Y-91411976D01*
X162638906Y-91482886D01*
X162654078Y-91490996D01*
X162783659Y-91597341D01*
X162890004Y-91726922D01*
X162890005Y-91726924D01*
X162969024Y-91874758D01*
X163017687Y-92035177D01*
X163034117Y-92202000D01*
X163017687Y-92368823D01*
X163015564Y-92375821D01*
X162974051Y-92512672D01*
X162969024Y-92529242D01*
X162910467Y-92638794D01*
X162890004Y-92677078D01*
X162783659Y-92806659D01*
X162654078Y-92913004D01*
X162654076Y-92913005D01*
X162506242Y-92992024D01*
X162345823Y-93040687D01*
X162220804Y-93053000D01*
X162137196Y-93053000D01*
X162012177Y-93040687D01*
X161851758Y-92992024D01*
X161703924Y-92913005D01*
X161703922Y-92913004D01*
X161574341Y-92806659D01*
X161467996Y-92677078D01*
X161447533Y-92638794D01*
X161388976Y-92529242D01*
X161383950Y-92512672D01*
X161342436Y-92375821D01*
X161340313Y-92368823D01*
X161323883Y-92202000D01*
X161340313Y-92035177D01*
X161388976Y-91874758D01*
X161467995Y-91726924D01*
X161467996Y-91726922D01*
X161574341Y-91597341D01*
X161703922Y-91490996D01*
X161719094Y-91482886D01*
X161851758Y-91411976D01*
X162012177Y-91363313D01*
X162137196Y-91351000D01*
X162220804Y-91351000D01*
X162345823Y-91363313D01*
X162345823Y-91363313D01*
G37*
G36*
X144533713Y-91511002D02*
G01*
X144604821Y-91518005D01*
X144741672Y-91559519D01*
X144741675Y-91559520D01*
X144867794Y-91626932D01*
X144978343Y-91717657D01*
X145069068Y-91828206D01*
X145136480Y-91954325D01*
X145136481Y-91954328D01*
X145177995Y-92091179D01*
X145192012Y-92233500D01*
X145177995Y-92375821D01*
X145159835Y-92435684D01*
X145136480Y-92512675D01*
X145069068Y-92638794D01*
X144978343Y-92749343D01*
X144867794Y-92840068D01*
X144741675Y-92907480D01*
X144741672Y-92907481D01*
X144604821Y-92948995D01*
X144533713Y-92955998D01*
X144498160Y-92959500D01*
X144426840Y-92959500D01*
X144391287Y-92955998D01*
X144320179Y-92948995D01*
X144183328Y-92907481D01*
X144183325Y-92907480D01*
X144057206Y-92840068D01*
X143946657Y-92749343D01*
X143855932Y-92638794D01*
X143788520Y-92512675D01*
X143765165Y-92435684D01*
X143747005Y-92375821D01*
X143732988Y-92233500D01*
X143747005Y-92091179D01*
X143788519Y-91954328D01*
X143788520Y-91954325D01*
X143855932Y-91828206D01*
X143946657Y-91717657D01*
X144057206Y-91626932D01*
X144183325Y-91559520D01*
X144183328Y-91559519D01*
X144320179Y-91518005D01*
X144391287Y-91511002D01*
X144426840Y-91507500D01*
X144498160Y-91507500D01*
X144533713Y-91511002D01*
X144533713Y-91511002D01*
G37*
G36*
X146533713Y-91511002D02*
G01*
X146604821Y-91518005D01*
X146741672Y-91559519D01*
X146741675Y-91559520D01*
X146867794Y-91626932D01*
X146978343Y-91717657D01*
X147069068Y-91828206D01*
X147136480Y-91954325D01*
X147136481Y-91954328D01*
X147177995Y-92091179D01*
X147192012Y-92233500D01*
X147177995Y-92375821D01*
X147159835Y-92435684D01*
X147136480Y-92512675D01*
X147069068Y-92638794D01*
X146978343Y-92749343D01*
X146867794Y-92840068D01*
X146741675Y-92907480D01*
X146741672Y-92907481D01*
X146604821Y-92948995D01*
X146533713Y-92955998D01*
X146498160Y-92959500D01*
X146426840Y-92959500D01*
X146391287Y-92955998D01*
X146320179Y-92948995D01*
X146183328Y-92907481D01*
X146183325Y-92907480D01*
X146057206Y-92840068D01*
X145946657Y-92749343D01*
X145855932Y-92638794D01*
X145788520Y-92512675D01*
X145765165Y-92435684D01*
X145747005Y-92375821D01*
X145732988Y-92233500D01*
X145747005Y-92091179D01*
X145788519Y-91954328D01*
X145788520Y-91954325D01*
X145855932Y-91828206D01*
X145946657Y-91717657D01*
X146057206Y-91626932D01*
X146183325Y-91559520D01*
X146183328Y-91559519D01*
X146320179Y-91518005D01*
X146391287Y-91511002D01*
X146426840Y-91507500D01*
X146498160Y-91507500D01*
X146533713Y-91511002D01*
X146533713Y-91511002D01*
G37*
G36*
X184380323Y-90410813D02*
G01*
X184540742Y-90459476D01*
X184640270Y-90512675D01*
X184688578Y-90538496D01*
X184818159Y-90644841D01*
X184924504Y-90774422D01*
X184924505Y-90774424D01*
X185003524Y-90922258D01*
X185052187Y-91082677D01*
X185068617Y-91249500D01*
X185052187Y-91416323D01*
X185003524Y-91576742D01*
X184976696Y-91626933D01*
X184924504Y-91724578D01*
X184818159Y-91854159D01*
X184688578Y-91960504D01*
X184688576Y-91960505D01*
X184540742Y-92039524D01*
X184380323Y-92088187D01*
X184255304Y-92100500D01*
X184171696Y-92100500D01*
X184046677Y-92088187D01*
X183886258Y-92039524D01*
X183738424Y-91960505D01*
X183738422Y-91960504D01*
X183608841Y-91854159D01*
X183502496Y-91724578D01*
X183450304Y-91626933D01*
X183423476Y-91576742D01*
X183374813Y-91416323D01*
X183358383Y-91249500D01*
X183374813Y-91082677D01*
X183423476Y-90922258D01*
X183502495Y-90774424D01*
X183502496Y-90774422D01*
X183608841Y-90644841D01*
X183738422Y-90538496D01*
X183786730Y-90512675D01*
X183886258Y-90459476D01*
X184046677Y-90410813D01*
X184171696Y-90398500D01*
X184255304Y-90398500D01*
X184380323Y-90410813D01*
X184380323Y-90410813D01*
G37*
G36*
X192000323Y-90410813D02*
G01*
X192160742Y-90459476D01*
X192260270Y-90512675D01*
X192308578Y-90538496D01*
X192438159Y-90644841D01*
X192544504Y-90774422D01*
X192544505Y-90774424D01*
X192623524Y-90922258D01*
X192672187Y-91082677D01*
X192688617Y-91249500D01*
X192672187Y-91416323D01*
X192623524Y-91576742D01*
X192596696Y-91626933D01*
X192544504Y-91724578D01*
X192438159Y-91854159D01*
X192308578Y-91960504D01*
X192308576Y-91960505D01*
X192160742Y-92039524D01*
X192000323Y-92088187D01*
X191875304Y-92100500D01*
X191791696Y-92100500D01*
X191666677Y-92088187D01*
X191506258Y-92039524D01*
X191358424Y-91960505D01*
X191358422Y-91960504D01*
X191228841Y-91854159D01*
X191122496Y-91724578D01*
X191070304Y-91626933D01*
X191043476Y-91576742D01*
X190994813Y-91416323D01*
X190978383Y-91249500D01*
X190994813Y-91082677D01*
X191043476Y-90922258D01*
X191122495Y-90774424D01*
X191122496Y-90774422D01*
X191228841Y-90644841D01*
X191358422Y-90538496D01*
X191406730Y-90512675D01*
X191506258Y-90459476D01*
X191666677Y-90410813D01*
X191791696Y-90398500D01*
X191875304Y-90398500D01*
X192000323Y-90410813D01*
X192000323Y-90410813D01*
G37*
G36*
X146533713Y-89511002D02*
G01*
X146604821Y-89518005D01*
X146741672Y-89559519D01*
X146741675Y-89559520D01*
X146867794Y-89626932D01*
X146978343Y-89717657D01*
X147069068Y-89828206D01*
X147136480Y-89954325D01*
X147136481Y-89954328D01*
X147177995Y-90091179D01*
X147192012Y-90233500D01*
X147177995Y-90375821D01*
X147154878Y-90452025D01*
X147136480Y-90512675D01*
X147069068Y-90638794D01*
X146978343Y-90749343D01*
X146867794Y-90840068D01*
X146741675Y-90907480D01*
X146741672Y-90907481D01*
X146604821Y-90948995D01*
X146533713Y-90955998D01*
X146498160Y-90959500D01*
X146426840Y-90959500D01*
X146391287Y-90955998D01*
X146320179Y-90948995D01*
X146183328Y-90907481D01*
X146183325Y-90907480D01*
X146057206Y-90840068D01*
X145946657Y-90749343D01*
X145855932Y-90638794D01*
X145788520Y-90512675D01*
X145770122Y-90452025D01*
X145747005Y-90375821D01*
X145732988Y-90233500D01*
X145747005Y-90091179D01*
X145788519Y-89954328D01*
X145788520Y-89954325D01*
X145855932Y-89828206D01*
X145946657Y-89717657D01*
X146057206Y-89626932D01*
X146183325Y-89559520D01*
X146183328Y-89559519D01*
X146320179Y-89518005D01*
X146391287Y-89511002D01*
X146426840Y-89507500D01*
X146498160Y-89507500D01*
X146533713Y-89511002D01*
X146533713Y-89511002D01*
G37*
G36*
X145188500Y-90959500D02*
G01*
X143736500Y-90959500D01*
X143736500Y-89507500D01*
X145188500Y-89507500D01*
X145188500Y-90959500D01*
X145188500Y-90959500D01*
G37*
G36*
X162345823Y-88823313D02*
G01*
X162506242Y-88871976D01*
X162638906Y-88942886D01*
X162654078Y-88950996D01*
X162783659Y-89057341D01*
X162890004Y-89186922D01*
X162890005Y-89186924D01*
X162969024Y-89334758D01*
X163017687Y-89495177D01*
X163034117Y-89662000D01*
X163017687Y-89828823D01*
X162969024Y-89989242D01*
X162914537Y-90091179D01*
X162890004Y-90137078D01*
X162783659Y-90266659D01*
X162654078Y-90373004D01*
X162654076Y-90373005D01*
X162506242Y-90452024D01*
X162345823Y-90500687D01*
X162220804Y-90513000D01*
X162137196Y-90513000D01*
X162012177Y-90500687D01*
X161851758Y-90452024D01*
X161703924Y-90373005D01*
X161703922Y-90373004D01*
X161574341Y-90266659D01*
X161467996Y-90137078D01*
X161443463Y-90091179D01*
X161388976Y-89989242D01*
X161340313Y-89828823D01*
X161323883Y-89662000D01*
X161340313Y-89495177D01*
X161388976Y-89334758D01*
X161467995Y-89186924D01*
X161467996Y-89186922D01*
X161574341Y-89057341D01*
X161703922Y-88950996D01*
X161719094Y-88942886D01*
X161851758Y-88871976D01*
X162012177Y-88823313D01*
X162137196Y-88811000D01*
X162220804Y-88811000D01*
X162345823Y-88823313D01*
X162345823Y-88823313D01*
G37*
G36*
X169965823Y-88823313D02*
G01*
X170126242Y-88871976D01*
X170258906Y-88942886D01*
X170274078Y-88950996D01*
X170403659Y-89057341D01*
X170510004Y-89186922D01*
X170510005Y-89186924D01*
X170589024Y-89334758D01*
X170637687Y-89495177D01*
X170654117Y-89662000D01*
X170637687Y-89828823D01*
X170589024Y-89989242D01*
X170534537Y-90091179D01*
X170510004Y-90137078D01*
X170403659Y-90266659D01*
X170274078Y-90373004D01*
X170274076Y-90373005D01*
X170126242Y-90452024D01*
X169965823Y-90500687D01*
X169840804Y-90513000D01*
X169757196Y-90513000D01*
X169632177Y-90500687D01*
X169471758Y-90452024D01*
X169323924Y-90373005D01*
X169323922Y-90373004D01*
X169194341Y-90266659D01*
X169087996Y-90137078D01*
X169063463Y-90091179D01*
X169008976Y-89989242D01*
X168960313Y-89828823D01*
X168943883Y-89662000D01*
X168960313Y-89495177D01*
X169008976Y-89334758D01*
X169087995Y-89186924D01*
X169087996Y-89186922D01*
X169194341Y-89057341D01*
X169323922Y-88950996D01*
X169339094Y-88942886D01*
X169471758Y-88871976D01*
X169632177Y-88823313D01*
X169757196Y-88811000D01*
X169840804Y-88811000D01*
X169965823Y-88823313D01*
X169965823Y-88823313D01*
G37*
G36*
X184380323Y-87870813D02*
G01*
X184540742Y-87919476D01*
X184617840Y-87960686D01*
X184688578Y-87998496D01*
X184818159Y-88104841D01*
X184924504Y-88234422D01*
X184924505Y-88234424D01*
X185003524Y-88382258D01*
X185052187Y-88542677D01*
X185068617Y-88709500D01*
X185052187Y-88876323D01*
X185003524Y-89036742D01*
X184932614Y-89169406D01*
X184924504Y-89184578D01*
X184818159Y-89314159D01*
X184688578Y-89420504D01*
X184688576Y-89420505D01*
X184540742Y-89499524D01*
X184380323Y-89548187D01*
X184255304Y-89560500D01*
X184171696Y-89560500D01*
X184046677Y-89548187D01*
X183886258Y-89499524D01*
X183738424Y-89420505D01*
X183738422Y-89420504D01*
X183608841Y-89314159D01*
X183502496Y-89184578D01*
X183494386Y-89169406D01*
X183423476Y-89036742D01*
X183374813Y-88876323D01*
X183358383Y-88709500D01*
X183374813Y-88542677D01*
X183423476Y-88382258D01*
X183502495Y-88234424D01*
X183502496Y-88234422D01*
X183608841Y-88104841D01*
X183738422Y-87998496D01*
X183809160Y-87960686D01*
X183886258Y-87919476D01*
X184046677Y-87870813D01*
X184171696Y-87858500D01*
X184255304Y-87858500D01*
X184380323Y-87870813D01*
X184380323Y-87870813D01*
G37*
G36*
X192000323Y-87870813D02*
G01*
X192160742Y-87919476D01*
X192237840Y-87960686D01*
X192308578Y-87998496D01*
X192438159Y-88104841D01*
X192544504Y-88234422D01*
X192544505Y-88234424D01*
X192623524Y-88382258D01*
X192672187Y-88542677D01*
X192688617Y-88709500D01*
X192672187Y-88876323D01*
X192623524Y-89036742D01*
X192552614Y-89169406D01*
X192544504Y-89184578D01*
X192438159Y-89314159D01*
X192308578Y-89420504D01*
X192308576Y-89420505D01*
X192160742Y-89499524D01*
X192000323Y-89548187D01*
X191875304Y-89560500D01*
X191791696Y-89560500D01*
X191666677Y-89548187D01*
X191506258Y-89499524D01*
X191358424Y-89420505D01*
X191358422Y-89420504D01*
X191228841Y-89314159D01*
X191122496Y-89184578D01*
X191114386Y-89169406D01*
X191043476Y-89036742D01*
X190994813Y-88876323D01*
X190978383Y-88709500D01*
X190994813Y-88542677D01*
X191043476Y-88382258D01*
X191122495Y-88234424D01*
X191122496Y-88234422D01*
X191228841Y-88104841D01*
X191358422Y-87998496D01*
X191429160Y-87960686D01*
X191506258Y-87919476D01*
X191666677Y-87870813D01*
X191791696Y-87858500D01*
X191875304Y-87858500D01*
X192000323Y-87870813D01*
X192000323Y-87870813D01*
G37*
G36*
X162345823Y-86283313D02*
G01*
X162506242Y-86331976D01*
X162638906Y-86402886D01*
X162654078Y-86410996D01*
X162783659Y-86517341D01*
X162890004Y-86646922D01*
X162890005Y-86646924D01*
X162969024Y-86794758D01*
X163017687Y-86955177D01*
X163034117Y-87122000D01*
X163017687Y-87288823D01*
X162969024Y-87449242D01*
X162898114Y-87581906D01*
X162890004Y-87597078D01*
X162783659Y-87726659D01*
X162654078Y-87833004D01*
X162654076Y-87833005D01*
X162506242Y-87912024D01*
X162345823Y-87960687D01*
X162220804Y-87973000D01*
X162137196Y-87973000D01*
X162012177Y-87960687D01*
X161851758Y-87912024D01*
X161703924Y-87833005D01*
X161703922Y-87833004D01*
X161574341Y-87726659D01*
X161467996Y-87597078D01*
X161459886Y-87581906D01*
X161388976Y-87449242D01*
X161340313Y-87288823D01*
X161323883Y-87122000D01*
X161340313Y-86955177D01*
X161388976Y-86794758D01*
X161467995Y-86646924D01*
X161467996Y-86646922D01*
X161574341Y-86517341D01*
X161703922Y-86410996D01*
X161719094Y-86402886D01*
X161851758Y-86331976D01*
X162012177Y-86283313D01*
X162137196Y-86271000D01*
X162220804Y-86271000D01*
X162345823Y-86283313D01*
X162345823Y-86283313D01*
G37*
G36*
X169965823Y-86283313D02*
G01*
X170126242Y-86331976D01*
X170258906Y-86402886D01*
X170274078Y-86410996D01*
X170403659Y-86517341D01*
X170510004Y-86646922D01*
X170510005Y-86646924D01*
X170589024Y-86794758D01*
X170637687Y-86955177D01*
X170654117Y-87122000D01*
X170637687Y-87288823D01*
X170589024Y-87449242D01*
X170518114Y-87581906D01*
X170510004Y-87597078D01*
X170403659Y-87726659D01*
X170274078Y-87833004D01*
X170274076Y-87833005D01*
X170126242Y-87912024D01*
X169965823Y-87960687D01*
X169840804Y-87973000D01*
X169757196Y-87973000D01*
X169632177Y-87960687D01*
X169471758Y-87912024D01*
X169323924Y-87833005D01*
X169323922Y-87833004D01*
X169194341Y-87726659D01*
X169087996Y-87597078D01*
X169079886Y-87581906D01*
X169008976Y-87449242D01*
X168960313Y-87288823D01*
X168943883Y-87122000D01*
X168960313Y-86955177D01*
X169008976Y-86794758D01*
X169087995Y-86646924D01*
X169087996Y-86646922D01*
X169194341Y-86517341D01*
X169323922Y-86410996D01*
X169339094Y-86402886D01*
X169471758Y-86331976D01*
X169632177Y-86283313D01*
X169757196Y-86271000D01*
X169840804Y-86271000D01*
X169965823Y-86283313D01*
X169965823Y-86283313D01*
G37*
G36*
X203772443Y-81965748D02*
G01*
X204327689Y-82195738D01*
X204458007Y-82282814D01*
X204827399Y-82529634D01*
X205252366Y-82954601D01*
X205401501Y-83177797D01*
X205586262Y-83454311D01*
X205816252Y-84009557D01*
X205933500Y-84599001D01*
X205933500Y-85199999D01*
X205816252Y-85789443D01*
X205586262Y-86344689D01*
X205477598Y-86507316D01*
X205252366Y-86844399D01*
X204827399Y-87269366D01*
X204575847Y-87437448D01*
X204327689Y-87603262D01*
X203772443Y-87833252D01*
X203182999Y-87950500D01*
X202582001Y-87950500D01*
X201992557Y-87833252D01*
X201437311Y-87603262D01*
X201189153Y-87437448D01*
X200937601Y-87269366D01*
X200512634Y-86844399D01*
X200287402Y-86507316D01*
X200178738Y-86344689D01*
X199948748Y-85789443D01*
X199831500Y-85199999D01*
X199831500Y-84599001D01*
X199948748Y-84009557D01*
X200178738Y-83454311D01*
X200363499Y-83177797D01*
X200512634Y-82954601D01*
X200937601Y-82529634D01*
X201306993Y-82282814D01*
X201437311Y-82195738D01*
X201992557Y-81965748D01*
X202582001Y-81848500D01*
X203182999Y-81848500D01*
X203772443Y-81965748D01*
X203772443Y-81965748D01*
G37*
G36*
X147822228Y-85605203D02*
G01*
X147977100Y-85669353D01*
X148116481Y-85762485D01*
X148235015Y-85881019D01*
X148328147Y-86020400D01*
X148392297Y-86175272D01*
X148425000Y-86339684D01*
X148425000Y-86507316D01*
X148392297Y-86671728D01*
X148328147Y-86826600D01*
X148235015Y-86965981D01*
X148116481Y-87084515D01*
X147977100Y-87177647D01*
X147822228Y-87241797D01*
X147657816Y-87274500D01*
X147490184Y-87274500D01*
X147325772Y-87241797D01*
X147170900Y-87177647D01*
X147031519Y-87084515D01*
X146912985Y-86965981D01*
X146819853Y-86826600D01*
X146755703Y-86671728D01*
X146723000Y-86507316D01*
X146723000Y-86339684D01*
X146755703Y-86175272D01*
X146819853Y-86020400D01*
X146912985Y-85881019D01*
X147031519Y-85762485D01*
X147170900Y-85669353D01*
X147325772Y-85605203D01*
X147490184Y-85572500D01*
X147657816Y-85572500D01*
X147822228Y-85605203D01*
X147822228Y-85605203D01*
G37*
G36*
X157900823Y-85584813D02*
G01*
X158061242Y-85633476D01*
X158128361Y-85669352D01*
X158209078Y-85712496D01*
X158338659Y-85818841D01*
X158445004Y-85948422D01*
X158445005Y-85948424D01*
X158524024Y-86096258D01*
X158572687Y-86256677D01*
X158589117Y-86423500D01*
X158572687Y-86590323D01*
X158524024Y-86750742D01*
X158483477Y-86826600D01*
X158445004Y-86898578D01*
X158338659Y-87028159D01*
X158209078Y-87134504D01*
X158209076Y-87134505D01*
X158061242Y-87213524D01*
X157900823Y-87262187D01*
X157775804Y-87274500D01*
X157692196Y-87274500D01*
X157567177Y-87262187D01*
X157406758Y-87213524D01*
X157258924Y-87134505D01*
X157258922Y-87134504D01*
X157129341Y-87028159D01*
X157022996Y-86898578D01*
X156984523Y-86826600D01*
X156943976Y-86750742D01*
X156895313Y-86590323D01*
X156878883Y-86423500D01*
X156895313Y-86256677D01*
X156943976Y-86096258D01*
X157022995Y-85948424D01*
X157022996Y-85948422D01*
X157129341Y-85818841D01*
X157258922Y-85712496D01*
X157339639Y-85669352D01*
X157406758Y-85633476D01*
X157567177Y-85584813D01*
X157692196Y-85572500D01*
X157775804Y-85572500D01*
X157900823Y-85584813D01*
X157900823Y-85584813D01*
G37*
G36*
X184380323Y-84124313D02*
G01*
X184540742Y-84172976D01*
X184673406Y-84243886D01*
X184688578Y-84251996D01*
X184818159Y-84358341D01*
X184924504Y-84487922D01*
X184924505Y-84487924D01*
X185003524Y-84635758D01*
X185052187Y-84796177D01*
X185068617Y-84963000D01*
X185052187Y-85129823D01*
X185003524Y-85290242D01*
X184959810Y-85372025D01*
X184924504Y-85438078D01*
X184818159Y-85567659D01*
X184688578Y-85674004D01*
X184688576Y-85674005D01*
X184540742Y-85753024D01*
X184380323Y-85801687D01*
X184255304Y-85814000D01*
X184171696Y-85814000D01*
X184046677Y-85801687D01*
X183886258Y-85753024D01*
X183738424Y-85674005D01*
X183738422Y-85674004D01*
X183608841Y-85567659D01*
X183502496Y-85438078D01*
X183467190Y-85372025D01*
X183423476Y-85290242D01*
X183374813Y-85129823D01*
X183358383Y-84963000D01*
X183374813Y-84796177D01*
X183423476Y-84635758D01*
X183502495Y-84487924D01*
X183502496Y-84487922D01*
X183608841Y-84358341D01*
X183738422Y-84251996D01*
X183753594Y-84243886D01*
X183886258Y-84172976D01*
X184046677Y-84124313D01*
X184171696Y-84112000D01*
X184255304Y-84112000D01*
X184380323Y-84124313D01*
X184380323Y-84124313D01*
G37*
G36*
X192684500Y-85814000D02*
G01*
X190982500Y-85814000D01*
X190982500Y-84112000D01*
X192684500Y-84112000D01*
X192684500Y-85814000D01*
X192684500Y-85814000D01*
G37*
G36*
X162345823Y-83743313D02*
G01*
X162506242Y-83791976D01*
X162582064Y-83832504D01*
X162654078Y-83870996D01*
X162783659Y-83977341D01*
X162890004Y-84106922D01*
X162890005Y-84106924D01*
X162969024Y-84254758D01*
X163017687Y-84415177D01*
X163034117Y-84582000D01*
X163017687Y-84748823D01*
X162969024Y-84909242D01*
X162898114Y-85041906D01*
X162890004Y-85057078D01*
X162783659Y-85186659D01*
X162654078Y-85293004D01*
X162654076Y-85293005D01*
X162506242Y-85372024D01*
X162345823Y-85420687D01*
X162220804Y-85433000D01*
X162137196Y-85433000D01*
X162012177Y-85420687D01*
X161851758Y-85372024D01*
X161703924Y-85293005D01*
X161703922Y-85293004D01*
X161574341Y-85186659D01*
X161467996Y-85057078D01*
X161459886Y-85041906D01*
X161388976Y-84909242D01*
X161340313Y-84748823D01*
X161323883Y-84582000D01*
X161340313Y-84415177D01*
X161388976Y-84254758D01*
X161467995Y-84106924D01*
X161467996Y-84106922D01*
X161574341Y-83977341D01*
X161703922Y-83870996D01*
X161775936Y-83832504D01*
X161851758Y-83791976D01*
X162012177Y-83743313D01*
X162137196Y-83731000D01*
X162220804Y-83731000D01*
X162345823Y-83743313D01*
X162345823Y-83743313D01*
G37*
G36*
X169965823Y-83743313D02*
G01*
X170126242Y-83791976D01*
X170202064Y-83832504D01*
X170274078Y-83870996D01*
X170403659Y-83977341D01*
X170510004Y-84106922D01*
X170510005Y-84106924D01*
X170589024Y-84254758D01*
X170637687Y-84415177D01*
X170654117Y-84582000D01*
X170637687Y-84748823D01*
X170589024Y-84909242D01*
X170518114Y-85041906D01*
X170510004Y-85057078D01*
X170403659Y-85186659D01*
X170274078Y-85293004D01*
X170274076Y-85293005D01*
X170126242Y-85372024D01*
X169965823Y-85420687D01*
X169840804Y-85433000D01*
X169757196Y-85433000D01*
X169632177Y-85420687D01*
X169471758Y-85372024D01*
X169323924Y-85293005D01*
X169323922Y-85293004D01*
X169194341Y-85186659D01*
X169087996Y-85057078D01*
X169079886Y-85041906D01*
X169008976Y-84909242D01*
X168960313Y-84748823D01*
X168943883Y-84582000D01*
X168960313Y-84415177D01*
X169008976Y-84254758D01*
X169087995Y-84106924D01*
X169087996Y-84106922D01*
X169194341Y-83977341D01*
X169323922Y-83870996D01*
X169395936Y-83832504D01*
X169471758Y-83791976D01*
X169632177Y-83743313D01*
X169757196Y-83731000D01*
X169840804Y-83731000D01*
X169965823Y-83743313D01*
X169965823Y-83743313D01*
G37*
G36*
X147822228Y-82303203D02*
G01*
X147977100Y-82367353D01*
X148116481Y-82460485D01*
X148235015Y-82579019D01*
X148328147Y-82718400D01*
X148392297Y-82873272D01*
X148425000Y-83037684D01*
X148425000Y-83205316D01*
X148392297Y-83369728D01*
X148328147Y-83524600D01*
X148235015Y-83663981D01*
X148116481Y-83782515D01*
X147977100Y-83875647D01*
X147822228Y-83939797D01*
X147657816Y-83972500D01*
X147490184Y-83972500D01*
X147325772Y-83939797D01*
X147170900Y-83875647D01*
X147031519Y-83782515D01*
X146912985Y-83663981D01*
X146819853Y-83524600D01*
X146755703Y-83369728D01*
X146723000Y-83205316D01*
X146723000Y-83037684D01*
X146755703Y-82873272D01*
X146819853Y-82718400D01*
X146912985Y-82579019D01*
X147031519Y-82460485D01*
X147170900Y-82367353D01*
X147325772Y-82303203D01*
X147490184Y-82270500D01*
X147657816Y-82270500D01*
X147822228Y-82303203D01*
X147822228Y-82303203D01*
G37*
G36*
X157900823Y-82282813D02*
G01*
X158061242Y-82331476D01*
X158128361Y-82367352D01*
X158209078Y-82410496D01*
X158338659Y-82516841D01*
X158445004Y-82646422D01*
X158445005Y-82646424D01*
X158524024Y-82794258D01*
X158572687Y-82954677D01*
X158589117Y-83121500D01*
X158572687Y-83288323D01*
X158524024Y-83448742D01*
X158483477Y-83524600D01*
X158445004Y-83596578D01*
X158338659Y-83726159D01*
X158209078Y-83832504D01*
X158209076Y-83832505D01*
X158061242Y-83911524D01*
X157900823Y-83960187D01*
X157775804Y-83972500D01*
X157692196Y-83972500D01*
X157567177Y-83960187D01*
X157406758Y-83911524D01*
X157258924Y-83832505D01*
X157258922Y-83832504D01*
X157129341Y-83726159D01*
X157022996Y-83596578D01*
X156984523Y-83524600D01*
X156943976Y-83448742D01*
X156895313Y-83288323D01*
X156878883Y-83121500D01*
X156895313Y-82954677D01*
X156943976Y-82794258D01*
X157022995Y-82646424D01*
X157022996Y-82646422D01*
X157129341Y-82516841D01*
X157258922Y-82410496D01*
X157339639Y-82367352D01*
X157406758Y-82331476D01*
X157567177Y-82282813D01*
X157692196Y-82270500D01*
X157775804Y-82270500D01*
X157900823Y-82282813D01*
X157900823Y-82282813D01*
G37*
G36*
X192000323Y-81584313D02*
G01*
X192160742Y-81632976D01*
X192283301Y-81698485D01*
X192308578Y-81711996D01*
X192438159Y-81818341D01*
X192544504Y-81947922D01*
X192544505Y-81947924D01*
X192623524Y-82095758D01*
X192672187Y-82256177D01*
X192688617Y-82423000D01*
X192672187Y-82589823D01*
X192623524Y-82750242D01*
X192599997Y-82794258D01*
X192544504Y-82898078D01*
X192438159Y-83027659D01*
X192308578Y-83134004D01*
X192308576Y-83134005D01*
X192160742Y-83213024D01*
X192000323Y-83261687D01*
X191875304Y-83274000D01*
X191791696Y-83274000D01*
X191666677Y-83261687D01*
X191506258Y-83213024D01*
X191358424Y-83134005D01*
X191358422Y-83134004D01*
X191228841Y-83027659D01*
X191122496Y-82898078D01*
X191067003Y-82794258D01*
X191043476Y-82750242D01*
X190994813Y-82589823D01*
X190978383Y-82423000D01*
X190994813Y-82256177D01*
X191043476Y-82095758D01*
X191122495Y-81947924D01*
X191122496Y-81947922D01*
X191228841Y-81818341D01*
X191358422Y-81711996D01*
X191383699Y-81698485D01*
X191506258Y-81632976D01*
X191666677Y-81584313D01*
X191791696Y-81572000D01*
X191875304Y-81572000D01*
X192000323Y-81584313D01*
X192000323Y-81584313D01*
G37*
G36*
X184380323Y-81584313D02*
G01*
X184540742Y-81632976D01*
X184663301Y-81698485D01*
X184688578Y-81711996D01*
X184818159Y-81818341D01*
X184924504Y-81947922D01*
X184924505Y-81947924D01*
X185003524Y-82095758D01*
X185052187Y-82256177D01*
X185068617Y-82423000D01*
X185052187Y-82589823D01*
X185003524Y-82750242D01*
X184979997Y-82794258D01*
X184924504Y-82898078D01*
X184818159Y-83027659D01*
X184688578Y-83134004D01*
X184688576Y-83134005D01*
X184540742Y-83213024D01*
X184380323Y-83261687D01*
X184255304Y-83274000D01*
X184171696Y-83274000D01*
X184046677Y-83261687D01*
X183886258Y-83213024D01*
X183738424Y-83134005D01*
X183738422Y-83134004D01*
X183608841Y-83027659D01*
X183502496Y-82898078D01*
X183447003Y-82794258D01*
X183423476Y-82750242D01*
X183374813Y-82589823D01*
X183358383Y-82423000D01*
X183374813Y-82256177D01*
X183423476Y-82095758D01*
X183502495Y-81947924D01*
X183502496Y-81947922D01*
X183608841Y-81818341D01*
X183738422Y-81711996D01*
X183763699Y-81698485D01*
X183886258Y-81632976D01*
X184046677Y-81584313D01*
X184171696Y-81572000D01*
X184255304Y-81572000D01*
X184380323Y-81584313D01*
X184380323Y-81584313D01*
G37*
G36*
X175807823Y-81520813D02*
G01*
X175968242Y-81569476D01*
X176035361Y-81605352D01*
X176116078Y-81648496D01*
X176245659Y-81754841D01*
X176352004Y-81884422D01*
X176352005Y-81884424D01*
X176431024Y-82032258D01*
X176479687Y-82192677D01*
X176496117Y-82359500D01*
X176479687Y-82526323D01*
X176431024Y-82686742D01*
X176390477Y-82762600D01*
X176352004Y-82834578D01*
X176245659Y-82964159D01*
X176116078Y-83070504D01*
X176116076Y-83070505D01*
X175968242Y-83149524D01*
X175807823Y-83198187D01*
X175682804Y-83210500D01*
X175599196Y-83210500D01*
X175474177Y-83198187D01*
X175313758Y-83149524D01*
X175165924Y-83070505D01*
X175165922Y-83070504D01*
X175036341Y-82964159D01*
X174929996Y-82834578D01*
X174891523Y-82762600D01*
X174850976Y-82686742D01*
X174802313Y-82526323D01*
X174785883Y-82359500D01*
X174802313Y-82192677D01*
X174850976Y-82032258D01*
X174929995Y-81884424D01*
X174929996Y-81884422D01*
X175036341Y-81754841D01*
X175165922Y-81648496D01*
X175246639Y-81605352D01*
X175313758Y-81569476D01*
X175474177Y-81520813D01*
X175599196Y-81508500D01*
X175682804Y-81508500D01*
X175807823Y-81520813D01*
X175807823Y-81520813D01*
G37*
G36*
X179572228Y-81541203D02*
G01*
X179727100Y-81605353D01*
X179866481Y-81698485D01*
X179985015Y-81817019D01*
X180078147Y-81956400D01*
X180142297Y-82111272D01*
X180175000Y-82275684D01*
X180175000Y-82443316D01*
X180142297Y-82607728D01*
X180078147Y-82762600D01*
X179985015Y-82901981D01*
X179866481Y-83020515D01*
X179727100Y-83113647D01*
X179572228Y-83177797D01*
X179407816Y-83210500D01*
X179240184Y-83210500D01*
X179075772Y-83177797D01*
X178920900Y-83113647D01*
X178781519Y-83020515D01*
X178662985Y-82901981D01*
X178569853Y-82762600D01*
X178505703Y-82607728D01*
X178473000Y-82443316D01*
X178473000Y-82275684D01*
X178505703Y-82111272D01*
X178569853Y-81956400D01*
X178662985Y-81817019D01*
X178781519Y-81698485D01*
X178920900Y-81605353D01*
X179075772Y-81541203D01*
X179240184Y-81508500D01*
X179407816Y-81508500D01*
X179572228Y-81541203D01*
X179572228Y-81541203D01*
G37*
G36*
X173405861Y-76029498D02*
G01*
X173512446Y-76039995D01*
X173785960Y-76122965D01*
X173785963Y-76122966D01*
X174038028Y-76257698D01*
X174038029Y-76257699D01*
X174038033Y-76257701D01*
X174258976Y-76439024D01*
X174440299Y-76659967D01*
X174440301Y-76659971D01*
X174440302Y-76659972D01*
X174575034Y-76912037D01*
X174575035Y-76912040D01*
X174658005Y-77185554D01*
X174686020Y-77470000D01*
X174658005Y-77754446D01*
X174640272Y-77812903D01*
X174575034Y-78027963D01*
X174440302Y-78280028D01*
X174440299Y-78280033D01*
X174258976Y-78500976D01*
X174038033Y-78682299D01*
X174038029Y-78682301D01*
X174038028Y-78682302D01*
X173785963Y-78817034D01*
X173785960Y-78817035D01*
X173512446Y-78900005D01*
X173405861Y-78910503D01*
X173299278Y-78921000D01*
X173156722Y-78921000D01*
X173050139Y-78910503D01*
X172943554Y-78900005D01*
X172670040Y-78817035D01*
X172670037Y-78817034D01*
X172417972Y-78682302D01*
X172417971Y-78682301D01*
X172417967Y-78682299D01*
X172197024Y-78500976D01*
X172015701Y-78280033D01*
X172015698Y-78280028D01*
X171880966Y-78027963D01*
X171815728Y-77812903D01*
X171797995Y-77754446D01*
X171769980Y-77470000D01*
X171797995Y-77185554D01*
X171880965Y-76912040D01*
X171880966Y-76912037D01*
X172015698Y-76659972D01*
X172015699Y-76659971D01*
X172015701Y-76659967D01*
X172197024Y-76439024D01*
X172417967Y-76257701D01*
X172417971Y-76257699D01*
X172417972Y-76257698D01*
X172670037Y-76122966D01*
X172670040Y-76122965D01*
X172943554Y-76039995D01*
X173050139Y-76029498D01*
X173156722Y-76019000D01*
X173299278Y-76019000D01*
X173405861Y-76029498D01*
X173405861Y-76029498D01*
G37*
G36*
X169599000Y-78921000D02*
G01*
X166697000Y-78921000D01*
X166697000Y-76019000D01*
X169599000Y-76019000D01*
X169599000Y-78921000D01*
X169599000Y-78921000D01*
G37*
G36*
X152962000Y-78921000D02*
G01*
X150060000Y-78921000D01*
X150060000Y-76019000D01*
X152962000Y-76019000D01*
X152962000Y-78921000D01*
X152962000Y-78921000D01*
G37*
G36*
X156768861Y-76029498D02*
G01*
X156875446Y-76039995D01*
X157148960Y-76122965D01*
X157148963Y-76122966D01*
X157401028Y-76257698D01*
X157401029Y-76257699D01*
X157401033Y-76257701D01*
X157621976Y-76439024D01*
X157803299Y-76659967D01*
X157803301Y-76659971D01*
X157803302Y-76659972D01*
X157938034Y-76912037D01*
X157938035Y-76912040D01*
X158021005Y-77185554D01*
X158049020Y-77470000D01*
X158021005Y-77754446D01*
X158003272Y-77812903D01*
X157938034Y-78027963D01*
X157803302Y-78280028D01*
X157803299Y-78280033D01*
X157621976Y-78500976D01*
X157401033Y-78682299D01*
X157401029Y-78682301D01*
X157401028Y-78682302D01*
X157148963Y-78817034D01*
X157148960Y-78817035D01*
X156875446Y-78900005D01*
X156768861Y-78910503D01*
X156662278Y-78921000D01*
X156519722Y-78921000D01*
X156413139Y-78910503D01*
X156306554Y-78900005D01*
X156033040Y-78817035D01*
X156033037Y-78817034D01*
X155780972Y-78682302D01*
X155780971Y-78682301D01*
X155780967Y-78682299D01*
X155560024Y-78500976D01*
X155378701Y-78280033D01*
X155378698Y-78280028D01*
X155243966Y-78027963D01*
X155178728Y-77812903D01*
X155160995Y-77754446D01*
X155132980Y-77470000D01*
X155160995Y-77185554D01*
X155243965Y-76912040D01*
X155243966Y-76912037D01*
X155378698Y-76659972D01*
X155378699Y-76659971D01*
X155378701Y-76659967D01*
X155560024Y-76439024D01*
X155780967Y-76257701D01*
X155780971Y-76257699D01*
X155780972Y-76257698D01*
X156033037Y-76122966D01*
X156033040Y-76122965D01*
X156306554Y-76039995D01*
X156413139Y-76029498D01*
X156519722Y-76019000D01*
X156662278Y-76019000D01*
X156768861Y-76029498D01*
X156768861Y-76029498D01*
G37*
G36*
X146924915Y-77121834D02*
G01*
X147033491Y-77154771D01*
X147033494Y-77154772D01*
X147069600Y-77174071D01*
X147133556Y-77208256D01*
X147221264Y-77280236D01*
X147293244Y-77367943D01*
X147322971Y-77423560D01*
X147346728Y-77468005D01*
X147346729Y-77468008D01*
X147379666Y-77576584D01*
X147388000Y-77661202D01*
X147388000Y-78167797D01*
X147379666Y-78252416D01*
X147347252Y-78359267D01*
X147346728Y-78360995D01*
X147330671Y-78391035D01*
X147293244Y-78461057D01*
X147221264Y-78548764D01*
X147133557Y-78620744D01*
X147090672Y-78643666D01*
X147033495Y-78674228D01*
X147033492Y-78674229D01*
X146924916Y-78707166D01*
X146812000Y-78718287D01*
X146699085Y-78707166D01*
X146590509Y-78674229D01*
X146590506Y-78674228D01*
X146533329Y-78643666D01*
X146490444Y-78620744D01*
X146402737Y-78548764D01*
X146330757Y-78461057D01*
X146287239Y-78379641D01*
X146273625Y-78359266D01*
X146256298Y-78341939D01*
X146235924Y-78328326D01*
X146213285Y-78318948D01*
X146189252Y-78314168D01*
X146164748Y-78314168D01*
X146140715Y-78318948D01*
X146118076Y-78328326D01*
X146097701Y-78341940D01*
X146080374Y-78359267D01*
X146066761Y-78379641D01*
X146023244Y-78461057D01*
X145951264Y-78548764D01*
X145863557Y-78620744D01*
X145820672Y-78643666D01*
X145763495Y-78674228D01*
X145763492Y-78674229D01*
X145654916Y-78707166D01*
X145542000Y-78718287D01*
X145429085Y-78707166D01*
X145320509Y-78674229D01*
X145320506Y-78674228D01*
X145263329Y-78643666D01*
X145220444Y-78620744D01*
X145132737Y-78548764D01*
X145069622Y-78471859D01*
X145052297Y-78454534D01*
X145031923Y-78440920D01*
X145009284Y-78431543D01*
X144985250Y-78426763D01*
X144960746Y-78426763D01*
X144936713Y-78431544D01*
X144914074Y-78440921D01*
X144893700Y-78454535D01*
X144876373Y-78471862D01*
X144862759Y-78492236D01*
X144853382Y-78514875D01*
X144848000Y-78551160D01*
X144848000Y-78715500D01*
X143696000Y-78715500D01*
X143696000Y-77113500D01*
X144848000Y-77113500D01*
X144848000Y-77277841D01*
X144850402Y-77302227D01*
X144857515Y-77325676D01*
X144869066Y-77347287D01*
X144884611Y-77366229D01*
X144903553Y-77381774D01*
X144925164Y-77393325D01*
X144948613Y-77400438D01*
X144972999Y-77402840D01*
X144997385Y-77400438D01*
X145020834Y-77393325D01*
X145042445Y-77381774D01*
X145061387Y-77366229D01*
X145069608Y-77357157D01*
X145132736Y-77280236D01*
X145220443Y-77208256D01*
X145284399Y-77174071D01*
X145320505Y-77154772D01*
X145320508Y-77154771D01*
X145429084Y-77121834D01*
X145542000Y-77110713D01*
X145654915Y-77121834D01*
X145763491Y-77154771D01*
X145763494Y-77154772D01*
X145799600Y-77174071D01*
X145863556Y-77208256D01*
X145951264Y-77280236D01*
X146023244Y-77367943D01*
X146052971Y-77423560D01*
X146066761Y-77449359D01*
X146080375Y-77469734D01*
X146097702Y-77487061D01*
X146118076Y-77500674D01*
X146140715Y-77510052D01*
X146164748Y-77514832D01*
X146189252Y-77514832D01*
X146213285Y-77510052D01*
X146235924Y-77500674D01*
X146256299Y-77487060D01*
X146273626Y-77469733D01*
X146287239Y-77449360D01*
X146330756Y-77367944D01*
X146402736Y-77280236D01*
X146490443Y-77208256D01*
X146554399Y-77174071D01*
X146590505Y-77154772D01*
X146590508Y-77154771D01*
X146699084Y-77121834D01*
X146812000Y-77110713D01*
X146924915Y-77121834D01*
X146924915Y-77121834D01*
G37*
G36*
X190969903Y-76245075D02*
G01*
X191117229Y-76306099D01*
X191197571Y-76339378D01*
X191402466Y-76476285D01*
X191576715Y-76650534D01*
X191576716Y-76650536D01*
X191713623Y-76855431D01*
X191807925Y-77083097D01*
X191856000Y-77324786D01*
X191856000Y-77571214D01*
X191807925Y-77812903D01*
X191718845Y-78027963D01*
X191713622Y-78040571D01*
X191576715Y-78245466D01*
X191402466Y-78419715D01*
X191197571Y-78556622D01*
X191197570Y-78556623D01*
X191197569Y-78556623D01*
X190969903Y-78650925D01*
X190728214Y-78699000D01*
X190481786Y-78699000D01*
X190240097Y-78650925D01*
X190012431Y-78556623D01*
X190012430Y-78556623D01*
X190012429Y-78556622D01*
X189807534Y-78419715D01*
X189633285Y-78245466D01*
X189496378Y-78040571D01*
X189491156Y-78027963D01*
X189402075Y-77812903D01*
X189354000Y-77571214D01*
X189354000Y-77324786D01*
X189402075Y-77083097D01*
X189496377Y-76855431D01*
X189633284Y-76650536D01*
X189633285Y-76650534D01*
X189807534Y-76476285D01*
X190012429Y-76339378D01*
X190092772Y-76306099D01*
X190240097Y-76245075D01*
X190481786Y-76197000D01*
X190728214Y-76197000D01*
X190969903Y-76245075D01*
X190969903Y-76245075D01*
G37*
G36*
X180169903Y-76245075D02*
G01*
X180317229Y-76306099D01*
X180397571Y-76339378D01*
X180602466Y-76476285D01*
X180776715Y-76650534D01*
X180776716Y-76650536D01*
X180913623Y-76855431D01*
X181007925Y-77083097D01*
X181056000Y-77324786D01*
X181056000Y-77571214D01*
X181007925Y-77812903D01*
X180918845Y-78027963D01*
X180913622Y-78040571D01*
X180776715Y-78245466D01*
X180602466Y-78419715D01*
X180397571Y-78556622D01*
X180397570Y-78556623D01*
X180397569Y-78556623D01*
X180169903Y-78650925D01*
X179928214Y-78699000D01*
X179681786Y-78699000D01*
X179440097Y-78650925D01*
X179212431Y-78556623D01*
X179212430Y-78556623D01*
X179212429Y-78556622D01*
X179007534Y-78419715D01*
X178833285Y-78245466D01*
X178696378Y-78040571D01*
X178691156Y-78027963D01*
X178602075Y-77812903D01*
X178554000Y-77571214D01*
X178554000Y-77324786D01*
X178602075Y-77083097D01*
X178696377Y-76855431D01*
X178833284Y-76650536D01*
X178833285Y-76650534D01*
X179007534Y-76476285D01*
X179212429Y-76339378D01*
X179292772Y-76306099D01*
X179440097Y-76245075D01*
X179681786Y-76197000D01*
X179928214Y-76197000D01*
X180169903Y-76245075D01*
X180169903Y-76245075D01*
G37*
G36*
X163625415Y-77058334D02*
G01*
X163733991Y-77091271D01*
X163733994Y-77091272D01*
X163770100Y-77110571D01*
X163834056Y-77144756D01*
X163921764Y-77216736D01*
X163993744Y-77304443D01*
X164016644Y-77347287D01*
X164047228Y-77404505D01*
X164047229Y-77404508D01*
X164080166Y-77513084D01*
X164088500Y-77597702D01*
X164088500Y-78104297D01*
X164080166Y-78188916D01*
X164047752Y-78295767D01*
X164047228Y-78297495D01*
X164038316Y-78314168D01*
X163993744Y-78397557D01*
X163921764Y-78485264D01*
X163834057Y-78557244D01*
X163770101Y-78591429D01*
X163733995Y-78610728D01*
X163733992Y-78610729D01*
X163625416Y-78643666D01*
X163512500Y-78654787D01*
X163399585Y-78643666D01*
X163291009Y-78610729D01*
X163291006Y-78610728D01*
X163254900Y-78591429D01*
X163190944Y-78557244D01*
X163103237Y-78485264D01*
X163031257Y-78397557D01*
X163011713Y-78360992D01*
X162987739Y-78316141D01*
X162974125Y-78295766D01*
X162956798Y-78278439D01*
X162936424Y-78264826D01*
X162913785Y-78255448D01*
X162889752Y-78250668D01*
X162865248Y-78250668D01*
X162841215Y-78255448D01*
X162818576Y-78264826D01*
X162798201Y-78278440D01*
X162780874Y-78295767D01*
X162767261Y-78316141D01*
X162723744Y-78397557D01*
X162651764Y-78485264D01*
X162564057Y-78557244D01*
X162500101Y-78591429D01*
X162463995Y-78610728D01*
X162463992Y-78610729D01*
X162355416Y-78643666D01*
X162242500Y-78654787D01*
X162129585Y-78643666D01*
X162021009Y-78610729D01*
X162021006Y-78610728D01*
X161984900Y-78591429D01*
X161920944Y-78557244D01*
X161833237Y-78485264D01*
X161770122Y-78408359D01*
X161752797Y-78391034D01*
X161732423Y-78377420D01*
X161709784Y-78368043D01*
X161685750Y-78363263D01*
X161661246Y-78363263D01*
X161637213Y-78368044D01*
X161614574Y-78377421D01*
X161594200Y-78391035D01*
X161576873Y-78408362D01*
X161563259Y-78428736D01*
X161553882Y-78451375D01*
X161548500Y-78487660D01*
X161548500Y-78652000D01*
X160396500Y-78652000D01*
X160396500Y-77050000D01*
X161548500Y-77050000D01*
X161548500Y-77214341D01*
X161550902Y-77238727D01*
X161558015Y-77262176D01*
X161569566Y-77283787D01*
X161585111Y-77302729D01*
X161604053Y-77318274D01*
X161625664Y-77329825D01*
X161649113Y-77336938D01*
X161673499Y-77339340D01*
X161697885Y-77336938D01*
X161721334Y-77329825D01*
X161742945Y-77318274D01*
X161761887Y-77302729D01*
X161770108Y-77293657D01*
X161833236Y-77216736D01*
X161920943Y-77144756D01*
X161984899Y-77110571D01*
X162021005Y-77091272D01*
X162021008Y-77091271D01*
X162129584Y-77058334D01*
X162242500Y-77047213D01*
X162355415Y-77058334D01*
X162463991Y-77091271D01*
X162463994Y-77091272D01*
X162500100Y-77110571D01*
X162564056Y-77144756D01*
X162651764Y-77216736D01*
X162723744Y-77304443D01*
X162757685Y-77367943D01*
X162767261Y-77385859D01*
X162780875Y-77406234D01*
X162798202Y-77423561D01*
X162818576Y-77437174D01*
X162841215Y-77446552D01*
X162865248Y-77451332D01*
X162889752Y-77451332D01*
X162913785Y-77446552D01*
X162936424Y-77437174D01*
X162956799Y-77423560D01*
X162974126Y-77406233D01*
X162987739Y-77385860D01*
X163031256Y-77304444D01*
X163103236Y-77216736D01*
X163190943Y-77144756D01*
X163254899Y-77110571D01*
X163291005Y-77091272D01*
X163291008Y-77091271D01*
X163399584Y-77058334D01*
X163512500Y-77047213D01*
X163625415Y-77058334D01*
X163625415Y-77058334D01*
G37*
G36*
X208315000Y-76441500D02*
G01*
X206213000Y-76441500D01*
X206213000Y-74434500D01*
X208315000Y-74434500D01*
X208315000Y-76441500D01*
X208315000Y-76441500D01*
G37*
G36*
X198646936Y-74375840D02*
G01*
X198745220Y-74385520D01*
X198934381Y-74442901D01*
X199108712Y-74536083D01*
X199261515Y-74661485D01*
X199386917Y-74814288D01*
X199480099Y-74988619D01*
X199537480Y-75177780D01*
X199556855Y-75374500D01*
X199537480Y-75571220D01*
X199480099Y-75760381D01*
X199386917Y-75934712D01*
X199261515Y-76087515D01*
X199108712Y-76212917D01*
X198934381Y-76306099D01*
X198745220Y-76363480D01*
X198646936Y-76373160D01*
X198597795Y-76378000D01*
X198404205Y-76378000D01*
X198355064Y-76373160D01*
X198256780Y-76363480D01*
X198067619Y-76306099D01*
X197893288Y-76212917D01*
X197740485Y-76087515D01*
X197615083Y-75934712D01*
X197521901Y-75760381D01*
X197464520Y-75571220D01*
X197445145Y-75374500D01*
X197464520Y-75177780D01*
X197521901Y-74988619D01*
X197615083Y-74814288D01*
X197740485Y-74661485D01*
X197893288Y-74536083D01*
X198067619Y-74442901D01*
X198256780Y-74385520D01*
X198355064Y-74375840D01*
X198404205Y-74371000D01*
X198597795Y-74371000D01*
X198646936Y-74375840D01*
X198646936Y-74375840D01*
G37*
G36*
X167688585Y-71186302D02*
G01*
X167838410Y-71216104D01*
X168120674Y-71333021D01*
X168374705Y-71502759D01*
X168590741Y-71718795D01*
X168760479Y-71972826D01*
X168877396Y-72255090D01*
X168937000Y-72554740D01*
X168937000Y-72860260D01*
X168877396Y-73159910D01*
X168760479Y-73442174D01*
X168590741Y-73696205D01*
X168374705Y-73912241D01*
X168120674Y-74081979D01*
X167838410Y-74198896D01*
X167688585Y-74228698D01*
X167538761Y-74258500D01*
X167233239Y-74258500D01*
X167083415Y-74228698D01*
X166933590Y-74198896D01*
X166651326Y-74081979D01*
X166397295Y-73912241D01*
X166181259Y-73696205D01*
X166011521Y-73442174D01*
X165894604Y-73159910D01*
X165835000Y-72860260D01*
X165835000Y-72554740D01*
X165894604Y-72255090D01*
X166011521Y-71972826D01*
X166181259Y-71718795D01*
X166397295Y-71502759D01*
X166651326Y-71333021D01*
X166933590Y-71216104D01*
X167083415Y-71186302D01*
X167233239Y-71156500D01*
X167538761Y-71156500D01*
X167688585Y-71186302D01*
X167688585Y-71186302D01*
G37*
G36*
X151051585Y-71186302D02*
G01*
X151201410Y-71216104D01*
X151483674Y-71333021D01*
X151737705Y-71502759D01*
X151953741Y-71718795D01*
X152123479Y-71972826D01*
X152240396Y-72255090D01*
X152300000Y-72554740D01*
X152300000Y-72860260D01*
X152240396Y-73159910D01*
X152123479Y-73442174D01*
X151953741Y-73696205D01*
X151737705Y-73912241D01*
X151483674Y-74081979D01*
X151201410Y-74198896D01*
X151051585Y-74228698D01*
X150901761Y-74258500D01*
X150596239Y-74258500D01*
X150446415Y-74228698D01*
X150296590Y-74198896D01*
X150014326Y-74081979D01*
X149760295Y-73912241D01*
X149544259Y-73696205D01*
X149374521Y-73442174D01*
X149257604Y-73159910D01*
X149198000Y-72860260D01*
X149198000Y-72554740D01*
X149257604Y-72255090D01*
X149374521Y-71972826D01*
X149544259Y-71718795D01*
X149760295Y-71502759D01*
X150014326Y-71333021D01*
X150296590Y-71216104D01*
X150446415Y-71186302D01*
X150596239Y-71156500D01*
X150901761Y-71156500D01*
X151051585Y-71186302D01*
X151051585Y-71186302D01*
G37*
G36*
X207409936Y-71899340D02*
G01*
X207508220Y-71909020D01*
X207697381Y-71966401D01*
X207871712Y-72059583D01*
X208024515Y-72184985D01*
X208149917Y-72337788D01*
X208243099Y-72512119D01*
X208300480Y-72701280D01*
X208319855Y-72898000D01*
X208300480Y-73094720D01*
X208243099Y-73283881D01*
X208149917Y-73458212D01*
X208024515Y-73611015D01*
X207871712Y-73736417D01*
X207697381Y-73829599D01*
X207508220Y-73886980D01*
X207409936Y-73896660D01*
X207360795Y-73901500D01*
X207167205Y-73901500D01*
X207118064Y-73896660D01*
X207019780Y-73886980D01*
X206830619Y-73829599D01*
X206656288Y-73736417D01*
X206503485Y-73611015D01*
X206378083Y-73458212D01*
X206284901Y-73283881D01*
X206227520Y-73094720D01*
X206208145Y-72898000D01*
X206227520Y-72701280D01*
X206284901Y-72512119D01*
X206378083Y-72337788D01*
X206503485Y-72184985D01*
X206656288Y-72059583D01*
X206830619Y-71966401D01*
X207019780Y-71909020D01*
X207118064Y-71899340D01*
X207167205Y-71894500D01*
X207360795Y-71894500D01*
X207409936Y-71899340D01*
X207409936Y-71899340D01*
G37*
G36*
X198646936Y-71835840D02*
G01*
X198745220Y-71845520D01*
X198934381Y-71902901D01*
X198934383Y-71902902D01*
X198954320Y-71913559D01*
X199108712Y-71996083D01*
X199261515Y-72121485D01*
X199386917Y-72274288D01*
X199480099Y-72448619D01*
X199537480Y-72637780D01*
X199556855Y-72834500D01*
X199537480Y-73031220D01*
X199480099Y-73220381D01*
X199386917Y-73394712D01*
X199261515Y-73547515D01*
X199108712Y-73672917D01*
X198934381Y-73766099D01*
X198745220Y-73823480D01*
X198646936Y-73833160D01*
X198597795Y-73838000D01*
X198404205Y-73838000D01*
X198355064Y-73833160D01*
X198256780Y-73823480D01*
X198067619Y-73766099D01*
X197893288Y-73672917D01*
X197740485Y-73547515D01*
X197615083Y-73394712D01*
X197521901Y-73220381D01*
X197464520Y-73031220D01*
X197445145Y-72834500D01*
X197464520Y-72637780D01*
X197521901Y-72448619D01*
X197615083Y-72274288D01*
X197740485Y-72121485D01*
X197893288Y-71996083D01*
X198047680Y-71913559D01*
X198067617Y-71902902D01*
X198067619Y-71902901D01*
X198256780Y-71845520D01*
X198355064Y-71835840D01*
X198404205Y-71831000D01*
X198597795Y-71831000D01*
X198646936Y-71835840D01*
X198646936Y-71835840D01*
G37*
G36*
X173815487Y-69506496D02*
G01*
X174052253Y-69604568D01*
X174052255Y-69604569D01*
X174112742Y-69644985D01*
X174265339Y-69746947D01*
X174446553Y-69928161D01*
X174588932Y-70141247D01*
X174687004Y-70378013D01*
X174737000Y-70629361D01*
X174737000Y-70885639D01*
X174687004Y-71136987D01*
X174623790Y-71289598D01*
X174588931Y-71373755D01*
X174446553Y-71586839D01*
X174265339Y-71768053D01*
X174052255Y-71910431D01*
X174052254Y-71910432D01*
X174052253Y-71910432D01*
X173815487Y-72008504D01*
X173564139Y-72058500D01*
X173307861Y-72058500D01*
X173056513Y-72008504D01*
X172819747Y-71910432D01*
X172819746Y-71910432D01*
X172819745Y-71910431D01*
X172606661Y-71768053D01*
X172425447Y-71586839D01*
X172283069Y-71373755D01*
X172248210Y-71289598D01*
X172184996Y-71136987D01*
X172135000Y-70885639D01*
X172135000Y-70629361D01*
X172184996Y-70378013D01*
X172283068Y-70141247D01*
X172425447Y-69928161D01*
X172606661Y-69746947D01*
X172759258Y-69644985D01*
X172819745Y-69604569D01*
X172819747Y-69604568D01*
X173056513Y-69506496D01*
X173307861Y-69456500D01*
X173564139Y-69456500D01*
X173815487Y-69506496D01*
X173815487Y-69506496D01*
G37*
G36*
X145178487Y-69506496D02*
G01*
X145415253Y-69604568D01*
X145415255Y-69604569D01*
X145475742Y-69644985D01*
X145628339Y-69746947D01*
X145809553Y-69928161D01*
X145951932Y-70141247D01*
X146050004Y-70378013D01*
X146100000Y-70629361D01*
X146100000Y-70885639D01*
X146050004Y-71136987D01*
X145986790Y-71289598D01*
X145951931Y-71373755D01*
X145809553Y-71586839D01*
X145628339Y-71768053D01*
X145415255Y-71910431D01*
X145415254Y-71910432D01*
X145415253Y-71910432D01*
X145178487Y-72008504D01*
X144927139Y-72058500D01*
X144670861Y-72058500D01*
X144419513Y-72008504D01*
X144182747Y-71910432D01*
X144182746Y-71910432D01*
X144182745Y-71910431D01*
X143969661Y-71768053D01*
X143788447Y-71586839D01*
X143646069Y-71373755D01*
X143611210Y-71289598D01*
X143547996Y-71136987D01*
X143498000Y-70885639D01*
X143498000Y-70629361D01*
X143547996Y-70378013D01*
X143646068Y-70141247D01*
X143788447Y-69928161D01*
X143969661Y-69746947D01*
X144122258Y-69644985D01*
X144182745Y-69604569D01*
X144182747Y-69604568D01*
X144419513Y-69506496D01*
X144670861Y-69456500D01*
X144927139Y-69456500D01*
X145178487Y-69506496D01*
X145178487Y-69506496D01*
G37*
G36*
X157178487Y-69506496D02*
G01*
X157415253Y-69604568D01*
X157415255Y-69604569D01*
X157475742Y-69644985D01*
X157628339Y-69746947D01*
X157809553Y-69928161D01*
X157951932Y-70141247D01*
X158050004Y-70378013D01*
X158100000Y-70629361D01*
X158100000Y-70885639D01*
X158050004Y-71136987D01*
X157986790Y-71289598D01*
X157951931Y-71373755D01*
X157809553Y-71586839D01*
X157628339Y-71768053D01*
X157415255Y-71910431D01*
X157415254Y-71910432D01*
X157415253Y-71910432D01*
X157178487Y-72008504D01*
X156927139Y-72058500D01*
X156670861Y-72058500D01*
X156419513Y-72008504D01*
X156182747Y-71910432D01*
X156182746Y-71910432D01*
X156182745Y-71910431D01*
X155969661Y-71768053D01*
X155788447Y-71586839D01*
X155646069Y-71373755D01*
X155611210Y-71289598D01*
X155547996Y-71136987D01*
X155498000Y-70885639D01*
X155498000Y-70629361D01*
X155547996Y-70378013D01*
X155646068Y-70141247D01*
X155788447Y-69928161D01*
X155969661Y-69746947D01*
X156122258Y-69644985D01*
X156182745Y-69604569D01*
X156182747Y-69604568D01*
X156419513Y-69506496D01*
X156670861Y-69456500D01*
X156927139Y-69456500D01*
X157178487Y-69506496D01*
X157178487Y-69506496D01*
G37*
G36*
X161815487Y-69506496D02*
G01*
X162052253Y-69604568D01*
X162052255Y-69604569D01*
X162112742Y-69644985D01*
X162265339Y-69746947D01*
X162446553Y-69928161D01*
X162588932Y-70141247D01*
X162687004Y-70378013D01*
X162737000Y-70629361D01*
X162737000Y-70885639D01*
X162687004Y-71136987D01*
X162623790Y-71289598D01*
X162588931Y-71373755D01*
X162446553Y-71586839D01*
X162265339Y-71768053D01*
X162052255Y-71910431D01*
X162052254Y-71910432D01*
X162052253Y-71910432D01*
X161815487Y-72008504D01*
X161564139Y-72058500D01*
X161307861Y-72058500D01*
X161056513Y-72008504D01*
X160819747Y-71910432D01*
X160819746Y-71910432D01*
X160819745Y-71910431D01*
X160606661Y-71768053D01*
X160425447Y-71586839D01*
X160283069Y-71373755D01*
X160248210Y-71289598D01*
X160184996Y-71136987D01*
X160135000Y-70885639D01*
X160135000Y-70629361D01*
X160184996Y-70378013D01*
X160283068Y-70141247D01*
X160425447Y-69928161D01*
X160606661Y-69746947D01*
X160759258Y-69644985D01*
X160819745Y-69604569D01*
X160819747Y-69604568D01*
X161056513Y-69506496D01*
X161307861Y-69456500D01*
X161564139Y-69456500D01*
X161815487Y-69506496D01*
X161815487Y-69506496D01*
G37*
G36*
X207409936Y-69359340D02*
G01*
X207508220Y-69369020D01*
X207697381Y-69426401D01*
X207871712Y-69519583D01*
X208024515Y-69644985D01*
X208149917Y-69797788D01*
X208243099Y-69972119D01*
X208300480Y-70161280D01*
X208319855Y-70358000D01*
X208300480Y-70554720D01*
X208243099Y-70743881D01*
X208149917Y-70918212D01*
X208024515Y-71071015D01*
X207871712Y-71196417D01*
X207697381Y-71289599D01*
X207508220Y-71346980D01*
X207409936Y-71356660D01*
X207360795Y-71361500D01*
X207167205Y-71361500D01*
X207118064Y-71356660D01*
X207019780Y-71346980D01*
X206830619Y-71289599D01*
X206656288Y-71196417D01*
X206503485Y-71071015D01*
X206378083Y-70918212D01*
X206284901Y-70743881D01*
X206227520Y-70554720D01*
X206208145Y-70358000D01*
X206227520Y-70161280D01*
X206284901Y-69972119D01*
X206378083Y-69797788D01*
X206503485Y-69644985D01*
X206656288Y-69519583D01*
X206830619Y-69426401D01*
X207019780Y-69369020D01*
X207118064Y-69359340D01*
X207167205Y-69354500D01*
X207360795Y-69354500D01*
X207409936Y-69359340D01*
X207409936Y-69359340D01*
G37*
G36*
X199552000Y-71298000D02*
G01*
X197450000Y-71298000D01*
X197450000Y-69291000D01*
X199552000Y-69291000D01*
X199552000Y-71298000D01*
X199552000Y-71298000D01*
G37*
G36*
X180956000Y-67799000D02*
G01*
X178454000Y-67799000D01*
X178454000Y-65297000D01*
X180956000Y-65297000D01*
X180956000Y-67799000D01*
X180956000Y-67799000D01*
G37*
G36*
X190969903Y-65345075D02*
G01*
X191197571Y-65439378D01*
X191402466Y-65576285D01*
X191576715Y-65750534D01*
X191713622Y-65955429D01*
X191807925Y-66183097D01*
X191856000Y-66424787D01*
X191856000Y-66671213D01*
X191807925Y-66912903D01*
X191713622Y-67140571D01*
X191576715Y-67345466D01*
X191402466Y-67519715D01*
X191197571Y-67656622D01*
X191197570Y-67656623D01*
X191197569Y-67656623D01*
X190969903Y-67750925D01*
X190728214Y-67799000D01*
X190481786Y-67799000D01*
X190240097Y-67750925D01*
X190012431Y-67656623D01*
X190012430Y-67656623D01*
X190012429Y-67656622D01*
X189807534Y-67519715D01*
X189633285Y-67345466D01*
X189496378Y-67140571D01*
X189402075Y-66912903D01*
X189354000Y-66671213D01*
X189354000Y-66424787D01*
X189402075Y-66183097D01*
X189496378Y-65955429D01*
X189633285Y-65750534D01*
X189807534Y-65576285D01*
X190012429Y-65439378D01*
X190240097Y-65345075D01*
X190481786Y-65297000D01*
X190728214Y-65297000D01*
X190969903Y-65345075D01*
X190969903Y-65345075D01*
G37*
G36*
X203772443Y-56565748D02*
G01*
X204327689Y-56795738D01*
X204327690Y-56795739D01*
X204827399Y-57129634D01*
X205252366Y-57554601D01*
X205317598Y-57652228D01*
X205586262Y-58054311D01*
X205816252Y-58609557D01*
X205933500Y-59199001D01*
X205933500Y-59799999D01*
X205816252Y-60389443D01*
X205586262Y-60944689D01*
X205476408Y-61109097D01*
X205252366Y-61444399D01*
X204827399Y-61869366D01*
X204575847Y-62037448D01*
X204327689Y-62203262D01*
X203772443Y-62433252D01*
X203182999Y-62550500D01*
X202582001Y-62550500D01*
X201992557Y-62433252D01*
X201437311Y-62203262D01*
X201189153Y-62037448D01*
X200937601Y-61869366D01*
X200512634Y-61444399D01*
X200288592Y-61109097D01*
X200178738Y-60944689D01*
X199948748Y-60389443D01*
X199831500Y-59799999D01*
X199831500Y-59199001D01*
X199948748Y-58609557D01*
X200178738Y-58054311D01*
X200447402Y-57652228D01*
X200512634Y-57554601D01*
X200937601Y-57129634D01*
X201437310Y-56795739D01*
X201437311Y-56795738D01*
X201992557Y-56565748D01*
X202582001Y-56448500D01*
X203182999Y-56448500D01*
X203772443Y-56565748D01*
X203772443Y-56565748D01*
G37*
G36*
X191047823Y-59867313D02*
G01*
X191208242Y-59915976D01*
X191238181Y-59931979D01*
X191356078Y-59994996D01*
X191485659Y-60101341D01*
X191592004Y-60230922D01*
X191592005Y-60230924D01*
X191671024Y-60378758D01*
X191719687Y-60539177D01*
X191736117Y-60706000D01*
X191719687Y-60872823D01*
X191671024Y-61033242D01*
X191630477Y-61109100D01*
X191592004Y-61181078D01*
X191485659Y-61310659D01*
X191356078Y-61417004D01*
X191356076Y-61417005D01*
X191208242Y-61496024D01*
X191047823Y-61544687D01*
X190922804Y-61557000D01*
X190839196Y-61557000D01*
X190714177Y-61544687D01*
X190553758Y-61496024D01*
X190405924Y-61417005D01*
X190405922Y-61417004D01*
X190276341Y-61310659D01*
X190169996Y-61181078D01*
X190131523Y-61109100D01*
X190090976Y-61033242D01*
X190042313Y-60872823D01*
X190025883Y-60706000D01*
X190042313Y-60539177D01*
X190090976Y-60378758D01*
X190169995Y-60230924D01*
X190169996Y-60230922D01*
X190276341Y-60101341D01*
X190405922Y-59994996D01*
X190523819Y-59931979D01*
X190553758Y-59915976D01*
X190714177Y-59867313D01*
X190839196Y-59855000D01*
X190922804Y-59855000D01*
X191047823Y-59867313D01*
X191047823Y-59867313D01*
G37*
G36*
X180969228Y-59887703D02*
G01*
X181124100Y-59951853D01*
X181263481Y-60044985D01*
X181382015Y-60163519D01*
X181475147Y-60302900D01*
X181539297Y-60457772D01*
X181572000Y-60622184D01*
X181572000Y-60789816D01*
X181539297Y-60954228D01*
X181475147Y-61109100D01*
X181382015Y-61248481D01*
X181263481Y-61367015D01*
X181124100Y-61460147D01*
X180969228Y-61524297D01*
X180804816Y-61557000D01*
X180637184Y-61557000D01*
X180472772Y-61524297D01*
X180317900Y-61460147D01*
X180178519Y-61367015D01*
X180059985Y-61248481D01*
X179966853Y-61109100D01*
X179902703Y-60954228D01*
X179870000Y-60789816D01*
X179870000Y-60622184D01*
X179902703Y-60457772D01*
X179966853Y-60302900D01*
X180059985Y-60163519D01*
X180178519Y-60044985D01*
X180317900Y-59951853D01*
X180472772Y-59887703D01*
X180637184Y-59855000D01*
X180804816Y-59855000D01*
X180969228Y-59887703D01*
X180969228Y-59887703D01*
G37*
G36*
X157000043Y-57016104D02*
G01*
X157251410Y-57066104D01*
X157533674Y-57183021D01*
X157787705Y-57352759D01*
X158003741Y-57568795D01*
X158173479Y-57822826D01*
X158290396Y-58105090D01*
X158317766Y-58242687D01*
X158340055Y-58354740D01*
X158350000Y-58404740D01*
X158350000Y-58710260D01*
X158290396Y-59009910D01*
X158173479Y-59292174D01*
X158003741Y-59546205D01*
X157787705Y-59762241D01*
X157533674Y-59931979D01*
X157251410Y-60048896D01*
X157203127Y-60058500D01*
X156951761Y-60108500D01*
X156646239Y-60108500D01*
X156394873Y-60058500D01*
X156346590Y-60048896D01*
X156064326Y-59931979D01*
X155810295Y-59762241D01*
X155594259Y-59546205D01*
X155424521Y-59292174D01*
X155307604Y-59009910D01*
X155248000Y-58710260D01*
X155248000Y-58404740D01*
X155257946Y-58354740D01*
X155280234Y-58242687D01*
X155307604Y-58105090D01*
X155424521Y-57822826D01*
X155594259Y-57568795D01*
X155810295Y-57352759D01*
X156064326Y-57183021D01*
X156346590Y-57066104D01*
X156597957Y-57016104D01*
X156646239Y-57006500D01*
X156951761Y-57006500D01*
X157000043Y-57016104D01*
X157000043Y-57016104D01*
G37*
G36*
X173637043Y-57016104D02*
G01*
X173888410Y-57066104D01*
X174170674Y-57183021D01*
X174424705Y-57352759D01*
X174640741Y-57568795D01*
X174810479Y-57822826D01*
X174927396Y-58105090D01*
X174954766Y-58242687D01*
X174977055Y-58354740D01*
X174987000Y-58404740D01*
X174987000Y-58710260D01*
X174927396Y-59009910D01*
X174810479Y-59292174D01*
X174640741Y-59546205D01*
X174424705Y-59762241D01*
X174170674Y-59931979D01*
X173888410Y-60048896D01*
X173840127Y-60058500D01*
X173588761Y-60108500D01*
X173283239Y-60108500D01*
X173031873Y-60058500D01*
X172983590Y-60048896D01*
X172701326Y-59931979D01*
X172447295Y-59762241D01*
X172231259Y-59546205D01*
X172061521Y-59292174D01*
X171944604Y-59009910D01*
X171885000Y-58710260D01*
X171885000Y-58404740D01*
X171894946Y-58354740D01*
X171917234Y-58242687D01*
X171944604Y-58105090D01*
X172061521Y-57822826D01*
X172231259Y-57568795D01*
X172447295Y-57352759D01*
X172701326Y-57183021D01*
X172983590Y-57066104D01*
X173234957Y-57016104D01*
X173283239Y-57006500D01*
X173588761Y-57006500D01*
X173637043Y-57016104D01*
X173637043Y-57016104D01*
G37*
G36*
X145051585Y-56986302D02*
G01*
X145201410Y-57016104D01*
X145483674Y-57133021D01*
X145737705Y-57302759D01*
X145953741Y-57518795D01*
X146123479Y-57772826D01*
X146240396Y-58055090D01*
X146252314Y-58115005D01*
X146300000Y-58354739D01*
X146300000Y-58660261D01*
X146290054Y-58710261D01*
X146240396Y-58959910D01*
X146123479Y-59242174D01*
X145953741Y-59496205D01*
X145737705Y-59712241D01*
X145483674Y-59881979D01*
X145201410Y-59998896D01*
X145051585Y-60028698D01*
X144901761Y-60058500D01*
X144596239Y-60058500D01*
X144446415Y-60028698D01*
X144296590Y-59998896D01*
X144014326Y-59881979D01*
X143760295Y-59712241D01*
X143544259Y-59496205D01*
X143374521Y-59242174D01*
X143257604Y-58959910D01*
X143207946Y-58710261D01*
X143198000Y-58660261D01*
X143198000Y-58354739D01*
X143245686Y-58115005D01*
X143257604Y-58055090D01*
X143374521Y-57772826D01*
X143544259Y-57518795D01*
X143760295Y-57302759D01*
X144014326Y-57133021D01*
X144296590Y-57016104D01*
X144446415Y-56986302D01*
X144596239Y-56956500D01*
X144901761Y-56956500D01*
X145051585Y-56986302D01*
X145051585Y-56986302D01*
G37*
G36*
X161688585Y-56986302D02*
G01*
X161838410Y-57016104D01*
X162120674Y-57133021D01*
X162374705Y-57302759D01*
X162590741Y-57518795D01*
X162760479Y-57772826D01*
X162877396Y-58055090D01*
X162889314Y-58115005D01*
X162937000Y-58354739D01*
X162937000Y-58660261D01*
X162927054Y-58710261D01*
X162877396Y-58959910D01*
X162760479Y-59242174D01*
X162590741Y-59496205D01*
X162374705Y-59712241D01*
X162120674Y-59881979D01*
X161838410Y-59998896D01*
X161688585Y-60028698D01*
X161538761Y-60058500D01*
X161233239Y-60058500D01*
X161083415Y-60028698D01*
X160933590Y-59998896D01*
X160651326Y-59881979D01*
X160397295Y-59712241D01*
X160181259Y-59496205D01*
X160011521Y-59242174D01*
X159894604Y-58959910D01*
X159844946Y-58710261D01*
X159835000Y-58660261D01*
X159835000Y-58354739D01*
X159882686Y-58115005D01*
X159894604Y-58055090D01*
X160011521Y-57772826D01*
X160181259Y-57518795D01*
X160397295Y-57302759D01*
X160651326Y-57133021D01*
X160933590Y-57016104D01*
X161083415Y-56986302D01*
X161233239Y-56956500D01*
X161538761Y-56956500D01*
X161688585Y-56986302D01*
X161688585Y-56986302D01*
G37*
G36*
X180969228Y-56585703D02*
G01*
X181124100Y-56649853D01*
X181263481Y-56742985D01*
X181382015Y-56861519D01*
X181475147Y-57000900D01*
X181539297Y-57155772D01*
X181572000Y-57320184D01*
X181572000Y-57487816D01*
X181539297Y-57652228D01*
X181475147Y-57807100D01*
X181382015Y-57946481D01*
X181263481Y-58065015D01*
X181124100Y-58158147D01*
X180969228Y-58222297D01*
X180804816Y-58255000D01*
X180637184Y-58255000D01*
X180472772Y-58222297D01*
X180317900Y-58158147D01*
X180178519Y-58065015D01*
X180059985Y-57946481D01*
X179966853Y-57807100D01*
X179902703Y-57652228D01*
X179870000Y-57487816D01*
X179870000Y-57320184D01*
X179902703Y-57155772D01*
X179966853Y-57000900D01*
X180059985Y-56861519D01*
X180178519Y-56742985D01*
X180317900Y-56649853D01*
X180472772Y-56585703D01*
X180637184Y-56553000D01*
X180804816Y-56553000D01*
X180969228Y-56585703D01*
X180969228Y-56585703D01*
G37*
G36*
X191047823Y-56565313D02*
G01*
X191208242Y-56613976D01*
X191275361Y-56649852D01*
X191356078Y-56692996D01*
X191485659Y-56799341D01*
X191592004Y-56928922D01*
X191592005Y-56928924D01*
X191671024Y-57076758D01*
X191719687Y-57237177D01*
X191736117Y-57404000D01*
X191719687Y-57570823D01*
X191671024Y-57731242D01*
X191630477Y-57807100D01*
X191592004Y-57879078D01*
X191485659Y-58008659D01*
X191356078Y-58115004D01*
X191356076Y-58115005D01*
X191208242Y-58194024D01*
X191047823Y-58242687D01*
X190922804Y-58255000D01*
X190839196Y-58255000D01*
X190714177Y-58242687D01*
X190553758Y-58194024D01*
X190405924Y-58115005D01*
X190405922Y-58115004D01*
X190276341Y-58008659D01*
X190169996Y-57879078D01*
X190131523Y-57807100D01*
X190090976Y-57731242D01*
X190042313Y-57570823D01*
X190025883Y-57404000D01*
X190042313Y-57237177D01*
X190090976Y-57076758D01*
X190169995Y-56928924D01*
X190169996Y-56928922D01*
X190276341Y-56799341D01*
X190405922Y-56692996D01*
X190486639Y-56649852D01*
X190553758Y-56613976D01*
X190714177Y-56565313D01*
X190839196Y-56553000D01*
X190922804Y-56553000D01*
X191047823Y-56565313D01*
X191047823Y-56565313D01*
G37*
G36*
X213445380Y-46972276D02*
G01*
X213826093Y-47048004D01*
X214235749Y-47217689D01*
X214604429Y-47464034D01*
X214917966Y-47777571D01*
X215164311Y-48146251D01*
X215333996Y-48555907D01*
X215420500Y-48990796D01*
X215420500Y-49434204D01*
X215333996Y-49869093D01*
X215164311Y-50278749D01*
X214917966Y-50647429D01*
X214604429Y-50960966D01*
X214235749Y-51207311D01*
X213826093Y-51376996D01*
X213445380Y-51452724D01*
X213391205Y-51463500D01*
X212947795Y-51463500D01*
X212893620Y-51452724D01*
X212512907Y-51376996D01*
X212103251Y-51207311D01*
X211734571Y-50960966D01*
X211421034Y-50647429D01*
X211174689Y-50278749D01*
X211005004Y-49869093D01*
X210918500Y-49434204D01*
X210918500Y-48990796D01*
X211005004Y-48555907D01*
X211174689Y-48146251D01*
X211421034Y-47777571D01*
X211734571Y-47464034D01*
X212103251Y-47217689D01*
X212512907Y-47048004D01*
X212893620Y-46972276D01*
X212947795Y-46961500D01*
X213391205Y-46961500D01*
X213445380Y-46972276D01*
X213445380Y-46972276D01*
G37*
G36*
X140928380Y-46337276D02*
G01*
X141309093Y-46413004D01*
X141718749Y-46582689D01*
X142087429Y-46829034D01*
X142400966Y-47142571D01*
X142647311Y-47511251D01*
X142816996Y-47920907D01*
X142903500Y-48355796D01*
X142903500Y-48799204D01*
X142816996Y-49234093D01*
X142647311Y-49643749D01*
X142400966Y-50012429D01*
X142087429Y-50325966D01*
X141718749Y-50572311D01*
X141309093Y-50741996D01*
X140928380Y-50817724D01*
X140874205Y-50828500D01*
X140430795Y-50828500D01*
X140376620Y-50817724D01*
X139995907Y-50741996D01*
X139586251Y-50572311D01*
X139217571Y-50325966D01*
X138904034Y-50012429D01*
X138657689Y-49643749D01*
X138488004Y-49234093D01*
X138401500Y-48799204D01*
X138401500Y-48355796D01*
X138488004Y-47920907D01*
X138657689Y-47511251D01*
X138904034Y-47142571D01*
X139217571Y-46829034D01*
X139586251Y-46582689D01*
X139995907Y-46413004D01*
X140376620Y-46337276D01*
X140430795Y-46326500D01*
X140874205Y-46326500D01*
X140928380Y-46337276D01*
X140928380Y-46337276D01*
G37*
G36*
X165806532Y-47749707D02*
G01*
X165932020Y-47787774D01*
X166004649Y-47809806D01*
X166082230Y-47851274D01*
X166187229Y-47907397D01*
X166347265Y-48038735D01*
X166478603Y-48198771D01*
X166509791Y-48257121D01*
X166576194Y-48381351D01*
X166576195Y-48381355D01*
X166636293Y-48579469D01*
X166651500Y-48733871D01*
X166651500Y-49437130D01*
X166636293Y-49591532D01*
X166595458Y-49726145D01*
X166576194Y-49789649D01*
X166533731Y-49869091D01*
X166478603Y-49972229D01*
X166347265Y-50132265D01*
X166187229Y-50263603D01*
X166082229Y-50319726D01*
X166004648Y-50361194D01*
X166004645Y-50361195D01*
X165806531Y-50421293D01*
X165600500Y-50441585D01*
X165394468Y-50421293D01*
X165196354Y-50361195D01*
X165196351Y-50361194D01*
X165074461Y-50296042D01*
X165013771Y-50263603D01*
X164853735Y-50132265D01*
X164722397Y-49972229D01*
X164624807Y-49789649D01*
X164624806Y-49789648D01*
X164624805Y-49789645D01*
X164564707Y-49591531D01*
X164549500Y-49437129D01*
X164549500Y-48733870D01*
X164564707Y-48579468D01*
X164583970Y-48515968D01*
X164624805Y-48381353D01*
X164699684Y-48241266D01*
X164722398Y-48198771D01*
X164853736Y-48038735D01*
X165013772Y-47907397D01*
X165118771Y-47851274D01*
X165196352Y-47809806D01*
X165268981Y-47787774D01*
X165394469Y-47749707D01*
X165600500Y-47729415D01*
X165806532Y-47749707D01*
X165806532Y-47749707D01*
G37*
G36*
X203208032Y-47749707D02*
G01*
X203333520Y-47787774D01*
X203406149Y-47809806D01*
X203483730Y-47851274D01*
X203588729Y-47907397D01*
X203748765Y-48038735D01*
X203880103Y-48198771D01*
X203911291Y-48257121D01*
X203977694Y-48381351D01*
X203977695Y-48381355D01*
X204037793Y-48579469D01*
X204053000Y-48733871D01*
X204053000Y-49437130D01*
X204037793Y-49591532D01*
X203996958Y-49726145D01*
X203977694Y-49789649D01*
X203935231Y-49869091D01*
X203880103Y-49972229D01*
X203748765Y-50132265D01*
X203588729Y-50263603D01*
X203483729Y-50319726D01*
X203406148Y-50361194D01*
X203406145Y-50361195D01*
X203208031Y-50421293D01*
X203002000Y-50441585D01*
X202795968Y-50421293D01*
X202597854Y-50361195D01*
X202597851Y-50361194D01*
X202475961Y-50296042D01*
X202415271Y-50263603D01*
X202255235Y-50132265D01*
X202123897Y-49972229D01*
X202026307Y-49789649D01*
X202026306Y-49789648D01*
X202026305Y-49789645D01*
X201966207Y-49591531D01*
X201951000Y-49437129D01*
X201951000Y-48733870D01*
X201966207Y-48579468D01*
X201985470Y-48515968D01*
X202026305Y-48381353D01*
X202101184Y-48241266D01*
X202123898Y-48198771D01*
X202255236Y-48038735D01*
X202415272Y-47907397D01*
X202520271Y-47851274D01*
X202597852Y-47809806D01*
X202670481Y-47787774D01*
X202795969Y-47749707D01*
X203002000Y-47729415D01*
X203208032Y-47749707D01*
X203208032Y-47749707D01*
G37*
G36*
X191143032Y-47749707D02*
G01*
X191268520Y-47787774D01*
X191341149Y-47809806D01*
X191418730Y-47851274D01*
X191523729Y-47907397D01*
X191683765Y-48038735D01*
X191815103Y-48198771D01*
X191846291Y-48257121D01*
X191912694Y-48381351D01*
X191912695Y-48381355D01*
X191972793Y-48579469D01*
X191988000Y-48733871D01*
X191988000Y-49437130D01*
X191972793Y-49591532D01*
X191931958Y-49726145D01*
X191912694Y-49789649D01*
X191870231Y-49869091D01*
X191815103Y-49972229D01*
X191683765Y-50132265D01*
X191523729Y-50263603D01*
X191418729Y-50319726D01*
X191341148Y-50361194D01*
X191341145Y-50361195D01*
X191143031Y-50421293D01*
X190937000Y-50441585D01*
X190730968Y-50421293D01*
X190532854Y-50361195D01*
X190532851Y-50361194D01*
X190410961Y-50296042D01*
X190350271Y-50263603D01*
X190190235Y-50132265D01*
X190058897Y-49972229D01*
X189961307Y-49789649D01*
X189961306Y-49789648D01*
X189961305Y-49789645D01*
X189901207Y-49591531D01*
X189886000Y-49437129D01*
X189886000Y-48733870D01*
X189901207Y-48579468D01*
X189920470Y-48515968D01*
X189961305Y-48381353D01*
X190036184Y-48241266D01*
X190058898Y-48198771D01*
X190190236Y-48038735D01*
X190350272Y-47907397D01*
X190455271Y-47851274D01*
X190532852Y-47809806D01*
X190605481Y-47787774D01*
X190730969Y-47749707D01*
X190937000Y-47729415D01*
X191143032Y-47749707D01*
X191143032Y-47749707D01*
G37*
G36*
X179776532Y-47749707D02*
G01*
X179902020Y-47787774D01*
X179974649Y-47809806D01*
X180052230Y-47851274D01*
X180157229Y-47907397D01*
X180317265Y-48038735D01*
X180448603Y-48198771D01*
X180479791Y-48257121D01*
X180546194Y-48381351D01*
X180546195Y-48381355D01*
X180606293Y-48579469D01*
X180621500Y-48733871D01*
X180621500Y-49437130D01*
X180606293Y-49591532D01*
X180565458Y-49726145D01*
X180546194Y-49789649D01*
X180503731Y-49869091D01*
X180448603Y-49972229D01*
X180317265Y-50132265D01*
X180157229Y-50263603D01*
X180052229Y-50319726D01*
X179974648Y-50361194D01*
X179974645Y-50361195D01*
X179776531Y-50421293D01*
X179570500Y-50441585D01*
X179364468Y-50421293D01*
X179166354Y-50361195D01*
X179166351Y-50361194D01*
X179044461Y-50296042D01*
X178983771Y-50263603D01*
X178823735Y-50132265D01*
X178692397Y-49972229D01*
X178594807Y-49789649D01*
X178594806Y-49789648D01*
X178594805Y-49789645D01*
X178534707Y-49591531D01*
X178519500Y-49437129D01*
X178519500Y-48733870D01*
X178534707Y-48579468D01*
X178553970Y-48515968D01*
X178594805Y-48381353D01*
X178669684Y-48241266D01*
X178692398Y-48198771D01*
X178823736Y-48038735D01*
X178983772Y-47907397D01*
X179088771Y-47851274D01*
X179166352Y-47809806D01*
X179238981Y-47787774D01*
X179364469Y-47749707D01*
X179570500Y-47729415D01*
X179776532Y-47749707D01*
X179776532Y-47749707D01*
G37*
G36*
X170015352Y-47738340D02*
G01*
X170046943Y-47747923D01*
X170076057Y-47763485D01*
X170101574Y-47784426D01*
X170122515Y-47809943D01*
X170138077Y-47839057D01*
X170147660Y-47870648D01*
X170151500Y-47909640D01*
X170151500Y-50261356D01*
X170147660Y-50300352D01*
X170138077Y-50331943D01*
X170122515Y-50361057D01*
X170101574Y-50386574D01*
X170076057Y-50407515D01*
X170046943Y-50423077D01*
X170015352Y-50432660D01*
X169976360Y-50436500D01*
X168224640Y-50436500D01*
X168185648Y-50432660D01*
X168154057Y-50423077D01*
X168124943Y-50407515D01*
X168099426Y-50386574D01*
X168078485Y-50361057D01*
X168062923Y-50331943D01*
X168053340Y-50300352D01*
X168049500Y-50261356D01*
X168049500Y-47909640D01*
X168053340Y-47870648D01*
X168062923Y-47839057D01*
X168078485Y-47809943D01*
X168099426Y-47784426D01*
X168124943Y-47763485D01*
X168154057Y-47747923D01*
X168185648Y-47738340D01*
X168224640Y-47734500D01*
X169976360Y-47734500D01*
X170015352Y-47738340D01*
X170015352Y-47738340D01*
G37*
G36*
X207416852Y-47738340D02*
G01*
X207448443Y-47747923D01*
X207477557Y-47763485D01*
X207503074Y-47784426D01*
X207524015Y-47809943D01*
X207539577Y-47839057D01*
X207549160Y-47870648D01*
X207553000Y-47909640D01*
X207553000Y-50261356D01*
X207549160Y-50300352D01*
X207539577Y-50331943D01*
X207524015Y-50361057D01*
X207503074Y-50386574D01*
X207477557Y-50407515D01*
X207448443Y-50423077D01*
X207416852Y-50432660D01*
X207377860Y-50436500D01*
X205626140Y-50436500D01*
X205587148Y-50432660D01*
X205555557Y-50423077D01*
X205526443Y-50407515D01*
X205500926Y-50386574D01*
X205479985Y-50361057D01*
X205464423Y-50331943D01*
X205454840Y-50300352D01*
X205451000Y-50261356D01*
X205451000Y-47909640D01*
X205454840Y-47870648D01*
X205464423Y-47839057D01*
X205479985Y-47809943D01*
X205500926Y-47784426D01*
X205526443Y-47763485D01*
X205555557Y-47747923D01*
X205587148Y-47738340D01*
X205626140Y-47734500D01*
X207377860Y-47734500D01*
X207416852Y-47738340D01*
X207416852Y-47738340D01*
G37*
G36*
X195351852Y-47738340D02*
G01*
X195383443Y-47747923D01*
X195412557Y-47763485D01*
X195438074Y-47784426D01*
X195459015Y-47809943D01*
X195474577Y-47839057D01*
X195484160Y-47870648D01*
X195488000Y-47909640D01*
X195488000Y-50261356D01*
X195484160Y-50300352D01*
X195474577Y-50331943D01*
X195459015Y-50361057D01*
X195438074Y-50386574D01*
X195412557Y-50407515D01*
X195383443Y-50423077D01*
X195351852Y-50432660D01*
X195312860Y-50436500D01*
X193561140Y-50436500D01*
X193522148Y-50432660D01*
X193490557Y-50423077D01*
X193461443Y-50407515D01*
X193435926Y-50386574D01*
X193414985Y-50361057D01*
X193399423Y-50331943D01*
X193389840Y-50300352D01*
X193386000Y-50261356D01*
X193386000Y-47909640D01*
X193389840Y-47870648D01*
X193399423Y-47839057D01*
X193414985Y-47809943D01*
X193435926Y-47784426D01*
X193461443Y-47763485D01*
X193490557Y-47747923D01*
X193522148Y-47738340D01*
X193561140Y-47734500D01*
X195312860Y-47734500D01*
X195351852Y-47738340D01*
X195351852Y-47738340D01*
G37*
G36*
X183985352Y-47738340D02*
G01*
X184016943Y-47747923D01*
X184046057Y-47763485D01*
X184071574Y-47784426D01*
X184092515Y-47809943D01*
X184108077Y-47839057D01*
X184117660Y-47870648D01*
X184121500Y-47909640D01*
X184121500Y-50261356D01*
X184117660Y-50300352D01*
X184108077Y-50331943D01*
X184092515Y-50361057D01*
X184071574Y-50386574D01*
X184046057Y-50407515D01*
X184016943Y-50423077D01*
X183985352Y-50432660D01*
X183946360Y-50436500D01*
X182194640Y-50436500D01*
X182155648Y-50432660D01*
X182124057Y-50423077D01*
X182094943Y-50407515D01*
X182069426Y-50386574D01*
X182048485Y-50361057D01*
X182032923Y-50331943D01*
X182023340Y-50300352D01*
X182019500Y-50261356D01*
X182019500Y-47909640D01*
X182023340Y-47870648D01*
X182032923Y-47839057D01*
X182048485Y-47809943D01*
X182069426Y-47784426D01*
X182094943Y-47763485D01*
X182124057Y-47747923D01*
X182155648Y-47738340D01*
X182194640Y-47734500D01*
X183946360Y-47734500D01*
X183985352Y-47738340D01*
X183985352Y-47738340D01*
G37*
G36*
X149360032Y-47686207D02*
G01*
X149558146Y-47746305D01*
X149558149Y-47746306D01*
X149590288Y-47763485D01*
X149740729Y-47843897D01*
X149900765Y-47975235D01*
X150032103Y-48135271D01*
X150037973Y-48146254D01*
X150129694Y-48317851D01*
X150129695Y-48317855D01*
X150189793Y-48515969D01*
X150205000Y-48670371D01*
X150205000Y-49373630D01*
X150189793Y-49528032D01*
X150170530Y-49591532D01*
X150129694Y-49726149D01*
X150095754Y-49789646D01*
X150032103Y-49908729D01*
X149900765Y-50068765D01*
X149740729Y-50200103D01*
X149635729Y-50256226D01*
X149558148Y-50297694D01*
X149558145Y-50297695D01*
X149360031Y-50357793D01*
X149154000Y-50378085D01*
X148947968Y-50357793D01*
X148749854Y-50297695D01*
X148749851Y-50297694D01*
X148613869Y-50225010D01*
X148567271Y-50200103D01*
X148407235Y-50068765D01*
X148275897Y-49908729D01*
X148178307Y-49726149D01*
X148178306Y-49726148D01*
X148153310Y-49643749D01*
X148118207Y-49528031D01*
X148103000Y-49373629D01*
X148103000Y-48670370D01*
X148118207Y-48515968D01*
X148137296Y-48453040D01*
X148178305Y-48317853D01*
X148270029Y-48146251D01*
X148275898Y-48135271D01*
X148407236Y-47975235D01*
X148567272Y-47843897D01*
X148717713Y-47763485D01*
X148749852Y-47746306D01*
X148749855Y-47746305D01*
X148947969Y-47686207D01*
X149154000Y-47665915D01*
X149360032Y-47686207D01*
X149360032Y-47686207D01*
G37*
G36*
X153568852Y-47674840D02*
G01*
X153600443Y-47684423D01*
X153629557Y-47699985D01*
X153655074Y-47720926D01*
X153676015Y-47746443D01*
X153691577Y-47775557D01*
X153701160Y-47807148D01*
X153705000Y-47846140D01*
X153705000Y-50197860D01*
X153701160Y-50236852D01*
X153691577Y-50268443D01*
X153676015Y-50297557D01*
X153655074Y-50323074D01*
X153629557Y-50344015D01*
X153600443Y-50359577D01*
X153568852Y-50369160D01*
X153529860Y-50373000D01*
X151778140Y-50373000D01*
X151739148Y-50369160D01*
X151707557Y-50359577D01*
X151678443Y-50344015D01*
X151652926Y-50323074D01*
X151631985Y-50297557D01*
X151616423Y-50268443D01*
X151606840Y-50236852D01*
X151603000Y-50197860D01*
X151603000Y-47846140D01*
X151606840Y-47807148D01*
X151616423Y-47775557D01*
X151631985Y-47746443D01*
X151652926Y-47720926D01*
X151678443Y-47699985D01*
X151707557Y-47684423D01*
X151739148Y-47674840D01*
X151778140Y-47671000D01*
X153529860Y-47671000D01*
X153568852Y-47674840D01*
X153568852Y-47674840D01*
G37*
M02*
