%FSLAX45Y45*%
G04 Gerber Fmt 4.5, Leading zero omitted, Abs format (unit mm)*
G04 Created by KiCad (PCBNEW (5.1.2)-1) date 2019-07-04 14:52:44*
%MOMM*%
%LPD*%
G04 APERTURE LIST*
%ADD10C,0.050000*%
%ADD11C,0.200000*%
%ADD12C,0.300000*%
G04 APERTURE END LIST*
D10*
X15227300Y-6578600D02*
X15227300Y-9563100D01*
X9131300Y-9563100D02*
X9131300Y-6578600D01*
X11099800Y-9563100D02*
X9131300Y-9563100D01*
X11353800Y-9817100D02*
X11099800Y-9563100D01*
X13830300Y-9817100D02*
X11353800Y-9817100D01*
X14084300Y-9563100D02*
X13830300Y-9817100D01*
X15227300Y-9563100D02*
X14084300Y-9563100D01*
X9131300Y-6578600D02*
X15227300Y-6578600D01*
D11*
X10867390Y-6993890D02*
X10900410Y-7026910D01*
X10900410Y-6993890D02*
X10867390Y-7026910D01*
X11007090Y-7051040D02*
X11040110Y-7084060D01*
X11040110Y-7051040D02*
X11007090Y-7084060D01*
X11413490Y-7076440D02*
X11446510Y-7109460D01*
X11446510Y-7076440D02*
X11413490Y-7109460D01*
X11553190Y-7895590D02*
X11586210Y-7928610D01*
X11586210Y-7895590D02*
X11553190Y-7928610D01*
X11699240Y-7889240D02*
X11732260Y-7922260D01*
X11732260Y-7889240D02*
X11699240Y-7922260D01*
X11756390Y-9108440D02*
X11789410Y-9141460D01*
X11789410Y-9108440D02*
X11756390Y-9141460D01*
X11959590Y-9229091D02*
X11992610Y-9262111D01*
X11992610Y-9229091D02*
X11959590Y-9262111D01*
X12073890Y-8746490D02*
X12106910Y-8779510D01*
X12106910Y-8746490D02*
X12073890Y-8779510D01*
X12086590Y-7927340D02*
X12119610Y-7960360D01*
X12119610Y-7927340D02*
X12086590Y-7960360D01*
X12467590Y-8702040D02*
X12500610Y-8735060D01*
X12500610Y-8702040D02*
X12467590Y-8735060D01*
X12829540Y-8695690D02*
X12862560Y-8728710D01*
X12862560Y-8695690D02*
X12829540Y-8728710D01*
X11511950Y-8737600D02*
G75*
G03X11511950Y-8737600I-37500J0D01*
G01*
X11638950Y-8737600D02*
G75*
G03X11638950Y-8737600I-37500J0D01*
G01*
X11765950Y-8737600D02*
G75*
G03X11765950Y-8737600I-37500J0D01*
G01*
X12496800Y-7980050D02*
X12496800Y-8060050D01*
X12456800Y-8020050D02*
X12536800Y-8020050D01*
X12496800Y-8234050D02*
X12496800Y-8314050D01*
X12456800Y-8274050D02*
X12536800Y-8274050D01*
X13258800Y-7980050D02*
X13258800Y-8060050D01*
X13218800Y-8020050D02*
X13298800Y-8020050D01*
X13258800Y-8234050D02*
X13258800Y-8314050D01*
X13218800Y-8274050D02*
X13298800Y-8274050D01*
X14938806Y-7731556D02*
X14938806Y-7660844D01*
X14868094Y-7660844D01*
X14868094Y-7731556D01*
X14938806Y-7731556D01*
X14938806Y-8231556D02*
X14938806Y-8160844D01*
X14868094Y-8160844D01*
X14868094Y-8231556D01*
X14938806Y-8231556D01*
X14938806Y-8731556D02*
X14938806Y-8660844D01*
X14868094Y-8660844D01*
X14868094Y-8731556D01*
X14938806Y-8731556D01*
X14938806Y-9231556D02*
X14938806Y-9160844D01*
X14868094Y-9160844D01*
X14868094Y-9231556D01*
X14938806Y-9231556D01*
X9634706Y-8063656D02*
X9634706Y-7992944D01*
X9563994Y-7992944D01*
X9563994Y-8063656D01*
X9634706Y-8063656D01*
X9634706Y-9263656D02*
X9634706Y-9192944D01*
X9563994Y-9192944D01*
X9563994Y-9263656D01*
X9634706Y-9263656D01*
X11995150Y-7259550D02*
X12060150Y-7194550D01*
X11995150Y-7129550D01*
X11930150Y-7194550D01*
X11995150Y-7259550D01*
X12495150Y-7259550D02*
X12560150Y-7194550D01*
X12495150Y-7129550D01*
X12430150Y-7194550D01*
X12495150Y-7259550D01*
X9404350Y-8688300D02*
X9469350Y-8623300D01*
X9404350Y-8558300D01*
X9339350Y-8623300D01*
X9404350Y-8688300D01*
X10819350Y-9293300D02*
X10884350Y-9228300D01*
X10819350Y-9163300D01*
X10754350Y-9228300D01*
X10819350Y-9293300D01*
X10824350Y-8088300D02*
X10889350Y-8023300D01*
X10824350Y-7958300D01*
X10759350Y-8023300D01*
X10824350Y-8088300D01*
X9553700Y-7170650D02*
X9618700Y-7105650D01*
X9553700Y-7040650D01*
X9488700Y-7105650D01*
X9553700Y-7170650D01*
X10053700Y-7170650D02*
X10118700Y-7105650D01*
X10053700Y-7040650D01*
X9988700Y-7105650D01*
X10053700Y-7170650D01*
X10553700Y-7170650D02*
X10618700Y-7105650D01*
X10553700Y-7040650D01*
X10488700Y-7105650D01*
X10553700Y-7170650D01*
X13783350Y-7166650D02*
X13915350Y-7298650D01*
X13915350Y-7166650D02*
X13783350Y-7298650D01*
X13915350Y-7232650D02*
G75*
G03X13915350Y-7232650I-66000J0D01*
G01*
X14283350Y-7166650D02*
X14415350Y-7298650D01*
X14415350Y-7166650D02*
X14283350Y-7298650D01*
X14415350Y-7232650D02*
G75*
G03X14415350Y-7232650I-66000J0D01*
G01*
D12*
X9415228Y-10285314D02*
X9415228Y-9985314D01*
X9486657Y-9985314D01*
X9529514Y-9999600D01*
X9558086Y-10028172D01*
X9572371Y-10056743D01*
X9586657Y-10113886D01*
X9586657Y-10156743D01*
X9572371Y-10213886D01*
X9558086Y-10242457D01*
X9529514Y-10271029D01*
X9486657Y-10285314D01*
X9415228Y-10285314D01*
X9715228Y-10285314D02*
X9715228Y-10085314D01*
X9715228Y-10142457D02*
X9729514Y-10113886D01*
X9743800Y-10099600D01*
X9772371Y-10085314D01*
X9800943Y-10085314D01*
X9900943Y-10285314D02*
X9900943Y-10085314D01*
X9900943Y-9985314D02*
X9886657Y-9999600D01*
X9900943Y-10013886D01*
X9915228Y-9999600D01*
X9900943Y-9985314D01*
X9900943Y-10013886D01*
X10086657Y-10285314D02*
X10058086Y-10271029D01*
X10043800Y-10242457D01*
X10043800Y-9985314D01*
X10243800Y-10285314D02*
X10215228Y-10271029D01*
X10200943Y-10242457D01*
X10200943Y-9985314D01*
X10586657Y-10285314D02*
X10586657Y-9985314D01*
X10686657Y-10199600D01*
X10786657Y-9985314D01*
X10786657Y-10285314D01*
X11058086Y-10285314D02*
X11058086Y-10128172D01*
X11043800Y-10099600D01*
X11015228Y-10085314D01*
X10958086Y-10085314D01*
X10929514Y-10099600D01*
X11058086Y-10271029D02*
X11029514Y-10285314D01*
X10958086Y-10285314D01*
X10929514Y-10271029D01*
X10915228Y-10242457D01*
X10915228Y-10213886D01*
X10929514Y-10185314D01*
X10958086Y-10171029D01*
X11029514Y-10171029D01*
X11058086Y-10156743D01*
X11200943Y-10085314D02*
X11200943Y-10385314D01*
X11200943Y-10099600D02*
X11229514Y-10085314D01*
X11286657Y-10085314D01*
X11315228Y-10099600D01*
X11329514Y-10113886D01*
X11343800Y-10142457D01*
X11343800Y-10228172D01*
X11329514Y-10256743D01*
X11315228Y-10271029D01*
X11286657Y-10285314D01*
X11229514Y-10285314D01*
X11200943Y-10271029D01*
X11472371Y-10256743D02*
X11486657Y-10271029D01*
X11472371Y-10285314D01*
X11458086Y-10271029D01*
X11472371Y-10256743D01*
X11472371Y-10285314D01*
X11472371Y-10099600D02*
X11486657Y-10113886D01*
X11472371Y-10128172D01*
X11458086Y-10113886D01*
X11472371Y-10099600D01*
X11472371Y-10128172D01*
X9095780Y-10763090D02*
X9128800Y-10796110D01*
X9128800Y-10763090D02*
X9095780Y-10796110D01*
X9472371Y-10615314D02*
X9500943Y-10615314D01*
X9529514Y-10629600D01*
X9543800Y-10643886D01*
X9558086Y-10672457D01*
X9572371Y-10729600D01*
X9572371Y-10801029D01*
X9558086Y-10858172D01*
X9543800Y-10886743D01*
X9529514Y-10901029D01*
X9500943Y-10915314D01*
X9472371Y-10915314D01*
X9443800Y-10901029D01*
X9429514Y-10886743D01*
X9415228Y-10858172D01*
X9400943Y-10801029D01*
X9400943Y-10729600D01*
X9415228Y-10672457D01*
X9429514Y-10643886D01*
X9443800Y-10629600D01*
X9472371Y-10615314D01*
X9700943Y-10886743D02*
X9715228Y-10901029D01*
X9700943Y-10915314D01*
X9686657Y-10901029D01*
X9700943Y-10886743D01*
X9700943Y-10915314D01*
X9815228Y-10615314D02*
X10000943Y-10615314D01*
X9900943Y-10729600D01*
X9943800Y-10729600D01*
X9972371Y-10743886D01*
X9986657Y-10758172D01*
X10000943Y-10786743D01*
X10000943Y-10858172D01*
X9986657Y-10886743D01*
X9972371Y-10901029D01*
X9943800Y-10915314D01*
X9858086Y-10915314D01*
X9829514Y-10901029D01*
X9815228Y-10886743D01*
X10100943Y-10615314D02*
X10286657Y-10615314D01*
X10186657Y-10729600D01*
X10229514Y-10729600D01*
X10258086Y-10743886D01*
X10272371Y-10758172D01*
X10286657Y-10786743D01*
X10286657Y-10858172D01*
X10272371Y-10886743D01*
X10258086Y-10901029D01*
X10229514Y-10915314D01*
X10143800Y-10915314D01*
X10115228Y-10901029D01*
X10100943Y-10886743D01*
X10415228Y-10915314D02*
X10415228Y-10715314D01*
X10415228Y-10743886D02*
X10429514Y-10729600D01*
X10458086Y-10715314D01*
X10500943Y-10715314D01*
X10529514Y-10729600D01*
X10543800Y-10758172D01*
X10543800Y-10915314D01*
X10543800Y-10758172D02*
X10558086Y-10729600D01*
X10586657Y-10715314D01*
X10629514Y-10715314D01*
X10658086Y-10729600D01*
X10672371Y-10758172D01*
X10672371Y-10915314D01*
X10815228Y-10915314D02*
X10815228Y-10715314D01*
X10815228Y-10743886D02*
X10829514Y-10729600D01*
X10858086Y-10715314D01*
X10900943Y-10715314D01*
X10929514Y-10729600D01*
X10943800Y-10758172D01*
X10943800Y-10915314D01*
X10943800Y-10758172D02*
X10958086Y-10729600D01*
X10986657Y-10715314D01*
X11029514Y-10715314D01*
X11058086Y-10729600D01*
X11072371Y-10758172D01*
X11072371Y-10915314D01*
X11658086Y-10601029D02*
X11400943Y-10986743D01*
X12043800Y-10615314D02*
X12072371Y-10615314D01*
X12100943Y-10629600D01*
X12115228Y-10643886D01*
X12129514Y-10672457D01*
X12143800Y-10729600D01*
X12143800Y-10801029D01*
X12129514Y-10858172D01*
X12115228Y-10886743D01*
X12100943Y-10901029D01*
X12072371Y-10915314D01*
X12043800Y-10915314D01*
X12015228Y-10901029D01*
X12000943Y-10886743D01*
X11986657Y-10858172D01*
X11972371Y-10801029D01*
X11972371Y-10729600D01*
X11986657Y-10672457D01*
X12000943Y-10643886D01*
X12015228Y-10629600D01*
X12043800Y-10615314D01*
X12272371Y-10886743D02*
X12286657Y-10901029D01*
X12272371Y-10915314D01*
X12258086Y-10901029D01*
X12272371Y-10886743D01*
X12272371Y-10915314D01*
X12472371Y-10615314D02*
X12500943Y-10615314D01*
X12529514Y-10629600D01*
X12543800Y-10643886D01*
X12558086Y-10672457D01*
X12572371Y-10729600D01*
X12572371Y-10801029D01*
X12558086Y-10858172D01*
X12543800Y-10886743D01*
X12529514Y-10901029D01*
X12500943Y-10915314D01*
X12472371Y-10915314D01*
X12443800Y-10901029D01*
X12429514Y-10886743D01*
X12415228Y-10858172D01*
X12400943Y-10801029D01*
X12400943Y-10729600D01*
X12415228Y-10672457D01*
X12429514Y-10643886D01*
X12443800Y-10629600D01*
X12472371Y-10615314D01*
X12858086Y-10915314D02*
X12686657Y-10915314D01*
X12772371Y-10915314D02*
X12772371Y-10615314D01*
X12743800Y-10658172D01*
X12715228Y-10686743D01*
X12686657Y-10701029D01*
X12958086Y-10615314D02*
X13143800Y-10615314D01*
X13043800Y-10729600D01*
X13086657Y-10729600D01*
X13115228Y-10743886D01*
X13129514Y-10758172D01*
X13143800Y-10786743D01*
X13143800Y-10858172D01*
X13129514Y-10886743D01*
X13115228Y-10901029D01*
X13086657Y-10915314D01*
X13000943Y-10915314D01*
X12972371Y-10901029D01*
X12958086Y-10886743D01*
X13258086Y-10615314D02*
X13258086Y-10672457D01*
X13372371Y-10615314D02*
X13372371Y-10672457D01*
X13815228Y-11029600D02*
X13800943Y-11015314D01*
X13772371Y-10972457D01*
X13758086Y-10943886D01*
X13743800Y-10901029D01*
X13729514Y-10829600D01*
X13729514Y-10772457D01*
X13743800Y-10701029D01*
X13758086Y-10658172D01*
X13772371Y-10629600D01*
X13800943Y-10586743D01*
X13815228Y-10572457D01*
X14086657Y-10915314D02*
X13915228Y-10915314D01*
X14000943Y-10915314D02*
X14000943Y-10615314D01*
X13972371Y-10658172D01*
X13943800Y-10686743D01*
X13915228Y-10701029D01*
X14372371Y-10915314D02*
X14200943Y-10915314D01*
X14286657Y-10915314D02*
X14286657Y-10615314D01*
X14258086Y-10658172D01*
X14229514Y-10686743D01*
X14200943Y-10701029D01*
X14729514Y-10915314D02*
X14729514Y-10615314D01*
X14858086Y-10915314D02*
X14858086Y-10758172D01*
X14843800Y-10729600D01*
X14815228Y-10715314D01*
X14772371Y-10715314D01*
X14743800Y-10729600D01*
X14729514Y-10743886D01*
X15043800Y-10915314D02*
X15015228Y-10901029D01*
X15000943Y-10886743D01*
X14986657Y-10858172D01*
X14986657Y-10772457D01*
X15000943Y-10743886D01*
X15015228Y-10729600D01*
X15043800Y-10715314D01*
X15086657Y-10715314D01*
X15115228Y-10729600D01*
X15129514Y-10743886D01*
X15143800Y-10772457D01*
X15143800Y-10858172D01*
X15129514Y-10886743D01*
X15115228Y-10901029D01*
X15086657Y-10915314D01*
X15043800Y-10915314D01*
X15315228Y-10915314D02*
X15286657Y-10901029D01*
X15272371Y-10872457D01*
X15272371Y-10615314D01*
X15543800Y-10901029D02*
X15515228Y-10915314D01*
X15458086Y-10915314D01*
X15429514Y-10901029D01*
X15415228Y-10872457D01*
X15415228Y-10758172D01*
X15429514Y-10729600D01*
X15458086Y-10715314D01*
X15515228Y-10715314D01*
X15543800Y-10729600D01*
X15558086Y-10758172D01*
X15558086Y-10786743D01*
X15415228Y-10815314D01*
X15672371Y-10901029D02*
X15700943Y-10915314D01*
X15758086Y-10915314D01*
X15786657Y-10901029D01*
X15800943Y-10872457D01*
X15800943Y-10858172D01*
X15786657Y-10829600D01*
X15758086Y-10815314D01*
X15715228Y-10815314D01*
X15686657Y-10801029D01*
X15672371Y-10772457D01*
X15672371Y-10758172D01*
X15686657Y-10729600D01*
X15715228Y-10715314D01*
X15758086Y-10715314D01*
X15786657Y-10729600D01*
X15900943Y-11029600D02*
X15915228Y-11015314D01*
X15943800Y-10972457D01*
X15958086Y-10943886D01*
X15972371Y-10901029D01*
X15986657Y-10829600D01*
X15986657Y-10772457D01*
X15972371Y-10701029D01*
X15958086Y-10658172D01*
X15943800Y-10629600D01*
X15915228Y-10586743D01*
X15900943Y-10572457D01*
X9128800Y-11175600D02*
G75*
G03X9128800Y-11175600I-37500J0D01*
G01*
X9472371Y-11011314D02*
X9500943Y-11011314D01*
X9529514Y-11025600D01*
X9543800Y-11039886D01*
X9558086Y-11068457D01*
X9572371Y-11125600D01*
X9572371Y-11197029D01*
X9558086Y-11254171D01*
X9543800Y-11282743D01*
X9529514Y-11297029D01*
X9500943Y-11311314D01*
X9472371Y-11311314D01*
X9443800Y-11297029D01*
X9429514Y-11282743D01*
X9415228Y-11254171D01*
X9400943Y-11197029D01*
X9400943Y-11125600D01*
X9415228Y-11068457D01*
X9429514Y-11039886D01*
X9443800Y-11025600D01*
X9472371Y-11011314D01*
X9700943Y-11282743D02*
X9715228Y-11297029D01*
X9700943Y-11311314D01*
X9686657Y-11297029D01*
X9700943Y-11282743D01*
X9700943Y-11311314D01*
X9815228Y-11011314D02*
X10015228Y-11011314D01*
X9886657Y-11311314D01*
X10272371Y-11011314D02*
X10129514Y-11011314D01*
X10115228Y-11154172D01*
X10129514Y-11139886D01*
X10158086Y-11125600D01*
X10229514Y-11125600D01*
X10258086Y-11139886D01*
X10272371Y-11154172D01*
X10286657Y-11182743D01*
X10286657Y-11254171D01*
X10272371Y-11282743D01*
X10258086Y-11297029D01*
X10229514Y-11311314D01*
X10158086Y-11311314D01*
X10129514Y-11297029D01*
X10115228Y-11282743D01*
X10415228Y-11311314D02*
X10415228Y-11111314D01*
X10415228Y-11139886D02*
X10429514Y-11125600D01*
X10458086Y-11111314D01*
X10500943Y-11111314D01*
X10529514Y-11125600D01*
X10543800Y-11154172D01*
X10543800Y-11311314D01*
X10543800Y-11154172D02*
X10558086Y-11125600D01*
X10586657Y-11111314D01*
X10629514Y-11111314D01*
X10658086Y-11125600D01*
X10672371Y-11154172D01*
X10672371Y-11311314D01*
X10815228Y-11311314D02*
X10815228Y-11111314D01*
X10815228Y-11139886D02*
X10829514Y-11125600D01*
X10858086Y-11111314D01*
X10900943Y-11111314D01*
X10929514Y-11125600D01*
X10943800Y-11154172D01*
X10943800Y-11311314D01*
X10943800Y-11154172D02*
X10958086Y-11125600D01*
X10986657Y-11111314D01*
X11029514Y-11111314D01*
X11058086Y-11125600D01*
X11072371Y-11154172D01*
X11072371Y-11311314D01*
X11658086Y-10997029D02*
X11400943Y-11382743D01*
X12043800Y-11011314D02*
X12072371Y-11011314D01*
X12100943Y-11025600D01*
X12115228Y-11039886D01*
X12129514Y-11068457D01*
X12143800Y-11125600D01*
X12143800Y-11197029D01*
X12129514Y-11254171D01*
X12115228Y-11282743D01*
X12100943Y-11297029D01*
X12072371Y-11311314D01*
X12043800Y-11311314D01*
X12015228Y-11297029D01*
X12000943Y-11282743D01*
X11986657Y-11254171D01*
X11972371Y-11197029D01*
X11972371Y-11125600D01*
X11986657Y-11068457D01*
X12000943Y-11039886D01*
X12015228Y-11025600D01*
X12043800Y-11011314D01*
X12272371Y-11282743D02*
X12286657Y-11297029D01*
X12272371Y-11311314D01*
X12258086Y-11297029D01*
X12272371Y-11282743D01*
X12272371Y-11311314D01*
X12472371Y-11011314D02*
X12500943Y-11011314D01*
X12529514Y-11025600D01*
X12543800Y-11039886D01*
X12558086Y-11068457D01*
X12572371Y-11125600D01*
X12572371Y-11197029D01*
X12558086Y-11254171D01*
X12543800Y-11282743D01*
X12529514Y-11297029D01*
X12500943Y-11311314D01*
X12472371Y-11311314D01*
X12443800Y-11297029D01*
X12429514Y-11282743D01*
X12415228Y-11254171D01*
X12400943Y-11197029D01*
X12400943Y-11125600D01*
X12415228Y-11068457D01*
X12429514Y-11039886D01*
X12443800Y-11025600D01*
X12472371Y-11011314D01*
X12672371Y-11011314D02*
X12858086Y-11011314D01*
X12758086Y-11125600D01*
X12800943Y-11125600D01*
X12829514Y-11139886D01*
X12843800Y-11154172D01*
X12858086Y-11182743D01*
X12858086Y-11254171D01*
X12843800Y-11282743D01*
X12829514Y-11297029D01*
X12800943Y-11311314D01*
X12715228Y-11311314D01*
X12686657Y-11297029D01*
X12672371Y-11282743D01*
X13043800Y-11011314D02*
X13072371Y-11011314D01*
X13100943Y-11025600D01*
X13115228Y-11039886D01*
X13129514Y-11068457D01*
X13143800Y-11125600D01*
X13143800Y-11197029D01*
X13129514Y-11254171D01*
X13115228Y-11282743D01*
X13100943Y-11297029D01*
X13072371Y-11311314D01*
X13043800Y-11311314D01*
X13015228Y-11297029D01*
X13000943Y-11282743D01*
X12986657Y-11254171D01*
X12972371Y-11197029D01*
X12972371Y-11125600D01*
X12986657Y-11068457D01*
X13000943Y-11039886D01*
X13015228Y-11025600D01*
X13043800Y-11011314D01*
X13258086Y-11011314D02*
X13258086Y-11068457D01*
X13372371Y-11011314D02*
X13372371Y-11068457D01*
X13815228Y-11425600D02*
X13800943Y-11411314D01*
X13772371Y-11368457D01*
X13758086Y-11339886D01*
X13743800Y-11297029D01*
X13729514Y-11225600D01*
X13729514Y-11168457D01*
X13743800Y-11097029D01*
X13758086Y-11054172D01*
X13772371Y-11025600D01*
X13800943Y-10982743D01*
X13815228Y-10968457D01*
X13900943Y-11011314D02*
X14086657Y-11011314D01*
X13986657Y-11125600D01*
X14029514Y-11125600D01*
X14058086Y-11139886D01*
X14072371Y-11154172D01*
X14086657Y-11182743D01*
X14086657Y-11254171D01*
X14072371Y-11282743D01*
X14058086Y-11297029D01*
X14029514Y-11311314D01*
X13943800Y-11311314D01*
X13915228Y-11297029D01*
X13900943Y-11282743D01*
X14443800Y-11311314D02*
X14443800Y-11011314D01*
X14572371Y-11311314D02*
X14572371Y-11154172D01*
X14558086Y-11125600D01*
X14529514Y-11111314D01*
X14486657Y-11111314D01*
X14458086Y-11125600D01*
X14443800Y-11139886D01*
X14758086Y-11311314D02*
X14729514Y-11297029D01*
X14715228Y-11282743D01*
X14700943Y-11254171D01*
X14700943Y-11168457D01*
X14715228Y-11139886D01*
X14729514Y-11125600D01*
X14758086Y-11111314D01*
X14800943Y-11111314D01*
X14829514Y-11125600D01*
X14843800Y-11139886D01*
X14858086Y-11168457D01*
X14858086Y-11254171D01*
X14843800Y-11282743D01*
X14829514Y-11297029D01*
X14800943Y-11311314D01*
X14758086Y-11311314D01*
X15029514Y-11311314D02*
X15000943Y-11297029D01*
X14986657Y-11268457D01*
X14986657Y-11011314D01*
X15258086Y-11297029D02*
X15229514Y-11311314D01*
X15172371Y-11311314D01*
X15143800Y-11297029D01*
X15129514Y-11268457D01*
X15129514Y-11154172D01*
X15143800Y-11125600D01*
X15172371Y-11111314D01*
X15229514Y-11111314D01*
X15258086Y-11125600D01*
X15272371Y-11154172D01*
X15272371Y-11182743D01*
X15129514Y-11211314D01*
X15386657Y-11297029D02*
X15415228Y-11311314D01*
X15472371Y-11311314D01*
X15500943Y-11297029D01*
X15515228Y-11268457D01*
X15515228Y-11254171D01*
X15500943Y-11225600D01*
X15472371Y-11211314D01*
X15429514Y-11211314D01*
X15400943Y-11197029D01*
X15386657Y-11168457D01*
X15386657Y-11154172D01*
X15400943Y-11125600D01*
X15429514Y-11111314D01*
X15472371Y-11111314D01*
X15500943Y-11125600D01*
X15615228Y-11425600D02*
X15629514Y-11411314D01*
X15658086Y-11368457D01*
X15672371Y-11339886D01*
X15686657Y-11297029D01*
X15700943Y-11225600D01*
X15700943Y-11168457D01*
X15686657Y-11097029D01*
X15672371Y-11054172D01*
X15658086Y-11025600D01*
X15629514Y-10982743D01*
X15615228Y-10968457D01*
X9088800Y-11531600D02*
X9088800Y-11611600D01*
X9048800Y-11571600D02*
X9128800Y-11571600D01*
X9472371Y-11407314D02*
X9500943Y-11407314D01*
X9529514Y-11421600D01*
X9543800Y-11435886D01*
X9558086Y-11464457D01*
X9572371Y-11521600D01*
X9572371Y-11593029D01*
X9558086Y-11650171D01*
X9543800Y-11678743D01*
X9529514Y-11693029D01*
X9500943Y-11707314D01*
X9472371Y-11707314D01*
X9443800Y-11693029D01*
X9429514Y-11678743D01*
X9415228Y-11650171D01*
X9400943Y-11593029D01*
X9400943Y-11521600D01*
X9415228Y-11464457D01*
X9429514Y-11435886D01*
X9443800Y-11421600D01*
X9472371Y-11407314D01*
X9700943Y-11678743D02*
X9715228Y-11693029D01*
X9700943Y-11707314D01*
X9686657Y-11693029D01*
X9700943Y-11678743D01*
X9700943Y-11707314D01*
X9886657Y-11535886D02*
X9858086Y-11521600D01*
X9843800Y-11507314D01*
X9829514Y-11478743D01*
X9829514Y-11464457D01*
X9843800Y-11435886D01*
X9858086Y-11421600D01*
X9886657Y-11407314D01*
X9943800Y-11407314D01*
X9972371Y-11421600D01*
X9986657Y-11435886D01*
X10000943Y-11464457D01*
X10000943Y-11478743D01*
X9986657Y-11507314D01*
X9972371Y-11521600D01*
X9943800Y-11535886D01*
X9886657Y-11535886D01*
X9858086Y-11550171D01*
X9843800Y-11564457D01*
X9829514Y-11593029D01*
X9829514Y-11650171D01*
X9843800Y-11678743D01*
X9858086Y-11693029D01*
X9886657Y-11707314D01*
X9943800Y-11707314D01*
X9972371Y-11693029D01*
X9986657Y-11678743D01*
X10000943Y-11650171D01*
X10000943Y-11593029D01*
X9986657Y-11564457D01*
X9972371Y-11550171D01*
X9943800Y-11535886D01*
X10186657Y-11407314D02*
X10215228Y-11407314D01*
X10243800Y-11421600D01*
X10258086Y-11435886D01*
X10272371Y-11464457D01*
X10286657Y-11521600D01*
X10286657Y-11593029D01*
X10272371Y-11650171D01*
X10258086Y-11678743D01*
X10243800Y-11693029D01*
X10215228Y-11707314D01*
X10186657Y-11707314D01*
X10158086Y-11693029D01*
X10143800Y-11678743D01*
X10129514Y-11650171D01*
X10115228Y-11593029D01*
X10115228Y-11521600D01*
X10129514Y-11464457D01*
X10143800Y-11435886D01*
X10158086Y-11421600D01*
X10186657Y-11407314D01*
X10415228Y-11707314D02*
X10415228Y-11507314D01*
X10415228Y-11535886D02*
X10429514Y-11521600D01*
X10458086Y-11507314D01*
X10500943Y-11507314D01*
X10529514Y-11521600D01*
X10543800Y-11550171D01*
X10543800Y-11707314D01*
X10543800Y-11550171D02*
X10558086Y-11521600D01*
X10586657Y-11507314D01*
X10629514Y-11507314D01*
X10658086Y-11521600D01*
X10672371Y-11550171D01*
X10672371Y-11707314D01*
X10815228Y-11707314D02*
X10815228Y-11507314D01*
X10815228Y-11535886D02*
X10829514Y-11521600D01*
X10858086Y-11507314D01*
X10900943Y-11507314D01*
X10929514Y-11521600D01*
X10943800Y-11550171D01*
X10943800Y-11707314D01*
X10943800Y-11550171D02*
X10958086Y-11521600D01*
X10986657Y-11507314D01*
X11029514Y-11507314D01*
X11058086Y-11521600D01*
X11072371Y-11550171D01*
X11072371Y-11707314D01*
X11658086Y-11393029D02*
X11400943Y-11778743D01*
X12043800Y-11407314D02*
X12072371Y-11407314D01*
X12100943Y-11421600D01*
X12115228Y-11435886D01*
X12129514Y-11464457D01*
X12143800Y-11521600D01*
X12143800Y-11593029D01*
X12129514Y-11650171D01*
X12115228Y-11678743D01*
X12100943Y-11693029D01*
X12072371Y-11707314D01*
X12043800Y-11707314D01*
X12015228Y-11693029D01*
X12000943Y-11678743D01*
X11986657Y-11650171D01*
X11972371Y-11593029D01*
X11972371Y-11521600D01*
X11986657Y-11464457D01*
X12000943Y-11435886D01*
X12015228Y-11421600D01*
X12043800Y-11407314D01*
X12272371Y-11678743D02*
X12286657Y-11693029D01*
X12272371Y-11707314D01*
X12258086Y-11693029D01*
X12272371Y-11678743D01*
X12272371Y-11707314D01*
X12472371Y-11407314D02*
X12500943Y-11407314D01*
X12529514Y-11421600D01*
X12543800Y-11435886D01*
X12558086Y-11464457D01*
X12572371Y-11521600D01*
X12572371Y-11593029D01*
X12558086Y-11650171D01*
X12543800Y-11678743D01*
X12529514Y-11693029D01*
X12500943Y-11707314D01*
X12472371Y-11707314D01*
X12443800Y-11693029D01*
X12429514Y-11678743D01*
X12415228Y-11650171D01*
X12400943Y-11593029D01*
X12400943Y-11521600D01*
X12415228Y-11464457D01*
X12429514Y-11435886D01*
X12443800Y-11421600D01*
X12472371Y-11407314D01*
X12672371Y-11407314D02*
X12858086Y-11407314D01*
X12758086Y-11521600D01*
X12800943Y-11521600D01*
X12829514Y-11535886D01*
X12843800Y-11550171D01*
X12858086Y-11578743D01*
X12858086Y-11650171D01*
X12843800Y-11678743D01*
X12829514Y-11693029D01*
X12800943Y-11707314D01*
X12715228Y-11707314D01*
X12686657Y-11693029D01*
X12672371Y-11678743D01*
X13143800Y-11707314D02*
X12972371Y-11707314D01*
X13058086Y-11707314D02*
X13058086Y-11407314D01*
X13029514Y-11450171D01*
X13000943Y-11478743D01*
X12972371Y-11493029D01*
X13258086Y-11407314D02*
X13258086Y-11464457D01*
X13372371Y-11407314D02*
X13372371Y-11464457D01*
X13815228Y-11821600D02*
X13800943Y-11807314D01*
X13772371Y-11764457D01*
X13758086Y-11735886D01*
X13743800Y-11693029D01*
X13729514Y-11621600D01*
X13729514Y-11564457D01*
X13743800Y-11493029D01*
X13758086Y-11450171D01*
X13772371Y-11421600D01*
X13800943Y-11378743D01*
X13815228Y-11364457D01*
X14058086Y-11507314D02*
X14058086Y-11707314D01*
X13986657Y-11393029D02*
X13915228Y-11607314D01*
X14100943Y-11607314D01*
X14443800Y-11707314D02*
X14443800Y-11407314D01*
X14572371Y-11707314D02*
X14572371Y-11550171D01*
X14558086Y-11521600D01*
X14529514Y-11507314D01*
X14486657Y-11507314D01*
X14458086Y-11521600D01*
X14443800Y-11535886D01*
X14758086Y-11707314D02*
X14729514Y-11693029D01*
X14715228Y-11678743D01*
X14700943Y-11650171D01*
X14700943Y-11564457D01*
X14715228Y-11535886D01*
X14729514Y-11521600D01*
X14758086Y-11507314D01*
X14800943Y-11507314D01*
X14829514Y-11521600D01*
X14843800Y-11535886D01*
X14858086Y-11564457D01*
X14858086Y-11650171D01*
X14843800Y-11678743D01*
X14829514Y-11693029D01*
X14800943Y-11707314D01*
X14758086Y-11707314D01*
X15029514Y-11707314D02*
X15000943Y-11693029D01*
X14986657Y-11664457D01*
X14986657Y-11407314D01*
X15258086Y-11693029D02*
X15229514Y-11707314D01*
X15172371Y-11707314D01*
X15143800Y-11693029D01*
X15129514Y-11664457D01*
X15129514Y-11550171D01*
X15143800Y-11521600D01*
X15172371Y-11507314D01*
X15229514Y-11507314D01*
X15258086Y-11521600D01*
X15272371Y-11550171D01*
X15272371Y-11578743D01*
X15129514Y-11607314D01*
X15386657Y-11693029D02*
X15415228Y-11707314D01*
X15472371Y-11707314D01*
X15500943Y-11693029D01*
X15515228Y-11664457D01*
X15515228Y-11650171D01*
X15500943Y-11621600D01*
X15472371Y-11607314D01*
X15429514Y-11607314D01*
X15400943Y-11593029D01*
X15386657Y-11564457D01*
X15386657Y-11550171D01*
X15400943Y-11521600D01*
X15429514Y-11507314D01*
X15472371Y-11507314D01*
X15500943Y-11521600D01*
X15615228Y-11821600D02*
X15629514Y-11807314D01*
X15658086Y-11764457D01*
X15672371Y-11735886D01*
X15686657Y-11693029D01*
X15700943Y-11621600D01*
X15700943Y-11564457D01*
X15686657Y-11493029D01*
X15672371Y-11450171D01*
X15658086Y-11421600D01*
X15629514Y-11378743D01*
X15615228Y-11364457D01*
X9114156Y-12002956D02*
X9114156Y-11932244D01*
X9043444Y-11932244D01*
X9043444Y-12002956D01*
X9114156Y-12002956D01*
X9572371Y-12103314D02*
X9400943Y-12103314D01*
X9486657Y-12103314D02*
X9486657Y-11803314D01*
X9458086Y-11846171D01*
X9429514Y-11874743D01*
X9400943Y-11889029D01*
X9700943Y-12074743D02*
X9715228Y-12089029D01*
X9700943Y-12103314D01*
X9686657Y-12089029D01*
X9700943Y-12074743D01*
X9700943Y-12103314D01*
X9900943Y-11803314D02*
X9929514Y-11803314D01*
X9958086Y-11817600D01*
X9972371Y-11831886D01*
X9986657Y-11860457D01*
X10000943Y-11917600D01*
X10000943Y-11989029D01*
X9986657Y-12046171D01*
X9972371Y-12074743D01*
X9958086Y-12089029D01*
X9929514Y-12103314D01*
X9900943Y-12103314D01*
X9872371Y-12089029D01*
X9858086Y-12074743D01*
X9843800Y-12046171D01*
X9829514Y-11989029D01*
X9829514Y-11917600D01*
X9843800Y-11860457D01*
X9858086Y-11831886D01*
X9872371Y-11817600D01*
X9900943Y-11803314D01*
X10186657Y-11803314D02*
X10215228Y-11803314D01*
X10243800Y-11817600D01*
X10258086Y-11831886D01*
X10272371Y-11860457D01*
X10286657Y-11917600D01*
X10286657Y-11989029D01*
X10272371Y-12046171D01*
X10258086Y-12074743D01*
X10243800Y-12089029D01*
X10215228Y-12103314D01*
X10186657Y-12103314D01*
X10158086Y-12089029D01*
X10143800Y-12074743D01*
X10129514Y-12046171D01*
X10115228Y-11989029D01*
X10115228Y-11917600D01*
X10129514Y-11860457D01*
X10143800Y-11831886D01*
X10158086Y-11817600D01*
X10186657Y-11803314D01*
X10415228Y-12103314D02*
X10415228Y-11903314D01*
X10415228Y-11931886D02*
X10429514Y-11917600D01*
X10458086Y-11903314D01*
X10500943Y-11903314D01*
X10529514Y-11917600D01*
X10543800Y-11946171D01*
X10543800Y-12103314D01*
X10543800Y-11946171D02*
X10558086Y-11917600D01*
X10586657Y-11903314D01*
X10629514Y-11903314D01*
X10658086Y-11917600D01*
X10672371Y-11946171D01*
X10672371Y-12103314D01*
X10815228Y-12103314D02*
X10815228Y-11903314D01*
X10815228Y-11931886D02*
X10829514Y-11917600D01*
X10858086Y-11903314D01*
X10900943Y-11903314D01*
X10929514Y-11917600D01*
X10943800Y-11946171D01*
X10943800Y-12103314D01*
X10943800Y-11946171D02*
X10958086Y-11917600D01*
X10986657Y-11903314D01*
X11029514Y-11903314D01*
X11058086Y-11917600D01*
X11072371Y-11946171D01*
X11072371Y-12103314D01*
X11658086Y-11789029D02*
X11400943Y-12174743D01*
X12043800Y-11803314D02*
X12072371Y-11803314D01*
X12100943Y-11817600D01*
X12115228Y-11831886D01*
X12129514Y-11860457D01*
X12143800Y-11917600D01*
X12143800Y-11989029D01*
X12129514Y-12046171D01*
X12115228Y-12074743D01*
X12100943Y-12089029D01*
X12072371Y-12103314D01*
X12043800Y-12103314D01*
X12015228Y-12089029D01*
X12000943Y-12074743D01*
X11986657Y-12046171D01*
X11972371Y-11989029D01*
X11972371Y-11917600D01*
X11986657Y-11860457D01*
X12000943Y-11831886D01*
X12015228Y-11817600D01*
X12043800Y-11803314D01*
X12272371Y-12074743D02*
X12286657Y-12089029D01*
X12272371Y-12103314D01*
X12258086Y-12089029D01*
X12272371Y-12074743D01*
X12272371Y-12103314D01*
X12472371Y-11803314D02*
X12500943Y-11803314D01*
X12529514Y-11817600D01*
X12543800Y-11831886D01*
X12558086Y-11860457D01*
X12572371Y-11917600D01*
X12572371Y-11989029D01*
X12558086Y-12046171D01*
X12543800Y-12074743D01*
X12529514Y-12089029D01*
X12500943Y-12103314D01*
X12472371Y-12103314D01*
X12443800Y-12089029D01*
X12429514Y-12074743D01*
X12415228Y-12046171D01*
X12400943Y-11989029D01*
X12400943Y-11917600D01*
X12415228Y-11860457D01*
X12429514Y-11831886D01*
X12443800Y-11817600D01*
X12472371Y-11803314D01*
X12672371Y-11803314D02*
X12858086Y-11803314D01*
X12758086Y-11917600D01*
X12800943Y-11917600D01*
X12829514Y-11931886D01*
X12843800Y-11946171D01*
X12858086Y-11974743D01*
X12858086Y-12046171D01*
X12843800Y-12074743D01*
X12829514Y-12089029D01*
X12800943Y-12103314D01*
X12715228Y-12103314D01*
X12686657Y-12089029D01*
X12672371Y-12074743D01*
X13000943Y-12103314D02*
X13058086Y-12103314D01*
X13086657Y-12089029D01*
X13100943Y-12074743D01*
X13129514Y-12031886D01*
X13143800Y-11974743D01*
X13143800Y-11860457D01*
X13129514Y-11831886D01*
X13115228Y-11817600D01*
X13086657Y-11803314D01*
X13029514Y-11803314D01*
X13000943Y-11817600D01*
X12986657Y-11831886D01*
X12972371Y-11860457D01*
X12972371Y-11931886D01*
X12986657Y-11960457D01*
X13000943Y-11974743D01*
X13029514Y-11989029D01*
X13086657Y-11989029D01*
X13115228Y-11974743D01*
X13129514Y-11960457D01*
X13143800Y-11931886D01*
X13258086Y-11803314D02*
X13258086Y-11860457D01*
X13372371Y-11803314D02*
X13372371Y-11860457D01*
X13815228Y-12217600D02*
X13800943Y-12203314D01*
X13772371Y-12160457D01*
X13758086Y-12131886D01*
X13743800Y-12089029D01*
X13729514Y-12017600D01*
X13729514Y-11960457D01*
X13743800Y-11889029D01*
X13758086Y-11846171D01*
X13772371Y-11817600D01*
X13800943Y-11774743D01*
X13815228Y-11760457D01*
X14058086Y-11803314D02*
X14000943Y-11803314D01*
X13972371Y-11817600D01*
X13958086Y-11831886D01*
X13929514Y-11874743D01*
X13915228Y-11931886D01*
X13915228Y-12046171D01*
X13929514Y-12074743D01*
X13943800Y-12089029D01*
X13972371Y-12103314D01*
X14029514Y-12103314D01*
X14058086Y-12089029D01*
X14072371Y-12074743D01*
X14086657Y-12046171D01*
X14086657Y-11974743D01*
X14072371Y-11946171D01*
X14058086Y-11931886D01*
X14029514Y-11917600D01*
X13972371Y-11917600D01*
X13943800Y-11931886D01*
X13929514Y-11946171D01*
X13915228Y-11974743D01*
X14443800Y-12103314D02*
X14443800Y-11803314D01*
X14572371Y-12103314D02*
X14572371Y-11946171D01*
X14558086Y-11917600D01*
X14529514Y-11903314D01*
X14486657Y-11903314D01*
X14458086Y-11917600D01*
X14443800Y-11931886D01*
X14758086Y-12103314D02*
X14729514Y-12089029D01*
X14715228Y-12074743D01*
X14700943Y-12046171D01*
X14700943Y-11960457D01*
X14715228Y-11931886D01*
X14729514Y-11917600D01*
X14758086Y-11903314D01*
X14800943Y-11903314D01*
X14829514Y-11917600D01*
X14843800Y-11931886D01*
X14858086Y-11960457D01*
X14858086Y-12046171D01*
X14843800Y-12074743D01*
X14829514Y-12089029D01*
X14800943Y-12103314D01*
X14758086Y-12103314D01*
X15029514Y-12103314D02*
X15000943Y-12089029D01*
X14986657Y-12060457D01*
X14986657Y-11803314D01*
X15258086Y-12089029D02*
X15229514Y-12103314D01*
X15172371Y-12103314D01*
X15143800Y-12089029D01*
X15129514Y-12060457D01*
X15129514Y-11946171D01*
X15143800Y-11917600D01*
X15172371Y-11903314D01*
X15229514Y-11903314D01*
X15258086Y-11917600D01*
X15272371Y-11946171D01*
X15272371Y-11974743D01*
X15129514Y-12003314D01*
X15386657Y-12089029D02*
X15415228Y-12103314D01*
X15472371Y-12103314D01*
X15500943Y-12089029D01*
X15515228Y-12060457D01*
X15515228Y-12046171D01*
X15500943Y-12017600D01*
X15472371Y-12003314D01*
X15429514Y-12003314D01*
X15400943Y-11989029D01*
X15386657Y-11960457D01*
X15386657Y-11946171D01*
X15400943Y-11917600D01*
X15429514Y-11903314D01*
X15472371Y-11903314D01*
X15500943Y-11917600D01*
X15615228Y-12217600D02*
X15629514Y-12203314D01*
X15658086Y-12160457D01*
X15672371Y-12131886D01*
X15686657Y-12089029D01*
X15700943Y-12017600D01*
X15700943Y-11960457D01*
X15686657Y-11889029D01*
X15672371Y-11846171D01*
X15658086Y-11817600D01*
X15629514Y-11774743D01*
X15615228Y-11760457D01*
X9063800Y-12428600D02*
X9128800Y-12363600D01*
X9063800Y-12298600D01*
X8998800Y-12363600D01*
X9063800Y-12428600D01*
X9572371Y-12499314D02*
X9400943Y-12499314D01*
X9486657Y-12499314D02*
X9486657Y-12199314D01*
X9458086Y-12242171D01*
X9429514Y-12270743D01*
X9400943Y-12285029D01*
X9700943Y-12470743D02*
X9715228Y-12485029D01*
X9700943Y-12499314D01*
X9686657Y-12485029D01*
X9700943Y-12470743D01*
X9700943Y-12499314D01*
X9815228Y-12199314D02*
X10000943Y-12199314D01*
X9900943Y-12313600D01*
X9943800Y-12313600D01*
X9972371Y-12327886D01*
X9986657Y-12342171D01*
X10000943Y-12370743D01*
X10000943Y-12442171D01*
X9986657Y-12470743D01*
X9972371Y-12485029D01*
X9943800Y-12499314D01*
X9858086Y-12499314D01*
X9829514Y-12485029D01*
X9815228Y-12470743D01*
X10186657Y-12199314D02*
X10215228Y-12199314D01*
X10243800Y-12213600D01*
X10258086Y-12227886D01*
X10272371Y-12256457D01*
X10286657Y-12313600D01*
X10286657Y-12385029D01*
X10272371Y-12442171D01*
X10258086Y-12470743D01*
X10243800Y-12485029D01*
X10215228Y-12499314D01*
X10186657Y-12499314D01*
X10158086Y-12485029D01*
X10143800Y-12470743D01*
X10129514Y-12442171D01*
X10115228Y-12385029D01*
X10115228Y-12313600D01*
X10129514Y-12256457D01*
X10143800Y-12227886D01*
X10158086Y-12213600D01*
X10186657Y-12199314D01*
X10415228Y-12499314D02*
X10415228Y-12299314D01*
X10415228Y-12327886D02*
X10429514Y-12313600D01*
X10458086Y-12299314D01*
X10500943Y-12299314D01*
X10529514Y-12313600D01*
X10543800Y-12342171D01*
X10543800Y-12499314D01*
X10543800Y-12342171D02*
X10558086Y-12313600D01*
X10586657Y-12299314D01*
X10629514Y-12299314D01*
X10658086Y-12313600D01*
X10672371Y-12342171D01*
X10672371Y-12499314D01*
X10815228Y-12499314D02*
X10815228Y-12299314D01*
X10815228Y-12327886D02*
X10829514Y-12313600D01*
X10858086Y-12299314D01*
X10900943Y-12299314D01*
X10929514Y-12313600D01*
X10943800Y-12342171D01*
X10943800Y-12499314D01*
X10943800Y-12342171D02*
X10958086Y-12313600D01*
X10986657Y-12299314D01*
X11029514Y-12299314D01*
X11058086Y-12313600D01*
X11072371Y-12342171D01*
X11072371Y-12499314D01*
X11658086Y-12185029D02*
X11400943Y-12570743D01*
X12043800Y-12199314D02*
X12072371Y-12199314D01*
X12100943Y-12213600D01*
X12115228Y-12227886D01*
X12129514Y-12256457D01*
X12143800Y-12313600D01*
X12143800Y-12385029D01*
X12129514Y-12442171D01*
X12115228Y-12470743D01*
X12100943Y-12485029D01*
X12072371Y-12499314D01*
X12043800Y-12499314D01*
X12015228Y-12485029D01*
X12000943Y-12470743D01*
X11986657Y-12442171D01*
X11972371Y-12385029D01*
X11972371Y-12313600D01*
X11986657Y-12256457D01*
X12000943Y-12227886D01*
X12015228Y-12213600D01*
X12043800Y-12199314D01*
X12272371Y-12470743D02*
X12286657Y-12485029D01*
X12272371Y-12499314D01*
X12258086Y-12485029D01*
X12272371Y-12470743D01*
X12272371Y-12499314D01*
X12472371Y-12199314D02*
X12500943Y-12199314D01*
X12529514Y-12213600D01*
X12543800Y-12227886D01*
X12558086Y-12256457D01*
X12572371Y-12313600D01*
X12572371Y-12385029D01*
X12558086Y-12442171D01*
X12543800Y-12470743D01*
X12529514Y-12485029D01*
X12500943Y-12499314D01*
X12472371Y-12499314D01*
X12443800Y-12485029D01*
X12429514Y-12470743D01*
X12415228Y-12442171D01*
X12400943Y-12385029D01*
X12400943Y-12313600D01*
X12415228Y-12256457D01*
X12429514Y-12227886D01*
X12443800Y-12213600D01*
X12472371Y-12199314D01*
X12843800Y-12199314D02*
X12700943Y-12199314D01*
X12686657Y-12342171D01*
X12700943Y-12327886D01*
X12729514Y-12313600D01*
X12800943Y-12313600D01*
X12829514Y-12327886D01*
X12843800Y-12342171D01*
X12858086Y-12370743D01*
X12858086Y-12442171D01*
X12843800Y-12470743D01*
X12829514Y-12485029D01*
X12800943Y-12499314D01*
X12729514Y-12499314D01*
X12700943Y-12485029D01*
X12686657Y-12470743D01*
X13143800Y-12499314D02*
X12972371Y-12499314D01*
X13058086Y-12499314D02*
X13058086Y-12199314D01*
X13029514Y-12242171D01*
X13000943Y-12270743D01*
X12972371Y-12285029D01*
X13258086Y-12199314D02*
X13258086Y-12256457D01*
X13372371Y-12199314D02*
X13372371Y-12256457D01*
X13815228Y-12613600D02*
X13800943Y-12599314D01*
X13772371Y-12556457D01*
X13758086Y-12527886D01*
X13743800Y-12485029D01*
X13729514Y-12413600D01*
X13729514Y-12356457D01*
X13743800Y-12285029D01*
X13758086Y-12242171D01*
X13772371Y-12213600D01*
X13800943Y-12170743D01*
X13815228Y-12156457D01*
X13972371Y-12327886D02*
X13943800Y-12313600D01*
X13929514Y-12299314D01*
X13915228Y-12270743D01*
X13915228Y-12256457D01*
X13929514Y-12227886D01*
X13943800Y-12213600D01*
X13972371Y-12199314D01*
X14029514Y-12199314D01*
X14058086Y-12213600D01*
X14072371Y-12227886D01*
X14086657Y-12256457D01*
X14086657Y-12270743D01*
X14072371Y-12299314D01*
X14058086Y-12313600D01*
X14029514Y-12327886D01*
X13972371Y-12327886D01*
X13943800Y-12342171D01*
X13929514Y-12356457D01*
X13915228Y-12385029D01*
X13915228Y-12442171D01*
X13929514Y-12470743D01*
X13943800Y-12485029D01*
X13972371Y-12499314D01*
X14029514Y-12499314D01*
X14058086Y-12485029D01*
X14072371Y-12470743D01*
X14086657Y-12442171D01*
X14086657Y-12385029D01*
X14072371Y-12356457D01*
X14058086Y-12342171D01*
X14029514Y-12327886D01*
X14443800Y-12499314D02*
X14443800Y-12199314D01*
X14572371Y-12499314D02*
X14572371Y-12342171D01*
X14558086Y-12313600D01*
X14529514Y-12299314D01*
X14486657Y-12299314D01*
X14458086Y-12313600D01*
X14443800Y-12327886D01*
X14758086Y-12499314D02*
X14729514Y-12485029D01*
X14715228Y-12470743D01*
X14700943Y-12442171D01*
X14700943Y-12356457D01*
X14715228Y-12327886D01*
X14729514Y-12313600D01*
X14758086Y-12299314D01*
X14800943Y-12299314D01*
X14829514Y-12313600D01*
X14843800Y-12327886D01*
X14858086Y-12356457D01*
X14858086Y-12442171D01*
X14843800Y-12470743D01*
X14829514Y-12485029D01*
X14800943Y-12499314D01*
X14758086Y-12499314D01*
X15029514Y-12499314D02*
X15000943Y-12485029D01*
X14986657Y-12456457D01*
X14986657Y-12199314D01*
X15258086Y-12485029D02*
X15229514Y-12499314D01*
X15172371Y-12499314D01*
X15143800Y-12485029D01*
X15129514Y-12456457D01*
X15129514Y-12342171D01*
X15143800Y-12313600D01*
X15172371Y-12299314D01*
X15229514Y-12299314D01*
X15258086Y-12313600D01*
X15272371Y-12342171D01*
X15272371Y-12370743D01*
X15129514Y-12399314D01*
X15386657Y-12485029D02*
X15415228Y-12499314D01*
X15472371Y-12499314D01*
X15500943Y-12485029D01*
X15515228Y-12456457D01*
X15515228Y-12442171D01*
X15500943Y-12413600D01*
X15472371Y-12399314D01*
X15429514Y-12399314D01*
X15400943Y-12385029D01*
X15386657Y-12356457D01*
X15386657Y-12342171D01*
X15400943Y-12313600D01*
X15429514Y-12299314D01*
X15472371Y-12299314D01*
X15500943Y-12313600D01*
X15615228Y-12613600D02*
X15629514Y-12599314D01*
X15658086Y-12556457D01*
X15672371Y-12527886D01*
X15686657Y-12485029D01*
X15700943Y-12413600D01*
X15700943Y-12356457D01*
X15686657Y-12285029D01*
X15672371Y-12242171D01*
X15658086Y-12213600D01*
X15629514Y-12170743D01*
X15615228Y-12156457D01*
X8996800Y-12693600D02*
X9128800Y-12825600D01*
X9128800Y-12693600D02*
X8996800Y-12825600D01*
X9128800Y-12759600D02*
G75*
G03X9128800Y-12759600I-66000J0D01*
G01*
X9572371Y-12895314D02*
X9400943Y-12895314D01*
X9486657Y-12895314D02*
X9486657Y-12595314D01*
X9458086Y-12638171D01*
X9429514Y-12666743D01*
X9400943Y-12681029D01*
X9700943Y-12866743D02*
X9715228Y-12881029D01*
X9700943Y-12895314D01*
X9686657Y-12881029D01*
X9700943Y-12866743D01*
X9700943Y-12895314D01*
X9815228Y-12595314D02*
X10000943Y-12595314D01*
X9900943Y-12709600D01*
X9943800Y-12709600D01*
X9972371Y-12723886D01*
X9986657Y-12738171D01*
X10000943Y-12766743D01*
X10000943Y-12838171D01*
X9986657Y-12866743D01*
X9972371Y-12881029D01*
X9943800Y-12895314D01*
X9858086Y-12895314D01*
X9829514Y-12881029D01*
X9815228Y-12866743D01*
X10115228Y-12623886D02*
X10129514Y-12609600D01*
X10158086Y-12595314D01*
X10229514Y-12595314D01*
X10258086Y-12609600D01*
X10272371Y-12623886D01*
X10286657Y-12652457D01*
X10286657Y-12681029D01*
X10272371Y-12723886D01*
X10100943Y-12895314D01*
X10286657Y-12895314D01*
X10415228Y-12895314D02*
X10415228Y-12695314D01*
X10415228Y-12723886D02*
X10429514Y-12709600D01*
X10458086Y-12695314D01*
X10500943Y-12695314D01*
X10529514Y-12709600D01*
X10543800Y-12738171D01*
X10543800Y-12895314D01*
X10543800Y-12738171D02*
X10558086Y-12709600D01*
X10586657Y-12695314D01*
X10629514Y-12695314D01*
X10658086Y-12709600D01*
X10672371Y-12738171D01*
X10672371Y-12895314D01*
X10815228Y-12895314D02*
X10815228Y-12695314D01*
X10815228Y-12723886D02*
X10829514Y-12709600D01*
X10858086Y-12695314D01*
X10900943Y-12695314D01*
X10929514Y-12709600D01*
X10943800Y-12738171D01*
X10943800Y-12895314D01*
X10943800Y-12738171D02*
X10958086Y-12709600D01*
X10986657Y-12695314D01*
X11029514Y-12695314D01*
X11058086Y-12709600D01*
X11072371Y-12738171D01*
X11072371Y-12895314D01*
X11658086Y-12581029D02*
X11400943Y-12966743D01*
X12043800Y-12595314D02*
X12072371Y-12595314D01*
X12100943Y-12609600D01*
X12115228Y-12623886D01*
X12129514Y-12652457D01*
X12143800Y-12709600D01*
X12143800Y-12781029D01*
X12129514Y-12838171D01*
X12115228Y-12866743D01*
X12100943Y-12881029D01*
X12072371Y-12895314D01*
X12043800Y-12895314D01*
X12015228Y-12881029D01*
X12000943Y-12866743D01*
X11986657Y-12838171D01*
X11972371Y-12781029D01*
X11972371Y-12709600D01*
X11986657Y-12652457D01*
X12000943Y-12623886D01*
X12015228Y-12609600D01*
X12043800Y-12595314D01*
X12272371Y-12866743D02*
X12286657Y-12881029D01*
X12272371Y-12895314D01*
X12258086Y-12881029D01*
X12272371Y-12866743D01*
X12272371Y-12895314D01*
X12472371Y-12595314D02*
X12500943Y-12595314D01*
X12529514Y-12609600D01*
X12543800Y-12623886D01*
X12558086Y-12652457D01*
X12572371Y-12709600D01*
X12572371Y-12781029D01*
X12558086Y-12838171D01*
X12543800Y-12866743D01*
X12529514Y-12881029D01*
X12500943Y-12895314D01*
X12472371Y-12895314D01*
X12443800Y-12881029D01*
X12429514Y-12866743D01*
X12415228Y-12838171D01*
X12400943Y-12781029D01*
X12400943Y-12709600D01*
X12415228Y-12652457D01*
X12429514Y-12623886D01*
X12443800Y-12609600D01*
X12472371Y-12595314D01*
X12843800Y-12595314D02*
X12700943Y-12595314D01*
X12686657Y-12738171D01*
X12700943Y-12723886D01*
X12729514Y-12709600D01*
X12800943Y-12709600D01*
X12829514Y-12723886D01*
X12843800Y-12738171D01*
X12858086Y-12766743D01*
X12858086Y-12838171D01*
X12843800Y-12866743D01*
X12829514Y-12881029D01*
X12800943Y-12895314D01*
X12729514Y-12895314D01*
X12700943Y-12881029D01*
X12686657Y-12866743D01*
X12972371Y-12623886D02*
X12986657Y-12609600D01*
X13015228Y-12595314D01*
X13086657Y-12595314D01*
X13115228Y-12609600D01*
X13129514Y-12623886D01*
X13143800Y-12652457D01*
X13143800Y-12681029D01*
X13129514Y-12723886D01*
X12958086Y-12895314D01*
X13143800Y-12895314D01*
X13258086Y-12595314D02*
X13258086Y-12652457D01*
X13372371Y-12595314D02*
X13372371Y-12652457D01*
X13815228Y-13009600D02*
X13800943Y-12995314D01*
X13772371Y-12952457D01*
X13758086Y-12923886D01*
X13743800Y-12881029D01*
X13729514Y-12809600D01*
X13729514Y-12752457D01*
X13743800Y-12681029D01*
X13758086Y-12638171D01*
X13772371Y-12609600D01*
X13800943Y-12566743D01*
X13815228Y-12552457D01*
X13915228Y-12623886D02*
X13929514Y-12609600D01*
X13958086Y-12595314D01*
X14029514Y-12595314D01*
X14058086Y-12609600D01*
X14072371Y-12623886D01*
X14086657Y-12652457D01*
X14086657Y-12681029D01*
X14072371Y-12723886D01*
X13900943Y-12895314D01*
X14086657Y-12895314D01*
X14443800Y-12895314D02*
X14443800Y-12595314D01*
X14572371Y-12895314D02*
X14572371Y-12738171D01*
X14558086Y-12709600D01*
X14529514Y-12695314D01*
X14486657Y-12695314D01*
X14458086Y-12709600D01*
X14443800Y-12723886D01*
X14758086Y-12895314D02*
X14729514Y-12881029D01*
X14715228Y-12866743D01*
X14700943Y-12838171D01*
X14700943Y-12752457D01*
X14715228Y-12723886D01*
X14729514Y-12709600D01*
X14758086Y-12695314D01*
X14800943Y-12695314D01*
X14829514Y-12709600D01*
X14843800Y-12723886D01*
X14858086Y-12752457D01*
X14858086Y-12838171D01*
X14843800Y-12866743D01*
X14829514Y-12881029D01*
X14800943Y-12895314D01*
X14758086Y-12895314D01*
X15029514Y-12895314D02*
X15000943Y-12881029D01*
X14986657Y-12852457D01*
X14986657Y-12595314D01*
X15258086Y-12881029D02*
X15229514Y-12895314D01*
X15172371Y-12895314D01*
X15143800Y-12881029D01*
X15129514Y-12852457D01*
X15129514Y-12738171D01*
X15143800Y-12709600D01*
X15172371Y-12695314D01*
X15229514Y-12695314D01*
X15258086Y-12709600D01*
X15272371Y-12738171D01*
X15272371Y-12766743D01*
X15129514Y-12795314D01*
X15386657Y-12881029D02*
X15415228Y-12895314D01*
X15472371Y-12895314D01*
X15500943Y-12881029D01*
X15515228Y-12852457D01*
X15515228Y-12838171D01*
X15500943Y-12809600D01*
X15472371Y-12795314D01*
X15429514Y-12795314D01*
X15400943Y-12781029D01*
X15386657Y-12752457D01*
X15386657Y-12738171D01*
X15400943Y-12709600D01*
X15429514Y-12695314D01*
X15472371Y-12695314D01*
X15500943Y-12709600D01*
X15615228Y-13009600D02*
X15629514Y-12995314D01*
X15658086Y-12952457D01*
X15672371Y-12923886D01*
X15686657Y-12881029D01*
X15700943Y-12809600D01*
X15700943Y-12752457D01*
X15686657Y-12681029D01*
X15672371Y-12638171D01*
X15658086Y-12609600D01*
X15629514Y-12566743D01*
X15615228Y-12552457D01*
M02*
