G04 #@! TF.GenerationSoftware,KiCad,Pcbnew,(5.1.2)-1*
G04 #@! TF.CreationDate,2019-07-04T14:52:25+03:00*
G04 #@! TF.ProjectId,Elevator_FirePanel Board,456c6576-6174-46f7-925f-466972655061,rev?*
G04 #@! TF.SameCoordinates,Original*
G04 #@! TF.FileFunction,Soldermask,Bot*
G04 #@! TF.FilePolarity,Negative*
%FSLAX46Y46*%
G04 Gerber Fmt 4.6, Leading zero omitted, Abs format (unit mm)*
G04 Created by KiCad (PCBNEW (5.1.2)-1) date 2019-07-04 14:52:25*
%MOMM*%
%LPD*%
G04 APERTURE LIST*
%ADD10C,0.100000*%
G04 APERTURE END LIST*
D10*
G36*
X136142487Y-94252996D02*
G01*
X136379253Y-94351068D01*
X136379255Y-94351069D01*
X136592339Y-94493447D01*
X136773553Y-94674661D01*
X136873502Y-94824245D01*
X136915932Y-94887747D01*
X137014004Y-95124513D01*
X137064000Y-95375861D01*
X137064000Y-95632139D01*
X137014004Y-95883487D01*
X136942234Y-96056755D01*
X136915931Y-96120255D01*
X136773553Y-96333339D01*
X136592339Y-96514553D01*
X136379255Y-96656931D01*
X136379254Y-96656932D01*
X136379253Y-96656932D01*
X136142487Y-96755004D01*
X135891139Y-96805000D01*
X135634861Y-96805000D01*
X135383513Y-96755004D01*
X135146747Y-96656932D01*
X135146746Y-96656932D01*
X135146745Y-96656931D01*
X134933661Y-96514553D01*
X134752447Y-96333339D01*
X134610069Y-96120255D01*
X134583766Y-96056755D01*
X134511996Y-95883487D01*
X134462000Y-95632139D01*
X134462000Y-95375861D01*
X134511996Y-95124513D01*
X134610068Y-94887747D01*
X134652499Y-94824245D01*
X134752447Y-94674661D01*
X134933661Y-94493447D01*
X135146745Y-94351069D01*
X135146747Y-94351068D01*
X135383513Y-94252996D01*
X135634861Y-94203000D01*
X135891139Y-94203000D01*
X136142487Y-94252996D01*
X136142487Y-94252996D01*
G37*
G36*
X116393987Y-94189496D02*
G01*
X116547291Y-94252997D01*
X116630755Y-94287569D01*
X116843839Y-94429947D01*
X117025053Y-94611161D01*
X117167432Y-94824247D01*
X117265504Y-95061013D01*
X117315500Y-95312361D01*
X117315500Y-95568639D01*
X117265504Y-95819987D01*
X117167432Y-96056753D01*
X117167431Y-96056755D01*
X117025053Y-96269839D01*
X116843839Y-96451053D01*
X116630755Y-96593431D01*
X116630754Y-96593432D01*
X116630753Y-96593432D01*
X116393987Y-96691504D01*
X116142639Y-96741500D01*
X115886361Y-96741500D01*
X115635013Y-96691504D01*
X115398247Y-96593432D01*
X115398246Y-96593432D01*
X115398245Y-96593431D01*
X115185161Y-96451053D01*
X115003947Y-96269839D01*
X114861569Y-96056755D01*
X114861568Y-96056753D01*
X114763496Y-95819987D01*
X114713500Y-95568639D01*
X114713500Y-95312361D01*
X114763496Y-95061013D01*
X114861568Y-94824247D01*
X115003947Y-94611161D01*
X115185161Y-94429947D01*
X115398245Y-94287569D01*
X115481709Y-94252997D01*
X115635013Y-94189496D01*
X115886361Y-94139500D01*
X116142639Y-94139500D01*
X116393987Y-94189496D01*
X116393987Y-94189496D01*
G37*
G36*
X108496085Y-90761802D02*
G01*
X108645910Y-90791604D01*
X108928174Y-90908521D01*
X109182205Y-91078259D01*
X109398241Y-91294295D01*
X109567979Y-91548326D01*
X109684896Y-91830590D01*
X109744500Y-92130240D01*
X109744500Y-92435760D01*
X109684896Y-92735410D01*
X109567979Y-93017674D01*
X109398241Y-93271705D01*
X109182205Y-93487741D01*
X108928174Y-93657479D01*
X108645910Y-93774396D01*
X108496085Y-93804198D01*
X108346261Y-93834000D01*
X108040739Y-93834000D01*
X107890915Y-93804198D01*
X107741090Y-93774396D01*
X107458826Y-93657479D01*
X107204795Y-93487741D01*
X106988759Y-93271705D01*
X106819021Y-93017674D01*
X106702104Y-92735410D01*
X106642500Y-92435760D01*
X106642500Y-92130240D01*
X106702104Y-91830590D01*
X106819021Y-91548326D01*
X106988759Y-91294295D01*
X107204795Y-91078259D01*
X107458826Y-90908521D01*
X107741090Y-90791604D01*
X107890915Y-90761802D01*
X108040739Y-90732000D01*
X108346261Y-90732000D01*
X108496085Y-90761802D01*
X108496085Y-90761802D01*
G37*
G36*
X96372987Y-91031996D02*
G01*
X96609753Y-91130068D01*
X96609755Y-91130069D01*
X96822839Y-91272447D01*
X97004053Y-91453661D01*
X97138875Y-91655436D01*
X97146432Y-91666747D01*
X97244504Y-91903513D01*
X97294500Y-92154861D01*
X97294500Y-92411139D01*
X97244504Y-92662487D01*
X97146432Y-92899253D01*
X97146431Y-92899255D01*
X97004053Y-93112339D01*
X96822839Y-93293553D01*
X96609755Y-93435931D01*
X96609754Y-93435932D01*
X96609753Y-93435932D01*
X96372987Y-93534004D01*
X96121639Y-93584000D01*
X95865361Y-93584000D01*
X95614013Y-93534004D01*
X95377247Y-93435932D01*
X95377246Y-93435932D01*
X95377245Y-93435931D01*
X95164161Y-93293553D01*
X94982947Y-93112339D01*
X94840569Y-92899255D01*
X94840568Y-92899253D01*
X94742496Y-92662487D01*
X94692500Y-92411139D01*
X94692500Y-92154861D01*
X94742496Y-91903513D01*
X94840568Y-91666747D01*
X94848126Y-91655436D01*
X94982947Y-91453661D01*
X95164161Y-91272447D01*
X95377245Y-91130069D01*
X95377247Y-91130068D01*
X95614013Y-91031996D01*
X95865361Y-90982000D01*
X96121639Y-90982000D01*
X96372987Y-91031996D01*
X96372987Y-91031996D01*
G37*
G36*
X149341064Y-90951389D02*
G01*
X149532333Y-91030615D01*
X149532335Y-91030616D01*
X149603639Y-91078260D01*
X149704473Y-91145635D01*
X149850865Y-91292027D01*
X149965885Y-91464167D01*
X150045111Y-91655436D01*
X150085500Y-91858484D01*
X150085500Y-92065516D01*
X150045111Y-92268564D01*
X149975856Y-92435760D01*
X149965884Y-92459835D01*
X149850865Y-92631973D01*
X149704473Y-92778365D01*
X149532335Y-92893384D01*
X149532334Y-92893385D01*
X149532333Y-92893385D01*
X149341064Y-92972611D01*
X149138016Y-93013000D01*
X148930984Y-93013000D01*
X148727936Y-92972611D01*
X148536667Y-92893385D01*
X148536666Y-92893385D01*
X148536665Y-92893384D01*
X148364527Y-92778365D01*
X148218135Y-92631973D01*
X148103116Y-92459835D01*
X148093144Y-92435760D01*
X148023889Y-92268564D01*
X147983500Y-92065516D01*
X147983500Y-91858484D01*
X148023889Y-91655436D01*
X148103115Y-91464167D01*
X148218135Y-91292027D01*
X148364527Y-91145635D01*
X148465361Y-91078260D01*
X148536665Y-91030616D01*
X148536667Y-91030615D01*
X148727936Y-90951389D01*
X148930984Y-90911000D01*
X149138016Y-90911000D01*
X149341064Y-90951389D01*
X149341064Y-90951389D01*
G37*
G36*
X117397415Y-86583334D02*
G01*
X117505991Y-86616271D01*
X117505994Y-86616272D01*
X117542100Y-86635571D01*
X117606056Y-86669756D01*
X117693764Y-86741736D01*
X117765744Y-86829443D01*
X117799929Y-86893399D01*
X117819228Y-86929505D01*
X117819229Y-86929508D01*
X117852166Y-87038084D01*
X117860500Y-87122702D01*
X117860500Y-87629297D01*
X117852166Y-87713916D01*
X117819752Y-87820767D01*
X117819228Y-87822495D01*
X117809261Y-87841141D01*
X117765744Y-87922557D01*
X117693764Y-88010264D01*
X117606057Y-88082244D01*
X117542101Y-88116429D01*
X117505995Y-88135728D01*
X117505992Y-88135729D01*
X117397416Y-88168666D01*
X117284500Y-88179787D01*
X117171585Y-88168666D01*
X117063009Y-88135729D01*
X117063006Y-88135728D01*
X117026900Y-88116429D01*
X116962944Y-88082244D01*
X116875237Y-88010264D01*
X116803257Y-87922557D01*
X116759739Y-87841141D01*
X116746125Y-87820766D01*
X116728798Y-87803439D01*
X116708424Y-87789826D01*
X116685785Y-87780448D01*
X116661752Y-87775668D01*
X116637248Y-87775668D01*
X116613215Y-87780448D01*
X116590576Y-87789826D01*
X116570201Y-87803440D01*
X116552874Y-87820767D01*
X116539261Y-87841141D01*
X116495744Y-87922557D01*
X116423764Y-88010264D01*
X116336057Y-88082244D01*
X116272101Y-88116429D01*
X116235995Y-88135728D01*
X116235992Y-88135729D01*
X116127416Y-88168666D01*
X116014500Y-88179787D01*
X115901585Y-88168666D01*
X115793009Y-88135729D01*
X115793006Y-88135728D01*
X115756900Y-88116429D01*
X115692944Y-88082244D01*
X115605237Y-88010264D01*
X115542122Y-87933359D01*
X115524797Y-87916034D01*
X115504423Y-87902420D01*
X115481784Y-87893043D01*
X115457750Y-87888263D01*
X115433246Y-87888263D01*
X115409213Y-87893044D01*
X115386574Y-87902421D01*
X115366200Y-87916035D01*
X115348873Y-87933362D01*
X115335259Y-87953736D01*
X115325882Y-87976375D01*
X115320500Y-88012660D01*
X115320500Y-88177000D01*
X114168500Y-88177000D01*
X114168500Y-86575000D01*
X115320500Y-86575000D01*
X115320500Y-86739341D01*
X115322902Y-86763727D01*
X115330015Y-86787176D01*
X115341566Y-86808787D01*
X115357111Y-86827729D01*
X115376053Y-86843274D01*
X115397664Y-86854825D01*
X115421113Y-86861938D01*
X115445499Y-86864340D01*
X115469885Y-86861938D01*
X115493334Y-86854825D01*
X115514945Y-86843274D01*
X115533887Y-86827729D01*
X115542108Y-86818657D01*
X115605236Y-86741736D01*
X115692943Y-86669756D01*
X115756899Y-86635571D01*
X115793005Y-86616272D01*
X115793008Y-86616271D01*
X115901584Y-86583334D01*
X116014500Y-86572213D01*
X116127415Y-86583334D01*
X116235991Y-86616271D01*
X116235994Y-86616272D01*
X116272100Y-86635571D01*
X116336056Y-86669756D01*
X116423764Y-86741736D01*
X116495744Y-86829443D01*
X116539261Y-86910859D01*
X116552875Y-86931234D01*
X116570202Y-86948561D01*
X116590576Y-86962174D01*
X116613215Y-86971552D01*
X116637248Y-86976332D01*
X116661752Y-86976332D01*
X116685785Y-86971552D01*
X116708424Y-86962174D01*
X116728799Y-86948560D01*
X116746126Y-86931233D01*
X116759739Y-86910860D01*
X116803256Y-86829444D01*
X116875236Y-86741736D01*
X116962943Y-86669756D01*
X117026899Y-86635571D01*
X117063005Y-86616272D01*
X117063008Y-86616271D01*
X117171584Y-86583334D01*
X117284500Y-86572213D01*
X117397415Y-86583334D01*
X117397415Y-86583334D01*
G37*
G36*
X149341064Y-85951389D02*
G01*
X149532333Y-86030615D01*
X149532335Y-86030616D01*
X149704473Y-86145635D01*
X149850865Y-86292027D01*
X149965885Y-86464167D01*
X150045111Y-86655436D01*
X150085500Y-86858484D01*
X150085500Y-87065516D01*
X150045111Y-87268564D01*
X149975036Y-87437740D01*
X149965884Y-87459835D01*
X149850865Y-87631973D01*
X149704473Y-87778365D01*
X149532335Y-87893384D01*
X149532334Y-87893385D01*
X149532333Y-87893385D01*
X149341064Y-87972611D01*
X149138016Y-88013000D01*
X148930984Y-88013000D01*
X148727936Y-87972611D01*
X148536667Y-87893385D01*
X148536666Y-87893385D01*
X148536665Y-87893384D01*
X148364527Y-87778365D01*
X148218135Y-87631973D01*
X148103116Y-87459835D01*
X148093964Y-87437740D01*
X148023889Y-87268564D01*
X147983500Y-87065516D01*
X147983500Y-86858484D01*
X148023889Y-86655436D01*
X148103115Y-86464167D01*
X148218135Y-86292027D01*
X148364527Y-86145635D01*
X148536665Y-86030616D01*
X148536667Y-86030615D01*
X148727936Y-85951389D01*
X148930984Y-85911000D01*
X149138016Y-85911000D01*
X149341064Y-85951389D01*
X149341064Y-85951389D01*
G37*
G36*
X94346085Y-84711802D02*
G01*
X94495910Y-84741604D01*
X94778174Y-84858521D01*
X95032205Y-85028259D01*
X95248241Y-85244295D01*
X95417979Y-85498326D01*
X95534896Y-85780590D01*
X95594500Y-86080240D01*
X95594500Y-86385760D01*
X95534896Y-86685410D01*
X95417979Y-86967674D01*
X95248241Y-87221705D01*
X95032205Y-87437741D01*
X94778174Y-87607479D01*
X94495910Y-87724396D01*
X94346085Y-87754198D01*
X94196261Y-87784000D01*
X93890739Y-87784000D01*
X93740915Y-87754198D01*
X93591090Y-87724396D01*
X93308826Y-87607479D01*
X93054795Y-87437741D01*
X92838759Y-87221705D01*
X92669021Y-86967674D01*
X92552104Y-86685410D01*
X92492500Y-86385760D01*
X92492500Y-86080240D01*
X92552104Y-85780590D01*
X92669021Y-85498326D01*
X92838759Y-85244295D01*
X93054795Y-85028259D01*
X93308826Y-84858521D01*
X93591090Y-84741604D01*
X93740915Y-84711802D01*
X93890739Y-84682000D01*
X94196261Y-84682000D01*
X94346085Y-84711802D01*
X94346085Y-84711802D01*
G37*
G36*
X125134823Y-81901813D02*
G01*
X125295242Y-81950476D01*
X125427906Y-82021386D01*
X125443078Y-82029496D01*
X125572659Y-82135841D01*
X125679004Y-82265422D01*
X125679005Y-82265424D01*
X125758024Y-82413258D01*
X125806687Y-82573677D01*
X125823117Y-82740500D01*
X125806687Y-82907323D01*
X125758024Y-83067742D01*
X125687114Y-83200406D01*
X125679004Y-83215578D01*
X125572659Y-83345159D01*
X125443078Y-83451504D01*
X125443076Y-83451505D01*
X125295242Y-83530524D01*
X125134823Y-83579187D01*
X125009804Y-83591500D01*
X124926196Y-83591500D01*
X124801177Y-83579187D01*
X124640758Y-83530524D01*
X124492924Y-83451505D01*
X124492922Y-83451504D01*
X124363341Y-83345159D01*
X124256996Y-83215578D01*
X124248886Y-83200406D01*
X124177976Y-83067742D01*
X124129313Y-82907323D01*
X124112883Y-82740500D01*
X124129313Y-82573677D01*
X124177976Y-82413258D01*
X124256995Y-82265424D01*
X124256996Y-82265422D01*
X124363341Y-82135841D01*
X124492922Y-82029496D01*
X124508094Y-82021386D01*
X124640758Y-81950476D01*
X124801177Y-81901813D01*
X124926196Y-81889500D01*
X125009804Y-81889500D01*
X125134823Y-81901813D01*
X125134823Y-81901813D01*
G37*
G36*
X132754823Y-81901813D02*
G01*
X132915242Y-81950476D01*
X133047906Y-82021386D01*
X133063078Y-82029496D01*
X133192659Y-82135841D01*
X133299004Y-82265422D01*
X133299005Y-82265424D01*
X133378024Y-82413258D01*
X133426687Y-82573677D01*
X133443117Y-82740500D01*
X133426687Y-82907323D01*
X133378024Y-83067742D01*
X133307114Y-83200406D01*
X133299004Y-83215578D01*
X133192659Y-83345159D01*
X133063078Y-83451504D01*
X133063076Y-83451505D01*
X132915242Y-83530524D01*
X132754823Y-83579187D01*
X132629804Y-83591500D01*
X132546196Y-83591500D01*
X132421177Y-83579187D01*
X132260758Y-83530524D01*
X132112924Y-83451505D01*
X132112922Y-83451504D01*
X131983341Y-83345159D01*
X131876996Y-83215578D01*
X131868886Y-83200406D01*
X131797976Y-83067742D01*
X131749313Y-82907323D01*
X131732883Y-82740500D01*
X131749313Y-82573677D01*
X131797976Y-82413258D01*
X131876995Y-82265424D01*
X131876996Y-82265422D01*
X131983341Y-82135841D01*
X132112922Y-82029496D01*
X132128094Y-82021386D01*
X132260758Y-81950476D01*
X132421177Y-81901813D01*
X132546196Y-81889500D01*
X132629804Y-81889500D01*
X132754823Y-81901813D01*
X132754823Y-81901813D01*
G37*
G36*
X149341064Y-80951389D02*
G01*
X149532333Y-81030615D01*
X149532335Y-81030616D01*
X149704473Y-81145635D01*
X149850865Y-81292027D01*
X149947019Y-81435931D01*
X149965885Y-81464167D01*
X150045111Y-81655436D01*
X150085500Y-81858484D01*
X150085500Y-82065516D01*
X150045111Y-82268564D01*
X149965885Y-82459833D01*
X149965884Y-82459835D01*
X149850865Y-82631973D01*
X149704473Y-82778365D01*
X149532335Y-82893384D01*
X149532334Y-82893385D01*
X149532333Y-82893385D01*
X149341064Y-82972611D01*
X149138016Y-83013000D01*
X148930984Y-83013000D01*
X148727936Y-82972611D01*
X148536667Y-82893385D01*
X148536666Y-82893385D01*
X148536665Y-82893384D01*
X148364527Y-82778365D01*
X148218135Y-82631973D01*
X148103116Y-82459835D01*
X148103115Y-82459833D01*
X148023889Y-82268564D01*
X147983500Y-82065516D01*
X147983500Y-81858484D01*
X148023889Y-81655436D01*
X148103115Y-81464167D01*
X148121982Y-81435931D01*
X148218135Y-81292027D01*
X148364527Y-81145635D01*
X148536665Y-81030616D01*
X148536667Y-81030615D01*
X148727936Y-80951389D01*
X148930984Y-80911000D01*
X149138016Y-80911000D01*
X149341064Y-80951389D01*
X149341064Y-80951389D01*
G37*
G36*
X108546085Y-78711802D02*
G01*
X108695910Y-78741604D01*
X108978174Y-78858521D01*
X109232205Y-79028259D01*
X109448241Y-79244295D01*
X109617979Y-79498326D01*
X109734896Y-79780590D01*
X109794500Y-80080240D01*
X109794500Y-80385760D01*
X109734896Y-80685410D01*
X109617979Y-80967674D01*
X109448241Y-81221705D01*
X109232205Y-81437741D01*
X108978174Y-81607479D01*
X108695910Y-81724396D01*
X108546085Y-81754198D01*
X108396261Y-81784000D01*
X108090739Y-81784000D01*
X107940915Y-81754198D01*
X107791090Y-81724396D01*
X107508826Y-81607479D01*
X107254795Y-81437741D01*
X107038759Y-81221705D01*
X106869021Y-80967674D01*
X106752104Y-80685410D01*
X106692500Y-80385760D01*
X106692500Y-80080240D01*
X106752104Y-79780590D01*
X106869021Y-79498326D01*
X107038759Y-79244295D01*
X107254795Y-79028259D01*
X107508826Y-78858521D01*
X107791090Y-78741604D01*
X107940915Y-78711802D01*
X108090739Y-78682000D01*
X108396261Y-78682000D01*
X108546085Y-78711802D01*
X108546085Y-78711802D01*
G37*
G36*
X96372987Y-79031996D02*
G01*
X96609753Y-79130068D01*
X96609755Y-79130069D01*
X96822839Y-79272447D01*
X97004053Y-79453661D01*
X97099055Y-79595841D01*
X97146432Y-79666747D01*
X97244504Y-79903513D01*
X97294500Y-80154861D01*
X97294500Y-80411139D01*
X97244504Y-80662487D01*
X97185407Y-80805159D01*
X97146431Y-80899255D01*
X97004053Y-81112339D01*
X96822839Y-81293553D01*
X96609755Y-81435931D01*
X96609754Y-81435932D01*
X96609753Y-81435932D01*
X96372987Y-81534004D01*
X96121639Y-81584000D01*
X95865361Y-81584000D01*
X95614013Y-81534004D01*
X95377247Y-81435932D01*
X95377246Y-81435932D01*
X95377245Y-81435931D01*
X95164161Y-81293553D01*
X94982947Y-81112339D01*
X94840569Y-80899255D01*
X94801593Y-80805159D01*
X94742496Y-80662487D01*
X94692500Y-80411139D01*
X94692500Y-80154861D01*
X94742496Y-79903513D01*
X94840568Y-79666747D01*
X94887946Y-79595841D01*
X94982947Y-79453661D01*
X95164161Y-79272447D01*
X95377245Y-79130069D01*
X95377247Y-79130068D01*
X95614013Y-79031996D01*
X95865361Y-78982000D01*
X96121639Y-78982000D01*
X96372987Y-79031996D01*
X96372987Y-79031996D01*
G37*
G36*
X132754823Y-79361813D02*
G01*
X132915242Y-79410476D01*
X132996035Y-79453661D01*
X133063078Y-79489496D01*
X133192659Y-79595841D01*
X133299004Y-79725422D01*
X133299005Y-79725424D01*
X133378024Y-79873258D01*
X133426687Y-80033677D01*
X133443117Y-80200500D01*
X133426687Y-80367323D01*
X133378024Y-80527742D01*
X133307114Y-80660406D01*
X133299004Y-80675578D01*
X133192659Y-80805159D01*
X133063078Y-80911504D01*
X133063076Y-80911505D01*
X132915242Y-80990524D01*
X132754823Y-81039187D01*
X132629804Y-81051500D01*
X132546196Y-81051500D01*
X132421177Y-81039187D01*
X132260758Y-80990524D01*
X132112924Y-80911505D01*
X132112922Y-80911504D01*
X131983341Y-80805159D01*
X131876996Y-80675578D01*
X131868886Y-80660406D01*
X131797976Y-80527742D01*
X131749313Y-80367323D01*
X131732883Y-80200500D01*
X131749313Y-80033677D01*
X131797976Y-79873258D01*
X131876995Y-79725424D01*
X131876996Y-79725422D01*
X131983341Y-79595841D01*
X132112922Y-79489496D01*
X132179965Y-79453661D01*
X132260758Y-79410476D01*
X132421177Y-79361813D01*
X132546196Y-79349500D01*
X132629804Y-79349500D01*
X132754823Y-79361813D01*
X132754823Y-79361813D01*
G37*
G36*
X125819000Y-81051500D02*
G01*
X124117000Y-81051500D01*
X124117000Y-79349500D01*
X125819000Y-79349500D01*
X125819000Y-81051500D01*
X125819000Y-81051500D01*
G37*
G36*
X150085500Y-78013000D02*
G01*
X147983500Y-78013000D01*
X147983500Y-75911000D01*
X150085500Y-75911000D01*
X150085500Y-78013000D01*
X150085500Y-78013000D01*
G37*
G36*
X132141987Y-74504496D02*
G01*
X132378753Y-74602568D01*
X132378755Y-74602569D01*
X132591839Y-74744947D01*
X132773053Y-74926161D01*
X132915432Y-75139247D01*
X133013504Y-75376013D01*
X133063500Y-75627361D01*
X133063500Y-75883639D01*
X133013504Y-76134987D01*
X132915432Y-76371753D01*
X132915431Y-76371755D01*
X132773053Y-76584839D01*
X132591839Y-76766053D01*
X132378755Y-76908431D01*
X132378754Y-76908432D01*
X132378753Y-76908432D01*
X132141987Y-77006504D01*
X131890639Y-77056500D01*
X131634361Y-77056500D01*
X131383013Y-77006504D01*
X131146247Y-76908432D01*
X131146246Y-76908432D01*
X131146245Y-76908431D01*
X130933161Y-76766053D01*
X130751947Y-76584839D01*
X130609569Y-76371755D01*
X130609568Y-76371753D01*
X130511496Y-76134987D01*
X130461500Y-75883639D01*
X130461500Y-75627361D01*
X130511496Y-75376013D01*
X130609568Y-75139247D01*
X130751947Y-74926161D01*
X130933161Y-74744947D01*
X131146245Y-74602569D01*
X131146247Y-74602568D01*
X131383013Y-74504496D01*
X131634361Y-74454500D01*
X131890639Y-74454500D01*
X132141987Y-74504496D01*
X132141987Y-74504496D01*
G37*
G36*
X143697571Y-70310563D02*
G01*
X143893800Y-70370089D01*
X144074646Y-70466753D01*
X144115937Y-70500640D01*
X144233160Y-70596840D01*
X144363248Y-70755355D01*
X144438483Y-70896110D01*
X144459911Y-70936199D01*
X144519437Y-71132428D01*
X144534500Y-71285368D01*
X144534500Y-73367632D01*
X144519437Y-73520572D01*
X144459911Y-73716801D01*
X144459910Y-73716803D01*
X144363248Y-73897645D01*
X144233160Y-74056160D01*
X144074645Y-74186248D01*
X143893803Y-74282910D01*
X143893801Y-74282911D01*
X143697572Y-74342437D01*
X143493500Y-74362536D01*
X143289429Y-74342437D01*
X143093200Y-74282911D01*
X143093198Y-74282910D01*
X142912356Y-74186248D01*
X142753841Y-74056160D01*
X142623753Y-73897645D01*
X142527091Y-73716803D01*
X142527090Y-73716801D01*
X142467564Y-73520572D01*
X142452501Y-73367632D01*
X142452500Y-71285369D01*
X142467563Y-71132429D01*
X142527089Y-70936200D01*
X142548518Y-70896110D01*
X142623752Y-70755356D01*
X142623753Y-70755354D01*
X142657640Y-70714063D01*
X142753840Y-70596840D01*
X142912355Y-70466752D01*
X143093197Y-70370090D01*
X143093199Y-70370089D01*
X143289428Y-70310563D01*
X143493500Y-70290464D01*
X143697571Y-70310563D01*
X143697571Y-70310563D01*
G37*
G36*
X139534500Y-74357500D02*
G01*
X137452500Y-74357500D01*
X137452500Y-70295500D01*
X139534500Y-70295500D01*
X139534500Y-74357500D01*
X139534500Y-74357500D01*
G37*
G36*
X121302500Y-73296500D02*
G01*
X118600500Y-73296500D01*
X118600500Y-70594500D01*
X121302500Y-70594500D01*
X121302500Y-73296500D01*
X121302500Y-73296500D01*
G37*
G36*
X125345572Y-70646418D02*
G01*
X125591439Y-70748259D01*
X125602060Y-70755356D01*
X125812711Y-70896109D01*
X126000891Y-71084289D01*
X126071232Y-71189562D01*
X126135248Y-71285367D01*
X126148742Y-71305563D01*
X126250582Y-71551428D01*
X126279427Y-71696439D01*
X126302500Y-71812438D01*
X126302500Y-72078562D01*
X126250582Y-72339572D01*
X126148741Y-72585439D01*
X126000890Y-72806712D01*
X125812712Y-72994890D01*
X125591439Y-73142741D01*
X125591438Y-73142742D01*
X125591437Y-73142742D01*
X125345572Y-73244582D01*
X125084563Y-73296500D01*
X124818437Y-73296500D01*
X124557428Y-73244582D01*
X124311563Y-73142742D01*
X124311562Y-73142742D01*
X124311561Y-73142741D01*
X124090288Y-72994890D01*
X123902110Y-72806712D01*
X123754259Y-72585439D01*
X123652418Y-72339572D01*
X123600500Y-72078562D01*
X123600500Y-71812438D01*
X123623574Y-71696439D01*
X123652418Y-71551428D01*
X123754258Y-71305563D01*
X123767753Y-71285367D01*
X123831768Y-71189562D01*
X123902109Y-71084289D01*
X124090289Y-70896109D01*
X124300940Y-70755356D01*
X124311561Y-70748259D01*
X124557428Y-70646418D01*
X124818437Y-70594500D01*
X125084563Y-70594500D01*
X125345572Y-70646418D01*
X125345572Y-70646418D01*
G37*
G36*
X106888000Y-72407500D02*
G01*
X104186000Y-72407500D01*
X104186000Y-69705500D01*
X106888000Y-69705500D01*
X106888000Y-72407500D01*
X106888000Y-72407500D01*
G37*
G36*
X100931072Y-69757418D02*
G01*
X101176939Y-69859259D01*
X101288328Y-69933687D01*
X101398211Y-70007109D01*
X101586391Y-70195289D01*
X101734242Y-70416563D01*
X101836082Y-70662428D01*
X101888000Y-70923437D01*
X101888000Y-71189563D01*
X101864926Y-71305563D01*
X101836082Y-71450572D01*
X101734241Y-71696439D01*
X101586390Y-71917712D01*
X101398212Y-72105890D01*
X101176939Y-72253741D01*
X101176938Y-72253742D01*
X101176937Y-72253742D01*
X100931072Y-72355582D01*
X100670063Y-72407500D01*
X100403937Y-72407500D01*
X100142928Y-72355582D01*
X99897063Y-72253742D01*
X99897062Y-72253742D01*
X99897061Y-72253741D01*
X99675788Y-72105890D01*
X99487610Y-71917712D01*
X99339759Y-71696439D01*
X99237918Y-71450572D01*
X99209074Y-71305563D01*
X99186000Y-71189563D01*
X99186000Y-70923437D01*
X99237918Y-70662428D01*
X99339758Y-70416563D01*
X99487609Y-70195289D01*
X99675789Y-70007109D01*
X99785672Y-69933687D01*
X99897061Y-69859259D01*
X100142928Y-69757418D01*
X100403937Y-69705500D01*
X100670063Y-69705500D01*
X100931072Y-69757418D01*
X100931072Y-69757418D01*
G37*
G36*
X95931072Y-69757418D02*
G01*
X96176939Y-69859259D01*
X96288328Y-69933687D01*
X96398211Y-70007109D01*
X96586391Y-70195289D01*
X96734242Y-70416563D01*
X96836082Y-70662428D01*
X96888000Y-70923437D01*
X96888000Y-71189563D01*
X96864926Y-71305563D01*
X96836082Y-71450572D01*
X96734241Y-71696439D01*
X96586390Y-71917712D01*
X96398212Y-72105890D01*
X96176939Y-72253741D01*
X96176938Y-72253742D01*
X96176937Y-72253742D01*
X95931072Y-72355582D01*
X95670063Y-72407500D01*
X95403937Y-72407500D01*
X95142928Y-72355582D01*
X94897063Y-72253742D01*
X94897062Y-72253742D01*
X94897061Y-72253741D01*
X94675788Y-72105890D01*
X94487610Y-71917712D01*
X94339759Y-71696439D01*
X94237918Y-71450572D01*
X94209074Y-71305563D01*
X94186000Y-71189563D01*
X94186000Y-70923437D01*
X94237918Y-70662428D01*
X94339758Y-70416563D01*
X94487609Y-70195289D01*
X94675789Y-70007109D01*
X94785672Y-69933687D01*
X94897061Y-69859259D01*
X95142928Y-69757418D01*
X95403937Y-69705500D01*
X95670063Y-69705500D01*
X95931072Y-69757418D01*
X95931072Y-69757418D01*
G37*
M02*
