G04 #@! TF.GenerationSoftware,KiCad,Pcbnew,(5.1.2)-1*
G04 #@! TF.CreationDate,2019-07-04T14:52:25+03:00*
G04 #@! TF.ProjectId,Elevator_FirePanel Board,456c6576-6174-46f7-925f-466972655061,rev?*
G04 #@! TF.SameCoordinates,Original*
G04 #@! TF.FileFunction,Soldermask,Top*
G04 #@! TF.FilePolarity,Negative*
%FSLAX46Y46*%
G04 Gerber Fmt 4.6, Leading zero omitted, Abs format (unit mm)*
G04 Created by KiCad (PCBNEW (5.1.2)-1) date 2019-07-04 14:52:25*
%MOMM*%
%LPD*%
G04 APERTURE LIST*
%ADD10C,0.100000*%
G04 APERTURE END LIST*
D10*
G36*
X136142487Y-94252996D02*
G01*
X136379253Y-94351068D01*
X136379255Y-94351069D01*
X136592339Y-94493447D01*
X136773553Y-94674661D01*
X136873502Y-94824245D01*
X136915932Y-94887747D01*
X137014004Y-95124513D01*
X137064000Y-95375861D01*
X137064000Y-95632139D01*
X137014004Y-95883487D01*
X136942234Y-96056755D01*
X136915931Y-96120255D01*
X136773553Y-96333339D01*
X136592339Y-96514553D01*
X136379255Y-96656931D01*
X136379254Y-96656932D01*
X136379253Y-96656932D01*
X136142487Y-96755004D01*
X135891139Y-96805000D01*
X135634861Y-96805000D01*
X135383513Y-96755004D01*
X135146747Y-96656932D01*
X135146746Y-96656932D01*
X135146745Y-96656931D01*
X134933661Y-96514553D01*
X134752447Y-96333339D01*
X134610069Y-96120255D01*
X134583766Y-96056755D01*
X134511996Y-95883487D01*
X134462000Y-95632139D01*
X134462000Y-95375861D01*
X134511996Y-95124513D01*
X134610068Y-94887747D01*
X134652499Y-94824245D01*
X134752447Y-94674661D01*
X134933661Y-94493447D01*
X135146745Y-94351069D01*
X135146747Y-94351068D01*
X135383513Y-94252996D01*
X135634861Y-94203000D01*
X135891139Y-94203000D01*
X136142487Y-94252996D01*
X136142487Y-94252996D01*
G37*
G36*
X116393987Y-94189496D02*
G01*
X116547291Y-94252997D01*
X116630755Y-94287569D01*
X116824462Y-94417000D01*
X116843839Y-94429947D01*
X117025053Y-94611161D01*
X117167432Y-94824247D01*
X117265504Y-95061013D01*
X117315500Y-95312361D01*
X117315500Y-95568639D01*
X117265504Y-95819987D01*
X117167432Y-96056753D01*
X117167431Y-96056755D01*
X117025053Y-96269839D01*
X116843839Y-96451053D01*
X116630755Y-96593431D01*
X116630754Y-96593432D01*
X116630753Y-96593432D01*
X116393987Y-96691504D01*
X116142639Y-96741500D01*
X115886361Y-96741500D01*
X115635013Y-96691504D01*
X115398247Y-96593432D01*
X115398246Y-96593432D01*
X115398245Y-96593431D01*
X115185161Y-96451053D01*
X115003947Y-96269839D01*
X114861569Y-96056755D01*
X114861568Y-96056753D01*
X114763496Y-95819987D01*
X114713500Y-95568639D01*
X114713500Y-95312361D01*
X114763496Y-95061013D01*
X114861568Y-94824247D01*
X115003947Y-94611161D01*
X115185161Y-94429947D01*
X115204538Y-94417000D01*
X115398245Y-94287569D01*
X115481709Y-94252997D01*
X115635013Y-94189496D01*
X115886361Y-94139500D01*
X116142639Y-94139500D01*
X116393987Y-94189496D01*
X116393987Y-94189496D01*
G37*
G36*
X131901500Y-95419000D02*
G01*
X130099500Y-95419000D01*
X130099500Y-94417000D01*
X131901500Y-94417000D01*
X131901500Y-95419000D01*
X131901500Y-95419000D01*
G37*
G36*
X127505000Y-93991000D02*
G01*
X124823000Y-93991000D01*
X124823000Y-92889000D01*
X127505000Y-92889000D01*
X127505000Y-93991000D01*
X127505000Y-93991000D01*
G37*
G36*
X123335000Y-93991000D02*
G01*
X120653000Y-93991000D01*
X120653000Y-92889000D01*
X123335000Y-92889000D01*
X123335000Y-93991000D01*
X123335000Y-93991000D01*
G37*
G36*
X108496085Y-90761802D02*
G01*
X108645910Y-90791604D01*
X108928174Y-90908521D01*
X109182205Y-91078259D01*
X109398241Y-91294295D01*
X109567979Y-91548326D01*
X109684896Y-91830590D01*
X109744500Y-92130240D01*
X109744500Y-92435760D01*
X109684896Y-92735410D01*
X109567979Y-93017674D01*
X109398241Y-93271705D01*
X109182205Y-93487741D01*
X108928174Y-93657479D01*
X108645910Y-93774396D01*
X108496085Y-93804198D01*
X108346261Y-93834000D01*
X108040739Y-93834000D01*
X107890915Y-93804198D01*
X107741090Y-93774396D01*
X107458826Y-93657479D01*
X107204795Y-93487741D01*
X106988759Y-93271705D01*
X106819021Y-93017674D01*
X106702104Y-92735410D01*
X106642500Y-92435760D01*
X106642500Y-92130240D01*
X106702104Y-91830590D01*
X106819021Y-91548326D01*
X106988759Y-91294295D01*
X107204795Y-91078259D01*
X107458826Y-90908521D01*
X107741090Y-90791604D01*
X107890915Y-90761802D01*
X108040739Y-90732000D01*
X108346261Y-90732000D01*
X108496085Y-90761802D01*
X108496085Y-90761802D01*
G37*
G36*
X96372987Y-91031996D02*
G01*
X96604369Y-91127838D01*
X96609755Y-91130069D01*
X96822839Y-91272447D01*
X97004053Y-91453661D01*
X97138875Y-91655436D01*
X97146432Y-91666747D01*
X97244504Y-91903513D01*
X97294500Y-92154861D01*
X97294500Y-92411139D01*
X97244504Y-92662487D01*
X97146432Y-92899253D01*
X97146431Y-92899255D01*
X97004053Y-93112339D01*
X96822839Y-93293553D01*
X96609755Y-93435931D01*
X96609754Y-93435932D01*
X96609753Y-93435932D01*
X96372987Y-93534004D01*
X96121639Y-93584000D01*
X95865361Y-93584000D01*
X95614013Y-93534004D01*
X95377247Y-93435932D01*
X95377246Y-93435932D01*
X95377245Y-93435931D01*
X95164161Y-93293553D01*
X94982947Y-93112339D01*
X94840569Y-92899255D01*
X94840568Y-92899253D01*
X94742496Y-92662487D01*
X94692500Y-92411139D01*
X94692500Y-92154861D01*
X94742496Y-91903513D01*
X94840568Y-91666747D01*
X94848126Y-91655436D01*
X94982947Y-91453661D01*
X95164161Y-91272447D01*
X95377245Y-91130069D01*
X95382631Y-91127838D01*
X95614013Y-91031996D01*
X95865361Y-90982000D01*
X96121639Y-90982000D01*
X96372987Y-91031996D01*
X96372987Y-91031996D01*
G37*
G36*
X149341064Y-90951389D02*
G01*
X149499463Y-91017000D01*
X149532335Y-91030616D01*
X149704473Y-91145635D01*
X149850865Y-91292027D01*
X149898246Y-91362937D01*
X149965885Y-91464167D01*
X150045111Y-91655436D01*
X150085500Y-91858484D01*
X150085500Y-92065516D01*
X150045111Y-92268564D01*
X149975856Y-92435760D01*
X149965884Y-92459835D01*
X149850865Y-92631973D01*
X149704473Y-92778365D01*
X149532335Y-92893384D01*
X149532334Y-92893385D01*
X149532333Y-92893385D01*
X149341064Y-92972611D01*
X149138016Y-93013000D01*
X148930984Y-93013000D01*
X148727936Y-92972611D01*
X148536667Y-92893385D01*
X148536666Y-92893385D01*
X148536665Y-92893384D01*
X148364527Y-92778365D01*
X148218135Y-92631973D01*
X148103116Y-92459835D01*
X148093144Y-92435760D01*
X148023889Y-92268564D01*
X147983500Y-92065516D01*
X147983500Y-91858484D01*
X148023889Y-91655436D01*
X148103115Y-91464167D01*
X148170755Y-91362937D01*
X148218135Y-91292027D01*
X148364527Y-91145635D01*
X148536665Y-91030616D01*
X148569537Y-91017000D01*
X148727936Y-90951389D01*
X148930984Y-90911000D01*
X149138016Y-90911000D01*
X149341064Y-90951389D01*
X149341064Y-90951389D01*
G37*
G36*
X145337997Y-91101051D02*
G01*
X145371652Y-91111261D01*
X145402665Y-91127838D01*
X145429851Y-91150149D01*
X145452162Y-91177335D01*
X145468739Y-91208348D01*
X145478949Y-91242003D01*
X145483000Y-91283138D01*
X145483000Y-92612862D01*
X145478949Y-92653997D01*
X145468739Y-92687652D01*
X145452162Y-92718665D01*
X145429851Y-92745851D01*
X145402665Y-92768162D01*
X145371652Y-92784739D01*
X145337997Y-92794949D01*
X145296862Y-92799000D01*
X142567138Y-92799000D01*
X142526003Y-92794949D01*
X142492348Y-92784739D01*
X142461335Y-92768162D01*
X142434149Y-92745851D01*
X142411838Y-92718665D01*
X142395261Y-92687652D01*
X142385051Y-92653997D01*
X142381000Y-92612862D01*
X142381000Y-91283138D01*
X142385051Y-91242003D01*
X142395261Y-91208348D01*
X142411838Y-91177335D01*
X142434149Y-91150149D01*
X142461335Y-91127838D01*
X142492348Y-91111261D01*
X142526003Y-91101051D01*
X142567138Y-91097000D01*
X145296862Y-91097000D01*
X145337997Y-91101051D01*
X145337997Y-91101051D01*
G37*
G36*
X140937997Y-91101051D02*
G01*
X140971652Y-91111261D01*
X141002665Y-91127838D01*
X141029851Y-91150149D01*
X141052162Y-91177335D01*
X141068739Y-91208348D01*
X141078949Y-91242003D01*
X141083000Y-91283138D01*
X141083000Y-92612862D01*
X141078949Y-92653997D01*
X141068739Y-92687652D01*
X141052162Y-92718665D01*
X141029851Y-92745851D01*
X141002665Y-92768162D01*
X140971652Y-92784739D01*
X140937997Y-92794949D01*
X140896862Y-92799000D01*
X138167138Y-92799000D01*
X138126003Y-92794949D01*
X138092348Y-92784739D01*
X138061335Y-92768162D01*
X138034149Y-92745851D01*
X138011838Y-92718665D01*
X137995261Y-92687652D01*
X137985051Y-92653997D01*
X137981000Y-92612862D01*
X137981000Y-91283138D01*
X137985051Y-91242003D01*
X137995261Y-91208348D01*
X138011838Y-91177335D01*
X138034149Y-91150149D01*
X138061335Y-91127838D01*
X138092348Y-91111261D01*
X138126003Y-91101051D01*
X138167138Y-91097000D01*
X140896862Y-91097000D01*
X140937997Y-91101051D01*
X140937997Y-91101051D01*
G37*
G36*
X131901500Y-92019000D02*
G01*
X130099500Y-92019000D01*
X130099500Y-91017000D01*
X131901500Y-91017000D01*
X131901500Y-92019000D01*
X131901500Y-92019000D01*
G37*
G36*
X116550674Y-90502965D02*
G01*
X116588367Y-90514399D01*
X116623103Y-90532966D01*
X116653548Y-90557952D01*
X116678534Y-90588397D01*
X116697101Y-90623133D01*
X116708535Y-90660826D01*
X116713000Y-90706161D01*
X116713000Y-91792839D01*
X116708535Y-91838174D01*
X116697101Y-91875867D01*
X116678534Y-91910603D01*
X116653548Y-91941048D01*
X116623103Y-91966034D01*
X116588367Y-91984601D01*
X116550674Y-91996035D01*
X116505339Y-92000500D01*
X115668661Y-92000500D01*
X115623326Y-91996035D01*
X115585633Y-91984601D01*
X115550897Y-91966034D01*
X115520452Y-91941048D01*
X115495466Y-91910603D01*
X115476899Y-91875867D01*
X115465465Y-91838174D01*
X115461000Y-91792839D01*
X115461000Y-90706161D01*
X115465465Y-90660826D01*
X115476899Y-90623133D01*
X115495466Y-90588397D01*
X115520452Y-90557952D01*
X115550897Y-90532966D01*
X115585633Y-90514399D01*
X115623326Y-90502965D01*
X115668661Y-90498500D01*
X116505339Y-90498500D01*
X116550674Y-90502965D01*
X116550674Y-90502965D01*
G37*
G36*
X114500674Y-90502965D02*
G01*
X114538367Y-90514399D01*
X114573103Y-90532966D01*
X114603548Y-90557952D01*
X114628534Y-90588397D01*
X114647101Y-90623133D01*
X114658535Y-90660826D01*
X114663000Y-90706161D01*
X114663000Y-91792839D01*
X114658535Y-91838174D01*
X114647101Y-91875867D01*
X114628534Y-91910603D01*
X114603548Y-91941048D01*
X114573103Y-91966034D01*
X114538367Y-91984601D01*
X114500674Y-91996035D01*
X114455339Y-92000500D01*
X113618661Y-92000500D01*
X113573326Y-91996035D01*
X113535633Y-91984601D01*
X113500897Y-91966034D01*
X113470452Y-91941048D01*
X113445466Y-91910603D01*
X113426899Y-91875867D01*
X113415465Y-91838174D01*
X113411000Y-91792839D01*
X113411000Y-90706161D01*
X113415465Y-90660826D01*
X113426899Y-90623133D01*
X113445466Y-90588397D01*
X113470452Y-90557952D01*
X113500897Y-90532966D01*
X113535633Y-90514399D01*
X113573326Y-90502965D01*
X113618661Y-90498500D01*
X114455339Y-90498500D01*
X114500674Y-90502965D01*
X114500674Y-90502965D01*
G37*
G36*
X123335000Y-91991000D02*
G01*
X120653000Y-91991000D01*
X120653000Y-90889000D01*
X123335000Y-90889000D01*
X123335000Y-91991000D01*
X123335000Y-91991000D01*
G37*
G36*
X127505000Y-91991000D02*
G01*
X124823000Y-91991000D01*
X124823000Y-90889000D01*
X127505000Y-90889000D01*
X127505000Y-91991000D01*
X127505000Y-91991000D01*
G37*
G36*
X123335000Y-89991000D02*
G01*
X120653000Y-89991000D01*
X120653000Y-88889000D01*
X123335000Y-88889000D01*
X123335000Y-89991000D01*
X123335000Y-89991000D01*
G37*
G36*
X127505000Y-89991000D02*
G01*
X124823000Y-89991000D01*
X124823000Y-88889000D01*
X127505000Y-88889000D01*
X127505000Y-89991000D01*
X127505000Y-89991000D01*
G37*
G36*
X137146497Y-86719551D02*
G01*
X137180152Y-86729761D01*
X137211165Y-86746338D01*
X137238351Y-86768649D01*
X137260662Y-86795835D01*
X137277239Y-86826848D01*
X137287449Y-86860503D01*
X137291500Y-86901638D01*
X137291500Y-88231362D01*
X137287449Y-88272497D01*
X137277239Y-88306152D01*
X137260662Y-88337165D01*
X137238351Y-88364351D01*
X137211165Y-88386662D01*
X137180152Y-88403239D01*
X137146497Y-88413449D01*
X137105362Y-88417500D01*
X134375638Y-88417500D01*
X134334503Y-88413449D01*
X134300848Y-88403239D01*
X134269835Y-88386662D01*
X134242649Y-88364351D01*
X134220338Y-88337165D01*
X134203761Y-88306152D01*
X134193551Y-88272497D01*
X134189500Y-88231362D01*
X134189500Y-86901638D01*
X134193551Y-86860503D01*
X134203761Y-86826848D01*
X134220338Y-86795835D01*
X134242649Y-86768649D01*
X134269835Y-86746338D01*
X134300848Y-86729761D01*
X134334503Y-86719551D01*
X134375638Y-86715500D01*
X137105362Y-86715500D01*
X137146497Y-86719551D01*
X137146497Y-86719551D01*
G37*
G36*
X132746497Y-86719551D02*
G01*
X132780152Y-86729761D01*
X132811165Y-86746338D01*
X132838351Y-86768649D01*
X132860662Y-86795835D01*
X132877239Y-86826848D01*
X132887449Y-86860503D01*
X132891500Y-86901638D01*
X132891500Y-88231362D01*
X132887449Y-88272497D01*
X132877239Y-88306152D01*
X132860662Y-88337165D01*
X132838351Y-88364351D01*
X132811165Y-88386662D01*
X132780152Y-88403239D01*
X132746497Y-88413449D01*
X132705362Y-88417500D01*
X129975638Y-88417500D01*
X129934503Y-88413449D01*
X129900848Y-88403239D01*
X129869835Y-88386662D01*
X129842649Y-88364351D01*
X129820338Y-88337165D01*
X129803761Y-88306152D01*
X129793551Y-88272497D01*
X129789500Y-88231362D01*
X129789500Y-86901638D01*
X129793551Y-86860503D01*
X129803761Y-86826848D01*
X129820338Y-86795835D01*
X129842649Y-86768649D01*
X129869835Y-86746338D01*
X129900848Y-86729761D01*
X129934503Y-86719551D01*
X129975638Y-86715500D01*
X132705362Y-86715500D01*
X132746497Y-86719551D01*
X132746497Y-86719551D01*
G37*
G36*
X142469500Y-88338500D02*
G01*
X140867500Y-88338500D01*
X140867500Y-86236500D01*
X142469500Y-86236500D01*
X142469500Y-88338500D01*
X142469500Y-88338500D01*
G37*
G36*
X144769500Y-88338500D02*
G01*
X143167500Y-88338500D01*
X143167500Y-86236500D01*
X144769500Y-86236500D01*
X144769500Y-88338500D01*
X144769500Y-88338500D01*
G37*
G36*
X140169500Y-88338500D02*
G01*
X138567500Y-88338500D01*
X138567500Y-86236500D01*
X140169500Y-86236500D01*
X140169500Y-88338500D01*
X140169500Y-88338500D01*
G37*
G36*
X117397415Y-86583334D02*
G01*
X117505991Y-86616271D01*
X117505994Y-86616272D01*
X117542100Y-86635571D01*
X117606056Y-86669756D01*
X117693764Y-86741736D01*
X117765744Y-86829443D01*
X117792589Y-86879667D01*
X117819228Y-86929505D01*
X117819229Y-86929508D01*
X117852166Y-87038084D01*
X117860500Y-87122702D01*
X117860500Y-87629297D01*
X117852166Y-87713916D01*
X117819752Y-87820767D01*
X117819228Y-87822495D01*
X117809261Y-87841141D01*
X117765744Y-87922557D01*
X117693764Y-88010264D01*
X117606057Y-88082244D01*
X117542101Y-88116429D01*
X117505995Y-88135728D01*
X117505992Y-88135729D01*
X117397416Y-88168666D01*
X117284500Y-88179787D01*
X117171585Y-88168666D01*
X117063009Y-88135729D01*
X117063006Y-88135728D01*
X117026900Y-88116429D01*
X116962944Y-88082244D01*
X116875237Y-88010264D01*
X116803257Y-87922557D01*
X116759739Y-87841141D01*
X116746125Y-87820766D01*
X116728798Y-87803439D01*
X116708424Y-87789826D01*
X116685785Y-87780448D01*
X116661752Y-87775668D01*
X116637248Y-87775668D01*
X116613215Y-87780448D01*
X116590576Y-87789826D01*
X116570201Y-87803440D01*
X116552874Y-87820767D01*
X116539261Y-87841141D01*
X116495744Y-87922557D01*
X116423764Y-88010264D01*
X116336057Y-88082244D01*
X116272101Y-88116429D01*
X116235995Y-88135728D01*
X116235992Y-88135729D01*
X116127416Y-88168666D01*
X116014500Y-88179787D01*
X115901585Y-88168666D01*
X115793009Y-88135729D01*
X115793006Y-88135728D01*
X115756900Y-88116429D01*
X115692944Y-88082244D01*
X115605237Y-88010264D01*
X115542122Y-87933359D01*
X115524797Y-87916034D01*
X115504423Y-87902420D01*
X115481784Y-87893043D01*
X115457750Y-87888263D01*
X115433246Y-87888263D01*
X115409213Y-87893044D01*
X115386574Y-87902421D01*
X115366200Y-87916035D01*
X115348873Y-87933362D01*
X115335259Y-87953736D01*
X115325882Y-87976375D01*
X115320500Y-88012660D01*
X115320500Y-88177000D01*
X114168500Y-88177000D01*
X114168500Y-86575000D01*
X115320500Y-86575000D01*
X115320500Y-86739341D01*
X115322902Y-86763727D01*
X115330015Y-86787176D01*
X115341566Y-86808787D01*
X115357111Y-86827729D01*
X115376053Y-86843274D01*
X115397664Y-86854825D01*
X115421113Y-86861938D01*
X115445499Y-86864340D01*
X115469885Y-86861938D01*
X115493334Y-86854825D01*
X115514945Y-86843274D01*
X115533887Y-86827729D01*
X115542108Y-86818657D01*
X115605236Y-86741736D01*
X115692943Y-86669756D01*
X115756899Y-86635571D01*
X115793005Y-86616272D01*
X115793008Y-86616271D01*
X115901584Y-86583334D01*
X116014500Y-86572213D01*
X116127415Y-86583334D01*
X116235991Y-86616271D01*
X116235994Y-86616272D01*
X116272100Y-86635571D01*
X116336056Y-86669756D01*
X116423764Y-86741736D01*
X116495744Y-86829443D01*
X116534332Y-86901638D01*
X116539261Y-86910859D01*
X116552875Y-86931234D01*
X116570202Y-86948561D01*
X116590576Y-86962174D01*
X116613215Y-86971552D01*
X116637248Y-86976332D01*
X116661752Y-86976332D01*
X116685785Y-86971552D01*
X116708424Y-86962174D01*
X116728799Y-86948560D01*
X116746126Y-86931233D01*
X116759739Y-86910860D01*
X116803256Y-86829444D01*
X116875236Y-86741736D01*
X116962943Y-86669756D01*
X117026899Y-86635571D01*
X117063005Y-86616272D01*
X117063008Y-86616271D01*
X117171584Y-86583334D01*
X117284500Y-86572213D01*
X117397415Y-86583334D01*
X117397415Y-86583334D01*
G37*
G36*
X149341064Y-85951389D02*
G01*
X149532333Y-86030615D01*
X149532335Y-86030616D01*
X149704473Y-86145635D01*
X149850865Y-86292027D01*
X149965885Y-86464167D01*
X150045111Y-86655436D01*
X150085500Y-86858484D01*
X150085500Y-87065516D01*
X150045111Y-87268564D01*
X149975036Y-87437740D01*
X149965884Y-87459835D01*
X149850865Y-87631973D01*
X149704473Y-87778365D01*
X149532335Y-87893384D01*
X149532334Y-87893385D01*
X149532333Y-87893385D01*
X149341064Y-87972611D01*
X149138016Y-88013000D01*
X148930984Y-88013000D01*
X148727936Y-87972611D01*
X148536667Y-87893385D01*
X148536666Y-87893385D01*
X148536665Y-87893384D01*
X148364527Y-87778365D01*
X148218135Y-87631973D01*
X148103116Y-87459835D01*
X148093964Y-87437740D01*
X148023889Y-87268564D01*
X147983500Y-87065516D01*
X147983500Y-86858484D01*
X148023889Y-86655436D01*
X148103115Y-86464167D01*
X148218135Y-86292027D01*
X148364527Y-86145635D01*
X148536665Y-86030616D01*
X148536667Y-86030615D01*
X148727936Y-85951389D01*
X148930984Y-85911000D01*
X149138016Y-85911000D01*
X149341064Y-85951389D01*
X149341064Y-85951389D01*
G37*
G36*
X94346085Y-84711802D02*
G01*
X94495910Y-84741604D01*
X94778174Y-84858521D01*
X95032205Y-85028259D01*
X95248241Y-85244295D01*
X95417979Y-85498326D01*
X95534896Y-85780590D01*
X95594500Y-86080240D01*
X95594500Y-86385760D01*
X95534896Y-86685410D01*
X95417979Y-86967674D01*
X95248241Y-87221705D01*
X95032205Y-87437741D01*
X94778174Y-87607479D01*
X94495910Y-87724396D01*
X94346085Y-87754198D01*
X94196261Y-87784000D01*
X93890739Y-87784000D01*
X93740915Y-87754198D01*
X93591090Y-87724396D01*
X93308826Y-87607479D01*
X93054795Y-87437741D01*
X92838759Y-87221705D01*
X92669021Y-86967674D01*
X92552104Y-86685410D01*
X92492500Y-86385760D01*
X92492500Y-86080240D01*
X92552104Y-85780590D01*
X92669021Y-85498326D01*
X92838759Y-85244295D01*
X93054795Y-85028259D01*
X93308826Y-84858521D01*
X93591090Y-84741604D01*
X93740915Y-84711802D01*
X93890739Y-84682000D01*
X94196261Y-84682000D01*
X94346085Y-84711802D01*
X94346085Y-84711802D01*
G37*
G36*
X123080174Y-83905965D02*
G01*
X123117867Y-83917399D01*
X123152603Y-83935966D01*
X123183048Y-83960952D01*
X123208034Y-83991397D01*
X123226601Y-84026133D01*
X123238035Y-84063826D01*
X123242500Y-84109161D01*
X123242500Y-84945839D01*
X123238035Y-84991174D01*
X123226601Y-85028867D01*
X123208034Y-85063603D01*
X123183048Y-85094048D01*
X123152603Y-85119034D01*
X123117867Y-85137601D01*
X123080174Y-85149035D01*
X123034839Y-85153500D01*
X121948161Y-85153500D01*
X121902826Y-85149035D01*
X121865133Y-85137601D01*
X121830397Y-85119034D01*
X121799952Y-85094048D01*
X121774966Y-85063603D01*
X121756399Y-85028867D01*
X121744965Y-84991174D01*
X121740500Y-84945839D01*
X121740500Y-84109161D01*
X121744965Y-84063826D01*
X121756399Y-84026133D01*
X121774966Y-83991397D01*
X121799952Y-83960952D01*
X121830397Y-83935966D01*
X121865133Y-83917399D01*
X121902826Y-83905965D01*
X121948161Y-83901500D01*
X123034839Y-83901500D01*
X123080174Y-83905965D01*
X123080174Y-83905965D01*
G37*
G36*
X136351674Y-82508965D02*
G01*
X136389367Y-82520399D01*
X136424103Y-82538966D01*
X136454548Y-82563952D01*
X136479534Y-82594397D01*
X136498101Y-82629133D01*
X136509535Y-82666826D01*
X136514000Y-82712161D01*
X136514000Y-83548839D01*
X136509535Y-83594174D01*
X136498101Y-83631867D01*
X136479534Y-83666603D01*
X136454548Y-83697048D01*
X136424103Y-83722034D01*
X136389367Y-83740601D01*
X136351674Y-83752035D01*
X136306339Y-83756500D01*
X135219661Y-83756500D01*
X135174326Y-83752035D01*
X135136633Y-83740601D01*
X135101897Y-83722034D01*
X135071452Y-83697048D01*
X135046466Y-83666603D01*
X135027899Y-83631867D01*
X135016465Y-83594174D01*
X135012000Y-83548839D01*
X135012000Y-82712161D01*
X135016465Y-82666826D01*
X135027899Y-82629133D01*
X135046466Y-82594397D01*
X135071452Y-82563952D01*
X135101897Y-82538966D01*
X135136633Y-82520399D01*
X135174326Y-82508965D01*
X135219661Y-82504500D01*
X136306339Y-82504500D01*
X136351674Y-82508965D01*
X136351674Y-82508965D01*
G37*
G36*
X132754823Y-81901813D02*
G01*
X132915242Y-81950476D01*
X133001165Y-81996403D01*
X133063078Y-82029496D01*
X133192659Y-82135841D01*
X133299004Y-82265422D01*
X133299005Y-82265424D01*
X133378024Y-82413258D01*
X133426687Y-82573677D01*
X133443117Y-82740500D01*
X133426687Y-82907323D01*
X133378024Y-83067742D01*
X133307114Y-83200406D01*
X133299004Y-83215578D01*
X133192659Y-83345159D01*
X133063078Y-83451504D01*
X133063076Y-83451505D01*
X132915242Y-83530524D01*
X132754823Y-83579187D01*
X132629804Y-83591500D01*
X132546196Y-83591500D01*
X132421177Y-83579187D01*
X132260758Y-83530524D01*
X132112924Y-83451505D01*
X132112922Y-83451504D01*
X131983341Y-83345159D01*
X131876996Y-83215578D01*
X131868886Y-83200406D01*
X131797976Y-83067742D01*
X131749313Y-82907323D01*
X131732883Y-82740500D01*
X131749313Y-82573677D01*
X131797976Y-82413258D01*
X131876995Y-82265424D01*
X131876996Y-82265422D01*
X131983341Y-82135841D01*
X132112922Y-82029496D01*
X132174835Y-81996403D01*
X132260758Y-81950476D01*
X132421177Y-81901813D01*
X132546196Y-81889500D01*
X132629804Y-81889500D01*
X132754823Y-81901813D01*
X132754823Y-81901813D01*
G37*
G36*
X125134823Y-81901813D02*
G01*
X125295242Y-81950476D01*
X125381165Y-81996403D01*
X125443078Y-82029496D01*
X125572659Y-82135841D01*
X125679004Y-82265422D01*
X125679005Y-82265424D01*
X125758024Y-82413258D01*
X125806687Y-82573677D01*
X125823117Y-82740500D01*
X125806687Y-82907323D01*
X125758024Y-83067742D01*
X125687114Y-83200406D01*
X125679004Y-83215578D01*
X125572659Y-83345159D01*
X125443078Y-83451504D01*
X125443076Y-83451505D01*
X125295242Y-83530524D01*
X125134823Y-83579187D01*
X125009804Y-83591500D01*
X124926196Y-83591500D01*
X124801177Y-83579187D01*
X124640758Y-83530524D01*
X124492924Y-83451505D01*
X124492922Y-83451504D01*
X124363341Y-83345159D01*
X124256996Y-83215578D01*
X124248886Y-83200406D01*
X124177976Y-83067742D01*
X124129313Y-82907323D01*
X124112883Y-82740500D01*
X124129313Y-82573677D01*
X124177976Y-82413258D01*
X124256995Y-82265424D01*
X124256996Y-82265422D01*
X124363341Y-82135841D01*
X124492922Y-82029496D01*
X124554835Y-81996403D01*
X124640758Y-81950476D01*
X124801177Y-81901813D01*
X124926196Y-81889500D01*
X125009804Y-81889500D01*
X125134823Y-81901813D01*
X125134823Y-81901813D01*
G37*
G36*
X123080174Y-81855965D02*
G01*
X123117867Y-81867399D01*
X123152603Y-81885966D01*
X123183048Y-81910952D01*
X123208034Y-81941397D01*
X123226601Y-81976133D01*
X123238035Y-82013826D01*
X123242500Y-82059161D01*
X123242500Y-82895839D01*
X123238035Y-82941174D01*
X123226601Y-82978867D01*
X123208034Y-83013603D01*
X123183048Y-83044048D01*
X123152603Y-83069034D01*
X123117867Y-83087601D01*
X123080174Y-83099035D01*
X123034839Y-83103500D01*
X121948161Y-83103500D01*
X121902826Y-83099035D01*
X121865133Y-83087601D01*
X121830397Y-83069034D01*
X121799952Y-83044048D01*
X121774966Y-83013603D01*
X121756399Y-82978867D01*
X121744965Y-82941174D01*
X121740500Y-82895839D01*
X121740500Y-82059161D01*
X121744965Y-82013826D01*
X121756399Y-81976133D01*
X121774966Y-81941397D01*
X121799952Y-81910952D01*
X121830397Y-81885966D01*
X121865133Y-81867399D01*
X121902826Y-81855965D01*
X121948161Y-81851500D01*
X123034839Y-81851500D01*
X123080174Y-81855965D01*
X123080174Y-81855965D01*
G37*
G36*
X149341064Y-80951389D02*
G01*
X149532333Y-81030615D01*
X149532335Y-81030616D01*
X149704473Y-81145635D01*
X149850865Y-81292027D01*
X149947019Y-81435931D01*
X149965885Y-81464167D01*
X150045111Y-81655436D01*
X150085500Y-81858484D01*
X150085500Y-82065516D01*
X150045111Y-82268564D01*
X149965885Y-82459833D01*
X149965884Y-82459835D01*
X149850865Y-82631973D01*
X149704473Y-82778365D01*
X149532335Y-82893384D01*
X149532334Y-82893385D01*
X149532333Y-82893385D01*
X149341064Y-82972611D01*
X149138016Y-83013000D01*
X148930984Y-83013000D01*
X148727936Y-82972611D01*
X148536667Y-82893385D01*
X148536666Y-82893385D01*
X148536665Y-82893384D01*
X148364527Y-82778365D01*
X148218135Y-82631973D01*
X148103116Y-82459835D01*
X148103115Y-82459833D01*
X148023889Y-82268564D01*
X147983500Y-82065516D01*
X147983500Y-81858484D01*
X148023889Y-81655436D01*
X148103115Y-81464167D01*
X148121982Y-81435931D01*
X148218135Y-81292027D01*
X148364527Y-81145635D01*
X148536665Y-81030616D01*
X148536667Y-81030615D01*
X148727936Y-80951389D01*
X148930984Y-80911000D01*
X149138016Y-80911000D01*
X149341064Y-80951389D01*
X149341064Y-80951389D01*
G37*
G36*
X115172928Y-81947764D02*
G01*
X115194009Y-81954160D01*
X115213445Y-81964548D01*
X115230476Y-81978524D01*
X115244452Y-81995555D01*
X115254840Y-82014991D01*
X115261236Y-82036072D01*
X115264000Y-82064140D01*
X115264000Y-82527860D01*
X115261236Y-82555928D01*
X115254840Y-82577009D01*
X115244452Y-82596445D01*
X115230476Y-82613476D01*
X115213445Y-82627452D01*
X115194009Y-82637840D01*
X115172928Y-82644236D01*
X115144860Y-82647000D01*
X113331140Y-82647000D01*
X113303072Y-82644236D01*
X113281991Y-82637840D01*
X113262555Y-82627452D01*
X113245524Y-82613476D01*
X113231548Y-82596445D01*
X113221160Y-82577009D01*
X113214764Y-82555928D01*
X113212000Y-82527860D01*
X113212000Y-82064140D01*
X113214764Y-82036072D01*
X113221160Y-82014991D01*
X113231548Y-81995555D01*
X113245524Y-81978524D01*
X113262555Y-81964548D01*
X113281991Y-81954160D01*
X113303072Y-81947764D01*
X113331140Y-81945000D01*
X115144860Y-81945000D01*
X115172928Y-81947764D01*
X115172928Y-81947764D01*
G37*
G36*
X120122928Y-81947764D02*
G01*
X120144009Y-81954160D01*
X120163445Y-81964548D01*
X120180476Y-81978524D01*
X120194452Y-81995555D01*
X120204840Y-82014991D01*
X120211236Y-82036072D01*
X120214000Y-82064140D01*
X120214000Y-82527860D01*
X120211236Y-82555928D01*
X120204840Y-82577009D01*
X120194452Y-82596445D01*
X120180476Y-82613476D01*
X120163445Y-82627452D01*
X120144009Y-82637840D01*
X120122928Y-82644236D01*
X120094860Y-82647000D01*
X118281140Y-82647000D01*
X118253072Y-82644236D01*
X118231991Y-82637840D01*
X118212555Y-82627452D01*
X118195524Y-82613476D01*
X118181548Y-82596445D01*
X118171160Y-82577009D01*
X118164764Y-82555928D01*
X118162000Y-82527860D01*
X118162000Y-82064140D01*
X118164764Y-82036072D01*
X118171160Y-82014991D01*
X118181548Y-81995555D01*
X118195524Y-81978524D01*
X118212555Y-81964548D01*
X118231991Y-81954160D01*
X118253072Y-81947764D01*
X118281140Y-81945000D01*
X120094860Y-81945000D01*
X120122928Y-81947764D01*
X120122928Y-81947764D01*
G37*
G36*
X143619500Y-82038500D02*
G01*
X139717500Y-82038500D01*
X139717500Y-79936500D01*
X143619500Y-79936500D01*
X143619500Y-82038500D01*
X143619500Y-82038500D01*
G37*
G36*
X108465326Y-78695738D02*
G01*
X108695910Y-78741604D01*
X108978174Y-78858521D01*
X109232205Y-79028259D01*
X109448241Y-79244295D01*
X109617979Y-79498326D01*
X109734896Y-79780590D01*
X109734896Y-79780591D01*
X109794500Y-80080239D01*
X109794500Y-80385761D01*
X109777664Y-80470399D01*
X109734896Y-80685410D01*
X109617979Y-80967674D01*
X109448241Y-81221705D01*
X109232205Y-81437741D01*
X108978174Y-81607479D01*
X108695910Y-81724396D01*
X108546085Y-81754198D01*
X108396261Y-81784000D01*
X108090739Y-81784000D01*
X107940915Y-81754198D01*
X107791090Y-81724396D01*
X107508826Y-81607479D01*
X107254795Y-81437741D01*
X107038759Y-81221705D01*
X106869021Y-80967674D01*
X106752104Y-80685410D01*
X106709336Y-80470399D01*
X106692500Y-80385761D01*
X106692500Y-80080239D01*
X106752104Y-79780591D01*
X106752104Y-79780590D01*
X106869021Y-79498326D01*
X107038759Y-79244295D01*
X107254795Y-79028259D01*
X107508826Y-78858521D01*
X107791090Y-78741604D01*
X108021674Y-78695738D01*
X108090739Y-78682000D01*
X108396261Y-78682000D01*
X108465326Y-78695738D01*
X108465326Y-78695738D01*
G37*
G36*
X136351674Y-80458965D02*
G01*
X136389367Y-80470399D01*
X136424103Y-80488966D01*
X136454548Y-80513952D01*
X136479534Y-80544397D01*
X136498101Y-80579133D01*
X136509535Y-80616826D01*
X136514000Y-80662161D01*
X136514000Y-81498839D01*
X136509535Y-81544174D01*
X136498101Y-81581867D01*
X136479534Y-81616603D01*
X136454548Y-81647048D01*
X136424103Y-81672034D01*
X136389367Y-81690601D01*
X136351674Y-81702035D01*
X136306339Y-81706500D01*
X135219661Y-81706500D01*
X135174326Y-81702035D01*
X135136633Y-81690601D01*
X135101897Y-81672034D01*
X135071452Y-81647048D01*
X135046466Y-81616603D01*
X135027899Y-81581867D01*
X135016465Y-81544174D01*
X135012000Y-81498839D01*
X135012000Y-80662161D01*
X135016465Y-80616826D01*
X135027899Y-80579133D01*
X135046466Y-80544397D01*
X135071452Y-80513952D01*
X135101897Y-80488966D01*
X135136633Y-80470399D01*
X135174326Y-80458965D01*
X135219661Y-80454500D01*
X136306339Y-80454500D01*
X136351674Y-80458965D01*
X136351674Y-80458965D01*
G37*
G36*
X96372987Y-79031996D02*
G01*
X96558982Y-79109038D01*
X96609755Y-79130069D01*
X96822839Y-79272447D01*
X97004053Y-79453661D01*
X97099055Y-79595841D01*
X97146432Y-79666747D01*
X97244504Y-79903513D01*
X97294500Y-80154861D01*
X97294500Y-80411139D01*
X97244504Y-80662487D01*
X97194445Y-80783339D01*
X97146431Y-80899255D01*
X97004053Y-81112339D01*
X96822839Y-81293553D01*
X96609755Y-81435931D01*
X96609754Y-81435932D01*
X96609753Y-81435932D01*
X96372987Y-81534004D01*
X96121639Y-81584000D01*
X95865361Y-81584000D01*
X95614013Y-81534004D01*
X95377247Y-81435932D01*
X95377246Y-81435932D01*
X95377245Y-81435931D01*
X95164161Y-81293553D01*
X94982947Y-81112339D01*
X94840569Y-80899255D01*
X94792555Y-80783339D01*
X94742496Y-80662487D01*
X94692500Y-80411139D01*
X94692500Y-80154861D01*
X94742496Y-79903513D01*
X94840568Y-79666747D01*
X94887946Y-79595841D01*
X94982947Y-79453661D01*
X95164161Y-79272447D01*
X95377245Y-79130069D01*
X95428018Y-79109038D01*
X95614013Y-79031996D01*
X95865361Y-78982000D01*
X96121639Y-78982000D01*
X96372987Y-79031996D01*
X96372987Y-79031996D01*
G37*
G36*
X120122928Y-80677764D02*
G01*
X120144009Y-80684160D01*
X120163445Y-80694548D01*
X120180476Y-80708524D01*
X120194452Y-80725555D01*
X120204840Y-80744991D01*
X120211236Y-80766072D01*
X120214000Y-80794140D01*
X120214000Y-81257860D01*
X120211236Y-81285928D01*
X120204840Y-81307009D01*
X120194452Y-81326445D01*
X120180476Y-81343476D01*
X120163445Y-81357452D01*
X120144009Y-81367840D01*
X120122928Y-81374236D01*
X120094860Y-81377000D01*
X118281140Y-81377000D01*
X118253072Y-81374236D01*
X118231991Y-81367840D01*
X118212555Y-81357452D01*
X118195524Y-81343476D01*
X118181548Y-81326445D01*
X118171160Y-81307009D01*
X118164764Y-81285928D01*
X118162000Y-81257860D01*
X118162000Y-80794140D01*
X118164764Y-80766072D01*
X118171160Y-80744991D01*
X118181548Y-80725555D01*
X118195524Y-80708524D01*
X118212555Y-80694548D01*
X118231991Y-80684160D01*
X118253072Y-80677764D01*
X118281140Y-80675000D01*
X120094860Y-80675000D01*
X120122928Y-80677764D01*
X120122928Y-80677764D01*
G37*
G36*
X115172928Y-80677764D02*
G01*
X115194009Y-80684160D01*
X115213445Y-80694548D01*
X115230476Y-80708524D01*
X115244452Y-80725555D01*
X115254840Y-80744991D01*
X115261236Y-80766072D01*
X115264000Y-80794140D01*
X115264000Y-81257860D01*
X115261236Y-81285928D01*
X115254840Y-81307009D01*
X115244452Y-81326445D01*
X115230476Y-81343476D01*
X115213445Y-81357452D01*
X115194009Y-81367840D01*
X115172928Y-81374236D01*
X115144860Y-81377000D01*
X113331140Y-81377000D01*
X113303072Y-81374236D01*
X113281991Y-81367840D01*
X113262555Y-81357452D01*
X113245524Y-81343476D01*
X113231548Y-81326445D01*
X113221160Y-81307009D01*
X113214764Y-81285928D01*
X113212000Y-81257860D01*
X113212000Y-80794140D01*
X113214764Y-80766072D01*
X113221160Y-80744991D01*
X113231548Y-80725555D01*
X113245524Y-80708524D01*
X113262555Y-80694548D01*
X113281991Y-80684160D01*
X113303072Y-80677764D01*
X113331140Y-80675000D01*
X115144860Y-80675000D01*
X115172928Y-80677764D01*
X115172928Y-80677764D01*
G37*
G36*
X123080174Y-80032465D02*
G01*
X123117867Y-80043899D01*
X123152603Y-80062466D01*
X123183048Y-80087452D01*
X123208034Y-80117897D01*
X123226601Y-80152633D01*
X123238035Y-80190326D01*
X123242500Y-80235661D01*
X123242500Y-81072339D01*
X123238035Y-81117674D01*
X123226601Y-81155367D01*
X123208034Y-81190103D01*
X123183048Y-81220548D01*
X123152603Y-81245534D01*
X123117867Y-81264101D01*
X123080174Y-81275535D01*
X123034839Y-81280000D01*
X121948161Y-81280000D01*
X121902826Y-81275535D01*
X121865133Y-81264101D01*
X121830397Y-81245534D01*
X121799952Y-81220548D01*
X121774966Y-81190103D01*
X121756399Y-81155367D01*
X121744965Y-81117674D01*
X121740500Y-81072339D01*
X121740500Y-80235661D01*
X121744965Y-80190326D01*
X121756399Y-80152633D01*
X121774966Y-80117897D01*
X121799952Y-80087452D01*
X121830397Y-80062466D01*
X121865133Y-80043899D01*
X121902826Y-80032465D01*
X121948161Y-80028000D01*
X123034839Y-80028000D01*
X123080174Y-80032465D01*
X123080174Y-80032465D01*
G37*
G36*
X132754823Y-79361813D02*
G01*
X132915242Y-79410476D01*
X133001165Y-79456403D01*
X133063078Y-79489496D01*
X133192659Y-79595841D01*
X133299004Y-79725422D01*
X133299005Y-79725424D01*
X133378024Y-79873258D01*
X133426687Y-80033677D01*
X133443117Y-80200500D01*
X133426687Y-80367323D01*
X133378024Y-80527742D01*
X133307114Y-80660406D01*
X133299004Y-80675578D01*
X133192659Y-80805159D01*
X133063078Y-80911504D01*
X133063076Y-80911505D01*
X132915242Y-80990524D01*
X132754823Y-81039187D01*
X132629804Y-81051500D01*
X132546196Y-81051500D01*
X132421177Y-81039187D01*
X132260758Y-80990524D01*
X132112924Y-80911505D01*
X132112922Y-80911504D01*
X131983341Y-80805159D01*
X131876996Y-80675578D01*
X131868886Y-80660406D01*
X131797976Y-80527742D01*
X131749313Y-80367323D01*
X131732883Y-80200500D01*
X131749313Y-80033677D01*
X131797976Y-79873258D01*
X131876995Y-79725424D01*
X131876996Y-79725422D01*
X131983341Y-79595841D01*
X132112922Y-79489496D01*
X132174835Y-79456403D01*
X132260758Y-79410476D01*
X132421177Y-79361813D01*
X132546196Y-79349500D01*
X132629804Y-79349500D01*
X132754823Y-79361813D01*
X132754823Y-79361813D01*
G37*
G36*
X125819000Y-81051500D02*
G01*
X124117000Y-81051500D01*
X124117000Y-79349500D01*
X125819000Y-79349500D01*
X125819000Y-81051500D01*
X125819000Y-81051500D01*
G37*
G36*
X120122928Y-79407764D02*
G01*
X120144009Y-79414160D01*
X120163445Y-79424548D01*
X120180476Y-79438524D01*
X120194452Y-79455555D01*
X120204840Y-79474991D01*
X120211236Y-79496072D01*
X120214000Y-79524140D01*
X120214000Y-79987860D01*
X120211236Y-80015928D01*
X120204840Y-80037009D01*
X120194452Y-80056445D01*
X120180476Y-80073476D01*
X120163445Y-80087452D01*
X120144009Y-80097840D01*
X120122928Y-80104236D01*
X120094860Y-80107000D01*
X118281140Y-80107000D01*
X118253072Y-80104236D01*
X118231991Y-80097840D01*
X118212555Y-80087452D01*
X118195524Y-80073476D01*
X118181548Y-80056445D01*
X118171160Y-80037009D01*
X118164764Y-80015928D01*
X118162000Y-79987860D01*
X118162000Y-79524140D01*
X118164764Y-79496072D01*
X118171160Y-79474991D01*
X118181548Y-79455555D01*
X118195524Y-79438524D01*
X118212555Y-79424548D01*
X118231991Y-79414160D01*
X118253072Y-79407764D01*
X118281140Y-79405000D01*
X120094860Y-79405000D01*
X120122928Y-79407764D01*
X120122928Y-79407764D01*
G37*
G36*
X115172928Y-79407764D02*
G01*
X115194009Y-79414160D01*
X115213445Y-79424548D01*
X115230476Y-79438524D01*
X115244452Y-79455555D01*
X115254840Y-79474991D01*
X115261236Y-79496072D01*
X115264000Y-79524140D01*
X115264000Y-79987860D01*
X115261236Y-80015928D01*
X115254840Y-80037009D01*
X115244452Y-80056445D01*
X115230476Y-80073476D01*
X115213445Y-80087452D01*
X115194009Y-80097840D01*
X115172928Y-80104236D01*
X115144860Y-80107000D01*
X113331140Y-80107000D01*
X113303072Y-80104236D01*
X113281991Y-80097840D01*
X113262555Y-80087452D01*
X113245524Y-80073476D01*
X113231548Y-80056445D01*
X113221160Y-80037009D01*
X113214764Y-80015928D01*
X113212000Y-79987860D01*
X113212000Y-79524140D01*
X113214764Y-79496072D01*
X113221160Y-79474991D01*
X113231548Y-79455555D01*
X113245524Y-79438524D01*
X113262555Y-79424548D01*
X113281991Y-79414160D01*
X113303072Y-79407764D01*
X113331140Y-79405000D01*
X115144860Y-79405000D01*
X115172928Y-79407764D01*
X115172928Y-79407764D01*
G37*
G36*
X123080174Y-77982465D02*
G01*
X123117867Y-77993899D01*
X123152603Y-78012466D01*
X123183048Y-78037452D01*
X123208034Y-78067897D01*
X123226601Y-78102633D01*
X123238035Y-78140326D01*
X123242500Y-78185661D01*
X123242500Y-79022339D01*
X123238035Y-79067674D01*
X123226601Y-79105367D01*
X123208034Y-79140103D01*
X123183048Y-79170548D01*
X123152603Y-79195534D01*
X123117867Y-79214101D01*
X123080174Y-79225535D01*
X123034839Y-79230000D01*
X121948161Y-79230000D01*
X121902826Y-79225535D01*
X121865133Y-79214101D01*
X121830397Y-79195534D01*
X121799952Y-79170548D01*
X121774966Y-79140103D01*
X121756399Y-79105367D01*
X121744965Y-79067674D01*
X121740500Y-79022339D01*
X121740500Y-78185661D01*
X121744965Y-78140326D01*
X121756399Y-78102633D01*
X121774966Y-78067897D01*
X121799952Y-78037452D01*
X121830397Y-78012466D01*
X121865133Y-77993899D01*
X121902826Y-77982465D01*
X121948161Y-77978000D01*
X123034839Y-77978000D01*
X123080174Y-77982465D01*
X123080174Y-77982465D01*
G37*
G36*
X115172928Y-78137764D02*
G01*
X115194009Y-78144160D01*
X115213445Y-78154548D01*
X115230476Y-78168524D01*
X115244452Y-78185555D01*
X115254840Y-78204991D01*
X115261236Y-78226072D01*
X115264000Y-78254140D01*
X115264000Y-78717860D01*
X115261236Y-78745928D01*
X115254840Y-78767009D01*
X115244452Y-78786445D01*
X115230476Y-78803476D01*
X115213445Y-78817452D01*
X115194009Y-78827840D01*
X115172928Y-78834236D01*
X115144860Y-78837000D01*
X113331140Y-78837000D01*
X113303072Y-78834236D01*
X113281991Y-78827840D01*
X113262555Y-78817452D01*
X113245524Y-78803476D01*
X113231548Y-78786445D01*
X113221160Y-78767009D01*
X113214764Y-78745928D01*
X113212000Y-78717860D01*
X113212000Y-78254140D01*
X113214764Y-78226072D01*
X113221160Y-78204991D01*
X113231548Y-78185555D01*
X113245524Y-78168524D01*
X113262555Y-78154548D01*
X113281991Y-78144160D01*
X113303072Y-78137764D01*
X113331140Y-78135000D01*
X115144860Y-78135000D01*
X115172928Y-78137764D01*
X115172928Y-78137764D01*
G37*
G36*
X120122928Y-78137764D02*
G01*
X120144009Y-78144160D01*
X120163445Y-78154548D01*
X120180476Y-78168524D01*
X120194452Y-78185555D01*
X120204840Y-78204991D01*
X120211236Y-78226072D01*
X120214000Y-78254140D01*
X120214000Y-78717860D01*
X120211236Y-78745928D01*
X120204840Y-78767009D01*
X120194452Y-78786445D01*
X120180476Y-78803476D01*
X120163445Y-78817452D01*
X120144009Y-78827840D01*
X120122928Y-78834236D01*
X120094860Y-78837000D01*
X118281140Y-78837000D01*
X118253072Y-78834236D01*
X118231991Y-78827840D01*
X118212555Y-78817452D01*
X118195524Y-78803476D01*
X118181548Y-78786445D01*
X118171160Y-78767009D01*
X118164764Y-78745928D01*
X118162000Y-78717860D01*
X118162000Y-78254140D01*
X118164764Y-78226072D01*
X118171160Y-78204991D01*
X118181548Y-78185555D01*
X118195524Y-78168524D01*
X118212555Y-78154548D01*
X118231991Y-78144160D01*
X118253072Y-78137764D01*
X118281140Y-78135000D01*
X120094860Y-78135000D01*
X120122928Y-78137764D01*
X120122928Y-78137764D01*
G37*
G36*
X150085500Y-78013000D02*
G01*
X147983500Y-78013000D01*
X147983500Y-75911000D01*
X150085500Y-75911000D01*
X150085500Y-78013000D01*
X150085500Y-78013000D01*
G37*
G36*
X132141987Y-74504496D02*
G01*
X132378753Y-74602568D01*
X132378755Y-74602569D01*
X132591839Y-74744947D01*
X132773053Y-74926161D01*
X132915432Y-75139247D01*
X133013504Y-75376013D01*
X133063500Y-75627361D01*
X133063500Y-75883639D01*
X133013504Y-76134987D01*
X132915432Y-76371753D01*
X132915431Y-76371755D01*
X132773053Y-76584839D01*
X132591839Y-76766053D01*
X132378755Y-76908431D01*
X132378754Y-76908432D01*
X132378753Y-76908432D01*
X132141987Y-77006504D01*
X131890639Y-77056500D01*
X131634361Y-77056500D01*
X131383013Y-77006504D01*
X131146247Y-76908432D01*
X131146246Y-76908432D01*
X131146245Y-76908431D01*
X130933161Y-76766053D01*
X130751947Y-76584839D01*
X130609569Y-76371755D01*
X130609568Y-76371753D01*
X130511496Y-76134987D01*
X130461500Y-75883639D01*
X130461500Y-75627361D01*
X130511496Y-75376013D01*
X130609568Y-75139247D01*
X130751947Y-74926161D01*
X130933161Y-74744947D01*
X131146245Y-74602569D01*
X131146247Y-74602568D01*
X131383013Y-74504496D01*
X131634361Y-74454500D01*
X131890639Y-74454500D01*
X132141987Y-74504496D01*
X132141987Y-74504496D01*
G37*
G36*
X110309674Y-75262965D02*
G01*
X110347367Y-75274399D01*
X110382103Y-75292966D01*
X110412548Y-75317952D01*
X110437534Y-75348397D01*
X110456101Y-75383133D01*
X110467535Y-75420826D01*
X110472000Y-75466161D01*
X110472000Y-76552839D01*
X110467535Y-76598174D01*
X110456101Y-76635867D01*
X110437534Y-76670603D01*
X110412548Y-76701048D01*
X110382103Y-76726034D01*
X110347367Y-76744601D01*
X110309674Y-76756035D01*
X110264339Y-76760500D01*
X109427661Y-76760500D01*
X109382326Y-76756035D01*
X109344633Y-76744601D01*
X109309897Y-76726034D01*
X109279452Y-76701048D01*
X109254466Y-76670603D01*
X109235899Y-76635867D01*
X109224465Y-76598174D01*
X109220000Y-76552839D01*
X109220000Y-75466161D01*
X109224465Y-75420826D01*
X109235899Y-75383133D01*
X109254466Y-75348397D01*
X109279452Y-75317952D01*
X109309897Y-75292966D01*
X109344633Y-75274399D01*
X109382326Y-75262965D01*
X109427661Y-75258500D01*
X110264339Y-75258500D01*
X110309674Y-75262965D01*
X110309674Y-75262965D01*
G37*
G36*
X114246674Y-75262965D02*
G01*
X114284367Y-75274399D01*
X114319103Y-75292966D01*
X114349548Y-75317952D01*
X114374534Y-75348397D01*
X114393101Y-75383133D01*
X114404535Y-75420826D01*
X114409000Y-75466161D01*
X114409000Y-76552839D01*
X114404535Y-76598174D01*
X114393101Y-76635867D01*
X114374534Y-76670603D01*
X114349548Y-76701048D01*
X114319103Y-76726034D01*
X114284367Y-76744601D01*
X114246674Y-76756035D01*
X114201339Y-76760500D01*
X113364661Y-76760500D01*
X113319326Y-76756035D01*
X113281633Y-76744601D01*
X113246897Y-76726034D01*
X113216452Y-76701048D01*
X113191466Y-76670603D01*
X113172899Y-76635867D01*
X113161465Y-76598174D01*
X113157000Y-76552839D01*
X113157000Y-75466161D01*
X113161465Y-75420826D01*
X113172899Y-75383133D01*
X113191466Y-75348397D01*
X113216452Y-75317952D01*
X113246897Y-75292966D01*
X113281633Y-75274399D01*
X113319326Y-75262965D01*
X113364661Y-75258500D01*
X114201339Y-75258500D01*
X114246674Y-75262965D01*
X114246674Y-75262965D01*
G37*
G36*
X112359674Y-75262965D02*
G01*
X112397367Y-75274399D01*
X112432103Y-75292966D01*
X112462548Y-75317952D01*
X112487534Y-75348397D01*
X112506101Y-75383133D01*
X112517535Y-75420826D01*
X112522000Y-75466161D01*
X112522000Y-76552839D01*
X112517535Y-76598174D01*
X112506101Y-76635867D01*
X112487534Y-76670603D01*
X112462548Y-76701048D01*
X112432103Y-76726034D01*
X112397367Y-76744601D01*
X112359674Y-76756035D01*
X112314339Y-76760500D01*
X111477661Y-76760500D01*
X111432326Y-76756035D01*
X111394633Y-76744601D01*
X111359897Y-76726034D01*
X111329452Y-76701048D01*
X111304466Y-76670603D01*
X111285899Y-76635867D01*
X111274465Y-76598174D01*
X111270000Y-76552839D01*
X111270000Y-75466161D01*
X111274465Y-75420826D01*
X111285899Y-75383133D01*
X111304466Y-75348397D01*
X111329452Y-75317952D01*
X111359897Y-75292966D01*
X111394633Y-75274399D01*
X111432326Y-75262965D01*
X111477661Y-75258500D01*
X112314339Y-75258500D01*
X112359674Y-75262965D01*
X112359674Y-75262965D01*
G37*
G36*
X116296674Y-75262965D02*
G01*
X116334367Y-75274399D01*
X116369103Y-75292966D01*
X116399548Y-75317952D01*
X116424534Y-75348397D01*
X116443101Y-75383133D01*
X116454535Y-75420826D01*
X116459000Y-75466161D01*
X116459000Y-76552839D01*
X116454535Y-76598174D01*
X116443101Y-76635867D01*
X116424534Y-76670603D01*
X116399548Y-76701048D01*
X116369103Y-76726034D01*
X116334367Y-76744601D01*
X116296674Y-76756035D01*
X116251339Y-76760500D01*
X115414661Y-76760500D01*
X115369326Y-76756035D01*
X115331633Y-76744601D01*
X115296897Y-76726034D01*
X115266452Y-76701048D01*
X115241466Y-76670603D01*
X115222899Y-76635867D01*
X115211465Y-76598174D01*
X115207000Y-76552839D01*
X115207000Y-75466161D01*
X115211465Y-75420826D01*
X115222899Y-75383133D01*
X115241466Y-75348397D01*
X115266452Y-75317952D01*
X115296897Y-75292966D01*
X115331633Y-75274399D01*
X115369326Y-75262965D01*
X115414661Y-75258500D01*
X116251339Y-75258500D01*
X116296674Y-75262965D01*
X116296674Y-75262965D01*
G37*
G36*
X143697571Y-70310563D02*
G01*
X143893800Y-70370089D01*
X144074646Y-70466753D01*
X144115937Y-70500640D01*
X144233160Y-70596840D01*
X144363248Y-70755355D01*
X144438483Y-70896110D01*
X144459911Y-70936199D01*
X144519437Y-71132428D01*
X144534500Y-71285368D01*
X144534500Y-73367632D01*
X144519437Y-73520572D01*
X144459911Y-73716801D01*
X144459910Y-73716803D01*
X144363248Y-73897645D01*
X144233160Y-74056160D01*
X144074645Y-74186248D01*
X143893803Y-74282910D01*
X143893801Y-74282911D01*
X143697572Y-74342437D01*
X143493500Y-74362536D01*
X143289429Y-74342437D01*
X143093200Y-74282911D01*
X143093198Y-74282910D01*
X142912356Y-74186248D01*
X142753841Y-74056160D01*
X142623753Y-73897645D01*
X142527091Y-73716803D01*
X142527090Y-73716801D01*
X142467564Y-73520572D01*
X142452501Y-73367632D01*
X142452500Y-71285369D01*
X142467563Y-71132429D01*
X142527089Y-70936200D01*
X142548518Y-70896110D01*
X142623752Y-70755356D01*
X142623753Y-70755354D01*
X142667212Y-70702399D01*
X142753840Y-70596840D01*
X142912355Y-70466752D01*
X143093197Y-70370090D01*
X143093199Y-70370089D01*
X143289428Y-70310563D01*
X143493500Y-70290464D01*
X143697571Y-70310563D01*
X143697571Y-70310563D01*
G37*
G36*
X139534500Y-74357500D02*
G01*
X137452500Y-74357500D01*
X137452500Y-70295500D01*
X139534500Y-70295500D01*
X139534500Y-74357500D01*
X139534500Y-74357500D01*
G37*
G36*
X121302500Y-73296500D02*
G01*
X118600500Y-73296500D01*
X118600500Y-70594500D01*
X121302500Y-70594500D01*
X121302500Y-73296500D01*
X121302500Y-73296500D01*
G37*
G36*
X125345572Y-70646418D02*
G01*
X125585870Y-70745952D01*
X125591439Y-70748259D01*
X125602060Y-70755356D01*
X125812711Y-70896109D01*
X126000891Y-71084289D01*
X126071232Y-71189562D01*
X126135248Y-71285367D01*
X126148742Y-71305563D01*
X126250582Y-71551428D01*
X126302500Y-71812437D01*
X126302500Y-72078563D01*
X126250582Y-72339572D01*
X126148742Y-72585437D01*
X126000891Y-72806711D01*
X125812711Y-72994891D01*
X125784112Y-73014000D01*
X125591439Y-73142741D01*
X125591438Y-73142742D01*
X125591437Y-73142742D01*
X125345572Y-73244582D01*
X125084563Y-73296500D01*
X124818437Y-73296500D01*
X124557428Y-73244582D01*
X124311563Y-73142742D01*
X124311562Y-73142742D01*
X124311561Y-73142741D01*
X124118888Y-73014000D01*
X124090289Y-72994891D01*
X123902109Y-72806711D01*
X123754258Y-72585437D01*
X123652418Y-72339572D01*
X123600500Y-72078563D01*
X123600500Y-71812437D01*
X123652418Y-71551428D01*
X123754258Y-71305563D01*
X123767753Y-71285367D01*
X123831768Y-71189562D01*
X123902109Y-71084289D01*
X124090289Y-70896109D01*
X124300940Y-70755356D01*
X124311561Y-70748259D01*
X124317131Y-70745952D01*
X124557428Y-70646418D01*
X124818437Y-70594500D01*
X125084563Y-70594500D01*
X125345572Y-70646418D01*
X125345572Y-70646418D01*
G37*
G36*
X114373674Y-71579965D02*
G01*
X114411367Y-71591399D01*
X114446103Y-71609966D01*
X114476548Y-71634952D01*
X114501534Y-71665397D01*
X114520101Y-71700133D01*
X114531535Y-71737826D01*
X114536000Y-71783161D01*
X114536000Y-72869839D01*
X114531535Y-72915174D01*
X114520101Y-72952867D01*
X114501534Y-72987603D01*
X114476548Y-73018048D01*
X114446103Y-73043034D01*
X114411367Y-73061601D01*
X114373674Y-73073035D01*
X114328339Y-73077500D01*
X113491661Y-73077500D01*
X113446326Y-73073035D01*
X113408633Y-73061601D01*
X113373897Y-73043034D01*
X113343452Y-73018048D01*
X113318466Y-72987603D01*
X113299899Y-72952867D01*
X113288465Y-72915174D01*
X113284000Y-72869839D01*
X113284000Y-71783161D01*
X113288465Y-71737826D01*
X113299899Y-71700133D01*
X113318466Y-71665397D01*
X113343452Y-71634952D01*
X113373897Y-71609966D01*
X113408633Y-71591399D01*
X113446326Y-71579965D01*
X113491661Y-71575500D01*
X114328339Y-71575500D01*
X114373674Y-71579965D01*
X114373674Y-71579965D01*
G37*
G36*
X116423674Y-71579965D02*
G01*
X116461367Y-71591399D01*
X116496103Y-71609966D01*
X116526548Y-71634952D01*
X116551534Y-71665397D01*
X116570101Y-71700133D01*
X116581535Y-71737826D01*
X116586000Y-71783161D01*
X116586000Y-72869839D01*
X116581535Y-72915174D01*
X116570101Y-72952867D01*
X116551534Y-72987603D01*
X116526548Y-73018048D01*
X116496103Y-73043034D01*
X116461367Y-73061601D01*
X116423674Y-73073035D01*
X116378339Y-73077500D01*
X115541661Y-73077500D01*
X115496326Y-73073035D01*
X115458633Y-73061601D01*
X115423897Y-73043034D01*
X115393452Y-73018048D01*
X115368466Y-72987603D01*
X115349899Y-72952867D01*
X115338465Y-72915174D01*
X115334000Y-72869839D01*
X115334000Y-71783161D01*
X115338465Y-71737826D01*
X115349899Y-71700133D01*
X115368466Y-71665397D01*
X115393452Y-71634952D01*
X115423897Y-71609966D01*
X115458633Y-71591399D01*
X115496326Y-71579965D01*
X115541661Y-71575500D01*
X116378339Y-71575500D01*
X116423674Y-71579965D01*
X116423674Y-71579965D01*
G37*
G36*
X112359674Y-71516465D02*
G01*
X112397367Y-71527899D01*
X112432103Y-71546466D01*
X112462548Y-71571452D01*
X112487534Y-71601897D01*
X112506101Y-71636633D01*
X112517535Y-71674326D01*
X112522000Y-71719661D01*
X112522000Y-72806339D01*
X112517535Y-72851674D01*
X112506101Y-72889367D01*
X112487534Y-72924103D01*
X112462548Y-72954548D01*
X112432103Y-72979534D01*
X112397367Y-72998101D01*
X112359674Y-73009535D01*
X112314339Y-73014000D01*
X111477661Y-73014000D01*
X111432326Y-73009535D01*
X111394633Y-72998101D01*
X111359897Y-72979534D01*
X111329452Y-72954548D01*
X111304466Y-72924103D01*
X111285899Y-72889367D01*
X111274465Y-72851674D01*
X111270000Y-72806339D01*
X111270000Y-71719661D01*
X111274465Y-71674326D01*
X111285899Y-71636633D01*
X111304466Y-71601897D01*
X111329452Y-71571452D01*
X111359897Y-71546466D01*
X111394633Y-71527899D01*
X111432326Y-71516465D01*
X111477661Y-71512000D01*
X112314339Y-71512000D01*
X112359674Y-71516465D01*
X112359674Y-71516465D01*
G37*
G36*
X110309674Y-71516465D02*
G01*
X110347367Y-71527899D01*
X110382103Y-71546466D01*
X110412548Y-71571452D01*
X110437534Y-71601897D01*
X110456101Y-71636633D01*
X110467535Y-71674326D01*
X110472000Y-71719661D01*
X110472000Y-72806339D01*
X110467535Y-72851674D01*
X110456101Y-72889367D01*
X110437534Y-72924103D01*
X110412548Y-72954548D01*
X110382103Y-72979534D01*
X110347367Y-72998101D01*
X110309674Y-73009535D01*
X110264339Y-73014000D01*
X109427661Y-73014000D01*
X109382326Y-73009535D01*
X109344633Y-72998101D01*
X109309897Y-72979534D01*
X109279452Y-72954548D01*
X109254466Y-72924103D01*
X109235899Y-72889367D01*
X109224465Y-72851674D01*
X109220000Y-72806339D01*
X109220000Y-71719661D01*
X109224465Y-71674326D01*
X109235899Y-71636633D01*
X109254466Y-71601897D01*
X109279452Y-71571452D01*
X109309897Y-71546466D01*
X109344633Y-71527899D01*
X109382326Y-71516465D01*
X109427661Y-71512000D01*
X110264339Y-71512000D01*
X110309674Y-71516465D01*
X110309674Y-71516465D01*
G37*
G36*
X106888000Y-72407500D02*
G01*
X104186000Y-72407500D01*
X104186000Y-69705500D01*
X106888000Y-69705500D01*
X106888000Y-72407500D01*
X106888000Y-72407500D01*
G37*
G36*
X100924944Y-69756199D02*
G01*
X100931072Y-69757418D01*
X101176939Y-69859259D01*
X101178275Y-69860152D01*
X101398211Y-70007109D01*
X101586391Y-70195289D01*
X101734242Y-70416563D01*
X101836082Y-70662428D01*
X101888000Y-70923437D01*
X101888000Y-71189563D01*
X101836082Y-71450572D01*
X101743401Y-71674326D01*
X101734241Y-71696439D01*
X101718724Y-71719661D01*
X101587316Y-71916327D01*
X101586390Y-71917712D01*
X101398212Y-72105890D01*
X101176939Y-72253741D01*
X101176938Y-72253742D01*
X101176937Y-72253742D01*
X100931072Y-72355582D01*
X100670063Y-72407500D01*
X100403937Y-72407500D01*
X100142928Y-72355582D01*
X99897063Y-72253742D01*
X99897062Y-72253742D01*
X99897061Y-72253741D01*
X99675788Y-72105890D01*
X99487610Y-71917712D01*
X99486685Y-71916327D01*
X99355276Y-71719661D01*
X99339759Y-71696439D01*
X99330600Y-71674326D01*
X99237918Y-71450572D01*
X99186000Y-71189563D01*
X99186000Y-70923437D01*
X99237918Y-70662428D01*
X99339758Y-70416563D01*
X99487609Y-70195289D01*
X99675789Y-70007109D01*
X99895725Y-69860152D01*
X99897061Y-69859259D01*
X100142928Y-69757418D01*
X100149056Y-69756199D01*
X100403937Y-69705500D01*
X100670063Y-69705500D01*
X100924944Y-69756199D01*
X100924944Y-69756199D01*
G37*
G36*
X95924944Y-69756199D02*
G01*
X95931072Y-69757418D01*
X96176939Y-69859259D01*
X96178275Y-69860152D01*
X96398211Y-70007109D01*
X96586391Y-70195289D01*
X96734242Y-70416563D01*
X96836082Y-70662428D01*
X96888000Y-70923437D01*
X96888000Y-71189563D01*
X96836082Y-71450572D01*
X96743401Y-71674326D01*
X96734241Y-71696439D01*
X96718724Y-71719661D01*
X96587316Y-71916327D01*
X96586390Y-71917712D01*
X96398212Y-72105890D01*
X96176939Y-72253741D01*
X96176938Y-72253742D01*
X96176937Y-72253742D01*
X95931072Y-72355582D01*
X95670063Y-72407500D01*
X95403937Y-72407500D01*
X95142928Y-72355582D01*
X94897063Y-72253742D01*
X94897062Y-72253742D01*
X94897061Y-72253741D01*
X94675788Y-72105890D01*
X94487610Y-71917712D01*
X94486685Y-71916327D01*
X94355276Y-71719661D01*
X94339759Y-71696439D01*
X94330600Y-71674326D01*
X94237918Y-71450572D01*
X94186000Y-71189563D01*
X94186000Y-70923437D01*
X94237918Y-70662428D01*
X94339758Y-70416563D01*
X94487609Y-70195289D01*
X94675789Y-70007109D01*
X94895725Y-69860152D01*
X94897061Y-69859259D01*
X95142928Y-69757418D01*
X95149056Y-69756199D01*
X95403937Y-69705500D01*
X95670063Y-69705500D01*
X95924944Y-69756199D01*
X95924944Y-69756199D01*
G37*
G36*
X131137674Y-70690965D02*
G01*
X131175367Y-70702399D01*
X131210103Y-70720966D01*
X131240548Y-70745952D01*
X131265534Y-70776397D01*
X131284101Y-70811133D01*
X131295535Y-70848826D01*
X131300000Y-70894161D01*
X131300000Y-71980839D01*
X131295535Y-72026174D01*
X131284101Y-72063867D01*
X131265534Y-72098603D01*
X131240548Y-72129048D01*
X131210103Y-72154034D01*
X131175367Y-72172601D01*
X131137674Y-72184035D01*
X131092339Y-72188500D01*
X130255661Y-72188500D01*
X130210326Y-72184035D01*
X130172633Y-72172601D01*
X130137897Y-72154034D01*
X130107452Y-72129048D01*
X130082466Y-72098603D01*
X130063899Y-72063867D01*
X130052465Y-72026174D01*
X130048000Y-71980839D01*
X130048000Y-70894161D01*
X130052465Y-70848826D01*
X130063899Y-70811133D01*
X130082466Y-70776397D01*
X130107452Y-70745952D01*
X130137897Y-70720966D01*
X130172633Y-70702399D01*
X130210326Y-70690965D01*
X130255661Y-70686500D01*
X131092339Y-70686500D01*
X131137674Y-70690965D01*
X131137674Y-70690965D01*
G37*
G36*
X133187674Y-70690965D02*
G01*
X133225367Y-70702399D01*
X133260103Y-70720966D01*
X133290548Y-70745952D01*
X133315534Y-70776397D01*
X133334101Y-70811133D01*
X133345535Y-70848826D01*
X133350000Y-70894161D01*
X133350000Y-71980839D01*
X133345535Y-72026174D01*
X133334101Y-72063867D01*
X133315534Y-72098603D01*
X133290548Y-72129048D01*
X133260103Y-72154034D01*
X133225367Y-72172601D01*
X133187674Y-72184035D01*
X133142339Y-72188500D01*
X132305661Y-72188500D01*
X132260326Y-72184035D01*
X132222633Y-72172601D01*
X132187897Y-72154034D01*
X132157452Y-72129048D01*
X132132466Y-72098603D01*
X132113899Y-72063867D01*
X132102465Y-72026174D01*
X132098000Y-71980839D01*
X132098000Y-70894161D01*
X132102465Y-70848826D01*
X132113899Y-70811133D01*
X132132466Y-70776397D01*
X132157452Y-70745952D01*
X132187897Y-70720966D01*
X132222633Y-70702399D01*
X132260326Y-70690965D01*
X132305661Y-70686500D01*
X133142339Y-70686500D01*
X133187674Y-70690965D01*
X133187674Y-70690965D01*
G37*
G36*
X130500100Y-67321489D02*
G01*
X130533152Y-67331515D01*
X130563603Y-67347792D01*
X130590299Y-67369701D01*
X130612208Y-67396397D01*
X130628485Y-67426848D01*
X130638511Y-67459900D01*
X130642500Y-67500403D01*
X130642500Y-69786597D01*
X130638511Y-69827100D01*
X130628485Y-69860152D01*
X130612208Y-69890603D01*
X130590299Y-69917299D01*
X130563603Y-69939208D01*
X130533152Y-69955485D01*
X130500100Y-69965511D01*
X130459597Y-69969500D01*
X129023403Y-69969500D01*
X128982900Y-69965511D01*
X128949848Y-69955485D01*
X128919397Y-69939208D01*
X128892701Y-69917299D01*
X128870792Y-69890603D01*
X128854515Y-69860152D01*
X128844489Y-69827100D01*
X128840500Y-69786597D01*
X128840500Y-67500403D01*
X128844489Y-67459900D01*
X128854515Y-67426848D01*
X128870792Y-67396397D01*
X128892701Y-67369701D01*
X128919397Y-67347792D01*
X128949848Y-67331515D01*
X128982900Y-67321489D01*
X129023403Y-67317500D01*
X130459597Y-67317500D01*
X130500100Y-67321489D01*
X130500100Y-67321489D01*
G37*
G36*
X135050100Y-67321489D02*
G01*
X135083152Y-67331515D01*
X135113603Y-67347792D01*
X135140299Y-67369701D01*
X135162208Y-67396397D01*
X135178485Y-67426848D01*
X135188511Y-67459900D01*
X135192500Y-67500403D01*
X135192500Y-69786597D01*
X135188511Y-69827100D01*
X135178485Y-69860152D01*
X135162208Y-69890603D01*
X135140299Y-69917299D01*
X135113603Y-69939208D01*
X135083152Y-69955485D01*
X135050100Y-69965511D01*
X135009597Y-69969500D01*
X133573403Y-69969500D01*
X133532900Y-69965511D01*
X133499848Y-69955485D01*
X133469397Y-69939208D01*
X133442701Y-69917299D01*
X133420792Y-69890603D01*
X133404515Y-69860152D01*
X133394489Y-69827100D01*
X133390500Y-69786597D01*
X133390500Y-67500403D01*
X133394489Y-67459900D01*
X133404515Y-67426848D01*
X133420792Y-67396397D01*
X133442701Y-67369701D01*
X133469397Y-67347792D01*
X133499848Y-67331515D01*
X133532900Y-67321489D01*
X133573403Y-67317500D01*
X135009597Y-67317500D01*
X135050100Y-67321489D01*
X135050100Y-67321489D01*
G37*
G36*
X111323100Y-67321489D02*
G01*
X111356152Y-67331515D01*
X111386603Y-67347792D01*
X111413299Y-67369701D01*
X111435208Y-67396397D01*
X111451485Y-67426848D01*
X111461511Y-67459900D01*
X111465500Y-67500403D01*
X111465500Y-69786597D01*
X111461511Y-69827100D01*
X111451485Y-69860152D01*
X111435208Y-69890603D01*
X111413299Y-69917299D01*
X111386603Y-69939208D01*
X111356152Y-69955485D01*
X111323100Y-69965511D01*
X111282597Y-69969500D01*
X109846403Y-69969500D01*
X109805900Y-69965511D01*
X109772848Y-69955485D01*
X109742397Y-69939208D01*
X109715701Y-69917299D01*
X109693792Y-69890603D01*
X109677515Y-69860152D01*
X109667489Y-69827100D01*
X109663500Y-69786597D01*
X109663500Y-67500403D01*
X109667489Y-67459900D01*
X109677515Y-67426848D01*
X109693792Y-67396397D01*
X109715701Y-67369701D01*
X109742397Y-67347792D01*
X109772848Y-67331515D01*
X109805900Y-67321489D01*
X109846403Y-67317500D01*
X111282597Y-67317500D01*
X111323100Y-67321489D01*
X111323100Y-67321489D01*
G37*
G36*
X115873100Y-67321489D02*
G01*
X115906152Y-67331515D01*
X115936603Y-67347792D01*
X115963299Y-67369701D01*
X115985208Y-67396397D01*
X116001485Y-67426848D01*
X116011511Y-67459900D01*
X116015500Y-67500403D01*
X116015500Y-69786597D01*
X116011511Y-69827100D01*
X116001485Y-69860152D01*
X115985208Y-69890603D01*
X115963299Y-69917299D01*
X115936603Y-69939208D01*
X115906152Y-69955485D01*
X115873100Y-69965511D01*
X115832597Y-69969500D01*
X114396403Y-69969500D01*
X114355900Y-69965511D01*
X114322848Y-69955485D01*
X114292397Y-69939208D01*
X114265701Y-69917299D01*
X114243792Y-69890603D01*
X114227515Y-69860152D01*
X114217489Y-69827100D01*
X114213500Y-69786597D01*
X114213500Y-67500403D01*
X114217489Y-67459900D01*
X114227515Y-67426848D01*
X114243792Y-67396397D01*
X114265701Y-67369701D01*
X114292397Y-67347792D01*
X114322848Y-67331515D01*
X114355900Y-67321489D01*
X114396403Y-67317500D01*
X115832597Y-67317500D01*
X115873100Y-67321489D01*
X115873100Y-67321489D01*
G37*
M02*
