G04 #@! TF.GenerationSoftware,KiCad,Pcbnew,(5.1.2)-1*
G04 #@! TF.CreationDate,2019-07-04T14:52:25+03:00*
G04 #@! TF.ProjectId,Elevator_FirePanel Board,456c6576-6174-46f7-925f-466972655061,rev?*
G04 #@! TF.SameCoordinates,Original*
G04 #@! TF.FileFunction,Copper,L1,Top*
G04 #@! TF.FilePolarity,Positive*
%FSLAX46Y46*%
G04 Gerber Fmt 4.6, Leading zero omitted, Abs format (unit mm)*
G04 Created by KiCad (PCBNEW (5.1.2)-1) date 2019-07-04 14:52:25*
%MOMM*%
%LPD*%
G04 APERTURE LIST*
%ADD10C,0.100000*%
%ADD11C,1.600000*%
%ADD12C,1.700000*%
%ADD13R,2.600000X2.600000*%
%ADD14C,2.600000*%
%ADD15R,2.580000X1.000000*%
%ADD16C,2.500000*%
%ADD17C,3.000000*%
%ADD18O,1.050000X1.500000*%
%ADD19R,1.050000X1.500000*%
%ADD20C,1.150000*%
%ADD21R,1.700000X0.900000*%
%ADD22R,1.600000X1.600000*%
%ADD23O,1.600000X1.600000*%
%ADD24C,0.600000*%
%ADD25R,3.800000X2.000000*%
%ADD26R,1.500000X2.000000*%
%ADD27R,1.980000X3.960000*%
%ADD28O,1.980000X3.960000*%
%ADD29C,2.000000*%
%ADD30R,2.000000X2.000000*%
%ADD31C,0.685400*%
%ADD32C,0.254000*%
%ADD33C,0.508000*%
G04 APERTURE END LIST*
D10*
G36*
X140806504Y-91149204D02*
G01*
X140830773Y-91152804D01*
X140854571Y-91158765D01*
X140877671Y-91167030D01*
X140899849Y-91177520D01*
X140920893Y-91190133D01*
X140940598Y-91204747D01*
X140958777Y-91221223D01*
X140975253Y-91239402D01*
X140989867Y-91259107D01*
X141002480Y-91280151D01*
X141012970Y-91302329D01*
X141021235Y-91325429D01*
X141027196Y-91349227D01*
X141030796Y-91373496D01*
X141032000Y-91398000D01*
X141032000Y-92498000D01*
X141030796Y-92522504D01*
X141027196Y-92546773D01*
X141021235Y-92570571D01*
X141012970Y-92593671D01*
X141002480Y-92615849D01*
X140989867Y-92636893D01*
X140975253Y-92656598D01*
X140958777Y-92674777D01*
X140940598Y-92691253D01*
X140920893Y-92705867D01*
X140899849Y-92718480D01*
X140877671Y-92728970D01*
X140854571Y-92737235D01*
X140830773Y-92743196D01*
X140806504Y-92746796D01*
X140782000Y-92748000D01*
X138282000Y-92748000D01*
X138257496Y-92746796D01*
X138233227Y-92743196D01*
X138209429Y-92737235D01*
X138186329Y-92728970D01*
X138164151Y-92718480D01*
X138143107Y-92705867D01*
X138123402Y-92691253D01*
X138105223Y-92674777D01*
X138088747Y-92656598D01*
X138074133Y-92636893D01*
X138061520Y-92615849D01*
X138051030Y-92593671D01*
X138042765Y-92570571D01*
X138036804Y-92546773D01*
X138033204Y-92522504D01*
X138032000Y-92498000D01*
X138032000Y-91398000D01*
X138033204Y-91373496D01*
X138036804Y-91349227D01*
X138042765Y-91325429D01*
X138051030Y-91302329D01*
X138061520Y-91280151D01*
X138074133Y-91259107D01*
X138088747Y-91239402D01*
X138105223Y-91221223D01*
X138123402Y-91204747D01*
X138143107Y-91190133D01*
X138164151Y-91177520D01*
X138186329Y-91167030D01*
X138209429Y-91158765D01*
X138233227Y-91152804D01*
X138257496Y-91149204D01*
X138282000Y-91148000D01*
X140782000Y-91148000D01*
X140806504Y-91149204D01*
X140806504Y-91149204D01*
G37*
D11*
X139532000Y-91948000D03*
D10*
G36*
X145206504Y-91149204D02*
G01*
X145230773Y-91152804D01*
X145254571Y-91158765D01*
X145277671Y-91167030D01*
X145299849Y-91177520D01*
X145320893Y-91190133D01*
X145340598Y-91204747D01*
X145358777Y-91221223D01*
X145375253Y-91239402D01*
X145389867Y-91259107D01*
X145402480Y-91280151D01*
X145412970Y-91302329D01*
X145421235Y-91325429D01*
X145427196Y-91349227D01*
X145430796Y-91373496D01*
X145432000Y-91398000D01*
X145432000Y-92498000D01*
X145430796Y-92522504D01*
X145427196Y-92546773D01*
X145421235Y-92570571D01*
X145412970Y-92593671D01*
X145402480Y-92615849D01*
X145389867Y-92636893D01*
X145375253Y-92656598D01*
X145358777Y-92674777D01*
X145340598Y-92691253D01*
X145320893Y-92705867D01*
X145299849Y-92718480D01*
X145277671Y-92728970D01*
X145254571Y-92737235D01*
X145230773Y-92743196D01*
X145206504Y-92746796D01*
X145182000Y-92748000D01*
X142682000Y-92748000D01*
X142657496Y-92746796D01*
X142633227Y-92743196D01*
X142609429Y-92737235D01*
X142586329Y-92728970D01*
X142564151Y-92718480D01*
X142543107Y-92705867D01*
X142523402Y-92691253D01*
X142505223Y-92674777D01*
X142488747Y-92656598D01*
X142474133Y-92636893D01*
X142461520Y-92615849D01*
X142451030Y-92593671D01*
X142442765Y-92570571D01*
X142436804Y-92546773D01*
X142433204Y-92522504D01*
X142432000Y-92498000D01*
X142432000Y-91398000D01*
X142433204Y-91373496D01*
X142436804Y-91349227D01*
X142442765Y-91325429D01*
X142451030Y-91302329D01*
X142461520Y-91280151D01*
X142474133Y-91259107D01*
X142488747Y-91239402D01*
X142505223Y-91221223D01*
X142523402Y-91204747D01*
X142543107Y-91190133D01*
X142564151Y-91177520D01*
X142586329Y-91167030D01*
X142609429Y-91158765D01*
X142633227Y-91152804D01*
X142657496Y-91149204D01*
X142682000Y-91148000D01*
X145182000Y-91148000D01*
X145206504Y-91149204D01*
X145206504Y-91149204D01*
G37*
D11*
X143932000Y-91948000D03*
D10*
G36*
X137015004Y-86767704D02*
G01*
X137039273Y-86771304D01*
X137063071Y-86777265D01*
X137086171Y-86785530D01*
X137108349Y-86796020D01*
X137129393Y-86808633D01*
X137149098Y-86823247D01*
X137167277Y-86839723D01*
X137183753Y-86857902D01*
X137198367Y-86877607D01*
X137210980Y-86898651D01*
X137221470Y-86920829D01*
X137229735Y-86943929D01*
X137235696Y-86967727D01*
X137239296Y-86991996D01*
X137240500Y-87016500D01*
X137240500Y-88116500D01*
X137239296Y-88141004D01*
X137235696Y-88165273D01*
X137229735Y-88189071D01*
X137221470Y-88212171D01*
X137210980Y-88234349D01*
X137198367Y-88255393D01*
X137183753Y-88275098D01*
X137167277Y-88293277D01*
X137149098Y-88309753D01*
X137129393Y-88324367D01*
X137108349Y-88336980D01*
X137086171Y-88347470D01*
X137063071Y-88355735D01*
X137039273Y-88361696D01*
X137015004Y-88365296D01*
X136990500Y-88366500D01*
X134490500Y-88366500D01*
X134465996Y-88365296D01*
X134441727Y-88361696D01*
X134417929Y-88355735D01*
X134394829Y-88347470D01*
X134372651Y-88336980D01*
X134351607Y-88324367D01*
X134331902Y-88309753D01*
X134313723Y-88293277D01*
X134297247Y-88275098D01*
X134282633Y-88255393D01*
X134270020Y-88234349D01*
X134259530Y-88212171D01*
X134251265Y-88189071D01*
X134245304Y-88165273D01*
X134241704Y-88141004D01*
X134240500Y-88116500D01*
X134240500Y-87016500D01*
X134241704Y-86991996D01*
X134245304Y-86967727D01*
X134251265Y-86943929D01*
X134259530Y-86920829D01*
X134270020Y-86898651D01*
X134282633Y-86877607D01*
X134297247Y-86857902D01*
X134313723Y-86839723D01*
X134331902Y-86823247D01*
X134351607Y-86808633D01*
X134372651Y-86796020D01*
X134394829Y-86785530D01*
X134417929Y-86777265D01*
X134441727Y-86771304D01*
X134465996Y-86767704D01*
X134490500Y-86766500D01*
X136990500Y-86766500D01*
X137015004Y-86767704D01*
X137015004Y-86767704D01*
G37*
D11*
X135740500Y-87566500D03*
D10*
G36*
X132615004Y-86767704D02*
G01*
X132639273Y-86771304D01*
X132663071Y-86777265D01*
X132686171Y-86785530D01*
X132708349Y-86796020D01*
X132729393Y-86808633D01*
X132749098Y-86823247D01*
X132767277Y-86839723D01*
X132783753Y-86857902D01*
X132798367Y-86877607D01*
X132810980Y-86898651D01*
X132821470Y-86920829D01*
X132829735Y-86943929D01*
X132835696Y-86967727D01*
X132839296Y-86991996D01*
X132840500Y-87016500D01*
X132840500Y-88116500D01*
X132839296Y-88141004D01*
X132835696Y-88165273D01*
X132829735Y-88189071D01*
X132821470Y-88212171D01*
X132810980Y-88234349D01*
X132798367Y-88255393D01*
X132783753Y-88275098D01*
X132767277Y-88293277D01*
X132749098Y-88309753D01*
X132729393Y-88324367D01*
X132708349Y-88336980D01*
X132686171Y-88347470D01*
X132663071Y-88355735D01*
X132639273Y-88361696D01*
X132615004Y-88365296D01*
X132590500Y-88366500D01*
X130090500Y-88366500D01*
X130065996Y-88365296D01*
X130041727Y-88361696D01*
X130017929Y-88355735D01*
X129994829Y-88347470D01*
X129972651Y-88336980D01*
X129951607Y-88324367D01*
X129931902Y-88309753D01*
X129913723Y-88293277D01*
X129897247Y-88275098D01*
X129882633Y-88255393D01*
X129870020Y-88234349D01*
X129859530Y-88212171D01*
X129851265Y-88189071D01*
X129845304Y-88165273D01*
X129841704Y-88141004D01*
X129840500Y-88116500D01*
X129840500Y-87016500D01*
X129841704Y-86991996D01*
X129845304Y-86967727D01*
X129851265Y-86943929D01*
X129859530Y-86920829D01*
X129870020Y-86898651D01*
X129882633Y-86877607D01*
X129897247Y-86857902D01*
X129913723Y-86839723D01*
X129931902Y-86823247D01*
X129951607Y-86808633D01*
X129972651Y-86796020D01*
X129994829Y-86785530D01*
X130017929Y-86777265D01*
X130041727Y-86771304D01*
X130065996Y-86767704D01*
X130090500Y-86766500D01*
X132590500Y-86766500D01*
X132615004Y-86767704D01*
X132615004Y-86767704D01*
G37*
D11*
X131340500Y-87566500D03*
D10*
G36*
X115739004Y-67369704D02*
G01*
X115763273Y-67373304D01*
X115787071Y-67379265D01*
X115810171Y-67387530D01*
X115832349Y-67398020D01*
X115853393Y-67410633D01*
X115873098Y-67425247D01*
X115891277Y-67441723D01*
X115907753Y-67459902D01*
X115922367Y-67479607D01*
X115934980Y-67500651D01*
X115945470Y-67522829D01*
X115953735Y-67545929D01*
X115959696Y-67569727D01*
X115963296Y-67593996D01*
X115964500Y-67618500D01*
X115964500Y-69668500D01*
X115963296Y-69693004D01*
X115959696Y-69717273D01*
X115953735Y-69741071D01*
X115945470Y-69764171D01*
X115934980Y-69786349D01*
X115922367Y-69807393D01*
X115907753Y-69827098D01*
X115891277Y-69845277D01*
X115873098Y-69861753D01*
X115853393Y-69876367D01*
X115832349Y-69888980D01*
X115810171Y-69899470D01*
X115787071Y-69907735D01*
X115763273Y-69913696D01*
X115739004Y-69917296D01*
X115714500Y-69918500D01*
X114514500Y-69918500D01*
X114489996Y-69917296D01*
X114465727Y-69913696D01*
X114441929Y-69907735D01*
X114418829Y-69899470D01*
X114396651Y-69888980D01*
X114375607Y-69876367D01*
X114355902Y-69861753D01*
X114337723Y-69845277D01*
X114321247Y-69827098D01*
X114306633Y-69807393D01*
X114294020Y-69786349D01*
X114283530Y-69764171D01*
X114275265Y-69741071D01*
X114269304Y-69717273D01*
X114265704Y-69693004D01*
X114264500Y-69668500D01*
X114264500Y-67618500D01*
X114265704Y-67593996D01*
X114269304Y-67569727D01*
X114275265Y-67545929D01*
X114283530Y-67522829D01*
X114294020Y-67500651D01*
X114306633Y-67479607D01*
X114321247Y-67459902D01*
X114337723Y-67441723D01*
X114355902Y-67425247D01*
X114375607Y-67410633D01*
X114396651Y-67398020D01*
X114418829Y-67387530D01*
X114441929Y-67379265D01*
X114465727Y-67373304D01*
X114489996Y-67369704D01*
X114514500Y-67368500D01*
X115714500Y-67368500D01*
X115739004Y-67369704D01*
X115739004Y-67369704D01*
G37*
D12*
X115114500Y-68643500D03*
D10*
G36*
X111189004Y-67369704D02*
G01*
X111213273Y-67373304D01*
X111237071Y-67379265D01*
X111260171Y-67387530D01*
X111282349Y-67398020D01*
X111303393Y-67410633D01*
X111323098Y-67425247D01*
X111341277Y-67441723D01*
X111357753Y-67459902D01*
X111372367Y-67479607D01*
X111384980Y-67500651D01*
X111395470Y-67522829D01*
X111403735Y-67545929D01*
X111409696Y-67569727D01*
X111413296Y-67593996D01*
X111414500Y-67618500D01*
X111414500Y-69668500D01*
X111413296Y-69693004D01*
X111409696Y-69717273D01*
X111403735Y-69741071D01*
X111395470Y-69764171D01*
X111384980Y-69786349D01*
X111372367Y-69807393D01*
X111357753Y-69827098D01*
X111341277Y-69845277D01*
X111323098Y-69861753D01*
X111303393Y-69876367D01*
X111282349Y-69888980D01*
X111260171Y-69899470D01*
X111237071Y-69907735D01*
X111213273Y-69913696D01*
X111189004Y-69917296D01*
X111164500Y-69918500D01*
X109964500Y-69918500D01*
X109939996Y-69917296D01*
X109915727Y-69913696D01*
X109891929Y-69907735D01*
X109868829Y-69899470D01*
X109846651Y-69888980D01*
X109825607Y-69876367D01*
X109805902Y-69861753D01*
X109787723Y-69845277D01*
X109771247Y-69827098D01*
X109756633Y-69807393D01*
X109744020Y-69786349D01*
X109733530Y-69764171D01*
X109725265Y-69741071D01*
X109719304Y-69717273D01*
X109715704Y-69693004D01*
X109714500Y-69668500D01*
X109714500Y-67618500D01*
X109715704Y-67593996D01*
X109719304Y-67569727D01*
X109725265Y-67545929D01*
X109733530Y-67522829D01*
X109744020Y-67500651D01*
X109756633Y-67479607D01*
X109771247Y-67459902D01*
X109787723Y-67441723D01*
X109805902Y-67425247D01*
X109825607Y-67410633D01*
X109846651Y-67398020D01*
X109868829Y-67387530D01*
X109891929Y-67379265D01*
X109915727Y-67373304D01*
X109939996Y-67369704D01*
X109964500Y-67368500D01*
X111164500Y-67368500D01*
X111189004Y-67369704D01*
X111189004Y-67369704D01*
G37*
D12*
X110564500Y-68643500D03*
D10*
G36*
X130366004Y-67369704D02*
G01*
X130390273Y-67373304D01*
X130414071Y-67379265D01*
X130437171Y-67387530D01*
X130459349Y-67398020D01*
X130480393Y-67410633D01*
X130500098Y-67425247D01*
X130518277Y-67441723D01*
X130534753Y-67459902D01*
X130549367Y-67479607D01*
X130561980Y-67500651D01*
X130572470Y-67522829D01*
X130580735Y-67545929D01*
X130586696Y-67569727D01*
X130590296Y-67593996D01*
X130591500Y-67618500D01*
X130591500Y-69668500D01*
X130590296Y-69693004D01*
X130586696Y-69717273D01*
X130580735Y-69741071D01*
X130572470Y-69764171D01*
X130561980Y-69786349D01*
X130549367Y-69807393D01*
X130534753Y-69827098D01*
X130518277Y-69845277D01*
X130500098Y-69861753D01*
X130480393Y-69876367D01*
X130459349Y-69888980D01*
X130437171Y-69899470D01*
X130414071Y-69907735D01*
X130390273Y-69913696D01*
X130366004Y-69917296D01*
X130341500Y-69918500D01*
X129141500Y-69918500D01*
X129116996Y-69917296D01*
X129092727Y-69913696D01*
X129068929Y-69907735D01*
X129045829Y-69899470D01*
X129023651Y-69888980D01*
X129002607Y-69876367D01*
X128982902Y-69861753D01*
X128964723Y-69845277D01*
X128948247Y-69827098D01*
X128933633Y-69807393D01*
X128921020Y-69786349D01*
X128910530Y-69764171D01*
X128902265Y-69741071D01*
X128896304Y-69717273D01*
X128892704Y-69693004D01*
X128891500Y-69668500D01*
X128891500Y-67618500D01*
X128892704Y-67593996D01*
X128896304Y-67569727D01*
X128902265Y-67545929D01*
X128910530Y-67522829D01*
X128921020Y-67500651D01*
X128933633Y-67479607D01*
X128948247Y-67459902D01*
X128964723Y-67441723D01*
X128982902Y-67425247D01*
X129002607Y-67410633D01*
X129023651Y-67398020D01*
X129045829Y-67387530D01*
X129068929Y-67379265D01*
X129092727Y-67373304D01*
X129116996Y-67369704D01*
X129141500Y-67368500D01*
X130341500Y-67368500D01*
X130366004Y-67369704D01*
X130366004Y-67369704D01*
G37*
D12*
X129741500Y-68643500D03*
D10*
G36*
X134916004Y-67369704D02*
G01*
X134940273Y-67373304D01*
X134964071Y-67379265D01*
X134987171Y-67387530D01*
X135009349Y-67398020D01*
X135030393Y-67410633D01*
X135050098Y-67425247D01*
X135068277Y-67441723D01*
X135084753Y-67459902D01*
X135099367Y-67479607D01*
X135111980Y-67500651D01*
X135122470Y-67522829D01*
X135130735Y-67545929D01*
X135136696Y-67569727D01*
X135140296Y-67593996D01*
X135141500Y-67618500D01*
X135141500Y-69668500D01*
X135140296Y-69693004D01*
X135136696Y-69717273D01*
X135130735Y-69741071D01*
X135122470Y-69764171D01*
X135111980Y-69786349D01*
X135099367Y-69807393D01*
X135084753Y-69827098D01*
X135068277Y-69845277D01*
X135050098Y-69861753D01*
X135030393Y-69876367D01*
X135009349Y-69888980D01*
X134987171Y-69899470D01*
X134964071Y-69907735D01*
X134940273Y-69913696D01*
X134916004Y-69917296D01*
X134891500Y-69918500D01*
X133691500Y-69918500D01*
X133666996Y-69917296D01*
X133642727Y-69913696D01*
X133618929Y-69907735D01*
X133595829Y-69899470D01*
X133573651Y-69888980D01*
X133552607Y-69876367D01*
X133532902Y-69861753D01*
X133514723Y-69845277D01*
X133498247Y-69827098D01*
X133483633Y-69807393D01*
X133471020Y-69786349D01*
X133460530Y-69764171D01*
X133452265Y-69741071D01*
X133446304Y-69717273D01*
X133442704Y-69693004D01*
X133441500Y-69668500D01*
X133441500Y-67618500D01*
X133442704Y-67593996D01*
X133446304Y-67569727D01*
X133452265Y-67545929D01*
X133460530Y-67522829D01*
X133471020Y-67500651D01*
X133483633Y-67479607D01*
X133498247Y-67459902D01*
X133514723Y-67441723D01*
X133532902Y-67425247D01*
X133552607Y-67410633D01*
X133573651Y-67398020D01*
X133595829Y-67387530D01*
X133618929Y-67379265D01*
X133642727Y-67373304D01*
X133666996Y-67369704D01*
X133691500Y-67368500D01*
X134891500Y-67368500D01*
X134916004Y-67369704D01*
X134916004Y-67369704D01*
G37*
D12*
X134291500Y-68643500D03*
D13*
X105537000Y-71056500D03*
D14*
X100537000Y-71056500D03*
X95537000Y-71056500D03*
D13*
X119951500Y-71945500D03*
D14*
X124951500Y-71945500D03*
D15*
X126164000Y-93440000D03*
X121994000Y-93440000D03*
X126164000Y-91440000D03*
X121994000Y-91440000D03*
X126164000Y-89440000D03*
X121994000Y-89440000D03*
D16*
X95993500Y-92283000D03*
D17*
X108193500Y-92283000D03*
X108243500Y-80233000D03*
D16*
X95993500Y-80283000D03*
D17*
X94043500Y-86233000D03*
D18*
X116014500Y-87376000D03*
X117284500Y-87376000D03*
D19*
X114744500Y-87376000D03*
D10*
G36*
X110195505Y-75310704D02*
G01*
X110219773Y-75314304D01*
X110243572Y-75320265D01*
X110266671Y-75328530D01*
X110288850Y-75339020D01*
X110309893Y-75351632D01*
X110329599Y-75366247D01*
X110347777Y-75382723D01*
X110364253Y-75400901D01*
X110378868Y-75420607D01*
X110391480Y-75441650D01*
X110401970Y-75463829D01*
X110410235Y-75486928D01*
X110416196Y-75510727D01*
X110419796Y-75534995D01*
X110421000Y-75559499D01*
X110421000Y-76459501D01*
X110419796Y-76484005D01*
X110416196Y-76508273D01*
X110410235Y-76532072D01*
X110401970Y-76555171D01*
X110391480Y-76577350D01*
X110378868Y-76598393D01*
X110364253Y-76618099D01*
X110347777Y-76636277D01*
X110329599Y-76652753D01*
X110309893Y-76667368D01*
X110288850Y-76679980D01*
X110266671Y-76690470D01*
X110243572Y-76698735D01*
X110219773Y-76704696D01*
X110195505Y-76708296D01*
X110171001Y-76709500D01*
X109520999Y-76709500D01*
X109496495Y-76708296D01*
X109472227Y-76704696D01*
X109448428Y-76698735D01*
X109425329Y-76690470D01*
X109403150Y-76679980D01*
X109382107Y-76667368D01*
X109362401Y-76652753D01*
X109344223Y-76636277D01*
X109327747Y-76618099D01*
X109313132Y-76598393D01*
X109300520Y-76577350D01*
X109290030Y-76555171D01*
X109281765Y-76532072D01*
X109275804Y-76508273D01*
X109272204Y-76484005D01*
X109271000Y-76459501D01*
X109271000Y-75559499D01*
X109272204Y-75534995D01*
X109275804Y-75510727D01*
X109281765Y-75486928D01*
X109290030Y-75463829D01*
X109300520Y-75441650D01*
X109313132Y-75420607D01*
X109327747Y-75400901D01*
X109344223Y-75382723D01*
X109362401Y-75366247D01*
X109382107Y-75351632D01*
X109403150Y-75339020D01*
X109425329Y-75328530D01*
X109448428Y-75320265D01*
X109472227Y-75314304D01*
X109496495Y-75310704D01*
X109520999Y-75309500D01*
X110171001Y-75309500D01*
X110195505Y-75310704D01*
X110195505Y-75310704D01*
G37*
D20*
X109846000Y-76009500D03*
D10*
G36*
X112245505Y-75310704D02*
G01*
X112269773Y-75314304D01*
X112293572Y-75320265D01*
X112316671Y-75328530D01*
X112338850Y-75339020D01*
X112359893Y-75351632D01*
X112379599Y-75366247D01*
X112397777Y-75382723D01*
X112414253Y-75400901D01*
X112428868Y-75420607D01*
X112441480Y-75441650D01*
X112451970Y-75463829D01*
X112460235Y-75486928D01*
X112466196Y-75510727D01*
X112469796Y-75534995D01*
X112471000Y-75559499D01*
X112471000Y-76459501D01*
X112469796Y-76484005D01*
X112466196Y-76508273D01*
X112460235Y-76532072D01*
X112451970Y-76555171D01*
X112441480Y-76577350D01*
X112428868Y-76598393D01*
X112414253Y-76618099D01*
X112397777Y-76636277D01*
X112379599Y-76652753D01*
X112359893Y-76667368D01*
X112338850Y-76679980D01*
X112316671Y-76690470D01*
X112293572Y-76698735D01*
X112269773Y-76704696D01*
X112245505Y-76708296D01*
X112221001Y-76709500D01*
X111570999Y-76709500D01*
X111546495Y-76708296D01*
X111522227Y-76704696D01*
X111498428Y-76698735D01*
X111475329Y-76690470D01*
X111453150Y-76679980D01*
X111432107Y-76667368D01*
X111412401Y-76652753D01*
X111394223Y-76636277D01*
X111377747Y-76618099D01*
X111363132Y-76598393D01*
X111350520Y-76577350D01*
X111340030Y-76555171D01*
X111331765Y-76532072D01*
X111325804Y-76508273D01*
X111322204Y-76484005D01*
X111321000Y-76459501D01*
X111321000Y-75559499D01*
X111322204Y-75534995D01*
X111325804Y-75510727D01*
X111331765Y-75486928D01*
X111340030Y-75463829D01*
X111350520Y-75441650D01*
X111363132Y-75420607D01*
X111377747Y-75400901D01*
X111394223Y-75382723D01*
X111412401Y-75366247D01*
X111432107Y-75351632D01*
X111453150Y-75339020D01*
X111475329Y-75328530D01*
X111498428Y-75320265D01*
X111522227Y-75314304D01*
X111546495Y-75310704D01*
X111570999Y-75309500D01*
X112221001Y-75309500D01*
X112245505Y-75310704D01*
X112245505Y-75310704D01*
G37*
D20*
X111896000Y-76009500D03*
D10*
G36*
X114259505Y-71627704D02*
G01*
X114283773Y-71631304D01*
X114307572Y-71637265D01*
X114330671Y-71645530D01*
X114352850Y-71656020D01*
X114373893Y-71668632D01*
X114393599Y-71683247D01*
X114411777Y-71699723D01*
X114428253Y-71717901D01*
X114442868Y-71737607D01*
X114455480Y-71758650D01*
X114465970Y-71780829D01*
X114474235Y-71803928D01*
X114480196Y-71827727D01*
X114483796Y-71851995D01*
X114485000Y-71876499D01*
X114485000Y-72776501D01*
X114483796Y-72801005D01*
X114480196Y-72825273D01*
X114474235Y-72849072D01*
X114465970Y-72872171D01*
X114455480Y-72894350D01*
X114442868Y-72915393D01*
X114428253Y-72935099D01*
X114411777Y-72953277D01*
X114393599Y-72969753D01*
X114373893Y-72984368D01*
X114352850Y-72996980D01*
X114330671Y-73007470D01*
X114307572Y-73015735D01*
X114283773Y-73021696D01*
X114259505Y-73025296D01*
X114235001Y-73026500D01*
X113584999Y-73026500D01*
X113560495Y-73025296D01*
X113536227Y-73021696D01*
X113512428Y-73015735D01*
X113489329Y-73007470D01*
X113467150Y-72996980D01*
X113446107Y-72984368D01*
X113426401Y-72969753D01*
X113408223Y-72953277D01*
X113391747Y-72935099D01*
X113377132Y-72915393D01*
X113364520Y-72894350D01*
X113354030Y-72872171D01*
X113345765Y-72849072D01*
X113339804Y-72825273D01*
X113336204Y-72801005D01*
X113335000Y-72776501D01*
X113335000Y-71876499D01*
X113336204Y-71851995D01*
X113339804Y-71827727D01*
X113345765Y-71803928D01*
X113354030Y-71780829D01*
X113364520Y-71758650D01*
X113377132Y-71737607D01*
X113391747Y-71717901D01*
X113408223Y-71699723D01*
X113426401Y-71683247D01*
X113446107Y-71668632D01*
X113467150Y-71656020D01*
X113489329Y-71645530D01*
X113512428Y-71637265D01*
X113536227Y-71631304D01*
X113560495Y-71627704D01*
X113584999Y-71626500D01*
X114235001Y-71626500D01*
X114259505Y-71627704D01*
X114259505Y-71627704D01*
G37*
D20*
X113910000Y-72326500D03*
D10*
G36*
X116309505Y-71627704D02*
G01*
X116333773Y-71631304D01*
X116357572Y-71637265D01*
X116380671Y-71645530D01*
X116402850Y-71656020D01*
X116423893Y-71668632D01*
X116443599Y-71683247D01*
X116461777Y-71699723D01*
X116478253Y-71717901D01*
X116492868Y-71737607D01*
X116505480Y-71758650D01*
X116515970Y-71780829D01*
X116524235Y-71803928D01*
X116530196Y-71827727D01*
X116533796Y-71851995D01*
X116535000Y-71876499D01*
X116535000Y-72776501D01*
X116533796Y-72801005D01*
X116530196Y-72825273D01*
X116524235Y-72849072D01*
X116515970Y-72872171D01*
X116505480Y-72894350D01*
X116492868Y-72915393D01*
X116478253Y-72935099D01*
X116461777Y-72953277D01*
X116443599Y-72969753D01*
X116423893Y-72984368D01*
X116402850Y-72996980D01*
X116380671Y-73007470D01*
X116357572Y-73015735D01*
X116333773Y-73021696D01*
X116309505Y-73025296D01*
X116285001Y-73026500D01*
X115634999Y-73026500D01*
X115610495Y-73025296D01*
X115586227Y-73021696D01*
X115562428Y-73015735D01*
X115539329Y-73007470D01*
X115517150Y-72996980D01*
X115496107Y-72984368D01*
X115476401Y-72969753D01*
X115458223Y-72953277D01*
X115441747Y-72935099D01*
X115427132Y-72915393D01*
X115414520Y-72894350D01*
X115404030Y-72872171D01*
X115395765Y-72849072D01*
X115389804Y-72825273D01*
X115386204Y-72801005D01*
X115385000Y-72776501D01*
X115385000Y-71876499D01*
X115386204Y-71851995D01*
X115389804Y-71827727D01*
X115395765Y-71803928D01*
X115404030Y-71780829D01*
X115414520Y-71758650D01*
X115427132Y-71737607D01*
X115441747Y-71717901D01*
X115458223Y-71699723D01*
X115476401Y-71683247D01*
X115496107Y-71668632D01*
X115517150Y-71656020D01*
X115539329Y-71645530D01*
X115562428Y-71637265D01*
X115586227Y-71631304D01*
X115610495Y-71627704D01*
X115634999Y-71626500D01*
X116285001Y-71626500D01*
X116309505Y-71627704D01*
X116309505Y-71627704D01*
G37*
D20*
X115960000Y-72326500D03*
D10*
G36*
X122966005Y-83953704D02*
G01*
X122990273Y-83957304D01*
X123014072Y-83963265D01*
X123037171Y-83971530D01*
X123059350Y-83982020D01*
X123080393Y-83994632D01*
X123100099Y-84009247D01*
X123118277Y-84025723D01*
X123134753Y-84043901D01*
X123149368Y-84063607D01*
X123161980Y-84084650D01*
X123172470Y-84106829D01*
X123180735Y-84129928D01*
X123186696Y-84153727D01*
X123190296Y-84177995D01*
X123191500Y-84202499D01*
X123191500Y-84852501D01*
X123190296Y-84877005D01*
X123186696Y-84901273D01*
X123180735Y-84925072D01*
X123172470Y-84948171D01*
X123161980Y-84970350D01*
X123149368Y-84991393D01*
X123134753Y-85011099D01*
X123118277Y-85029277D01*
X123100099Y-85045753D01*
X123080393Y-85060368D01*
X123059350Y-85072980D01*
X123037171Y-85083470D01*
X123014072Y-85091735D01*
X122990273Y-85097696D01*
X122966005Y-85101296D01*
X122941501Y-85102500D01*
X122041499Y-85102500D01*
X122016995Y-85101296D01*
X121992727Y-85097696D01*
X121968928Y-85091735D01*
X121945829Y-85083470D01*
X121923650Y-85072980D01*
X121902607Y-85060368D01*
X121882901Y-85045753D01*
X121864723Y-85029277D01*
X121848247Y-85011099D01*
X121833632Y-84991393D01*
X121821020Y-84970350D01*
X121810530Y-84948171D01*
X121802265Y-84925072D01*
X121796304Y-84901273D01*
X121792704Y-84877005D01*
X121791500Y-84852501D01*
X121791500Y-84202499D01*
X121792704Y-84177995D01*
X121796304Y-84153727D01*
X121802265Y-84129928D01*
X121810530Y-84106829D01*
X121821020Y-84084650D01*
X121833632Y-84063607D01*
X121848247Y-84043901D01*
X121864723Y-84025723D01*
X121882901Y-84009247D01*
X121902607Y-83994632D01*
X121923650Y-83982020D01*
X121945829Y-83971530D01*
X121968928Y-83963265D01*
X121992727Y-83957304D01*
X122016995Y-83953704D01*
X122041499Y-83952500D01*
X122941501Y-83952500D01*
X122966005Y-83953704D01*
X122966005Y-83953704D01*
G37*
D20*
X122491500Y-84527500D03*
D10*
G36*
X122966005Y-81903704D02*
G01*
X122990273Y-81907304D01*
X123014072Y-81913265D01*
X123037171Y-81921530D01*
X123059350Y-81932020D01*
X123080393Y-81944632D01*
X123100099Y-81959247D01*
X123118277Y-81975723D01*
X123134753Y-81993901D01*
X123149368Y-82013607D01*
X123161980Y-82034650D01*
X123172470Y-82056829D01*
X123180735Y-82079928D01*
X123186696Y-82103727D01*
X123190296Y-82127995D01*
X123191500Y-82152499D01*
X123191500Y-82802501D01*
X123190296Y-82827005D01*
X123186696Y-82851273D01*
X123180735Y-82875072D01*
X123172470Y-82898171D01*
X123161980Y-82920350D01*
X123149368Y-82941393D01*
X123134753Y-82961099D01*
X123118277Y-82979277D01*
X123100099Y-82995753D01*
X123080393Y-83010368D01*
X123059350Y-83022980D01*
X123037171Y-83033470D01*
X123014072Y-83041735D01*
X122990273Y-83047696D01*
X122966005Y-83051296D01*
X122941501Y-83052500D01*
X122041499Y-83052500D01*
X122016995Y-83051296D01*
X121992727Y-83047696D01*
X121968928Y-83041735D01*
X121945829Y-83033470D01*
X121923650Y-83022980D01*
X121902607Y-83010368D01*
X121882901Y-82995753D01*
X121864723Y-82979277D01*
X121848247Y-82961099D01*
X121833632Y-82941393D01*
X121821020Y-82920350D01*
X121810530Y-82898171D01*
X121802265Y-82875072D01*
X121796304Y-82851273D01*
X121792704Y-82827005D01*
X121791500Y-82802501D01*
X121791500Y-82152499D01*
X121792704Y-82127995D01*
X121796304Y-82103727D01*
X121802265Y-82079928D01*
X121810530Y-82056829D01*
X121821020Y-82034650D01*
X121833632Y-82013607D01*
X121848247Y-81993901D01*
X121864723Y-81975723D01*
X121882901Y-81959247D01*
X121902607Y-81944632D01*
X121923650Y-81932020D01*
X121945829Y-81921530D01*
X121968928Y-81913265D01*
X121992727Y-81907304D01*
X122016995Y-81903704D01*
X122041499Y-81902500D01*
X122941501Y-81902500D01*
X122966005Y-81903704D01*
X122966005Y-81903704D01*
G37*
D20*
X122491500Y-82477500D03*
D10*
G36*
X122966005Y-80080204D02*
G01*
X122990273Y-80083804D01*
X123014072Y-80089765D01*
X123037171Y-80098030D01*
X123059350Y-80108520D01*
X123080393Y-80121132D01*
X123100099Y-80135747D01*
X123118277Y-80152223D01*
X123134753Y-80170401D01*
X123149368Y-80190107D01*
X123161980Y-80211150D01*
X123172470Y-80233329D01*
X123180735Y-80256428D01*
X123186696Y-80280227D01*
X123190296Y-80304495D01*
X123191500Y-80328999D01*
X123191500Y-80979001D01*
X123190296Y-81003505D01*
X123186696Y-81027773D01*
X123180735Y-81051572D01*
X123172470Y-81074671D01*
X123161980Y-81096850D01*
X123149368Y-81117893D01*
X123134753Y-81137599D01*
X123118277Y-81155777D01*
X123100099Y-81172253D01*
X123080393Y-81186868D01*
X123059350Y-81199480D01*
X123037171Y-81209970D01*
X123014072Y-81218235D01*
X122990273Y-81224196D01*
X122966005Y-81227796D01*
X122941501Y-81229000D01*
X122041499Y-81229000D01*
X122016995Y-81227796D01*
X121992727Y-81224196D01*
X121968928Y-81218235D01*
X121945829Y-81209970D01*
X121923650Y-81199480D01*
X121902607Y-81186868D01*
X121882901Y-81172253D01*
X121864723Y-81155777D01*
X121848247Y-81137599D01*
X121833632Y-81117893D01*
X121821020Y-81096850D01*
X121810530Y-81074671D01*
X121802265Y-81051572D01*
X121796304Y-81027773D01*
X121792704Y-81003505D01*
X121791500Y-80979001D01*
X121791500Y-80328999D01*
X121792704Y-80304495D01*
X121796304Y-80280227D01*
X121802265Y-80256428D01*
X121810530Y-80233329D01*
X121821020Y-80211150D01*
X121833632Y-80190107D01*
X121848247Y-80170401D01*
X121864723Y-80152223D01*
X121882901Y-80135747D01*
X121902607Y-80121132D01*
X121923650Y-80108520D01*
X121945829Y-80098030D01*
X121968928Y-80089765D01*
X121992727Y-80083804D01*
X122016995Y-80080204D01*
X122041499Y-80079000D01*
X122941501Y-80079000D01*
X122966005Y-80080204D01*
X122966005Y-80080204D01*
G37*
D20*
X122491500Y-80654000D03*
D10*
G36*
X122966005Y-78030204D02*
G01*
X122990273Y-78033804D01*
X123014072Y-78039765D01*
X123037171Y-78048030D01*
X123059350Y-78058520D01*
X123080393Y-78071132D01*
X123100099Y-78085747D01*
X123118277Y-78102223D01*
X123134753Y-78120401D01*
X123149368Y-78140107D01*
X123161980Y-78161150D01*
X123172470Y-78183329D01*
X123180735Y-78206428D01*
X123186696Y-78230227D01*
X123190296Y-78254495D01*
X123191500Y-78278999D01*
X123191500Y-78929001D01*
X123190296Y-78953505D01*
X123186696Y-78977773D01*
X123180735Y-79001572D01*
X123172470Y-79024671D01*
X123161980Y-79046850D01*
X123149368Y-79067893D01*
X123134753Y-79087599D01*
X123118277Y-79105777D01*
X123100099Y-79122253D01*
X123080393Y-79136868D01*
X123059350Y-79149480D01*
X123037171Y-79159970D01*
X123014072Y-79168235D01*
X122990273Y-79174196D01*
X122966005Y-79177796D01*
X122941501Y-79179000D01*
X122041499Y-79179000D01*
X122016995Y-79177796D01*
X121992727Y-79174196D01*
X121968928Y-79168235D01*
X121945829Y-79159970D01*
X121923650Y-79149480D01*
X121902607Y-79136868D01*
X121882901Y-79122253D01*
X121864723Y-79105777D01*
X121848247Y-79087599D01*
X121833632Y-79067893D01*
X121821020Y-79046850D01*
X121810530Y-79024671D01*
X121802265Y-79001572D01*
X121796304Y-78977773D01*
X121792704Y-78953505D01*
X121791500Y-78929001D01*
X121791500Y-78278999D01*
X121792704Y-78254495D01*
X121796304Y-78230227D01*
X121802265Y-78206428D01*
X121810530Y-78183329D01*
X121821020Y-78161150D01*
X121833632Y-78140107D01*
X121848247Y-78120401D01*
X121864723Y-78102223D01*
X121882901Y-78085747D01*
X121902607Y-78071132D01*
X121923650Y-78058520D01*
X121945829Y-78048030D01*
X121968928Y-78039765D01*
X121992727Y-78033804D01*
X122016995Y-78030204D01*
X122041499Y-78029000D01*
X122941501Y-78029000D01*
X122966005Y-78030204D01*
X122966005Y-78030204D01*
G37*
D20*
X122491500Y-78604000D03*
D10*
G36*
X136237505Y-80506704D02*
G01*
X136261773Y-80510304D01*
X136285572Y-80516265D01*
X136308671Y-80524530D01*
X136330850Y-80535020D01*
X136351893Y-80547632D01*
X136371599Y-80562247D01*
X136389777Y-80578723D01*
X136406253Y-80596901D01*
X136420868Y-80616607D01*
X136433480Y-80637650D01*
X136443970Y-80659829D01*
X136452235Y-80682928D01*
X136458196Y-80706727D01*
X136461796Y-80730995D01*
X136463000Y-80755499D01*
X136463000Y-81405501D01*
X136461796Y-81430005D01*
X136458196Y-81454273D01*
X136452235Y-81478072D01*
X136443970Y-81501171D01*
X136433480Y-81523350D01*
X136420868Y-81544393D01*
X136406253Y-81564099D01*
X136389777Y-81582277D01*
X136371599Y-81598753D01*
X136351893Y-81613368D01*
X136330850Y-81625980D01*
X136308671Y-81636470D01*
X136285572Y-81644735D01*
X136261773Y-81650696D01*
X136237505Y-81654296D01*
X136213001Y-81655500D01*
X135312999Y-81655500D01*
X135288495Y-81654296D01*
X135264227Y-81650696D01*
X135240428Y-81644735D01*
X135217329Y-81636470D01*
X135195150Y-81625980D01*
X135174107Y-81613368D01*
X135154401Y-81598753D01*
X135136223Y-81582277D01*
X135119747Y-81564099D01*
X135105132Y-81544393D01*
X135092520Y-81523350D01*
X135082030Y-81501171D01*
X135073765Y-81478072D01*
X135067804Y-81454273D01*
X135064204Y-81430005D01*
X135063000Y-81405501D01*
X135063000Y-80755499D01*
X135064204Y-80730995D01*
X135067804Y-80706727D01*
X135073765Y-80682928D01*
X135082030Y-80659829D01*
X135092520Y-80637650D01*
X135105132Y-80616607D01*
X135119747Y-80596901D01*
X135136223Y-80578723D01*
X135154401Y-80562247D01*
X135174107Y-80547632D01*
X135195150Y-80535020D01*
X135217329Y-80524530D01*
X135240428Y-80516265D01*
X135264227Y-80510304D01*
X135288495Y-80506704D01*
X135312999Y-80505500D01*
X136213001Y-80505500D01*
X136237505Y-80506704D01*
X136237505Y-80506704D01*
G37*
D20*
X135763000Y-81080500D03*
D10*
G36*
X136237505Y-82556704D02*
G01*
X136261773Y-82560304D01*
X136285572Y-82566265D01*
X136308671Y-82574530D01*
X136330850Y-82585020D01*
X136351893Y-82597632D01*
X136371599Y-82612247D01*
X136389777Y-82628723D01*
X136406253Y-82646901D01*
X136420868Y-82666607D01*
X136433480Y-82687650D01*
X136443970Y-82709829D01*
X136452235Y-82732928D01*
X136458196Y-82756727D01*
X136461796Y-82780995D01*
X136463000Y-82805499D01*
X136463000Y-83455501D01*
X136461796Y-83480005D01*
X136458196Y-83504273D01*
X136452235Y-83528072D01*
X136443970Y-83551171D01*
X136433480Y-83573350D01*
X136420868Y-83594393D01*
X136406253Y-83614099D01*
X136389777Y-83632277D01*
X136371599Y-83648753D01*
X136351893Y-83663368D01*
X136330850Y-83675980D01*
X136308671Y-83686470D01*
X136285572Y-83694735D01*
X136261773Y-83700696D01*
X136237505Y-83704296D01*
X136213001Y-83705500D01*
X135312999Y-83705500D01*
X135288495Y-83704296D01*
X135264227Y-83700696D01*
X135240428Y-83694735D01*
X135217329Y-83686470D01*
X135195150Y-83675980D01*
X135174107Y-83663368D01*
X135154401Y-83648753D01*
X135136223Y-83632277D01*
X135119747Y-83614099D01*
X135105132Y-83594393D01*
X135092520Y-83573350D01*
X135082030Y-83551171D01*
X135073765Y-83528072D01*
X135067804Y-83504273D01*
X135064204Y-83480005D01*
X135063000Y-83455501D01*
X135063000Y-82805499D01*
X135064204Y-82780995D01*
X135067804Y-82756727D01*
X135073765Y-82732928D01*
X135082030Y-82709829D01*
X135092520Y-82687650D01*
X135105132Y-82666607D01*
X135119747Y-82646901D01*
X135136223Y-82628723D01*
X135154401Y-82612247D01*
X135174107Y-82597632D01*
X135195150Y-82585020D01*
X135217329Y-82574530D01*
X135240428Y-82566265D01*
X135264227Y-82560304D01*
X135288495Y-82556704D01*
X135312999Y-82555500D01*
X136213001Y-82555500D01*
X136237505Y-82556704D01*
X136237505Y-82556704D01*
G37*
D20*
X135763000Y-83130500D03*
D10*
G36*
X112245505Y-71564204D02*
G01*
X112269773Y-71567804D01*
X112293572Y-71573765D01*
X112316671Y-71582030D01*
X112338850Y-71592520D01*
X112359893Y-71605132D01*
X112379599Y-71619747D01*
X112397777Y-71636223D01*
X112414253Y-71654401D01*
X112428868Y-71674107D01*
X112441480Y-71695150D01*
X112451970Y-71717329D01*
X112460235Y-71740428D01*
X112466196Y-71764227D01*
X112469796Y-71788495D01*
X112471000Y-71812999D01*
X112471000Y-72713001D01*
X112469796Y-72737505D01*
X112466196Y-72761773D01*
X112460235Y-72785572D01*
X112451970Y-72808671D01*
X112441480Y-72830850D01*
X112428868Y-72851893D01*
X112414253Y-72871599D01*
X112397777Y-72889777D01*
X112379599Y-72906253D01*
X112359893Y-72920868D01*
X112338850Y-72933480D01*
X112316671Y-72943970D01*
X112293572Y-72952235D01*
X112269773Y-72958196D01*
X112245505Y-72961796D01*
X112221001Y-72963000D01*
X111570999Y-72963000D01*
X111546495Y-72961796D01*
X111522227Y-72958196D01*
X111498428Y-72952235D01*
X111475329Y-72943970D01*
X111453150Y-72933480D01*
X111432107Y-72920868D01*
X111412401Y-72906253D01*
X111394223Y-72889777D01*
X111377747Y-72871599D01*
X111363132Y-72851893D01*
X111350520Y-72830850D01*
X111340030Y-72808671D01*
X111331765Y-72785572D01*
X111325804Y-72761773D01*
X111322204Y-72737505D01*
X111321000Y-72713001D01*
X111321000Y-71812999D01*
X111322204Y-71788495D01*
X111325804Y-71764227D01*
X111331765Y-71740428D01*
X111340030Y-71717329D01*
X111350520Y-71695150D01*
X111363132Y-71674107D01*
X111377747Y-71654401D01*
X111394223Y-71636223D01*
X111412401Y-71619747D01*
X111432107Y-71605132D01*
X111453150Y-71592520D01*
X111475329Y-71582030D01*
X111498428Y-71573765D01*
X111522227Y-71567804D01*
X111546495Y-71564204D01*
X111570999Y-71563000D01*
X112221001Y-71563000D01*
X112245505Y-71564204D01*
X112245505Y-71564204D01*
G37*
D20*
X111896000Y-72263000D03*
D10*
G36*
X110195505Y-71564204D02*
G01*
X110219773Y-71567804D01*
X110243572Y-71573765D01*
X110266671Y-71582030D01*
X110288850Y-71592520D01*
X110309893Y-71605132D01*
X110329599Y-71619747D01*
X110347777Y-71636223D01*
X110364253Y-71654401D01*
X110378868Y-71674107D01*
X110391480Y-71695150D01*
X110401970Y-71717329D01*
X110410235Y-71740428D01*
X110416196Y-71764227D01*
X110419796Y-71788495D01*
X110421000Y-71812999D01*
X110421000Y-72713001D01*
X110419796Y-72737505D01*
X110416196Y-72761773D01*
X110410235Y-72785572D01*
X110401970Y-72808671D01*
X110391480Y-72830850D01*
X110378868Y-72851893D01*
X110364253Y-72871599D01*
X110347777Y-72889777D01*
X110329599Y-72906253D01*
X110309893Y-72920868D01*
X110288850Y-72933480D01*
X110266671Y-72943970D01*
X110243572Y-72952235D01*
X110219773Y-72958196D01*
X110195505Y-72961796D01*
X110171001Y-72963000D01*
X109520999Y-72963000D01*
X109496495Y-72961796D01*
X109472227Y-72958196D01*
X109448428Y-72952235D01*
X109425329Y-72943970D01*
X109403150Y-72933480D01*
X109382107Y-72920868D01*
X109362401Y-72906253D01*
X109344223Y-72889777D01*
X109327747Y-72871599D01*
X109313132Y-72851893D01*
X109300520Y-72830850D01*
X109290030Y-72808671D01*
X109281765Y-72785572D01*
X109275804Y-72761773D01*
X109272204Y-72737505D01*
X109271000Y-72713001D01*
X109271000Y-71812999D01*
X109272204Y-71788495D01*
X109275804Y-71764227D01*
X109281765Y-71740428D01*
X109290030Y-71717329D01*
X109300520Y-71695150D01*
X109313132Y-71674107D01*
X109327747Y-71654401D01*
X109344223Y-71636223D01*
X109362401Y-71619747D01*
X109382107Y-71605132D01*
X109403150Y-71592520D01*
X109425329Y-71582030D01*
X109448428Y-71573765D01*
X109472227Y-71567804D01*
X109496495Y-71564204D01*
X109520999Y-71563000D01*
X110171001Y-71563000D01*
X110195505Y-71564204D01*
X110195505Y-71564204D01*
G37*
D20*
X109846000Y-72263000D03*
D21*
X131000500Y-91518000D03*
X131000500Y-94918000D03*
D22*
X124968000Y-80200500D03*
D23*
X132588000Y-82740500D03*
X124968000Y-82740500D03*
X132588000Y-80200500D03*
D10*
G36*
X115077703Y-78186722D02*
G01*
X115092264Y-78188882D01*
X115106543Y-78192459D01*
X115120403Y-78197418D01*
X115133710Y-78203712D01*
X115146336Y-78211280D01*
X115158159Y-78220048D01*
X115169066Y-78229934D01*
X115178952Y-78240841D01*
X115187720Y-78252664D01*
X115195288Y-78265290D01*
X115201582Y-78278597D01*
X115206541Y-78292457D01*
X115210118Y-78306736D01*
X115212278Y-78321297D01*
X115213000Y-78336000D01*
X115213000Y-78636000D01*
X115212278Y-78650703D01*
X115210118Y-78665264D01*
X115206541Y-78679543D01*
X115201582Y-78693403D01*
X115195288Y-78706710D01*
X115187720Y-78719336D01*
X115178952Y-78731159D01*
X115169066Y-78742066D01*
X115158159Y-78751952D01*
X115146336Y-78760720D01*
X115133710Y-78768288D01*
X115120403Y-78774582D01*
X115106543Y-78779541D01*
X115092264Y-78783118D01*
X115077703Y-78785278D01*
X115063000Y-78786000D01*
X113413000Y-78786000D01*
X113398297Y-78785278D01*
X113383736Y-78783118D01*
X113369457Y-78779541D01*
X113355597Y-78774582D01*
X113342290Y-78768288D01*
X113329664Y-78760720D01*
X113317841Y-78751952D01*
X113306934Y-78742066D01*
X113297048Y-78731159D01*
X113288280Y-78719336D01*
X113280712Y-78706710D01*
X113274418Y-78693403D01*
X113269459Y-78679543D01*
X113265882Y-78665264D01*
X113263722Y-78650703D01*
X113263000Y-78636000D01*
X113263000Y-78336000D01*
X113263722Y-78321297D01*
X113265882Y-78306736D01*
X113269459Y-78292457D01*
X113274418Y-78278597D01*
X113280712Y-78265290D01*
X113288280Y-78252664D01*
X113297048Y-78240841D01*
X113306934Y-78229934D01*
X113317841Y-78220048D01*
X113329664Y-78211280D01*
X113342290Y-78203712D01*
X113355597Y-78197418D01*
X113369457Y-78192459D01*
X113383736Y-78188882D01*
X113398297Y-78186722D01*
X113413000Y-78186000D01*
X115063000Y-78186000D01*
X115077703Y-78186722D01*
X115077703Y-78186722D01*
G37*
D24*
X114238000Y-78486000D03*
D10*
G36*
X115077703Y-79456722D02*
G01*
X115092264Y-79458882D01*
X115106543Y-79462459D01*
X115120403Y-79467418D01*
X115133710Y-79473712D01*
X115146336Y-79481280D01*
X115158159Y-79490048D01*
X115169066Y-79499934D01*
X115178952Y-79510841D01*
X115187720Y-79522664D01*
X115195288Y-79535290D01*
X115201582Y-79548597D01*
X115206541Y-79562457D01*
X115210118Y-79576736D01*
X115212278Y-79591297D01*
X115213000Y-79606000D01*
X115213000Y-79906000D01*
X115212278Y-79920703D01*
X115210118Y-79935264D01*
X115206541Y-79949543D01*
X115201582Y-79963403D01*
X115195288Y-79976710D01*
X115187720Y-79989336D01*
X115178952Y-80001159D01*
X115169066Y-80012066D01*
X115158159Y-80021952D01*
X115146336Y-80030720D01*
X115133710Y-80038288D01*
X115120403Y-80044582D01*
X115106543Y-80049541D01*
X115092264Y-80053118D01*
X115077703Y-80055278D01*
X115063000Y-80056000D01*
X113413000Y-80056000D01*
X113398297Y-80055278D01*
X113383736Y-80053118D01*
X113369457Y-80049541D01*
X113355597Y-80044582D01*
X113342290Y-80038288D01*
X113329664Y-80030720D01*
X113317841Y-80021952D01*
X113306934Y-80012066D01*
X113297048Y-80001159D01*
X113288280Y-79989336D01*
X113280712Y-79976710D01*
X113274418Y-79963403D01*
X113269459Y-79949543D01*
X113265882Y-79935264D01*
X113263722Y-79920703D01*
X113263000Y-79906000D01*
X113263000Y-79606000D01*
X113263722Y-79591297D01*
X113265882Y-79576736D01*
X113269459Y-79562457D01*
X113274418Y-79548597D01*
X113280712Y-79535290D01*
X113288280Y-79522664D01*
X113297048Y-79510841D01*
X113306934Y-79499934D01*
X113317841Y-79490048D01*
X113329664Y-79481280D01*
X113342290Y-79473712D01*
X113355597Y-79467418D01*
X113369457Y-79462459D01*
X113383736Y-79458882D01*
X113398297Y-79456722D01*
X113413000Y-79456000D01*
X115063000Y-79456000D01*
X115077703Y-79456722D01*
X115077703Y-79456722D01*
G37*
D24*
X114238000Y-79756000D03*
D10*
G36*
X115077703Y-80726722D02*
G01*
X115092264Y-80728882D01*
X115106543Y-80732459D01*
X115120403Y-80737418D01*
X115133710Y-80743712D01*
X115146336Y-80751280D01*
X115158159Y-80760048D01*
X115169066Y-80769934D01*
X115178952Y-80780841D01*
X115187720Y-80792664D01*
X115195288Y-80805290D01*
X115201582Y-80818597D01*
X115206541Y-80832457D01*
X115210118Y-80846736D01*
X115212278Y-80861297D01*
X115213000Y-80876000D01*
X115213000Y-81176000D01*
X115212278Y-81190703D01*
X115210118Y-81205264D01*
X115206541Y-81219543D01*
X115201582Y-81233403D01*
X115195288Y-81246710D01*
X115187720Y-81259336D01*
X115178952Y-81271159D01*
X115169066Y-81282066D01*
X115158159Y-81291952D01*
X115146336Y-81300720D01*
X115133710Y-81308288D01*
X115120403Y-81314582D01*
X115106543Y-81319541D01*
X115092264Y-81323118D01*
X115077703Y-81325278D01*
X115063000Y-81326000D01*
X113413000Y-81326000D01*
X113398297Y-81325278D01*
X113383736Y-81323118D01*
X113369457Y-81319541D01*
X113355597Y-81314582D01*
X113342290Y-81308288D01*
X113329664Y-81300720D01*
X113317841Y-81291952D01*
X113306934Y-81282066D01*
X113297048Y-81271159D01*
X113288280Y-81259336D01*
X113280712Y-81246710D01*
X113274418Y-81233403D01*
X113269459Y-81219543D01*
X113265882Y-81205264D01*
X113263722Y-81190703D01*
X113263000Y-81176000D01*
X113263000Y-80876000D01*
X113263722Y-80861297D01*
X113265882Y-80846736D01*
X113269459Y-80832457D01*
X113274418Y-80818597D01*
X113280712Y-80805290D01*
X113288280Y-80792664D01*
X113297048Y-80780841D01*
X113306934Y-80769934D01*
X113317841Y-80760048D01*
X113329664Y-80751280D01*
X113342290Y-80743712D01*
X113355597Y-80737418D01*
X113369457Y-80732459D01*
X113383736Y-80728882D01*
X113398297Y-80726722D01*
X113413000Y-80726000D01*
X115063000Y-80726000D01*
X115077703Y-80726722D01*
X115077703Y-80726722D01*
G37*
D24*
X114238000Y-81026000D03*
D10*
G36*
X115077703Y-81996722D02*
G01*
X115092264Y-81998882D01*
X115106543Y-82002459D01*
X115120403Y-82007418D01*
X115133710Y-82013712D01*
X115146336Y-82021280D01*
X115158159Y-82030048D01*
X115169066Y-82039934D01*
X115178952Y-82050841D01*
X115187720Y-82062664D01*
X115195288Y-82075290D01*
X115201582Y-82088597D01*
X115206541Y-82102457D01*
X115210118Y-82116736D01*
X115212278Y-82131297D01*
X115213000Y-82146000D01*
X115213000Y-82446000D01*
X115212278Y-82460703D01*
X115210118Y-82475264D01*
X115206541Y-82489543D01*
X115201582Y-82503403D01*
X115195288Y-82516710D01*
X115187720Y-82529336D01*
X115178952Y-82541159D01*
X115169066Y-82552066D01*
X115158159Y-82561952D01*
X115146336Y-82570720D01*
X115133710Y-82578288D01*
X115120403Y-82584582D01*
X115106543Y-82589541D01*
X115092264Y-82593118D01*
X115077703Y-82595278D01*
X115063000Y-82596000D01*
X113413000Y-82596000D01*
X113398297Y-82595278D01*
X113383736Y-82593118D01*
X113369457Y-82589541D01*
X113355597Y-82584582D01*
X113342290Y-82578288D01*
X113329664Y-82570720D01*
X113317841Y-82561952D01*
X113306934Y-82552066D01*
X113297048Y-82541159D01*
X113288280Y-82529336D01*
X113280712Y-82516710D01*
X113274418Y-82503403D01*
X113269459Y-82489543D01*
X113265882Y-82475264D01*
X113263722Y-82460703D01*
X113263000Y-82446000D01*
X113263000Y-82146000D01*
X113263722Y-82131297D01*
X113265882Y-82116736D01*
X113269459Y-82102457D01*
X113274418Y-82088597D01*
X113280712Y-82075290D01*
X113288280Y-82062664D01*
X113297048Y-82050841D01*
X113306934Y-82039934D01*
X113317841Y-82030048D01*
X113329664Y-82021280D01*
X113342290Y-82013712D01*
X113355597Y-82007418D01*
X113369457Y-82002459D01*
X113383736Y-81998882D01*
X113398297Y-81996722D01*
X113413000Y-81996000D01*
X115063000Y-81996000D01*
X115077703Y-81996722D01*
X115077703Y-81996722D01*
G37*
D24*
X114238000Y-82296000D03*
D10*
G36*
X120027703Y-81996722D02*
G01*
X120042264Y-81998882D01*
X120056543Y-82002459D01*
X120070403Y-82007418D01*
X120083710Y-82013712D01*
X120096336Y-82021280D01*
X120108159Y-82030048D01*
X120119066Y-82039934D01*
X120128952Y-82050841D01*
X120137720Y-82062664D01*
X120145288Y-82075290D01*
X120151582Y-82088597D01*
X120156541Y-82102457D01*
X120160118Y-82116736D01*
X120162278Y-82131297D01*
X120163000Y-82146000D01*
X120163000Y-82446000D01*
X120162278Y-82460703D01*
X120160118Y-82475264D01*
X120156541Y-82489543D01*
X120151582Y-82503403D01*
X120145288Y-82516710D01*
X120137720Y-82529336D01*
X120128952Y-82541159D01*
X120119066Y-82552066D01*
X120108159Y-82561952D01*
X120096336Y-82570720D01*
X120083710Y-82578288D01*
X120070403Y-82584582D01*
X120056543Y-82589541D01*
X120042264Y-82593118D01*
X120027703Y-82595278D01*
X120013000Y-82596000D01*
X118363000Y-82596000D01*
X118348297Y-82595278D01*
X118333736Y-82593118D01*
X118319457Y-82589541D01*
X118305597Y-82584582D01*
X118292290Y-82578288D01*
X118279664Y-82570720D01*
X118267841Y-82561952D01*
X118256934Y-82552066D01*
X118247048Y-82541159D01*
X118238280Y-82529336D01*
X118230712Y-82516710D01*
X118224418Y-82503403D01*
X118219459Y-82489543D01*
X118215882Y-82475264D01*
X118213722Y-82460703D01*
X118213000Y-82446000D01*
X118213000Y-82146000D01*
X118213722Y-82131297D01*
X118215882Y-82116736D01*
X118219459Y-82102457D01*
X118224418Y-82088597D01*
X118230712Y-82075290D01*
X118238280Y-82062664D01*
X118247048Y-82050841D01*
X118256934Y-82039934D01*
X118267841Y-82030048D01*
X118279664Y-82021280D01*
X118292290Y-82013712D01*
X118305597Y-82007418D01*
X118319457Y-82002459D01*
X118333736Y-81998882D01*
X118348297Y-81996722D01*
X118363000Y-81996000D01*
X120013000Y-81996000D01*
X120027703Y-81996722D01*
X120027703Y-81996722D01*
G37*
D24*
X119188000Y-82296000D03*
D10*
G36*
X120027703Y-80726722D02*
G01*
X120042264Y-80728882D01*
X120056543Y-80732459D01*
X120070403Y-80737418D01*
X120083710Y-80743712D01*
X120096336Y-80751280D01*
X120108159Y-80760048D01*
X120119066Y-80769934D01*
X120128952Y-80780841D01*
X120137720Y-80792664D01*
X120145288Y-80805290D01*
X120151582Y-80818597D01*
X120156541Y-80832457D01*
X120160118Y-80846736D01*
X120162278Y-80861297D01*
X120163000Y-80876000D01*
X120163000Y-81176000D01*
X120162278Y-81190703D01*
X120160118Y-81205264D01*
X120156541Y-81219543D01*
X120151582Y-81233403D01*
X120145288Y-81246710D01*
X120137720Y-81259336D01*
X120128952Y-81271159D01*
X120119066Y-81282066D01*
X120108159Y-81291952D01*
X120096336Y-81300720D01*
X120083710Y-81308288D01*
X120070403Y-81314582D01*
X120056543Y-81319541D01*
X120042264Y-81323118D01*
X120027703Y-81325278D01*
X120013000Y-81326000D01*
X118363000Y-81326000D01*
X118348297Y-81325278D01*
X118333736Y-81323118D01*
X118319457Y-81319541D01*
X118305597Y-81314582D01*
X118292290Y-81308288D01*
X118279664Y-81300720D01*
X118267841Y-81291952D01*
X118256934Y-81282066D01*
X118247048Y-81271159D01*
X118238280Y-81259336D01*
X118230712Y-81246710D01*
X118224418Y-81233403D01*
X118219459Y-81219543D01*
X118215882Y-81205264D01*
X118213722Y-81190703D01*
X118213000Y-81176000D01*
X118213000Y-80876000D01*
X118213722Y-80861297D01*
X118215882Y-80846736D01*
X118219459Y-80832457D01*
X118224418Y-80818597D01*
X118230712Y-80805290D01*
X118238280Y-80792664D01*
X118247048Y-80780841D01*
X118256934Y-80769934D01*
X118267841Y-80760048D01*
X118279664Y-80751280D01*
X118292290Y-80743712D01*
X118305597Y-80737418D01*
X118319457Y-80732459D01*
X118333736Y-80728882D01*
X118348297Y-80726722D01*
X118363000Y-80726000D01*
X120013000Y-80726000D01*
X120027703Y-80726722D01*
X120027703Y-80726722D01*
G37*
D24*
X119188000Y-81026000D03*
D10*
G36*
X120027703Y-79456722D02*
G01*
X120042264Y-79458882D01*
X120056543Y-79462459D01*
X120070403Y-79467418D01*
X120083710Y-79473712D01*
X120096336Y-79481280D01*
X120108159Y-79490048D01*
X120119066Y-79499934D01*
X120128952Y-79510841D01*
X120137720Y-79522664D01*
X120145288Y-79535290D01*
X120151582Y-79548597D01*
X120156541Y-79562457D01*
X120160118Y-79576736D01*
X120162278Y-79591297D01*
X120163000Y-79606000D01*
X120163000Y-79906000D01*
X120162278Y-79920703D01*
X120160118Y-79935264D01*
X120156541Y-79949543D01*
X120151582Y-79963403D01*
X120145288Y-79976710D01*
X120137720Y-79989336D01*
X120128952Y-80001159D01*
X120119066Y-80012066D01*
X120108159Y-80021952D01*
X120096336Y-80030720D01*
X120083710Y-80038288D01*
X120070403Y-80044582D01*
X120056543Y-80049541D01*
X120042264Y-80053118D01*
X120027703Y-80055278D01*
X120013000Y-80056000D01*
X118363000Y-80056000D01*
X118348297Y-80055278D01*
X118333736Y-80053118D01*
X118319457Y-80049541D01*
X118305597Y-80044582D01*
X118292290Y-80038288D01*
X118279664Y-80030720D01*
X118267841Y-80021952D01*
X118256934Y-80012066D01*
X118247048Y-80001159D01*
X118238280Y-79989336D01*
X118230712Y-79976710D01*
X118224418Y-79963403D01*
X118219459Y-79949543D01*
X118215882Y-79935264D01*
X118213722Y-79920703D01*
X118213000Y-79906000D01*
X118213000Y-79606000D01*
X118213722Y-79591297D01*
X118215882Y-79576736D01*
X118219459Y-79562457D01*
X118224418Y-79548597D01*
X118230712Y-79535290D01*
X118238280Y-79522664D01*
X118247048Y-79510841D01*
X118256934Y-79499934D01*
X118267841Y-79490048D01*
X118279664Y-79481280D01*
X118292290Y-79473712D01*
X118305597Y-79467418D01*
X118319457Y-79462459D01*
X118333736Y-79458882D01*
X118348297Y-79456722D01*
X118363000Y-79456000D01*
X120013000Y-79456000D01*
X120027703Y-79456722D01*
X120027703Y-79456722D01*
G37*
D24*
X119188000Y-79756000D03*
D10*
G36*
X120027703Y-78186722D02*
G01*
X120042264Y-78188882D01*
X120056543Y-78192459D01*
X120070403Y-78197418D01*
X120083710Y-78203712D01*
X120096336Y-78211280D01*
X120108159Y-78220048D01*
X120119066Y-78229934D01*
X120128952Y-78240841D01*
X120137720Y-78252664D01*
X120145288Y-78265290D01*
X120151582Y-78278597D01*
X120156541Y-78292457D01*
X120160118Y-78306736D01*
X120162278Y-78321297D01*
X120163000Y-78336000D01*
X120163000Y-78636000D01*
X120162278Y-78650703D01*
X120160118Y-78665264D01*
X120156541Y-78679543D01*
X120151582Y-78693403D01*
X120145288Y-78706710D01*
X120137720Y-78719336D01*
X120128952Y-78731159D01*
X120119066Y-78742066D01*
X120108159Y-78751952D01*
X120096336Y-78760720D01*
X120083710Y-78768288D01*
X120070403Y-78774582D01*
X120056543Y-78779541D01*
X120042264Y-78783118D01*
X120027703Y-78785278D01*
X120013000Y-78786000D01*
X118363000Y-78786000D01*
X118348297Y-78785278D01*
X118333736Y-78783118D01*
X118319457Y-78779541D01*
X118305597Y-78774582D01*
X118292290Y-78768288D01*
X118279664Y-78760720D01*
X118267841Y-78751952D01*
X118256934Y-78742066D01*
X118247048Y-78731159D01*
X118238280Y-78719336D01*
X118230712Y-78706710D01*
X118224418Y-78693403D01*
X118219459Y-78679543D01*
X118215882Y-78665264D01*
X118213722Y-78650703D01*
X118213000Y-78636000D01*
X118213000Y-78336000D01*
X118213722Y-78321297D01*
X118215882Y-78306736D01*
X118219459Y-78292457D01*
X118224418Y-78278597D01*
X118230712Y-78265290D01*
X118238280Y-78252664D01*
X118247048Y-78240841D01*
X118256934Y-78229934D01*
X118267841Y-78220048D01*
X118279664Y-78211280D01*
X118292290Y-78203712D01*
X118305597Y-78197418D01*
X118319457Y-78192459D01*
X118333736Y-78188882D01*
X118348297Y-78186722D01*
X118363000Y-78186000D01*
X120013000Y-78186000D01*
X120027703Y-78186722D01*
X120027703Y-78186722D01*
G37*
D24*
X119188000Y-78486000D03*
D25*
X141668500Y-80987500D03*
D26*
X141668500Y-87287500D03*
X143968500Y-87287500D03*
X139368500Y-87287500D03*
D10*
G36*
X116182505Y-75310704D02*
G01*
X116206773Y-75314304D01*
X116230572Y-75320265D01*
X116253671Y-75328530D01*
X116275850Y-75339020D01*
X116296893Y-75351632D01*
X116316599Y-75366247D01*
X116334777Y-75382723D01*
X116351253Y-75400901D01*
X116365868Y-75420607D01*
X116378480Y-75441650D01*
X116388970Y-75463829D01*
X116397235Y-75486928D01*
X116403196Y-75510727D01*
X116406796Y-75534995D01*
X116408000Y-75559499D01*
X116408000Y-76459501D01*
X116406796Y-76484005D01*
X116403196Y-76508273D01*
X116397235Y-76532072D01*
X116388970Y-76555171D01*
X116378480Y-76577350D01*
X116365868Y-76598393D01*
X116351253Y-76618099D01*
X116334777Y-76636277D01*
X116316599Y-76652753D01*
X116296893Y-76667368D01*
X116275850Y-76679980D01*
X116253671Y-76690470D01*
X116230572Y-76698735D01*
X116206773Y-76704696D01*
X116182505Y-76708296D01*
X116158001Y-76709500D01*
X115507999Y-76709500D01*
X115483495Y-76708296D01*
X115459227Y-76704696D01*
X115435428Y-76698735D01*
X115412329Y-76690470D01*
X115390150Y-76679980D01*
X115369107Y-76667368D01*
X115349401Y-76652753D01*
X115331223Y-76636277D01*
X115314747Y-76618099D01*
X115300132Y-76598393D01*
X115287520Y-76577350D01*
X115277030Y-76555171D01*
X115268765Y-76532072D01*
X115262804Y-76508273D01*
X115259204Y-76484005D01*
X115258000Y-76459501D01*
X115258000Y-75559499D01*
X115259204Y-75534995D01*
X115262804Y-75510727D01*
X115268765Y-75486928D01*
X115277030Y-75463829D01*
X115287520Y-75441650D01*
X115300132Y-75420607D01*
X115314747Y-75400901D01*
X115331223Y-75382723D01*
X115349401Y-75366247D01*
X115369107Y-75351632D01*
X115390150Y-75339020D01*
X115412329Y-75328530D01*
X115435428Y-75320265D01*
X115459227Y-75314304D01*
X115483495Y-75310704D01*
X115507999Y-75309500D01*
X116158001Y-75309500D01*
X116182505Y-75310704D01*
X116182505Y-75310704D01*
G37*
D20*
X115833000Y-76009500D03*
D10*
G36*
X114132505Y-75310704D02*
G01*
X114156773Y-75314304D01*
X114180572Y-75320265D01*
X114203671Y-75328530D01*
X114225850Y-75339020D01*
X114246893Y-75351632D01*
X114266599Y-75366247D01*
X114284777Y-75382723D01*
X114301253Y-75400901D01*
X114315868Y-75420607D01*
X114328480Y-75441650D01*
X114338970Y-75463829D01*
X114347235Y-75486928D01*
X114353196Y-75510727D01*
X114356796Y-75534995D01*
X114358000Y-75559499D01*
X114358000Y-76459501D01*
X114356796Y-76484005D01*
X114353196Y-76508273D01*
X114347235Y-76532072D01*
X114338970Y-76555171D01*
X114328480Y-76577350D01*
X114315868Y-76598393D01*
X114301253Y-76618099D01*
X114284777Y-76636277D01*
X114266599Y-76652753D01*
X114246893Y-76667368D01*
X114225850Y-76679980D01*
X114203671Y-76690470D01*
X114180572Y-76698735D01*
X114156773Y-76704696D01*
X114132505Y-76708296D01*
X114108001Y-76709500D01*
X113457999Y-76709500D01*
X113433495Y-76708296D01*
X113409227Y-76704696D01*
X113385428Y-76698735D01*
X113362329Y-76690470D01*
X113340150Y-76679980D01*
X113319107Y-76667368D01*
X113299401Y-76652753D01*
X113281223Y-76636277D01*
X113264747Y-76618099D01*
X113250132Y-76598393D01*
X113237520Y-76577350D01*
X113227030Y-76555171D01*
X113218765Y-76532072D01*
X113212804Y-76508273D01*
X113209204Y-76484005D01*
X113208000Y-76459501D01*
X113208000Y-75559499D01*
X113209204Y-75534995D01*
X113212804Y-75510727D01*
X113218765Y-75486928D01*
X113227030Y-75463829D01*
X113237520Y-75441650D01*
X113250132Y-75420607D01*
X113264747Y-75400901D01*
X113281223Y-75382723D01*
X113299401Y-75366247D01*
X113319107Y-75351632D01*
X113340150Y-75339020D01*
X113362329Y-75328530D01*
X113385428Y-75320265D01*
X113409227Y-75314304D01*
X113433495Y-75310704D01*
X113457999Y-75309500D01*
X114108001Y-75309500D01*
X114132505Y-75310704D01*
X114132505Y-75310704D01*
G37*
D20*
X113783000Y-76009500D03*
D10*
G36*
X131023505Y-70738704D02*
G01*
X131047773Y-70742304D01*
X131071572Y-70748265D01*
X131094671Y-70756530D01*
X131116850Y-70767020D01*
X131137893Y-70779632D01*
X131157599Y-70794247D01*
X131175777Y-70810723D01*
X131192253Y-70828901D01*
X131206868Y-70848607D01*
X131219480Y-70869650D01*
X131229970Y-70891829D01*
X131238235Y-70914928D01*
X131244196Y-70938727D01*
X131247796Y-70962995D01*
X131249000Y-70987499D01*
X131249000Y-71887501D01*
X131247796Y-71912005D01*
X131244196Y-71936273D01*
X131238235Y-71960072D01*
X131229970Y-71983171D01*
X131219480Y-72005350D01*
X131206868Y-72026393D01*
X131192253Y-72046099D01*
X131175777Y-72064277D01*
X131157599Y-72080753D01*
X131137893Y-72095368D01*
X131116850Y-72107980D01*
X131094671Y-72118470D01*
X131071572Y-72126735D01*
X131047773Y-72132696D01*
X131023505Y-72136296D01*
X130999001Y-72137500D01*
X130348999Y-72137500D01*
X130324495Y-72136296D01*
X130300227Y-72132696D01*
X130276428Y-72126735D01*
X130253329Y-72118470D01*
X130231150Y-72107980D01*
X130210107Y-72095368D01*
X130190401Y-72080753D01*
X130172223Y-72064277D01*
X130155747Y-72046099D01*
X130141132Y-72026393D01*
X130128520Y-72005350D01*
X130118030Y-71983171D01*
X130109765Y-71960072D01*
X130103804Y-71936273D01*
X130100204Y-71912005D01*
X130099000Y-71887501D01*
X130099000Y-70987499D01*
X130100204Y-70962995D01*
X130103804Y-70938727D01*
X130109765Y-70914928D01*
X130118030Y-70891829D01*
X130128520Y-70869650D01*
X130141132Y-70848607D01*
X130155747Y-70828901D01*
X130172223Y-70810723D01*
X130190401Y-70794247D01*
X130210107Y-70779632D01*
X130231150Y-70767020D01*
X130253329Y-70756530D01*
X130276428Y-70748265D01*
X130300227Y-70742304D01*
X130324495Y-70738704D01*
X130348999Y-70737500D01*
X130999001Y-70737500D01*
X131023505Y-70738704D01*
X131023505Y-70738704D01*
G37*
D20*
X130674000Y-71437500D03*
D10*
G36*
X133073505Y-70738704D02*
G01*
X133097773Y-70742304D01*
X133121572Y-70748265D01*
X133144671Y-70756530D01*
X133166850Y-70767020D01*
X133187893Y-70779632D01*
X133207599Y-70794247D01*
X133225777Y-70810723D01*
X133242253Y-70828901D01*
X133256868Y-70848607D01*
X133269480Y-70869650D01*
X133279970Y-70891829D01*
X133288235Y-70914928D01*
X133294196Y-70938727D01*
X133297796Y-70962995D01*
X133299000Y-70987499D01*
X133299000Y-71887501D01*
X133297796Y-71912005D01*
X133294196Y-71936273D01*
X133288235Y-71960072D01*
X133279970Y-71983171D01*
X133269480Y-72005350D01*
X133256868Y-72026393D01*
X133242253Y-72046099D01*
X133225777Y-72064277D01*
X133207599Y-72080753D01*
X133187893Y-72095368D01*
X133166850Y-72107980D01*
X133144671Y-72118470D01*
X133121572Y-72126735D01*
X133097773Y-72132696D01*
X133073505Y-72136296D01*
X133049001Y-72137500D01*
X132398999Y-72137500D01*
X132374495Y-72136296D01*
X132350227Y-72132696D01*
X132326428Y-72126735D01*
X132303329Y-72118470D01*
X132281150Y-72107980D01*
X132260107Y-72095368D01*
X132240401Y-72080753D01*
X132222223Y-72064277D01*
X132205747Y-72046099D01*
X132191132Y-72026393D01*
X132178520Y-72005350D01*
X132168030Y-71983171D01*
X132159765Y-71960072D01*
X132153804Y-71936273D01*
X132150204Y-71912005D01*
X132149000Y-71887501D01*
X132149000Y-70987499D01*
X132150204Y-70962995D01*
X132153804Y-70938727D01*
X132159765Y-70914928D01*
X132168030Y-70891829D01*
X132178520Y-70869650D01*
X132191132Y-70848607D01*
X132205747Y-70828901D01*
X132222223Y-70810723D01*
X132240401Y-70794247D01*
X132260107Y-70779632D01*
X132281150Y-70767020D01*
X132303329Y-70756530D01*
X132326428Y-70748265D01*
X132350227Y-70742304D01*
X132374495Y-70738704D01*
X132398999Y-70737500D01*
X133049001Y-70737500D01*
X133073505Y-70738704D01*
X133073505Y-70738704D01*
G37*
D20*
X132724000Y-71437500D03*
D10*
G36*
X116436505Y-90550704D02*
G01*
X116460773Y-90554304D01*
X116484572Y-90560265D01*
X116507671Y-90568530D01*
X116529850Y-90579020D01*
X116550893Y-90591632D01*
X116570599Y-90606247D01*
X116588777Y-90622723D01*
X116605253Y-90640901D01*
X116619868Y-90660607D01*
X116632480Y-90681650D01*
X116642970Y-90703829D01*
X116651235Y-90726928D01*
X116657196Y-90750727D01*
X116660796Y-90774995D01*
X116662000Y-90799499D01*
X116662000Y-91699501D01*
X116660796Y-91724005D01*
X116657196Y-91748273D01*
X116651235Y-91772072D01*
X116642970Y-91795171D01*
X116632480Y-91817350D01*
X116619868Y-91838393D01*
X116605253Y-91858099D01*
X116588777Y-91876277D01*
X116570599Y-91892753D01*
X116550893Y-91907368D01*
X116529850Y-91919980D01*
X116507671Y-91930470D01*
X116484572Y-91938735D01*
X116460773Y-91944696D01*
X116436505Y-91948296D01*
X116412001Y-91949500D01*
X115761999Y-91949500D01*
X115737495Y-91948296D01*
X115713227Y-91944696D01*
X115689428Y-91938735D01*
X115666329Y-91930470D01*
X115644150Y-91919980D01*
X115623107Y-91907368D01*
X115603401Y-91892753D01*
X115585223Y-91876277D01*
X115568747Y-91858099D01*
X115554132Y-91838393D01*
X115541520Y-91817350D01*
X115531030Y-91795171D01*
X115522765Y-91772072D01*
X115516804Y-91748273D01*
X115513204Y-91724005D01*
X115512000Y-91699501D01*
X115512000Y-90799499D01*
X115513204Y-90774995D01*
X115516804Y-90750727D01*
X115522765Y-90726928D01*
X115531030Y-90703829D01*
X115541520Y-90681650D01*
X115554132Y-90660607D01*
X115568747Y-90640901D01*
X115585223Y-90622723D01*
X115603401Y-90606247D01*
X115623107Y-90591632D01*
X115644150Y-90579020D01*
X115666329Y-90568530D01*
X115689428Y-90560265D01*
X115713227Y-90554304D01*
X115737495Y-90550704D01*
X115761999Y-90549500D01*
X116412001Y-90549500D01*
X116436505Y-90550704D01*
X116436505Y-90550704D01*
G37*
D20*
X116087000Y-91249500D03*
D10*
G36*
X114386505Y-90550704D02*
G01*
X114410773Y-90554304D01*
X114434572Y-90560265D01*
X114457671Y-90568530D01*
X114479850Y-90579020D01*
X114500893Y-90591632D01*
X114520599Y-90606247D01*
X114538777Y-90622723D01*
X114555253Y-90640901D01*
X114569868Y-90660607D01*
X114582480Y-90681650D01*
X114592970Y-90703829D01*
X114601235Y-90726928D01*
X114607196Y-90750727D01*
X114610796Y-90774995D01*
X114612000Y-90799499D01*
X114612000Y-91699501D01*
X114610796Y-91724005D01*
X114607196Y-91748273D01*
X114601235Y-91772072D01*
X114592970Y-91795171D01*
X114582480Y-91817350D01*
X114569868Y-91838393D01*
X114555253Y-91858099D01*
X114538777Y-91876277D01*
X114520599Y-91892753D01*
X114500893Y-91907368D01*
X114479850Y-91919980D01*
X114457671Y-91930470D01*
X114434572Y-91938735D01*
X114410773Y-91944696D01*
X114386505Y-91948296D01*
X114362001Y-91949500D01*
X113711999Y-91949500D01*
X113687495Y-91948296D01*
X113663227Y-91944696D01*
X113639428Y-91938735D01*
X113616329Y-91930470D01*
X113594150Y-91919980D01*
X113573107Y-91907368D01*
X113553401Y-91892753D01*
X113535223Y-91876277D01*
X113518747Y-91858099D01*
X113504132Y-91838393D01*
X113491520Y-91817350D01*
X113481030Y-91795171D01*
X113472765Y-91772072D01*
X113466804Y-91748273D01*
X113463204Y-91724005D01*
X113462000Y-91699501D01*
X113462000Y-90799499D01*
X113463204Y-90774995D01*
X113466804Y-90750727D01*
X113472765Y-90726928D01*
X113481030Y-90703829D01*
X113491520Y-90681650D01*
X113504132Y-90660607D01*
X113518747Y-90640901D01*
X113535223Y-90622723D01*
X113553401Y-90606247D01*
X113573107Y-90591632D01*
X113594150Y-90579020D01*
X113616329Y-90568530D01*
X113639428Y-90560265D01*
X113663227Y-90554304D01*
X113687495Y-90550704D01*
X113711999Y-90549500D01*
X114362001Y-90549500D01*
X114386505Y-90550704D01*
X114386505Y-90550704D01*
G37*
D20*
X114037000Y-91249500D03*
D27*
X138493500Y-72326500D03*
D28*
X143493500Y-72326500D03*
D29*
X149034500Y-91962000D03*
X149034500Y-86962000D03*
X149034500Y-81962000D03*
D30*
X149034500Y-76962000D03*
D31*
X120904000Y-87630000D03*
X128460500Y-87122000D03*
X108839000Y-70104000D03*
X117729000Y-91249500D03*
X119761000Y-92456010D03*
X115697000Y-79121000D03*
X124841000Y-87185500D03*
X121031000Y-79438500D03*
X114300000Y-70929500D03*
X117157500Y-79057500D03*
X110236000Y-70675500D03*
D32*
X121994000Y-89440000D02*
X121994000Y-88720000D01*
X121994000Y-88720000D02*
X120904000Y-87630000D01*
X131000500Y-94214000D02*
X131000500Y-94918000D01*
X132651500Y-92563000D02*
X131000500Y-94214000D01*
X132651500Y-89777500D02*
X132651500Y-92563000D01*
X131340500Y-87566500D02*
X131340500Y-88466500D01*
X131340500Y-88466500D02*
X132651500Y-89777500D01*
X139532000Y-87451000D02*
X139368500Y-87287500D01*
X139532000Y-91948000D02*
X139532000Y-87451000D01*
X132907210Y-92818710D02*
X132651500Y-92563000D01*
X138661290Y-92818710D02*
X132907210Y-92818710D01*
X139532000Y-91948000D02*
X138661290Y-92818710D01*
X124968000Y-84010500D02*
X124968000Y-82740500D01*
X122491500Y-84527500D02*
X124451000Y-84527500D01*
X124451000Y-84527500D02*
X124968000Y-84010500D01*
X131340500Y-87566500D02*
X128905000Y-87566500D01*
X128905000Y-87566500D02*
X128460500Y-87122000D01*
X108839000Y-69469000D02*
X108839000Y-70104000D01*
X110564500Y-68643500D02*
X109664500Y-68643500D01*
X109664500Y-68643500D02*
X108839000Y-69469000D01*
X126619000Y-68643500D02*
X129741500Y-68643500D01*
X124951500Y-71945500D02*
X124951500Y-70311000D01*
X124951500Y-70311000D02*
X126619000Y-68643500D01*
X117284500Y-85342500D02*
X117284500Y-87376000D01*
X114238000Y-82296000D02*
X117284500Y-85342500D01*
D33*
X143932000Y-87324000D02*
X143968500Y-87287500D01*
X143932000Y-91948000D02*
X143932000Y-87324000D01*
X149020500Y-91948000D02*
X149034500Y-91962000D01*
X143932000Y-91948000D02*
X149020500Y-91948000D01*
D32*
X117729000Y-91249500D02*
X116087000Y-91249500D01*
X121994000Y-93440000D02*
X121204000Y-93440000D01*
X121204000Y-93440000D02*
X120220010Y-92456010D01*
X120220010Y-92456010D02*
X119761000Y-92456010D01*
D33*
X114046000Y-91240500D02*
X114037000Y-91249500D01*
X114744500Y-87376000D02*
X114046000Y-88074500D01*
X114046000Y-88074500D02*
X114046000Y-91240500D01*
X114037000Y-91113500D02*
X114037000Y-91249500D01*
X112585500Y-89662000D02*
X114037000Y-91113500D01*
X99340500Y-89662000D02*
X112585500Y-89662000D01*
X95993500Y-92283000D02*
X96719500Y-92283000D01*
X96719500Y-92283000D02*
X99340500Y-89662000D01*
D32*
X112519372Y-71639628D02*
X112519372Y-71238628D01*
X111896000Y-72263000D02*
X112519372Y-71639628D01*
X112519372Y-71238628D02*
X115114500Y-68643500D01*
X134291500Y-69870000D02*
X134291500Y-68643500D01*
X132724000Y-71437500D02*
X134291500Y-69870000D01*
X119570500Y-72326500D02*
X119951500Y-71945500D01*
X115960000Y-72326500D02*
X119570500Y-72326500D01*
X119253000Y-91845840D02*
X119253000Y-84860842D01*
X119027798Y-92071042D02*
X119253000Y-91845840D01*
X124072000Y-94742000D02*
X120865340Y-94742000D01*
X126164000Y-93440000D02*
X125374000Y-93440000D01*
X117538500Y-81600500D02*
X118113000Y-81026000D01*
X119027798Y-92904458D02*
X119027798Y-92071042D01*
X117538500Y-83146342D02*
X117538500Y-81600500D01*
X119253000Y-84860842D02*
X117538500Y-83146342D01*
X118113000Y-81026000D02*
X119188000Y-81026000D01*
X125374000Y-93440000D02*
X124072000Y-94742000D01*
X120865340Y-94742000D02*
X119027798Y-92904458D01*
X124620000Y-91440000D02*
X126164000Y-91440000D01*
X124269500Y-91440000D02*
X124620000Y-91440000D01*
X119188000Y-79756000D02*
X120015000Y-79756000D01*
X120869032Y-80610032D02*
X120869032Y-85245532D01*
X120869032Y-85245532D02*
X123888500Y-88265000D01*
X120015000Y-79756000D02*
X120869032Y-80610032D01*
X123888500Y-88265000D02*
X123888500Y-91059000D01*
X123888500Y-91059000D02*
X124269500Y-91440000D01*
X121204000Y-91440000D02*
X121994000Y-91440000D01*
X119824500Y-90060500D02*
X121204000Y-91440000D01*
X119188000Y-82296000D02*
X119824500Y-82932500D01*
X119824500Y-82932500D02*
X119824500Y-90060500D01*
X113783000Y-78031000D02*
X114238000Y-78486000D01*
X113783000Y-76009500D02*
X113783000Y-78031000D01*
X131000500Y-90814000D02*
X131000500Y-91518000D01*
X129626500Y-89440000D02*
X131000500Y-90814000D01*
X126164000Y-89440000D02*
X129626500Y-89440000D01*
X114238000Y-78486000D02*
X115062000Y-78486000D01*
X115062000Y-78486000D02*
X115697000Y-79121000D01*
X126164000Y-88508500D02*
X126164000Y-89440000D01*
X124841000Y-87185500D02*
X126164000Y-88508500D01*
X111252000Y-83058000D02*
X112712500Y-84518500D01*
X111252000Y-79311500D02*
X111252000Y-83058000D01*
X111896000Y-75209500D02*
X111362500Y-74676000D01*
X111362500Y-74676000D02*
X109156500Y-74676000D01*
X112712500Y-84518500D02*
X113750602Y-84518500D01*
X109156500Y-74676000D02*
X108648500Y-75184000D01*
X108648500Y-75184000D02*
X108648500Y-76708000D01*
X111896000Y-76009500D02*
X111896000Y-75209500D01*
X108648500Y-76708000D02*
X111252000Y-79311500D01*
X114161000Y-84518500D02*
X113750602Y-84518500D01*
X116014500Y-86372000D02*
X114161000Y-84518500D01*
X116014500Y-87376000D02*
X116014500Y-86372000D01*
X113163000Y-79756000D02*
X114238000Y-79756000D01*
X112792500Y-79756000D02*
X113163000Y-79756000D01*
X109846000Y-76809500D02*
X112792500Y-79756000D01*
X109846000Y-76009500D02*
X109846000Y-76809500D01*
X122491500Y-80654000D02*
X122491500Y-82477500D01*
X121276000Y-79438500D02*
X122491500Y-80654000D01*
X121031000Y-79438500D02*
X121276000Y-79438500D01*
X113957301Y-71272199D02*
X114300000Y-70929500D01*
X113910000Y-71319500D02*
X113957301Y-71272199D01*
X113910000Y-72326500D02*
X113910000Y-71319500D01*
X124968000Y-79146500D02*
X124968000Y-80200500D01*
X124425500Y-78604000D02*
X124968000Y-79146500D01*
X122491500Y-78604000D02*
X124425500Y-78604000D01*
X134629000Y-83130500D02*
X135763000Y-83130500D01*
X134112000Y-82613500D02*
X134629000Y-83130500D01*
X134112000Y-80899000D02*
X134112000Y-82613500D01*
X132588000Y-80200500D02*
X133413500Y-80200500D01*
X133413500Y-80200500D02*
X134112000Y-80899000D01*
X117157500Y-80073500D02*
X117157500Y-79057500D01*
X114238000Y-81026000D02*
X116205000Y-81026000D01*
X116205000Y-81026000D02*
X117157500Y-80073500D01*
X109846000Y-71065500D02*
X109893301Y-71018199D01*
X109893301Y-71018199D02*
X110236000Y-70675500D01*
X109846000Y-72263000D02*
X109846000Y-71065500D01*
G36*
X151613001Y-94971000D02*
G01*
X140875408Y-94971000D01*
X140842999Y-94967808D01*
X140810590Y-94971000D01*
X140810581Y-94971000D01*
X140713617Y-94980550D01*
X140589207Y-95018290D01*
X140474550Y-95079575D01*
X140374052Y-95162052D01*
X140353388Y-95187231D01*
X138029620Y-97511000D01*
X113811381Y-97511000D01*
X111555225Y-95254844D01*
X114129500Y-95254844D01*
X114129500Y-95626156D01*
X114201939Y-95990334D01*
X114344034Y-96333382D01*
X114550325Y-96642118D01*
X114812882Y-96904675D01*
X115121618Y-97110966D01*
X115464666Y-97253061D01*
X115828844Y-97325500D01*
X116200156Y-97325500D01*
X116564334Y-97253061D01*
X116907382Y-97110966D01*
X117216118Y-96904675D01*
X117478675Y-96642118D01*
X117684966Y-96333382D01*
X117827061Y-95990334D01*
X117899500Y-95626156D01*
X117899500Y-95254844D01*
X117827061Y-94890666D01*
X117684966Y-94547618D01*
X117478675Y-94238882D01*
X117216118Y-93976325D01*
X116907382Y-93770034D01*
X116564334Y-93627939D01*
X116200156Y-93555500D01*
X115828844Y-93555500D01*
X115464666Y-93627939D01*
X115121618Y-93770034D01*
X114812882Y-93976325D01*
X114550325Y-94238882D01*
X114344034Y-94547618D01*
X114201939Y-94890666D01*
X114129500Y-95254844D01*
X111555225Y-95254844D01*
X111487616Y-95187236D01*
X111466948Y-95162052D01*
X111366450Y-95079575D01*
X111251793Y-95018290D01*
X111127383Y-94980550D01*
X111030419Y-94971000D01*
X111030409Y-94971000D01*
X110998000Y-94967808D01*
X110965591Y-94971000D01*
X91973000Y-94971000D01*
X91973000Y-92097344D01*
X94108500Y-92097344D01*
X94108500Y-92468656D01*
X94180939Y-92832834D01*
X94323034Y-93175882D01*
X94529325Y-93484618D01*
X94791882Y-93747175D01*
X95100618Y-93953466D01*
X95443666Y-94095561D01*
X95807844Y-94168000D01*
X96179156Y-94168000D01*
X96543334Y-94095561D01*
X96886382Y-93953466D01*
X97195118Y-93747175D01*
X97457675Y-93484618D01*
X97663966Y-93175882D01*
X97806061Y-92832834D01*
X97878500Y-92468656D01*
X97878500Y-92381235D01*
X99708736Y-90551000D01*
X106942723Y-90551000D01*
X106832517Y-90624637D01*
X106535137Y-90922017D01*
X106301488Y-91271698D01*
X106140547Y-91660244D01*
X106058500Y-92072721D01*
X106058500Y-92493279D01*
X106140547Y-92905756D01*
X106301488Y-93294302D01*
X106535137Y-93643983D01*
X106832517Y-93941363D01*
X107182198Y-94175012D01*
X107570744Y-94335953D01*
X107983221Y-94418000D01*
X108403779Y-94418000D01*
X108816256Y-94335953D01*
X109204802Y-94175012D01*
X109554483Y-93941363D01*
X109851863Y-93643983D01*
X110085512Y-93294302D01*
X110246453Y-92905756D01*
X110328500Y-92493279D01*
X110328500Y-92072721D01*
X110246453Y-91660244D01*
X110085512Y-91271698D01*
X109851863Y-90922017D01*
X109554483Y-90624637D01*
X109444277Y-90551000D01*
X112217265Y-90551000D01*
X112823928Y-91157664D01*
X112823928Y-91699501D01*
X112840992Y-91872755D01*
X112891528Y-92039351D01*
X112973595Y-92192887D01*
X113084038Y-92327462D01*
X113218613Y-92437905D01*
X113372149Y-92519972D01*
X113538745Y-92570508D01*
X113711999Y-92587572D01*
X114362001Y-92587572D01*
X114535255Y-92570508D01*
X114701851Y-92519972D01*
X114855387Y-92437905D01*
X114989962Y-92327462D01*
X114995342Y-92320906D01*
X115060815Y-92400685D01*
X115157506Y-92480037D01*
X115267820Y-92539002D01*
X115387518Y-92575312D01*
X115512000Y-92587572D01*
X115801250Y-92584500D01*
X115960000Y-92425750D01*
X115960000Y-91376500D01*
X116214000Y-91376500D01*
X116214000Y-92425750D01*
X116372750Y-92584500D01*
X116662000Y-92587572D01*
X116786482Y-92575312D01*
X116906180Y-92539002D01*
X117016494Y-92480037D01*
X117113185Y-92400685D01*
X117192537Y-92303994D01*
X117251502Y-92193680D01*
X117287812Y-92073982D01*
X117300072Y-91949500D01*
X117297000Y-91535250D01*
X117138250Y-91376500D01*
X116214000Y-91376500D01*
X115960000Y-91376500D01*
X115940000Y-91376500D01*
X115940000Y-91122500D01*
X115960000Y-91122500D01*
X115960000Y-90073250D01*
X116214000Y-90073250D01*
X116214000Y-91122500D01*
X117138250Y-91122500D01*
X117297000Y-90963750D01*
X117300072Y-90549500D01*
X117287812Y-90425018D01*
X117251502Y-90305320D01*
X117192537Y-90195006D01*
X117113185Y-90098315D01*
X117016494Y-90018963D01*
X116906180Y-89959998D01*
X116786482Y-89923688D01*
X116662000Y-89911428D01*
X116372750Y-89914500D01*
X116214000Y-90073250D01*
X115960000Y-90073250D01*
X115801250Y-89914500D01*
X115512000Y-89911428D01*
X115387518Y-89923688D01*
X115267820Y-89959998D01*
X115157506Y-90018963D01*
X115060815Y-90098315D01*
X114995342Y-90178094D01*
X114989962Y-90171538D01*
X114935000Y-90126432D01*
X114935000Y-88764072D01*
X115269500Y-88764072D01*
X115393982Y-88751812D01*
X115513680Y-88715502D01*
X115578402Y-88680907D01*
X115787101Y-88744215D01*
X116014500Y-88766612D01*
X116241900Y-88744215D01*
X116460560Y-88677885D01*
X116649501Y-88576894D01*
X116838441Y-88677885D01*
X117057101Y-88744215D01*
X117284500Y-88766612D01*
X117511900Y-88744215D01*
X117730560Y-88677885D01*
X117932079Y-88570171D01*
X118108712Y-88425212D01*
X118253671Y-88248579D01*
X118361385Y-88047059D01*
X118427715Y-87828399D01*
X118444500Y-87657978D01*
X118444500Y-87094021D01*
X118427715Y-86923600D01*
X118361385Y-86704940D01*
X118253671Y-86503421D01*
X118108712Y-86326788D01*
X118046500Y-86275732D01*
X118046500Y-85379923D01*
X118050186Y-85342500D01*
X118044644Y-85286234D01*
X118035474Y-85193122D01*
X117991902Y-85049485D01*
X117940072Y-84952517D01*
X117921145Y-84917107D01*
X117874968Y-84860841D01*
X117825922Y-84801078D01*
X117796847Y-84777217D01*
X115782769Y-82763139D01*
X115791084Y-82747582D01*
X115835929Y-82599745D01*
X115851072Y-82446000D01*
X115851072Y-82146000D01*
X115835929Y-81992255D01*
X115791084Y-81844418D01*
X115760928Y-81788000D01*
X116167577Y-81788000D01*
X116205000Y-81791686D01*
X116242423Y-81788000D01*
X116242426Y-81788000D01*
X116354378Y-81776974D01*
X116498015Y-81733402D01*
X116630392Y-81662645D01*
X116746422Y-81567422D01*
X116770284Y-81538346D01*
X116779881Y-81528749D01*
X116772814Y-81600500D01*
X116776501Y-81637933D01*
X116776500Y-83108918D01*
X116772814Y-83146342D01*
X116776500Y-83183765D01*
X116776500Y-83183767D01*
X116787526Y-83295719D01*
X116831098Y-83439356D01*
X116854636Y-83483392D01*
X116901855Y-83571734D01*
X116924578Y-83599422D01*
X116997078Y-83687764D01*
X117026154Y-83711626D01*
X118491001Y-85176474D01*
X118491000Y-91525826D01*
X118486377Y-91529620D01*
X118462520Y-91558690D01*
X118462519Y-91558691D01*
X118391153Y-91645650D01*
X118326611Y-91766402D01*
X118320397Y-91778027D01*
X118276825Y-91921664D01*
X118268440Y-92006800D01*
X118262112Y-92071042D01*
X118265798Y-92108465D01*
X118265798Y-92867035D01*
X118262112Y-92904458D01*
X118265798Y-92941881D01*
X118265798Y-92941883D01*
X118276824Y-93053835D01*
X118320396Y-93197472D01*
X118338845Y-93231987D01*
X118391153Y-93329850D01*
X118430781Y-93378136D01*
X118486376Y-93445880D01*
X118515452Y-93469742D01*
X120300061Y-95254352D01*
X120323918Y-95283422D01*
X120352988Y-95307279D01*
X120439947Y-95378645D01*
X120510704Y-95416465D01*
X120572325Y-95449402D01*
X120715962Y-95492974D01*
X120827914Y-95504000D01*
X120827917Y-95504000D01*
X120865340Y-95507686D01*
X120902763Y-95504000D01*
X124034577Y-95504000D01*
X124072000Y-95507686D01*
X124109423Y-95504000D01*
X124109426Y-95504000D01*
X124221378Y-95492974D01*
X124365015Y-95449402D01*
X124497392Y-95378645D01*
X124613422Y-95283422D01*
X124637284Y-95254346D01*
X125313559Y-94578072D01*
X127454000Y-94578072D01*
X127578482Y-94565812D01*
X127698180Y-94529502D01*
X127808494Y-94470537D01*
X127905185Y-94391185D01*
X127984537Y-94294494D01*
X128043502Y-94184180D01*
X128079812Y-94064482D01*
X128092072Y-93940000D01*
X128092072Y-92940000D01*
X128079812Y-92815518D01*
X128043502Y-92695820D01*
X127984537Y-92585506D01*
X127905185Y-92488815D01*
X127845704Y-92440000D01*
X127905185Y-92391185D01*
X127984537Y-92294494D01*
X128043502Y-92184180D01*
X128079812Y-92064482D01*
X128092072Y-91940000D01*
X128092072Y-90940000D01*
X128079812Y-90815518D01*
X128043502Y-90695820D01*
X127984537Y-90585506D01*
X127905185Y-90488815D01*
X127845704Y-90440000D01*
X127905185Y-90391185D01*
X127984537Y-90294494D01*
X128033977Y-90202000D01*
X129310870Y-90202000D01*
X129713798Y-90604929D01*
X129699315Y-90616815D01*
X129619963Y-90713506D01*
X129560998Y-90823820D01*
X129524688Y-90943518D01*
X129512428Y-91068000D01*
X129512428Y-91968000D01*
X129524688Y-92092482D01*
X129560998Y-92212180D01*
X129619963Y-92322494D01*
X129699315Y-92419185D01*
X129796006Y-92498537D01*
X129906320Y-92557502D01*
X130026018Y-92593812D01*
X130150500Y-92606072D01*
X131530798Y-92606072D01*
X130488154Y-93648716D01*
X130459078Y-93672578D01*
X130403483Y-93740322D01*
X130363855Y-93788608D01*
X130341769Y-93829928D01*
X130150500Y-93829928D01*
X130026018Y-93842188D01*
X129906320Y-93878498D01*
X129796006Y-93937463D01*
X129699315Y-94016815D01*
X129619963Y-94113506D01*
X129560998Y-94223820D01*
X129524688Y-94343518D01*
X129512428Y-94468000D01*
X129512428Y-95368000D01*
X129524688Y-95492482D01*
X129560998Y-95612180D01*
X129619963Y-95722494D01*
X129699315Y-95819185D01*
X129796006Y-95898537D01*
X129906320Y-95957502D01*
X130026018Y-95993812D01*
X130150500Y-96006072D01*
X131850500Y-96006072D01*
X131974982Y-95993812D01*
X132094680Y-95957502D01*
X132204994Y-95898537D01*
X132301685Y-95819185D01*
X132381037Y-95722494D01*
X132440002Y-95612180D01*
X132476312Y-95492482D01*
X132488572Y-95368000D01*
X132488572Y-95318344D01*
X133878000Y-95318344D01*
X133878000Y-95689656D01*
X133950439Y-96053834D01*
X134092534Y-96396882D01*
X134298825Y-96705618D01*
X134561382Y-96968175D01*
X134870118Y-97174466D01*
X135213166Y-97316561D01*
X135577344Y-97389000D01*
X135948656Y-97389000D01*
X136312834Y-97316561D01*
X136655882Y-97174466D01*
X136964618Y-96968175D01*
X137227175Y-96705618D01*
X137433466Y-96396882D01*
X137575561Y-96053834D01*
X137648000Y-95689656D01*
X137648000Y-95318344D01*
X137575561Y-94954166D01*
X137433466Y-94611118D01*
X137227175Y-94302382D01*
X136964618Y-94039825D01*
X136655882Y-93833534D01*
X136312834Y-93691439D01*
X135948656Y-93619000D01*
X135577344Y-93619000D01*
X135213166Y-93691439D01*
X134870118Y-93833534D01*
X134561382Y-94039825D01*
X134298825Y-94302382D01*
X134092534Y-94611118D01*
X133950439Y-94954166D01*
X133878000Y-95318344D01*
X132488572Y-95318344D01*
X132488572Y-94468000D01*
X132476312Y-94343518D01*
X132440002Y-94223820D01*
X132381037Y-94113506D01*
X132301685Y-94016815D01*
X132287201Y-94004929D01*
X132730682Y-93561448D01*
X132757832Y-93569684D01*
X132869784Y-93580710D01*
X132869787Y-93580710D01*
X132907210Y-93584396D01*
X132944633Y-93580710D01*
X138623867Y-93580710D01*
X138661290Y-93584396D01*
X138698713Y-93580710D01*
X138698716Y-93580710D01*
X138810668Y-93569684D01*
X138954305Y-93526112D01*
X139086682Y-93455355D01*
X139171104Y-93386072D01*
X140782000Y-93386072D01*
X140955254Y-93369008D01*
X141121850Y-93318472D01*
X141275386Y-93236405D01*
X141409962Y-93125962D01*
X141520405Y-92991386D01*
X141602472Y-92837850D01*
X141653008Y-92671254D01*
X141670072Y-92498000D01*
X141670072Y-91398000D01*
X141793928Y-91398000D01*
X141793928Y-92498000D01*
X141810992Y-92671254D01*
X141861528Y-92837850D01*
X141943595Y-92991386D01*
X142054038Y-93125962D01*
X142188614Y-93236405D01*
X142342150Y-93318472D01*
X142508746Y-93369008D01*
X142682000Y-93386072D01*
X145182000Y-93386072D01*
X145355254Y-93369008D01*
X145521850Y-93318472D01*
X145675386Y-93236405D01*
X145809962Y-93125962D01*
X145920405Y-92991386D01*
X146002472Y-92837850D01*
X146002730Y-92837000D01*
X147652759Y-92837000D01*
X147764513Y-93004252D01*
X147992248Y-93231987D01*
X148260037Y-93410918D01*
X148557588Y-93534168D01*
X148873467Y-93597000D01*
X149195533Y-93597000D01*
X149511412Y-93534168D01*
X149808963Y-93410918D01*
X150076752Y-93231987D01*
X150304487Y-93004252D01*
X150483418Y-92736463D01*
X150606668Y-92438912D01*
X150669500Y-92123033D01*
X150669500Y-91800967D01*
X150606668Y-91485088D01*
X150483418Y-91187537D01*
X150304487Y-90919748D01*
X150076752Y-90692013D01*
X149808963Y-90513082D01*
X149511412Y-90389832D01*
X149195533Y-90327000D01*
X148873467Y-90327000D01*
X148557588Y-90389832D01*
X148260037Y-90513082D01*
X147992248Y-90692013D01*
X147764513Y-90919748D01*
X147671468Y-91059000D01*
X146002730Y-91059000D01*
X146002472Y-91058150D01*
X145920405Y-90904614D01*
X145809962Y-90770038D01*
X145675386Y-90659595D01*
X145521850Y-90577528D01*
X145355254Y-90526992D01*
X145182000Y-90509928D01*
X144821000Y-90509928D01*
X144821000Y-88915477D01*
X144842982Y-88913312D01*
X144962680Y-88877002D01*
X145072994Y-88818037D01*
X145169685Y-88738685D01*
X145249037Y-88641994D01*
X145308002Y-88531680D01*
X145344312Y-88411982D01*
X145356572Y-88287500D01*
X145356572Y-86800967D01*
X147399500Y-86800967D01*
X147399500Y-87123033D01*
X147462332Y-87438912D01*
X147585582Y-87736463D01*
X147764513Y-88004252D01*
X147992248Y-88231987D01*
X148260037Y-88410918D01*
X148557588Y-88534168D01*
X148873467Y-88597000D01*
X149195533Y-88597000D01*
X149511412Y-88534168D01*
X149808963Y-88410918D01*
X150076752Y-88231987D01*
X150304487Y-88004252D01*
X150483418Y-87736463D01*
X150606668Y-87438912D01*
X150669500Y-87123033D01*
X150669500Y-86800967D01*
X150606668Y-86485088D01*
X150483418Y-86187537D01*
X150304487Y-85919748D01*
X150076752Y-85692013D01*
X149808963Y-85513082D01*
X149511412Y-85389832D01*
X149195533Y-85327000D01*
X148873467Y-85327000D01*
X148557588Y-85389832D01*
X148260037Y-85513082D01*
X147992248Y-85692013D01*
X147764513Y-85919748D01*
X147585582Y-86187537D01*
X147462332Y-86485088D01*
X147399500Y-86800967D01*
X145356572Y-86800967D01*
X145356572Y-86287500D01*
X145344312Y-86163018D01*
X145308002Y-86043320D01*
X145249037Y-85933006D01*
X145169685Y-85836315D01*
X145072994Y-85756963D01*
X144962680Y-85697998D01*
X144842982Y-85661688D01*
X144718500Y-85649428D01*
X143218500Y-85649428D01*
X143094018Y-85661688D01*
X142974320Y-85697998D01*
X142864006Y-85756963D01*
X142818500Y-85794309D01*
X142772994Y-85756963D01*
X142662680Y-85697998D01*
X142542982Y-85661688D01*
X142418500Y-85649428D01*
X141954250Y-85652500D01*
X141795500Y-85811250D01*
X141795500Y-87160500D01*
X141815500Y-87160500D01*
X141815500Y-87414500D01*
X141795500Y-87414500D01*
X141795500Y-88763750D01*
X141954250Y-88922500D01*
X142418500Y-88925572D01*
X142542982Y-88913312D01*
X142662680Y-88877002D01*
X142772994Y-88818037D01*
X142818500Y-88780691D01*
X142864006Y-88818037D01*
X142974320Y-88877002D01*
X143043001Y-88897836D01*
X143043000Y-90509928D01*
X142682000Y-90509928D01*
X142508746Y-90526992D01*
X142342150Y-90577528D01*
X142188614Y-90659595D01*
X142054038Y-90770038D01*
X141943595Y-90904614D01*
X141861528Y-91058150D01*
X141810992Y-91224746D01*
X141793928Y-91398000D01*
X141670072Y-91398000D01*
X141653008Y-91224746D01*
X141602472Y-91058150D01*
X141520405Y-90904614D01*
X141409962Y-90770038D01*
X141275386Y-90659595D01*
X141121850Y-90577528D01*
X140955254Y-90526992D01*
X140782000Y-90509928D01*
X140294000Y-90509928D01*
X140294000Y-88897836D01*
X140362680Y-88877002D01*
X140472994Y-88818037D01*
X140518500Y-88780691D01*
X140564006Y-88818037D01*
X140674320Y-88877002D01*
X140794018Y-88913312D01*
X140918500Y-88925572D01*
X141382750Y-88922500D01*
X141541500Y-88763750D01*
X141541500Y-87414500D01*
X141521500Y-87414500D01*
X141521500Y-87160500D01*
X141541500Y-87160500D01*
X141541500Y-85811250D01*
X141382750Y-85652500D01*
X140918500Y-85649428D01*
X140794018Y-85661688D01*
X140674320Y-85697998D01*
X140564006Y-85756963D01*
X140518500Y-85794309D01*
X140472994Y-85756963D01*
X140362680Y-85697998D01*
X140242982Y-85661688D01*
X140118500Y-85649428D01*
X138618500Y-85649428D01*
X138494018Y-85661688D01*
X138374320Y-85697998D01*
X138264006Y-85756963D01*
X138167315Y-85836315D01*
X138087963Y-85933006D01*
X138028998Y-86043320D01*
X137992688Y-86163018D01*
X137980428Y-86287500D01*
X137980428Y-88287500D01*
X137992688Y-88411982D01*
X138028998Y-88531680D01*
X138087963Y-88641994D01*
X138167315Y-88738685D01*
X138264006Y-88818037D01*
X138374320Y-88877002D01*
X138494018Y-88913312D01*
X138618500Y-88925572D01*
X138770001Y-88925572D01*
X138770000Y-90509928D01*
X138282000Y-90509928D01*
X138108746Y-90526992D01*
X137942150Y-90577528D01*
X137788614Y-90659595D01*
X137654038Y-90770038D01*
X137543595Y-90904614D01*
X137461528Y-91058150D01*
X137410992Y-91224746D01*
X137393928Y-91398000D01*
X137393928Y-92056710D01*
X133413500Y-92056710D01*
X133413500Y-89814923D01*
X133417186Y-89777500D01*
X133413500Y-89740074D01*
X133402474Y-89628122D01*
X133358902Y-89484485D01*
X133325965Y-89422864D01*
X133288145Y-89352107D01*
X133216779Y-89265148D01*
X133192922Y-89236078D01*
X133163853Y-89212222D01*
X132898319Y-88946688D01*
X132930350Y-88936972D01*
X133083886Y-88854905D01*
X133218462Y-88744462D01*
X133328905Y-88609886D01*
X133410972Y-88456350D01*
X133438227Y-88366500D01*
X133602428Y-88366500D01*
X133614688Y-88490982D01*
X133650998Y-88610680D01*
X133709963Y-88720994D01*
X133789315Y-88817685D01*
X133886006Y-88897037D01*
X133996320Y-88956002D01*
X134116018Y-88992312D01*
X134240500Y-89004572D01*
X135454750Y-89001500D01*
X135613500Y-88842750D01*
X135613500Y-87693500D01*
X135867500Y-87693500D01*
X135867500Y-88842750D01*
X136026250Y-89001500D01*
X137240500Y-89004572D01*
X137364982Y-88992312D01*
X137484680Y-88956002D01*
X137594994Y-88897037D01*
X137691685Y-88817685D01*
X137771037Y-88720994D01*
X137830002Y-88610680D01*
X137866312Y-88490982D01*
X137878572Y-88366500D01*
X137875500Y-87852250D01*
X137716750Y-87693500D01*
X135867500Y-87693500D01*
X135613500Y-87693500D01*
X133764250Y-87693500D01*
X133605500Y-87852250D01*
X133602428Y-88366500D01*
X133438227Y-88366500D01*
X133461508Y-88289754D01*
X133478572Y-88116500D01*
X133478572Y-87016500D01*
X133461508Y-86843246D01*
X133438228Y-86766500D01*
X133602428Y-86766500D01*
X133605500Y-87280750D01*
X133764250Y-87439500D01*
X135613500Y-87439500D01*
X135613500Y-86290250D01*
X135867500Y-86290250D01*
X135867500Y-87439500D01*
X137716750Y-87439500D01*
X137875500Y-87280750D01*
X137878572Y-86766500D01*
X137866312Y-86642018D01*
X137830002Y-86522320D01*
X137771037Y-86412006D01*
X137691685Y-86315315D01*
X137594994Y-86235963D01*
X137484680Y-86176998D01*
X137364982Y-86140688D01*
X137240500Y-86128428D01*
X136026250Y-86131500D01*
X135867500Y-86290250D01*
X135613500Y-86290250D01*
X135454750Y-86131500D01*
X134240500Y-86128428D01*
X134116018Y-86140688D01*
X133996320Y-86176998D01*
X133886006Y-86235963D01*
X133789315Y-86315315D01*
X133709963Y-86412006D01*
X133650998Y-86522320D01*
X133614688Y-86642018D01*
X133602428Y-86766500D01*
X133438228Y-86766500D01*
X133410972Y-86676650D01*
X133328905Y-86523114D01*
X133218462Y-86388538D01*
X133083886Y-86278095D01*
X132930350Y-86196028D01*
X132763754Y-86145492D01*
X132590500Y-86128428D01*
X130090500Y-86128428D01*
X129917246Y-86145492D01*
X129750650Y-86196028D01*
X129597114Y-86278095D01*
X129462538Y-86388538D01*
X129352095Y-86523114D01*
X129300591Y-86619471D01*
X129219929Y-86498752D01*
X129083748Y-86362571D01*
X128923615Y-86255573D01*
X128745685Y-86181872D01*
X128556795Y-86144300D01*
X128364205Y-86144300D01*
X128175315Y-86181872D01*
X127997385Y-86255573D01*
X127837252Y-86362571D01*
X127701071Y-86498752D01*
X127594073Y-86658885D01*
X127520372Y-86836815D01*
X127482800Y-87025705D01*
X127482800Y-87218295D01*
X127520372Y-87407185D01*
X127594073Y-87585115D01*
X127701071Y-87745248D01*
X127837252Y-87881429D01*
X127997385Y-87988427D01*
X128175315Y-88062128D01*
X128355392Y-88097947D01*
X128363578Y-88107922D01*
X128414000Y-88149302D01*
X128479607Y-88203145D01*
X128550364Y-88240965D01*
X128611985Y-88273902D01*
X128755622Y-88317474D01*
X128867574Y-88328500D01*
X128867577Y-88328500D01*
X128905000Y-88332186D01*
X128942423Y-88328500D01*
X129231245Y-88328500D01*
X129270028Y-88456350D01*
X129352095Y-88609886D01*
X129407994Y-88678000D01*
X128033977Y-88678000D01*
X127984537Y-88585506D01*
X127905185Y-88488815D01*
X127808494Y-88409463D01*
X127698180Y-88350498D01*
X127578482Y-88314188D01*
X127454000Y-88301928D01*
X126897624Y-88301928D01*
X126871402Y-88215485D01*
X126823571Y-88126000D01*
X126800645Y-88083107D01*
X126745800Y-88016279D01*
X126705422Y-87967078D01*
X126676347Y-87943217D01*
X125817797Y-87084667D01*
X125781128Y-86900315D01*
X125707427Y-86722385D01*
X125600429Y-86562252D01*
X125464248Y-86426071D01*
X125304115Y-86319073D01*
X125126185Y-86245372D01*
X124937295Y-86207800D01*
X124744705Y-86207800D01*
X124555815Y-86245372D01*
X124377885Y-86319073D01*
X124217752Y-86426071D01*
X124081571Y-86562252D01*
X123974573Y-86722385D01*
X123900872Y-86900315D01*
X123863300Y-87089205D01*
X123863300Y-87162170D01*
X122441702Y-85740572D01*
X122941501Y-85740572D01*
X123114755Y-85723508D01*
X123281351Y-85672972D01*
X123434887Y-85590905D01*
X123569462Y-85480462D01*
X123679905Y-85345887D01*
X123710045Y-85289500D01*
X124413577Y-85289500D01*
X124451000Y-85293186D01*
X124488423Y-85289500D01*
X124488426Y-85289500D01*
X124600378Y-85278474D01*
X124744015Y-85234902D01*
X124876392Y-85164145D01*
X124992422Y-85068922D01*
X125016283Y-85039847D01*
X125480352Y-84575779D01*
X125509422Y-84551922D01*
X125604645Y-84435892D01*
X125675402Y-84303515D01*
X125718974Y-84159878D01*
X125730000Y-84047926D01*
X125730000Y-84047924D01*
X125733686Y-84010501D01*
X125730000Y-83973078D01*
X125730000Y-83960332D01*
X125769101Y-83939432D01*
X125987608Y-83760108D01*
X126166932Y-83541601D01*
X126300182Y-83292308D01*
X126382236Y-83021809D01*
X126409943Y-82740500D01*
X126382236Y-82459191D01*
X126300182Y-82188692D01*
X126166932Y-81939399D01*
X125987608Y-81720892D01*
X125874518Y-81628081D01*
X125892482Y-81626312D01*
X126012180Y-81590002D01*
X126122494Y-81531037D01*
X126219185Y-81451685D01*
X126298537Y-81354994D01*
X126357502Y-81244680D01*
X126393812Y-81124982D01*
X126406072Y-81000500D01*
X126406072Y-80200500D01*
X131146057Y-80200500D01*
X131173764Y-80481809D01*
X131255818Y-80752308D01*
X131389068Y-81001601D01*
X131568392Y-81220108D01*
X131786899Y-81399432D01*
X131919858Y-81470500D01*
X131786899Y-81541568D01*
X131568392Y-81720892D01*
X131389068Y-81939399D01*
X131255818Y-82188692D01*
X131173764Y-82459191D01*
X131146057Y-82740500D01*
X131173764Y-83021809D01*
X131255818Y-83292308D01*
X131389068Y-83541601D01*
X131568392Y-83760108D01*
X131786899Y-83939432D01*
X132036192Y-84072682D01*
X132306691Y-84154736D01*
X132517508Y-84175500D01*
X132658492Y-84175500D01*
X132869309Y-84154736D01*
X133139808Y-84072682D01*
X133389101Y-83939432D01*
X133607608Y-83760108D01*
X133786932Y-83541601D01*
X133848077Y-83427207D01*
X134063720Y-83642851D01*
X134087578Y-83671922D01*
X134203608Y-83767145D01*
X134335985Y-83837902D01*
X134479622Y-83881474D01*
X134541837Y-83887601D01*
X134574595Y-83948887D01*
X134685038Y-84083462D01*
X134819613Y-84193905D01*
X134973149Y-84275972D01*
X135139745Y-84326508D01*
X135312999Y-84343572D01*
X136213001Y-84343572D01*
X136386255Y-84326508D01*
X136552851Y-84275972D01*
X136706387Y-84193905D01*
X136840962Y-84083462D01*
X136951405Y-83948887D01*
X137033472Y-83795351D01*
X137084008Y-83628755D01*
X137101072Y-83455501D01*
X137101072Y-82805499D01*
X137084008Y-82632245D01*
X137033472Y-82465649D01*
X136951405Y-82312113D01*
X136840962Y-82177538D01*
X136834406Y-82172158D01*
X136914185Y-82106685D01*
X136993537Y-82009994D01*
X137005560Y-81987500D01*
X139130428Y-81987500D01*
X139142688Y-82111982D01*
X139178998Y-82231680D01*
X139237963Y-82341994D01*
X139317315Y-82438685D01*
X139414006Y-82518037D01*
X139524320Y-82577002D01*
X139644018Y-82613312D01*
X139768500Y-82625572D01*
X141382750Y-82622500D01*
X141541500Y-82463750D01*
X141541500Y-81114500D01*
X141795500Y-81114500D01*
X141795500Y-82463750D01*
X141954250Y-82622500D01*
X143568500Y-82625572D01*
X143692982Y-82613312D01*
X143812680Y-82577002D01*
X143922994Y-82518037D01*
X144019685Y-82438685D01*
X144099037Y-82341994D01*
X144158002Y-82231680D01*
X144194312Y-82111982D01*
X144206572Y-81987500D01*
X144205770Y-81800967D01*
X147399500Y-81800967D01*
X147399500Y-82123033D01*
X147462332Y-82438912D01*
X147585582Y-82736463D01*
X147764513Y-83004252D01*
X147992248Y-83231987D01*
X148260037Y-83410918D01*
X148557588Y-83534168D01*
X148873467Y-83597000D01*
X149195533Y-83597000D01*
X149511412Y-83534168D01*
X149808963Y-83410918D01*
X150076752Y-83231987D01*
X150304487Y-83004252D01*
X150483418Y-82736463D01*
X150606668Y-82438912D01*
X150669500Y-82123033D01*
X150669500Y-81800967D01*
X150606668Y-81485088D01*
X150483418Y-81187537D01*
X150304487Y-80919748D01*
X150076752Y-80692013D01*
X149808963Y-80513082D01*
X149511412Y-80389832D01*
X149195533Y-80327000D01*
X148873467Y-80327000D01*
X148557588Y-80389832D01*
X148260037Y-80513082D01*
X147992248Y-80692013D01*
X147764513Y-80919748D01*
X147585582Y-81187537D01*
X147462332Y-81485088D01*
X147399500Y-81800967D01*
X144205770Y-81800967D01*
X144203500Y-81273250D01*
X144044750Y-81114500D01*
X141795500Y-81114500D01*
X141541500Y-81114500D01*
X139292250Y-81114500D01*
X139133500Y-81273250D01*
X139130428Y-81987500D01*
X137005560Y-81987500D01*
X137052502Y-81899680D01*
X137088812Y-81779982D01*
X137101072Y-81655500D01*
X137098000Y-81366250D01*
X136939250Y-81207500D01*
X135890000Y-81207500D01*
X135890000Y-81227500D01*
X135636000Y-81227500D01*
X135636000Y-81207500D01*
X135616000Y-81207500D01*
X135616000Y-80953500D01*
X135636000Y-80953500D01*
X135636000Y-80029250D01*
X135890000Y-80029250D01*
X135890000Y-80953500D01*
X136939250Y-80953500D01*
X137098000Y-80794750D01*
X137101072Y-80505500D01*
X137088812Y-80381018D01*
X137052502Y-80261320D01*
X136993537Y-80151006D01*
X136914185Y-80054315D01*
X136832771Y-79987500D01*
X139130428Y-79987500D01*
X139133500Y-80701750D01*
X139292250Y-80860500D01*
X141541500Y-80860500D01*
X141541500Y-79511250D01*
X141795500Y-79511250D01*
X141795500Y-80860500D01*
X144044750Y-80860500D01*
X144203500Y-80701750D01*
X144206572Y-79987500D01*
X144194312Y-79863018D01*
X144158002Y-79743320D01*
X144099037Y-79633006D01*
X144019685Y-79536315D01*
X143922994Y-79456963D01*
X143812680Y-79397998D01*
X143692982Y-79361688D01*
X143568500Y-79349428D01*
X141954250Y-79352500D01*
X141795500Y-79511250D01*
X141541500Y-79511250D01*
X141382750Y-79352500D01*
X139768500Y-79349428D01*
X139644018Y-79361688D01*
X139524320Y-79397998D01*
X139414006Y-79456963D01*
X139317315Y-79536315D01*
X139237963Y-79633006D01*
X139178998Y-79743320D01*
X139142688Y-79863018D01*
X139130428Y-79987500D01*
X136832771Y-79987500D01*
X136817494Y-79974963D01*
X136707180Y-79915998D01*
X136587482Y-79879688D01*
X136463000Y-79867428D01*
X136048750Y-79870500D01*
X135890000Y-80029250D01*
X135636000Y-80029250D01*
X135477250Y-79870500D01*
X135063000Y-79867428D01*
X134938518Y-79879688D01*
X134818820Y-79915998D01*
X134708506Y-79974963D01*
X134611815Y-80054315D01*
X134532463Y-80151006D01*
X134500825Y-80210195D01*
X133978783Y-79688153D01*
X133954922Y-79659078D01*
X133902924Y-79616404D01*
X133786932Y-79399399D01*
X133607608Y-79180892D01*
X133389101Y-79001568D01*
X133139808Y-78868318D01*
X132869309Y-78786264D01*
X132658492Y-78765500D01*
X132517508Y-78765500D01*
X132306691Y-78786264D01*
X132036192Y-78868318D01*
X131786899Y-79001568D01*
X131568392Y-79180892D01*
X131389068Y-79399399D01*
X131255818Y-79648692D01*
X131173764Y-79919191D01*
X131146057Y-80200500D01*
X126406072Y-80200500D01*
X126406072Y-79400500D01*
X126393812Y-79276018D01*
X126357502Y-79156320D01*
X126298537Y-79046006D01*
X126219185Y-78949315D01*
X126122494Y-78869963D01*
X126012180Y-78810998D01*
X125892482Y-78774688D01*
X125768000Y-78762428D01*
X125626731Y-78762428D01*
X125604645Y-78721107D01*
X125533279Y-78634148D01*
X125509422Y-78605078D01*
X125480352Y-78581222D01*
X124990783Y-78091653D01*
X124966922Y-78062578D01*
X124850892Y-77967355D01*
X124718515Y-77896598D01*
X124574878Y-77853026D01*
X124462926Y-77842000D01*
X124462923Y-77842000D01*
X124425500Y-77838314D01*
X124388077Y-77842000D01*
X123710045Y-77842000D01*
X123679905Y-77785613D01*
X123569462Y-77651038D01*
X123434887Y-77540595D01*
X123281351Y-77458528D01*
X123114755Y-77407992D01*
X122941501Y-77390928D01*
X122041499Y-77390928D01*
X121868245Y-77407992D01*
X121701649Y-77458528D01*
X121548113Y-77540595D01*
X121413538Y-77651038D01*
X121303095Y-77785613D01*
X121221028Y-77939149D01*
X121170492Y-78105745D01*
X121153428Y-78278999D01*
X121153428Y-78465998D01*
X121127295Y-78460800D01*
X120934705Y-78460800D01*
X120745815Y-78498372D01*
X120567885Y-78572073D01*
X120506634Y-78613000D01*
X119315000Y-78613000D01*
X119315000Y-78633000D01*
X119061000Y-78633000D01*
X119061000Y-78613000D01*
X119041000Y-78613000D01*
X119041000Y-78359000D01*
X119061000Y-78359000D01*
X119061000Y-77709750D01*
X119315000Y-77709750D01*
X119315000Y-78359000D01*
X120639250Y-78359000D01*
X120798000Y-78200250D01*
X120801072Y-78186000D01*
X120788812Y-78061518D01*
X120752502Y-77941820D01*
X120693537Y-77831506D01*
X120614185Y-77734815D01*
X120517494Y-77655463D01*
X120407180Y-77596498D01*
X120287482Y-77560188D01*
X120163000Y-77547928D01*
X119473750Y-77551000D01*
X119315000Y-77709750D01*
X119061000Y-77709750D01*
X118902250Y-77551000D01*
X118213000Y-77547928D01*
X118088518Y-77560188D01*
X117968820Y-77596498D01*
X117858506Y-77655463D01*
X117761815Y-77734815D01*
X117682463Y-77831506D01*
X117623498Y-77941820D01*
X117587188Y-78061518D01*
X117576239Y-78172692D01*
X117442685Y-78117372D01*
X117253795Y-78079800D01*
X117061205Y-78079800D01*
X116872315Y-78117372D01*
X116694385Y-78191073D01*
X116534252Y-78298071D01*
X116398071Y-78434252D01*
X116396011Y-78437334D01*
X116320248Y-78361571D01*
X116160115Y-78254573D01*
X115982185Y-78180872D01*
X115826091Y-78149823D01*
X115791084Y-78034418D01*
X115718258Y-77898171D01*
X115620251Y-77778749D01*
X115500829Y-77680742D01*
X115364582Y-77607916D01*
X115216745Y-77563071D01*
X115063000Y-77547928D01*
X114545000Y-77547928D01*
X114545000Y-77228045D01*
X114601387Y-77197905D01*
X114735962Y-77087462D01*
X114741342Y-77080906D01*
X114806815Y-77160685D01*
X114903506Y-77240037D01*
X115013820Y-77299002D01*
X115133518Y-77335312D01*
X115258000Y-77347572D01*
X115547250Y-77344500D01*
X115706000Y-77185750D01*
X115706000Y-76136500D01*
X115960000Y-76136500D01*
X115960000Y-77185750D01*
X116118750Y-77344500D01*
X116408000Y-77347572D01*
X116532482Y-77335312D01*
X116652180Y-77299002D01*
X116762494Y-77240037D01*
X116859185Y-77160685D01*
X116938537Y-77063994D01*
X116997502Y-76953680D01*
X117033812Y-76833982D01*
X117046072Y-76709500D01*
X117043000Y-76295250D01*
X116884250Y-76136500D01*
X115960000Y-76136500D01*
X115706000Y-76136500D01*
X115686000Y-76136500D01*
X115686000Y-75882500D01*
X115706000Y-75882500D01*
X115706000Y-74833250D01*
X115960000Y-74833250D01*
X115960000Y-75882500D01*
X116884250Y-75882500D01*
X117043000Y-75723750D01*
X117044141Y-75569844D01*
X129877500Y-75569844D01*
X129877500Y-75941156D01*
X129949939Y-76305334D01*
X130092034Y-76648382D01*
X130298325Y-76957118D01*
X130560882Y-77219675D01*
X130869618Y-77425966D01*
X131212666Y-77568061D01*
X131576844Y-77640500D01*
X131948156Y-77640500D01*
X132312334Y-77568061D01*
X132655382Y-77425966D01*
X132964118Y-77219675D01*
X133226675Y-76957118D01*
X133432966Y-76648382D01*
X133575061Y-76305334D01*
X133643353Y-75962000D01*
X147396428Y-75962000D01*
X147396428Y-77962000D01*
X147408688Y-78086482D01*
X147444998Y-78206180D01*
X147503963Y-78316494D01*
X147583315Y-78413185D01*
X147680006Y-78492537D01*
X147790320Y-78551502D01*
X147910018Y-78587812D01*
X148034500Y-78600072D01*
X150034500Y-78600072D01*
X150158982Y-78587812D01*
X150278680Y-78551502D01*
X150388994Y-78492537D01*
X150485685Y-78413185D01*
X150565037Y-78316494D01*
X150624002Y-78206180D01*
X150660312Y-78086482D01*
X150672572Y-77962000D01*
X150672572Y-75962000D01*
X150660312Y-75837518D01*
X150624002Y-75717820D01*
X150565037Y-75607506D01*
X150485685Y-75510815D01*
X150388994Y-75431463D01*
X150278680Y-75372498D01*
X150158982Y-75336188D01*
X150034500Y-75323928D01*
X148034500Y-75323928D01*
X147910018Y-75336188D01*
X147790320Y-75372498D01*
X147680006Y-75431463D01*
X147583315Y-75510815D01*
X147503963Y-75607506D01*
X147444998Y-75717820D01*
X147408688Y-75837518D01*
X147396428Y-75962000D01*
X133643353Y-75962000D01*
X133647500Y-75941156D01*
X133647500Y-75569844D01*
X133575061Y-75205666D01*
X133432966Y-74862618D01*
X133226675Y-74553882D01*
X132964118Y-74291325D01*
X132655382Y-74085034D01*
X132312334Y-73942939D01*
X131948156Y-73870500D01*
X131576844Y-73870500D01*
X131212666Y-73942939D01*
X130869618Y-74085034D01*
X130560882Y-74291325D01*
X130298325Y-74553882D01*
X130092034Y-74862618D01*
X129949939Y-75205666D01*
X129877500Y-75569844D01*
X117044141Y-75569844D01*
X117046072Y-75309500D01*
X117033812Y-75185018D01*
X116997502Y-75065320D01*
X116938537Y-74955006D01*
X116859185Y-74858315D01*
X116762494Y-74778963D01*
X116652180Y-74719998D01*
X116532482Y-74683688D01*
X116408000Y-74671428D01*
X116118750Y-74674500D01*
X115960000Y-74833250D01*
X115706000Y-74833250D01*
X115547250Y-74674500D01*
X115258000Y-74671428D01*
X115133518Y-74683688D01*
X115013820Y-74719998D01*
X114903506Y-74778963D01*
X114806815Y-74858315D01*
X114741342Y-74938094D01*
X114735962Y-74931538D01*
X114601387Y-74821095D01*
X114447851Y-74739028D01*
X114281255Y-74688492D01*
X114108001Y-74671428D01*
X113457999Y-74671428D01*
X113284745Y-74688492D01*
X113118149Y-74739028D01*
X112964613Y-74821095D01*
X112839500Y-74923773D01*
X112714387Y-74821095D01*
X112560851Y-74739028D01*
X112474037Y-74712693D01*
X112461279Y-74697148D01*
X112437422Y-74668078D01*
X112408351Y-74644220D01*
X111927783Y-74163653D01*
X111903922Y-74134578D01*
X111787892Y-74039355D01*
X111655515Y-73968598D01*
X111511878Y-73925026D01*
X111399926Y-73914000D01*
X111399923Y-73914000D01*
X111362500Y-73910314D01*
X111325077Y-73914000D01*
X109193915Y-73914000D01*
X109156499Y-73910315D01*
X109119083Y-73914000D01*
X109119074Y-73914000D01*
X109007122Y-73925026D01*
X108863485Y-73968598D01*
X108731108Y-74039355D01*
X108615078Y-74134578D01*
X108591216Y-74163654D01*
X108136154Y-74618716D01*
X108107078Y-74642578D01*
X108069398Y-74688492D01*
X108011855Y-74758608D01*
X107976332Y-74825068D01*
X107941098Y-74890986D01*
X107897526Y-75034623D01*
X107895015Y-75060121D01*
X107882814Y-75184000D01*
X107886500Y-75221424D01*
X107886501Y-76670567D01*
X107882814Y-76708000D01*
X107897527Y-76857378D01*
X107941099Y-77001015D01*
X108011855Y-77133392D01*
X108064800Y-77197905D01*
X108107079Y-77249422D01*
X108136149Y-77273279D01*
X109167834Y-78304965D01*
X108866256Y-78180047D01*
X108453779Y-78098000D01*
X108033221Y-78098000D01*
X107620744Y-78180047D01*
X107232198Y-78340988D01*
X106882517Y-78574637D01*
X106585137Y-78872017D01*
X106351488Y-79221698D01*
X106190547Y-79610244D01*
X106108500Y-80022721D01*
X106108500Y-80443279D01*
X106190547Y-80855756D01*
X106351488Y-81244302D01*
X106585137Y-81593983D01*
X106882517Y-81891363D01*
X107232198Y-82125012D01*
X107620744Y-82285953D01*
X108033221Y-82368000D01*
X108453779Y-82368000D01*
X108866256Y-82285953D01*
X109254802Y-82125012D01*
X109604483Y-81891363D01*
X109901863Y-81593983D01*
X110135512Y-81244302D01*
X110296453Y-80855756D01*
X110378500Y-80443279D01*
X110378500Y-80022721D01*
X110296453Y-79610244D01*
X110171535Y-79308666D01*
X110490000Y-79627131D01*
X110490001Y-83020567D01*
X110486314Y-83058000D01*
X110501027Y-83207378D01*
X110544599Y-83351015D01*
X110615355Y-83483392D01*
X110674855Y-83555892D01*
X110710579Y-83599422D01*
X110739649Y-83623279D01*
X112147220Y-85030851D01*
X112171078Y-85059922D01*
X112200148Y-85083779D01*
X112287107Y-85155145D01*
X112357864Y-85192965D01*
X112419485Y-85225902D01*
X112563122Y-85269474D01*
X112675074Y-85280500D01*
X112675077Y-85280500D01*
X112712500Y-85284186D01*
X112749923Y-85280500D01*
X113845370Y-85280500D01*
X114552797Y-85987928D01*
X114219500Y-85987928D01*
X114095018Y-86000188D01*
X113975320Y-86036498D01*
X113865006Y-86095463D01*
X113768315Y-86174815D01*
X113688963Y-86271506D01*
X113629998Y-86381820D01*
X113593688Y-86501518D01*
X113581428Y-86626000D01*
X113581428Y-87281837D01*
X113448263Y-87415002D01*
X113414341Y-87442841D01*
X113303247Y-87578210D01*
X113220697Y-87732650D01*
X113205184Y-87783791D01*
X113182214Y-87859515D01*
X113169864Y-87900227D01*
X113157000Y-88030834D01*
X113157000Y-88030840D01*
X113152700Y-88074500D01*
X113157000Y-88118160D01*
X113157000Y-88980970D01*
X113081791Y-88919247D01*
X112927351Y-88836697D01*
X112759774Y-88785864D01*
X112629167Y-88773000D01*
X112629160Y-88773000D01*
X112585500Y-88768700D01*
X112541840Y-88773000D01*
X99384160Y-88773000D01*
X99340500Y-88768700D01*
X99296840Y-88773000D01*
X99296833Y-88773000D01*
X99182825Y-88784229D01*
X99166225Y-88785864D01*
X99114627Y-88801516D01*
X98998649Y-88836697D01*
X98844209Y-88919247D01*
X98805962Y-88950636D01*
X98771582Y-88978851D01*
X98708841Y-89030341D01*
X98681006Y-89064258D01*
X97034057Y-90711207D01*
X96886382Y-90612534D01*
X96543334Y-90470439D01*
X96179156Y-90398000D01*
X95807844Y-90398000D01*
X95443666Y-90470439D01*
X95100618Y-90612534D01*
X94791882Y-90818825D01*
X94529325Y-91081382D01*
X94323034Y-91390118D01*
X94180939Y-91733166D01*
X94108500Y-92097344D01*
X91973000Y-92097344D01*
X91973000Y-86767542D01*
X91990547Y-86855756D01*
X92151488Y-87244302D01*
X92385137Y-87593983D01*
X92682517Y-87891363D01*
X93032198Y-88125012D01*
X93420744Y-88285953D01*
X93833221Y-88368000D01*
X94253779Y-88368000D01*
X94666256Y-88285953D01*
X95054802Y-88125012D01*
X95404483Y-87891363D01*
X95701863Y-87593983D01*
X95935512Y-87244302D01*
X96096453Y-86855756D01*
X96178500Y-86443279D01*
X96178500Y-86022721D01*
X96096453Y-85610244D01*
X95935512Y-85221698D01*
X95701863Y-84872017D01*
X95404483Y-84574637D01*
X95054802Y-84340988D01*
X94666256Y-84180047D01*
X94253779Y-84098000D01*
X93833221Y-84098000D01*
X93420744Y-84180047D01*
X93032198Y-84340988D01*
X92682517Y-84574637D01*
X92385137Y-84872017D01*
X92151488Y-85221698D01*
X91990547Y-85610244D01*
X91973000Y-85698458D01*
X91973000Y-81596605D01*
X94859500Y-81596605D01*
X94985414Y-81886577D01*
X95317626Y-82052433D01*
X95675812Y-82150290D01*
X96046206Y-82176389D01*
X96414575Y-82129725D01*
X96766762Y-82012094D01*
X97001586Y-81886577D01*
X97127500Y-81596605D01*
X95993500Y-80462605D01*
X94859500Y-81596605D01*
X91973000Y-81596605D01*
X91973000Y-80335706D01*
X94100111Y-80335706D01*
X94146775Y-80704075D01*
X94264406Y-81056262D01*
X94389923Y-81291086D01*
X94679895Y-81417000D01*
X95813895Y-80283000D01*
X96173105Y-80283000D01*
X97307105Y-81417000D01*
X97597077Y-81291086D01*
X97762933Y-80958874D01*
X97860790Y-80600688D01*
X97886889Y-80230294D01*
X97840225Y-79861925D01*
X97722594Y-79509738D01*
X97597077Y-79274914D01*
X97307105Y-79149000D01*
X96173105Y-80283000D01*
X95813895Y-80283000D01*
X94679895Y-79149000D01*
X94389923Y-79274914D01*
X94224067Y-79607126D01*
X94126210Y-79965312D01*
X94100111Y-80335706D01*
X91973000Y-80335706D01*
X91973000Y-78969395D01*
X94859500Y-78969395D01*
X95993500Y-80103395D01*
X97127500Y-78969395D01*
X97001586Y-78679423D01*
X96669374Y-78513567D01*
X96311188Y-78415710D01*
X95940794Y-78389611D01*
X95572425Y-78436275D01*
X95220238Y-78553906D01*
X94985414Y-78679423D01*
X94859500Y-78969395D01*
X91973000Y-78969395D01*
X91973000Y-70865919D01*
X93602000Y-70865919D01*
X93602000Y-71247081D01*
X93676361Y-71620919D01*
X93822225Y-71973066D01*
X94033987Y-72289991D01*
X94303509Y-72559513D01*
X94620434Y-72771275D01*
X94972581Y-72917139D01*
X95346419Y-72991500D01*
X95727581Y-72991500D01*
X96101419Y-72917139D01*
X96453566Y-72771275D01*
X96770491Y-72559513D01*
X97040013Y-72289991D01*
X97251775Y-71973066D01*
X97397639Y-71620919D01*
X97472000Y-71247081D01*
X97472000Y-70865919D01*
X98602000Y-70865919D01*
X98602000Y-71247081D01*
X98676361Y-71620919D01*
X98822225Y-71973066D01*
X99033987Y-72289991D01*
X99303509Y-72559513D01*
X99620434Y-72771275D01*
X99972581Y-72917139D01*
X100346419Y-72991500D01*
X100727581Y-72991500D01*
X101101419Y-72917139D01*
X101453566Y-72771275D01*
X101770491Y-72559513D01*
X102040013Y-72289991D01*
X102251775Y-71973066D01*
X102397639Y-71620919D01*
X102472000Y-71247081D01*
X102472000Y-70865919D01*
X102397639Y-70492081D01*
X102251775Y-70139934D01*
X102040013Y-69823009D01*
X101973504Y-69756500D01*
X103598928Y-69756500D01*
X103598928Y-72356500D01*
X103611188Y-72480982D01*
X103647498Y-72600680D01*
X103706463Y-72710994D01*
X103785815Y-72807685D01*
X103882506Y-72887037D01*
X103992820Y-72946002D01*
X104112518Y-72982312D01*
X104237000Y-72994572D01*
X106837000Y-72994572D01*
X106961482Y-72982312D01*
X107081180Y-72946002D01*
X107191494Y-72887037D01*
X107288185Y-72807685D01*
X107367537Y-72710994D01*
X107426502Y-72600680D01*
X107462812Y-72480982D01*
X107475072Y-72356500D01*
X107475072Y-70007705D01*
X107861300Y-70007705D01*
X107861300Y-70200295D01*
X107898872Y-70389185D01*
X107972573Y-70567115D01*
X108079571Y-70727248D01*
X108215752Y-70863429D01*
X108375885Y-70970427D01*
X108553815Y-71044128D01*
X108742705Y-71081700D01*
X108935295Y-71081700D01*
X109061158Y-71056665D01*
X109027613Y-71074595D01*
X108893038Y-71185038D01*
X108782595Y-71319613D01*
X108700528Y-71473149D01*
X108649992Y-71639745D01*
X108632928Y-71812999D01*
X108632928Y-72713001D01*
X108649992Y-72886255D01*
X108700528Y-73052851D01*
X108782595Y-73206387D01*
X108893038Y-73340962D01*
X109027613Y-73451405D01*
X109181149Y-73533472D01*
X109347745Y-73584008D01*
X109520999Y-73601072D01*
X110171001Y-73601072D01*
X110344255Y-73584008D01*
X110510851Y-73533472D01*
X110664387Y-73451405D01*
X110798962Y-73340962D01*
X110871000Y-73253184D01*
X110943038Y-73340962D01*
X111077613Y-73451405D01*
X111231149Y-73533472D01*
X111397745Y-73584008D01*
X111570999Y-73601072D01*
X112221001Y-73601072D01*
X112394255Y-73584008D01*
X112560851Y-73533472D01*
X112714387Y-73451405D01*
X112848962Y-73340962D01*
X112876943Y-73306867D01*
X112957038Y-73404462D01*
X113091613Y-73514905D01*
X113245149Y-73596972D01*
X113411745Y-73647508D01*
X113584999Y-73664572D01*
X114235001Y-73664572D01*
X114408255Y-73647508D01*
X114574851Y-73596972D01*
X114728387Y-73514905D01*
X114862962Y-73404462D01*
X114935000Y-73316684D01*
X115007038Y-73404462D01*
X115141613Y-73514905D01*
X115295149Y-73596972D01*
X115461745Y-73647508D01*
X115634999Y-73664572D01*
X116285001Y-73664572D01*
X116458255Y-73647508D01*
X116624851Y-73596972D01*
X116778387Y-73514905D01*
X116912962Y-73404462D01*
X117023405Y-73269887D01*
X117105472Y-73116351D01*
X117113920Y-73088500D01*
X118013428Y-73088500D01*
X118013428Y-73245500D01*
X118025688Y-73369982D01*
X118061998Y-73489680D01*
X118120963Y-73599994D01*
X118200315Y-73696685D01*
X118297006Y-73776037D01*
X118407320Y-73835002D01*
X118527018Y-73871312D01*
X118651500Y-73883572D01*
X121251500Y-73883572D01*
X121375982Y-73871312D01*
X121495680Y-73835002D01*
X121605994Y-73776037D01*
X121702685Y-73696685D01*
X121782037Y-73599994D01*
X121841002Y-73489680D01*
X121877312Y-73369982D01*
X121889572Y-73245500D01*
X121889572Y-71754919D01*
X123016500Y-71754919D01*
X123016500Y-72136081D01*
X123090861Y-72509919D01*
X123236725Y-72862066D01*
X123448487Y-73178991D01*
X123718009Y-73448513D01*
X124034934Y-73660275D01*
X124387081Y-73806139D01*
X124760919Y-73880500D01*
X125142081Y-73880500D01*
X125515919Y-73806139D01*
X125868066Y-73660275D01*
X126184991Y-73448513D01*
X126454513Y-73178991D01*
X126666275Y-72862066D01*
X126812139Y-72509919D01*
X126886217Y-72137500D01*
X129460928Y-72137500D01*
X129473188Y-72261982D01*
X129509498Y-72381680D01*
X129568463Y-72491994D01*
X129647815Y-72588685D01*
X129744506Y-72668037D01*
X129854820Y-72727002D01*
X129974518Y-72763312D01*
X130099000Y-72775572D01*
X130388250Y-72772500D01*
X130547000Y-72613750D01*
X130547000Y-71564500D01*
X129622750Y-71564500D01*
X129464000Y-71723250D01*
X129460928Y-72137500D01*
X126886217Y-72137500D01*
X126886500Y-72136081D01*
X126886500Y-71754919D01*
X126812139Y-71381081D01*
X126666275Y-71028934D01*
X126454513Y-70712009D01*
X126184991Y-70442487D01*
X126012738Y-70327392D01*
X126934631Y-69405500D01*
X128253428Y-69405500D01*
X128253428Y-69668500D01*
X128270492Y-69841754D01*
X128321028Y-70008350D01*
X128403095Y-70161886D01*
X128513538Y-70296462D01*
X128648114Y-70406905D01*
X128801650Y-70488972D01*
X128968246Y-70539508D01*
X129141500Y-70556572D01*
X129490311Y-70556572D01*
X129473188Y-70613018D01*
X129460928Y-70737500D01*
X129464000Y-71151750D01*
X129622750Y-71310500D01*
X130547000Y-71310500D01*
X130547000Y-71290500D01*
X130801000Y-71290500D01*
X130801000Y-71310500D01*
X130821000Y-71310500D01*
X130821000Y-71564500D01*
X130801000Y-71564500D01*
X130801000Y-72613750D01*
X130959750Y-72772500D01*
X131249000Y-72775572D01*
X131373482Y-72763312D01*
X131493180Y-72727002D01*
X131603494Y-72668037D01*
X131700185Y-72588685D01*
X131765658Y-72508906D01*
X131771038Y-72515462D01*
X131905613Y-72625905D01*
X132059149Y-72707972D01*
X132225745Y-72758508D01*
X132398999Y-72775572D01*
X133049001Y-72775572D01*
X133222255Y-72758508D01*
X133388851Y-72707972D01*
X133542387Y-72625905D01*
X133676962Y-72515462D01*
X133787405Y-72380887D01*
X133869472Y-72227351D01*
X133920008Y-72060755D01*
X133937072Y-71887501D01*
X133937072Y-71302058D01*
X134682559Y-70556572D01*
X134891500Y-70556572D01*
X135064754Y-70539508D01*
X135231350Y-70488972D01*
X135384886Y-70406905D01*
X135458490Y-70346500D01*
X136865428Y-70346500D01*
X136865428Y-74306500D01*
X136877688Y-74430982D01*
X136913998Y-74550680D01*
X136972963Y-74660994D01*
X137052315Y-74757685D01*
X137149006Y-74837037D01*
X137259320Y-74896002D01*
X137379018Y-74932312D01*
X137503500Y-74944572D01*
X139483500Y-74944572D01*
X139607982Y-74932312D01*
X139727680Y-74896002D01*
X139837994Y-74837037D01*
X139934685Y-74757685D01*
X140014037Y-74660994D01*
X140073002Y-74550680D01*
X140109312Y-74430982D01*
X140121572Y-74306500D01*
X140121572Y-71256677D01*
X141868500Y-71256677D01*
X141868501Y-73396324D01*
X141892014Y-73635056D01*
X141984933Y-73941369D01*
X142135826Y-74223670D01*
X142338893Y-74471108D01*
X142586331Y-74674175D01*
X142868632Y-74825068D01*
X143174945Y-74917987D01*
X143493500Y-74949362D01*
X143812056Y-74917987D01*
X144118369Y-74825068D01*
X144400670Y-74674175D01*
X144648108Y-74471108D01*
X144851175Y-74223670D01*
X145002068Y-73941369D01*
X145094987Y-73635056D01*
X145118500Y-73396324D01*
X145118500Y-71256676D01*
X145094987Y-71017944D01*
X145002068Y-70711631D01*
X144851175Y-70429330D01*
X144648108Y-70181892D01*
X144400669Y-69978825D01*
X144118368Y-69827932D01*
X143812055Y-69735013D01*
X143493500Y-69703638D01*
X143174944Y-69735013D01*
X142868631Y-69827932D01*
X142586330Y-69978825D01*
X142338892Y-70181892D01*
X142135825Y-70429331D01*
X141984932Y-70711632D01*
X141892013Y-71017945D01*
X141868500Y-71256677D01*
X140121572Y-71256677D01*
X140121572Y-70346500D01*
X140109312Y-70222018D01*
X140073002Y-70102320D01*
X140014037Y-69992006D01*
X139934685Y-69895315D01*
X139837994Y-69815963D01*
X139727680Y-69756998D01*
X139607982Y-69720688D01*
X139483500Y-69708428D01*
X137503500Y-69708428D01*
X137379018Y-69720688D01*
X137259320Y-69756998D01*
X137149006Y-69815963D01*
X137052315Y-69895315D01*
X136972963Y-69992006D01*
X136913998Y-70102320D01*
X136877688Y-70222018D01*
X136865428Y-70346500D01*
X135458490Y-70346500D01*
X135519462Y-70296462D01*
X135629905Y-70161886D01*
X135711972Y-70008350D01*
X135762508Y-69841754D01*
X135779572Y-69668500D01*
X135779572Y-67618500D01*
X135762508Y-67445246D01*
X135711972Y-67278650D01*
X135629905Y-67125114D01*
X135519462Y-66990538D01*
X135384886Y-66880095D01*
X135231350Y-66798028D01*
X135064754Y-66747492D01*
X134891500Y-66730428D01*
X133691500Y-66730428D01*
X133518246Y-66747492D01*
X133351650Y-66798028D01*
X133198114Y-66880095D01*
X133063538Y-66990538D01*
X132953095Y-67125114D01*
X132871028Y-67278650D01*
X132820492Y-67445246D01*
X132803428Y-67618500D01*
X132803428Y-69668500D01*
X132820492Y-69841754D01*
X132871028Y-70008350D01*
X132919710Y-70099428D01*
X132398999Y-70099428D01*
X132225745Y-70116492D01*
X132059149Y-70167028D01*
X131905613Y-70249095D01*
X131771038Y-70359538D01*
X131765658Y-70366094D01*
X131700185Y-70286315D01*
X131603494Y-70206963D01*
X131493180Y-70147998D01*
X131373482Y-70111688D01*
X131249000Y-70099428D01*
X131112515Y-70100878D01*
X131161972Y-70008350D01*
X131212508Y-69841754D01*
X131229572Y-69668500D01*
X131229572Y-67618500D01*
X131212508Y-67445246D01*
X131161972Y-67278650D01*
X131079905Y-67125114D01*
X130969462Y-66990538D01*
X130834886Y-66880095D01*
X130681350Y-66798028D01*
X130514754Y-66747492D01*
X130341500Y-66730428D01*
X129141500Y-66730428D01*
X128968246Y-66747492D01*
X128801650Y-66798028D01*
X128648114Y-66880095D01*
X128513538Y-66990538D01*
X128403095Y-67125114D01*
X128321028Y-67278650D01*
X128270492Y-67445246D01*
X128253428Y-67618500D01*
X128253428Y-67881500D01*
X126656422Y-67881500D01*
X126618999Y-67877814D01*
X126581576Y-67881500D01*
X126581574Y-67881500D01*
X126469622Y-67892526D01*
X126325985Y-67936098D01*
X126193608Y-68006855D01*
X126077578Y-68102078D01*
X126053721Y-68131148D01*
X124439149Y-69745721D01*
X124410079Y-69769578D01*
X124386222Y-69798648D01*
X124386221Y-69798649D01*
X124314855Y-69885608D01*
X124244099Y-70017985D01*
X124200527Y-70161622D01*
X124200474Y-70162156D01*
X124034934Y-70230725D01*
X123718009Y-70442487D01*
X123448487Y-70712009D01*
X123236725Y-71028934D01*
X123090861Y-71381081D01*
X123016500Y-71754919D01*
X121889572Y-71754919D01*
X121889572Y-70645500D01*
X121877312Y-70521018D01*
X121841002Y-70401320D01*
X121782037Y-70291006D01*
X121702685Y-70194315D01*
X121605994Y-70114963D01*
X121495680Y-70055998D01*
X121375982Y-70019688D01*
X121251500Y-70007428D01*
X118651500Y-70007428D01*
X118527018Y-70019688D01*
X118407320Y-70055998D01*
X118297006Y-70114963D01*
X118200315Y-70194315D01*
X118120963Y-70291006D01*
X118061998Y-70401320D01*
X118025688Y-70521018D01*
X118013428Y-70645500D01*
X118013428Y-71564500D01*
X117113920Y-71564500D01*
X117105472Y-71536649D01*
X117023405Y-71383113D01*
X116912962Y-71248538D01*
X116778387Y-71138095D01*
X116624851Y-71056028D01*
X116458255Y-71005492D01*
X116285001Y-70988428D01*
X115634999Y-70988428D01*
X115461745Y-71005492D01*
X115295149Y-71056028D01*
X115268895Y-71070061D01*
X115277700Y-71025795D01*
X115277700Y-70833205D01*
X115240128Y-70644315D01*
X115203784Y-70556572D01*
X115714500Y-70556572D01*
X115887754Y-70539508D01*
X116054350Y-70488972D01*
X116207886Y-70406905D01*
X116342462Y-70296462D01*
X116452905Y-70161886D01*
X116534972Y-70008350D01*
X116585508Y-69841754D01*
X116602572Y-69668500D01*
X116602572Y-67618500D01*
X116585508Y-67445246D01*
X116534972Y-67278650D01*
X116452905Y-67125114D01*
X116342462Y-66990538D01*
X116207886Y-66880095D01*
X116054350Y-66798028D01*
X115887754Y-66747492D01*
X115714500Y-66730428D01*
X114514500Y-66730428D01*
X114341246Y-66747492D01*
X114174650Y-66798028D01*
X114021114Y-66880095D01*
X113886538Y-66990538D01*
X113776095Y-67125114D01*
X113694028Y-67278650D01*
X113643492Y-67445246D01*
X113626428Y-67618500D01*
X113626428Y-69053941D01*
X112007025Y-70673345D01*
X111977950Y-70697206D01*
X111882727Y-70813236D01*
X111823026Y-70924928D01*
X111570999Y-70924928D01*
X111397745Y-70941992D01*
X111231149Y-70992528D01*
X111143542Y-71039355D01*
X111176128Y-70960685D01*
X111213700Y-70771795D01*
X111213700Y-70579205D01*
X111208339Y-70552254D01*
X111337754Y-70539508D01*
X111504350Y-70488972D01*
X111657886Y-70406905D01*
X111792462Y-70296462D01*
X111902905Y-70161886D01*
X111984972Y-70008350D01*
X112035508Y-69841754D01*
X112052572Y-69668500D01*
X112052572Y-67618500D01*
X112035508Y-67445246D01*
X111984972Y-67278650D01*
X111902905Y-67125114D01*
X111792462Y-66990538D01*
X111657886Y-66880095D01*
X111504350Y-66798028D01*
X111337754Y-66747492D01*
X111164500Y-66730428D01*
X109964500Y-66730428D01*
X109791246Y-66747492D01*
X109624650Y-66798028D01*
X109471114Y-66880095D01*
X109336538Y-66990538D01*
X109226095Y-67125114D01*
X109144028Y-67278650D01*
X109093492Y-67445246D01*
X109076428Y-67618500D01*
X109076428Y-68153941D01*
X108326653Y-68903716D01*
X108297578Y-68927578D01*
X108241983Y-68995322D01*
X108202355Y-69043608D01*
X108188841Y-69068892D01*
X108131598Y-69175986D01*
X108088026Y-69319623D01*
X108079568Y-69405500D01*
X108073314Y-69469000D01*
X108075127Y-69487403D01*
X107972573Y-69640885D01*
X107898872Y-69818815D01*
X107861300Y-70007705D01*
X107475072Y-70007705D01*
X107475072Y-69756500D01*
X107462812Y-69632018D01*
X107426502Y-69512320D01*
X107367537Y-69402006D01*
X107288185Y-69305315D01*
X107191494Y-69225963D01*
X107081180Y-69166998D01*
X106961482Y-69130688D01*
X106837000Y-69118428D01*
X104237000Y-69118428D01*
X104112518Y-69130688D01*
X103992820Y-69166998D01*
X103882506Y-69225963D01*
X103785815Y-69305315D01*
X103706463Y-69402006D01*
X103647498Y-69512320D01*
X103611188Y-69632018D01*
X103598928Y-69756500D01*
X101973504Y-69756500D01*
X101770491Y-69553487D01*
X101453566Y-69341725D01*
X101101419Y-69195861D01*
X100727581Y-69121500D01*
X100346419Y-69121500D01*
X99972581Y-69195861D01*
X99620434Y-69341725D01*
X99303509Y-69553487D01*
X99033987Y-69823009D01*
X98822225Y-70139934D01*
X98676361Y-70492081D01*
X98602000Y-70865919D01*
X97472000Y-70865919D01*
X97397639Y-70492081D01*
X97251775Y-70139934D01*
X97040013Y-69823009D01*
X96770491Y-69553487D01*
X96453566Y-69341725D01*
X96101419Y-69195861D01*
X95727581Y-69121500D01*
X95346419Y-69121500D01*
X94972581Y-69195861D01*
X94620434Y-69341725D01*
X94303509Y-69553487D01*
X94033987Y-69823009D01*
X93822225Y-70139934D01*
X93676361Y-70492081D01*
X93602000Y-70865919D01*
X91973000Y-70865919D01*
X91973000Y-66446000D01*
X151613000Y-66446000D01*
X151613001Y-94971000D01*
X151613001Y-94971000D01*
G37*
X151613001Y-94971000D02*
X140875408Y-94971000D01*
X140842999Y-94967808D01*
X140810590Y-94971000D01*
X140810581Y-94971000D01*
X140713617Y-94980550D01*
X140589207Y-95018290D01*
X140474550Y-95079575D01*
X140374052Y-95162052D01*
X140353388Y-95187231D01*
X138029620Y-97511000D01*
X113811381Y-97511000D01*
X111555225Y-95254844D01*
X114129500Y-95254844D01*
X114129500Y-95626156D01*
X114201939Y-95990334D01*
X114344034Y-96333382D01*
X114550325Y-96642118D01*
X114812882Y-96904675D01*
X115121618Y-97110966D01*
X115464666Y-97253061D01*
X115828844Y-97325500D01*
X116200156Y-97325500D01*
X116564334Y-97253061D01*
X116907382Y-97110966D01*
X117216118Y-96904675D01*
X117478675Y-96642118D01*
X117684966Y-96333382D01*
X117827061Y-95990334D01*
X117899500Y-95626156D01*
X117899500Y-95254844D01*
X117827061Y-94890666D01*
X117684966Y-94547618D01*
X117478675Y-94238882D01*
X117216118Y-93976325D01*
X116907382Y-93770034D01*
X116564334Y-93627939D01*
X116200156Y-93555500D01*
X115828844Y-93555500D01*
X115464666Y-93627939D01*
X115121618Y-93770034D01*
X114812882Y-93976325D01*
X114550325Y-94238882D01*
X114344034Y-94547618D01*
X114201939Y-94890666D01*
X114129500Y-95254844D01*
X111555225Y-95254844D01*
X111487616Y-95187236D01*
X111466948Y-95162052D01*
X111366450Y-95079575D01*
X111251793Y-95018290D01*
X111127383Y-94980550D01*
X111030419Y-94971000D01*
X111030409Y-94971000D01*
X110998000Y-94967808D01*
X110965591Y-94971000D01*
X91973000Y-94971000D01*
X91973000Y-92097344D01*
X94108500Y-92097344D01*
X94108500Y-92468656D01*
X94180939Y-92832834D01*
X94323034Y-93175882D01*
X94529325Y-93484618D01*
X94791882Y-93747175D01*
X95100618Y-93953466D01*
X95443666Y-94095561D01*
X95807844Y-94168000D01*
X96179156Y-94168000D01*
X96543334Y-94095561D01*
X96886382Y-93953466D01*
X97195118Y-93747175D01*
X97457675Y-93484618D01*
X97663966Y-93175882D01*
X97806061Y-92832834D01*
X97878500Y-92468656D01*
X97878500Y-92381235D01*
X99708736Y-90551000D01*
X106942723Y-90551000D01*
X106832517Y-90624637D01*
X106535137Y-90922017D01*
X106301488Y-91271698D01*
X106140547Y-91660244D01*
X106058500Y-92072721D01*
X106058500Y-92493279D01*
X106140547Y-92905756D01*
X106301488Y-93294302D01*
X106535137Y-93643983D01*
X106832517Y-93941363D01*
X107182198Y-94175012D01*
X107570744Y-94335953D01*
X107983221Y-94418000D01*
X108403779Y-94418000D01*
X108816256Y-94335953D01*
X109204802Y-94175012D01*
X109554483Y-93941363D01*
X109851863Y-93643983D01*
X110085512Y-93294302D01*
X110246453Y-92905756D01*
X110328500Y-92493279D01*
X110328500Y-92072721D01*
X110246453Y-91660244D01*
X110085512Y-91271698D01*
X109851863Y-90922017D01*
X109554483Y-90624637D01*
X109444277Y-90551000D01*
X112217265Y-90551000D01*
X112823928Y-91157664D01*
X112823928Y-91699501D01*
X112840992Y-91872755D01*
X112891528Y-92039351D01*
X112973595Y-92192887D01*
X113084038Y-92327462D01*
X113218613Y-92437905D01*
X113372149Y-92519972D01*
X113538745Y-92570508D01*
X113711999Y-92587572D01*
X114362001Y-92587572D01*
X114535255Y-92570508D01*
X114701851Y-92519972D01*
X114855387Y-92437905D01*
X114989962Y-92327462D01*
X114995342Y-92320906D01*
X115060815Y-92400685D01*
X115157506Y-92480037D01*
X115267820Y-92539002D01*
X115387518Y-92575312D01*
X115512000Y-92587572D01*
X115801250Y-92584500D01*
X115960000Y-92425750D01*
X115960000Y-91376500D01*
X116214000Y-91376500D01*
X116214000Y-92425750D01*
X116372750Y-92584500D01*
X116662000Y-92587572D01*
X116786482Y-92575312D01*
X116906180Y-92539002D01*
X117016494Y-92480037D01*
X117113185Y-92400685D01*
X117192537Y-92303994D01*
X117251502Y-92193680D01*
X117287812Y-92073982D01*
X117300072Y-91949500D01*
X117297000Y-91535250D01*
X117138250Y-91376500D01*
X116214000Y-91376500D01*
X115960000Y-91376500D01*
X115940000Y-91376500D01*
X115940000Y-91122500D01*
X115960000Y-91122500D01*
X115960000Y-90073250D01*
X116214000Y-90073250D01*
X116214000Y-91122500D01*
X117138250Y-91122500D01*
X117297000Y-90963750D01*
X117300072Y-90549500D01*
X117287812Y-90425018D01*
X117251502Y-90305320D01*
X117192537Y-90195006D01*
X117113185Y-90098315D01*
X117016494Y-90018963D01*
X116906180Y-89959998D01*
X116786482Y-89923688D01*
X116662000Y-89911428D01*
X116372750Y-89914500D01*
X116214000Y-90073250D01*
X115960000Y-90073250D01*
X115801250Y-89914500D01*
X115512000Y-89911428D01*
X115387518Y-89923688D01*
X115267820Y-89959998D01*
X115157506Y-90018963D01*
X115060815Y-90098315D01*
X114995342Y-90178094D01*
X114989962Y-90171538D01*
X114935000Y-90126432D01*
X114935000Y-88764072D01*
X115269500Y-88764072D01*
X115393982Y-88751812D01*
X115513680Y-88715502D01*
X115578402Y-88680907D01*
X115787101Y-88744215D01*
X116014500Y-88766612D01*
X116241900Y-88744215D01*
X116460560Y-88677885D01*
X116649501Y-88576894D01*
X116838441Y-88677885D01*
X117057101Y-88744215D01*
X117284500Y-88766612D01*
X117511900Y-88744215D01*
X117730560Y-88677885D01*
X117932079Y-88570171D01*
X118108712Y-88425212D01*
X118253671Y-88248579D01*
X118361385Y-88047059D01*
X118427715Y-87828399D01*
X118444500Y-87657978D01*
X118444500Y-87094021D01*
X118427715Y-86923600D01*
X118361385Y-86704940D01*
X118253671Y-86503421D01*
X118108712Y-86326788D01*
X118046500Y-86275732D01*
X118046500Y-85379923D01*
X118050186Y-85342500D01*
X118044644Y-85286234D01*
X118035474Y-85193122D01*
X117991902Y-85049485D01*
X117940072Y-84952517D01*
X117921145Y-84917107D01*
X117874968Y-84860841D01*
X117825922Y-84801078D01*
X117796847Y-84777217D01*
X115782769Y-82763139D01*
X115791084Y-82747582D01*
X115835929Y-82599745D01*
X115851072Y-82446000D01*
X115851072Y-82146000D01*
X115835929Y-81992255D01*
X115791084Y-81844418D01*
X115760928Y-81788000D01*
X116167577Y-81788000D01*
X116205000Y-81791686D01*
X116242423Y-81788000D01*
X116242426Y-81788000D01*
X116354378Y-81776974D01*
X116498015Y-81733402D01*
X116630392Y-81662645D01*
X116746422Y-81567422D01*
X116770284Y-81538346D01*
X116779881Y-81528749D01*
X116772814Y-81600500D01*
X116776501Y-81637933D01*
X116776500Y-83108918D01*
X116772814Y-83146342D01*
X116776500Y-83183765D01*
X116776500Y-83183767D01*
X116787526Y-83295719D01*
X116831098Y-83439356D01*
X116854636Y-83483392D01*
X116901855Y-83571734D01*
X116924578Y-83599422D01*
X116997078Y-83687764D01*
X117026154Y-83711626D01*
X118491001Y-85176474D01*
X118491000Y-91525826D01*
X118486377Y-91529620D01*
X118462520Y-91558690D01*
X118462519Y-91558691D01*
X118391153Y-91645650D01*
X118326611Y-91766402D01*
X118320397Y-91778027D01*
X118276825Y-91921664D01*
X118268440Y-92006800D01*
X118262112Y-92071042D01*
X118265798Y-92108465D01*
X118265798Y-92867035D01*
X118262112Y-92904458D01*
X118265798Y-92941881D01*
X118265798Y-92941883D01*
X118276824Y-93053835D01*
X118320396Y-93197472D01*
X118338845Y-93231987D01*
X118391153Y-93329850D01*
X118430781Y-93378136D01*
X118486376Y-93445880D01*
X118515452Y-93469742D01*
X120300061Y-95254352D01*
X120323918Y-95283422D01*
X120352988Y-95307279D01*
X120439947Y-95378645D01*
X120510704Y-95416465D01*
X120572325Y-95449402D01*
X120715962Y-95492974D01*
X120827914Y-95504000D01*
X120827917Y-95504000D01*
X120865340Y-95507686D01*
X120902763Y-95504000D01*
X124034577Y-95504000D01*
X124072000Y-95507686D01*
X124109423Y-95504000D01*
X124109426Y-95504000D01*
X124221378Y-95492974D01*
X124365015Y-95449402D01*
X124497392Y-95378645D01*
X124613422Y-95283422D01*
X124637284Y-95254346D01*
X125313559Y-94578072D01*
X127454000Y-94578072D01*
X127578482Y-94565812D01*
X127698180Y-94529502D01*
X127808494Y-94470537D01*
X127905185Y-94391185D01*
X127984537Y-94294494D01*
X128043502Y-94184180D01*
X128079812Y-94064482D01*
X128092072Y-93940000D01*
X128092072Y-92940000D01*
X128079812Y-92815518D01*
X128043502Y-92695820D01*
X127984537Y-92585506D01*
X127905185Y-92488815D01*
X127845704Y-92440000D01*
X127905185Y-92391185D01*
X127984537Y-92294494D01*
X128043502Y-92184180D01*
X128079812Y-92064482D01*
X128092072Y-91940000D01*
X128092072Y-90940000D01*
X128079812Y-90815518D01*
X128043502Y-90695820D01*
X127984537Y-90585506D01*
X127905185Y-90488815D01*
X127845704Y-90440000D01*
X127905185Y-90391185D01*
X127984537Y-90294494D01*
X128033977Y-90202000D01*
X129310870Y-90202000D01*
X129713798Y-90604929D01*
X129699315Y-90616815D01*
X129619963Y-90713506D01*
X129560998Y-90823820D01*
X129524688Y-90943518D01*
X129512428Y-91068000D01*
X129512428Y-91968000D01*
X129524688Y-92092482D01*
X129560998Y-92212180D01*
X129619963Y-92322494D01*
X129699315Y-92419185D01*
X129796006Y-92498537D01*
X129906320Y-92557502D01*
X130026018Y-92593812D01*
X130150500Y-92606072D01*
X131530798Y-92606072D01*
X130488154Y-93648716D01*
X130459078Y-93672578D01*
X130403483Y-93740322D01*
X130363855Y-93788608D01*
X130341769Y-93829928D01*
X130150500Y-93829928D01*
X130026018Y-93842188D01*
X129906320Y-93878498D01*
X129796006Y-93937463D01*
X129699315Y-94016815D01*
X129619963Y-94113506D01*
X129560998Y-94223820D01*
X129524688Y-94343518D01*
X129512428Y-94468000D01*
X129512428Y-95368000D01*
X129524688Y-95492482D01*
X129560998Y-95612180D01*
X129619963Y-95722494D01*
X129699315Y-95819185D01*
X129796006Y-95898537D01*
X129906320Y-95957502D01*
X130026018Y-95993812D01*
X130150500Y-96006072D01*
X131850500Y-96006072D01*
X131974982Y-95993812D01*
X132094680Y-95957502D01*
X132204994Y-95898537D01*
X132301685Y-95819185D01*
X132381037Y-95722494D01*
X132440002Y-95612180D01*
X132476312Y-95492482D01*
X132488572Y-95368000D01*
X132488572Y-95318344D01*
X133878000Y-95318344D01*
X133878000Y-95689656D01*
X133950439Y-96053834D01*
X134092534Y-96396882D01*
X134298825Y-96705618D01*
X134561382Y-96968175D01*
X134870118Y-97174466D01*
X135213166Y-97316561D01*
X135577344Y-97389000D01*
X135948656Y-97389000D01*
X136312834Y-97316561D01*
X136655882Y-97174466D01*
X136964618Y-96968175D01*
X137227175Y-96705618D01*
X137433466Y-96396882D01*
X137575561Y-96053834D01*
X137648000Y-95689656D01*
X137648000Y-95318344D01*
X137575561Y-94954166D01*
X137433466Y-94611118D01*
X137227175Y-94302382D01*
X136964618Y-94039825D01*
X136655882Y-93833534D01*
X136312834Y-93691439D01*
X135948656Y-93619000D01*
X135577344Y-93619000D01*
X135213166Y-93691439D01*
X134870118Y-93833534D01*
X134561382Y-94039825D01*
X134298825Y-94302382D01*
X134092534Y-94611118D01*
X133950439Y-94954166D01*
X133878000Y-95318344D01*
X132488572Y-95318344D01*
X132488572Y-94468000D01*
X132476312Y-94343518D01*
X132440002Y-94223820D01*
X132381037Y-94113506D01*
X132301685Y-94016815D01*
X132287201Y-94004929D01*
X132730682Y-93561448D01*
X132757832Y-93569684D01*
X132869784Y-93580710D01*
X132869787Y-93580710D01*
X132907210Y-93584396D01*
X132944633Y-93580710D01*
X138623867Y-93580710D01*
X138661290Y-93584396D01*
X138698713Y-93580710D01*
X138698716Y-93580710D01*
X138810668Y-93569684D01*
X138954305Y-93526112D01*
X139086682Y-93455355D01*
X139171104Y-93386072D01*
X140782000Y-93386072D01*
X140955254Y-93369008D01*
X141121850Y-93318472D01*
X141275386Y-93236405D01*
X141409962Y-93125962D01*
X141520405Y-92991386D01*
X141602472Y-92837850D01*
X141653008Y-92671254D01*
X141670072Y-92498000D01*
X141670072Y-91398000D01*
X141793928Y-91398000D01*
X141793928Y-92498000D01*
X141810992Y-92671254D01*
X141861528Y-92837850D01*
X141943595Y-92991386D01*
X142054038Y-93125962D01*
X142188614Y-93236405D01*
X142342150Y-93318472D01*
X142508746Y-93369008D01*
X142682000Y-93386072D01*
X145182000Y-93386072D01*
X145355254Y-93369008D01*
X145521850Y-93318472D01*
X145675386Y-93236405D01*
X145809962Y-93125962D01*
X145920405Y-92991386D01*
X146002472Y-92837850D01*
X146002730Y-92837000D01*
X147652759Y-92837000D01*
X147764513Y-93004252D01*
X147992248Y-93231987D01*
X148260037Y-93410918D01*
X148557588Y-93534168D01*
X148873467Y-93597000D01*
X149195533Y-93597000D01*
X149511412Y-93534168D01*
X149808963Y-93410918D01*
X150076752Y-93231987D01*
X150304487Y-93004252D01*
X150483418Y-92736463D01*
X150606668Y-92438912D01*
X150669500Y-92123033D01*
X150669500Y-91800967D01*
X150606668Y-91485088D01*
X150483418Y-91187537D01*
X150304487Y-90919748D01*
X150076752Y-90692013D01*
X149808963Y-90513082D01*
X149511412Y-90389832D01*
X149195533Y-90327000D01*
X148873467Y-90327000D01*
X148557588Y-90389832D01*
X148260037Y-90513082D01*
X147992248Y-90692013D01*
X147764513Y-90919748D01*
X147671468Y-91059000D01*
X146002730Y-91059000D01*
X146002472Y-91058150D01*
X145920405Y-90904614D01*
X145809962Y-90770038D01*
X145675386Y-90659595D01*
X145521850Y-90577528D01*
X145355254Y-90526992D01*
X145182000Y-90509928D01*
X144821000Y-90509928D01*
X144821000Y-88915477D01*
X144842982Y-88913312D01*
X144962680Y-88877002D01*
X145072994Y-88818037D01*
X145169685Y-88738685D01*
X145249037Y-88641994D01*
X145308002Y-88531680D01*
X145344312Y-88411982D01*
X145356572Y-88287500D01*
X145356572Y-86800967D01*
X147399500Y-86800967D01*
X147399500Y-87123033D01*
X147462332Y-87438912D01*
X147585582Y-87736463D01*
X147764513Y-88004252D01*
X147992248Y-88231987D01*
X148260037Y-88410918D01*
X148557588Y-88534168D01*
X148873467Y-88597000D01*
X149195533Y-88597000D01*
X149511412Y-88534168D01*
X149808963Y-88410918D01*
X150076752Y-88231987D01*
X150304487Y-88004252D01*
X150483418Y-87736463D01*
X150606668Y-87438912D01*
X150669500Y-87123033D01*
X150669500Y-86800967D01*
X150606668Y-86485088D01*
X150483418Y-86187537D01*
X150304487Y-85919748D01*
X150076752Y-85692013D01*
X149808963Y-85513082D01*
X149511412Y-85389832D01*
X149195533Y-85327000D01*
X148873467Y-85327000D01*
X148557588Y-85389832D01*
X148260037Y-85513082D01*
X147992248Y-85692013D01*
X147764513Y-85919748D01*
X147585582Y-86187537D01*
X147462332Y-86485088D01*
X147399500Y-86800967D01*
X145356572Y-86800967D01*
X145356572Y-86287500D01*
X145344312Y-86163018D01*
X145308002Y-86043320D01*
X145249037Y-85933006D01*
X145169685Y-85836315D01*
X145072994Y-85756963D01*
X144962680Y-85697998D01*
X144842982Y-85661688D01*
X144718500Y-85649428D01*
X143218500Y-85649428D01*
X143094018Y-85661688D01*
X142974320Y-85697998D01*
X142864006Y-85756963D01*
X142818500Y-85794309D01*
X142772994Y-85756963D01*
X142662680Y-85697998D01*
X142542982Y-85661688D01*
X142418500Y-85649428D01*
X141954250Y-85652500D01*
X141795500Y-85811250D01*
X141795500Y-87160500D01*
X141815500Y-87160500D01*
X141815500Y-87414500D01*
X141795500Y-87414500D01*
X141795500Y-88763750D01*
X141954250Y-88922500D01*
X142418500Y-88925572D01*
X142542982Y-88913312D01*
X142662680Y-88877002D01*
X142772994Y-88818037D01*
X142818500Y-88780691D01*
X142864006Y-88818037D01*
X142974320Y-88877002D01*
X143043001Y-88897836D01*
X143043000Y-90509928D01*
X142682000Y-90509928D01*
X142508746Y-90526992D01*
X142342150Y-90577528D01*
X142188614Y-90659595D01*
X142054038Y-90770038D01*
X141943595Y-90904614D01*
X141861528Y-91058150D01*
X141810992Y-91224746D01*
X141793928Y-91398000D01*
X141670072Y-91398000D01*
X141653008Y-91224746D01*
X141602472Y-91058150D01*
X141520405Y-90904614D01*
X141409962Y-90770038D01*
X141275386Y-90659595D01*
X141121850Y-90577528D01*
X140955254Y-90526992D01*
X140782000Y-90509928D01*
X140294000Y-90509928D01*
X140294000Y-88897836D01*
X140362680Y-88877002D01*
X140472994Y-88818037D01*
X140518500Y-88780691D01*
X140564006Y-88818037D01*
X140674320Y-88877002D01*
X140794018Y-88913312D01*
X140918500Y-88925572D01*
X141382750Y-88922500D01*
X141541500Y-88763750D01*
X141541500Y-87414500D01*
X141521500Y-87414500D01*
X141521500Y-87160500D01*
X141541500Y-87160500D01*
X141541500Y-85811250D01*
X141382750Y-85652500D01*
X140918500Y-85649428D01*
X140794018Y-85661688D01*
X140674320Y-85697998D01*
X140564006Y-85756963D01*
X140518500Y-85794309D01*
X140472994Y-85756963D01*
X140362680Y-85697998D01*
X140242982Y-85661688D01*
X140118500Y-85649428D01*
X138618500Y-85649428D01*
X138494018Y-85661688D01*
X138374320Y-85697998D01*
X138264006Y-85756963D01*
X138167315Y-85836315D01*
X138087963Y-85933006D01*
X138028998Y-86043320D01*
X137992688Y-86163018D01*
X137980428Y-86287500D01*
X137980428Y-88287500D01*
X137992688Y-88411982D01*
X138028998Y-88531680D01*
X138087963Y-88641994D01*
X138167315Y-88738685D01*
X138264006Y-88818037D01*
X138374320Y-88877002D01*
X138494018Y-88913312D01*
X138618500Y-88925572D01*
X138770001Y-88925572D01*
X138770000Y-90509928D01*
X138282000Y-90509928D01*
X138108746Y-90526992D01*
X137942150Y-90577528D01*
X137788614Y-90659595D01*
X137654038Y-90770038D01*
X137543595Y-90904614D01*
X137461528Y-91058150D01*
X137410992Y-91224746D01*
X137393928Y-91398000D01*
X137393928Y-92056710D01*
X133413500Y-92056710D01*
X133413500Y-89814923D01*
X133417186Y-89777500D01*
X133413500Y-89740074D01*
X133402474Y-89628122D01*
X133358902Y-89484485D01*
X133325965Y-89422864D01*
X133288145Y-89352107D01*
X133216779Y-89265148D01*
X133192922Y-89236078D01*
X133163853Y-89212222D01*
X132898319Y-88946688D01*
X132930350Y-88936972D01*
X133083886Y-88854905D01*
X133218462Y-88744462D01*
X133328905Y-88609886D01*
X133410972Y-88456350D01*
X133438227Y-88366500D01*
X133602428Y-88366500D01*
X133614688Y-88490982D01*
X133650998Y-88610680D01*
X133709963Y-88720994D01*
X133789315Y-88817685D01*
X133886006Y-88897037D01*
X133996320Y-88956002D01*
X134116018Y-88992312D01*
X134240500Y-89004572D01*
X135454750Y-89001500D01*
X135613500Y-88842750D01*
X135613500Y-87693500D01*
X135867500Y-87693500D01*
X135867500Y-88842750D01*
X136026250Y-89001500D01*
X137240500Y-89004572D01*
X137364982Y-88992312D01*
X137484680Y-88956002D01*
X137594994Y-88897037D01*
X137691685Y-88817685D01*
X137771037Y-88720994D01*
X137830002Y-88610680D01*
X137866312Y-88490982D01*
X137878572Y-88366500D01*
X137875500Y-87852250D01*
X137716750Y-87693500D01*
X135867500Y-87693500D01*
X135613500Y-87693500D01*
X133764250Y-87693500D01*
X133605500Y-87852250D01*
X133602428Y-88366500D01*
X133438227Y-88366500D01*
X133461508Y-88289754D01*
X133478572Y-88116500D01*
X133478572Y-87016500D01*
X133461508Y-86843246D01*
X133438228Y-86766500D01*
X133602428Y-86766500D01*
X133605500Y-87280750D01*
X133764250Y-87439500D01*
X135613500Y-87439500D01*
X135613500Y-86290250D01*
X135867500Y-86290250D01*
X135867500Y-87439500D01*
X137716750Y-87439500D01*
X137875500Y-87280750D01*
X137878572Y-86766500D01*
X137866312Y-86642018D01*
X137830002Y-86522320D01*
X137771037Y-86412006D01*
X137691685Y-86315315D01*
X137594994Y-86235963D01*
X137484680Y-86176998D01*
X137364982Y-86140688D01*
X137240500Y-86128428D01*
X136026250Y-86131500D01*
X135867500Y-86290250D01*
X135613500Y-86290250D01*
X135454750Y-86131500D01*
X134240500Y-86128428D01*
X134116018Y-86140688D01*
X133996320Y-86176998D01*
X133886006Y-86235963D01*
X133789315Y-86315315D01*
X133709963Y-86412006D01*
X133650998Y-86522320D01*
X133614688Y-86642018D01*
X133602428Y-86766500D01*
X133438228Y-86766500D01*
X133410972Y-86676650D01*
X133328905Y-86523114D01*
X133218462Y-86388538D01*
X133083886Y-86278095D01*
X132930350Y-86196028D01*
X132763754Y-86145492D01*
X132590500Y-86128428D01*
X130090500Y-86128428D01*
X129917246Y-86145492D01*
X129750650Y-86196028D01*
X129597114Y-86278095D01*
X129462538Y-86388538D01*
X129352095Y-86523114D01*
X129300591Y-86619471D01*
X129219929Y-86498752D01*
X129083748Y-86362571D01*
X128923615Y-86255573D01*
X128745685Y-86181872D01*
X128556795Y-86144300D01*
X128364205Y-86144300D01*
X128175315Y-86181872D01*
X127997385Y-86255573D01*
X127837252Y-86362571D01*
X127701071Y-86498752D01*
X127594073Y-86658885D01*
X127520372Y-86836815D01*
X127482800Y-87025705D01*
X127482800Y-87218295D01*
X127520372Y-87407185D01*
X127594073Y-87585115D01*
X127701071Y-87745248D01*
X127837252Y-87881429D01*
X127997385Y-87988427D01*
X128175315Y-88062128D01*
X128355392Y-88097947D01*
X128363578Y-88107922D01*
X128414000Y-88149302D01*
X128479607Y-88203145D01*
X128550364Y-88240965D01*
X128611985Y-88273902D01*
X128755622Y-88317474D01*
X128867574Y-88328500D01*
X128867577Y-88328500D01*
X128905000Y-88332186D01*
X128942423Y-88328500D01*
X129231245Y-88328500D01*
X129270028Y-88456350D01*
X129352095Y-88609886D01*
X129407994Y-88678000D01*
X128033977Y-88678000D01*
X127984537Y-88585506D01*
X127905185Y-88488815D01*
X127808494Y-88409463D01*
X127698180Y-88350498D01*
X127578482Y-88314188D01*
X127454000Y-88301928D01*
X126897624Y-88301928D01*
X126871402Y-88215485D01*
X126823571Y-88126000D01*
X126800645Y-88083107D01*
X126745800Y-88016279D01*
X126705422Y-87967078D01*
X126676347Y-87943217D01*
X125817797Y-87084667D01*
X125781128Y-86900315D01*
X125707427Y-86722385D01*
X125600429Y-86562252D01*
X125464248Y-86426071D01*
X125304115Y-86319073D01*
X125126185Y-86245372D01*
X124937295Y-86207800D01*
X124744705Y-86207800D01*
X124555815Y-86245372D01*
X124377885Y-86319073D01*
X124217752Y-86426071D01*
X124081571Y-86562252D01*
X123974573Y-86722385D01*
X123900872Y-86900315D01*
X123863300Y-87089205D01*
X123863300Y-87162170D01*
X122441702Y-85740572D01*
X122941501Y-85740572D01*
X123114755Y-85723508D01*
X123281351Y-85672972D01*
X123434887Y-85590905D01*
X123569462Y-85480462D01*
X123679905Y-85345887D01*
X123710045Y-85289500D01*
X124413577Y-85289500D01*
X124451000Y-85293186D01*
X124488423Y-85289500D01*
X124488426Y-85289500D01*
X124600378Y-85278474D01*
X124744015Y-85234902D01*
X124876392Y-85164145D01*
X124992422Y-85068922D01*
X125016283Y-85039847D01*
X125480352Y-84575779D01*
X125509422Y-84551922D01*
X125604645Y-84435892D01*
X125675402Y-84303515D01*
X125718974Y-84159878D01*
X125730000Y-84047926D01*
X125730000Y-84047924D01*
X125733686Y-84010501D01*
X125730000Y-83973078D01*
X125730000Y-83960332D01*
X125769101Y-83939432D01*
X125987608Y-83760108D01*
X126166932Y-83541601D01*
X126300182Y-83292308D01*
X126382236Y-83021809D01*
X126409943Y-82740500D01*
X126382236Y-82459191D01*
X126300182Y-82188692D01*
X126166932Y-81939399D01*
X125987608Y-81720892D01*
X125874518Y-81628081D01*
X125892482Y-81626312D01*
X126012180Y-81590002D01*
X126122494Y-81531037D01*
X126219185Y-81451685D01*
X126298537Y-81354994D01*
X126357502Y-81244680D01*
X126393812Y-81124982D01*
X126406072Y-81000500D01*
X126406072Y-80200500D01*
X131146057Y-80200500D01*
X131173764Y-80481809D01*
X131255818Y-80752308D01*
X131389068Y-81001601D01*
X131568392Y-81220108D01*
X131786899Y-81399432D01*
X131919858Y-81470500D01*
X131786899Y-81541568D01*
X131568392Y-81720892D01*
X131389068Y-81939399D01*
X131255818Y-82188692D01*
X131173764Y-82459191D01*
X131146057Y-82740500D01*
X131173764Y-83021809D01*
X131255818Y-83292308D01*
X131389068Y-83541601D01*
X131568392Y-83760108D01*
X131786899Y-83939432D01*
X132036192Y-84072682D01*
X132306691Y-84154736D01*
X132517508Y-84175500D01*
X132658492Y-84175500D01*
X132869309Y-84154736D01*
X133139808Y-84072682D01*
X133389101Y-83939432D01*
X133607608Y-83760108D01*
X133786932Y-83541601D01*
X133848077Y-83427207D01*
X134063720Y-83642851D01*
X134087578Y-83671922D01*
X134203608Y-83767145D01*
X134335985Y-83837902D01*
X134479622Y-83881474D01*
X134541837Y-83887601D01*
X134574595Y-83948887D01*
X134685038Y-84083462D01*
X134819613Y-84193905D01*
X134973149Y-84275972D01*
X135139745Y-84326508D01*
X135312999Y-84343572D01*
X136213001Y-84343572D01*
X136386255Y-84326508D01*
X136552851Y-84275972D01*
X136706387Y-84193905D01*
X136840962Y-84083462D01*
X136951405Y-83948887D01*
X137033472Y-83795351D01*
X137084008Y-83628755D01*
X137101072Y-83455501D01*
X137101072Y-82805499D01*
X137084008Y-82632245D01*
X137033472Y-82465649D01*
X136951405Y-82312113D01*
X136840962Y-82177538D01*
X136834406Y-82172158D01*
X136914185Y-82106685D01*
X136993537Y-82009994D01*
X137005560Y-81987500D01*
X139130428Y-81987500D01*
X139142688Y-82111982D01*
X139178998Y-82231680D01*
X139237963Y-82341994D01*
X139317315Y-82438685D01*
X139414006Y-82518037D01*
X139524320Y-82577002D01*
X139644018Y-82613312D01*
X139768500Y-82625572D01*
X141382750Y-82622500D01*
X141541500Y-82463750D01*
X141541500Y-81114500D01*
X141795500Y-81114500D01*
X141795500Y-82463750D01*
X141954250Y-82622500D01*
X143568500Y-82625572D01*
X143692982Y-82613312D01*
X143812680Y-82577002D01*
X143922994Y-82518037D01*
X144019685Y-82438685D01*
X144099037Y-82341994D01*
X144158002Y-82231680D01*
X144194312Y-82111982D01*
X144206572Y-81987500D01*
X144205770Y-81800967D01*
X147399500Y-81800967D01*
X147399500Y-82123033D01*
X147462332Y-82438912D01*
X147585582Y-82736463D01*
X147764513Y-83004252D01*
X147992248Y-83231987D01*
X148260037Y-83410918D01*
X148557588Y-83534168D01*
X148873467Y-83597000D01*
X149195533Y-83597000D01*
X149511412Y-83534168D01*
X149808963Y-83410918D01*
X150076752Y-83231987D01*
X150304487Y-83004252D01*
X150483418Y-82736463D01*
X150606668Y-82438912D01*
X150669500Y-82123033D01*
X150669500Y-81800967D01*
X150606668Y-81485088D01*
X150483418Y-81187537D01*
X150304487Y-80919748D01*
X150076752Y-80692013D01*
X149808963Y-80513082D01*
X149511412Y-80389832D01*
X149195533Y-80327000D01*
X148873467Y-80327000D01*
X148557588Y-80389832D01*
X148260037Y-80513082D01*
X147992248Y-80692013D01*
X147764513Y-80919748D01*
X147585582Y-81187537D01*
X147462332Y-81485088D01*
X147399500Y-81800967D01*
X144205770Y-81800967D01*
X144203500Y-81273250D01*
X144044750Y-81114500D01*
X141795500Y-81114500D01*
X141541500Y-81114500D01*
X139292250Y-81114500D01*
X139133500Y-81273250D01*
X139130428Y-81987500D01*
X137005560Y-81987500D01*
X137052502Y-81899680D01*
X137088812Y-81779982D01*
X137101072Y-81655500D01*
X137098000Y-81366250D01*
X136939250Y-81207500D01*
X135890000Y-81207500D01*
X135890000Y-81227500D01*
X135636000Y-81227500D01*
X135636000Y-81207500D01*
X135616000Y-81207500D01*
X135616000Y-80953500D01*
X135636000Y-80953500D01*
X135636000Y-80029250D01*
X135890000Y-80029250D01*
X135890000Y-80953500D01*
X136939250Y-80953500D01*
X137098000Y-80794750D01*
X137101072Y-80505500D01*
X137088812Y-80381018D01*
X137052502Y-80261320D01*
X136993537Y-80151006D01*
X136914185Y-80054315D01*
X136832771Y-79987500D01*
X139130428Y-79987500D01*
X139133500Y-80701750D01*
X139292250Y-80860500D01*
X141541500Y-80860500D01*
X141541500Y-79511250D01*
X141795500Y-79511250D01*
X141795500Y-80860500D01*
X144044750Y-80860500D01*
X144203500Y-80701750D01*
X144206572Y-79987500D01*
X144194312Y-79863018D01*
X144158002Y-79743320D01*
X144099037Y-79633006D01*
X144019685Y-79536315D01*
X143922994Y-79456963D01*
X143812680Y-79397998D01*
X143692982Y-79361688D01*
X143568500Y-79349428D01*
X141954250Y-79352500D01*
X141795500Y-79511250D01*
X141541500Y-79511250D01*
X141382750Y-79352500D01*
X139768500Y-79349428D01*
X139644018Y-79361688D01*
X139524320Y-79397998D01*
X139414006Y-79456963D01*
X139317315Y-79536315D01*
X139237963Y-79633006D01*
X139178998Y-79743320D01*
X139142688Y-79863018D01*
X139130428Y-79987500D01*
X136832771Y-79987500D01*
X136817494Y-79974963D01*
X136707180Y-79915998D01*
X136587482Y-79879688D01*
X136463000Y-79867428D01*
X136048750Y-79870500D01*
X135890000Y-80029250D01*
X135636000Y-80029250D01*
X135477250Y-79870500D01*
X135063000Y-79867428D01*
X134938518Y-79879688D01*
X134818820Y-79915998D01*
X134708506Y-79974963D01*
X134611815Y-80054315D01*
X134532463Y-80151006D01*
X134500825Y-80210195D01*
X133978783Y-79688153D01*
X133954922Y-79659078D01*
X133902924Y-79616404D01*
X133786932Y-79399399D01*
X133607608Y-79180892D01*
X133389101Y-79001568D01*
X133139808Y-78868318D01*
X132869309Y-78786264D01*
X132658492Y-78765500D01*
X132517508Y-78765500D01*
X132306691Y-78786264D01*
X132036192Y-78868318D01*
X131786899Y-79001568D01*
X131568392Y-79180892D01*
X131389068Y-79399399D01*
X131255818Y-79648692D01*
X131173764Y-79919191D01*
X131146057Y-80200500D01*
X126406072Y-80200500D01*
X126406072Y-79400500D01*
X126393812Y-79276018D01*
X126357502Y-79156320D01*
X126298537Y-79046006D01*
X126219185Y-78949315D01*
X126122494Y-78869963D01*
X126012180Y-78810998D01*
X125892482Y-78774688D01*
X125768000Y-78762428D01*
X125626731Y-78762428D01*
X125604645Y-78721107D01*
X125533279Y-78634148D01*
X125509422Y-78605078D01*
X125480352Y-78581222D01*
X124990783Y-78091653D01*
X124966922Y-78062578D01*
X124850892Y-77967355D01*
X124718515Y-77896598D01*
X124574878Y-77853026D01*
X124462926Y-77842000D01*
X124462923Y-77842000D01*
X124425500Y-77838314D01*
X124388077Y-77842000D01*
X123710045Y-77842000D01*
X123679905Y-77785613D01*
X123569462Y-77651038D01*
X123434887Y-77540595D01*
X123281351Y-77458528D01*
X123114755Y-77407992D01*
X122941501Y-77390928D01*
X122041499Y-77390928D01*
X121868245Y-77407992D01*
X121701649Y-77458528D01*
X121548113Y-77540595D01*
X121413538Y-77651038D01*
X121303095Y-77785613D01*
X121221028Y-77939149D01*
X121170492Y-78105745D01*
X121153428Y-78278999D01*
X121153428Y-78465998D01*
X121127295Y-78460800D01*
X120934705Y-78460800D01*
X120745815Y-78498372D01*
X120567885Y-78572073D01*
X120506634Y-78613000D01*
X119315000Y-78613000D01*
X119315000Y-78633000D01*
X119061000Y-78633000D01*
X119061000Y-78613000D01*
X119041000Y-78613000D01*
X119041000Y-78359000D01*
X119061000Y-78359000D01*
X119061000Y-77709750D01*
X119315000Y-77709750D01*
X119315000Y-78359000D01*
X120639250Y-78359000D01*
X120798000Y-78200250D01*
X120801072Y-78186000D01*
X120788812Y-78061518D01*
X120752502Y-77941820D01*
X120693537Y-77831506D01*
X120614185Y-77734815D01*
X120517494Y-77655463D01*
X120407180Y-77596498D01*
X120287482Y-77560188D01*
X120163000Y-77547928D01*
X119473750Y-77551000D01*
X119315000Y-77709750D01*
X119061000Y-77709750D01*
X118902250Y-77551000D01*
X118213000Y-77547928D01*
X118088518Y-77560188D01*
X117968820Y-77596498D01*
X117858506Y-77655463D01*
X117761815Y-77734815D01*
X117682463Y-77831506D01*
X117623498Y-77941820D01*
X117587188Y-78061518D01*
X117576239Y-78172692D01*
X117442685Y-78117372D01*
X117253795Y-78079800D01*
X117061205Y-78079800D01*
X116872315Y-78117372D01*
X116694385Y-78191073D01*
X116534252Y-78298071D01*
X116398071Y-78434252D01*
X116396011Y-78437334D01*
X116320248Y-78361571D01*
X116160115Y-78254573D01*
X115982185Y-78180872D01*
X115826091Y-78149823D01*
X115791084Y-78034418D01*
X115718258Y-77898171D01*
X115620251Y-77778749D01*
X115500829Y-77680742D01*
X115364582Y-77607916D01*
X115216745Y-77563071D01*
X115063000Y-77547928D01*
X114545000Y-77547928D01*
X114545000Y-77228045D01*
X114601387Y-77197905D01*
X114735962Y-77087462D01*
X114741342Y-77080906D01*
X114806815Y-77160685D01*
X114903506Y-77240037D01*
X115013820Y-77299002D01*
X115133518Y-77335312D01*
X115258000Y-77347572D01*
X115547250Y-77344500D01*
X115706000Y-77185750D01*
X115706000Y-76136500D01*
X115960000Y-76136500D01*
X115960000Y-77185750D01*
X116118750Y-77344500D01*
X116408000Y-77347572D01*
X116532482Y-77335312D01*
X116652180Y-77299002D01*
X116762494Y-77240037D01*
X116859185Y-77160685D01*
X116938537Y-77063994D01*
X116997502Y-76953680D01*
X117033812Y-76833982D01*
X117046072Y-76709500D01*
X117043000Y-76295250D01*
X116884250Y-76136500D01*
X115960000Y-76136500D01*
X115706000Y-76136500D01*
X115686000Y-76136500D01*
X115686000Y-75882500D01*
X115706000Y-75882500D01*
X115706000Y-74833250D01*
X115960000Y-74833250D01*
X115960000Y-75882500D01*
X116884250Y-75882500D01*
X117043000Y-75723750D01*
X117044141Y-75569844D01*
X129877500Y-75569844D01*
X129877500Y-75941156D01*
X129949939Y-76305334D01*
X130092034Y-76648382D01*
X130298325Y-76957118D01*
X130560882Y-77219675D01*
X130869618Y-77425966D01*
X131212666Y-77568061D01*
X131576844Y-77640500D01*
X131948156Y-77640500D01*
X132312334Y-77568061D01*
X132655382Y-77425966D01*
X132964118Y-77219675D01*
X133226675Y-76957118D01*
X133432966Y-76648382D01*
X133575061Y-76305334D01*
X133643353Y-75962000D01*
X147396428Y-75962000D01*
X147396428Y-77962000D01*
X147408688Y-78086482D01*
X147444998Y-78206180D01*
X147503963Y-78316494D01*
X147583315Y-78413185D01*
X147680006Y-78492537D01*
X147790320Y-78551502D01*
X147910018Y-78587812D01*
X148034500Y-78600072D01*
X150034500Y-78600072D01*
X150158982Y-78587812D01*
X150278680Y-78551502D01*
X150388994Y-78492537D01*
X150485685Y-78413185D01*
X150565037Y-78316494D01*
X150624002Y-78206180D01*
X150660312Y-78086482D01*
X150672572Y-77962000D01*
X150672572Y-75962000D01*
X150660312Y-75837518D01*
X150624002Y-75717820D01*
X150565037Y-75607506D01*
X150485685Y-75510815D01*
X150388994Y-75431463D01*
X150278680Y-75372498D01*
X150158982Y-75336188D01*
X150034500Y-75323928D01*
X148034500Y-75323928D01*
X147910018Y-75336188D01*
X147790320Y-75372498D01*
X147680006Y-75431463D01*
X147583315Y-75510815D01*
X147503963Y-75607506D01*
X147444998Y-75717820D01*
X147408688Y-75837518D01*
X147396428Y-75962000D01*
X133643353Y-75962000D01*
X133647500Y-75941156D01*
X133647500Y-75569844D01*
X133575061Y-75205666D01*
X133432966Y-74862618D01*
X133226675Y-74553882D01*
X132964118Y-74291325D01*
X132655382Y-74085034D01*
X132312334Y-73942939D01*
X131948156Y-73870500D01*
X131576844Y-73870500D01*
X131212666Y-73942939D01*
X130869618Y-74085034D01*
X130560882Y-74291325D01*
X130298325Y-74553882D01*
X130092034Y-74862618D01*
X129949939Y-75205666D01*
X129877500Y-75569844D01*
X117044141Y-75569844D01*
X117046072Y-75309500D01*
X117033812Y-75185018D01*
X116997502Y-75065320D01*
X116938537Y-74955006D01*
X116859185Y-74858315D01*
X116762494Y-74778963D01*
X116652180Y-74719998D01*
X116532482Y-74683688D01*
X116408000Y-74671428D01*
X116118750Y-74674500D01*
X115960000Y-74833250D01*
X115706000Y-74833250D01*
X115547250Y-74674500D01*
X115258000Y-74671428D01*
X115133518Y-74683688D01*
X115013820Y-74719998D01*
X114903506Y-74778963D01*
X114806815Y-74858315D01*
X114741342Y-74938094D01*
X114735962Y-74931538D01*
X114601387Y-74821095D01*
X114447851Y-74739028D01*
X114281255Y-74688492D01*
X114108001Y-74671428D01*
X113457999Y-74671428D01*
X113284745Y-74688492D01*
X113118149Y-74739028D01*
X112964613Y-74821095D01*
X112839500Y-74923773D01*
X112714387Y-74821095D01*
X112560851Y-74739028D01*
X112474037Y-74712693D01*
X112461279Y-74697148D01*
X112437422Y-74668078D01*
X112408351Y-74644220D01*
X111927783Y-74163653D01*
X111903922Y-74134578D01*
X111787892Y-74039355D01*
X111655515Y-73968598D01*
X111511878Y-73925026D01*
X111399926Y-73914000D01*
X111399923Y-73914000D01*
X111362500Y-73910314D01*
X111325077Y-73914000D01*
X109193915Y-73914000D01*
X109156499Y-73910315D01*
X109119083Y-73914000D01*
X109119074Y-73914000D01*
X109007122Y-73925026D01*
X108863485Y-73968598D01*
X108731108Y-74039355D01*
X108615078Y-74134578D01*
X108591216Y-74163654D01*
X108136154Y-74618716D01*
X108107078Y-74642578D01*
X108069398Y-74688492D01*
X108011855Y-74758608D01*
X107976332Y-74825068D01*
X107941098Y-74890986D01*
X107897526Y-75034623D01*
X107895015Y-75060121D01*
X107882814Y-75184000D01*
X107886500Y-75221424D01*
X107886501Y-76670567D01*
X107882814Y-76708000D01*
X107897527Y-76857378D01*
X107941099Y-77001015D01*
X108011855Y-77133392D01*
X108064800Y-77197905D01*
X108107079Y-77249422D01*
X108136149Y-77273279D01*
X109167834Y-78304965D01*
X108866256Y-78180047D01*
X108453779Y-78098000D01*
X108033221Y-78098000D01*
X107620744Y-78180047D01*
X107232198Y-78340988D01*
X106882517Y-78574637D01*
X106585137Y-78872017D01*
X106351488Y-79221698D01*
X106190547Y-79610244D01*
X106108500Y-80022721D01*
X106108500Y-80443279D01*
X106190547Y-80855756D01*
X106351488Y-81244302D01*
X106585137Y-81593983D01*
X106882517Y-81891363D01*
X107232198Y-82125012D01*
X107620744Y-82285953D01*
X108033221Y-82368000D01*
X108453779Y-82368000D01*
X108866256Y-82285953D01*
X109254802Y-82125012D01*
X109604483Y-81891363D01*
X109901863Y-81593983D01*
X110135512Y-81244302D01*
X110296453Y-80855756D01*
X110378500Y-80443279D01*
X110378500Y-80022721D01*
X110296453Y-79610244D01*
X110171535Y-79308666D01*
X110490000Y-79627131D01*
X110490001Y-83020567D01*
X110486314Y-83058000D01*
X110501027Y-83207378D01*
X110544599Y-83351015D01*
X110615355Y-83483392D01*
X110674855Y-83555892D01*
X110710579Y-83599422D01*
X110739649Y-83623279D01*
X112147220Y-85030851D01*
X112171078Y-85059922D01*
X112200148Y-85083779D01*
X112287107Y-85155145D01*
X112357864Y-85192965D01*
X112419485Y-85225902D01*
X112563122Y-85269474D01*
X112675074Y-85280500D01*
X112675077Y-85280500D01*
X112712500Y-85284186D01*
X112749923Y-85280500D01*
X113845370Y-85280500D01*
X114552797Y-85987928D01*
X114219500Y-85987928D01*
X114095018Y-86000188D01*
X113975320Y-86036498D01*
X113865006Y-86095463D01*
X113768315Y-86174815D01*
X113688963Y-86271506D01*
X113629998Y-86381820D01*
X113593688Y-86501518D01*
X113581428Y-86626000D01*
X113581428Y-87281837D01*
X113448263Y-87415002D01*
X113414341Y-87442841D01*
X113303247Y-87578210D01*
X113220697Y-87732650D01*
X113205184Y-87783791D01*
X113182214Y-87859515D01*
X113169864Y-87900227D01*
X113157000Y-88030834D01*
X113157000Y-88030840D01*
X113152700Y-88074500D01*
X113157000Y-88118160D01*
X113157000Y-88980970D01*
X113081791Y-88919247D01*
X112927351Y-88836697D01*
X112759774Y-88785864D01*
X112629167Y-88773000D01*
X112629160Y-88773000D01*
X112585500Y-88768700D01*
X112541840Y-88773000D01*
X99384160Y-88773000D01*
X99340500Y-88768700D01*
X99296840Y-88773000D01*
X99296833Y-88773000D01*
X99182825Y-88784229D01*
X99166225Y-88785864D01*
X99114627Y-88801516D01*
X98998649Y-88836697D01*
X98844209Y-88919247D01*
X98805962Y-88950636D01*
X98771582Y-88978851D01*
X98708841Y-89030341D01*
X98681006Y-89064258D01*
X97034057Y-90711207D01*
X96886382Y-90612534D01*
X96543334Y-90470439D01*
X96179156Y-90398000D01*
X95807844Y-90398000D01*
X95443666Y-90470439D01*
X95100618Y-90612534D01*
X94791882Y-90818825D01*
X94529325Y-91081382D01*
X94323034Y-91390118D01*
X94180939Y-91733166D01*
X94108500Y-92097344D01*
X91973000Y-92097344D01*
X91973000Y-86767542D01*
X91990547Y-86855756D01*
X92151488Y-87244302D01*
X92385137Y-87593983D01*
X92682517Y-87891363D01*
X93032198Y-88125012D01*
X93420744Y-88285953D01*
X93833221Y-88368000D01*
X94253779Y-88368000D01*
X94666256Y-88285953D01*
X95054802Y-88125012D01*
X95404483Y-87891363D01*
X95701863Y-87593983D01*
X95935512Y-87244302D01*
X96096453Y-86855756D01*
X96178500Y-86443279D01*
X96178500Y-86022721D01*
X96096453Y-85610244D01*
X95935512Y-85221698D01*
X95701863Y-84872017D01*
X95404483Y-84574637D01*
X95054802Y-84340988D01*
X94666256Y-84180047D01*
X94253779Y-84098000D01*
X93833221Y-84098000D01*
X93420744Y-84180047D01*
X93032198Y-84340988D01*
X92682517Y-84574637D01*
X92385137Y-84872017D01*
X92151488Y-85221698D01*
X91990547Y-85610244D01*
X91973000Y-85698458D01*
X91973000Y-81596605D01*
X94859500Y-81596605D01*
X94985414Y-81886577D01*
X95317626Y-82052433D01*
X95675812Y-82150290D01*
X96046206Y-82176389D01*
X96414575Y-82129725D01*
X96766762Y-82012094D01*
X97001586Y-81886577D01*
X97127500Y-81596605D01*
X95993500Y-80462605D01*
X94859500Y-81596605D01*
X91973000Y-81596605D01*
X91973000Y-80335706D01*
X94100111Y-80335706D01*
X94146775Y-80704075D01*
X94264406Y-81056262D01*
X94389923Y-81291086D01*
X94679895Y-81417000D01*
X95813895Y-80283000D01*
X96173105Y-80283000D01*
X97307105Y-81417000D01*
X97597077Y-81291086D01*
X97762933Y-80958874D01*
X97860790Y-80600688D01*
X97886889Y-80230294D01*
X97840225Y-79861925D01*
X97722594Y-79509738D01*
X97597077Y-79274914D01*
X97307105Y-79149000D01*
X96173105Y-80283000D01*
X95813895Y-80283000D01*
X94679895Y-79149000D01*
X94389923Y-79274914D01*
X94224067Y-79607126D01*
X94126210Y-79965312D01*
X94100111Y-80335706D01*
X91973000Y-80335706D01*
X91973000Y-78969395D01*
X94859500Y-78969395D01*
X95993500Y-80103395D01*
X97127500Y-78969395D01*
X97001586Y-78679423D01*
X96669374Y-78513567D01*
X96311188Y-78415710D01*
X95940794Y-78389611D01*
X95572425Y-78436275D01*
X95220238Y-78553906D01*
X94985414Y-78679423D01*
X94859500Y-78969395D01*
X91973000Y-78969395D01*
X91973000Y-70865919D01*
X93602000Y-70865919D01*
X93602000Y-71247081D01*
X93676361Y-71620919D01*
X93822225Y-71973066D01*
X94033987Y-72289991D01*
X94303509Y-72559513D01*
X94620434Y-72771275D01*
X94972581Y-72917139D01*
X95346419Y-72991500D01*
X95727581Y-72991500D01*
X96101419Y-72917139D01*
X96453566Y-72771275D01*
X96770491Y-72559513D01*
X97040013Y-72289991D01*
X97251775Y-71973066D01*
X97397639Y-71620919D01*
X97472000Y-71247081D01*
X97472000Y-70865919D01*
X98602000Y-70865919D01*
X98602000Y-71247081D01*
X98676361Y-71620919D01*
X98822225Y-71973066D01*
X99033987Y-72289991D01*
X99303509Y-72559513D01*
X99620434Y-72771275D01*
X99972581Y-72917139D01*
X100346419Y-72991500D01*
X100727581Y-72991500D01*
X101101419Y-72917139D01*
X101453566Y-72771275D01*
X101770491Y-72559513D01*
X102040013Y-72289991D01*
X102251775Y-71973066D01*
X102397639Y-71620919D01*
X102472000Y-71247081D01*
X102472000Y-70865919D01*
X102397639Y-70492081D01*
X102251775Y-70139934D01*
X102040013Y-69823009D01*
X101973504Y-69756500D01*
X103598928Y-69756500D01*
X103598928Y-72356500D01*
X103611188Y-72480982D01*
X103647498Y-72600680D01*
X103706463Y-72710994D01*
X103785815Y-72807685D01*
X103882506Y-72887037D01*
X103992820Y-72946002D01*
X104112518Y-72982312D01*
X104237000Y-72994572D01*
X106837000Y-72994572D01*
X106961482Y-72982312D01*
X107081180Y-72946002D01*
X107191494Y-72887037D01*
X107288185Y-72807685D01*
X107367537Y-72710994D01*
X107426502Y-72600680D01*
X107462812Y-72480982D01*
X107475072Y-72356500D01*
X107475072Y-70007705D01*
X107861300Y-70007705D01*
X107861300Y-70200295D01*
X107898872Y-70389185D01*
X107972573Y-70567115D01*
X108079571Y-70727248D01*
X108215752Y-70863429D01*
X108375885Y-70970427D01*
X108553815Y-71044128D01*
X108742705Y-71081700D01*
X108935295Y-71081700D01*
X109061158Y-71056665D01*
X109027613Y-71074595D01*
X108893038Y-71185038D01*
X108782595Y-71319613D01*
X108700528Y-71473149D01*
X108649992Y-71639745D01*
X108632928Y-71812999D01*
X108632928Y-72713001D01*
X108649992Y-72886255D01*
X108700528Y-73052851D01*
X108782595Y-73206387D01*
X108893038Y-73340962D01*
X109027613Y-73451405D01*
X109181149Y-73533472D01*
X109347745Y-73584008D01*
X109520999Y-73601072D01*
X110171001Y-73601072D01*
X110344255Y-73584008D01*
X110510851Y-73533472D01*
X110664387Y-73451405D01*
X110798962Y-73340962D01*
X110871000Y-73253184D01*
X110943038Y-73340962D01*
X111077613Y-73451405D01*
X111231149Y-73533472D01*
X111397745Y-73584008D01*
X111570999Y-73601072D01*
X112221001Y-73601072D01*
X112394255Y-73584008D01*
X112560851Y-73533472D01*
X112714387Y-73451405D01*
X112848962Y-73340962D01*
X112876943Y-73306867D01*
X112957038Y-73404462D01*
X113091613Y-73514905D01*
X113245149Y-73596972D01*
X113411745Y-73647508D01*
X113584999Y-73664572D01*
X114235001Y-73664572D01*
X114408255Y-73647508D01*
X114574851Y-73596972D01*
X114728387Y-73514905D01*
X114862962Y-73404462D01*
X114935000Y-73316684D01*
X115007038Y-73404462D01*
X115141613Y-73514905D01*
X115295149Y-73596972D01*
X115461745Y-73647508D01*
X115634999Y-73664572D01*
X116285001Y-73664572D01*
X116458255Y-73647508D01*
X116624851Y-73596972D01*
X116778387Y-73514905D01*
X116912962Y-73404462D01*
X117023405Y-73269887D01*
X117105472Y-73116351D01*
X117113920Y-73088500D01*
X118013428Y-73088500D01*
X118013428Y-73245500D01*
X118025688Y-73369982D01*
X118061998Y-73489680D01*
X118120963Y-73599994D01*
X118200315Y-73696685D01*
X118297006Y-73776037D01*
X118407320Y-73835002D01*
X118527018Y-73871312D01*
X118651500Y-73883572D01*
X121251500Y-73883572D01*
X121375982Y-73871312D01*
X121495680Y-73835002D01*
X121605994Y-73776037D01*
X121702685Y-73696685D01*
X121782037Y-73599994D01*
X121841002Y-73489680D01*
X121877312Y-73369982D01*
X121889572Y-73245500D01*
X121889572Y-71754919D01*
X123016500Y-71754919D01*
X123016500Y-72136081D01*
X123090861Y-72509919D01*
X123236725Y-72862066D01*
X123448487Y-73178991D01*
X123718009Y-73448513D01*
X124034934Y-73660275D01*
X124387081Y-73806139D01*
X124760919Y-73880500D01*
X125142081Y-73880500D01*
X125515919Y-73806139D01*
X125868066Y-73660275D01*
X126184991Y-73448513D01*
X126454513Y-73178991D01*
X126666275Y-72862066D01*
X126812139Y-72509919D01*
X126886217Y-72137500D01*
X129460928Y-72137500D01*
X129473188Y-72261982D01*
X129509498Y-72381680D01*
X129568463Y-72491994D01*
X129647815Y-72588685D01*
X129744506Y-72668037D01*
X129854820Y-72727002D01*
X129974518Y-72763312D01*
X130099000Y-72775572D01*
X130388250Y-72772500D01*
X130547000Y-72613750D01*
X130547000Y-71564500D01*
X129622750Y-71564500D01*
X129464000Y-71723250D01*
X129460928Y-72137500D01*
X126886217Y-72137500D01*
X126886500Y-72136081D01*
X126886500Y-71754919D01*
X126812139Y-71381081D01*
X126666275Y-71028934D01*
X126454513Y-70712009D01*
X126184991Y-70442487D01*
X126012738Y-70327392D01*
X126934631Y-69405500D01*
X128253428Y-69405500D01*
X128253428Y-69668500D01*
X128270492Y-69841754D01*
X128321028Y-70008350D01*
X128403095Y-70161886D01*
X128513538Y-70296462D01*
X128648114Y-70406905D01*
X128801650Y-70488972D01*
X128968246Y-70539508D01*
X129141500Y-70556572D01*
X129490311Y-70556572D01*
X129473188Y-70613018D01*
X129460928Y-70737500D01*
X129464000Y-71151750D01*
X129622750Y-71310500D01*
X130547000Y-71310500D01*
X130547000Y-71290500D01*
X130801000Y-71290500D01*
X130801000Y-71310500D01*
X130821000Y-71310500D01*
X130821000Y-71564500D01*
X130801000Y-71564500D01*
X130801000Y-72613750D01*
X130959750Y-72772500D01*
X131249000Y-72775572D01*
X131373482Y-72763312D01*
X131493180Y-72727002D01*
X131603494Y-72668037D01*
X131700185Y-72588685D01*
X131765658Y-72508906D01*
X131771038Y-72515462D01*
X131905613Y-72625905D01*
X132059149Y-72707972D01*
X132225745Y-72758508D01*
X132398999Y-72775572D01*
X133049001Y-72775572D01*
X133222255Y-72758508D01*
X133388851Y-72707972D01*
X133542387Y-72625905D01*
X133676962Y-72515462D01*
X133787405Y-72380887D01*
X133869472Y-72227351D01*
X133920008Y-72060755D01*
X133937072Y-71887501D01*
X133937072Y-71302058D01*
X134682559Y-70556572D01*
X134891500Y-70556572D01*
X135064754Y-70539508D01*
X135231350Y-70488972D01*
X135384886Y-70406905D01*
X135458490Y-70346500D01*
X136865428Y-70346500D01*
X136865428Y-74306500D01*
X136877688Y-74430982D01*
X136913998Y-74550680D01*
X136972963Y-74660994D01*
X137052315Y-74757685D01*
X137149006Y-74837037D01*
X137259320Y-74896002D01*
X137379018Y-74932312D01*
X137503500Y-74944572D01*
X139483500Y-74944572D01*
X139607982Y-74932312D01*
X139727680Y-74896002D01*
X139837994Y-74837037D01*
X139934685Y-74757685D01*
X140014037Y-74660994D01*
X140073002Y-74550680D01*
X140109312Y-74430982D01*
X140121572Y-74306500D01*
X140121572Y-71256677D01*
X141868500Y-71256677D01*
X141868501Y-73396324D01*
X141892014Y-73635056D01*
X141984933Y-73941369D01*
X142135826Y-74223670D01*
X142338893Y-74471108D01*
X142586331Y-74674175D01*
X142868632Y-74825068D01*
X143174945Y-74917987D01*
X143493500Y-74949362D01*
X143812056Y-74917987D01*
X144118369Y-74825068D01*
X144400670Y-74674175D01*
X144648108Y-74471108D01*
X144851175Y-74223670D01*
X145002068Y-73941369D01*
X145094987Y-73635056D01*
X145118500Y-73396324D01*
X145118500Y-71256676D01*
X145094987Y-71017944D01*
X145002068Y-70711631D01*
X144851175Y-70429330D01*
X144648108Y-70181892D01*
X144400669Y-69978825D01*
X144118368Y-69827932D01*
X143812055Y-69735013D01*
X143493500Y-69703638D01*
X143174944Y-69735013D01*
X142868631Y-69827932D01*
X142586330Y-69978825D01*
X142338892Y-70181892D01*
X142135825Y-70429331D01*
X141984932Y-70711632D01*
X141892013Y-71017945D01*
X141868500Y-71256677D01*
X140121572Y-71256677D01*
X140121572Y-70346500D01*
X140109312Y-70222018D01*
X140073002Y-70102320D01*
X140014037Y-69992006D01*
X139934685Y-69895315D01*
X139837994Y-69815963D01*
X139727680Y-69756998D01*
X139607982Y-69720688D01*
X139483500Y-69708428D01*
X137503500Y-69708428D01*
X137379018Y-69720688D01*
X137259320Y-69756998D01*
X137149006Y-69815963D01*
X137052315Y-69895315D01*
X136972963Y-69992006D01*
X136913998Y-70102320D01*
X136877688Y-70222018D01*
X136865428Y-70346500D01*
X135458490Y-70346500D01*
X135519462Y-70296462D01*
X135629905Y-70161886D01*
X135711972Y-70008350D01*
X135762508Y-69841754D01*
X135779572Y-69668500D01*
X135779572Y-67618500D01*
X135762508Y-67445246D01*
X135711972Y-67278650D01*
X135629905Y-67125114D01*
X135519462Y-66990538D01*
X135384886Y-66880095D01*
X135231350Y-66798028D01*
X135064754Y-66747492D01*
X134891500Y-66730428D01*
X133691500Y-66730428D01*
X133518246Y-66747492D01*
X133351650Y-66798028D01*
X133198114Y-66880095D01*
X133063538Y-66990538D01*
X132953095Y-67125114D01*
X132871028Y-67278650D01*
X132820492Y-67445246D01*
X132803428Y-67618500D01*
X132803428Y-69668500D01*
X132820492Y-69841754D01*
X132871028Y-70008350D01*
X132919710Y-70099428D01*
X132398999Y-70099428D01*
X132225745Y-70116492D01*
X132059149Y-70167028D01*
X131905613Y-70249095D01*
X131771038Y-70359538D01*
X131765658Y-70366094D01*
X131700185Y-70286315D01*
X131603494Y-70206963D01*
X131493180Y-70147998D01*
X131373482Y-70111688D01*
X131249000Y-70099428D01*
X131112515Y-70100878D01*
X131161972Y-70008350D01*
X131212508Y-69841754D01*
X131229572Y-69668500D01*
X131229572Y-67618500D01*
X131212508Y-67445246D01*
X131161972Y-67278650D01*
X131079905Y-67125114D01*
X130969462Y-66990538D01*
X130834886Y-66880095D01*
X130681350Y-66798028D01*
X130514754Y-66747492D01*
X130341500Y-66730428D01*
X129141500Y-66730428D01*
X128968246Y-66747492D01*
X128801650Y-66798028D01*
X128648114Y-66880095D01*
X128513538Y-66990538D01*
X128403095Y-67125114D01*
X128321028Y-67278650D01*
X128270492Y-67445246D01*
X128253428Y-67618500D01*
X128253428Y-67881500D01*
X126656422Y-67881500D01*
X126618999Y-67877814D01*
X126581576Y-67881500D01*
X126581574Y-67881500D01*
X126469622Y-67892526D01*
X126325985Y-67936098D01*
X126193608Y-68006855D01*
X126077578Y-68102078D01*
X126053721Y-68131148D01*
X124439149Y-69745721D01*
X124410079Y-69769578D01*
X124386222Y-69798648D01*
X124386221Y-69798649D01*
X124314855Y-69885608D01*
X124244099Y-70017985D01*
X124200527Y-70161622D01*
X124200474Y-70162156D01*
X124034934Y-70230725D01*
X123718009Y-70442487D01*
X123448487Y-70712009D01*
X123236725Y-71028934D01*
X123090861Y-71381081D01*
X123016500Y-71754919D01*
X121889572Y-71754919D01*
X121889572Y-70645500D01*
X121877312Y-70521018D01*
X121841002Y-70401320D01*
X121782037Y-70291006D01*
X121702685Y-70194315D01*
X121605994Y-70114963D01*
X121495680Y-70055998D01*
X121375982Y-70019688D01*
X121251500Y-70007428D01*
X118651500Y-70007428D01*
X118527018Y-70019688D01*
X118407320Y-70055998D01*
X118297006Y-70114963D01*
X118200315Y-70194315D01*
X118120963Y-70291006D01*
X118061998Y-70401320D01*
X118025688Y-70521018D01*
X118013428Y-70645500D01*
X118013428Y-71564500D01*
X117113920Y-71564500D01*
X117105472Y-71536649D01*
X117023405Y-71383113D01*
X116912962Y-71248538D01*
X116778387Y-71138095D01*
X116624851Y-71056028D01*
X116458255Y-71005492D01*
X116285001Y-70988428D01*
X115634999Y-70988428D01*
X115461745Y-71005492D01*
X115295149Y-71056028D01*
X115268895Y-71070061D01*
X115277700Y-71025795D01*
X115277700Y-70833205D01*
X115240128Y-70644315D01*
X115203784Y-70556572D01*
X115714500Y-70556572D01*
X115887754Y-70539508D01*
X116054350Y-70488972D01*
X116207886Y-70406905D01*
X116342462Y-70296462D01*
X116452905Y-70161886D01*
X116534972Y-70008350D01*
X116585508Y-69841754D01*
X116602572Y-69668500D01*
X116602572Y-67618500D01*
X116585508Y-67445246D01*
X116534972Y-67278650D01*
X116452905Y-67125114D01*
X116342462Y-66990538D01*
X116207886Y-66880095D01*
X116054350Y-66798028D01*
X115887754Y-66747492D01*
X115714500Y-66730428D01*
X114514500Y-66730428D01*
X114341246Y-66747492D01*
X114174650Y-66798028D01*
X114021114Y-66880095D01*
X113886538Y-66990538D01*
X113776095Y-67125114D01*
X113694028Y-67278650D01*
X113643492Y-67445246D01*
X113626428Y-67618500D01*
X113626428Y-69053941D01*
X112007025Y-70673345D01*
X111977950Y-70697206D01*
X111882727Y-70813236D01*
X111823026Y-70924928D01*
X111570999Y-70924928D01*
X111397745Y-70941992D01*
X111231149Y-70992528D01*
X111143542Y-71039355D01*
X111176128Y-70960685D01*
X111213700Y-70771795D01*
X111213700Y-70579205D01*
X111208339Y-70552254D01*
X111337754Y-70539508D01*
X111504350Y-70488972D01*
X111657886Y-70406905D01*
X111792462Y-70296462D01*
X111902905Y-70161886D01*
X111984972Y-70008350D01*
X112035508Y-69841754D01*
X112052572Y-69668500D01*
X112052572Y-67618500D01*
X112035508Y-67445246D01*
X111984972Y-67278650D01*
X111902905Y-67125114D01*
X111792462Y-66990538D01*
X111657886Y-66880095D01*
X111504350Y-66798028D01*
X111337754Y-66747492D01*
X111164500Y-66730428D01*
X109964500Y-66730428D01*
X109791246Y-66747492D01*
X109624650Y-66798028D01*
X109471114Y-66880095D01*
X109336538Y-66990538D01*
X109226095Y-67125114D01*
X109144028Y-67278650D01*
X109093492Y-67445246D01*
X109076428Y-67618500D01*
X109076428Y-68153941D01*
X108326653Y-68903716D01*
X108297578Y-68927578D01*
X108241983Y-68995322D01*
X108202355Y-69043608D01*
X108188841Y-69068892D01*
X108131598Y-69175986D01*
X108088026Y-69319623D01*
X108079568Y-69405500D01*
X108073314Y-69469000D01*
X108075127Y-69487403D01*
X107972573Y-69640885D01*
X107898872Y-69818815D01*
X107861300Y-70007705D01*
X107475072Y-70007705D01*
X107475072Y-69756500D01*
X107462812Y-69632018D01*
X107426502Y-69512320D01*
X107367537Y-69402006D01*
X107288185Y-69305315D01*
X107191494Y-69225963D01*
X107081180Y-69166998D01*
X106961482Y-69130688D01*
X106837000Y-69118428D01*
X104237000Y-69118428D01*
X104112518Y-69130688D01*
X103992820Y-69166998D01*
X103882506Y-69225963D01*
X103785815Y-69305315D01*
X103706463Y-69402006D01*
X103647498Y-69512320D01*
X103611188Y-69632018D01*
X103598928Y-69756500D01*
X101973504Y-69756500D01*
X101770491Y-69553487D01*
X101453566Y-69341725D01*
X101101419Y-69195861D01*
X100727581Y-69121500D01*
X100346419Y-69121500D01*
X99972581Y-69195861D01*
X99620434Y-69341725D01*
X99303509Y-69553487D01*
X99033987Y-69823009D01*
X98822225Y-70139934D01*
X98676361Y-70492081D01*
X98602000Y-70865919D01*
X97472000Y-70865919D01*
X97397639Y-70492081D01*
X97251775Y-70139934D01*
X97040013Y-69823009D01*
X96770491Y-69553487D01*
X96453566Y-69341725D01*
X96101419Y-69195861D01*
X95727581Y-69121500D01*
X95346419Y-69121500D01*
X94972581Y-69195861D01*
X94620434Y-69341725D01*
X94303509Y-69553487D01*
X94033987Y-69823009D01*
X93822225Y-70139934D01*
X93676361Y-70492081D01*
X93602000Y-70865919D01*
X91973000Y-70865919D01*
X91973000Y-66446000D01*
X151613000Y-66446000D01*
X151613001Y-94971000D01*
G36*
X123976485Y-92147402D02*
G01*
X124120122Y-92190974D01*
X124232074Y-92202000D01*
X124232076Y-92202000D01*
X124269499Y-92205686D01*
X124294668Y-92203207D01*
X124343463Y-92294494D01*
X124422815Y-92391185D01*
X124482296Y-92440000D01*
X124422815Y-92488815D01*
X124343463Y-92585506D01*
X124284498Y-92695820D01*
X124248188Y-92815518D01*
X124235928Y-92940000D01*
X124235928Y-93500441D01*
X123920295Y-93816075D01*
X123919000Y-93725750D01*
X123760250Y-93567000D01*
X122121000Y-93567000D01*
X122121000Y-93587000D01*
X121867000Y-93587000D01*
X121867000Y-93567000D01*
X121847000Y-93567000D01*
X121847000Y-93313000D01*
X121867000Y-93313000D01*
X121867000Y-93293000D01*
X122121000Y-93293000D01*
X122121000Y-93313000D01*
X123760250Y-93313000D01*
X123919000Y-93154250D01*
X123922072Y-92940000D01*
X123909812Y-92815518D01*
X123873502Y-92695820D01*
X123814537Y-92585506D01*
X123735185Y-92488815D01*
X123675704Y-92440000D01*
X123735185Y-92391185D01*
X123814537Y-92294494D01*
X123873502Y-92184180D01*
X123897470Y-92105168D01*
X123976485Y-92147402D01*
X123976485Y-92147402D01*
G37*
X123976485Y-92147402D02*
X124120122Y-92190974D01*
X124232074Y-92202000D01*
X124232076Y-92202000D01*
X124269499Y-92205686D01*
X124294668Y-92203207D01*
X124343463Y-92294494D01*
X124422815Y-92391185D01*
X124482296Y-92440000D01*
X124422815Y-92488815D01*
X124343463Y-92585506D01*
X124284498Y-92695820D01*
X124248188Y-92815518D01*
X124235928Y-92940000D01*
X124235928Y-93500441D01*
X123920295Y-93816075D01*
X123919000Y-93725750D01*
X123760250Y-93567000D01*
X122121000Y-93567000D01*
X122121000Y-93587000D01*
X121867000Y-93587000D01*
X121867000Y-93567000D01*
X121847000Y-93567000D01*
X121847000Y-93313000D01*
X121867000Y-93313000D01*
X121867000Y-93293000D01*
X122121000Y-93293000D01*
X122121000Y-93313000D01*
X123760250Y-93313000D01*
X123919000Y-93154250D01*
X123922072Y-92940000D01*
X123909812Y-92815518D01*
X123873502Y-92695820D01*
X123814537Y-92585506D01*
X123735185Y-92488815D01*
X123675704Y-92440000D01*
X123735185Y-92391185D01*
X123814537Y-92294494D01*
X123873502Y-92184180D01*
X123897470Y-92105168D01*
X123976485Y-92147402D01*
G36*
X120065928Y-91379558D02*
G01*
X120065928Y-91940000D01*
X120078188Y-92064482D01*
X120114498Y-92184180D01*
X120173463Y-92294494D01*
X120252815Y-92391185D01*
X120312296Y-92440000D01*
X120252815Y-92488815D01*
X120173463Y-92585506D01*
X120114498Y-92695820D01*
X120078188Y-92815518D01*
X120072656Y-92871686D01*
X119789798Y-92588828D01*
X119789798Y-92391057D01*
X119794422Y-92387262D01*
X119889645Y-92271232D01*
X119960402Y-92138855D01*
X120003974Y-91995218D01*
X120015000Y-91883266D01*
X120015000Y-91883263D01*
X120018686Y-91845840D01*
X120015000Y-91808417D01*
X120015000Y-91328630D01*
X120065928Y-91379558D01*
X120065928Y-91379558D01*
G37*
X120065928Y-91379558D02*
X120065928Y-91940000D01*
X120078188Y-92064482D01*
X120114498Y-92184180D01*
X120173463Y-92294494D01*
X120252815Y-92391185D01*
X120312296Y-92440000D01*
X120252815Y-92488815D01*
X120173463Y-92585506D01*
X120114498Y-92695820D01*
X120078188Y-92815518D01*
X120072656Y-92871686D01*
X119789798Y-92588828D01*
X119789798Y-92391057D01*
X119794422Y-92387262D01*
X119889645Y-92271232D01*
X119960402Y-92138855D01*
X120003974Y-91995218D01*
X120015000Y-91883266D01*
X120015000Y-91883263D01*
X120018686Y-91845840D01*
X120015000Y-91808417D01*
X120015000Y-91328630D01*
X120065928Y-91379558D01*
M02*
