M48
; DRILL file {KiCad (5.1.2)-1} date 04/07/2019 14:52:41
; FORMAT={-:-/ absolute / inch / decimal}
; #@! TF.CreationDate,2019-07-04T14:52:41+03:00
; #@! TF.GenerationSoftware,Kicad,Pcbnew,(5.1.2)-1
; #@! TF.FileFunction,Plated,1,2,PTH
FMAT,2
INCH
T1C0.0130
T2C0.0295
T3C0.0315
T4C0.0394
T5C0.0512
T6C0.0520
%
G90
G05
T1
X4.285Y-2.76
X4.34Y-2.7825
X4.5Y-2.7925
X4.555Y-3.115
X4.6125Y-3.1125
X4.635Y-3.5925
X4.715Y-3.64
X4.76Y-3.45
X4.765Y-3.1275
X4.915Y-3.4325
X5.0575Y-3.43
T2
X4.5175Y-3.44
X4.5675Y-3.44
X4.6175Y-3.44
T3
X4.92Y-3.1575
X4.92Y-3.2575
X5.22Y-3.1575
X5.22Y-3.2575
T4
X5.8675Y-3.03
X5.8675Y-3.2269
X5.8675Y-3.4237
X5.8675Y-3.6206
X3.7793Y-3.1607
X3.7793Y-3.6332
T5
X4.7225Y-2.8325
X4.9194Y-2.8325
X3.7025Y-3.395
X4.2596Y-3.6332
X4.2616Y-3.1588
X3.7613Y-2.7975
X3.9581Y-2.7975
X4.155Y-2.7975
T6
X5.4525Y-2.8475
X5.6494Y-2.8475
T0
M30
