G04 #@! TF.GenerationSoftware,KiCad,Pcbnew,(5.1.2)-1*
G04 #@! TF.CreationDate,2019-07-04T14:52:25+03:00*
G04 #@! TF.ProjectId,Elevator_FirePanel Board,456c6576-6174-46f7-925f-466972655061,rev?*
G04 #@! TF.SameCoordinates,Original*
G04 #@! TF.FileFunction,Legend,Top*
G04 #@! TF.FilePolarity,Positive*
%FSLAX46Y46*%
G04 Gerber Fmt 4.6, Leading zero omitted, Abs format (unit mm)*
G04 Created by KiCad (PCBNEW (5.1.2)-1) date 2019-07-04 14:52:25*
%MOMM*%
%LPD*%
G04 APERTURE LIST*
%ADD10C,0.010000*%
%ADD11C,0.120000*%
%ADD12C,0.150000*%
G04 APERTURE END LIST*
D10*
G36*
X148734159Y-67988147D02*
G01*
X148762246Y-67991248D01*
X148787114Y-67998290D01*
X148815607Y-68010743D01*
X148824683Y-68015161D01*
X148879308Y-68048324D01*
X148922652Y-68089625D01*
X148957445Y-68142138D01*
X148978655Y-68188417D01*
X148991303Y-68220167D01*
X149298651Y-68220174D01*
X149606000Y-68220180D01*
X149658858Y-68245186D01*
X149692973Y-68263641D01*
X149716840Y-68283375D01*
X149736688Y-68309574D01*
X149737280Y-68310504D01*
X149753579Y-68339312D01*
X149766731Y-68367975D01*
X149771159Y-68380741D01*
X149773626Y-68397940D01*
X149775822Y-68429110D01*
X149777630Y-68471289D01*
X149778934Y-68521514D01*
X149779617Y-68576824D01*
X149779688Y-68596933D01*
X149779903Y-68783200D01*
X149822669Y-68808596D01*
X149867400Y-68844259D01*
X149901019Y-68889856D01*
X149922049Y-68942001D01*
X149929014Y-68997308D01*
X149923767Y-69040323D01*
X149906078Y-69088825D01*
X149878812Y-69133475D01*
X149845933Y-69167791D01*
X149845734Y-69167946D01*
X149802510Y-69192215D01*
X149750808Y-69206552D01*
X149696327Y-69210284D01*
X149644766Y-69202741D01*
X149621511Y-69194372D01*
X149578631Y-69167280D01*
X149540587Y-69129225D01*
X149512246Y-69085553D01*
X149503854Y-69065189D01*
X149494049Y-69010956D01*
X149498405Y-68955144D01*
X149515664Y-68901784D01*
X149544566Y-68854906D01*
X149580062Y-68821181D01*
X149602385Y-68804885D01*
X149619938Y-68791554D01*
X149625050Y-68787409D01*
X149628827Y-68779293D01*
X149631681Y-68761258D01*
X149633697Y-68731756D01*
X149634961Y-68689238D01*
X149635558Y-68632154D01*
X149635634Y-68595948D01*
X149635634Y-68413598D01*
X149612296Y-68390260D01*
X149602500Y-68381116D01*
X149592358Y-68374577D01*
X149578796Y-68370031D01*
X149558739Y-68366870D01*
X149529113Y-68364483D01*
X149486841Y-68362262D01*
X149466246Y-68361309D01*
X149417425Y-68359507D01*
X149357018Y-68357941D01*
X149290367Y-68356713D01*
X149222818Y-68355921D01*
X149165126Y-68355664D01*
X148986719Y-68355634D01*
X148966918Y-68399446D01*
X148932025Y-68457490D01*
X148885424Y-68505961D01*
X148829868Y-68543040D01*
X148768106Y-68566909D01*
X148702892Y-68575751D01*
X148700067Y-68575767D01*
X148639278Y-68568232D01*
X148578641Y-68547197D01*
X148522860Y-68515012D01*
X148476641Y-68474028D01*
X148463083Y-68457346D01*
X148432232Y-68407805D01*
X148414060Y-68358141D01*
X148406546Y-68302048D01*
X148406060Y-68279434D01*
X148407731Y-68260993D01*
X148556806Y-68260993D01*
X148557167Y-68304999D01*
X148572237Y-68346604D01*
X148601618Y-68383071D01*
X148635214Y-68406733D01*
X148670625Y-68418540D01*
X148711300Y-68420975D01*
X148750395Y-68414327D01*
X148778735Y-68400696D01*
X148815005Y-68364891D01*
X148837381Y-68323294D01*
X148845552Y-68278827D01*
X148839205Y-68234413D01*
X148818027Y-68192975D01*
X148802813Y-68175311D01*
X148763061Y-68146136D01*
X148719596Y-68132652D01*
X148675026Y-68134840D01*
X148631962Y-68152681D01*
X148601802Y-68176740D01*
X148571552Y-68217327D01*
X148556806Y-68260993D01*
X148407731Y-68260993D01*
X148412308Y-68210491D01*
X148431548Y-68150905D01*
X148464786Y-68098075D01*
X148484643Y-68075745D01*
X148534341Y-68032962D01*
X148587043Y-68005089D01*
X148646467Y-67990572D01*
X148696012Y-67987517D01*
X148734159Y-67988147D01*
X148734159Y-67988147D01*
G37*
X148734159Y-67988147D02*
X148762246Y-67991248D01*
X148787114Y-67998290D01*
X148815607Y-68010743D01*
X148824683Y-68015161D01*
X148879308Y-68048324D01*
X148922652Y-68089625D01*
X148957445Y-68142138D01*
X148978655Y-68188417D01*
X148991303Y-68220167D01*
X149298651Y-68220174D01*
X149606000Y-68220180D01*
X149658858Y-68245186D01*
X149692973Y-68263641D01*
X149716840Y-68283375D01*
X149736688Y-68309574D01*
X149737280Y-68310504D01*
X149753579Y-68339312D01*
X149766731Y-68367975D01*
X149771159Y-68380741D01*
X149773626Y-68397940D01*
X149775822Y-68429110D01*
X149777630Y-68471289D01*
X149778934Y-68521514D01*
X149779617Y-68576824D01*
X149779688Y-68596933D01*
X149779903Y-68783200D01*
X149822669Y-68808596D01*
X149867400Y-68844259D01*
X149901019Y-68889856D01*
X149922049Y-68942001D01*
X149929014Y-68997308D01*
X149923767Y-69040323D01*
X149906078Y-69088825D01*
X149878812Y-69133475D01*
X149845933Y-69167791D01*
X149845734Y-69167946D01*
X149802510Y-69192215D01*
X149750808Y-69206552D01*
X149696327Y-69210284D01*
X149644766Y-69202741D01*
X149621511Y-69194372D01*
X149578631Y-69167280D01*
X149540587Y-69129225D01*
X149512246Y-69085553D01*
X149503854Y-69065189D01*
X149494049Y-69010956D01*
X149498405Y-68955144D01*
X149515664Y-68901784D01*
X149544566Y-68854906D01*
X149580062Y-68821181D01*
X149602385Y-68804885D01*
X149619938Y-68791554D01*
X149625050Y-68787409D01*
X149628827Y-68779293D01*
X149631681Y-68761258D01*
X149633697Y-68731756D01*
X149634961Y-68689238D01*
X149635558Y-68632154D01*
X149635634Y-68595948D01*
X149635634Y-68413598D01*
X149612296Y-68390260D01*
X149602500Y-68381116D01*
X149592358Y-68374577D01*
X149578796Y-68370031D01*
X149558739Y-68366870D01*
X149529113Y-68364483D01*
X149486841Y-68362262D01*
X149466246Y-68361309D01*
X149417425Y-68359507D01*
X149357018Y-68357941D01*
X149290367Y-68356713D01*
X149222818Y-68355921D01*
X149165126Y-68355664D01*
X148986719Y-68355634D01*
X148966918Y-68399446D01*
X148932025Y-68457490D01*
X148885424Y-68505961D01*
X148829868Y-68543040D01*
X148768106Y-68566909D01*
X148702892Y-68575751D01*
X148700067Y-68575767D01*
X148639278Y-68568232D01*
X148578641Y-68547197D01*
X148522860Y-68515012D01*
X148476641Y-68474028D01*
X148463083Y-68457346D01*
X148432232Y-68407805D01*
X148414060Y-68358141D01*
X148406546Y-68302048D01*
X148406060Y-68279434D01*
X148407731Y-68260993D01*
X148556806Y-68260993D01*
X148557167Y-68304999D01*
X148572237Y-68346604D01*
X148601618Y-68383071D01*
X148635214Y-68406733D01*
X148670625Y-68418540D01*
X148711300Y-68420975D01*
X148750395Y-68414327D01*
X148778735Y-68400696D01*
X148815005Y-68364891D01*
X148837381Y-68323294D01*
X148845552Y-68278827D01*
X148839205Y-68234413D01*
X148818027Y-68192975D01*
X148802813Y-68175311D01*
X148763061Y-68146136D01*
X148719596Y-68132652D01*
X148675026Y-68134840D01*
X148631962Y-68152681D01*
X148601802Y-68176740D01*
X148571552Y-68217327D01*
X148556806Y-68260993D01*
X148407731Y-68260993D01*
X148412308Y-68210491D01*
X148431548Y-68150905D01*
X148464786Y-68098075D01*
X148484643Y-68075745D01*
X148534341Y-68032962D01*
X148587043Y-68005089D01*
X148646467Y-67990572D01*
X148696012Y-67987517D01*
X148734159Y-67988147D01*
G36*
X147370800Y-67886092D02*
G01*
X147411075Y-67887045D01*
X147440566Y-67890253D01*
X147465386Y-67896870D01*
X147491651Y-67908050D01*
X147494637Y-67909485D01*
X147540213Y-67938278D01*
X147583615Y-67977648D01*
X147619699Y-68022340D01*
X147639371Y-68057325D01*
X147656290Y-68114198D01*
X147660973Y-68177040D01*
X147653180Y-68239863D01*
X147647574Y-68260377D01*
X147630813Y-68313287D01*
X147661673Y-68337280D01*
X147677542Y-68349114D01*
X147705553Y-68369463D01*
X147743992Y-68397110D01*
X147791143Y-68430843D01*
X147845290Y-68469445D01*
X147904717Y-68511701D01*
X147967708Y-68556398D01*
X148032547Y-68602320D01*
X148097519Y-68648252D01*
X148160907Y-68692979D01*
X148220995Y-68735286D01*
X148276069Y-68773959D01*
X148324411Y-68807782D01*
X148364307Y-68835542D01*
X148394040Y-68856022D01*
X148401245Y-68860918D01*
X148447877Y-68890764D01*
X148490140Y-68914591D01*
X148524494Y-68930478D01*
X148536711Y-68934601D01*
X148563742Y-68939715D01*
X148605215Y-68944419D01*
X148658642Y-68948498D01*
X148721532Y-68951737D01*
X148744507Y-68952604D01*
X148907480Y-68958217D01*
X148924948Y-68917275D01*
X148955149Y-68865502D01*
X148995126Y-68825230D01*
X149042296Y-68797100D01*
X149094078Y-68781751D01*
X149147889Y-68779823D01*
X149201146Y-68791954D01*
X149251269Y-68818784D01*
X149268188Y-68832288D01*
X149308305Y-68877219D01*
X149333830Y-68926556D01*
X149345595Y-68978054D01*
X149344434Y-69029463D01*
X149331178Y-69078537D01*
X149306659Y-69123028D01*
X149271710Y-69160688D01*
X149227162Y-69189270D01*
X149173849Y-69206527D01*
X149128088Y-69210684D01*
X149081221Y-69207171D01*
X149040965Y-69195553D01*
X149029818Y-69190680D01*
X148998575Y-69171988D01*
X148968645Y-69147564D01*
X148957851Y-69136225D01*
X148928667Y-69101692D01*
X148759333Y-69096333D01*
X148686540Y-69093699D01*
X148628020Y-69090658D01*
X148581110Y-69086823D01*
X148543150Y-69081808D01*
X148511479Y-69075227D01*
X148483436Y-69066696D01*
X148456360Y-69055827D01*
X148445371Y-69050817D01*
X148429462Y-69043084D01*
X148412487Y-69034125D01*
X148393347Y-69023203D01*
X148370947Y-69009582D01*
X148344190Y-68992523D01*
X148311979Y-68971291D01*
X148273217Y-68945148D01*
X148226808Y-68913357D01*
X148171654Y-68875182D01*
X148106659Y-68829884D01*
X148030725Y-68776728D01*
X147942757Y-68714975D01*
X147881379Y-68671828D01*
X147528358Y-68423572D01*
X147487679Y-68441869D01*
X147460295Y-68451938D01*
X147429773Y-68457829D01*
X147390425Y-68460465D01*
X147370651Y-68460816D01*
X147332091Y-68460576D01*
X147304173Y-68458218D01*
X147280626Y-68452459D01*
X147255179Y-68442017D01*
X147237746Y-68433639D01*
X147178412Y-68395852D01*
X147131742Y-68347482D01*
X147098693Y-68289554D01*
X147095185Y-68280679D01*
X147081306Y-68223058D01*
X147079570Y-68171214D01*
X147222634Y-68171214D01*
X147230001Y-68219004D01*
X147251974Y-68258256D01*
X147288359Y-68288663D01*
X147300504Y-68295255D01*
X147348297Y-68311109D01*
X147394170Y-68310256D01*
X147414699Y-68304295D01*
X147454210Y-68281132D01*
X147485310Y-68246755D01*
X147504991Y-68205410D01*
X147510500Y-68168950D01*
X147503197Y-68121636D01*
X147483149Y-68081954D01*
X147453149Y-68051233D01*
X147415989Y-68030800D01*
X147374462Y-68021982D01*
X147331360Y-68026106D01*
X147289476Y-68044501D01*
X147273514Y-68056298D01*
X147243626Y-68088817D01*
X147227326Y-68126502D01*
X147222634Y-68171214D01*
X147079570Y-68171214D01*
X147079202Y-68160249D01*
X147088582Y-68098564D01*
X147105832Y-68050777D01*
X147143352Y-67992608D01*
X147193103Y-67943458D01*
X147247253Y-67909009D01*
X147273250Y-67897362D01*
X147296765Y-67890399D01*
X147323797Y-67887007D01*
X147360340Y-67886075D01*
X147370800Y-67886092D01*
X147370800Y-67886092D01*
G37*
X147370800Y-67886092D02*
X147411075Y-67887045D01*
X147440566Y-67890253D01*
X147465386Y-67896870D01*
X147491651Y-67908050D01*
X147494637Y-67909485D01*
X147540213Y-67938278D01*
X147583615Y-67977648D01*
X147619699Y-68022340D01*
X147639371Y-68057325D01*
X147656290Y-68114198D01*
X147660973Y-68177040D01*
X147653180Y-68239863D01*
X147647574Y-68260377D01*
X147630813Y-68313287D01*
X147661673Y-68337280D01*
X147677542Y-68349114D01*
X147705553Y-68369463D01*
X147743992Y-68397110D01*
X147791143Y-68430843D01*
X147845290Y-68469445D01*
X147904717Y-68511701D01*
X147967708Y-68556398D01*
X148032547Y-68602320D01*
X148097519Y-68648252D01*
X148160907Y-68692979D01*
X148220995Y-68735286D01*
X148276069Y-68773959D01*
X148324411Y-68807782D01*
X148364307Y-68835542D01*
X148394040Y-68856022D01*
X148401245Y-68860918D01*
X148447877Y-68890764D01*
X148490140Y-68914591D01*
X148524494Y-68930478D01*
X148536711Y-68934601D01*
X148563742Y-68939715D01*
X148605215Y-68944419D01*
X148658642Y-68948498D01*
X148721532Y-68951737D01*
X148744507Y-68952604D01*
X148907480Y-68958217D01*
X148924948Y-68917275D01*
X148955149Y-68865502D01*
X148995126Y-68825230D01*
X149042296Y-68797100D01*
X149094078Y-68781751D01*
X149147889Y-68779823D01*
X149201146Y-68791954D01*
X149251269Y-68818784D01*
X149268188Y-68832288D01*
X149308305Y-68877219D01*
X149333830Y-68926556D01*
X149345595Y-68978054D01*
X149344434Y-69029463D01*
X149331178Y-69078537D01*
X149306659Y-69123028D01*
X149271710Y-69160688D01*
X149227162Y-69189270D01*
X149173849Y-69206527D01*
X149128088Y-69210684D01*
X149081221Y-69207171D01*
X149040965Y-69195553D01*
X149029818Y-69190680D01*
X148998575Y-69171988D01*
X148968645Y-69147564D01*
X148957851Y-69136225D01*
X148928667Y-69101692D01*
X148759333Y-69096333D01*
X148686540Y-69093699D01*
X148628020Y-69090658D01*
X148581110Y-69086823D01*
X148543150Y-69081808D01*
X148511479Y-69075227D01*
X148483436Y-69066696D01*
X148456360Y-69055827D01*
X148445371Y-69050817D01*
X148429462Y-69043084D01*
X148412487Y-69034125D01*
X148393347Y-69023203D01*
X148370947Y-69009582D01*
X148344190Y-68992523D01*
X148311979Y-68971291D01*
X148273217Y-68945148D01*
X148226808Y-68913357D01*
X148171654Y-68875182D01*
X148106659Y-68829884D01*
X148030725Y-68776728D01*
X147942757Y-68714975D01*
X147881379Y-68671828D01*
X147528358Y-68423572D01*
X147487679Y-68441869D01*
X147460295Y-68451938D01*
X147429773Y-68457829D01*
X147390425Y-68460465D01*
X147370651Y-68460816D01*
X147332091Y-68460576D01*
X147304173Y-68458218D01*
X147280626Y-68452459D01*
X147255179Y-68442017D01*
X147237746Y-68433639D01*
X147178412Y-68395852D01*
X147131742Y-68347482D01*
X147098693Y-68289554D01*
X147095185Y-68280679D01*
X147081306Y-68223058D01*
X147079570Y-68171214D01*
X147222634Y-68171214D01*
X147230001Y-68219004D01*
X147251974Y-68258256D01*
X147288359Y-68288663D01*
X147300504Y-68295255D01*
X147348297Y-68311109D01*
X147394170Y-68310256D01*
X147414699Y-68304295D01*
X147454210Y-68281132D01*
X147485310Y-68246755D01*
X147504991Y-68205410D01*
X147510500Y-68168950D01*
X147503197Y-68121636D01*
X147483149Y-68081954D01*
X147453149Y-68051233D01*
X147415989Y-68030800D01*
X147374462Y-68021982D01*
X147331360Y-68026106D01*
X147289476Y-68044501D01*
X147273514Y-68056298D01*
X147243626Y-68088817D01*
X147227326Y-68126502D01*
X147222634Y-68171214D01*
X147079570Y-68171214D01*
X147079202Y-68160249D01*
X147088582Y-68098564D01*
X147105832Y-68050777D01*
X147143352Y-67992608D01*
X147193103Y-67943458D01*
X147247253Y-67909009D01*
X147273250Y-67897362D01*
X147296765Y-67890399D01*
X147323797Y-67887007D01*
X147360340Y-67886075D01*
X147370800Y-67886092D01*
G36*
X151455097Y-67800325D02*
G01*
X151510858Y-67820372D01*
X151561703Y-67853004D01*
X151605369Y-67898212D01*
X151634915Y-67946048D01*
X151656705Y-68007753D01*
X151663911Y-68072234D01*
X151656395Y-68135491D01*
X151642787Y-68175805D01*
X151621673Y-68211555D01*
X151591093Y-68248381D01*
X151555482Y-68282001D01*
X151519270Y-68308133D01*
X151492619Y-68320847D01*
X151458489Y-68332111D01*
X151453702Y-68951356D01*
X151452778Y-69068866D01*
X151451924Y-69170692D01*
X151451098Y-69258083D01*
X151450259Y-69332290D01*
X151449366Y-69394560D01*
X151448377Y-69446143D01*
X151447252Y-69488289D01*
X151445950Y-69522246D01*
X151444429Y-69549264D01*
X151442648Y-69570593D01*
X151440566Y-69587480D01*
X151438142Y-69601176D01*
X151435335Y-69612930D01*
X151432103Y-69623991D01*
X151431477Y-69625993D01*
X151403665Y-69693664D01*
X151366522Y-69747838D01*
X151318758Y-69789922D01*
X151259084Y-69821319D01*
X151248534Y-69825375D01*
X151233366Y-69830215D01*
X151215690Y-69834047D01*
X151193257Y-69837027D01*
X151163818Y-69839310D01*
X151125127Y-69841053D01*
X151074934Y-69842409D01*
X151010993Y-69843536D01*
X150979780Y-69843974D01*
X150753360Y-69846995D01*
X150704614Y-69895395D01*
X150664509Y-69930427D01*
X150629531Y-69951037D01*
X150621018Y-69954048D01*
X150579836Y-69961640D01*
X150534447Y-69963026D01*
X150493020Y-69958204D01*
X150478067Y-69954085D01*
X150432670Y-69929902D01*
X150393072Y-69893092D01*
X150362610Y-69847782D01*
X150344621Y-69798096D01*
X150342606Y-69786546D01*
X150341985Y-69723570D01*
X150357150Y-69664836D01*
X150387081Y-69612507D01*
X150430761Y-69568744D01*
X150452295Y-69553848D01*
X150476431Y-69540230D01*
X150497944Y-69532492D01*
X150523422Y-69529037D01*
X150557836Y-69528267D01*
X150594314Y-69529243D01*
X150620533Y-69533162D01*
X150643109Y-69541506D01*
X150661594Y-69551542D01*
X150704309Y-69583335D01*
X150738761Y-69622133D01*
X150761053Y-69663395D01*
X150763280Y-69670083D01*
X150772847Y-69701834D01*
X150972590Y-69701462D01*
X151048832Y-69700953D01*
X151110155Y-69699350D01*
X151158564Y-69696067D01*
X151196067Y-69690516D01*
X151224669Y-69682112D01*
X151246377Y-69670269D01*
X151263196Y-69654399D01*
X151277134Y-69633917D01*
X151289979Y-69608700D01*
X151293356Y-69601151D01*
X151296283Y-69593146D01*
X151298797Y-69583470D01*
X151300937Y-69570907D01*
X151302739Y-69554240D01*
X151304241Y-69532255D01*
X151305481Y-69503736D01*
X151306496Y-69467465D01*
X151307323Y-69422229D01*
X151308001Y-69366811D01*
X151308566Y-69299994D01*
X151309056Y-69220564D01*
X151309509Y-69127305D01*
X151309962Y-69019000D01*
X151310226Y-68952229D01*
X151312651Y-68333859D01*
X151281163Y-68322472D01*
X151249103Y-68305120D01*
X151213987Y-68276943D01*
X151180321Y-68242270D01*
X151152608Y-68205428D01*
X151144013Y-68190701D01*
X151133144Y-68168003D01*
X151126452Y-68146756D01*
X151122965Y-68121624D01*
X151121710Y-68087273D01*
X151121615Y-68067767D01*
X151121773Y-68056742D01*
X151261934Y-68056742D01*
X151264811Y-68096213D01*
X151280244Y-68132851D01*
X151306217Y-68163539D01*
X151340714Y-68185160D01*
X151381720Y-68194595D01*
X151388234Y-68194767D01*
X151429583Y-68188250D01*
X151457025Y-68174117D01*
X151489785Y-68143131D01*
X151508555Y-68106494D01*
X151513849Y-68067302D01*
X151506175Y-68028649D01*
X151486045Y-67993632D01*
X151453971Y-67965346D01*
X151419954Y-67949610D01*
X151391923Y-67944238D01*
X151365329Y-67944538D01*
X151362601Y-67945051D01*
X151331087Y-67958647D01*
X151300208Y-67982893D01*
X151276415Y-68012534D01*
X151273629Y-68017555D01*
X151261934Y-68056742D01*
X151121773Y-68056742D01*
X151122190Y-68027661D01*
X151124566Y-67999127D01*
X151129719Y-67976822D01*
X151138623Y-67955404D01*
X151144100Y-67944660D01*
X151181807Y-67889070D01*
X151228183Y-67846102D01*
X151280964Y-67815750D01*
X151337886Y-67798007D01*
X151396685Y-67792868D01*
X151455097Y-67800325D01*
X151455097Y-67800325D01*
G37*
X151455097Y-67800325D02*
X151510858Y-67820372D01*
X151561703Y-67853004D01*
X151605369Y-67898212D01*
X151634915Y-67946048D01*
X151656705Y-68007753D01*
X151663911Y-68072234D01*
X151656395Y-68135491D01*
X151642787Y-68175805D01*
X151621673Y-68211555D01*
X151591093Y-68248381D01*
X151555482Y-68282001D01*
X151519270Y-68308133D01*
X151492619Y-68320847D01*
X151458489Y-68332111D01*
X151453702Y-68951356D01*
X151452778Y-69068866D01*
X151451924Y-69170692D01*
X151451098Y-69258083D01*
X151450259Y-69332290D01*
X151449366Y-69394560D01*
X151448377Y-69446143D01*
X151447252Y-69488289D01*
X151445950Y-69522246D01*
X151444429Y-69549264D01*
X151442648Y-69570593D01*
X151440566Y-69587480D01*
X151438142Y-69601176D01*
X151435335Y-69612930D01*
X151432103Y-69623991D01*
X151431477Y-69625993D01*
X151403665Y-69693664D01*
X151366522Y-69747838D01*
X151318758Y-69789922D01*
X151259084Y-69821319D01*
X151248534Y-69825375D01*
X151233366Y-69830215D01*
X151215690Y-69834047D01*
X151193257Y-69837027D01*
X151163818Y-69839310D01*
X151125127Y-69841053D01*
X151074934Y-69842409D01*
X151010993Y-69843536D01*
X150979780Y-69843974D01*
X150753360Y-69846995D01*
X150704614Y-69895395D01*
X150664509Y-69930427D01*
X150629531Y-69951037D01*
X150621018Y-69954048D01*
X150579836Y-69961640D01*
X150534447Y-69963026D01*
X150493020Y-69958204D01*
X150478067Y-69954085D01*
X150432670Y-69929902D01*
X150393072Y-69893092D01*
X150362610Y-69847782D01*
X150344621Y-69798096D01*
X150342606Y-69786546D01*
X150341985Y-69723570D01*
X150357150Y-69664836D01*
X150387081Y-69612507D01*
X150430761Y-69568744D01*
X150452295Y-69553848D01*
X150476431Y-69540230D01*
X150497944Y-69532492D01*
X150523422Y-69529037D01*
X150557836Y-69528267D01*
X150594314Y-69529243D01*
X150620533Y-69533162D01*
X150643109Y-69541506D01*
X150661594Y-69551542D01*
X150704309Y-69583335D01*
X150738761Y-69622133D01*
X150761053Y-69663395D01*
X150763280Y-69670083D01*
X150772847Y-69701834D01*
X150972590Y-69701462D01*
X151048832Y-69700953D01*
X151110155Y-69699350D01*
X151158564Y-69696067D01*
X151196067Y-69690516D01*
X151224669Y-69682112D01*
X151246377Y-69670269D01*
X151263196Y-69654399D01*
X151277134Y-69633917D01*
X151289979Y-69608700D01*
X151293356Y-69601151D01*
X151296283Y-69593146D01*
X151298797Y-69583470D01*
X151300937Y-69570907D01*
X151302739Y-69554240D01*
X151304241Y-69532255D01*
X151305481Y-69503736D01*
X151306496Y-69467465D01*
X151307323Y-69422229D01*
X151308001Y-69366811D01*
X151308566Y-69299994D01*
X151309056Y-69220564D01*
X151309509Y-69127305D01*
X151309962Y-69019000D01*
X151310226Y-68952229D01*
X151312651Y-68333859D01*
X151281163Y-68322472D01*
X151249103Y-68305120D01*
X151213987Y-68276943D01*
X151180321Y-68242270D01*
X151152608Y-68205428D01*
X151144013Y-68190701D01*
X151133144Y-68168003D01*
X151126452Y-68146756D01*
X151122965Y-68121624D01*
X151121710Y-68087273D01*
X151121615Y-68067767D01*
X151121773Y-68056742D01*
X151261934Y-68056742D01*
X151264811Y-68096213D01*
X151280244Y-68132851D01*
X151306217Y-68163539D01*
X151340714Y-68185160D01*
X151381720Y-68194595D01*
X151388234Y-68194767D01*
X151429583Y-68188250D01*
X151457025Y-68174117D01*
X151489785Y-68143131D01*
X151508555Y-68106494D01*
X151513849Y-68067302D01*
X151506175Y-68028649D01*
X151486045Y-67993632D01*
X151453971Y-67965346D01*
X151419954Y-67949610D01*
X151391923Y-67944238D01*
X151365329Y-67944538D01*
X151362601Y-67945051D01*
X151331087Y-67958647D01*
X151300208Y-67982893D01*
X151276415Y-68012534D01*
X151273629Y-68017555D01*
X151261934Y-68056742D01*
X151121773Y-68056742D01*
X151122190Y-68027661D01*
X151124566Y-67999127D01*
X151129719Y-67976822D01*
X151138623Y-67955404D01*
X151144100Y-67944660D01*
X151181807Y-67889070D01*
X151228183Y-67846102D01*
X151280964Y-67815750D01*
X151337886Y-67798007D01*
X151396685Y-67792868D01*
X151455097Y-67800325D01*
G36*
X147443911Y-69463574D02*
G01*
X147495321Y-69480182D01*
X147497800Y-69481368D01*
X147550863Y-69515322D01*
X147598168Y-69560904D01*
X147635603Y-69613594D01*
X147654049Y-69653150D01*
X147662481Y-69676433D01*
X148101112Y-69676433D01*
X148111500Y-69651356D01*
X148128059Y-69624984D01*
X148154738Y-69596067D01*
X148186314Y-69569225D01*
X148217565Y-69549081D01*
X148235399Y-69541721D01*
X148279515Y-69534070D01*
X148325489Y-69533647D01*
X148365971Y-69540315D01*
X148377670Y-69544377D01*
X148414030Y-69565811D01*
X148450148Y-69597477D01*
X148480074Y-69633664D01*
X148492139Y-69654245D01*
X148506569Y-69700986D01*
X148509746Y-69754055D01*
X148501761Y-69807211D01*
X148489388Y-69841534D01*
X148457554Y-69891146D01*
X148416087Y-69928652D01*
X148367550Y-69953082D01*
X148314509Y-69963466D01*
X148259525Y-69958834D01*
X148217405Y-69944392D01*
X148179100Y-69920708D01*
X148143531Y-69888506D01*
X148116417Y-69853296D01*
X148109618Y-69840491D01*
X148100449Y-69820367D01*
X147881409Y-69820367D01*
X147814578Y-69820445D01*
X147762735Y-69820764D01*
X147723934Y-69821453D01*
X147696229Y-69822641D01*
X147677675Y-69824456D01*
X147666326Y-69827028D01*
X147660236Y-69830484D01*
X147657460Y-69834954D01*
X147657381Y-69835184D01*
X147627581Y-69900604D01*
X147586390Y-69955592D01*
X147535433Y-69998218D01*
X147506267Y-70014548D01*
X147458159Y-70030503D01*
X147401937Y-70038277D01*
X147344492Y-70037538D01*
X147292714Y-70027956D01*
X147284439Y-70025234D01*
X147218588Y-69993599D01*
X147164985Y-69950622D01*
X147124395Y-69897406D01*
X147097586Y-69835058D01*
X147085325Y-69764681D01*
X147084907Y-69748400D01*
X147231100Y-69748400D01*
X147237082Y-69793014D01*
X147256420Y-69830629D01*
X147279028Y-69855294D01*
X147318009Y-69882693D01*
X147359267Y-69893777D01*
X147405306Y-69889163D01*
X147410754Y-69887728D01*
X147455584Y-69867476D01*
X147489500Y-69836389D01*
X147511302Y-69797404D01*
X147519787Y-69753458D01*
X147513755Y-69707490D01*
X147498625Y-69672845D01*
X147468127Y-69635775D01*
X147429799Y-69611871D01*
X147386927Y-69601610D01*
X147342796Y-69605467D01*
X147300691Y-69623919D01*
X147279028Y-69640989D01*
X147249241Y-69676710D01*
X147234123Y-69715504D01*
X147231100Y-69748400D01*
X147084907Y-69748400D01*
X147084622Y-69737310D01*
X147086576Y-69698409D01*
X147092779Y-69667355D01*
X147105339Y-69635198D01*
X147111913Y-69621446D01*
X147147883Y-69565305D01*
X147194901Y-69517928D01*
X147249364Y-69482662D01*
X147271726Y-69472958D01*
X147325692Y-69459723D01*
X147385227Y-69456675D01*
X147443911Y-69463574D01*
X147443911Y-69463574D01*
G37*
X147443911Y-69463574D02*
X147495321Y-69480182D01*
X147497800Y-69481368D01*
X147550863Y-69515322D01*
X147598168Y-69560904D01*
X147635603Y-69613594D01*
X147654049Y-69653150D01*
X147662481Y-69676433D01*
X148101112Y-69676433D01*
X148111500Y-69651356D01*
X148128059Y-69624984D01*
X148154738Y-69596067D01*
X148186314Y-69569225D01*
X148217565Y-69549081D01*
X148235399Y-69541721D01*
X148279515Y-69534070D01*
X148325489Y-69533647D01*
X148365971Y-69540315D01*
X148377670Y-69544377D01*
X148414030Y-69565811D01*
X148450148Y-69597477D01*
X148480074Y-69633664D01*
X148492139Y-69654245D01*
X148506569Y-69700986D01*
X148509746Y-69754055D01*
X148501761Y-69807211D01*
X148489388Y-69841534D01*
X148457554Y-69891146D01*
X148416087Y-69928652D01*
X148367550Y-69953082D01*
X148314509Y-69963466D01*
X148259525Y-69958834D01*
X148217405Y-69944392D01*
X148179100Y-69920708D01*
X148143531Y-69888506D01*
X148116417Y-69853296D01*
X148109618Y-69840491D01*
X148100449Y-69820367D01*
X147881409Y-69820367D01*
X147814578Y-69820445D01*
X147762735Y-69820764D01*
X147723934Y-69821453D01*
X147696229Y-69822641D01*
X147677675Y-69824456D01*
X147666326Y-69827028D01*
X147660236Y-69830484D01*
X147657460Y-69834954D01*
X147657381Y-69835184D01*
X147627581Y-69900604D01*
X147586390Y-69955592D01*
X147535433Y-69998218D01*
X147506267Y-70014548D01*
X147458159Y-70030503D01*
X147401937Y-70038277D01*
X147344492Y-70037538D01*
X147292714Y-70027956D01*
X147284439Y-70025234D01*
X147218588Y-69993599D01*
X147164985Y-69950622D01*
X147124395Y-69897406D01*
X147097586Y-69835058D01*
X147085325Y-69764681D01*
X147084907Y-69748400D01*
X147231100Y-69748400D01*
X147237082Y-69793014D01*
X147256420Y-69830629D01*
X147279028Y-69855294D01*
X147318009Y-69882693D01*
X147359267Y-69893777D01*
X147405306Y-69889163D01*
X147410754Y-69887728D01*
X147455584Y-69867476D01*
X147489500Y-69836389D01*
X147511302Y-69797404D01*
X147519787Y-69753458D01*
X147513755Y-69707490D01*
X147498625Y-69672845D01*
X147468127Y-69635775D01*
X147429799Y-69611871D01*
X147386927Y-69601610D01*
X147342796Y-69605467D01*
X147300691Y-69623919D01*
X147279028Y-69640989D01*
X147249241Y-69676710D01*
X147234123Y-69715504D01*
X147231100Y-69748400D01*
X147084907Y-69748400D01*
X147084622Y-69737310D01*
X147086576Y-69698409D01*
X147092779Y-69667355D01*
X147105339Y-69635198D01*
X147111913Y-69621446D01*
X147147883Y-69565305D01*
X147194901Y-69517928D01*
X147249364Y-69482662D01*
X147271726Y-69472958D01*
X147325692Y-69459723D01*
X147385227Y-69456675D01*
X147443911Y-69463574D01*
G36*
X147783623Y-70033081D02*
G01*
X147833849Y-70048742D01*
X147840105Y-70051055D01*
X147885316Y-70075189D01*
X147929180Y-70111403D01*
X147967030Y-70155174D01*
X147992994Y-70199250D01*
X148013052Y-70243700D01*
X148057305Y-70243700D01*
X148083628Y-70242938D01*
X148099505Y-70238213D01*
X148111416Y-70225869D01*
X148123402Y-70206426D01*
X148155788Y-70165452D01*
X148198006Y-70132979D01*
X148245965Y-70111038D01*
X148295575Y-70101664D01*
X148329879Y-70103812D01*
X148369791Y-70116290D01*
X148410701Y-70137354D01*
X148445969Y-70163140D01*
X148463470Y-70181569D01*
X148491254Y-70226603D01*
X148505830Y-70273941D01*
X148509381Y-70321745D01*
X148501604Y-70381752D01*
X148479876Y-70434360D01*
X148445940Y-70477774D01*
X148401536Y-70510200D01*
X148348408Y-70529845D01*
X148302134Y-70535140D01*
X148245745Y-70527724D01*
X148194454Y-70504754D01*
X148150243Y-70467319D01*
X148128967Y-70439922D01*
X148112349Y-70415945D01*
X148099552Y-70402842D01*
X148085111Y-70397327D01*
X148063558Y-70396115D01*
X148056034Y-70396100D01*
X148012334Y-70396100D01*
X147997874Y-70433962D01*
X147969307Y-70486577D01*
X147928194Y-70532080D01*
X147877704Y-70568792D01*
X147821007Y-70595038D01*
X147761271Y-70609138D01*
X147701666Y-70609417D01*
X147675600Y-70604552D01*
X147614575Y-70583242D01*
X147563735Y-70551679D01*
X147524819Y-70514646D01*
X147484837Y-70458885D01*
X147460522Y-70397425D01*
X147452117Y-70334642D01*
X147582613Y-70334642D01*
X147586353Y-70352479D01*
X147602459Y-70387426D01*
X147628942Y-70420114D01*
X147660731Y-70445123D01*
X147682004Y-70454744D01*
X147725916Y-70459883D01*
X147772004Y-70451362D01*
X147809615Y-70433269D01*
X147839231Y-70405338D01*
X147861701Y-70368123D01*
X147873351Y-70328312D01*
X147874195Y-70315667D01*
X147868053Y-70281129D01*
X147852159Y-70244318D01*
X147830308Y-70213058D01*
X147819451Y-70202814D01*
X147777827Y-70179152D01*
X147734707Y-70170124D01*
X147692557Y-70174148D01*
X147653840Y-70189640D01*
X147621022Y-70215018D01*
X147596569Y-70248700D01*
X147582944Y-70289102D01*
X147582613Y-70334642D01*
X147452117Y-70334642D01*
X147451343Y-70328864D01*
X147451234Y-70319900D01*
X147456574Y-70256681D01*
X147473746Y-70201804D01*
X147504474Y-70151212D01*
X147540033Y-70111042D01*
X147568946Y-70083523D01*
X147593017Y-70065198D01*
X147618290Y-70052291D01*
X147650808Y-70041024D01*
X147653259Y-70040276D01*
X147699257Y-70029190D01*
X147740736Y-70026678D01*
X147783623Y-70033081D01*
X147783623Y-70033081D01*
G37*
X147783623Y-70033081D02*
X147833849Y-70048742D01*
X147840105Y-70051055D01*
X147885316Y-70075189D01*
X147929180Y-70111403D01*
X147967030Y-70155174D01*
X147992994Y-70199250D01*
X148013052Y-70243700D01*
X148057305Y-70243700D01*
X148083628Y-70242938D01*
X148099505Y-70238213D01*
X148111416Y-70225869D01*
X148123402Y-70206426D01*
X148155788Y-70165452D01*
X148198006Y-70132979D01*
X148245965Y-70111038D01*
X148295575Y-70101664D01*
X148329879Y-70103812D01*
X148369791Y-70116290D01*
X148410701Y-70137354D01*
X148445969Y-70163140D01*
X148463470Y-70181569D01*
X148491254Y-70226603D01*
X148505830Y-70273941D01*
X148509381Y-70321745D01*
X148501604Y-70381752D01*
X148479876Y-70434360D01*
X148445940Y-70477774D01*
X148401536Y-70510200D01*
X148348408Y-70529845D01*
X148302134Y-70535140D01*
X148245745Y-70527724D01*
X148194454Y-70504754D01*
X148150243Y-70467319D01*
X148128967Y-70439922D01*
X148112349Y-70415945D01*
X148099552Y-70402842D01*
X148085111Y-70397327D01*
X148063558Y-70396115D01*
X148056034Y-70396100D01*
X148012334Y-70396100D01*
X147997874Y-70433962D01*
X147969307Y-70486577D01*
X147928194Y-70532080D01*
X147877704Y-70568792D01*
X147821007Y-70595038D01*
X147761271Y-70609138D01*
X147701666Y-70609417D01*
X147675600Y-70604552D01*
X147614575Y-70583242D01*
X147563735Y-70551679D01*
X147524819Y-70514646D01*
X147484837Y-70458885D01*
X147460522Y-70397425D01*
X147452117Y-70334642D01*
X147582613Y-70334642D01*
X147586353Y-70352479D01*
X147602459Y-70387426D01*
X147628942Y-70420114D01*
X147660731Y-70445123D01*
X147682004Y-70454744D01*
X147725916Y-70459883D01*
X147772004Y-70451362D01*
X147809615Y-70433269D01*
X147839231Y-70405338D01*
X147861701Y-70368123D01*
X147873351Y-70328312D01*
X147874195Y-70315667D01*
X147868053Y-70281129D01*
X147852159Y-70244318D01*
X147830308Y-70213058D01*
X147819451Y-70202814D01*
X147777827Y-70179152D01*
X147734707Y-70170124D01*
X147692557Y-70174148D01*
X147653840Y-70189640D01*
X147621022Y-70215018D01*
X147596569Y-70248700D01*
X147582944Y-70289102D01*
X147582613Y-70334642D01*
X147452117Y-70334642D01*
X147451343Y-70328864D01*
X147451234Y-70319900D01*
X147456574Y-70256681D01*
X147473746Y-70201804D01*
X147504474Y-70151212D01*
X147540033Y-70111042D01*
X147568946Y-70083523D01*
X147593017Y-70065198D01*
X147618290Y-70052291D01*
X147650808Y-70041024D01*
X147653259Y-70040276D01*
X147699257Y-70029190D01*
X147740736Y-70026678D01*
X147783623Y-70033081D01*
G36*
X151614767Y-70045712D02*
G01*
X151644828Y-70049478D01*
X151671341Y-70057272D01*
X151694050Y-70067045D01*
X151755736Y-70104408D01*
X151804190Y-70152276D01*
X151839109Y-70210252D01*
X151860194Y-70277938D01*
X151862093Y-70288583D01*
X151865124Y-70357424D01*
X151852418Y-70423550D01*
X151825165Y-70484607D01*
X151784559Y-70538242D01*
X151731789Y-70582102D01*
X151705734Y-70597330D01*
X151680158Y-70608923D01*
X151654136Y-70616123D01*
X151621801Y-70620147D01*
X151587200Y-70621904D01*
X151532405Y-70621572D01*
X151492718Y-70616434D01*
X151480432Y-70612740D01*
X151428883Y-70586595D01*
X151381178Y-70550646D01*
X151341035Y-70508466D01*
X151312173Y-70463628D01*
X151303607Y-70442788D01*
X151293787Y-70413034D01*
X150748200Y-70413034D01*
X150718967Y-70457380D01*
X150680315Y-70501474D01*
X150632076Y-70531945D01*
X150575617Y-70548080D01*
X150540002Y-70550589D01*
X150485922Y-70545722D01*
X150440563Y-70529814D01*
X150398294Y-70500808D01*
X150394402Y-70497444D01*
X150359664Y-70460403D01*
X150338030Y-70419964D01*
X150327641Y-70371760D01*
X150326520Y-70347429D01*
X151432388Y-70347429D01*
X151443671Y-70385673D01*
X151469708Y-70428993D01*
X151505012Y-70460020D01*
X151546889Y-70477584D01*
X151592643Y-70480517D01*
X151636155Y-70469158D01*
X151674628Y-70444090D01*
X151703473Y-70407846D01*
X151720455Y-70364481D01*
X151723338Y-70318055D01*
X151722597Y-70312253D01*
X151709576Y-70275556D01*
X151684176Y-70240562D01*
X151650700Y-70211906D01*
X151613447Y-70194217D01*
X151612839Y-70194047D01*
X151566939Y-70189595D01*
X151522865Y-70200372D01*
X151484059Y-70224752D01*
X151453964Y-70261108D01*
X151448227Y-70271832D01*
X151433731Y-70311483D01*
X151432388Y-70347429D01*
X150326520Y-70347429D01*
X150326031Y-70336834D01*
X150329032Y-70287737D01*
X150339629Y-70248665D01*
X150360142Y-70213552D01*
X150383765Y-70185808D01*
X150426164Y-70151529D01*
X150476133Y-70128525D01*
X150529511Y-70117757D01*
X150582136Y-70120192D01*
X150618854Y-70131369D01*
X150666360Y-70158876D01*
X150706560Y-70194683D01*
X150732359Y-70230443D01*
X150748618Y-70260634D01*
X151284309Y-70260634D01*
X151310953Y-70206511D01*
X151348389Y-70147903D01*
X151397586Y-70101047D01*
X151454951Y-70067045D01*
X151483351Y-70055208D01*
X151510063Y-70048378D01*
X151541743Y-70045312D01*
X151574500Y-70044734D01*
X151614767Y-70045712D01*
X151614767Y-70045712D01*
G37*
X151614767Y-70045712D02*
X151644828Y-70049478D01*
X151671341Y-70057272D01*
X151694050Y-70067045D01*
X151755736Y-70104408D01*
X151804190Y-70152276D01*
X151839109Y-70210252D01*
X151860194Y-70277938D01*
X151862093Y-70288583D01*
X151865124Y-70357424D01*
X151852418Y-70423550D01*
X151825165Y-70484607D01*
X151784559Y-70538242D01*
X151731789Y-70582102D01*
X151705734Y-70597330D01*
X151680158Y-70608923D01*
X151654136Y-70616123D01*
X151621801Y-70620147D01*
X151587200Y-70621904D01*
X151532405Y-70621572D01*
X151492718Y-70616434D01*
X151480432Y-70612740D01*
X151428883Y-70586595D01*
X151381178Y-70550646D01*
X151341035Y-70508466D01*
X151312173Y-70463628D01*
X151303607Y-70442788D01*
X151293787Y-70413034D01*
X150748200Y-70413034D01*
X150718967Y-70457380D01*
X150680315Y-70501474D01*
X150632076Y-70531945D01*
X150575617Y-70548080D01*
X150540002Y-70550589D01*
X150485922Y-70545722D01*
X150440563Y-70529814D01*
X150398294Y-70500808D01*
X150394402Y-70497444D01*
X150359664Y-70460403D01*
X150338030Y-70419964D01*
X150327641Y-70371760D01*
X150326520Y-70347429D01*
X151432388Y-70347429D01*
X151443671Y-70385673D01*
X151469708Y-70428993D01*
X151505012Y-70460020D01*
X151546889Y-70477584D01*
X151592643Y-70480517D01*
X151636155Y-70469158D01*
X151674628Y-70444090D01*
X151703473Y-70407846D01*
X151720455Y-70364481D01*
X151723338Y-70318055D01*
X151722597Y-70312253D01*
X151709576Y-70275556D01*
X151684176Y-70240562D01*
X151650700Y-70211906D01*
X151613447Y-70194217D01*
X151612839Y-70194047D01*
X151566939Y-70189595D01*
X151522865Y-70200372D01*
X151484059Y-70224752D01*
X151453964Y-70261108D01*
X151448227Y-70271832D01*
X151433731Y-70311483D01*
X151432388Y-70347429D01*
X150326520Y-70347429D01*
X150326031Y-70336834D01*
X150329032Y-70287737D01*
X150339629Y-70248665D01*
X150360142Y-70213552D01*
X150383765Y-70185808D01*
X150426164Y-70151529D01*
X150476133Y-70128525D01*
X150529511Y-70117757D01*
X150582136Y-70120192D01*
X150618854Y-70131369D01*
X150666360Y-70158876D01*
X150706560Y-70194683D01*
X150732359Y-70230443D01*
X150748618Y-70260634D01*
X151284309Y-70260634D01*
X151310953Y-70206511D01*
X151348389Y-70147903D01*
X151397586Y-70101047D01*
X151454951Y-70067045D01*
X151483351Y-70055208D01*
X151510063Y-70048378D01*
X151541743Y-70045312D01*
X151574500Y-70044734D01*
X151614767Y-70045712D01*
G36*
X149967049Y-69411850D02*
G01*
X150028811Y-69451461D01*
X150079494Y-69503530D01*
X150116875Y-69564884D01*
X150139400Y-69612933D01*
X150141703Y-70325436D01*
X150142103Y-70451777D01*
X150142419Y-70562322D01*
X150142628Y-70658207D01*
X150142708Y-70740568D01*
X150142636Y-70810543D01*
X150142388Y-70869268D01*
X150141944Y-70917880D01*
X150141280Y-70957514D01*
X150140373Y-70989309D01*
X150139201Y-71014400D01*
X150137741Y-71033924D01*
X150135971Y-71049019D01*
X150133868Y-71060819D01*
X150131410Y-71070463D01*
X150128573Y-71079086D01*
X150126611Y-71084429D01*
X150093347Y-71150600D01*
X150047596Y-71205471D01*
X149990051Y-71248370D01*
X149928206Y-71276374D01*
X149916409Y-71280191D01*
X149904258Y-71283393D01*
X149890236Y-71286030D01*
X149872825Y-71288150D01*
X149850509Y-71289805D01*
X149821770Y-71291044D01*
X149785091Y-71291918D01*
X149738957Y-71292476D01*
X149681848Y-71292769D01*
X149612250Y-71292846D01*
X149528643Y-71292757D01*
X149437140Y-71292571D01*
X149350936Y-71292250D01*
X149268775Y-71291703D01*
X149192421Y-71290957D01*
X149123642Y-71290041D01*
X149064204Y-71288984D01*
X149015873Y-71287814D01*
X148980416Y-71286559D01*
X148959599Y-71285247D01*
X148956486Y-71284850D01*
X148895488Y-71266392D01*
X148837952Y-71233427D01*
X148786978Y-71188375D01*
X148745661Y-71133658D01*
X148732650Y-71109847D01*
X148708533Y-71060733D01*
X148708533Y-69612933D01*
X148731058Y-69564884D01*
X148769571Y-69502074D01*
X148820551Y-69450302D01*
X148880884Y-69411850D01*
X148936777Y-69384333D01*
X149911156Y-69384333D01*
X149967049Y-69411850D01*
X149967049Y-69411850D01*
G37*
X149967049Y-69411850D02*
X150028811Y-69451461D01*
X150079494Y-69503530D01*
X150116875Y-69564884D01*
X150139400Y-69612933D01*
X150141703Y-70325436D01*
X150142103Y-70451777D01*
X150142419Y-70562322D01*
X150142628Y-70658207D01*
X150142708Y-70740568D01*
X150142636Y-70810543D01*
X150142388Y-70869268D01*
X150141944Y-70917880D01*
X150141280Y-70957514D01*
X150140373Y-70989309D01*
X150139201Y-71014400D01*
X150137741Y-71033924D01*
X150135971Y-71049019D01*
X150133868Y-71060819D01*
X150131410Y-71070463D01*
X150128573Y-71079086D01*
X150126611Y-71084429D01*
X150093347Y-71150600D01*
X150047596Y-71205471D01*
X149990051Y-71248370D01*
X149928206Y-71276374D01*
X149916409Y-71280191D01*
X149904258Y-71283393D01*
X149890236Y-71286030D01*
X149872825Y-71288150D01*
X149850509Y-71289805D01*
X149821770Y-71291044D01*
X149785091Y-71291918D01*
X149738957Y-71292476D01*
X149681848Y-71292769D01*
X149612250Y-71292846D01*
X149528643Y-71292757D01*
X149437140Y-71292571D01*
X149350936Y-71292250D01*
X149268775Y-71291703D01*
X149192421Y-71290957D01*
X149123642Y-71290041D01*
X149064204Y-71288984D01*
X149015873Y-71287814D01*
X148980416Y-71286559D01*
X148959599Y-71285247D01*
X148956486Y-71284850D01*
X148895488Y-71266392D01*
X148837952Y-71233427D01*
X148786978Y-71188375D01*
X148745661Y-71133658D01*
X148732650Y-71109847D01*
X148708533Y-71060733D01*
X148708533Y-69612933D01*
X148731058Y-69564884D01*
X148769571Y-69502074D01*
X148820551Y-69450302D01*
X148880884Y-69411850D01*
X148936777Y-69384333D01*
X149911156Y-69384333D01*
X149967049Y-69411850D01*
G36*
X150592110Y-70687225D02*
G01*
X150644361Y-70710356D01*
X150689422Y-70745653D01*
X150718009Y-70781911D01*
X150741987Y-70820435D01*
X150983170Y-70819700D01*
X151065723Y-70819844D01*
X151136580Y-70820786D01*
X151194499Y-70822487D01*
X151238236Y-70824907D01*
X151266548Y-70828008D01*
X151270309Y-70828719D01*
X151339910Y-70851340D01*
X151400505Y-70887134D01*
X151450360Y-70934815D01*
X151485371Y-70988315D01*
X151496511Y-71011541D01*
X151505769Y-71034504D01*
X151513355Y-71059075D01*
X151519480Y-71087125D01*
X151524356Y-71120523D01*
X151528195Y-71161141D01*
X151531206Y-71210848D01*
X151533602Y-71271515D01*
X151535593Y-71345013D01*
X151537391Y-71433211D01*
X151537734Y-71452140D01*
X151543374Y-71767346D01*
X151581397Y-71781867D01*
X151622992Y-71804422D01*
X151665082Y-71838674D01*
X151703138Y-71880152D01*
X151732633Y-71924381D01*
X151739285Y-71937849D01*
X151750610Y-71964812D01*
X151757240Y-71987376D01*
X151760080Y-72011479D01*
X151760038Y-72043059D01*
X151759046Y-72067237D01*
X151752144Y-72129448D01*
X151736748Y-72180341D01*
X151711017Y-72224169D01*
X151673466Y-72264855D01*
X151618726Y-72306445D01*
X151560227Y-72332811D01*
X151495626Y-72344677D01*
X151422583Y-72342770D01*
X151422100Y-72342716D01*
X151362450Y-72327988D01*
X151306125Y-72298703D01*
X151256382Y-72257234D01*
X151216476Y-72205957D01*
X151204257Y-72183765D01*
X151192835Y-72158435D01*
X151185823Y-72135580D01*
X151182187Y-72109549D01*
X151180894Y-72074689D01*
X151180887Y-72073142D01*
X151329247Y-72073142D01*
X151339051Y-72112026D01*
X151361911Y-72148618D01*
X151390935Y-72175084D01*
X151417011Y-72190917D01*
X151443094Y-72198096D01*
X151470358Y-72199500D01*
X151501768Y-72197044D01*
X151530326Y-72190795D01*
X151541221Y-72186496D01*
X151561418Y-72171655D01*
X151583250Y-72149260D01*
X151591600Y-72138659D01*
X151612409Y-72096721D01*
X151618102Y-72052143D01*
X151609379Y-72008340D01*
X151586936Y-71968729D01*
X151551473Y-71936728D01*
X151550169Y-71935892D01*
X151506720Y-71916215D01*
X151464951Y-71911333D01*
X151426285Y-71919111D01*
X151392142Y-71937413D01*
X151363945Y-71964103D01*
X151343115Y-71997045D01*
X151331075Y-72034104D01*
X151329247Y-72073142D01*
X151180887Y-72073142D01*
X151180800Y-72055567D01*
X151181341Y-72015758D01*
X151183689Y-71987220D01*
X151188936Y-71964304D01*
X151198172Y-71941364D01*
X151205895Y-71925606D01*
X151236951Y-71877931D01*
X151277773Y-71834896D01*
X151323476Y-71801164D01*
X151350530Y-71787602D01*
X151389090Y-71771933D01*
X151386545Y-71445967D01*
X151385876Y-71363068D01*
X151385218Y-71295307D01*
X151384461Y-71240891D01*
X151383495Y-71198023D01*
X151382211Y-71164911D01*
X151380499Y-71139759D01*
X151378248Y-71120773D01*
X151375350Y-71106159D01*
X151371694Y-71094121D01*
X151367171Y-71082866D01*
X151363881Y-71075489D01*
X151339036Y-71033382D01*
X151308034Y-71000652D01*
X151274109Y-70980368D01*
X151259298Y-70976214D01*
X151234674Y-70973540D01*
X151195425Y-70971425D01*
X151143851Y-70969906D01*
X151082251Y-70969022D01*
X151012926Y-70968812D01*
X150938176Y-70969314D01*
X150888700Y-70970023D01*
X150749000Y-70972446D01*
X150719367Y-71015794D01*
X150680639Y-71059040D01*
X150633994Y-71089807D01*
X150582159Y-71108229D01*
X150527860Y-71114441D01*
X150473823Y-71108579D01*
X150422773Y-71090778D01*
X150377438Y-71061174D01*
X150340543Y-71019902D01*
X150326789Y-70996303D01*
X150310410Y-70948658D01*
X150304138Y-70895764D01*
X150308309Y-70844332D01*
X150317614Y-70812812D01*
X150338511Y-70777407D01*
X150369704Y-70741813D01*
X150405656Y-70711840D01*
X150425123Y-70700024D01*
X150479201Y-70681139D01*
X150535960Y-70677179D01*
X150592110Y-70687225D01*
X150592110Y-70687225D01*
G37*
X150592110Y-70687225D02*
X150644361Y-70710356D01*
X150689422Y-70745653D01*
X150718009Y-70781911D01*
X150741987Y-70820435D01*
X150983170Y-70819700D01*
X151065723Y-70819844D01*
X151136580Y-70820786D01*
X151194499Y-70822487D01*
X151238236Y-70824907D01*
X151266548Y-70828008D01*
X151270309Y-70828719D01*
X151339910Y-70851340D01*
X151400505Y-70887134D01*
X151450360Y-70934815D01*
X151485371Y-70988315D01*
X151496511Y-71011541D01*
X151505769Y-71034504D01*
X151513355Y-71059075D01*
X151519480Y-71087125D01*
X151524356Y-71120523D01*
X151528195Y-71161141D01*
X151531206Y-71210848D01*
X151533602Y-71271515D01*
X151535593Y-71345013D01*
X151537391Y-71433211D01*
X151537734Y-71452140D01*
X151543374Y-71767346D01*
X151581397Y-71781867D01*
X151622992Y-71804422D01*
X151665082Y-71838674D01*
X151703138Y-71880152D01*
X151732633Y-71924381D01*
X151739285Y-71937849D01*
X151750610Y-71964812D01*
X151757240Y-71987376D01*
X151760080Y-72011479D01*
X151760038Y-72043059D01*
X151759046Y-72067237D01*
X151752144Y-72129448D01*
X151736748Y-72180341D01*
X151711017Y-72224169D01*
X151673466Y-72264855D01*
X151618726Y-72306445D01*
X151560227Y-72332811D01*
X151495626Y-72344677D01*
X151422583Y-72342770D01*
X151422100Y-72342716D01*
X151362450Y-72327988D01*
X151306125Y-72298703D01*
X151256382Y-72257234D01*
X151216476Y-72205957D01*
X151204257Y-72183765D01*
X151192835Y-72158435D01*
X151185823Y-72135580D01*
X151182187Y-72109549D01*
X151180894Y-72074689D01*
X151180887Y-72073142D01*
X151329247Y-72073142D01*
X151339051Y-72112026D01*
X151361911Y-72148618D01*
X151390935Y-72175084D01*
X151417011Y-72190917D01*
X151443094Y-72198096D01*
X151470358Y-72199500D01*
X151501768Y-72197044D01*
X151530326Y-72190795D01*
X151541221Y-72186496D01*
X151561418Y-72171655D01*
X151583250Y-72149260D01*
X151591600Y-72138659D01*
X151612409Y-72096721D01*
X151618102Y-72052143D01*
X151609379Y-72008340D01*
X151586936Y-71968729D01*
X151551473Y-71936728D01*
X151550169Y-71935892D01*
X151506720Y-71916215D01*
X151464951Y-71911333D01*
X151426285Y-71919111D01*
X151392142Y-71937413D01*
X151363945Y-71964103D01*
X151343115Y-71997045D01*
X151331075Y-72034104D01*
X151329247Y-72073142D01*
X151180887Y-72073142D01*
X151180800Y-72055567D01*
X151181341Y-72015758D01*
X151183689Y-71987220D01*
X151188936Y-71964304D01*
X151198172Y-71941364D01*
X151205895Y-71925606D01*
X151236951Y-71877931D01*
X151277773Y-71834896D01*
X151323476Y-71801164D01*
X151350530Y-71787602D01*
X151389090Y-71771933D01*
X151386545Y-71445967D01*
X151385876Y-71363068D01*
X151385218Y-71295307D01*
X151384461Y-71240891D01*
X151383495Y-71198023D01*
X151382211Y-71164911D01*
X151380499Y-71139759D01*
X151378248Y-71120773D01*
X151375350Y-71106159D01*
X151371694Y-71094121D01*
X151367171Y-71082866D01*
X151363881Y-71075489D01*
X151339036Y-71033382D01*
X151308034Y-71000652D01*
X151274109Y-70980368D01*
X151259298Y-70976214D01*
X151234674Y-70973540D01*
X151195425Y-70971425D01*
X151143851Y-70969906D01*
X151082251Y-70969022D01*
X151012926Y-70968812D01*
X150938176Y-70969314D01*
X150888700Y-70970023D01*
X150749000Y-70972446D01*
X150719367Y-71015794D01*
X150680639Y-71059040D01*
X150633994Y-71089807D01*
X150582159Y-71108229D01*
X150527860Y-71114441D01*
X150473823Y-71108579D01*
X150422773Y-71090778D01*
X150377438Y-71061174D01*
X150340543Y-71019902D01*
X150326789Y-70996303D01*
X150310410Y-70948658D01*
X150304138Y-70895764D01*
X150308309Y-70844332D01*
X150317614Y-70812812D01*
X150338511Y-70777407D01*
X150369704Y-70741813D01*
X150405656Y-70711840D01*
X150425123Y-70700024D01*
X150479201Y-70681139D01*
X150535960Y-70677179D01*
X150592110Y-70687225D01*
G36*
X148366146Y-70688977D02*
G01*
X148421903Y-70709437D01*
X148467140Y-70741879D01*
X148500693Y-70785189D01*
X148521395Y-70838253D01*
X148528092Y-70898519D01*
X148521052Y-70959255D01*
X148500199Y-71010649D01*
X148464801Y-71053966D01*
X148417658Y-71088416D01*
X148395611Y-71100140D01*
X148374994Y-71107092D01*
X148350083Y-71110459D01*
X148315149Y-71111423D01*
X148306367Y-71111432D01*
X148265707Y-71110350D01*
X148236399Y-71106606D01*
X148212950Y-71099248D01*
X148199956Y-71092995D01*
X148172240Y-71074436D01*
X148143763Y-71049326D01*
X148119032Y-71022262D01*
X148102554Y-70997842D01*
X148099489Y-70990519D01*
X148095523Y-70982979D01*
X148087237Y-70977644D01*
X148071605Y-70973826D01*
X148045601Y-70970834D01*
X148006197Y-70967980D01*
X147998278Y-70967479D01*
X147957075Y-70965675D01*
X147904109Y-70964495D01*
X147844539Y-70963993D01*
X147783524Y-70964223D01*
X147742473Y-70964852D01*
X147677845Y-70966631D01*
X147627569Y-70969362D01*
X147589065Y-70973708D01*
X147559753Y-70980335D01*
X147537053Y-70989908D01*
X147518386Y-71003091D01*
X147501172Y-71020549D01*
X147494144Y-71028843D01*
X147482044Y-71044763D01*
X147471990Y-71061652D01*
X147463755Y-71081244D01*
X147457109Y-71105273D01*
X147451825Y-71135475D01*
X147447675Y-71173584D01*
X147444429Y-71221334D01*
X147441861Y-71280459D01*
X147439741Y-71352694D01*
X147437842Y-71439773D01*
X147437460Y-71459557D01*
X147431652Y-71765247D01*
X147479090Y-71786964D01*
X147532202Y-71819367D01*
X147579439Y-71863533D01*
X147615762Y-71914578D01*
X147620967Y-71924554D01*
X147637428Y-71972992D01*
X147645289Y-72029841D01*
X147644330Y-72088801D01*
X147634331Y-72143568D01*
X147629157Y-72159255D01*
X147600634Y-72213794D01*
X147559561Y-72263318D01*
X147510184Y-72303298D01*
X147477424Y-72321230D01*
X147426672Y-72338312D01*
X147371466Y-72347512D01*
X147318610Y-72348041D01*
X147288119Y-72343206D01*
X147222369Y-72318279D01*
X147165505Y-72279687D01*
X147119272Y-72229117D01*
X147085414Y-72168258D01*
X147074136Y-72136114D01*
X147063248Y-72069839D01*
X147063895Y-72060703D01*
X147213399Y-72060703D01*
X147217824Y-72098553D01*
X147225574Y-72120659D01*
X147249739Y-72153806D01*
X147283005Y-72182478D01*
X147294600Y-72189620D01*
X147320086Y-72197065D01*
X147354412Y-72198870D01*
X147390549Y-72195298D01*
X147421470Y-72186617D01*
X147425665Y-72184670D01*
X147460629Y-72158149D01*
X147485719Y-72120747D01*
X147499104Y-72076483D01*
X147498950Y-72029379D01*
X147498264Y-72025428D01*
X147485753Y-71994354D01*
X147462366Y-71962678D01*
X147433030Y-71935882D01*
X147403104Y-71919584D01*
X147357408Y-71912659D01*
X147311797Y-71920060D01*
X147270444Y-71940141D01*
X147237522Y-71971257D01*
X147226054Y-71989405D01*
X147216152Y-72021607D01*
X147213399Y-72060703D01*
X147063895Y-72060703D01*
X147067918Y-72003995D01*
X147086907Y-71941159D01*
X147118975Y-71883905D01*
X147162885Y-71834809D01*
X147217395Y-71796446D01*
X147243564Y-71783983D01*
X147288866Y-71765206D01*
X147292433Y-71438370D01*
X147293458Y-71350347D01*
X147294583Y-71277337D01*
X147296033Y-71217418D01*
X147298030Y-71168671D01*
X147300798Y-71129173D01*
X147304561Y-71097006D01*
X147309543Y-71070247D01*
X147315967Y-71046977D01*
X147324057Y-71025274D01*
X147334036Y-71003219D01*
X147345876Y-70979389D01*
X147373358Y-70938845D01*
X147412312Y-70899376D01*
X147457627Y-70865490D01*
X147500326Y-70843206D01*
X147514358Y-70837804D01*
X147528123Y-70833482D01*
X147543675Y-70830103D01*
X147563068Y-70827525D01*
X147588357Y-70825610D01*
X147621595Y-70824218D01*
X147664838Y-70823211D01*
X147720138Y-70822447D01*
X147789551Y-70821789D01*
X147819492Y-70821542D01*
X148090383Y-70819348D01*
X148120058Y-70775659D01*
X148159544Y-70730198D01*
X148206358Y-70699856D01*
X148261386Y-70684171D01*
X148301035Y-70681611D01*
X148366146Y-70688977D01*
X148366146Y-70688977D01*
G37*
X148366146Y-70688977D02*
X148421903Y-70709437D01*
X148467140Y-70741879D01*
X148500693Y-70785189D01*
X148521395Y-70838253D01*
X148528092Y-70898519D01*
X148521052Y-70959255D01*
X148500199Y-71010649D01*
X148464801Y-71053966D01*
X148417658Y-71088416D01*
X148395611Y-71100140D01*
X148374994Y-71107092D01*
X148350083Y-71110459D01*
X148315149Y-71111423D01*
X148306367Y-71111432D01*
X148265707Y-71110350D01*
X148236399Y-71106606D01*
X148212950Y-71099248D01*
X148199956Y-71092995D01*
X148172240Y-71074436D01*
X148143763Y-71049326D01*
X148119032Y-71022262D01*
X148102554Y-70997842D01*
X148099489Y-70990519D01*
X148095523Y-70982979D01*
X148087237Y-70977644D01*
X148071605Y-70973826D01*
X148045601Y-70970834D01*
X148006197Y-70967980D01*
X147998278Y-70967479D01*
X147957075Y-70965675D01*
X147904109Y-70964495D01*
X147844539Y-70963993D01*
X147783524Y-70964223D01*
X147742473Y-70964852D01*
X147677845Y-70966631D01*
X147627569Y-70969362D01*
X147589065Y-70973708D01*
X147559753Y-70980335D01*
X147537053Y-70989908D01*
X147518386Y-71003091D01*
X147501172Y-71020549D01*
X147494144Y-71028843D01*
X147482044Y-71044763D01*
X147471990Y-71061652D01*
X147463755Y-71081244D01*
X147457109Y-71105273D01*
X147451825Y-71135475D01*
X147447675Y-71173584D01*
X147444429Y-71221334D01*
X147441861Y-71280459D01*
X147439741Y-71352694D01*
X147437842Y-71439773D01*
X147437460Y-71459557D01*
X147431652Y-71765247D01*
X147479090Y-71786964D01*
X147532202Y-71819367D01*
X147579439Y-71863533D01*
X147615762Y-71914578D01*
X147620967Y-71924554D01*
X147637428Y-71972992D01*
X147645289Y-72029841D01*
X147644330Y-72088801D01*
X147634331Y-72143568D01*
X147629157Y-72159255D01*
X147600634Y-72213794D01*
X147559561Y-72263318D01*
X147510184Y-72303298D01*
X147477424Y-72321230D01*
X147426672Y-72338312D01*
X147371466Y-72347512D01*
X147318610Y-72348041D01*
X147288119Y-72343206D01*
X147222369Y-72318279D01*
X147165505Y-72279687D01*
X147119272Y-72229117D01*
X147085414Y-72168258D01*
X147074136Y-72136114D01*
X147063248Y-72069839D01*
X147063895Y-72060703D01*
X147213399Y-72060703D01*
X147217824Y-72098553D01*
X147225574Y-72120659D01*
X147249739Y-72153806D01*
X147283005Y-72182478D01*
X147294600Y-72189620D01*
X147320086Y-72197065D01*
X147354412Y-72198870D01*
X147390549Y-72195298D01*
X147421470Y-72186617D01*
X147425665Y-72184670D01*
X147460629Y-72158149D01*
X147485719Y-72120747D01*
X147499104Y-72076483D01*
X147498950Y-72029379D01*
X147498264Y-72025428D01*
X147485753Y-71994354D01*
X147462366Y-71962678D01*
X147433030Y-71935882D01*
X147403104Y-71919584D01*
X147357408Y-71912659D01*
X147311797Y-71920060D01*
X147270444Y-71940141D01*
X147237522Y-71971257D01*
X147226054Y-71989405D01*
X147216152Y-72021607D01*
X147213399Y-72060703D01*
X147063895Y-72060703D01*
X147067918Y-72003995D01*
X147086907Y-71941159D01*
X147118975Y-71883905D01*
X147162885Y-71834809D01*
X147217395Y-71796446D01*
X147243564Y-71783983D01*
X147288866Y-71765206D01*
X147292433Y-71438370D01*
X147293458Y-71350347D01*
X147294583Y-71277337D01*
X147296033Y-71217418D01*
X147298030Y-71168671D01*
X147300798Y-71129173D01*
X147304561Y-71097006D01*
X147309543Y-71070247D01*
X147315967Y-71046977D01*
X147324057Y-71025274D01*
X147334036Y-71003219D01*
X147345876Y-70979389D01*
X147373358Y-70938845D01*
X147412312Y-70899376D01*
X147457627Y-70865490D01*
X147500326Y-70843206D01*
X147514358Y-70837804D01*
X147528123Y-70833482D01*
X147543675Y-70830103D01*
X147563068Y-70827525D01*
X147588357Y-70825610D01*
X147621595Y-70824218D01*
X147664838Y-70823211D01*
X147720138Y-70822447D01*
X147789551Y-70821789D01*
X147819492Y-70821542D01*
X148090383Y-70819348D01*
X148120058Y-70775659D01*
X148159544Y-70730198D01*
X148206358Y-70699856D01*
X148261386Y-70684171D01*
X148301035Y-70681611D01*
X148366146Y-70688977D01*
G36*
X149761519Y-71469657D02*
G01*
X149792250Y-71475361D01*
X149818244Y-71486015D01*
X149839877Y-71500129D01*
X149864122Y-71520083D01*
X149887178Y-71542163D01*
X149905246Y-71562656D01*
X149914527Y-71577848D01*
X149915034Y-71580613D01*
X149923125Y-71582827D01*
X149945904Y-71585084D01*
X149981124Y-71587266D01*
X150026540Y-71589252D01*
X150079905Y-71590923D01*
X150128817Y-71591988D01*
X150205216Y-71593630D01*
X150266914Y-71595855D01*
X150316144Y-71599094D01*
X150355136Y-71603779D01*
X150386124Y-71610339D01*
X150411338Y-71619206D01*
X150433011Y-71630809D01*
X150453374Y-71645580D01*
X150467184Y-71657275D01*
X150496724Y-71687602D01*
X150518467Y-71721193D01*
X150533614Y-71761325D01*
X150543365Y-71811273D01*
X150548921Y-71874311D01*
X150549284Y-71881316D01*
X150554267Y-71982232D01*
X150609300Y-72010056D01*
X150670116Y-72049005D01*
X150716662Y-72097060D01*
X150748824Y-72154035D01*
X150766488Y-72219745D01*
X150770167Y-72271467D01*
X150762390Y-72343264D01*
X150739556Y-72408076D01*
X150702412Y-72464629D01*
X150651702Y-72511647D01*
X150616483Y-72533985D01*
X150593185Y-72545774D01*
X150571866Y-72553348D01*
X150547327Y-72557796D01*
X150514372Y-72560204D01*
X150486533Y-72561175D01*
X150445434Y-72561824D01*
X150416179Y-72560569D01*
X150393719Y-72556705D01*
X150373008Y-72549526D01*
X150359533Y-72543435D01*
X150302047Y-72507708D01*
X150255335Y-72461695D01*
X150220055Y-72407840D01*
X150196866Y-72348586D01*
X150186911Y-72289267D01*
X150340204Y-72289267D01*
X150351644Y-72336597D01*
X150375623Y-72375148D01*
X150409367Y-72403368D01*
X150450104Y-72419708D01*
X150495061Y-72422620D01*
X150541463Y-72410552D01*
X150550033Y-72406529D01*
X150587851Y-72378541D01*
X150613142Y-72339660D01*
X150625237Y-72291078D01*
X150626233Y-72270495D01*
X150619508Y-72224434D01*
X150598394Y-72185876D01*
X150575353Y-72162631D01*
X150534778Y-72137979D01*
X150492198Y-72128198D01*
X150450242Y-72131872D01*
X150411537Y-72147586D01*
X150378712Y-72173923D01*
X150354397Y-72209469D01*
X150341221Y-72252808D01*
X150340204Y-72289267D01*
X150186911Y-72289267D01*
X150186426Y-72286378D01*
X150189393Y-72223659D01*
X150206424Y-72162872D01*
X150238178Y-72106460D01*
X150240881Y-72102854D01*
X150266370Y-72074319D01*
X150297755Y-72046165D01*
X150330445Y-72021932D01*
X150359851Y-72005157D01*
X150374175Y-72000107D01*
X150389304Y-71994005D01*
X150399201Y-71981830D01*
X150404520Y-71960948D01*
X150405911Y-71928721D01*
X150404028Y-71882516D01*
X150403877Y-71880074D01*
X150398684Y-71832054D01*
X150389041Y-71797754D01*
X150373397Y-71774210D01*
X150350202Y-71758458D01*
X150337574Y-71753361D01*
X150316603Y-71749382D01*
X150279339Y-71746307D01*
X150226401Y-71744166D01*
X150158404Y-71742990D01*
X150121105Y-71742778D01*
X149933477Y-71742300D01*
X149915214Y-71780028D01*
X149887943Y-71821254D01*
X149850673Y-71857309D01*
X149809355Y-71882472D01*
X149807971Y-71883059D01*
X149775655Y-71891492D01*
X149734944Y-71895086D01*
X149691812Y-71894037D01*
X149652235Y-71888540D01*
X149622186Y-71878790D01*
X149618700Y-71876872D01*
X149568661Y-71840715D01*
X149534015Y-71800397D01*
X149513305Y-71753439D01*
X149505074Y-71697363D01*
X149504793Y-71683033D01*
X149509068Y-71628792D01*
X149523203Y-71584729D01*
X149549159Y-71546042D01*
X149569275Y-71525231D01*
X149605278Y-71495888D01*
X149640950Y-71478105D01*
X149682263Y-71469620D01*
X149720300Y-71467995D01*
X149761519Y-71469657D01*
X149761519Y-71469657D01*
G37*
X149761519Y-71469657D02*
X149792250Y-71475361D01*
X149818244Y-71486015D01*
X149839877Y-71500129D01*
X149864122Y-71520083D01*
X149887178Y-71542163D01*
X149905246Y-71562656D01*
X149914527Y-71577848D01*
X149915034Y-71580613D01*
X149923125Y-71582827D01*
X149945904Y-71585084D01*
X149981124Y-71587266D01*
X150026540Y-71589252D01*
X150079905Y-71590923D01*
X150128817Y-71591988D01*
X150205216Y-71593630D01*
X150266914Y-71595855D01*
X150316144Y-71599094D01*
X150355136Y-71603779D01*
X150386124Y-71610339D01*
X150411338Y-71619206D01*
X150433011Y-71630809D01*
X150453374Y-71645580D01*
X150467184Y-71657275D01*
X150496724Y-71687602D01*
X150518467Y-71721193D01*
X150533614Y-71761325D01*
X150543365Y-71811273D01*
X150548921Y-71874311D01*
X150549284Y-71881316D01*
X150554267Y-71982232D01*
X150609300Y-72010056D01*
X150670116Y-72049005D01*
X150716662Y-72097060D01*
X150748824Y-72154035D01*
X150766488Y-72219745D01*
X150770167Y-72271467D01*
X150762390Y-72343264D01*
X150739556Y-72408076D01*
X150702412Y-72464629D01*
X150651702Y-72511647D01*
X150616483Y-72533985D01*
X150593185Y-72545774D01*
X150571866Y-72553348D01*
X150547327Y-72557796D01*
X150514372Y-72560204D01*
X150486533Y-72561175D01*
X150445434Y-72561824D01*
X150416179Y-72560569D01*
X150393719Y-72556705D01*
X150373008Y-72549526D01*
X150359533Y-72543435D01*
X150302047Y-72507708D01*
X150255335Y-72461695D01*
X150220055Y-72407840D01*
X150196866Y-72348586D01*
X150186911Y-72289267D01*
X150340204Y-72289267D01*
X150351644Y-72336597D01*
X150375623Y-72375148D01*
X150409367Y-72403368D01*
X150450104Y-72419708D01*
X150495061Y-72422620D01*
X150541463Y-72410552D01*
X150550033Y-72406529D01*
X150587851Y-72378541D01*
X150613142Y-72339660D01*
X150625237Y-72291078D01*
X150626233Y-72270495D01*
X150619508Y-72224434D01*
X150598394Y-72185876D01*
X150575353Y-72162631D01*
X150534778Y-72137979D01*
X150492198Y-72128198D01*
X150450242Y-72131872D01*
X150411537Y-72147586D01*
X150378712Y-72173923D01*
X150354397Y-72209469D01*
X150341221Y-72252808D01*
X150340204Y-72289267D01*
X150186911Y-72289267D01*
X150186426Y-72286378D01*
X150189393Y-72223659D01*
X150206424Y-72162872D01*
X150238178Y-72106460D01*
X150240881Y-72102854D01*
X150266370Y-72074319D01*
X150297755Y-72046165D01*
X150330445Y-72021932D01*
X150359851Y-72005157D01*
X150374175Y-72000107D01*
X150389304Y-71994005D01*
X150399201Y-71981830D01*
X150404520Y-71960948D01*
X150405911Y-71928721D01*
X150404028Y-71882516D01*
X150403877Y-71880074D01*
X150398684Y-71832054D01*
X150389041Y-71797754D01*
X150373397Y-71774210D01*
X150350202Y-71758458D01*
X150337574Y-71753361D01*
X150316603Y-71749382D01*
X150279339Y-71746307D01*
X150226401Y-71744166D01*
X150158404Y-71742990D01*
X150121105Y-71742778D01*
X149933477Y-71742300D01*
X149915214Y-71780028D01*
X149887943Y-71821254D01*
X149850673Y-71857309D01*
X149809355Y-71882472D01*
X149807971Y-71883059D01*
X149775655Y-71891492D01*
X149734944Y-71895086D01*
X149691812Y-71894037D01*
X149652235Y-71888540D01*
X149622186Y-71878790D01*
X149618700Y-71876872D01*
X149568661Y-71840715D01*
X149534015Y-71800397D01*
X149513305Y-71753439D01*
X149505074Y-71697363D01*
X149504793Y-71683033D01*
X149509068Y-71628792D01*
X149523203Y-71584729D01*
X149549159Y-71546042D01*
X149569275Y-71525231D01*
X149605278Y-71495888D01*
X149640950Y-71478105D01*
X149682263Y-71469620D01*
X149720300Y-71467995D01*
X149761519Y-71469657D01*
G36*
X149151137Y-71466526D02*
G01*
X149204763Y-71481965D01*
X149255429Y-71512432D01*
X149281787Y-71536266D01*
X149314868Y-71581673D01*
X149333634Y-71632389D01*
X149338612Y-71685575D01*
X149330332Y-71738394D01*
X149309323Y-71788005D01*
X149276112Y-71831570D01*
X149231229Y-71866252D01*
X149219118Y-71872770D01*
X149170631Y-71889304D01*
X149117039Y-71895127D01*
X149064787Y-71890030D01*
X149030267Y-71878878D01*
X148996658Y-71858214D01*
X148963914Y-71829176D01*
X148937146Y-71796937D01*
X148922529Y-71769854D01*
X148912565Y-71742300D01*
X148592261Y-71742300D01*
X148503505Y-71742370D01*
X148430109Y-71742724D01*
X148370499Y-71743582D01*
X148323101Y-71745162D01*
X148286340Y-71747683D01*
X148258645Y-71751362D01*
X148238439Y-71756420D01*
X148224151Y-71763075D01*
X148214206Y-71771544D01*
X148207030Y-71782047D01*
X148201050Y-71794803D01*
X148200229Y-71796757D01*
X148192976Y-71825369D01*
X148188777Y-71867749D01*
X148187834Y-71905619D01*
X148187834Y-71984815D01*
X148232284Y-72004819D01*
X148289044Y-72038919D01*
X148334780Y-72083657D01*
X148369029Y-72136554D01*
X148391330Y-72195132D01*
X148401221Y-72256913D01*
X148398239Y-72319417D01*
X148381924Y-72380168D01*
X148351813Y-72436687D01*
X148319881Y-72474823D01*
X148275677Y-72513761D01*
X148232327Y-72539580D01*
X148184580Y-72554499D01*
X148127186Y-72560740D01*
X148115867Y-72561103D01*
X148079032Y-72561161D01*
X148046499Y-72559781D01*
X148023572Y-72557241D01*
X148018500Y-72556034D01*
X147959253Y-72528547D01*
X147906147Y-72487846D01*
X147862654Y-72437224D01*
X147832244Y-72379977D01*
X147831876Y-72379007D01*
X147818954Y-72326656D01*
X147815582Y-72268175D01*
X147815824Y-72265777D01*
X147969419Y-72265777D01*
X147971022Y-72301765D01*
X147985360Y-72340701D01*
X148013478Y-72381831D01*
X148050216Y-72409097D01*
X148093652Y-72421888D01*
X148141863Y-72419592D01*
X148186472Y-72404717D01*
X148220839Y-72379824D01*
X148245275Y-72343197D01*
X148258042Y-72297919D01*
X148259518Y-72275027D01*
X148258055Y-72243822D01*
X148252003Y-72221577D01*
X148238865Y-72200447D01*
X148233657Y-72193762D01*
X148196143Y-72158056D01*
X148153832Y-72137408D01*
X148108858Y-72132364D01*
X148063356Y-72143472D01*
X148054146Y-72147799D01*
X148018957Y-72170405D01*
X147994780Y-72198918D01*
X147980723Y-72227055D01*
X147969419Y-72265777D01*
X147815824Y-72265777D01*
X147821476Y-72209836D01*
X147836350Y-72157914D01*
X147842551Y-72144467D01*
X147873198Y-72097685D01*
X147912956Y-72055548D01*
X147956807Y-72023007D01*
X147975438Y-72013303D01*
X148000745Y-72001692D01*
X148020918Y-71991990D01*
X148026967Y-71988855D01*
X148032914Y-71981458D01*
X148037414Y-71965166D01*
X148040863Y-71937537D01*
X148043656Y-71896129D01*
X148044404Y-71881115D01*
X148049589Y-71816220D01*
X148059086Y-71764749D01*
X148074061Y-71723485D01*
X148095683Y-71689211D01*
X148125088Y-71658738D01*
X148141838Y-71644504D01*
X148157997Y-71632642D01*
X148175259Y-71622909D01*
X148195318Y-71615062D01*
X148219869Y-71608858D01*
X148250605Y-71604054D01*
X148289220Y-71600406D01*
X148337409Y-71597672D01*
X148396866Y-71595607D01*
X148469284Y-71593970D01*
X148556359Y-71592517D01*
X148590000Y-71592016D01*
X148928667Y-71587049D01*
X148954282Y-71552683D01*
X148996125Y-71509194D01*
X149044456Y-71480259D01*
X149096914Y-71465997D01*
X149151137Y-71466526D01*
X149151137Y-71466526D01*
G37*
X149151137Y-71466526D02*
X149204763Y-71481965D01*
X149255429Y-71512432D01*
X149281787Y-71536266D01*
X149314868Y-71581673D01*
X149333634Y-71632389D01*
X149338612Y-71685575D01*
X149330332Y-71738394D01*
X149309323Y-71788005D01*
X149276112Y-71831570D01*
X149231229Y-71866252D01*
X149219118Y-71872770D01*
X149170631Y-71889304D01*
X149117039Y-71895127D01*
X149064787Y-71890030D01*
X149030267Y-71878878D01*
X148996658Y-71858214D01*
X148963914Y-71829176D01*
X148937146Y-71796937D01*
X148922529Y-71769854D01*
X148912565Y-71742300D01*
X148592261Y-71742300D01*
X148503505Y-71742370D01*
X148430109Y-71742724D01*
X148370499Y-71743582D01*
X148323101Y-71745162D01*
X148286340Y-71747683D01*
X148258645Y-71751362D01*
X148238439Y-71756420D01*
X148224151Y-71763075D01*
X148214206Y-71771544D01*
X148207030Y-71782047D01*
X148201050Y-71794803D01*
X148200229Y-71796757D01*
X148192976Y-71825369D01*
X148188777Y-71867749D01*
X148187834Y-71905619D01*
X148187834Y-71984815D01*
X148232284Y-72004819D01*
X148289044Y-72038919D01*
X148334780Y-72083657D01*
X148369029Y-72136554D01*
X148391330Y-72195132D01*
X148401221Y-72256913D01*
X148398239Y-72319417D01*
X148381924Y-72380168D01*
X148351813Y-72436687D01*
X148319881Y-72474823D01*
X148275677Y-72513761D01*
X148232327Y-72539580D01*
X148184580Y-72554499D01*
X148127186Y-72560740D01*
X148115867Y-72561103D01*
X148079032Y-72561161D01*
X148046499Y-72559781D01*
X148023572Y-72557241D01*
X148018500Y-72556034D01*
X147959253Y-72528547D01*
X147906147Y-72487846D01*
X147862654Y-72437224D01*
X147832244Y-72379977D01*
X147831876Y-72379007D01*
X147818954Y-72326656D01*
X147815582Y-72268175D01*
X147815824Y-72265777D01*
X147969419Y-72265777D01*
X147971022Y-72301765D01*
X147985360Y-72340701D01*
X148013478Y-72381831D01*
X148050216Y-72409097D01*
X148093652Y-72421888D01*
X148141863Y-72419592D01*
X148186472Y-72404717D01*
X148220839Y-72379824D01*
X148245275Y-72343197D01*
X148258042Y-72297919D01*
X148259518Y-72275027D01*
X148258055Y-72243822D01*
X148252003Y-72221577D01*
X148238865Y-72200447D01*
X148233657Y-72193762D01*
X148196143Y-72158056D01*
X148153832Y-72137408D01*
X148108858Y-72132364D01*
X148063356Y-72143472D01*
X148054146Y-72147799D01*
X148018957Y-72170405D01*
X147994780Y-72198918D01*
X147980723Y-72227055D01*
X147969419Y-72265777D01*
X147815824Y-72265777D01*
X147821476Y-72209836D01*
X147836350Y-72157914D01*
X147842551Y-72144467D01*
X147873198Y-72097685D01*
X147912956Y-72055548D01*
X147956807Y-72023007D01*
X147975438Y-72013303D01*
X148000745Y-72001692D01*
X148020918Y-71991990D01*
X148026967Y-71988855D01*
X148032914Y-71981458D01*
X148037414Y-71965166D01*
X148040863Y-71937537D01*
X148043656Y-71896129D01*
X148044404Y-71881115D01*
X148049589Y-71816220D01*
X148059086Y-71764749D01*
X148074061Y-71723485D01*
X148095683Y-71689211D01*
X148125088Y-71658738D01*
X148141838Y-71644504D01*
X148157997Y-71632642D01*
X148175259Y-71622909D01*
X148195318Y-71615062D01*
X148219869Y-71608858D01*
X148250605Y-71604054D01*
X148289220Y-71600406D01*
X148337409Y-71597672D01*
X148396866Y-71595607D01*
X148469284Y-71593970D01*
X148556359Y-71592517D01*
X148590000Y-71592016D01*
X148928667Y-71587049D01*
X148954282Y-71552683D01*
X148996125Y-71509194D01*
X149044456Y-71480259D01*
X149096914Y-71465997D01*
X149151137Y-71466526D01*
D11*
X145044500Y-93945500D02*
X145044500Y-93320500D01*
X145357000Y-93633000D02*
X144732000Y-93633000D01*
X144492000Y-90252437D02*
X143427563Y-89188000D01*
X144492000Y-93643563D02*
X143427563Y-94708000D01*
X144492000Y-93643563D02*
X144492000Y-93008000D01*
X144492000Y-90252437D02*
X144492000Y-90888000D01*
X143427563Y-89188000D02*
X138972000Y-89188000D01*
X143427563Y-94708000D02*
X138972000Y-94708000D01*
X138972000Y-94708000D02*
X138972000Y-93008000D01*
X138972000Y-89188000D02*
X138972000Y-90888000D01*
X130780500Y-84806500D02*
X130780500Y-86506500D01*
X130780500Y-90326500D02*
X130780500Y-88626500D01*
X135236063Y-90326500D02*
X130780500Y-90326500D01*
X135236063Y-84806500D02*
X130780500Y-84806500D01*
X136300500Y-85870937D02*
X136300500Y-86506500D01*
X136300500Y-89262063D02*
X136300500Y-88626500D01*
X136300500Y-89262063D02*
X135236063Y-90326500D01*
X136300500Y-85870937D02*
X135236063Y-84806500D01*
X137165500Y-89251500D02*
X136540500Y-89251500D01*
X136853000Y-89564000D02*
X136853000Y-88939000D01*
X109454500Y-70178500D02*
X115339500Y-70178500D01*
X109454500Y-67108500D02*
X109454500Y-70178500D01*
X115339500Y-67108500D02*
X109454500Y-67108500D01*
X134516500Y-67108500D02*
X128631500Y-67108500D01*
X128631500Y-67108500D02*
X128631500Y-70178500D01*
X128631500Y-70178500D02*
X134516500Y-70178500D01*
X104853682Y-69521744D02*
G75*
G02X105537000Y-69376500I683318J-1534756D01*
G01*
X104001574Y-71739542D02*
G75*
G02X104002000Y-70372500I1535426J683042D01*
G01*
X106220042Y-72591926D02*
G75*
G02X104853000Y-72591500I-683042J1535426D01*
G01*
X107072426Y-70373458D02*
G75*
G02X107072000Y-71740500I-1535426J-683042D01*
G01*
X105508195Y-69376247D02*
G75*
G02X106221000Y-69521500I28805J-1680253D01*
G01*
X102217000Y-71056500D02*
G75*
G03X102217000Y-71056500I-1680000J0D01*
G01*
X97217000Y-71056500D02*
G75*
G03X97217000Y-71056500I-1680000J0D01*
G01*
X108097000Y-66956500D02*
X92977000Y-66956500D01*
X108097000Y-68456500D02*
X92977000Y-68456500D01*
X108097000Y-73357500D02*
X92977000Y-73357500D01*
X108097000Y-76317500D02*
X92977000Y-76317500D01*
X108097000Y-66396500D02*
X92977000Y-66396500D01*
X108097000Y-76317500D02*
X108097000Y-66396500D01*
X92977000Y-76317500D02*
X92977000Y-66396500D01*
X99262000Y-72125500D02*
X99309000Y-72079500D01*
X101571000Y-69817500D02*
X101606000Y-69782500D01*
X99467000Y-72331500D02*
X99502000Y-72295500D01*
X101764000Y-70033500D02*
X101811000Y-69987500D01*
X94262000Y-72125500D02*
X94309000Y-72079500D01*
X96571000Y-69817500D02*
X96606000Y-69782500D01*
X94467000Y-72331500D02*
X94502000Y-72295500D01*
X96764000Y-70033500D02*
X96811000Y-69987500D01*
X108337000Y-66896500D02*
X108337000Y-66156500D01*
X108337000Y-66156500D02*
X107837000Y-66156500D01*
X120634818Y-73480256D02*
G75*
G02X119951500Y-73625500I-683318J1534756D01*
G01*
X121486926Y-71262458D02*
G75*
G02X121486500Y-72629500I-1535426J-683042D01*
G01*
X119268458Y-70410074D02*
G75*
G02X120635500Y-70410500I683042J-1535426D01*
G01*
X118416074Y-72628542D02*
G75*
G02X118416500Y-71261500I1535426J683042D01*
G01*
X119980305Y-73625753D02*
G75*
G02X119267500Y-73480500I-28805J1680253D01*
G01*
X126631500Y-71945500D02*
G75*
G03X126631500Y-71945500I-1680000J0D01*
G01*
X117391500Y-76045500D02*
X127511500Y-76045500D01*
X117391500Y-74545500D02*
X127511500Y-74545500D01*
X117391500Y-69644500D02*
X127511500Y-69644500D01*
X117391500Y-66684500D02*
X127511500Y-66684500D01*
X117391500Y-76605500D02*
X127511500Y-76605500D01*
X117391500Y-66684500D02*
X117391500Y-76605500D01*
X127511500Y-66684500D02*
X127511500Y-76605500D01*
X126226500Y-70876500D02*
X126179500Y-70922500D01*
X123917500Y-73184500D02*
X123882500Y-73219500D01*
X126021500Y-70670500D02*
X125986500Y-70706500D01*
X123724500Y-72968500D02*
X123677500Y-73014500D01*
X117151500Y-76105500D02*
X117151500Y-76845500D01*
X117151500Y-76845500D02*
X117651500Y-76845500D01*
X126139000Y-94500000D02*
X122019000Y-94500000D01*
X126139000Y-88380000D02*
X122019000Y-88380000D01*
X127394000Y-94200000D02*
X126139000Y-94200000D01*
X126139000Y-94500000D02*
X126139000Y-94200000D01*
X122019000Y-94500000D02*
X122019000Y-94200000D01*
X126139000Y-88680000D02*
X126139000Y-88380000D01*
X122019000Y-88680000D02*
X122019000Y-88380000D01*
X126139000Y-92680000D02*
X126139000Y-92200000D01*
X122019000Y-92680000D02*
X122019000Y-92200000D01*
X126139000Y-90680000D02*
X126139000Y-90200000D01*
X122019000Y-90680000D02*
X122019000Y-90200000D01*
X92643500Y-87433000D02*
X92643500Y-94033000D01*
X92643500Y-78433000D02*
X92643500Y-85033000D01*
X92643500Y-78433000D02*
X112443500Y-78433000D01*
X112443500Y-78433000D02*
X112443500Y-94033000D01*
X112443500Y-94033000D02*
X92643500Y-94033000D01*
X108193500Y-90433000D02*
X108193500Y-87983000D01*
X108193500Y-82033000D02*
X108193500Y-84533000D01*
X97593500Y-92283000D02*
X100093500Y-92283000D01*
X96693500Y-86283000D02*
X95893500Y-86283000D01*
X100093500Y-80283000D02*
X97593500Y-80283000D01*
X103493500Y-86283000D02*
X104993500Y-86283000D01*
X104993500Y-86283000D02*
X109593500Y-83783000D01*
X103493500Y-89883000D02*
X96693500Y-89883000D01*
X103493500Y-86283000D02*
X103493500Y-89883000D01*
X96693500Y-86283000D02*
X96693500Y-89883000D01*
X100093500Y-80283000D02*
X100093500Y-84483000D01*
X100093500Y-88083000D02*
X100093500Y-92283000D01*
X102093500Y-88083000D02*
X98093500Y-84483000D01*
X98093500Y-88083000D02*
X98093500Y-84483000D01*
X98093500Y-84483000D02*
X102093500Y-84483000D01*
X102093500Y-84483000D02*
X102093500Y-88083000D01*
X102093500Y-88083000D02*
X98093500Y-88083000D01*
X114214500Y-89226000D02*
X117814500Y-89226000D01*
X114176022Y-89214478D02*
G75*
G02X116014500Y-84776000I1838478J1838478D01*
G01*
X117852978Y-89214478D02*
G75*
G03X116014500Y-84776000I-1838478J1838478D01*
G01*
X111132252Y-75299500D02*
X110609748Y-75299500D01*
X111132252Y-76719500D02*
X110609748Y-76719500D01*
X114673748Y-71616500D02*
X115196252Y-71616500D01*
X114673748Y-73036500D02*
X115196252Y-73036500D01*
X121781500Y-83763752D02*
X121781500Y-83241248D01*
X123201500Y-83763752D02*
X123201500Y-83241248D01*
X121781500Y-79367748D02*
X121781500Y-79890252D01*
X123201500Y-79367748D02*
X123201500Y-79890252D01*
X136473000Y-82366752D02*
X136473000Y-81844248D01*
X135053000Y-82366752D02*
X135053000Y-81844248D01*
X111132252Y-72973000D02*
X110609748Y-72973000D01*
X111132252Y-71553000D02*
X110609748Y-71553000D01*
X129900500Y-91568000D02*
X129600500Y-91568000D01*
X129600500Y-91568000D02*
X129600500Y-94868000D01*
X129600500Y-94868000D02*
X129900500Y-94868000D01*
X132100500Y-91568000D02*
X132400500Y-91568000D01*
X132400500Y-91568000D02*
X132400500Y-94868000D01*
X132400500Y-94868000D02*
X132100500Y-94868000D01*
X129778000Y-78870500D02*
G75*
G02X127778000Y-78870500I-1000000J0D01*
G01*
X127778000Y-78870500D02*
X126128000Y-78870500D01*
X126128000Y-78870500D02*
X126128000Y-84070500D01*
X126128000Y-84070500D02*
X131428000Y-84070500D01*
X131428000Y-84070500D02*
X131428000Y-78870500D01*
X131428000Y-78870500D02*
X129778000Y-78870500D01*
X116713000Y-82951000D02*
X118663000Y-82951000D01*
X116713000Y-82951000D02*
X114763000Y-82951000D01*
X116713000Y-77831000D02*
X118663000Y-77831000D01*
X116713000Y-77831000D02*
X113263000Y-77831000D01*
X145078500Y-82227500D02*
X143818500Y-82227500D01*
X138258500Y-82227500D02*
X139518500Y-82227500D01*
X145078500Y-85987500D02*
X145078500Y-82227500D01*
X138258500Y-88237500D02*
X138258500Y-82227500D01*
X115069252Y-76719500D02*
X114546748Y-76719500D01*
X115069252Y-75299500D02*
X114546748Y-75299500D01*
X131960252Y-70727500D02*
X131437748Y-70727500D01*
X131960252Y-72147500D02*
X131437748Y-72147500D01*
X114062000Y-92209500D02*
X116922000Y-92209500D01*
X116922000Y-92209500D02*
X116922000Y-90289500D01*
X116922000Y-90289500D02*
X114062000Y-90289500D01*
X135843500Y-66026500D02*
X135843500Y-78626500D01*
X135843500Y-78626500D02*
X146193500Y-78626500D01*
X146193500Y-78626500D02*
X146193500Y-77676500D01*
X146193500Y-77676500D02*
X146693500Y-77926500D01*
X146693500Y-77926500D02*
X146693500Y-76026500D01*
X146693500Y-76026500D02*
X146693500Y-75976500D01*
X146693500Y-75976500D02*
X146193500Y-76226500D01*
X146193500Y-76226500D02*
X146193500Y-70826500D01*
X146193500Y-70826500D02*
X146693500Y-71126500D01*
X146693500Y-71126500D02*
X146693500Y-66026500D01*
X146693500Y-66026500D02*
X135843500Y-66026500D01*
X151034500Y-74662000D02*
X151034500Y-75962000D01*
X149734500Y-74662000D02*
X151034500Y-74662000D01*
X147234500Y-94062000D02*
X147234500Y-74862000D01*
X150834500Y-94062000D02*
X147234500Y-94062000D01*
X150834500Y-74862000D02*
X150834500Y-94062000D01*
X147234500Y-74862000D02*
X150834500Y-74862000D01*
D12*
X137818833Y-90400142D02*
X137771214Y-90447761D01*
X137628357Y-90495380D01*
X137533119Y-90495380D01*
X137390261Y-90447761D01*
X137295023Y-90352523D01*
X137247404Y-90257285D01*
X137199785Y-90066809D01*
X137199785Y-89923952D01*
X137247404Y-89733476D01*
X137295023Y-89638238D01*
X137390261Y-89543000D01*
X137533119Y-89495380D01*
X137628357Y-89495380D01*
X137771214Y-89543000D01*
X137818833Y-89590619D01*
X138771214Y-90495380D02*
X138199785Y-90495380D01*
X138485500Y-90495380D02*
X138485500Y-89495380D01*
X138390261Y-89638238D01*
X138295023Y-89733476D01*
X138199785Y-89781095D01*
X129500333Y-86082142D02*
X129452714Y-86129761D01*
X129309857Y-86177380D01*
X129214619Y-86177380D01*
X129071761Y-86129761D01*
X128976523Y-86034523D01*
X128928904Y-85939285D01*
X128881285Y-85748809D01*
X128881285Y-85605952D01*
X128928904Y-85415476D01*
X128976523Y-85320238D01*
X129071761Y-85225000D01*
X129214619Y-85177380D01*
X129309857Y-85177380D01*
X129452714Y-85225000D01*
X129500333Y-85272619D01*
X129881285Y-85272619D02*
X129928904Y-85225000D01*
X130024142Y-85177380D01*
X130262238Y-85177380D01*
X130357476Y-85225000D01*
X130405095Y-85272619D01*
X130452714Y-85367857D01*
X130452714Y-85463095D01*
X130405095Y-85605952D01*
X129833666Y-86177380D01*
X130452714Y-86177380D01*
X109942404Y-66819428D02*
X109942404Y-66219428D01*
X110180500Y-66219428D01*
X110323357Y-66248000D01*
X110418595Y-66305142D01*
X110466214Y-66362285D01*
X110513833Y-66476571D01*
X110513833Y-66562285D01*
X110466214Y-66676571D01*
X110418595Y-66733714D01*
X110323357Y-66790857D01*
X110180500Y-66819428D01*
X109942404Y-66819428D01*
X110894785Y-66276571D02*
X110942404Y-66248000D01*
X111037642Y-66219428D01*
X111275738Y-66219428D01*
X111370976Y-66248000D01*
X111418595Y-66276571D01*
X111466214Y-66333714D01*
X111466214Y-66390857D01*
X111418595Y-66476571D01*
X110847166Y-66819428D01*
X111466214Y-66819428D01*
X129944904Y-66819428D02*
X129944904Y-66219428D01*
X130183000Y-66219428D01*
X130325857Y-66248000D01*
X130421095Y-66305142D01*
X130468714Y-66362285D01*
X130516333Y-66476571D01*
X130516333Y-66562285D01*
X130468714Y-66676571D01*
X130421095Y-66733714D01*
X130325857Y-66790857D01*
X130183000Y-66819428D01*
X129944904Y-66819428D01*
X130849666Y-66219428D02*
X131468714Y-66219428D01*
X131135380Y-66448000D01*
X131278238Y-66448000D01*
X131373476Y-66476571D01*
X131421095Y-66505142D01*
X131468714Y-66562285D01*
X131468714Y-66705142D01*
X131421095Y-66762285D01*
X131373476Y-66790857D01*
X131278238Y-66819428D01*
X130992523Y-66819428D01*
X130897285Y-66790857D01*
X130849666Y-66762285D01*
X100203666Y-76768880D02*
X100203666Y-77483166D01*
X100156047Y-77626023D01*
X100060809Y-77721261D01*
X99917952Y-77768880D01*
X99822714Y-77768880D01*
X101203666Y-77768880D02*
X100632238Y-77768880D01*
X100917952Y-77768880D02*
X100917952Y-76768880D01*
X100822714Y-76911738D01*
X100727476Y-77006976D01*
X100632238Y-77054595D01*
X122118166Y-65137880D02*
X122118166Y-65852166D01*
X122070547Y-65995023D01*
X121975309Y-66090261D01*
X121832452Y-66137880D01*
X121737214Y-66137880D01*
X122546738Y-65233119D02*
X122594357Y-65185500D01*
X122689595Y-65137880D01*
X122927690Y-65137880D01*
X123022928Y-65185500D01*
X123070547Y-65233119D01*
X123118166Y-65328357D01*
X123118166Y-65423595D01*
X123070547Y-65566452D01*
X122499119Y-66137880D01*
X123118166Y-66137880D01*
X123555166Y-95492928D02*
X123555166Y-95921500D01*
X123507547Y-96007214D01*
X123412309Y-96064357D01*
X123269452Y-96092928D01*
X123174214Y-96092928D01*
X123936119Y-95492928D02*
X124555166Y-95492928D01*
X124221833Y-95721500D01*
X124364690Y-95721500D01*
X124459928Y-95750071D01*
X124507547Y-95778642D01*
X124555166Y-95835785D01*
X124555166Y-95978642D01*
X124507547Y-96035785D01*
X124459928Y-96064357D01*
X124364690Y-96092928D01*
X124078976Y-96092928D01*
X123983738Y-96064357D01*
X123936119Y-96035785D01*
X101405404Y-95885380D02*
X101405404Y-94885380D01*
X101976833Y-95885380D02*
X101548261Y-95313952D01*
X101976833Y-94885380D02*
X101405404Y-95456809D01*
X102357785Y-94980619D02*
X102405404Y-94933000D01*
X102500642Y-94885380D01*
X102738738Y-94885380D01*
X102833976Y-94933000D01*
X102881595Y-94980619D01*
X102929214Y-95075857D01*
X102929214Y-95171095D01*
X102881595Y-95313952D01*
X102310166Y-95885380D01*
X102929214Y-95885380D01*
X119665761Y-87225119D02*
X119570523Y-87177500D01*
X119475285Y-87082261D01*
X119332428Y-86939404D01*
X119237190Y-86891785D01*
X119141952Y-86891785D01*
X119189571Y-87129880D02*
X119094333Y-87082261D01*
X118999095Y-86987023D01*
X118951476Y-86796547D01*
X118951476Y-86463214D01*
X118999095Y-86272738D01*
X119094333Y-86177500D01*
X119189571Y-86129880D01*
X119380047Y-86129880D01*
X119475285Y-86177500D01*
X119570523Y-86272738D01*
X119618142Y-86463214D01*
X119618142Y-86796547D01*
X119570523Y-86987023D01*
X119475285Y-87082261D01*
X119380047Y-87129880D01*
X119189571Y-87129880D01*
X120570523Y-87129880D02*
X119999095Y-87129880D01*
X120284809Y-87129880D02*
X120284809Y-86129880D01*
X120189571Y-86272738D01*
X120094333Y-86367976D01*
X119999095Y-86415595D01*
X110704333Y-78111880D02*
X110371000Y-77635690D01*
X110132904Y-78111880D02*
X110132904Y-77111880D01*
X110513857Y-77111880D01*
X110609095Y-77159500D01*
X110656714Y-77207119D01*
X110704333Y-77302357D01*
X110704333Y-77445214D01*
X110656714Y-77540452D01*
X110609095Y-77588071D01*
X110513857Y-77635690D01*
X110132904Y-77635690D01*
X111656714Y-78111880D02*
X111085285Y-78111880D01*
X111371000Y-78111880D02*
X111371000Y-77111880D01*
X111275761Y-77254738D01*
X111180523Y-77349976D01*
X111085285Y-77397595D01*
X115593833Y-71137428D02*
X115260500Y-70851714D01*
X115022404Y-71137428D02*
X115022404Y-70537428D01*
X115403357Y-70537428D01*
X115498595Y-70566000D01*
X115546214Y-70594571D01*
X115593833Y-70651714D01*
X115593833Y-70737428D01*
X115546214Y-70794571D01*
X115498595Y-70823142D01*
X115403357Y-70851714D01*
X115022404Y-70851714D01*
X115974785Y-70594571D02*
X116022404Y-70566000D01*
X116117642Y-70537428D01*
X116355738Y-70537428D01*
X116450976Y-70566000D01*
X116498595Y-70594571D01*
X116546214Y-70651714D01*
X116546214Y-70708857D01*
X116498595Y-70794571D01*
X115927166Y-71137428D01*
X116546214Y-71137428D01*
X122197833Y-86494880D02*
X121864500Y-86018690D01*
X121626404Y-86494880D02*
X121626404Y-85494880D01*
X122007357Y-85494880D01*
X122102595Y-85542500D01*
X122150214Y-85590119D01*
X122197833Y-85685357D01*
X122197833Y-85828214D01*
X122150214Y-85923452D01*
X122102595Y-85971071D01*
X122007357Y-86018690D01*
X121626404Y-86018690D01*
X122531166Y-85494880D02*
X123150214Y-85494880D01*
X122816880Y-85875833D01*
X122959738Y-85875833D01*
X123054976Y-85923452D01*
X123102595Y-85971071D01*
X123150214Y-86066309D01*
X123150214Y-86304404D01*
X123102595Y-86399642D01*
X123054976Y-86447261D01*
X122959738Y-86494880D01*
X122674023Y-86494880D01*
X122578785Y-86447261D01*
X122531166Y-86399642D01*
X124166333Y-78557380D02*
X123833000Y-78081190D01*
X123594904Y-78557380D02*
X123594904Y-77557380D01*
X123975857Y-77557380D01*
X124071095Y-77605000D01*
X124118714Y-77652619D01*
X124166333Y-77747857D01*
X124166333Y-77890714D01*
X124118714Y-77985952D01*
X124071095Y-78033571D01*
X123975857Y-78081190D01*
X123594904Y-78081190D01*
X125023476Y-77890714D02*
X125023476Y-78557380D01*
X124785380Y-77509761D02*
X124547285Y-78224047D01*
X125166333Y-78224047D01*
X135405833Y-79954380D02*
X135072500Y-79478190D01*
X134834404Y-79954380D02*
X134834404Y-78954380D01*
X135215357Y-78954380D01*
X135310595Y-79002000D01*
X135358214Y-79049619D01*
X135405833Y-79144857D01*
X135405833Y-79287714D01*
X135358214Y-79382952D01*
X135310595Y-79430571D01*
X135215357Y-79478190D01*
X134834404Y-79478190D01*
X136310595Y-78954380D02*
X135834404Y-78954380D01*
X135786785Y-79430571D01*
X135834404Y-79382952D01*
X135929642Y-79335333D01*
X136167738Y-79335333D01*
X136262976Y-79382952D01*
X136310595Y-79430571D01*
X136358214Y-79525809D01*
X136358214Y-79763904D01*
X136310595Y-79859142D01*
X136262976Y-79906761D01*
X136167738Y-79954380D01*
X135929642Y-79954380D01*
X135834404Y-79906761D01*
X135786785Y-79859142D01*
X109561333Y-71200928D02*
X109228000Y-70915214D01*
X108989904Y-71200928D02*
X108989904Y-70600928D01*
X109370857Y-70600928D01*
X109466095Y-70629500D01*
X109513714Y-70658071D01*
X109561333Y-70715214D01*
X109561333Y-70800928D01*
X109513714Y-70858071D01*
X109466095Y-70886642D01*
X109370857Y-70915214D01*
X108989904Y-70915214D01*
X110418476Y-70600928D02*
X110228000Y-70600928D01*
X110132761Y-70629500D01*
X110085142Y-70658071D01*
X109989904Y-70743785D01*
X109942285Y-70858071D01*
X109942285Y-71086642D01*
X109989904Y-71143785D01*
X110037523Y-71172357D01*
X110132761Y-71200928D01*
X110323238Y-71200928D01*
X110418476Y-71172357D01*
X110466095Y-71143785D01*
X110513714Y-71086642D01*
X110513714Y-70943785D01*
X110466095Y-70886642D01*
X110418476Y-70858071D01*
X110323238Y-70829500D01*
X110132761Y-70829500D01*
X110037523Y-70858071D01*
X109989904Y-70886642D01*
X109942285Y-70943785D01*
X129540166Y-96699357D02*
X129683023Y-96727928D01*
X129921119Y-96727928D01*
X130016357Y-96699357D01*
X130063976Y-96670785D01*
X130111595Y-96613642D01*
X130111595Y-96556500D01*
X130063976Y-96499357D01*
X130016357Y-96470785D01*
X129921119Y-96442214D01*
X129730642Y-96413642D01*
X129635404Y-96385071D01*
X129587785Y-96356500D01*
X129540166Y-96299357D01*
X129540166Y-96242214D01*
X129587785Y-96185071D01*
X129635404Y-96156500D01*
X129730642Y-96127928D01*
X129968738Y-96127928D01*
X130111595Y-96156500D01*
X130444928Y-96127928D02*
X130683023Y-96727928D01*
X130873500Y-96299357D01*
X131063976Y-96727928D01*
X131302071Y-96127928D01*
X132206833Y-96727928D02*
X131635404Y-96727928D01*
X131921119Y-96727928D02*
X131921119Y-96127928D01*
X131825880Y-96213642D01*
X131730642Y-96270785D01*
X131635404Y-96299357D01*
X124015595Y-84542380D02*
X124015595Y-85351904D01*
X124063214Y-85447142D01*
X124110833Y-85494761D01*
X124206071Y-85542380D01*
X124396547Y-85542380D01*
X124491785Y-85494761D01*
X124539404Y-85447142D01*
X124587023Y-85351904D01*
X124587023Y-84542380D01*
X125587023Y-85542380D02*
X125015595Y-85542380D01*
X125301309Y-85542380D02*
X125301309Y-84542380D01*
X125206071Y-84685238D01*
X125110833Y-84780476D01*
X125015595Y-84828095D01*
X118237095Y-83272380D02*
X118237095Y-84081904D01*
X118284714Y-84177142D01*
X118332333Y-84224761D01*
X118427571Y-84272380D01*
X118618047Y-84272380D01*
X118713285Y-84224761D01*
X118760904Y-84177142D01*
X118808523Y-84081904D01*
X118808523Y-83272380D01*
X119237095Y-83367619D02*
X119284714Y-83320000D01*
X119379952Y-83272380D01*
X119618047Y-83272380D01*
X119713285Y-83320000D01*
X119760904Y-83367619D01*
X119808523Y-83462857D01*
X119808523Y-83558095D01*
X119760904Y-83700952D01*
X119189476Y-84272380D01*
X119808523Y-84272380D01*
X143446595Y-78382880D02*
X143446595Y-79192404D01*
X143494214Y-79287642D01*
X143541833Y-79335261D01*
X143637071Y-79382880D01*
X143827547Y-79382880D01*
X143922785Y-79335261D01*
X143970404Y-79287642D01*
X144018023Y-79192404D01*
X144018023Y-78382880D01*
X144398976Y-78382880D02*
X145018023Y-78382880D01*
X144684690Y-78763833D01*
X144827547Y-78763833D01*
X144922785Y-78811452D01*
X144970404Y-78859071D01*
X145018023Y-78954309D01*
X145018023Y-79192404D01*
X144970404Y-79287642D01*
X144922785Y-79335261D01*
X144827547Y-79382880D01*
X144541833Y-79382880D01*
X144446595Y-79335261D01*
X144398976Y-79287642D01*
X114641333Y-78111880D02*
X114308000Y-77635690D01*
X114069904Y-78111880D02*
X114069904Y-77111880D01*
X114450857Y-77111880D01*
X114546095Y-77159500D01*
X114593714Y-77207119D01*
X114641333Y-77302357D01*
X114641333Y-77445214D01*
X114593714Y-77540452D01*
X114546095Y-77588071D01*
X114450857Y-77635690D01*
X114069904Y-77635690D01*
X114974666Y-77111880D02*
X115641333Y-77111880D01*
X115212761Y-78111880D01*
X131532333Y-73539880D02*
X131199000Y-73063690D01*
X130960904Y-73539880D02*
X130960904Y-72539880D01*
X131341857Y-72539880D01*
X131437095Y-72587500D01*
X131484714Y-72635119D01*
X131532333Y-72730357D01*
X131532333Y-72873214D01*
X131484714Y-72968452D01*
X131437095Y-73016071D01*
X131341857Y-73063690D01*
X130960904Y-73063690D01*
X132103761Y-72968452D02*
X132008523Y-72920833D01*
X131960904Y-72873214D01*
X131913285Y-72777976D01*
X131913285Y-72730357D01*
X131960904Y-72635119D01*
X132008523Y-72587500D01*
X132103761Y-72539880D01*
X132294238Y-72539880D01*
X132389476Y-72587500D01*
X132437095Y-72635119D01*
X132484714Y-72730357D01*
X132484714Y-72777976D01*
X132437095Y-72873214D01*
X132389476Y-72920833D01*
X132294238Y-72968452D01*
X132103761Y-72968452D01*
X132008523Y-73016071D01*
X131960904Y-73063690D01*
X131913285Y-73158928D01*
X131913285Y-73349404D01*
X131960904Y-73444642D01*
X132008523Y-73492261D01*
X132103761Y-73539880D01*
X132294238Y-73539880D01*
X132389476Y-73492261D01*
X132437095Y-73444642D01*
X132484714Y-73349404D01*
X132484714Y-73158928D01*
X132437095Y-73063690D01*
X132389476Y-73016071D01*
X132294238Y-72968452D01*
X117244904Y-91511380D02*
X117244904Y-90511380D01*
X117483000Y-90511380D01*
X117625857Y-90559000D01*
X117721095Y-90654238D01*
X117768714Y-90749476D01*
X117816333Y-90939952D01*
X117816333Y-91082809D01*
X117768714Y-91273285D01*
X117721095Y-91368523D01*
X117625857Y-91463761D01*
X117483000Y-91511380D01*
X117244904Y-91511380D01*
X118768714Y-91511380D02*
X118197285Y-91511380D01*
X118483000Y-91511380D02*
X118483000Y-90511380D01*
X118387761Y-90654238D01*
X118292523Y-90749476D01*
X118197285Y-90797095D01*
X136240166Y-64788880D02*
X136240166Y-65503166D01*
X136192547Y-65646023D01*
X136097309Y-65741261D01*
X135954452Y-65788880D01*
X135859214Y-65788880D01*
X137144928Y-65122214D02*
X137144928Y-65788880D01*
X136906833Y-64741261D02*
X136668738Y-65455547D01*
X137287785Y-65455547D01*
X152086880Y-85400095D02*
X151086880Y-85400095D01*
X151086880Y-85162000D01*
X151134500Y-85019142D01*
X151229738Y-84923904D01*
X151324976Y-84876285D01*
X151515452Y-84828666D01*
X151658309Y-84828666D01*
X151848785Y-84876285D01*
X151944023Y-84923904D01*
X152039261Y-85019142D01*
X152086880Y-85162000D01*
X152086880Y-85400095D01*
X151420214Y-83971523D02*
X152086880Y-83971523D01*
X151039261Y-84209619D02*
X151753547Y-84447714D01*
X151753547Y-83828666D01*
M02*
