G04 #@! TF.GenerationSoftware,KiCad,Pcbnew,(5.1.2)-1*
G04 #@! TF.CreationDate,2019-07-04T14:52:25+03:00*
G04 #@! TF.ProjectId,Elevator_FirePanel Board,456c6576-6174-46f7-925f-466972655061,rev?*
G04 #@! TF.SameCoordinates,Original*
G04 #@! TF.FileFunction,Paste,Top*
G04 #@! TF.FilePolarity,Positive*
%FSLAX46Y46*%
G04 Gerber Fmt 4.6, Leading zero omitted, Abs format (unit mm)*
G04 Created by KiCad (PCBNEW (5.1.2)-1) date 2019-07-04 14:52:25*
%MOMM*%
%LPD*%
G04 APERTURE LIST*
%ADD10C,0.100000*%
%ADD11C,1.600000*%
%ADD12C,1.700000*%
%ADD13R,2.580000X1.000000*%
%ADD14C,1.150000*%
%ADD15R,1.700000X0.900000*%
%ADD16C,0.600000*%
%ADD17R,3.800000X2.000000*%
%ADD18R,1.500000X2.000000*%
G04 APERTURE END LIST*
D10*
G36*
X140806504Y-91149204D02*
G01*
X140830773Y-91152804D01*
X140854571Y-91158765D01*
X140877671Y-91167030D01*
X140899849Y-91177520D01*
X140920893Y-91190133D01*
X140940598Y-91204747D01*
X140958777Y-91221223D01*
X140975253Y-91239402D01*
X140989867Y-91259107D01*
X141002480Y-91280151D01*
X141012970Y-91302329D01*
X141021235Y-91325429D01*
X141027196Y-91349227D01*
X141030796Y-91373496D01*
X141032000Y-91398000D01*
X141032000Y-92498000D01*
X141030796Y-92522504D01*
X141027196Y-92546773D01*
X141021235Y-92570571D01*
X141012970Y-92593671D01*
X141002480Y-92615849D01*
X140989867Y-92636893D01*
X140975253Y-92656598D01*
X140958777Y-92674777D01*
X140940598Y-92691253D01*
X140920893Y-92705867D01*
X140899849Y-92718480D01*
X140877671Y-92728970D01*
X140854571Y-92737235D01*
X140830773Y-92743196D01*
X140806504Y-92746796D01*
X140782000Y-92748000D01*
X138282000Y-92748000D01*
X138257496Y-92746796D01*
X138233227Y-92743196D01*
X138209429Y-92737235D01*
X138186329Y-92728970D01*
X138164151Y-92718480D01*
X138143107Y-92705867D01*
X138123402Y-92691253D01*
X138105223Y-92674777D01*
X138088747Y-92656598D01*
X138074133Y-92636893D01*
X138061520Y-92615849D01*
X138051030Y-92593671D01*
X138042765Y-92570571D01*
X138036804Y-92546773D01*
X138033204Y-92522504D01*
X138032000Y-92498000D01*
X138032000Y-91398000D01*
X138033204Y-91373496D01*
X138036804Y-91349227D01*
X138042765Y-91325429D01*
X138051030Y-91302329D01*
X138061520Y-91280151D01*
X138074133Y-91259107D01*
X138088747Y-91239402D01*
X138105223Y-91221223D01*
X138123402Y-91204747D01*
X138143107Y-91190133D01*
X138164151Y-91177520D01*
X138186329Y-91167030D01*
X138209429Y-91158765D01*
X138233227Y-91152804D01*
X138257496Y-91149204D01*
X138282000Y-91148000D01*
X140782000Y-91148000D01*
X140806504Y-91149204D01*
X140806504Y-91149204D01*
G37*
D11*
X139532000Y-91948000D03*
D10*
G36*
X145206504Y-91149204D02*
G01*
X145230773Y-91152804D01*
X145254571Y-91158765D01*
X145277671Y-91167030D01*
X145299849Y-91177520D01*
X145320893Y-91190133D01*
X145340598Y-91204747D01*
X145358777Y-91221223D01*
X145375253Y-91239402D01*
X145389867Y-91259107D01*
X145402480Y-91280151D01*
X145412970Y-91302329D01*
X145421235Y-91325429D01*
X145427196Y-91349227D01*
X145430796Y-91373496D01*
X145432000Y-91398000D01*
X145432000Y-92498000D01*
X145430796Y-92522504D01*
X145427196Y-92546773D01*
X145421235Y-92570571D01*
X145412970Y-92593671D01*
X145402480Y-92615849D01*
X145389867Y-92636893D01*
X145375253Y-92656598D01*
X145358777Y-92674777D01*
X145340598Y-92691253D01*
X145320893Y-92705867D01*
X145299849Y-92718480D01*
X145277671Y-92728970D01*
X145254571Y-92737235D01*
X145230773Y-92743196D01*
X145206504Y-92746796D01*
X145182000Y-92748000D01*
X142682000Y-92748000D01*
X142657496Y-92746796D01*
X142633227Y-92743196D01*
X142609429Y-92737235D01*
X142586329Y-92728970D01*
X142564151Y-92718480D01*
X142543107Y-92705867D01*
X142523402Y-92691253D01*
X142505223Y-92674777D01*
X142488747Y-92656598D01*
X142474133Y-92636893D01*
X142461520Y-92615849D01*
X142451030Y-92593671D01*
X142442765Y-92570571D01*
X142436804Y-92546773D01*
X142433204Y-92522504D01*
X142432000Y-92498000D01*
X142432000Y-91398000D01*
X142433204Y-91373496D01*
X142436804Y-91349227D01*
X142442765Y-91325429D01*
X142451030Y-91302329D01*
X142461520Y-91280151D01*
X142474133Y-91259107D01*
X142488747Y-91239402D01*
X142505223Y-91221223D01*
X142523402Y-91204747D01*
X142543107Y-91190133D01*
X142564151Y-91177520D01*
X142586329Y-91167030D01*
X142609429Y-91158765D01*
X142633227Y-91152804D01*
X142657496Y-91149204D01*
X142682000Y-91148000D01*
X145182000Y-91148000D01*
X145206504Y-91149204D01*
X145206504Y-91149204D01*
G37*
D11*
X143932000Y-91948000D03*
D10*
G36*
X137015004Y-86767704D02*
G01*
X137039273Y-86771304D01*
X137063071Y-86777265D01*
X137086171Y-86785530D01*
X137108349Y-86796020D01*
X137129393Y-86808633D01*
X137149098Y-86823247D01*
X137167277Y-86839723D01*
X137183753Y-86857902D01*
X137198367Y-86877607D01*
X137210980Y-86898651D01*
X137221470Y-86920829D01*
X137229735Y-86943929D01*
X137235696Y-86967727D01*
X137239296Y-86991996D01*
X137240500Y-87016500D01*
X137240500Y-88116500D01*
X137239296Y-88141004D01*
X137235696Y-88165273D01*
X137229735Y-88189071D01*
X137221470Y-88212171D01*
X137210980Y-88234349D01*
X137198367Y-88255393D01*
X137183753Y-88275098D01*
X137167277Y-88293277D01*
X137149098Y-88309753D01*
X137129393Y-88324367D01*
X137108349Y-88336980D01*
X137086171Y-88347470D01*
X137063071Y-88355735D01*
X137039273Y-88361696D01*
X137015004Y-88365296D01*
X136990500Y-88366500D01*
X134490500Y-88366500D01*
X134465996Y-88365296D01*
X134441727Y-88361696D01*
X134417929Y-88355735D01*
X134394829Y-88347470D01*
X134372651Y-88336980D01*
X134351607Y-88324367D01*
X134331902Y-88309753D01*
X134313723Y-88293277D01*
X134297247Y-88275098D01*
X134282633Y-88255393D01*
X134270020Y-88234349D01*
X134259530Y-88212171D01*
X134251265Y-88189071D01*
X134245304Y-88165273D01*
X134241704Y-88141004D01*
X134240500Y-88116500D01*
X134240500Y-87016500D01*
X134241704Y-86991996D01*
X134245304Y-86967727D01*
X134251265Y-86943929D01*
X134259530Y-86920829D01*
X134270020Y-86898651D01*
X134282633Y-86877607D01*
X134297247Y-86857902D01*
X134313723Y-86839723D01*
X134331902Y-86823247D01*
X134351607Y-86808633D01*
X134372651Y-86796020D01*
X134394829Y-86785530D01*
X134417929Y-86777265D01*
X134441727Y-86771304D01*
X134465996Y-86767704D01*
X134490500Y-86766500D01*
X136990500Y-86766500D01*
X137015004Y-86767704D01*
X137015004Y-86767704D01*
G37*
D11*
X135740500Y-87566500D03*
D10*
G36*
X132615004Y-86767704D02*
G01*
X132639273Y-86771304D01*
X132663071Y-86777265D01*
X132686171Y-86785530D01*
X132708349Y-86796020D01*
X132729393Y-86808633D01*
X132749098Y-86823247D01*
X132767277Y-86839723D01*
X132783753Y-86857902D01*
X132798367Y-86877607D01*
X132810980Y-86898651D01*
X132821470Y-86920829D01*
X132829735Y-86943929D01*
X132835696Y-86967727D01*
X132839296Y-86991996D01*
X132840500Y-87016500D01*
X132840500Y-88116500D01*
X132839296Y-88141004D01*
X132835696Y-88165273D01*
X132829735Y-88189071D01*
X132821470Y-88212171D01*
X132810980Y-88234349D01*
X132798367Y-88255393D01*
X132783753Y-88275098D01*
X132767277Y-88293277D01*
X132749098Y-88309753D01*
X132729393Y-88324367D01*
X132708349Y-88336980D01*
X132686171Y-88347470D01*
X132663071Y-88355735D01*
X132639273Y-88361696D01*
X132615004Y-88365296D01*
X132590500Y-88366500D01*
X130090500Y-88366500D01*
X130065996Y-88365296D01*
X130041727Y-88361696D01*
X130017929Y-88355735D01*
X129994829Y-88347470D01*
X129972651Y-88336980D01*
X129951607Y-88324367D01*
X129931902Y-88309753D01*
X129913723Y-88293277D01*
X129897247Y-88275098D01*
X129882633Y-88255393D01*
X129870020Y-88234349D01*
X129859530Y-88212171D01*
X129851265Y-88189071D01*
X129845304Y-88165273D01*
X129841704Y-88141004D01*
X129840500Y-88116500D01*
X129840500Y-87016500D01*
X129841704Y-86991996D01*
X129845304Y-86967727D01*
X129851265Y-86943929D01*
X129859530Y-86920829D01*
X129870020Y-86898651D01*
X129882633Y-86877607D01*
X129897247Y-86857902D01*
X129913723Y-86839723D01*
X129931902Y-86823247D01*
X129951607Y-86808633D01*
X129972651Y-86796020D01*
X129994829Y-86785530D01*
X130017929Y-86777265D01*
X130041727Y-86771304D01*
X130065996Y-86767704D01*
X130090500Y-86766500D01*
X132590500Y-86766500D01*
X132615004Y-86767704D01*
X132615004Y-86767704D01*
G37*
D11*
X131340500Y-87566500D03*
D10*
G36*
X115739004Y-67369704D02*
G01*
X115763273Y-67373304D01*
X115787071Y-67379265D01*
X115810171Y-67387530D01*
X115832349Y-67398020D01*
X115853393Y-67410633D01*
X115873098Y-67425247D01*
X115891277Y-67441723D01*
X115907753Y-67459902D01*
X115922367Y-67479607D01*
X115934980Y-67500651D01*
X115945470Y-67522829D01*
X115953735Y-67545929D01*
X115959696Y-67569727D01*
X115963296Y-67593996D01*
X115964500Y-67618500D01*
X115964500Y-69668500D01*
X115963296Y-69693004D01*
X115959696Y-69717273D01*
X115953735Y-69741071D01*
X115945470Y-69764171D01*
X115934980Y-69786349D01*
X115922367Y-69807393D01*
X115907753Y-69827098D01*
X115891277Y-69845277D01*
X115873098Y-69861753D01*
X115853393Y-69876367D01*
X115832349Y-69888980D01*
X115810171Y-69899470D01*
X115787071Y-69907735D01*
X115763273Y-69913696D01*
X115739004Y-69917296D01*
X115714500Y-69918500D01*
X114514500Y-69918500D01*
X114489996Y-69917296D01*
X114465727Y-69913696D01*
X114441929Y-69907735D01*
X114418829Y-69899470D01*
X114396651Y-69888980D01*
X114375607Y-69876367D01*
X114355902Y-69861753D01*
X114337723Y-69845277D01*
X114321247Y-69827098D01*
X114306633Y-69807393D01*
X114294020Y-69786349D01*
X114283530Y-69764171D01*
X114275265Y-69741071D01*
X114269304Y-69717273D01*
X114265704Y-69693004D01*
X114264500Y-69668500D01*
X114264500Y-67618500D01*
X114265704Y-67593996D01*
X114269304Y-67569727D01*
X114275265Y-67545929D01*
X114283530Y-67522829D01*
X114294020Y-67500651D01*
X114306633Y-67479607D01*
X114321247Y-67459902D01*
X114337723Y-67441723D01*
X114355902Y-67425247D01*
X114375607Y-67410633D01*
X114396651Y-67398020D01*
X114418829Y-67387530D01*
X114441929Y-67379265D01*
X114465727Y-67373304D01*
X114489996Y-67369704D01*
X114514500Y-67368500D01*
X115714500Y-67368500D01*
X115739004Y-67369704D01*
X115739004Y-67369704D01*
G37*
D12*
X115114500Y-68643500D03*
D10*
G36*
X111189004Y-67369704D02*
G01*
X111213273Y-67373304D01*
X111237071Y-67379265D01*
X111260171Y-67387530D01*
X111282349Y-67398020D01*
X111303393Y-67410633D01*
X111323098Y-67425247D01*
X111341277Y-67441723D01*
X111357753Y-67459902D01*
X111372367Y-67479607D01*
X111384980Y-67500651D01*
X111395470Y-67522829D01*
X111403735Y-67545929D01*
X111409696Y-67569727D01*
X111413296Y-67593996D01*
X111414500Y-67618500D01*
X111414500Y-69668500D01*
X111413296Y-69693004D01*
X111409696Y-69717273D01*
X111403735Y-69741071D01*
X111395470Y-69764171D01*
X111384980Y-69786349D01*
X111372367Y-69807393D01*
X111357753Y-69827098D01*
X111341277Y-69845277D01*
X111323098Y-69861753D01*
X111303393Y-69876367D01*
X111282349Y-69888980D01*
X111260171Y-69899470D01*
X111237071Y-69907735D01*
X111213273Y-69913696D01*
X111189004Y-69917296D01*
X111164500Y-69918500D01*
X109964500Y-69918500D01*
X109939996Y-69917296D01*
X109915727Y-69913696D01*
X109891929Y-69907735D01*
X109868829Y-69899470D01*
X109846651Y-69888980D01*
X109825607Y-69876367D01*
X109805902Y-69861753D01*
X109787723Y-69845277D01*
X109771247Y-69827098D01*
X109756633Y-69807393D01*
X109744020Y-69786349D01*
X109733530Y-69764171D01*
X109725265Y-69741071D01*
X109719304Y-69717273D01*
X109715704Y-69693004D01*
X109714500Y-69668500D01*
X109714500Y-67618500D01*
X109715704Y-67593996D01*
X109719304Y-67569727D01*
X109725265Y-67545929D01*
X109733530Y-67522829D01*
X109744020Y-67500651D01*
X109756633Y-67479607D01*
X109771247Y-67459902D01*
X109787723Y-67441723D01*
X109805902Y-67425247D01*
X109825607Y-67410633D01*
X109846651Y-67398020D01*
X109868829Y-67387530D01*
X109891929Y-67379265D01*
X109915727Y-67373304D01*
X109939996Y-67369704D01*
X109964500Y-67368500D01*
X111164500Y-67368500D01*
X111189004Y-67369704D01*
X111189004Y-67369704D01*
G37*
D12*
X110564500Y-68643500D03*
D10*
G36*
X130366004Y-67369704D02*
G01*
X130390273Y-67373304D01*
X130414071Y-67379265D01*
X130437171Y-67387530D01*
X130459349Y-67398020D01*
X130480393Y-67410633D01*
X130500098Y-67425247D01*
X130518277Y-67441723D01*
X130534753Y-67459902D01*
X130549367Y-67479607D01*
X130561980Y-67500651D01*
X130572470Y-67522829D01*
X130580735Y-67545929D01*
X130586696Y-67569727D01*
X130590296Y-67593996D01*
X130591500Y-67618500D01*
X130591500Y-69668500D01*
X130590296Y-69693004D01*
X130586696Y-69717273D01*
X130580735Y-69741071D01*
X130572470Y-69764171D01*
X130561980Y-69786349D01*
X130549367Y-69807393D01*
X130534753Y-69827098D01*
X130518277Y-69845277D01*
X130500098Y-69861753D01*
X130480393Y-69876367D01*
X130459349Y-69888980D01*
X130437171Y-69899470D01*
X130414071Y-69907735D01*
X130390273Y-69913696D01*
X130366004Y-69917296D01*
X130341500Y-69918500D01*
X129141500Y-69918500D01*
X129116996Y-69917296D01*
X129092727Y-69913696D01*
X129068929Y-69907735D01*
X129045829Y-69899470D01*
X129023651Y-69888980D01*
X129002607Y-69876367D01*
X128982902Y-69861753D01*
X128964723Y-69845277D01*
X128948247Y-69827098D01*
X128933633Y-69807393D01*
X128921020Y-69786349D01*
X128910530Y-69764171D01*
X128902265Y-69741071D01*
X128896304Y-69717273D01*
X128892704Y-69693004D01*
X128891500Y-69668500D01*
X128891500Y-67618500D01*
X128892704Y-67593996D01*
X128896304Y-67569727D01*
X128902265Y-67545929D01*
X128910530Y-67522829D01*
X128921020Y-67500651D01*
X128933633Y-67479607D01*
X128948247Y-67459902D01*
X128964723Y-67441723D01*
X128982902Y-67425247D01*
X129002607Y-67410633D01*
X129023651Y-67398020D01*
X129045829Y-67387530D01*
X129068929Y-67379265D01*
X129092727Y-67373304D01*
X129116996Y-67369704D01*
X129141500Y-67368500D01*
X130341500Y-67368500D01*
X130366004Y-67369704D01*
X130366004Y-67369704D01*
G37*
D12*
X129741500Y-68643500D03*
D10*
G36*
X134916004Y-67369704D02*
G01*
X134940273Y-67373304D01*
X134964071Y-67379265D01*
X134987171Y-67387530D01*
X135009349Y-67398020D01*
X135030393Y-67410633D01*
X135050098Y-67425247D01*
X135068277Y-67441723D01*
X135084753Y-67459902D01*
X135099367Y-67479607D01*
X135111980Y-67500651D01*
X135122470Y-67522829D01*
X135130735Y-67545929D01*
X135136696Y-67569727D01*
X135140296Y-67593996D01*
X135141500Y-67618500D01*
X135141500Y-69668500D01*
X135140296Y-69693004D01*
X135136696Y-69717273D01*
X135130735Y-69741071D01*
X135122470Y-69764171D01*
X135111980Y-69786349D01*
X135099367Y-69807393D01*
X135084753Y-69827098D01*
X135068277Y-69845277D01*
X135050098Y-69861753D01*
X135030393Y-69876367D01*
X135009349Y-69888980D01*
X134987171Y-69899470D01*
X134964071Y-69907735D01*
X134940273Y-69913696D01*
X134916004Y-69917296D01*
X134891500Y-69918500D01*
X133691500Y-69918500D01*
X133666996Y-69917296D01*
X133642727Y-69913696D01*
X133618929Y-69907735D01*
X133595829Y-69899470D01*
X133573651Y-69888980D01*
X133552607Y-69876367D01*
X133532902Y-69861753D01*
X133514723Y-69845277D01*
X133498247Y-69827098D01*
X133483633Y-69807393D01*
X133471020Y-69786349D01*
X133460530Y-69764171D01*
X133452265Y-69741071D01*
X133446304Y-69717273D01*
X133442704Y-69693004D01*
X133441500Y-69668500D01*
X133441500Y-67618500D01*
X133442704Y-67593996D01*
X133446304Y-67569727D01*
X133452265Y-67545929D01*
X133460530Y-67522829D01*
X133471020Y-67500651D01*
X133483633Y-67479607D01*
X133498247Y-67459902D01*
X133514723Y-67441723D01*
X133532902Y-67425247D01*
X133552607Y-67410633D01*
X133573651Y-67398020D01*
X133595829Y-67387530D01*
X133618929Y-67379265D01*
X133642727Y-67373304D01*
X133666996Y-67369704D01*
X133691500Y-67368500D01*
X134891500Y-67368500D01*
X134916004Y-67369704D01*
X134916004Y-67369704D01*
G37*
D12*
X134291500Y-68643500D03*
D13*
X126164000Y-93440000D03*
X121994000Y-93440000D03*
X126164000Y-91440000D03*
X121994000Y-91440000D03*
X126164000Y-89440000D03*
X121994000Y-89440000D03*
D10*
G36*
X110195505Y-75310704D02*
G01*
X110219773Y-75314304D01*
X110243572Y-75320265D01*
X110266671Y-75328530D01*
X110288850Y-75339020D01*
X110309893Y-75351632D01*
X110329599Y-75366247D01*
X110347777Y-75382723D01*
X110364253Y-75400901D01*
X110378868Y-75420607D01*
X110391480Y-75441650D01*
X110401970Y-75463829D01*
X110410235Y-75486928D01*
X110416196Y-75510727D01*
X110419796Y-75534995D01*
X110421000Y-75559499D01*
X110421000Y-76459501D01*
X110419796Y-76484005D01*
X110416196Y-76508273D01*
X110410235Y-76532072D01*
X110401970Y-76555171D01*
X110391480Y-76577350D01*
X110378868Y-76598393D01*
X110364253Y-76618099D01*
X110347777Y-76636277D01*
X110329599Y-76652753D01*
X110309893Y-76667368D01*
X110288850Y-76679980D01*
X110266671Y-76690470D01*
X110243572Y-76698735D01*
X110219773Y-76704696D01*
X110195505Y-76708296D01*
X110171001Y-76709500D01*
X109520999Y-76709500D01*
X109496495Y-76708296D01*
X109472227Y-76704696D01*
X109448428Y-76698735D01*
X109425329Y-76690470D01*
X109403150Y-76679980D01*
X109382107Y-76667368D01*
X109362401Y-76652753D01*
X109344223Y-76636277D01*
X109327747Y-76618099D01*
X109313132Y-76598393D01*
X109300520Y-76577350D01*
X109290030Y-76555171D01*
X109281765Y-76532072D01*
X109275804Y-76508273D01*
X109272204Y-76484005D01*
X109271000Y-76459501D01*
X109271000Y-75559499D01*
X109272204Y-75534995D01*
X109275804Y-75510727D01*
X109281765Y-75486928D01*
X109290030Y-75463829D01*
X109300520Y-75441650D01*
X109313132Y-75420607D01*
X109327747Y-75400901D01*
X109344223Y-75382723D01*
X109362401Y-75366247D01*
X109382107Y-75351632D01*
X109403150Y-75339020D01*
X109425329Y-75328530D01*
X109448428Y-75320265D01*
X109472227Y-75314304D01*
X109496495Y-75310704D01*
X109520999Y-75309500D01*
X110171001Y-75309500D01*
X110195505Y-75310704D01*
X110195505Y-75310704D01*
G37*
D14*
X109846000Y-76009500D03*
D10*
G36*
X112245505Y-75310704D02*
G01*
X112269773Y-75314304D01*
X112293572Y-75320265D01*
X112316671Y-75328530D01*
X112338850Y-75339020D01*
X112359893Y-75351632D01*
X112379599Y-75366247D01*
X112397777Y-75382723D01*
X112414253Y-75400901D01*
X112428868Y-75420607D01*
X112441480Y-75441650D01*
X112451970Y-75463829D01*
X112460235Y-75486928D01*
X112466196Y-75510727D01*
X112469796Y-75534995D01*
X112471000Y-75559499D01*
X112471000Y-76459501D01*
X112469796Y-76484005D01*
X112466196Y-76508273D01*
X112460235Y-76532072D01*
X112451970Y-76555171D01*
X112441480Y-76577350D01*
X112428868Y-76598393D01*
X112414253Y-76618099D01*
X112397777Y-76636277D01*
X112379599Y-76652753D01*
X112359893Y-76667368D01*
X112338850Y-76679980D01*
X112316671Y-76690470D01*
X112293572Y-76698735D01*
X112269773Y-76704696D01*
X112245505Y-76708296D01*
X112221001Y-76709500D01*
X111570999Y-76709500D01*
X111546495Y-76708296D01*
X111522227Y-76704696D01*
X111498428Y-76698735D01*
X111475329Y-76690470D01*
X111453150Y-76679980D01*
X111432107Y-76667368D01*
X111412401Y-76652753D01*
X111394223Y-76636277D01*
X111377747Y-76618099D01*
X111363132Y-76598393D01*
X111350520Y-76577350D01*
X111340030Y-76555171D01*
X111331765Y-76532072D01*
X111325804Y-76508273D01*
X111322204Y-76484005D01*
X111321000Y-76459501D01*
X111321000Y-75559499D01*
X111322204Y-75534995D01*
X111325804Y-75510727D01*
X111331765Y-75486928D01*
X111340030Y-75463829D01*
X111350520Y-75441650D01*
X111363132Y-75420607D01*
X111377747Y-75400901D01*
X111394223Y-75382723D01*
X111412401Y-75366247D01*
X111432107Y-75351632D01*
X111453150Y-75339020D01*
X111475329Y-75328530D01*
X111498428Y-75320265D01*
X111522227Y-75314304D01*
X111546495Y-75310704D01*
X111570999Y-75309500D01*
X112221001Y-75309500D01*
X112245505Y-75310704D01*
X112245505Y-75310704D01*
G37*
D14*
X111896000Y-76009500D03*
D10*
G36*
X114259505Y-71627704D02*
G01*
X114283773Y-71631304D01*
X114307572Y-71637265D01*
X114330671Y-71645530D01*
X114352850Y-71656020D01*
X114373893Y-71668632D01*
X114393599Y-71683247D01*
X114411777Y-71699723D01*
X114428253Y-71717901D01*
X114442868Y-71737607D01*
X114455480Y-71758650D01*
X114465970Y-71780829D01*
X114474235Y-71803928D01*
X114480196Y-71827727D01*
X114483796Y-71851995D01*
X114485000Y-71876499D01*
X114485000Y-72776501D01*
X114483796Y-72801005D01*
X114480196Y-72825273D01*
X114474235Y-72849072D01*
X114465970Y-72872171D01*
X114455480Y-72894350D01*
X114442868Y-72915393D01*
X114428253Y-72935099D01*
X114411777Y-72953277D01*
X114393599Y-72969753D01*
X114373893Y-72984368D01*
X114352850Y-72996980D01*
X114330671Y-73007470D01*
X114307572Y-73015735D01*
X114283773Y-73021696D01*
X114259505Y-73025296D01*
X114235001Y-73026500D01*
X113584999Y-73026500D01*
X113560495Y-73025296D01*
X113536227Y-73021696D01*
X113512428Y-73015735D01*
X113489329Y-73007470D01*
X113467150Y-72996980D01*
X113446107Y-72984368D01*
X113426401Y-72969753D01*
X113408223Y-72953277D01*
X113391747Y-72935099D01*
X113377132Y-72915393D01*
X113364520Y-72894350D01*
X113354030Y-72872171D01*
X113345765Y-72849072D01*
X113339804Y-72825273D01*
X113336204Y-72801005D01*
X113335000Y-72776501D01*
X113335000Y-71876499D01*
X113336204Y-71851995D01*
X113339804Y-71827727D01*
X113345765Y-71803928D01*
X113354030Y-71780829D01*
X113364520Y-71758650D01*
X113377132Y-71737607D01*
X113391747Y-71717901D01*
X113408223Y-71699723D01*
X113426401Y-71683247D01*
X113446107Y-71668632D01*
X113467150Y-71656020D01*
X113489329Y-71645530D01*
X113512428Y-71637265D01*
X113536227Y-71631304D01*
X113560495Y-71627704D01*
X113584999Y-71626500D01*
X114235001Y-71626500D01*
X114259505Y-71627704D01*
X114259505Y-71627704D01*
G37*
D14*
X113910000Y-72326500D03*
D10*
G36*
X116309505Y-71627704D02*
G01*
X116333773Y-71631304D01*
X116357572Y-71637265D01*
X116380671Y-71645530D01*
X116402850Y-71656020D01*
X116423893Y-71668632D01*
X116443599Y-71683247D01*
X116461777Y-71699723D01*
X116478253Y-71717901D01*
X116492868Y-71737607D01*
X116505480Y-71758650D01*
X116515970Y-71780829D01*
X116524235Y-71803928D01*
X116530196Y-71827727D01*
X116533796Y-71851995D01*
X116535000Y-71876499D01*
X116535000Y-72776501D01*
X116533796Y-72801005D01*
X116530196Y-72825273D01*
X116524235Y-72849072D01*
X116515970Y-72872171D01*
X116505480Y-72894350D01*
X116492868Y-72915393D01*
X116478253Y-72935099D01*
X116461777Y-72953277D01*
X116443599Y-72969753D01*
X116423893Y-72984368D01*
X116402850Y-72996980D01*
X116380671Y-73007470D01*
X116357572Y-73015735D01*
X116333773Y-73021696D01*
X116309505Y-73025296D01*
X116285001Y-73026500D01*
X115634999Y-73026500D01*
X115610495Y-73025296D01*
X115586227Y-73021696D01*
X115562428Y-73015735D01*
X115539329Y-73007470D01*
X115517150Y-72996980D01*
X115496107Y-72984368D01*
X115476401Y-72969753D01*
X115458223Y-72953277D01*
X115441747Y-72935099D01*
X115427132Y-72915393D01*
X115414520Y-72894350D01*
X115404030Y-72872171D01*
X115395765Y-72849072D01*
X115389804Y-72825273D01*
X115386204Y-72801005D01*
X115385000Y-72776501D01*
X115385000Y-71876499D01*
X115386204Y-71851995D01*
X115389804Y-71827727D01*
X115395765Y-71803928D01*
X115404030Y-71780829D01*
X115414520Y-71758650D01*
X115427132Y-71737607D01*
X115441747Y-71717901D01*
X115458223Y-71699723D01*
X115476401Y-71683247D01*
X115496107Y-71668632D01*
X115517150Y-71656020D01*
X115539329Y-71645530D01*
X115562428Y-71637265D01*
X115586227Y-71631304D01*
X115610495Y-71627704D01*
X115634999Y-71626500D01*
X116285001Y-71626500D01*
X116309505Y-71627704D01*
X116309505Y-71627704D01*
G37*
D14*
X115960000Y-72326500D03*
D10*
G36*
X122966005Y-83953704D02*
G01*
X122990273Y-83957304D01*
X123014072Y-83963265D01*
X123037171Y-83971530D01*
X123059350Y-83982020D01*
X123080393Y-83994632D01*
X123100099Y-84009247D01*
X123118277Y-84025723D01*
X123134753Y-84043901D01*
X123149368Y-84063607D01*
X123161980Y-84084650D01*
X123172470Y-84106829D01*
X123180735Y-84129928D01*
X123186696Y-84153727D01*
X123190296Y-84177995D01*
X123191500Y-84202499D01*
X123191500Y-84852501D01*
X123190296Y-84877005D01*
X123186696Y-84901273D01*
X123180735Y-84925072D01*
X123172470Y-84948171D01*
X123161980Y-84970350D01*
X123149368Y-84991393D01*
X123134753Y-85011099D01*
X123118277Y-85029277D01*
X123100099Y-85045753D01*
X123080393Y-85060368D01*
X123059350Y-85072980D01*
X123037171Y-85083470D01*
X123014072Y-85091735D01*
X122990273Y-85097696D01*
X122966005Y-85101296D01*
X122941501Y-85102500D01*
X122041499Y-85102500D01*
X122016995Y-85101296D01*
X121992727Y-85097696D01*
X121968928Y-85091735D01*
X121945829Y-85083470D01*
X121923650Y-85072980D01*
X121902607Y-85060368D01*
X121882901Y-85045753D01*
X121864723Y-85029277D01*
X121848247Y-85011099D01*
X121833632Y-84991393D01*
X121821020Y-84970350D01*
X121810530Y-84948171D01*
X121802265Y-84925072D01*
X121796304Y-84901273D01*
X121792704Y-84877005D01*
X121791500Y-84852501D01*
X121791500Y-84202499D01*
X121792704Y-84177995D01*
X121796304Y-84153727D01*
X121802265Y-84129928D01*
X121810530Y-84106829D01*
X121821020Y-84084650D01*
X121833632Y-84063607D01*
X121848247Y-84043901D01*
X121864723Y-84025723D01*
X121882901Y-84009247D01*
X121902607Y-83994632D01*
X121923650Y-83982020D01*
X121945829Y-83971530D01*
X121968928Y-83963265D01*
X121992727Y-83957304D01*
X122016995Y-83953704D01*
X122041499Y-83952500D01*
X122941501Y-83952500D01*
X122966005Y-83953704D01*
X122966005Y-83953704D01*
G37*
D14*
X122491500Y-84527500D03*
D10*
G36*
X122966005Y-81903704D02*
G01*
X122990273Y-81907304D01*
X123014072Y-81913265D01*
X123037171Y-81921530D01*
X123059350Y-81932020D01*
X123080393Y-81944632D01*
X123100099Y-81959247D01*
X123118277Y-81975723D01*
X123134753Y-81993901D01*
X123149368Y-82013607D01*
X123161980Y-82034650D01*
X123172470Y-82056829D01*
X123180735Y-82079928D01*
X123186696Y-82103727D01*
X123190296Y-82127995D01*
X123191500Y-82152499D01*
X123191500Y-82802501D01*
X123190296Y-82827005D01*
X123186696Y-82851273D01*
X123180735Y-82875072D01*
X123172470Y-82898171D01*
X123161980Y-82920350D01*
X123149368Y-82941393D01*
X123134753Y-82961099D01*
X123118277Y-82979277D01*
X123100099Y-82995753D01*
X123080393Y-83010368D01*
X123059350Y-83022980D01*
X123037171Y-83033470D01*
X123014072Y-83041735D01*
X122990273Y-83047696D01*
X122966005Y-83051296D01*
X122941501Y-83052500D01*
X122041499Y-83052500D01*
X122016995Y-83051296D01*
X121992727Y-83047696D01*
X121968928Y-83041735D01*
X121945829Y-83033470D01*
X121923650Y-83022980D01*
X121902607Y-83010368D01*
X121882901Y-82995753D01*
X121864723Y-82979277D01*
X121848247Y-82961099D01*
X121833632Y-82941393D01*
X121821020Y-82920350D01*
X121810530Y-82898171D01*
X121802265Y-82875072D01*
X121796304Y-82851273D01*
X121792704Y-82827005D01*
X121791500Y-82802501D01*
X121791500Y-82152499D01*
X121792704Y-82127995D01*
X121796304Y-82103727D01*
X121802265Y-82079928D01*
X121810530Y-82056829D01*
X121821020Y-82034650D01*
X121833632Y-82013607D01*
X121848247Y-81993901D01*
X121864723Y-81975723D01*
X121882901Y-81959247D01*
X121902607Y-81944632D01*
X121923650Y-81932020D01*
X121945829Y-81921530D01*
X121968928Y-81913265D01*
X121992727Y-81907304D01*
X122016995Y-81903704D01*
X122041499Y-81902500D01*
X122941501Y-81902500D01*
X122966005Y-81903704D01*
X122966005Y-81903704D01*
G37*
D14*
X122491500Y-82477500D03*
D10*
G36*
X122966005Y-80080204D02*
G01*
X122990273Y-80083804D01*
X123014072Y-80089765D01*
X123037171Y-80098030D01*
X123059350Y-80108520D01*
X123080393Y-80121132D01*
X123100099Y-80135747D01*
X123118277Y-80152223D01*
X123134753Y-80170401D01*
X123149368Y-80190107D01*
X123161980Y-80211150D01*
X123172470Y-80233329D01*
X123180735Y-80256428D01*
X123186696Y-80280227D01*
X123190296Y-80304495D01*
X123191500Y-80328999D01*
X123191500Y-80979001D01*
X123190296Y-81003505D01*
X123186696Y-81027773D01*
X123180735Y-81051572D01*
X123172470Y-81074671D01*
X123161980Y-81096850D01*
X123149368Y-81117893D01*
X123134753Y-81137599D01*
X123118277Y-81155777D01*
X123100099Y-81172253D01*
X123080393Y-81186868D01*
X123059350Y-81199480D01*
X123037171Y-81209970D01*
X123014072Y-81218235D01*
X122990273Y-81224196D01*
X122966005Y-81227796D01*
X122941501Y-81229000D01*
X122041499Y-81229000D01*
X122016995Y-81227796D01*
X121992727Y-81224196D01*
X121968928Y-81218235D01*
X121945829Y-81209970D01*
X121923650Y-81199480D01*
X121902607Y-81186868D01*
X121882901Y-81172253D01*
X121864723Y-81155777D01*
X121848247Y-81137599D01*
X121833632Y-81117893D01*
X121821020Y-81096850D01*
X121810530Y-81074671D01*
X121802265Y-81051572D01*
X121796304Y-81027773D01*
X121792704Y-81003505D01*
X121791500Y-80979001D01*
X121791500Y-80328999D01*
X121792704Y-80304495D01*
X121796304Y-80280227D01*
X121802265Y-80256428D01*
X121810530Y-80233329D01*
X121821020Y-80211150D01*
X121833632Y-80190107D01*
X121848247Y-80170401D01*
X121864723Y-80152223D01*
X121882901Y-80135747D01*
X121902607Y-80121132D01*
X121923650Y-80108520D01*
X121945829Y-80098030D01*
X121968928Y-80089765D01*
X121992727Y-80083804D01*
X122016995Y-80080204D01*
X122041499Y-80079000D01*
X122941501Y-80079000D01*
X122966005Y-80080204D01*
X122966005Y-80080204D01*
G37*
D14*
X122491500Y-80654000D03*
D10*
G36*
X122966005Y-78030204D02*
G01*
X122990273Y-78033804D01*
X123014072Y-78039765D01*
X123037171Y-78048030D01*
X123059350Y-78058520D01*
X123080393Y-78071132D01*
X123100099Y-78085747D01*
X123118277Y-78102223D01*
X123134753Y-78120401D01*
X123149368Y-78140107D01*
X123161980Y-78161150D01*
X123172470Y-78183329D01*
X123180735Y-78206428D01*
X123186696Y-78230227D01*
X123190296Y-78254495D01*
X123191500Y-78278999D01*
X123191500Y-78929001D01*
X123190296Y-78953505D01*
X123186696Y-78977773D01*
X123180735Y-79001572D01*
X123172470Y-79024671D01*
X123161980Y-79046850D01*
X123149368Y-79067893D01*
X123134753Y-79087599D01*
X123118277Y-79105777D01*
X123100099Y-79122253D01*
X123080393Y-79136868D01*
X123059350Y-79149480D01*
X123037171Y-79159970D01*
X123014072Y-79168235D01*
X122990273Y-79174196D01*
X122966005Y-79177796D01*
X122941501Y-79179000D01*
X122041499Y-79179000D01*
X122016995Y-79177796D01*
X121992727Y-79174196D01*
X121968928Y-79168235D01*
X121945829Y-79159970D01*
X121923650Y-79149480D01*
X121902607Y-79136868D01*
X121882901Y-79122253D01*
X121864723Y-79105777D01*
X121848247Y-79087599D01*
X121833632Y-79067893D01*
X121821020Y-79046850D01*
X121810530Y-79024671D01*
X121802265Y-79001572D01*
X121796304Y-78977773D01*
X121792704Y-78953505D01*
X121791500Y-78929001D01*
X121791500Y-78278999D01*
X121792704Y-78254495D01*
X121796304Y-78230227D01*
X121802265Y-78206428D01*
X121810530Y-78183329D01*
X121821020Y-78161150D01*
X121833632Y-78140107D01*
X121848247Y-78120401D01*
X121864723Y-78102223D01*
X121882901Y-78085747D01*
X121902607Y-78071132D01*
X121923650Y-78058520D01*
X121945829Y-78048030D01*
X121968928Y-78039765D01*
X121992727Y-78033804D01*
X122016995Y-78030204D01*
X122041499Y-78029000D01*
X122941501Y-78029000D01*
X122966005Y-78030204D01*
X122966005Y-78030204D01*
G37*
D14*
X122491500Y-78604000D03*
D10*
G36*
X136237505Y-80506704D02*
G01*
X136261773Y-80510304D01*
X136285572Y-80516265D01*
X136308671Y-80524530D01*
X136330850Y-80535020D01*
X136351893Y-80547632D01*
X136371599Y-80562247D01*
X136389777Y-80578723D01*
X136406253Y-80596901D01*
X136420868Y-80616607D01*
X136433480Y-80637650D01*
X136443970Y-80659829D01*
X136452235Y-80682928D01*
X136458196Y-80706727D01*
X136461796Y-80730995D01*
X136463000Y-80755499D01*
X136463000Y-81405501D01*
X136461796Y-81430005D01*
X136458196Y-81454273D01*
X136452235Y-81478072D01*
X136443970Y-81501171D01*
X136433480Y-81523350D01*
X136420868Y-81544393D01*
X136406253Y-81564099D01*
X136389777Y-81582277D01*
X136371599Y-81598753D01*
X136351893Y-81613368D01*
X136330850Y-81625980D01*
X136308671Y-81636470D01*
X136285572Y-81644735D01*
X136261773Y-81650696D01*
X136237505Y-81654296D01*
X136213001Y-81655500D01*
X135312999Y-81655500D01*
X135288495Y-81654296D01*
X135264227Y-81650696D01*
X135240428Y-81644735D01*
X135217329Y-81636470D01*
X135195150Y-81625980D01*
X135174107Y-81613368D01*
X135154401Y-81598753D01*
X135136223Y-81582277D01*
X135119747Y-81564099D01*
X135105132Y-81544393D01*
X135092520Y-81523350D01*
X135082030Y-81501171D01*
X135073765Y-81478072D01*
X135067804Y-81454273D01*
X135064204Y-81430005D01*
X135063000Y-81405501D01*
X135063000Y-80755499D01*
X135064204Y-80730995D01*
X135067804Y-80706727D01*
X135073765Y-80682928D01*
X135082030Y-80659829D01*
X135092520Y-80637650D01*
X135105132Y-80616607D01*
X135119747Y-80596901D01*
X135136223Y-80578723D01*
X135154401Y-80562247D01*
X135174107Y-80547632D01*
X135195150Y-80535020D01*
X135217329Y-80524530D01*
X135240428Y-80516265D01*
X135264227Y-80510304D01*
X135288495Y-80506704D01*
X135312999Y-80505500D01*
X136213001Y-80505500D01*
X136237505Y-80506704D01*
X136237505Y-80506704D01*
G37*
D14*
X135763000Y-81080500D03*
D10*
G36*
X136237505Y-82556704D02*
G01*
X136261773Y-82560304D01*
X136285572Y-82566265D01*
X136308671Y-82574530D01*
X136330850Y-82585020D01*
X136351893Y-82597632D01*
X136371599Y-82612247D01*
X136389777Y-82628723D01*
X136406253Y-82646901D01*
X136420868Y-82666607D01*
X136433480Y-82687650D01*
X136443970Y-82709829D01*
X136452235Y-82732928D01*
X136458196Y-82756727D01*
X136461796Y-82780995D01*
X136463000Y-82805499D01*
X136463000Y-83455501D01*
X136461796Y-83480005D01*
X136458196Y-83504273D01*
X136452235Y-83528072D01*
X136443970Y-83551171D01*
X136433480Y-83573350D01*
X136420868Y-83594393D01*
X136406253Y-83614099D01*
X136389777Y-83632277D01*
X136371599Y-83648753D01*
X136351893Y-83663368D01*
X136330850Y-83675980D01*
X136308671Y-83686470D01*
X136285572Y-83694735D01*
X136261773Y-83700696D01*
X136237505Y-83704296D01*
X136213001Y-83705500D01*
X135312999Y-83705500D01*
X135288495Y-83704296D01*
X135264227Y-83700696D01*
X135240428Y-83694735D01*
X135217329Y-83686470D01*
X135195150Y-83675980D01*
X135174107Y-83663368D01*
X135154401Y-83648753D01*
X135136223Y-83632277D01*
X135119747Y-83614099D01*
X135105132Y-83594393D01*
X135092520Y-83573350D01*
X135082030Y-83551171D01*
X135073765Y-83528072D01*
X135067804Y-83504273D01*
X135064204Y-83480005D01*
X135063000Y-83455501D01*
X135063000Y-82805499D01*
X135064204Y-82780995D01*
X135067804Y-82756727D01*
X135073765Y-82732928D01*
X135082030Y-82709829D01*
X135092520Y-82687650D01*
X135105132Y-82666607D01*
X135119747Y-82646901D01*
X135136223Y-82628723D01*
X135154401Y-82612247D01*
X135174107Y-82597632D01*
X135195150Y-82585020D01*
X135217329Y-82574530D01*
X135240428Y-82566265D01*
X135264227Y-82560304D01*
X135288495Y-82556704D01*
X135312999Y-82555500D01*
X136213001Y-82555500D01*
X136237505Y-82556704D01*
X136237505Y-82556704D01*
G37*
D14*
X135763000Y-83130500D03*
D10*
G36*
X112245505Y-71564204D02*
G01*
X112269773Y-71567804D01*
X112293572Y-71573765D01*
X112316671Y-71582030D01*
X112338850Y-71592520D01*
X112359893Y-71605132D01*
X112379599Y-71619747D01*
X112397777Y-71636223D01*
X112414253Y-71654401D01*
X112428868Y-71674107D01*
X112441480Y-71695150D01*
X112451970Y-71717329D01*
X112460235Y-71740428D01*
X112466196Y-71764227D01*
X112469796Y-71788495D01*
X112471000Y-71812999D01*
X112471000Y-72713001D01*
X112469796Y-72737505D01*
X112466196Y-72761773D01*
X112460235Y-72785572D01*
X112451970Y-72808671D01*
X112441480Y-72830850D01*
X112428868Y-72851893D01*
X112414253Y-72871599D01*
X112397777Y-72889777D01*
X112379599Y-72906253D01*
X112359893Y-72920868D01*
X112338850Y-72933480D01*
X112316671Y-72943970D01*
X112293572Y-72952235D01*
X112269773Y-72958196D01*
X112245505Y-72961796D01*
X112221001Y-72963000D01*
X111570999Y-72963000D01*
X111546495Y-72961796D01*
X111522227Y-72958196D01*
X111498428Y-72952235D01*
X111475329Y-72943970D01*
X111453150Y-72933480D01*
X111432107Y-72920868D01*
X111412401Y-72906253D01*
X111394223Y-72889777D01*
X111377747Y-72871599D01*
X111363132Y-72851893D01*
X111350520Y-72830850D01*
X111340030Y-72808671D01*
X111331765Y-72785572D01*
X111325804Y-72761773D01*
X111322204Y-72737505D01*
X111321000Y-72713001D01*
X111321000Y-71812999D01*
X111322204Y-71788495D01*
X111325804Y-71764227D01*
X111331765Y-71740428D01*
X111340030Y-71717329D01*
X111350520Y-71695150D01*
X111363132Y-71674107D01*
X111377747Y-71654401D01*
X111394223Y-71636223D01*
X111412401Y-71619747D01*
X111432107Y-71605132D01*
X111453150Y-71592520D01*
X111475329Y-71582030D01*
X111498428Y-71573765D01*
X111522227Y-71567804D01*
X111546495Y-71564204D01*
X111570999Y-71563000D01*
X112221001Y-71563000D01*
X112245505Y-71564204D01*
X112245505Y-71564204D01*
G37*
D14*
X111896000Y-72263000D03*
D10*
G36*
X110195505Y-71564204D02*
G01*
X110219773Y-71567804D01*
X110243572Y-71573765D01*
X110266671Y-71582030D01*
X110288850Y-71592520D01*
X110309893Y-71605132D01*
X110329599Y-71619747D01*
X110347777Y-71636223D01*
X110364253Y-71654401D01*
X110378868Y-71674107D01*
X110391480Y-71695150D01*
X110401970Y-71717329D01*
X110410235Y-71740428D01*
X110416196Y-71764227D01*
X110419796Y-71788495D01*
X110421000Y-71812999D01*
X110421000Y-72713001D01*
X110419796Y-72737505D01*
X110416196Y-72761773D01*
X110410235Y-72785572D01*
X110401970Y-72808671D01*
X110391480Y-72830850D01*
X110378868Y-72851893D01*
X110364253Y-72871599D01*
X110347777Y-72889777D01*
X110329599Y-72906253D01*
X110309893Y-72920868D01*
X110288850Y-72933480D01*
X110266671Y-72943970D01*
X110243572Y-72952235D01*
X110219773Y-72958196D01*
X110195505Y-72961796D01*
X110171001Y-72963000D01*
X109520999Y-72963000D01*
X109496495Y-72961796D01*
X109472227Y-72958196D01*
X109448428Y-72952235D01*
X109425329Y-72943970D01*
X109403150Y-72933480D01*
X109382107Y-72920868D01*
X109362401Y-72906253D01*
X109344223Y-72889777D01*
X109327747Y-72871599D01*
X109313132Y-72851893D01*
X109300520Y-72830850D01*
X109290030Y-72808671D01*
X109281765Y-72785572D01*
X109275804Y-72761773D01*
X109272204Y-72737505D01*
X109271000Y-72713001D01*
X109271000Y-71812999D01*
X109272204Y-71788495D01*
X109275804Y-71764227D01*
X109281765Y-71740428D01*
X109290030Y-71717329D01*
X109300520Y-71695150D01*
X109313132Y-71674107D01*
X109327747Y-71654401D01*
X109344223Y-71636223D01*
X109362401Y-71619747D01*
X109382107Y-71605132D01*
X109403150Y-71592520D01*
X109425329Y-71582030D01*
X109448428Y-71573765D01*
X109472227Y-71567804D01*
X109496495Y-71564204D01*
X109520999Y-71563000D01*
X110171001Y-71563000D01*
X110195505Y-71564204D01*
X110195505Y-71564204D01*
G37*
D14*
X109846000Y-72263000D03*
D15*
X131000500Y-91518000D03*
X131000500Y-94918000D03*
D10*
G36*
X115077703Y-78186722D02*
G01*
X115092264Y-78188882D01*
X115106543Y-78192459D01*
X115120403Y-78197418D01*
X115133710Y-78203712D01*
X115146336Y-78211280D01*
X115158159Y-78220048D01*
X115169066Y-78229934D01*
X115178952Y-78240841D01*
X115187720Y-78252664D01*
X115195288Y-78265290D01*
X115201582Y-78278597D01*
X115206541Y-78292457D01*
X115210118Y-78306736D01*
X115212278Y-78321297D01*
X115213000Y-78336000D01*
X115213000Y-78636000D01*
X115212278Y-78650703D01*
X115210118Y-78665264D01*
X115206541Y-78679543D01*
X115201582Y-78693403D01*
X115195288Y-78706710D01*
X115187720Y-78719336D01*
X115178952Y-78731159D01*
X115169066Y-78742066D01*
X115158159Y-78751952D01*
X115146336Y-78760720D01*
X115133710Y-78768288D01*
X115120403Y-78774582D01*
X115106543Y-78779541D01*
X115092264Y-78783118D01*
X115077703Y-78785278D01*
X115063000Y-78786000D01*
X113413000Y-78786000D01*
X113398297Y-78785278D01*
X113383736Y-78783118D01*
X113369457Y-78779541D01*
X113355597Y-78774582D01*
X113342290Y-78768288D01*
X113329664Y-78760720D01*
X113317841Y-78751952D01*
X113306934Y-78742066D01*
X113297048Y-78731159D01*
X113288280Y-78719336D01*
X113280712Y-78706710D01*
X113274418Y-78693403D01*
X113269459Y-78679543D01*
X113265882Y-78665264D01*
X113263722Y-78650703D01*
X113263000Y-78636000D01*
X113263000Y-78336000D01*
X113263722Y-78321297D01*
X113265882Y-78306736D01*
X113269459Y-78292457D01*
X113274418Y-78278597D01*
X113280712Y-78265290D01*
X113288280Y-78252664D01*
X113297048Y-78240841D01*
X113306934Y-78229934D01*
X113317841Y-78220048D01*
X113329664Y-78211280D01*
X113342290Y-78203712D01*
X113355597Y-78197418D01*
X113369457Y-78192459D01*
X113383736Y-78188882D01*
X113398297Y-78186722D01*
X113413000Y-78186000D01*
X115063000Y-78186000D01*
X115077703Y-78186722D01*
X115077703Y-78186722D01*
G37*
D16*
X114238000Y-78486000D03*
D10*
G36*
X115077703Y-79456722D02*
G01*
X115092264Y-79458882D01*
X115106543Y-79462459D01*
X115120403Y-79467418D01*
X115133710Y-79473712D01*
X115146336Y-79481280D01*
X115158159Y-79490048D01*
X115169066Y-79499934D01*
X115178952Y-79510841D01*
X115187720Y-79522664D01*
X115195288Y-79535290D01*
X115201582Y-79548597D01*
X115206541Y-79562457D01*
X115210118Y-79576736D01*
X115212278Y-79591297D01*
X115213000Y-79606000D01*
X115213000Y-79906000D01*
X115212278Y-79920703D01*
X115210118Y-79935264D01*
X115206541Y-79949543D01*
X115201582Y-79963403D01*
X115195288Y-79976710D01*
X115187720Y-79989336D01*
X115178952Y-80001159D01*
X115169066Y-80012066D01*
X115158159Y-80021952D01*
X115146336Y-80030720D01*
X115133710Y-80038288D01*
X115120403Y-80044582D01*
X115106543Y-80049541D01*
X115092264Y-80053118D01*
X115077703Y-80055278D01*
X115063000Y-80056000D01*
X113413000Y-80056000D01*
X113398297Y-80055278D01*
X113383736Y-80053118D01*
X113369457Y-80049541D01*
X113355597Y-80044582D01*
X113342290Y-80038288D01*
X113329664Y-80030720D01*
X113317841Y-80021952D01*
X113306934Y-80012066D01*
X113297048Y-80001159D01*
X113288280Y-79989336D01*
X113280712Y-79976710D01*
X113274418Y-79963403D01*
X113269459Y-79949543D01*
X113265882Y-79935264D01*
X113263722Y-79920703D01*
X113263000Y-79906000D01*
X113263000Y-79606000D01*
X113263722Y-79591297D01*
X113265882Y-79576736D01*
X113269459Y-79562457D01*
X113274418Y-79548597D01*
X113280712Y-79535290D01*
X113288280Y-79522664D01*
X113297048Y-79510841D01*
X113306934Y-79499934D01*
X113317841Y-79490048D01*
X113329664Y-79481280D01*
X113342290Y-79473712D01*
X113355597Y-79467418D01*
X113369457Y-79462459D01*
X113383736Y-79458882D01*
X113398297Y-79456722D01*
X113413000Y-79456000D01*
X115063000Y-79456000D01*
X115077703Y-79456722D01*
X115077703Y-79456722D01*
G37*
D16*
X114238000Y-79756000D03*
D10*
G36*
X115077703Y-80726722D02*
G01*
X115092264Y-80728882D01*
X115106543Y-80732459D01*
X115120403Y-80737418D01*
X115133710Y-80743712D01*
X115146336Y-80751280D01*
X115158159Y-80760048D01*
X115169066Y-80769934D01*
X115178952Y-80780841D01*
X115187720Y-80792664D01*
X115195288Y-80805290D01*
X115201582Y-80818597D01*
X115206541Y-80832457D01*
X115210118Y-80846736D01*
X115212278Y-80861297D01*
X115213000Y-80876000D01*
X115213000Y-81176000D01*
X115212278Y-81190703D01*
X115210118Y-81205264D01*
X115206541Y-81219543D01*
X115201582Y-81233403D01*
X115195288Y-81246710D01*
X115187720Y-81259336D01*
X115178952Y-81271159D01*
X115169066Y-81282066D01*
X115158159Y-81291952D01*
X115146336Y-81300720D01*
X115133710Y-81308288D01*
X115120403Y-81314582D01*
X115106543Y-81319541D01*
X115092264Y-81323118D01*
X115077703Y-81325278D01*
X115063000Y-81326000D01*
X113413000Y-81326000D01*
X113398297Y-81325278D01*
X113383736Y-81323118D01*
X113369457Y-81319541D01*
X113355597Y-81314582D01*
X113342290Y-81308288D01*
X113329664Y-81300720D01*
X113317841Y-81291952D01*
X113306934Y-81282066D01*
X113297048Y-81271159D01*
X113288280Y-81259336D01*
X113280712Y-81246710D01*
X113274418Y-81233403D01*
X113269459Y-81219543D01*
X113265882Y-81205264D01*
X113263722Y-81190703D01*
X113263000Y-81176000D01*
X113263000Y-80876000D01*
X113263722Y-80861297D01*
X113265882Y-80846736D01*
X113269459Y-80832457D01*
X113274418Y-80818597D01*
X113280712Y-80805290D01*
X113288280Y-80792664D01*
X113297048Y-80780841D01*
X113306934Y-80769934D01*
X113317841Y-80760048D01*
X113329664Y-80751280D01*
X113342290Y-80743712D01*
X113355597Y-80737418D01*
X113369457Y-80732459D01*
X113383736Y-80728882D01*
X113398297Y-80726722D01*
X113413000Y-80726000D01*
X115063000Y-80726000D01*
X115077703Y-80726722D01*
X115077703Y-80726722D01*
G37*
D16*
X114238000Y-81026000D03*
D10*
G36*
X115077703Y-81996722D02*
G01*
X115092264Y-81998882D01*
X115106543Y-82002459D01*
X115120403Y-82007418D01*
X115133710Y-82013712D01*
X115146336Y-82021280D01*
X115158159Y-82030048D01*
X115169066Y-82039934D01*
X115178952Y-82050841D01*
X115187720Y-82062664D01*
X115195288Y-82075290D01*
X115201582Y-82088597D01*
X115206541Y-82102457D01*
X115210118Y-82116736D01*
X115212278Y-82131297D01*
X115213000Y-82146000D01*
X115213000Y-82446000D01*
X115212278Y-82460703D01*
X115210118Y-82475264D01*
X115206541Y-82489543D01*
X115201582Y-82503403D01*
X115195288Y-82516710D01*
X115187720Y-82529336D01*
X115178952Y-82541159D01*
X115169066Y-82552066D01*
X115158159Y-82561952D01*
X115146336Y-82570720D01*
X115133710Y-82578288D01*
X115120403Y-82584582D01*
X115106543Y-82589541D01*
X115092264Y-82593118D01*
X115077703Y-82595278D01*
X115063000Y-82596000D01*
X113413000Y-82596000D01*
X113398297Y-82595278D01*
X113383736Y-82593118D01*
X113369457Y-82589541D01*
X113355597Y-82584582D01*
X113342290Y-82578288D01*
X113329664Y-82570720D01*
X113317841Y-82561952D01*
X113306934Y-82552066D01*
X113297048Y-82541159D01*
X113288280Y-82529336D01*
X113280712Y-82516710D01*
X113274418Y-82503403D01*
X113269459Y-82489543D01*
X113265882Y-82475264D01*
X113263722Y-82460703D01*
X113263000Y-82446000D01*
X113263000Y-82146000D01*
X113263722Y-82131297D01*
X113265882Y-82116736D01*
X113269459Y-82102457D01*
X113274418Y-82088597D01*
X113280712Y-82075290D01*
X113288280Y-82062664D01*
X113297048Y-82050841D01*
X113306934Y-82039934D01*
X113317841Y-82030048D01*
X113329664Y-82021280D01*
X113342290Y-82013712D01*
X113355597Y-82007418D01*
X113369457Y-82002459D01*
X113383736Y-81998882D01*
X113398297Y-81996722D01*
X113413000Y-81996000D01*
X115063000Y-81996000D01*
X115077703Y-81996722D01*
X115077703Y-81996722D01*
G37*
D16*
X114238000Y-82296000D03*
D10*
G36*
X120027703Y-81996722D02*
G01*
X120042264Y-81998882D01*
X120056543Y-82002459D01*
X120070403Y-82007418D01*
X120083710Y-82013712D01*
X120096336Y-82021280D01*
X120108159Y-82030048D01*
X120119066Y-82039934D01*
X120128952Y-82050841D01*
X120137720Y-82062664D01*
X120145288Y-82075290D01*
X120151582Y-82088597D01*
X120156541Y-82102457D01*
X120160118Y-82116736D01*
X120162278Y-82131297D01*
X120163000Y-82146000D01*
X120163000Y-82446000D01*
X120162278Y-82460703D01*
X120160118Y-82475264D01*
X120156541Y-82489543D01*
X120151582Y-82503403D01*
X120145288Y-82516710D01*
X120137720Y-82529336D01*
X120128952Y-82541159D01*
X120119066Y-82552066D01*
X120108159Y-82561952D01*
X120096336Y-82570720D01*
X120083710Y-82578288D01*
X120070403Y-82584582D01*
X120056543Y-82589541D01*
X120042264Y-82593118D01*
X120027703Y-82595278D01*
X120013000Y-82596000D01*
X118363000Y-82596000D01*
X118348297Y-82595278D01*
X118333736Y-82593118D01*
X118319457Y-82589541D01*
X118305597Y-82584582D01*
X118292290Y-82578288D01*
X118279664Y-82570720D01*
X118267841Y-82561952D01*
X118256934Y-82552066D01*
X118247048Y-82541159D01*
X118238280Y-82529336D01*
X118230712Y-82516710D01*
X118224418Y-82503403D01*
X118219459Y-82489543D01*
X118215882Y-82475264D01*
X118213722Y-82460703D01*
X118213000Y-82446000D01*
X118213000Y-82146000D01*
X118213722Y-82131297D01*
X118215882Y-82116736D01*
X118219459Y-82102457D01*
X118224418Y-82088597D01*
X118230712Y-82075290D01*
X118238280Y-82062664D01*
X118247048Y-82050841D01*
X118256934Y-82039934D01*
X118267841Y-82030048D01*
X118279664Y-82021280D01*
X118292290Y-82013712D01*
X118305597Y-82007418D01*
X118319457Y-82002459D01*
X118333736Y-81998882D01*
X118348297Y-81996722D01*
X118363000Y-81996000D01*
X120013000Y-81996000D01*
X120027703Y-81996722D01*
X120027703Y-81996722D01*
G37*
D16*
X119188000Y-82296000D03*
D10*
G36*
X120027703Y-80726722D02*
G01*
X120042264Y-80728882D01*
X120056543Y-80732459D01*
X120070403Y-80737418D01*
X120083710Y-80743712D01*
X120096336Y-80751280D01*
X120108159Y-80760048D01*
X120119066Y-80769934D01*
X120128952Y-80780841D01*
X120137720Y-80792664D01*
X120145288Y-80805290D01*
X120151582Y-80818597D01*
X120156541Y-80832457D01*
X120160118Y-80846736D01*
X120162278Y-80861297D01*
X120163000Y-80876000D01*
X120163000Y-81176000D01*
X120162278Y-81190703D01*
X120160118Y-81205264D01*
X120156541Y-81219543D01*
X120151582Y-81233403D01*
X120145288Y-81246710D01*
X120137720Y-81259336D01*
X120128952Y-81271159D01*
X120119066Y-81282066D01*
X120108159Y-81291952D01*
X120096336Y-81300720D01*
X120083710Y-81308288D01*
X120070403Y-81314582D01*
X120056543Y-81319541D01*
X120042264Y-81323118D01*
X120027703Y-81325278D01*
X120013000Y-81326000D01*
X118363000Y-81326000D01*
X118348297Y-81325278D01*
X118333736Y-81323118D01*
X118319457Y-81319541D01*
X118305597Y-81314582D01*
X118292290Y-81308288D01*
X118279664Y-81300720D01*
X118267841Y-81291952D01*
X118256934Y-81282066D01*
X118247048Y-81271159D01*
X118238280Y-81259336D01*
X118230712Y-81246710D01*
X118224418Y-81233403D01*
X118219459Y-81219543D01*
X118215882Y-81205264D01*
X118213722Y-81190703D01*
X118213000Y-81176000D01*
X118213000Y-80876000D01*
X118213722Y-80861297D01*
X118215882Y-80846736D01*
X118219459Y-80832457D01*
X118224418Y-80818597D01*
X118230712Y-80805290D01*
X118238280Y-80792664D01*
X118247048Y-80780841D01*
X118256934Y-80769934D01*
X118267841Y-80760048D01*
X118279664Y-80751280D01*
X118292290Y-80743712D01*
X118305597Y-80737418D01*
X118319457Y-80732459D01*
X118333736Y-80728882D01*
X118348297Y-80726722D01*
X118363000Y-80726000D01*
X120013000Y-80726000D01*
X120027703Y-80726722D01*
X120027703Y-80726722D01*
G37*
D16*
X119188000Y-81026000D03*
D10*
G36*
X120027703Y-79456722D02*
G01*
X120042264Y-79458882D01*
X120056543Y-79462459D01*
X120070403Y-79467418D01*
X120083710Y-79473712D01*
X120096336Y-79481280D01*
X120108159Y-79490048D01*
X120119066Y-79499934D01*
X120128952Y-79510841D01*
X120137720Y-79522664D01*
X120145288Y-79535290D01*
X120151582Y-79548597D01*
X120156541Y-79562457D01*
X120160118Y-79576736D01*
X120162278Y-79591297D01*
X120163000Y-79606000D01*
X120163000Y-79906000D01*
X120162278Y-79920703D01*
X120160118Y-79935264D01*
X120156541Y-79949543D01*
X120151582Y-79963403D01*
X120145288Y-79976710D01*
X120137720Y-79989336D01*
X120128952Y-80001159D01*
X120119066Y-80012066D01*
X120108159Y-80021952D01*
X120096336Y-80030720D01*
X120083710Y-80038288D01*
X120070403Y-80044582D01*
X120056543Y-80049541D01*
X120042264Y-80053118D01*
X120027703Y-80055278D01*
X120013000Y-80056000D01*
X118363000Y-80056000D01*
X118348297Y-80055278D01*
X118333736Y-80053118D01*
X118319457Y-80049541D01*
X118305597Y-80044582D01*
X118292290Y-80038288D01*
X118279664Y-80030720D01*
X118267841Y-80021952D01*
X118256934Y-80012066D01*
X118247048Y-80001159D01*
X118238280Y-79989336D01*
X118230712Y-79976710D01*
X118224418Y-79963403D01*
X118219459Y-79949543D01*
X118215882Y-79935264D01*
X118213722Y-79920703D01*
X118213000Y-79906000D01*
X118213000Y-79606000D01*
X118213722Y-79591297D01*
X118215882Y-79576736D01*
X118219459Y-79562457D01*
X118224418Y-79548597D01*
X118230712Y-79535290D01*
X118238280Y-79522664D01*
X118247048Y-79510841D01*
X118256934Y-79499934D01*
X118267841Y-79490048D01*
X118279664Y-79481280D01*
X118292290Y-79473712D01*
X118305597Y-79467418D01*
X118319457Y-79462459D01*
X118333736Y-79458882D01*
X118348297Y-79456722D01*
X118363000Y-79456000D01*
X120013000Y-79456000D01*
X120027703Y-79456722D01*
X120027703Y-79456722D01*
G37*
D16*
X119188000Y-79756000D03*
D10*
G36*
X120027703Y-78186722D02*
G01*
X120042264Y-78188882D01*
X120056543Y-78192459D01*
X120070403Y-78197418D01*
X120083710Y-78203712D01*
X120096336Y-78211280D01*
X120108159Y-78220048D01*
X120119066Y-78229934D01*
X120128952Y-78240841D01*
X120137720Y-78252664D01*
X120145288Y-78265290D01*
X120151582Y-78278597D01*
X120156541Y-78292457D01*
X120160118Y-78306736D01*
X120162278Y-78321297D01*
X120163000Y-78336000D01*
X120163000Y-78636000D01*
X120162278Y-78650703D01*
X120160118Y-78665264D01*
X120156541Y-78679543D01*
X120151582Y-78693403D01*
X120145288Y-78706710D01*
X120137720Y-78719336D01*
X120128952Y-78731159D01*
X120119066Y-78742066D01*
X120108159Y-78751952D01*
X120096336Y-78760720D01*
X120083710Y-78768288D01*
X120070403Y-78774582D01*
X120056543Y-78779541D01*
X120042264Y-78783118D01*
X120027703Y-78785278D01*
X120013000Y-78786000D01*
X118363000Y-78786000D01*
X118348297Y-78785278D01*
X118333736Y-78783118D01*
X118319457Y-78779541D01*
X118305597Y-78774582D01*
X118292290Y-78768288D01*
X118279664Y-78760720D01*
X118267841Y-78751952D01*
X118256934Y-78742066D01*
X118247048Y-78731159D01*
X118238280Y-78719336D01*
X118230712Y-78706710D01*
X118224418Y-78693403D01*
X118219459Y-78679543D01*
X118215882Y-78665264D01*
X118213722Y-78650703D01*
X118213000Y-78636000D01*
X118213000Y-78336000D01*
X118213722Y-78321297D01*
X118215882Y-78306736D01*
X118219459Y-78292457D01*
X118224418Y-78278597D01*
X118230712Y-78265290D01*
X118238280Y-78252664D01*
X118247048Y-78240841D01*
X118256934Y-78229934D01*
X118267841Y-78220048D01*
X118279664Y-78211280D01*
X118292290Y-78203712D01*
X118305597Y-78197418D01*
X118319457Y-78192459D01*
X118333736Y-78188882D01*
X118348297Y-78186722D01*
X118363000Y-78186000D01*
X120013000Y-78186000D01*
X120027703Y-78186722D01*
X120027703Y-78186722D01*
G37*
D16*
X119188000Y-78486000D03*
D17*
X141668500Y-80987500D03*
D18*
X141668500Y-87287500D03*
X143968500Y-87287500D03*
X139368500Y-87287500D03*
D10*
G36*
X116182505Y-75310704D02*
G01*
X116206773Y-75314304D01*
X116230572Y-75320265D01*
X116253671Y-75328530D01*
X116275850Y-75339020D01*
X116296893Y-75351632D01*
X116316599Y-75366247D01*
X116334777Y-75382723D01*
X116351253Y-75400901D01*
X116365868Y-75420607D01*
X116378480Y-75441650D01*
X116388970Y-75463829D01*
X116397235Y-75486928D01*
X116403196Y-75510727D01*
X116406796Y-75534995D01*
X116408000Y-75559499D01*
X116408000Y-76459501D01*
X116406796Y-76484005D01*
X116403196Y-76508273D01*
X116397235Y-76532072D01*
X116388970Y-76555171D01*
X116378480Y-76577350D01*
X116365868Y-76598393D01*
X116351253Y-76618099D01*
X116334777Y-76636277D01*
X116316599Y-76652753D01*
X116296893Y-76667368D01*
X116275850Y-76679980D01*
X116253671Y-76690470D01*
X116230572Y-76698735D01*
X116206773Y-76704696D01*
X116182505Y-76708296D01*
X116158001Y-76709500D01*
X115507999Y-76709500D01*
X115483495Y-76708296D01*
X115459227Y-76704696D01*
X115435428Y-76698735D01*
X115412329Y-76690470D01*
X115390150Y-76679980D01*
X115369107Y-76667368D01*
X115349401Y-76652753D01*
X115331223Y-76636277D01*
X115314747Y-76618099D01*
X115300132Y-76598393D01*
X115287520Y-76577350D01*
X115277030Y-76555171D01*
X115268765Y-76532072D01*
X115262804Y-76508273D01*
X115259204Y-76484005D01*
X115258000Y-76459501D01*
X115258000Y-75559499D01*
X115259204Y-75534995D01*
X115262804Y-75510727D01*
X115268765Y-75486928D01*
X115277030Y-75463829D01*
X115287520Y-75441650D01*
X115300132Y-75420607D01*
X115314747Y-75400901D01*
X115331223Y-75382723D01*
X115349401Y-75366247D01*
X115369107Y-75351632D01*
X115390150Y-75339020D01*
X115412329Y-75328530D01*
X115435428Y-75320265D01*
X115459227Y-75314304D01*
X115483495Y-75310704D01*
X115507999Y-75309500D01*
X116158001Y-75309500D01*
X116182505Y-75310704D01*
X116182505Y-75310704D01*
G37*
D14*
X115833000Y-76009500D03*
D10*
G36*
X114132505Y-75310704D02*
G01*
X114156773Y-75314304D01*
X114180572Y-75320265D01*
X114203671Y-75328530D01*
X114225850Y-75339020D01*
X114246893Y-75351632D01*
X114266599Y-75366247D01*
X114284777Y-75382723D01*
X114301253Y-75400901D01*
X114315868Y-75420607D01*
X114328480Y-75441650D01*
X114338970Y-75463829D01*
X114347235Y-75486928D01*
X114353196Y-75510727D01*
X114356796Y-75534995D01*
X114358000Y-75559499D01*
X114358000Y-76459501D01*
X114356796Y-76484005D01*
X114353196Y-76508273D01*
X114347235Y-76532072D01*
X114338970Y-76555171D01*
X114328480Y-76577350D01*
X114315868Y-76598393D01*
X114301253Y-76618099D01*
X114284777Y-76636277D01*
X114266599Y-76652753D01*
X114246893Y-76667368D01*
X114225850Y-76679980D01*
X114203671Y-76690470D01*
X114180572Y-76698735D01*
X114156773Y-76704696D01*
X114132505Y-76708296D01*
X114108001Y-76709500D01*
X113457999Y-76709500D01*
X113433495Y-76708296D01*
X113409227Y-76704696D01*
X113385428Y-76698735D01*
X113362329Y-76690470D01*
X113340150Y-76679980D01*
X113319107Y-76667368D01*
X113299401Y-76652753D01*
X113281223Y-76636277D01*
X113264747Y-76618099D01*
X113250132Y-76598393D01*
X113237520Y-76577350D01*
X113227030Y-76555171D01*
X113218765Y-76532072D01*
X113212804Y-76508273D01*
X113209204Y-76484005D01*
X113208000Y-76459501D01*
X113208000Y-75559499D01*
X113209204Y-75534995D01*
X113212804Y-75510727D01*
X113218765Y-75486928D01*
X113227030Y-75463829D01*
X113237520Y-75441650D01*
X113250132Y-75420607D01*
X113264747Y-75400901D01*
X113281223Y-75382723D01*
X113299401Y-75366247D01*
X113319107Y-75351632D01*
X113340150Y-75339020D01*
X113362329Y-75328530D01*
X113385428Y-75320265D01*
X113409227Y-75314304D01*
X113433495Y-75310704D01*
X113457999Y-75309500D01*
X114108001Y-75309500D01*
X114132505Y-75310704D01*
X114132505Y-75310704D01*
G37*
D14*
X113783000Y-76009500D03*
D10*
G36*
X131023505Y-70738704D02*
G01*
X131047773Y-70742304D01*
X131071572Y-70748265D01*
X131094671Y-70756530D01*
X131116850Y-70767020D01*
X131137893Y-70779632D01*
X131157599Y-70794247D01*
X131175777Y-70810723D01*
X131192253Y-70828901D01*
X131206868Y-70848607D01*
X131219480Y-70869650D01*
X131229970Y-70891829D01*
X131238235Y-70914928D01*
X131244196Y-70938727D01*
X131247796Y-70962995D01*
X131249000Y-70987499D01*
X131249000Y-71887501D01*
X131247796Y-71912005D01*
X131244196Y-71936273D01*
X131238235Y-71960072D01*
X131229970Y-71983171D01*
X131219480Y-72005350D01*
X131206868Y-72026393D01*
X131192253Y-72046099D01*
X131175777Y-72064277D01*
X131157599Y-72080753D01*
X131137893Y-72095368D01*
X131116850Y-72107980D01*
X131094671Y-72118470D01*
X131071572Y-72126735D01*
X131047773Y-72132696D01*
X131023505Y-72136296D01*
X130999001Y-72137500D01*
X130348999Y-72137500D01*
X130324495Y-72136296D01*
X130300227Y-72132696D01*
X130276428Y-72126735D01*
X130253329Y-72118470D01*
X130231150Y-72107980D01*
X130210107Y-72095368D01*
X130190401Y-72080753D01*
X130172223Y-72064277D01*
X130155747Y-72046099D01*
X130141132Y-72026393D01*
X130128520Y-72005350D01*
X130118030Y-71983171D01*
X130109765Y-71960072D01*
X130103804Y-71936273D01*
X130100204Y-71912005D01*
X130099000Y-71887501D01*
X130099000Y-70987499D01*
X130100204Y-70962995D01*
X130103804Y-70938727D01*
X130109765Y-70914928D01*
X130118030Y-70891829D01*
X130128520Y-70869650D01*
X130141132Y-70848607D01*
X130155747Y-70828901D01*
X130172223Y-70810723D01*
X130190401Y-70794247D01*
X130210107Y-70779632D01*
X130231150Y-70767020D01*
X130253329Y-70756530D01*
X130276428Y-70748265D01*
X130300227Y-70742304D01*
X130324495Y-70738704D01*
X130348999Y-70737500D01*
X130999001Y-70737500D01*
X131023505Y-70738704D01*
X131023505Y-70738704D01*
G37*
D14*
X130674000Y-71437500D03*
D10*
G36*
X133073505Y-70738704D02*
G01*
X133097773Y-70742304D01*
X133121572Y-70748265D01*
X133144671Y-70756530D01*
X133166850Y-70767020D01*
X133187893Y-70779632D01*
X133207599Y-70794247D01*
X133225777Y-70810723D01*
X133242253Y-70828901D01*
X133256868Y-70848607D01*
X133269480Y-70869650D01*
X133279970Y-70891829D01*
X133288235Y-70914928D01*
X133294196Y-70938727D01*
X133297796Y-70962995D01*
X133299000Y-70987499D01*
X133299000Y-71887501D01*
X133297796Y-71912005D01*
X133294196Y-71936273D01*
X133288235Y-71960072D01*
X133279970Y-71983171D01*
X133269480Y-72005350D01*
X133256868Y-72026393D01*
X133242253Y-72046099D01*
X133225777Y-72064277D01*
X133207599Y-72080753D01*
X133187893Y-72095368D01*
X133166850Y-72107980D01*
X133144671Y-72118470D01*
X133121572Y-72126735D01*
X133097773Y-72132696D01*
X133073505Y-72136296D01*
X133049001Y-72137500D01*
X132398999Y-72137500D01*
X132374495Y-72136296D01*
X132350227Y-72132696D01*
X132326428Y-72126735D01*
X132303329Y-72118470D01*
X132281150Y-72107980D01*
X132260107Y-72095368D01*
X132240401Y-72080753D01*
X132222223Y-72064277D01*
X132205747Y-72046099D01*
X132191132Y-72026393D01*
X132178520Y-72005350D01*
X132168030Y-71983171D01*
X132159765Y-71960072D01*
X132153804Y-71936273D01*
X132150204Y-71912005D01*
X132149000Y-71887501D01*
X132149000Y-70987499D01*
X132150204Y-70962995D01*
X132153804Y-70938727D01*
X132159765Y-70914928D01*
X132168030Y-70891829D01*
X132178520Y-70869650D01*
X132191132Y-70848607D01*
X132205747Y-70828901D01*
X132222223Y-70810723D01*
X132240401Y-70794247D01*
X132260107Y-70779632D01*
X132281150Y-70767020D01*
X132303329Y-70756530D01*
X132326428Y-70748265D01*
X132350227Y-70742304D01*
X132374495Y-70738704D01*
X132398999Y-70737500D01*
X133049001Y-70737500D01*
X133073505Y-70738704D01*
X133073505Y-70738704D01*
G37*
D14*
X132724000Y-71437500D03*
D10*
G36*
X116436505Y-90550704D02*
G01*
X116460773Y-90554304D01*
X116484572Y-90560265D01*
X116507671Y-90568530D01*
X116529850Y-90579020D01*
X116550893Y-90591632D01*
X116570599Y-90606247D01*
X116588777Y-90622723D01*
X116605253Y-90640901D01*
X116619868Y-90660607D01*
X116632480Y-90681650D01*
X116642970Y-90703829D01*
X116651235Y-90726928D01*
X116657196Y-90750727D01*
X116660796Y-90774995D01*
X116662000Y-90799499D01*
X116662000Y-91699501D01*
X116660796Y-91724005D01*
X116657196Y-91748273D01*
X116651235Y-91772072D01*
X116642970Y-91795171D01*
X116632480Y-91817350D01*
X116619868Y-91838393D01*
X116605253Y-91858099D01*
X116588777Y-91876277D01*
X116570599Y-91892753D01*
X116550893Y-91907368D01*
X116529850Y-91919980D01*
X116507671Y-91930470D01*
X116484572Y-91938735D01*
X116460773Y-91944696D01*
X116436505Y-91948296D01*
X116412001Y-91949500D01*
X115761999Y-91949500D01*
X115737495Y-91948296D01*
X115713227Y-91944696D01*
X115689428Y-91938735D01*
X115666329Y-91930470D01*
X115644150Y-91919980D01*
X115623107Y-91907368D01*
X115603401Y-91892753D01*
X115585223Y-91876277D01*
X115568747Y-91858099D01*
X115554132Y-91838393D01*
X115541520Y-91817350D01*
X115531030Y-91795171D01*
X115522765Y-91772072D01*
X115516804Y-91748273D01*
X115513204Y-91724005D01*
X115512000Y-91699501D01*
X115512000Y-90799499D01*
X115513204Y-90774995D01*
X115516804Y-90750727D01*
X115522765Y-90726928D01*
X115531030Y-90703829D01*
X115541520Y-90681650D01*
X115554132Y-90660607D01*
X115568747Y-90640901D01*
X115585223Y-90622723D01*
X115603401Y-90606247D01*
X115623107Y-90591632D01*
X115644150Y-90579020D01*
X115666329Y-90568530D01*
X115689428Y-90560265D01*
X115713227Y-90554304D01*
X115737495Y-90550704D01*
X115761999Y-90549500D01*
X116412001Y-90549500D01*
X116436505Y-90550704D01*
X116436505Y-90550704D01*
G37*
D14*
X116087000Y-91249500D03*
D10*
G36*
X114386505Y-90550704D02*
G01*
X114410773Y-90554304D01*
X114434572Y-90560265D01*
X114457671Y-90568530D01*
X114479850Y-90579020D01*
X114500893Y-90591632D01*
X114520599Y-90606247D01*
X114538777Y-90622723D01*
X114555253Y-90640901D01*
X114569868Y-90660607D01*
X114582480Y-90681650D01*
X114592970Y-90703829D01*
X114601235Y-90726928D01*
X114607196Y-90750727D01*
X114610796Y-90774995D01*
X114612000Y-90799499D01*
X114612000Y-91699501D01*
X114610796Y-91724005D01*
X114607196Y-91748273D01*
X114601235Y-91772072D01*
X114592970Y-91795171D01*
X114582480Y-91817350D01*
X114569868Y-91838393D01*
X114555253Y-91858099D01*
X114538777Y-91876277D01*
X114520599Y-91892753D01*
X114500893Y-91907368D01*
X114479850Y-91919980D01*
X114457671Y-91930470D01*
X114434572Y-91938735D01*
X114410773Y-91944696D01*
X114386505Y-91948296D01*
X114362001Y-91949500D01*
X113711999Y-91949500D01*
X113687495Y-91948296D01*
X113663227Y-91944696D01*
X113639428Y-91938735D01*
X113616329Y-91930470D01*
X113594150Y-91919980D01*
X113573107Y-91907368D01*
X113553401Y-91892753D01*
X113535223Y-91876277D01*
X113518747Y-91858099D01*
X113504132Y-91838393D01*
X113491520Y-91817350D01*
X113481030Y-91795171D01*
X113472765Y-91772072D01*
X113466804Y-91748273D01*
X113463204Y-91724005D01*
X113462000Y-91699501D01*
X113462000Y-90799499D01*
X113463204Y-90774995D01*
X113466804Y-90750727D01*
X113472765Y-90726928D01*
X113481030Y-90703829D01*
X113491520Y-90681650D01*
X113504132Y-90660607D01*
X113518747Y-90640901D01*
X113535223Y-90622723D01*
X113553401Y-90606247D01*
X113573107Y-90591632D01*
X113594150Y-90579020D01*
X113616329Y-90568530D01*
X113639428Y-90560265D01*
X113663227Y-90554304D01*
X113687495Y-90550704D01*
X113711999Y-90549500D01*
X114362001Y-90549500D01*
X114386505Y-90550704D01*
X114386505Y-90550704D01*
G37*
D14*
X114037000Y-91249500D03*
M02*
